<svg xmlns="http://www.w3.org/2000/svg" xml:space="preserve" width="872" height="889" viewBox="0 0 872 889"><defs><path id="a" d="M586.572 71.608h176.733v80.749H586.572z"/></defs><circle cx="433.167" cy="432.883" r="327.606" style="fill:none;stroke:#000;stroke-width:14.1129;stroke-dasharray:none;stroke-opacity:1"/><text xml:space="preserve" style="font-style:normal;font-variant:normal;font-weight:400;font-stretch:normal;font-size:64px;font-family:Arial;-inkscape-font-specification:Arial;text-align:start;writing-mode:lr-tb;direction:ltr;white-space:pre;shape-inside:url(#a);display:inline;fill:none;stroke:#000;stroke-width:3.77953;stroke-dasharray:none" transform="translate(204.158 324.52)"><tspan x="586.572" y="129.256"><tspan style="fill:#000">3</tspan></tspan></text><text xml:space="preserve" x="38.089" y="460.117" style="font-style:normal;font-variant:normal;font-weight:400;font-stretch:normal;font-size:64px;font-family:Arial;-inkscape-font-specification:Arial;text-align:start;writing-mode:lr-tb;direction:ltr;text-anchor:start;fill:#000;fill-opacity:1;stroke:#000;stroke-width:3.77953;stroke-dasharray:none"><tspan x="38.089" y="460.117">9</tspan></text><text xml:space="preserve" x="415.362" y="844.055" style="font-style:normal;font-variant:normal;font-weight:400;font-stretch:normal;font-size:64px;font-family:Arial;-inkscape-font-specification:Arial;text-align:start;writing-mode:lr-tb;direction:ltr;text-anchor:start;fill:#000;fill-opacity:1;stroke:#000;stroke-width:3.77953;stroke-dasharray:none"><tspan x="415.362" y="844.055">6</tspan></text><text xml:space="preserve" x="395.556" y="80.749" style="font-style:normal;font-variant:normal;font-weight:400;font-stretch:normal;font-size:64px;font-family:Arial;-inkscape-font-specification:Arial;text-align:start;writing-mode:lr-tb;direction:ltr;text-anchor:start;fill:#000;fill-opacity:1;stroke:#000;stroke-width:3.77953;stroke-dasharray:none"><tspan x="395.556" y="80.749">12</tspan></text><path d="M111.22 427.55h639.897v10.665H111.22z" style="fill:#000;fill-opacity:1;stroke:#000;stroke-width:3.77953;stroke-dasharray:none"/><path d="M427.828 103.874h10.677v657.914h-10.677z" style="fill:#000;fill-opacity:1;stroke:#000;stroke-width:3.76779;stroke-dasharray:none"/><path d="M153.178 263.188h10.665v327.606h-10.665z" style="fill:#000;fill-opacity:1;stroke:#000;stroke-width:3.77953;stroke-dasharray:none" transform="rotate(-30)"/><path d="M-163.455 263.292h10.665v327.606h-10.665z" style="fill:#000;fill-opacity:1;stroke:#000;stroke-width:3.77953;stroke-dasharray:none" transform="rotate(-60)"/><path d="M571.095-526.947h10.665v327.606h-10.665z" style="fill:#000;fill-opacity:1;stroke:#000;stroke-width:3.77953;stroke-dasharray:none" transform="rotate(63.534)"/><path d="M590.755-217.27h10.665v327.606h-10.665z" style="fill:#000;fill-opacity:1;stroke:#000;stroke-width:3.77953;stroke-dasharray:none" transform="rotate(34.096)"/><path d="M-161.784-916.699h10.665v327.606h-10.665z" style="fill:#000;fill-opacity:1;stroke:#000;stroke-width:3.77953;stroke-dasharray:none" transform="rotate(150)"/><path d="M153.723-916.001h10.665v327.606h-10.665z" style="fill:#000;fill-opacity:1;stroke:#000;stroke-width:3.77953;stroke-dasharray:none" transform="rotate(120)"/><path d="M-587.44-130.356h10.45v319.767h-10.45z" style="fill:#000;fill-opacity:1;stroke:#000;stroke-width:3.69628;stroke-dasharray:none" transform="rotate(243.386)scale(.99999 1)skewY(.295)"/><path d="M-608.183-449.396h10.665v327.606h-10.665z" style="fill:#000;fill-opacity:1;stroke:#000;stroke-width:3.77953;stroke-dasharray:none" transform="rotate(-145.904)"/><path d="M443.5 257.22V125.963l7.534.48c4.143.266 11.782.938 16.974 1.496 40.739 4.376 82.645 18.228 117.214 38.746l6.11 3.626-5.136 7.52c-2.825 4.136-35.97 53.092-73.657 108.792-37.687 55.699-68.638 101.402-68.78 101.563-.143.16-.26-58.774-.26-130.966zm14.763 146.968c0-.182 33.71-50.135 74.913-111.005l74.914-110.675 5.508 3.949c26.821 19.227 51.717 44.806 70.562 72.5 6.367 9.356 15.192 23.798 15.192 24.86 0 .361-54.245 27.667-120.545 60.68s-120.544 59.874-120.544 59.691zm134.501-42.842 121.246-60.481 3.242 6.753c7.424 15.462 14.814 37.38 19.185 56.896 3.66 16.34 5.69 31.057 7.027 50.953l.437 6.483-136.191-.062-136.19-.061zm-.414 152.001-115.949-67.03 134.462-.177c73.954-.097 134.58-.059 134.724.086.358.358-1.053 20.42-1.954 27.775-4.033 32.923-14.07 66.487-28.498 95.302-2.988 5.968-5.748 10.902-6.134 10.963-.385.06-52.878-30.052-116.65-66.919zm-61.043 69.508c-36.941-64.012-67.06-116.47-66.93-116.576s15.847 8.837 34.928 19.872 71.53 41.333 116.557 67.328c64.715 37.364 81.8 47.514 81.554 48.453-.555 2.124-13.033 19.929-20.416 29.131-17.011 21.204-37.17 40.266-59.426 56.193-6.451 4.617-17.97 12.012-18.682 11.994-.23-.006-30.643-52.384-67.585-116.395zm-84.856 33.041c0-72.398.118-131.502.263-131.341.144.16 29.823 51.502 65.951 114.092 50.969 88.299 65.476 113.945 64.74 114.444-2.375 1.61-19.344 9.523-27.58 12.86-29.915 12.122-63.81 19.765-93.737 21.137l-9.637.441z" style="fill:#000;stroke:#000;stroke-width:0;stroke-dasharray:none"/></svg>