<?xml version="1.0" encoding="UTF-8" standalone="no"?>
<svg
   xml:space="preserve"
   width="872"
   height="889"
   viewBox="0 0 872 889"
   version="1.1"
   id="svg1"
   sodipodi:docname="6.svg"
   inkscape:version="1.4.2 (f4327f4, 2025-05-13)"
   xmlns:inkscape="http://www.inkscape.org/namespaces/inkscape"
   xmlns:sodipodi="http://sodipodi.sourceforge.net/DTD/sodipodi-0.dtd"
   xmlns="http://www.w3.org/2000/svg"
   xmlns:svg="http://www.w3.org/2000/svg"><defs
   id="defs1"><rect
     x="586.57241"
     y="71.607541"
     width="176.7335"
     height="80.748929"
     id="rect5" /><rect
     x="539.3419"
     y="42.659811"
     width="173.68637"
     height="120.36161"
     id="rect2" /></defs><sodipodi:namedview
   id="namedview1"
   pagecolor="#ffffff"
   bordercolor="#000000"
   borderopacity="0.25"
   inkscape:showpageshadow="2"
   inkscape:pageopacity="0.0"
   inkscape:pagecheckerboard="0"
   inkscape:deskcolor="#d1d1d1"
   showgrid="false"
   inkscape:zoom="0.32817773"
   inkscape:cx="1572.3188"
   inkscape:cy="120.36161"
   inkscape:window-width="2067"
   inkscape:window-height="1211"
   inkscape:window-x="2005"
   inkscape:window-y="1582"
   inkscape:window-maximized="0"
   inkscape:current-layer="svg1" /><circle
   cx="433.16653"
   cy="432.8826"
   r="327.6059"
   style="fill:none;stroke:#000000;stroke-width:14.1129;stroke-dasharray:none;stroke-opacity:1"
   id="circle1" /><text
   xml:space="preserve"
   id="text2"
   style="font-style:normal;font-variant:normal;font-weight:normal;font-stretch:normal;font-size:42.6667px;font-family:'La Bamba LET';-inkscape-font-specification:'La Bamba LET';text-align:start;writing-mode:lr-tb;direction:ltr;white-space:pre;shape-inside:url(#rect2);display:inline;fill:none;stroke:#000000;stroke-width:18" /><text
   xml:space="preserve"
   style="font-style:normal;font-variant:normal;font-weight:normal;font-stretch:normal;font-size:42.6667px;font-family:'La Bamba LET';-inkscape-font-specification:'La Bamba LET';text-align:start;writing-mode:lr-tb;direction:ltr;text-anchor:start;fill:none;stroke:#000000;stroke-width:3.77952756;stroke-dasharray:none"
   x="95.984573"
   y="70.083977"
   id="text3"><tspan
     sodipodi:role="line"
     id="tspan3"
     x="95.984573"
     y="70.083977" /></text><text
   xml:space="preserve"
   id="text5"
   style="font-style:normal;font-variant:normal;font-weight:normal;font-stretch:normal;font-size:64px;font-family:Arial;-inkscape-font-specification:Arial;text-align:start;writing-mode:lr-tb;direction:ltr;white-space:pre;shape-inside:url(#rect5);display:inline;fill:none;stroke:#000000;stroke-width:3.77953;stroke-dasharray:none"
   transform="translate(204.15767,324.51928)"><tspan
     x="586.57227"
     y="129.2557"
     id="tspan5"><tspan
       style="fill:#000000"
       id="tspan4">3</tspan></tspan></text><text
   xml:space="preserve"
   style="font-style:normal;font-variant:normal;font-weight:normal;font-stretch:normal;font-size:64px;font-family:Arial;-inkscape-font-specification:Arial;text-align:start;writing-mode:lr-tb;direction:ltr;text-anchor:start;fill:#000000;fill-opacity:1;stroke:#000000;stroke-width:3.77953;stroke-dasharray:none"
   x="38.089092"
   y="460.11655"
   id="text6"><tspan
     sodipodi:role="line"
     id="tspan6"
     x="38.089092"
     y="460.11655">9</tspan></text><text
   xml:space="preserve"
   style="font-style:normal;font-variant:normal;font-weight:normal;font-stretch:normal;font-size:64px;font-family:Arial;-inkscape-font-specification:Arial;text-align:start;writing-mode:lr-tb;direction:ltr;text-anchor:start;fill:#000000;fill-opacity:1;stroke:#000000;stroke-width:3.77953;stroke-dasharray:none"
   x="415.36246"
   y="844.05487"
   id="text7"><tspan
     sodipodi:role="line"
     id="tspan7"
     x="415.36246"
     y="844.05487">6</tspan></text><text
   xml:space="preserve"
   style="font-style:normal;font-variant:normal;font-weight:normal;font-stretch:normal;font-size:64px;font-family:Arial;-inkscape-font-specification:Arial;text-align:start;writing-mode:lr-tb;direction:ltr;text-anchor:start;fill:#000000;fill-opacity:1;stroke:#000000;stroke-width:3.77953;stroke-dasharray:none"
   x="395.55612"
   y="80.748932"
   id="text8"><tspan
     sodipodi:role="line"
     id="tspan8"
     x="395.55612"
     y="80.748932">12</tspan></text><rect
   style="fill:#000000;fill-opacity:1;stroke:#000000;stroke-width:3.77953;stroke-dasharray:none"
   id="rect8"
   width="639.89716"
   height="10.664953"
   x="111.22022"
   y="427.55013" /><rect
   style="fill:#000000;fill-opacity:1;stroke:#000000;stroke-width:3.76779;stroke-dasharray:none"
   id="rect9"
   width="10.676696"
   height="657.91449"
   x="427.82831"
   y="103.87379" /><rect
   style="fill:#000000;fill-opacity:1;stroke:#000000;stroke-width:3.77953;stroke-dasharray:none"
   id="rect10"
   width="10.664953"
   height="327.6059"
   x="153.17799"
   y="263.18802"
   transform="rotate(-30)" /><rect
   style="fill:#000000;fill-opacity:1;stroke:#000000;stroke-width:3.77953;stroke-dasharray:none"
   id="rect11"
   width="10.664953"
   height="327.6059"
   x="-163.45531"
   y="263.29184"
   transform="rotate(-60)" /><rect
   style="fill:#000000;fill-opacity:1;stroke:#000000;stroke-width:3.77953;stroke-dasharray:none"
   id="rect10-8"
   width="10.664953"
   height="327.6059"
   x="571.09534"
   y="-526.94739"
   transform="rotate(63.533693)" /><rect
   style="fill:#000000;fill-opacity:1;stroke:#000000;stroke-width:3.77953;stroke-dasharray:none"
   id="rect11-8"
   width="10.664953"
   height="327.6059"
   x="590.75507"
   y="-217.26967"
   transform="rotate(34.096399)" /><rect
   style="fill:#000000;fill-opacity:1;stroke:#000000;stroke-width:3.77953;stroke-dasharray:none"
   id="rect10-5"
   width="10.664953"
   height="327.6059"
   x="-161.78375"
   y="-916.69922"
   transform="rotate(150)" /><rect
   style="fill:#000000;fill-opacity:1;stroke:#000000;stroke-width:3.77953;stroke-dasharray:none"
   id="rect11-1"
   width="10.664953"
   height="327.6059"
   x="153.72342"
   y="-916.00134"
   transform="rotate(120)" /><rect
   style="fill:#000000;fill-opacity:1;stroke:#000000;stroke-width:3.69628;stroke-dasharray:none"
   id="rect10-8-7"
   width="10.450349"
   height="319.76669"
   x="-587.44019"
   y="-130.35612"
   transform="matrix(-0.44336829,-0.89633953,0.8940432,-0.44798075,0,0)" /><rect
   style="fill:#000000;fill-opacity:1;stroke:#000000;stroke-width:3.77953;stroke-dasharray:none"
   id="rect11-8-1"
   width="10.664953"
   height="327.6059"
   x="-608.18292"
   y="-449.39554"
   transform="rotate(-145.9036)" />
<path
   style="fill:#000000;stroke:#000000;stroke-width:0;stroke-dasharray:none"
   d="M 443.49952,257.22038 V 125.96282 l 7.53402,0.48109 c 4.14372,0.2646 11.78208,0.93737 16.97412,1.49505 40.73936,4.37583 82.64565,18.22813 117.21477,38.74582 l 6.11041,3.62669 -5.13675,7.51987 c -2.82522,4.13593 -35.97103,53.09198 -73.65735,108.79122 -37.68632,55.69923 -68.63729,101.40275 -68.7799,101.56336 -0.14263,0.1606 -0.25932,-58.77389 -0.25932,-130.96554 z"
   id="path1" /><path
   style="fill:#000000;stroke:#000000;stroke-width:0;stroke-dasharray:none"
   d="m 458.26277,404.18835 c 0,-0.1823 33.71107,-50.13487 74.91349,-111.00571 l 74.9135,-110.67424 5.50786,3.94828 c 26.82172,19.22703 51.71703,44.8061 70.56272,72.5008 6.3664,9.35573 15.19131,23.79759 15.19131,24.86037 0,0.36063 -54.245,27.66609 -120.54444,60.67882 -66.29944,33.01275 -120.54444,59.874 -120.54444,59.69168 z"
   id="path5" /><path
   style="fill:#000000;stroke:#000000;stroke-width:0;stroke-dasharray:none"
   d="m 592.76435,361.34565 121.24528,-60.48088 3.24249,6.75321 c 7.42413,15.46236 14.81434,37.37913 19.18494,56.89577 3.65944,16.34103 5.68914,31.05765 7.02743,50.95358 l 0.43606,6.48276 -136.19075,-0.0617 -136.19074,-0.0618 z"
   id="path6" /><path
   style="fill:#000000;stroke:#000000;stroke-width:0;stroke-dasharray:none"
   d="M 592.3508,513.34714 476.4012,446.31731 610.86285,446.1403 c 73.9539,-0.0974 134.57981,-0.0589 134.72424,0.0856 0.35837,0.35838 -1.053,20.42071 -1.95393,27.7746 -4.03342,32.9231 -14.07003,66.48768 -28.49775,95.30259 -2.98835,5.96826 -5.74872,10.90145 -6.13418,10.96263 -0.38547,0.0612 -52.87816,-30.05216 -116.65043,-66.91857 z"
   id="path7" /><path
   style="fill:#000000;stroke:#000000;stroke-width:0;stroke-dasharray:none"
   d="M 531.30719,582.85493 C 494.36568,518.84341 464.2471,466.38428 464.377,466.27907 c 0.1299,-0.10522 15.8474,8.83722 34.92775,19.87209 19.08037,11.03486 71.53097,41.33258 116.55688,67.32827 64.71555,37.3635 81.80025,47.51368 81.55475,48.45249 -0.55549,2.12416 -13.03385,19.92884 -20.41652,29.13118 -17.01124,21.20414 -37.16942,40.2659 -59.42553,56.1933 -6.45142,4.61691 -17.97017,12.01186 -18.68206,11.99376 -0.23028,-0.006 -30.64356,-52.38372 -67.58508,-116.39523 z"
   id="path8" /><path
   style="fill:#000000;stroke:#000000;stroke-width:0;stroke-dasharray:none"
   d="m 446.45101,615.89595 c 0,-72.3983 0.11828,-131.50187 0.26285,-131.34126 0.14456,0.1606 29.82268,51.50217 65.95135,114.09236 50.96836,88.29882 65.47596,113.9445 64.74004,114.44361 -2.37484,1.61063 -19.34438,9.52367 -27.58037,12.86095 -29.91452,12.12159 -63.8094,19.76422 -93.73732,21.13594 l -9.63655,0.44168 z"
   id="path9" /></svg>
