<?xml version="1.0" encoding="UTF-8" standalone="no"?>
<svg
   xml:space="preserve"
   width="872"
   height="889"
   viewBox="0 0 872 889"
   version="1.1"
   id="svg1"
   sodipodi:docname="6.svg"
   inkscape:version="1.4.2 (f4327f4, 2025-05-13)"
   xmlns:inkscape="http://www.inkscape.org/namespaces/inkscape"
   xmlns:sodipodi="http://sodipodi.sourceforge.net/DTD/sodipodi-0.dtd"
   xmlns="http://www.w3.org/2000/svg"
   xmlns:svg="http://www.w3.org/2000/svg"><defs
   id="defs1"><rect
     x="586.57241"
     y="71.607541"
     width="176.7335"
     height="80.748929"
     id="rect5" /><rect
     x="539.3419"
     y="42.659811"
     width="173.68637"
     height="120.36161"
     id="rect2" /></defs><sodipodi:namedview
   id="namedview1"
   pagecolor="#ffffff"
   bordercolor="#000000"
   borderopacity="0.25"
   inkscape:showpageshadow="2"
   inkscape:pageopacity="0.0"
   inkscape:pagecheckerboard="0"
   inkscape:deskcolor="#d1d1d1"
   showgrid="false"
   inkscape:zoom="0.65635545"
   inkscape:cx="-109.69666"
   inkscape:cy="550.76864"
   inkscape:window-width="2067"
   inkscape:window-height="1211"
   inkscape:window-x="2005"
   inkscape:window-y="1582"
   inkscape:window-maximized="0"
   inkscape:current-layer="svg1" /><circle
   cx="433.16653"
   cy="432.8826"
   r="327.6059"
   style="fill:none;stroke:#000000;stroke-width:14.1129;stroke-dasharray:none;stroke-opacity:1"
   id="circle1" /><text
   xml:space="preserve"
   id="text2"
   style="font-style:normal;font-variant:normal;font-weight:normal;font-stretch:normal;font-size:42.6667px;font-family:'La Bamba LET';-inkscape-font-specification:'La Bamba LET';text-align:start;writing-mode:lr-tb;direction:ltr;white-space:pre;shape-inside:url(#rect2);display:inline;fill:none;stroke:#000000;stroke-width:18" /><text
   xml:space="preserve"
   style="font-style:normal;font-variant:normal;font-weight:normal;font-stretch:normal;font-size:42.6667px;font-family:'La Bamba LET';-inkscape-font-specification:'La Bamba LET';text-align:start;writing-mode:lr-tb;direction:ltr;text-anchor:start;fill:none;stroke:#000000;stroke-width:3.77952756;stroke-dasharray:none"
   x="95.984573"
   y="70.083977"
   id="text3"><tspan
     sodipodi:role="line"
     id="tspan3"
     x="95.984573"
     y="70.083977" /></text><text
   xml:space="preserve"
   id="text5"
   style="font-style:normal;font-variant:normal;font-weight:normal;font-stretch:normal;font-size:64px;font-family:Arial;-inkscape-font-specification:Arial;text-align:start;writing-mode:lr-tb;direction:ltr;white-space:pre;shape-inside:url(#rect5);display:inline;fill:none;stroke:#000000;stroke-width:3.77953;stroke-dasharray:none"
   transform="translate(204.15767,324.51928)"><tspan
     x="586.57227"
     y="129.2557"
     id="tspan2"><tspan
       style="fill:#000000"
       id="tspan1">3</tspan></tspan></text><text
   xml:space="preserve"
   style="font-style:normal;font-variant:normal;font-weight:normal;font-stretch:normal;font-size:64px;font-family:Arial;-inkscape-font-specification:Arial;text-align:start;writing-mode:lr-tb;direction:ltr;text-anchor:start;fill:#000000;fill-opacity:1;stroke:#000000;stroke-width:3.77953;stroke-dasharray:none"
   x="38.089092"
   y="460.11655"
   id="text6"><tspan
     sodipodi:role="line"
     id="tspan6"
     x="38.089092"
     y="460.11655">9</tspan></text><text
   xml:space="preserve"
   style="font-style:normal;font-variant:normal;font-weight:normal;font-stretch:normal;font-size:64px;font-family:Arial;-inkscape-font-specification:Arial;text-align:start;writing-mode:lr-tb;direction:ltr;text-anchor:start;fill:#000000;fill-opacity:1;stroke:#000000;stroke-width:3.77953;stroke-dasharray:none"
   x="415.36246"
   y="844.05487"
   id="text7"><tspan
     sodipodi:role="line"
     id="tspan7"
     x="415.36246"
     y="844.05487">6</tspan></text><text
   xml:space="preserve"
   style="font-style:normal;font-variant:normal;font-weight:normal;font-stretch:normal;font-size:64px;font-family:Arial;-inkscape-font-specification:Arial;text-align:start;writing-mode:lr-tb;direction:ltr;text-anchor:start;fill:#000000;fill-opacity:1;stroke:#000000;stroke-width:3.77953;stroke-dasharray:none"
   x="395.55612"
   y="80.748932"
   id="text8"><tspan
     sodipodi:role="line"
     id="tspan8"
     x="395.55612"
     y="80.748932">12</tspan></text><rect
   style="fill:#000000;fill-opacity:1;stroke:#000000;stroke-width:3.77953;stroke-dasharray:none"
   id="rect8"
   width="639.89716"
   height="10.664953"
   x="111.22022"
   y="427.55013" /><rect
   style="fill:#000000;fill-opacity:1;stroke:#000000;stroke-width:3.76779;stroke-dasharray:none"
   id="rect9"
   width="10.676696"
   height="657.91449"
   x="427.82831"
   y="103.87379" /><rect
   style="fill:#000000;fill-opacity:1;stroke:#000000;stroke-width:3.77953;stroke-dasharray:none"
   id="rect10"
   width="10.664953"
   height="327.6059"
   x="153.17799"
   y="263.18802"
   transform="rotate(-30)" /><rect
   style="fill:#000000;fill-opacity:1;stroke:#000000;stroke-width:3.77953;stroke-dasharray:none"
   id="rect11"
   width="10.664953"
   height="327.6059"
   x="-163.45531"
   y="263.29184"
   transform="rotate(-60)" />
<path
   style="fill:#000000;stroke:#000000;stroke-width:7.49206"
   d="M 449.15326,272.99612 V 129.97555 l 17.74351,1.25947 c 93.77107,6.65605 183.67289,64.21366 230.57895,147.62294 22.1957,39.46882 32.35736,72.97245 38.14327,125.76066 l 1.2493,11.39808 H 593.01078 449.15326 Z"
   id="path1" /><path
   style="fill:#000000;stroke:#000000;stroke-width:7.49206"
   d="m 592.92996,450.72694 h 143.02057 l -1.25947,17.74351 c -6.65605,93.77107 -64.21366,183.67289 -147.62294,230.57895 -39.46882,22.1957 -72.97245,32.35736 -125.76066,38.14327 l -11.39808,1.2493 V 594.58446 450.72694 Z"
   id="path1-5" /><path
   style="fill:#000000;stroke:#000000;stroke-width:7.49206"
   d="m 416.46672,592.11685 v 143.02057 l -17.74351,-1.25947 C 304.95214,727.2219 215.05032,669.66429 168.14426,586.25501 145.94856,546.78619 135.7869,513.28256 130.00099,460.49435 l -1.2493,-11.39808 H 272.6092 416.46672 Z"
   id="path1-5-1" /><path
   style="fill:#000000;stroke:#000000;stroke-width:3.461"
   d="m 131.18988,409.26911 c 1.91973,-28.4867 8.17826,-57.57457 17.55424,-81.58708 5.56618,-14.25537 14.83405,-32.90052 16.10926,-32.40873 1.26009,0.48595 206.36872,118.78914 210.85782,121.61922 2.70254,1.70378 0.73355,1.73217 -121.20335,1.74734 l -123.95051,0.0154 z"
   id="path2" /><path
   style="fill:#000000;stroke:#000000;stroke-width:3.461"
   d="M 289.13642,331.3575 C 231.93001,298.30383 184.18344,270.62759 183.03293,269.8547 l -2.09184,-1.40524 6.48215,-9.58345 c 16.55939,-24.48205 39.07679,-48.1199 62.62401,-65.74019 10.71122,-8.01515 20.61976,-14.45108 21.23749,-13.79446 0.8341,0.88665 122.32374,211.72937 122.10733,211.91472 -0.1342,0.11495 -47.04923,-26.83492 -104.25565,-59.88858 z"
   id="path3" /><path
   style="fill:#000000;stroke:#000000;stroke-width:3.461"
   d="m 356.84547,271.15496 c -33.63246,-58.2973 -61.31496,-106.29222 -61.51667,-106.65537 -0.44593,-0.80279 17.19258,-9.7369 26.96879,-13.66 27.45839,-11.01879 57.96976,-17.9952 86.06066,-19.67771 l 10.30189,-0.61704 v 123.30262 c 0,67.81644 -0.14956,123.30262 -0.33237,123.30262 -0.1828,0 -27.84984,-47.69781 -61.4823,-105.99512 z"
   id="path4" /></svg>
