<svg xmlns="http://www.w3.org/2000/svg" xml:space="preserve" width="872" height="889" viewBox="0 0 872 889"><defs><path id="b" d="M586.572 71.608h176.733v80.749H586.572z"/><path id="a" d="M539.342 42.66h173.686v120.362H539.342z"/></defs><circle cx="433.167" cy="432.883" r="327.606" style="fill:none;stroke:#000;stroke-width:14.1129;stroke-dasharray:none;stroke-opacity:1"/><text xml:space="preserve" x="95.985" y="70.084" style="font-style:normal;font-variant:normal;font-weight:400;font-stretch:normal;font-size:42.6667px;font-family:&quot;La Bamba LET&quot;;-inkscape-font-specification:&quot;La Bamba LET&quot;;text-align:start;writing-mode:lr-tb;direction:ltr;text-anchor:start;fill:none;stroke:#000;stroke-width:3.77952756;stroke-dasharray:none"/><text xml:space="preserve" style="font-style:normal;font-variant:normal;font-weight:400;font-stretch:normal;font-size:64px;font-family:Arial;-inkscape-font-specification:Arial;text-align:start;writing-mode:lr-tb;direction:ltr;white-space:pre;shape-inside:url(#b);display:inline;fill:none;stroke:#000;stroke-width:3.77953;stroke-dasharray:none" transform="translate(204.158 324.52)"><tspan x="586.572" y="129.256"><tspan style="fill:#000">3</tspan></tspan></text><text xml:space="preserve" x="38.089" y="460.117" style="font-style:normal;font-variant:normal;font-weight:400;font-stretch:normal;font-size:64px;font-family:Arial;-inkscape-font-specification:Arial;text-align:start;writing-mode:lr-tb;direction:ltr;text-anchor:start;fill:#000;fill-opacity:1;stroke:#000;stroke-width:3.77953;stroke-dasharray:none"><tspan x="38.089" y="460.117">9</tspan></text><text xml:space="preserve" x="415.362" y="844.055" style="font-style:normal;font-variant:normal;font-weight:400;font-stretch:normal;font-size:64px;font-family:Arial;-inkscape-font-specification:Arial;text-align:start;writing-mode:lr-tb;direction:ltr;text-anchor:start;fill:#000;fill-opacity:1;stroke:#000;stroke-width:3.77953;stroke-dasharray:none"><tspan x="415.362" y="844.055">6</tspan></text><text xml:space="preserve" x="395.556" y="80.749" style="font-style:normal;font-variant:normal;font-weight:400;font-stretch:normal;font-size:64px;font-family:Arial;-inkscape-font-specification:Arial;text-align:start;writing-mode:lr-tb;direction:ltr;text-anchor:start;fill:#000;fill-opacity:1;stroke:#000;stroke-width:3.77953;stroke-dasharray:none"><tspan x="395.556" y="80.749">12</tspan></text><path d="M111.22 427.55h639.897v10.665H111.22z" style="fill:#000;fill-opacity:1;stroke:#000;stroke-width:3.77953;stroke-dasharray:none"/><path d="M427.828 103.874h10.677v657.914h-10.677z" style="fill:#000;fill-opacity:1;stroke:#000;stroke-width:3.76779;stroke-dasharray:none"/><path d="M153.178 263.188h10.665v327.606h-10.665z" style="fill:#000;fill-opacity:1;stroke:#000;stroke-width:3.77953;stroke-dasharray:none" transform="rotate(-30)"/><path d="M-163.455 263.292h10.665v327.606h-10.665z" style="fill:#000;fill-opacity:1;stroke:#000;stroke-width:3.77953;stroke-dasharray:none" transform="rotate(-60)"/><path d="M449.153 272.996v-143.02l17.744 1.259c93.77 6.656 183.673 64.214 230.579 147.623 22.195 39.469 32.357 72.972 38.143 125.76l1.25 11.399H449.152ZM592.93 450.727h143.02l-1.259 17.743c-6.656 93.772-64.214 183.673-147.623 230.58-39.469 22.195-72.972 32.357-125.76 38.143l-11.399 1.249V450.727ZM416.467 592.117v143.02l-17.744-1.259c-93.77-6.656-183.673-64.214-230.579-147.623-22.195-39.469-32.357-72.972-38.143-125.76l-1.25-11.399h287.716Z" style="fill:#000;stroke:#000;stroke-width:7.49206"/><path d="M131.19 409.27c1.92-28.488 8.178-57.575 17.554-81.588 5.566-14.255 14.834-32.9 16.11-32.409 1.26.486 206.368 118.79 210.857 121.62 2.703 1.703.734 1.732-121.203 1.747l-123.95.015zM289.136 331.358c-57.206-33.054-104.953-60.73-106.103-61.503l-2.092-1.406 6.482-9.583c16.56-24.482 39.077-48.12 62.624-65.74 10.711-8.015 20.62-14.451 21.238-13.795.834.887 122.323 211.73 122.107 211.915-.134.115-47.05-26.835-104.256-59.889zM356.845 271.155A313904 313904 0 0 1 295.33 164.5c-.446-.803 17.192-9.737 26.969-13.66 27.458-11.02 57.97-17.996 86.06-19.678l10.302-.617v123.302c0 67.817-.15 123.303-.332 123.303s-27.85-47.698-61.483-105.995z" style="fill:#000;stroke:#000;stroke-width:3.461"/></svg>