<?xml version="1.0" encoding="UTF-8" standalone="no"?>
<svg
   xml:space="preserve"
   width="872"
   height="889"
   viewBox="0 0 872 889"
   version="1.1"
   id="svg1"
   sodipodi:docname="academic.svg"
   inkscape:version="1.4.2 (f4327f4, 2025-05-13)"
   xmlns:inkscape="http://www.inkscape.org/namespaces/inkscape"
   xmlns:sodipodi="http://sodipodi.sourceforge.net/DTD/sodipodi-0.dtd"
   xmlns="http://www.w3.org/2000/svg"
   xmlns:svg="http://www.w3.org/2000/svg"><defs
     id="defs1" /><sodipodi:namedview
     id="namedview1"
     pagecolor="#ffffff"
     bordercolor="#000000"
     borderopacity="0.25"
     inkscape:showpageshadow="2"
     inkscape:pageopacity="0.0"
     inkscape:pagecheckerboard="0"
     inkscape:deskcolor="#d1d1d1"
     inkscape:zoom="1.3127109"
     inkscape:cx="436.12039"
     inkscape:cy="444.5"
     inkscape:window-width="3440"
     inkscape:window-height="1369"
     inkscape:window-x="-8"
     inkscape:window-y="-8"
     inkscape:window-maximized="1"
     inkscape:current-layer="svg1" /><path
     d="M190.26 701.558c-21.276-15.153 7.958-64.999 91.444-155.919 23.677-25.785 26.31-23.33 3.092 2.885-111.062 125.4-122.148 196.981-16.822 108.615l28.998-24.318c27.786-23.3 103.178-92.147 131.31-119.908l5.402-5.331-5.332-5.031-5.331-5.032-95.97-3.278c-157.04-5.364-223.2-17.055-239.79-42.373l-4.587-7.002 5.635-7.714c14.374-19.678 95.888-35.687 175.718-34.512l24.35.359-37.242 3.579C141.306 417.133 96.44 428.38 96.44 445.354v7.002l20.053 6.776c36.338 12.28 61.116 14.626 242.072 22.917 25.997 1.191 47.812 1.759 48.477 1.26.665-.497-24.523-27.002-55.974-58.9-143.33-145.367-200.786-237.043-148.563-237.043 21.746 0 71.257 33.498 130.593 88.355 10.416 9.629 22.018 20.073 25.783 23.208 3.765 3.136 5.542 5.744 3.949 5.797-1.594.052-13.84-9.347-27.215-20.887-114.316-98.634-175.082-117.612-121.98-38.098 35.276 52.823 206.71 239.56 219.929 239.56h5.214v36.363l-36.742 35.532c-39.988 38.672-63.399 59.626-92.172 82.501-10.242 8.142-20.555 16.375-22.918 18.295-42.328 34.385-83.518 52.945-96.686 43.566m483.427.195c-34.264-12.747-103.091-65.974-182.628-141.234L453.1 524.6v-19.65c0-15.756.871-19.65 4.397-19.65 11.197 0 184.788-188.288 215.253-233.478 36.463-54.085 17.53-75.953-31.212-36.053-2.014 1.648-17.599 13.395-34.633 26.105-31.943 23.833-39.509 30.032-61.9 50.722-12.897 11.916-21.807 16.662-14.3 7.617 33.53-40.401 134.55-112.848 157.357-112.848 51.502 0-11.544 99.55-153.735 242.749-28.59 28.793-51.15 52.758-50.133 53.255 1.81.885 30.652-.347 155.115-6.627 209.91-10.592 210.72-50.13 1.432-70.03l-40.107-3.812 25.783-.31c161.25-1.936 241.53 49.097 118.615 75.402-51.014 10.918-175.207 19.927-254.088 18.433l-23.748-.45-4.092 5.405c-5.794 7.652-6.102 7.073 13.693 25.72 43.75 41.216 108.334 100.012 118.108 107.525 4.727 3.633 9.239 7.393 10.027 8.354 12.062 14.72 72.166 51.447 84.195 51.447h7.477v-9.389c0-18.972-31.095-66.51-82.56-126.22-35.574-41.273-31.81-42.206 5.391-1.336 90.263 99.163 115.841 167.183 54.25 144.27zm-249.521-73.344c-18.07-9.28-28.529-32.047-16.428-35.76 3.679-1.128 12.167-6.493 18.864-11.92l12.175-9.87v30.103c0 34.007-.395 34.749-14.611 27.447zm28.935-25.654c0-15.756.633-28.647 1.407-28.647s7.145 4.38 14.158 9.732c7.013 5.353 14.276 10.241 16.14 10.863 10.945 3.648-12.538 36.7-26.076 36.7h-5.63zm-68.754-13.774c0-2.614 49.843-52.115 52.475-52.115 5.011 0 1.138 17.326-5.923 26.496-10.234 13.29-46.552 33.277-46.552 25.619m106.094-3.043c-7.035-2.567-18.315-9.926-25.066-16.352L453.1 557.9V535.83l26.499 25.585c34.127 32.95 34.165 33.036 10.841 24.524m-159.314-16.166c-13.98-14.823-18.801-27.979-17.803-48.583l.836-17.268 37.242.95 37.242.949 8.594 8.44 8.594 8.441-12.891 11.728c-7.09 6.45-19.982 18.386-28.648 26.524-22.374 21.012-21.808 20.862-33.166 8.819m202.187-1.972c-7.09-6.541-20.974-19.531-30.851-28.866l-17.96-16.974 9.043-7.895 9.044-7.896 34.65-1.959 34.652-1.958 3.875 5.132c8.924 11.818-.285 44.946-17.553 63.143-10.861 11.445-9.362 11.609-24.9-2.727m-126.766-56.952c-7.757-4.51-5.936-7.502 3.706-6.087 4.795.704 8.26 2.656 7.699 4.338-1.48 4.437-5.675 5.08-11.405 1.75m65.056.045c-2.647-4.282-.502-5.709 10.553-7.017l9.618-1.138-6.763 5.605c-7.672 6.358-10.699 6.934-13.408 2.55m-63.015-57.377c-13.334-13.014-24.242-24.719-24.242-26.01 0-9.808 35.617-36.742 48.586-36.742h5.844v41.37c0 50.936.052 50.9-30.188 21.382m44.512-19.781v-42.971h4.392c13.825 0 49.654 28.596 46.661 37.243-1.448 4.185-45.879 48.7-48.607 48.7-1.346 0-2.446-19.338-2.446-42.972m-160.427 37.424-24.35-1.615-.8-11.459c-1.963-28.133 33.162-57.964 42.294-35.918 1.933 4.666 9.685 14.256 17.226 21.31l13.712 12.826-10.433 8.733c-5.739 4.804-11.078 8.51-11.866 8.236s-12.39-1.225-25.783-2.113m42.972 1.484c0-2.295 18.672-12.692 26.141-14.555l7.52-1.877 1.294 8.815 1.294 8.815H353.77c-9.968 0-18.124-.54-18.124-1.198m44.13-2.109c-1.267-2.05-.786-2.53 1.263-1.263 1.82 1.124 3.308 2.612 3.308 3.307 0 2.39-2.53 1.258-4.571-2.044m126.323.443c.973-1.576 2.339-2.865 3.033-2.865.695 0 1.264 1.289 1.264 2.865 0 1.575-1.366 2.864-3.034 2.864-1.669 0-2.237-1.289-1.263-2.864m12.89-6.04v-8.905l7.036 1.766c12.778 3.206 20.365 6.792 24.23 11.448l3.814 4.595h-35.08zm38.914-1.233c-6.171-5.454-9.761-9.916-7.978-9.916 5.936 0 22.315-16.655 27.956-28.426 6.38-13.314 9.272-13.99 24.132-5.638 12.914 7.259 20.108 21.017 20.108 38.458v12.795h-22.684c-12.476 0-24.4.594-26.499 1.321-2.098.727-8.864-3.14-15.035-8.594m-205.069-11.958c-15.47-5.722-45.148-42.572-39.132-48.588 1.324-1.324 36.71 33.14 48.307 47.05 3.213 3.853-1.005 4.56-9.175 1.538m196.28-23.786c26.535-26.657 32.25-28.73 21.436-7.774-7.052 13.669-17.137 23.344-30.699 29.45-17.96 8.088-16.15 3.857 9.264-21.676m-192.298-29.516c-10.908-11.315-24.1-25.248-29.317-30.963l-9.484-10.391 9.531-10.856c34.488-39.28 111.13-21.918 111.212 25.192l.02 10.743-6.446.063c-11.263.11-30.28 10.646-43.188 23.927l-12.495 12.856zm142.12 6.425c-10.339-11.564-16.15-15.38-29.36-19.275l-16.467-4.857-.003-12.076c-.015-45.214 72.396-60.352 108.563-22.696l9.733 10.134-9.483 10.887c-15.019 17.242-48.017 52.431-49.103 52.363-.543-.033-6.788-6.55-13.878-14.48zm-68.16-69.325c-3.612-3.851-11.654-9.439-17.871-12.417-16.794-8.044-10.9-27.259 12.183-39.723 13.856-7.482 14.02-7.126 13.073 28.444l-.817 30.698zm22.325-26.43c0-16.542.708-30.076 1.574-30.076 8.878 0 26.588 16.183 32.239 29.46l3.394 7.975-4.996 1.773c-2.748.975-11.12 6.086-18.604 11.357l-13.607 9.585z"
     style="fill:#000;stroke-width:2.86475"
     id="path1" /></svg>
