<?xml version="1.0" encoding="UTF-8" standalone="no"?>
<svg
   xml:space="preserve"
   width="872"
   height="1209"
   viewBox="0 0 872 1209"
   version="1.1"
   id="svg1"
   sodipodi:docname="advanced.svg"
   inkscape:version="1.4.2 (f4327f4, 2025-05-13)"
   xmlns:inkscape="http://www.inkscape.org/namespaces/inkscape"
   xmlns:sodipodi="http://sodipodi.sourceforge.net/DTD/sodipodi-0.dtd"
   xmlns="http://www.w3.org/2000/svg"
   xmlns:svg="http://www.w3.org/2000/svg"><defs
     id="defs1" /><sodipodi:namedview
     id="namedview1"
     pagecolor="#ffffff"
     bordercolor="#000000"
     borderopacity="0.25"
     inkscape:showpageshadow="2"
     inkscape:pageopacity="0.0"
     inkscape:pagecheckerboard="0"
     inkscape:deskcolor="#d1d1d1"
     inkscape:zoom="0.32817773"
     inkscape:cx="-1273.7001"
     inkscape:cy="763.30591"
     inkscape:window-width="3440"
     inkscape:window-height="1369"
     inkscape:window-x="1737"
     inkscape:window-y="1432"
     inkscape:window-maximized="1"
     inkscape:current-layer="svg1" /><circle
     cx="438.49899"
     cy="780.88"
     r="417.83801"
     style="fill:none;stroke:#000000;stroke-width:18;stroke-dasharray:none;stroke-opacity:1"
     id="circle1" /><path
     style="fill:#000000;stroke-width:2.4781"
     d="m 95.136139,520.6992 c -3.25171,-7.83697 -6.12154,-15.92176 -6.37738,-17.96619 -0.25584,-2.04443 -2.71084,-10.408 -5.45555,-18.58572 -9.01363,-26.85562 -11.63246,-49.80405 -11.59464,-101.60193 0.0377,-51.58518 2.27457,-70.93636 11.74464,-101.60193 2.94633,-9.54066 5.50117,-18.46181 5.67744,-19.82476 0.68304,-5.28151 15.904101,-40.4142 22.012181,-50.80769 2.80563,-4.77404 7.88899,-14.03984 11.29638,-20.59067 3.40738,-6.55083 10.09824,-16.82656 14.86857,-22.83497 4.77033,-6.0084 12.57634,-16.06344 17.34667,-22.34452 11.1866,-14.72937 46.51773,-48.386637 61.47529,-58.562811 6.39569,-4.351231 12.18611,-8.677024 12.86759,-9.612872 3.53919,-4.860258 53.86691,-31.99676 73.10382,-39.417295 2.72591,-1.051503 7.74405,-3.132214 11.15143,-4.623802 3.40738,-1.491586 20.84089,-6.49868 38.74112,-11.126873 l 32.54587,-8.414897 59.14367,0.522472 c 45.64249,0.403201 62.67927,1.453296 74.63177,4.600074 8.51846,2.242684 22.05376,5.70817 30.07846,7.701079 8.02469,1.992912 20.77737,6.453484 28.3393,9.912383 7.56194,3.458901 15.42732,6.288909 17.47866,6.288909 2.05132,0 4.33203,0.974639 5.06825,2.165865 0.73622,1.191225 7.21411,4.954298 14.39531,8.362383 41.06009,19.486491 99.62745,69.739455 128.55731,110.306975 8.0297,11.25979 14.59943,21.09516 14.59943,21.85637 0,0.76122 3.34543,6.24644 7.43429,12.1894 4.08886,5.94295 7.43433,12.10501 7.43433,13.69347 0,1.58846 2.3637,6.20766 5.2527,10.26489 2.889,4.05723 6.6709,12.03537 8.4043,17.72921 3.0828,10.12638 6.8585,19.98477 11.6538,30.42782 1.315,2.86374 2.7798,8.43945 3.2552,12.39048 1.302,10.82126 3.6408,20.72121 8.1368,34.44273 3.251,9.92194 4.0598,23.00517 4.0597,65.66953 -10e-5,48.13605 -0.5673,55.43196 -5.8761,75.58193 -3.2318,12.26657 -6.165,24.7498 -6.5183,27.74049 -0.7955,6.73408 -15.626,45.78357 -18.5446,48.82883 -1.2324,1.28595 -8.73,-4.51658 -17.74961,-13.73688 -8.58871,-8.7798 -20.80946,-20.14643 -27.1572,-25.25918 -6.34774,-5.11276 -15.62707,-13.14925 -20.62073,-17.85887 -4.99366,-4.70962 -10.1622,-8.56296 -11.48563,-8.56296 -1.32343,0 -3.7531,-1.13086 -5.39928,-2.51299 -4.40811,-3.70114 -21.54359,-14.84977 -31.49112,-20.48865 -39.42675,-22.34952 -71.08869,-34.55826 -132.57812,-51.1217 -19.11997,-5.15035 -51.24668,-7.8996 -92.56734,-7.92151 -45.88843,-0.0248 -76.13461,3.07651 -104.44128,10.70718 -10.22214,2.75562 -22.08256,5.84843 -26.35646,6.87293 -19.19096,4.60026 -67.00734,25.36009 -98.7878,42.88944 -12.25651,6.7604 -43.36016,27.62304 -49.80162,33.40422 -2.62207,2.35327 -10.33155,8.72108 -17.13222,14.15067 -6.80064,5.42958 -19.1338,16.85979 -27.40699,25.40048 -8.27323,8.54068 -15.59523,15.52851 -16.27116,15.52851 -0.67592,0 -3.889441,-6.41207 -7.141151,-14.24905 z m 80.582131,-78.66987 c 64.24039,-43.06993 137.9287,-69.96896 214.64239,-78.35264 31.66588,-3.46061 102.53761,-1.50524 129.85678,3.58279 88.29082,16.44365 167.02619,53.01829 229.71369,106.70794 10.51567,9.00632 20.23022,16.37511 21.58782,16.37511 2.4524,0 3.7126,-3.80871 11.4784,-34.69334 6.1508,-24.46171 7.7094,-101.25678 2.6469,-130.41805 C 777.87305,280.46768 756.3515,226.84059 730.62661,188.13917 680.72951,113.07228 592.73317,55.148062 504.06596,39.003992 480.12894,34.645661 402.28452,34.583085 379.11038,38.903543 311.02777,51.596492 246.25231,86.206631 195.39405,137.06489 154.63054,177.82839 127.96318,220.88214 109.68427,275.441 89.722959,335.02153 87.805559,420.16087 105.15972,476.34706 l 5.05164,16.35536 19.12392,-16.19864 c 10.51817,-8.90925 31.39051,-24.42275 46.38299,-34.47445 z"
     id="path1" /><path
     style="fill:#000000;stroke-width:1.67045"
     d="m 656.6168,431.83768 c -1.05768,-0.65368 -1.9047,-3.06541 -1.88226,-5.3594 0.0632,-6.44788 -2.28558,-21.11873 -3.7638,-23.51055 -0.96,-1.55332 -4.15557,0.47404 -11.57617,7.34419 -10.37916,9.60928 -14.43914,11.40971 -16.08094,7.13122 -0.54544,-1.42139 2.28579,-5.23796 7.12527,-9.60509 17.03484,-15.37213 17.68531,-16.1995 16.56509,-21.06979 -2.44634,-10.63574 -10.24379,-28.77322 -12.36982,-28.77322 -1.25453,0 -5.766,3.06766 -10.02551,6.81705 -4.25952,3.74938 -9.80114,8.03188 -12.31471,9.51669 -2.51358,1.4848 -4.90718,3.578 -5.31914,4.65152 -0.41197,1.07356 1.80693,8.25451 4.93085,15.95769 6.56321,16.18395 6.85485,18.18193 2.65409,18.18193 -4.21401,0 -7.55739,-4.1166 -12.54943,-15.45168 -2.32658,-5.2828 -5.0757,-9.6051 -6.10916,-9.6051 -1.03346,0 -5.22679,2.30334 -9.31854,5.11853 -4.86076,3.3443 -9.01334,4.93663 -11.97985,4.59375 -7.26786,-0.84006 -6.19396,-5.03829 2.86152,-11.18675 15.29398,-10.38424 15.10134,-8.98889 4.27874,-30.99441 -5.22466,-10.6233 -9.94153,-19.31509 -10.48193,-19.31509 -2.7584,0 -38.81235,24.06552 -38.81235,25.9067 0,1.18224 3.00681,7.09882 6.6818,13.14799 3.67499,6.04916 6.6818,11.77807 6.6818,12.73092 0,1.56866 -3.12454,1.30089 -11.82253,-1.0132 -1.44926,-0.38557 -4.32938,-4.45007 -6.40026,-9.03222 -4.53192,-10.02763 -6.70845,-10.37467 -20.14645,-3.21228 -7.34513,3.91491 -11.29848,4.99535 -16.8085,4.59373 -9.36824,-0.68285 -10.35116,-4.01969 -2.18233,-7.40855 10.18409,-4.22487 25.62151,-14.26523 25.62151,-16.66397 0,-4.11444 -23.08573,-42.37693 -25.591,-42.41475 -0.75323,-0.0117 -4.64719,2.23443 -8.65324,4.99067 -4.00606,2.75625 -7.98887,5.01136 -8.85069,5.01136 -2.64082,0 -24.09344,12.40848 -24.85278,14.37518 -0.72875,1.88748 16.9219,33.30689 19.66251,35.00069 3.47193,2.14578 1.07991,4.07855 -5.04762,4.07855 -5.44161,0 -7.36631,-0.97798 -11.28804,-5.7357 -2.60032,-3.15465 -6.84654,-9.91998 -9.43604,-15.03407 -2.5895,-5.11408 -5.68225,-9.29834 -6.87276,-9.29834 -1.19053,0 -9.2142,3.9931 -17.8304,8.87355 -23.53074,13.32846 -25.08262,14.49957 -23.94864,18.07247 1.27466,4.01604 -6.69329,7.61333 -10.27649,4.63955 -1.72255,-1.42961 -3.86269,-1.26348 -8.71015,0.67609 -3.53456,1.41426 -11.10693,3.42009 -16.82749,4.45744 -5.72054,1.03733 -11.55613,2.32931 -12.96795,2.87109 -2.23124,0.8562 -2.27223,0.50987 -0.31345,-2.6482 1.2394,-1.99826 8.07917,-6.39656 15.19946,-9.77398 7.1203,-3.37741 12.946,-7.17016 12.946,-8.42829 0,-1.25815 -2.92133,-7.30477 -6.49183,-13.43693 -3.57049,-6.13216 -8.3746,-14.51695 -10.67581,-18.63289 -6.71904,-12.01769 -7.12182,-12.01682 -27.13459,0.059 -9.81264,5.921 -18.2662,11.82106 -18.78567,13.11128 -1.01188,2.51318 4.22929,12.8748 15.18044,30.01119 6.5136,10.19253 6.66744,10.73837 3.64831,12.946 -4.64497,3.39649 -7.11957,2.84367 -10.24611,-2.28892 -1.53907,-2.52655 -5.28723,-8.48692 -8.32923,-13.24523 -3.04202,-4.75832 -6.00822,-10.55318 -6.59157,-12.87747 -2.04881,-8.16309 -4.36125,-8.05434 -17.52548,0.82426 -6.84215,4.61467 -14.13162,9.07527 -16.1988,9.91241 -5.15267,2.08672 -4.79919,4.25797 3.10807,19.09084 4.59775,8.62472 6.3122,13.43508 5.18879,14.55849 -3.47288,3.47288 -7.66478,0.18232 -13.56663,-10.64964 -3.34999,-6.14839 -6.56784,-11.65583 -7.15077,-12.23876 -0.98458,-0.98457 -24.747,15.25987 -24.747,16.91753 0,0.41186 2.22028,5.14717 4.93395,10.52291 2.71366,5.37574 4.46764,10.24037 3.89771,10.81029 -2.68554,2.68554 -5.78883,0.33694 -9.66688,-7.31603 -2.32782,-4.59374 -4.67534,-8.35225 -5.21671,-8.35225 -2.40024,0 -13.99347,10.54441 -13.99347,12.72751 0,1.33325 1.22938,4.30036 2.73196,6.59357 2.78482,4.25019 2.26703,6.9576 -0.95038,4.96914 -0.97986,-0.6056 -1.78158,-2.56013 -1.78158,-4.3434 0,-4.02223 -1.48548,-4.13382 -4.27345,-0.32105 -1.95771,2.67733 -2.22907,2.55083 -3.24949,-1.51487 -0.61237,-2.43987 -0.27959,-5.99413 0.73952,-7.89834 1.78108,-3.328 0.9551,-10.90368 -1.56883,-14.3887 -2.2409,-3.09418 -3.45808,-10.85792 -1.70228,-10.85792 0.93626,0 1.73378,1.31548 1.7723,2.92329 0.0386,1.60781 1.37884,5.37708 2.97855,8.37615 l 2.90852,5.45287 6.34415,-6.497 6.34415,-6.49702 -5.04667,-12.31946 c -2.77569,-6.77571 -5.27956,-14.19104 -5.56419,-16.47852 -0.82931,-6.66502 -5.11501,-5.7452 -10.09021,2.16559 -3.95425,6.28744 -4.34334,8.01292 -2.92329,12.96433 0.90095,3.14136 1.63806,5.93958 1.63806,6.2182 0,0.27865 -1.81322,-0.84394 -4.02939,-2.49465 -3.59853,-2.68034 -3.92776,-3.89435 -3.079,-11.35352 0.70526,-6.19806 2.39077,-10.04545 6.53507,-14.91712 6.25894,-7.35748 6.79625,-11.4614 3.09708,-23.65537 -1.36817,-4.51007 -2.49572,-9.9541 -2.50568,-12.09784 -0.0234,-5.0316 -3.4998,-3.96206 -6.38904,1.9656 -2.19378,4.50085 -5.32219,4.64031 -5.32219,0.23726 0,-1.2831 1.87926,-5.10215 4.17613,-8.48679 3.3718,-4.96862 4.17612,-8.2002 4.17612,-16.77869 0,-5.96957 -0.7319,-10.62482 -1.67045,-10.62482 -2.39938,0 -1.96061,-6.99481 0.6549,-10.44031 1.2205,-1.60782 2.57472,-2.9233 3.00937,-2.9233 0.43465,0 0.79027,4.53529 0.79027,10.07838 0,14.75581 2.17797,15.34521 10.35075,2.80114 l 6.95424,-10.67377 -1.30542,-11.54319 c -1.12978,-9.99036 -1.72501,-11.47016 -4.42474,-11.00026 -2.43798,0.42433 -2.84647,-0.12294 -1.87005,-2.50567 3.17241,-7.74141 5.68081,-19.9894 4.80693,-23.47124 -0.89249,-3.55596 1.66551,-8.81026 4.28917,-8.81026 0.62177,0 0.82335,2.63096 0.44793,5.84658 -0.3754,3.21562 -0.015,5.84658 0.8013,5.84658 3.10202,0 22.03085,-21.02603 22.55752,-25.05677 0.45128,-3.45363 1.3393,-4.09312 5.13299,-3.69628 2.52301,0.26389 6.0936,-0.32633 7.93464,-1.31163 4.39604,-2.35268 4.25462,-0.3493 -0.31901,4.51909 l -3.66632,3.90264 3.11063,12.90953 c 1.71084,7.10025 3.62853,13.51566 4.26156,14.25647 0.63301,0.74082 3.32611,-0.43358 5.98467,-2.60977 11.68439,-9.56438 15.70262,-11.66552 18.25621,-9.54623 1.34574,1.11686 2.4468,2.59588 2.4468,3.28672 0,0.69083 -5.26192,5.25637 -11.69315,10.14565 -6.43124,4.88927 -11.69316,9.48182 -11.69316,10.20568 0,2.234 13.10511,31.84765 14.87854,33.62108 1.11552,1.11552 3.50409,0.27685 7.17787,-2.52027 3.02832,-2.30569 8.51284,-5.78135 12.18783,-7.7237 3.675,-1.94235 9.29554,-5.74135 12.49012,-8.44223 l 5.80829,-4.91068 -4.85331,-10.15431 c -2.66932,-5.58487 -4.52982,-10.4778 -4.13444,-10.87319 0.3954,-0.39539 2.77422,-1.23474 5.28627,-1.86523 3.9503,-0.99146 4.96544,-0.42087 7.51361,4.22328 1.62042,2.95329 4.14935,6.9219 5.61984,8.81913 l 2.6736,3.4495 5.39615,-3.84241 c 4.73856,-3.37415 5.88859,-3.57884 9.43717,-1.6797 5.75366,3.07927 5.02275,5.94909 -2.62794,10.31813 -7.07477,4.04014 -8.78188,9.18412 -4.28609,12.91527 2.53761,2.10604 14.29593,25.18635 14.29593,28.06139 0,0.92304 1.09961,2.59082 2.44357,3.70622 1.9932,1.65422 5.54797,0.15252 19.28788,-8.14772 9.26437,-5.59661 17.18519,-10.17568 17.60185,-10.17568 0.41663,0 0.74831,3.19475 0.73704,7.09942 -0.0204,7.07246 -0.0681,7.12708 -12.5926,14.38237 -19.31312,11.18798 -18.9708,8.74798 -4.59627,32.76137 12.61232,21.06951 15.88761,24.03961 20.44898,18.5435 1.08803,-1.311 9.82465,-6.96079 19.41471,-12.55507 9.73274,-5.67751 17.43649,-11.2667 17.43649,-12.65043 0,-1.75925 1.85353,-2.47898 6.38423,-2.47898 10.14558,0 21.03006,-4.61382 30.80557,-13.05811 4.98061,-4.3024 11.21784,-9.38944 13.86053,-11.30455 l 4.80486,-3.48202 -4.4276,-9.78618 c -3.26422,-7.21473 -4.00313,-10.57939 -2.81208,-12.80487 2.75492,-5.14763 6.05804,-3.37898 11.52072,6.16879 2.89109,5.05311 6.22532,9.18748 7.40939,9.18748 1.97797,0 34.88692,-18.77435 38.37787,-21.89432 0.88751,-0.79321 -0.0972,-4.4078 -2.36586,-8.68424 -7.30285,-13.76599 1.14268,-18.25781 10.03302,-5.33613 2.84451,4.13436 5.63372,7.51702 6.19819,7.51702 2.00611,0 30.82534,-18.41746 32.52186,-20.78369 0.6242,-0.8706 -0.31543,-3.61973 -2.08806,-6.10915 -3.60701,-5.06557 -4.13794,-8.18663 -1.39264,-8.18663 2.58298,0 11.53327,5.46485 11.53327,7.04197 0,3.09111 6.39635,0.76559 19.36898,-7.04197 11.7758,-7.08725 15.15497,-8.35226 22.31111,-8.35226 9.20487,0 10.77604,1.73729 4.25732,4.70742 -2.29688,1.04652 -4.20082,2.85851 -4.231,4.02664 -0.10458,4.05053 17.60633,36.36592 19.93153,36.36702 2.93496,0.002 13.53235,-10.76115 13.53235,-13.74325 0,-1.21923 -1.01823,-3.69953 -2.26274,-5.51176 -4.89699,-7.13093 -12.98797,-22.84532 -12.17902,-23.65427 1.71218,-1.71217 4.08993,1.28199 8.51519,10.72271 2.48439,5.30013 6.36176,11.38074 8.61639,13.51246 3.41067,3.22474 3.91453,4.86082 2.99954,9.73843 -1.01492,5.40984 -0.30471,8.18352 4.52826,17.68398 0.81154,1.59534 1.40776,4.978 1.32486,7.51702 -0.14097,4.32187 -0.25597,4.24339 -1.80118,-1.23016 -0.9078,-3.21562 -2.34343,-6.5607 -3.19026,-7.4335 -0.84681,-0.87282 -1.53966,-2.94 -1.53966,-4.59375 0,-4.19821 -2.57924,-3.75699 -9.2767,1.58693 -5.47041,4.36485 -7.38894,9.23479 -4.3725,11.09905 0.76167,0.47074 3.55127,7.65627 6.1991,15.96787 2.64783,8.31157 5.23938,15.11196 5.7589,15.11196 2.63182,0 10.0491,-14.66495 10.09653,-19.96217 0.0489,-5.46112 0.23919,-5.68421 2.40684,-2.82249 2.75104,3.63199 2.8961,19.44224 0.17841,19.44675 -0.99174,0.002 -3.9039,3.32829 -6.47152,7.39257 -4.56854,7.23153 -4.61649,7.56192 -2.24327,15.44868 1.33377,4.4325 3.06995,10.63116 3.85811,13.7748 1.59985,6.38099 5.55924,9.02299 5.55924,3.70958 0,-3.37959 2.79319,-6.35365 4.43002,-4.71686 0.47672,0.47676 -0.21936,3.37092 -1.54686,6.43147 -5.71724,13.18084 -6.25605,15.50574 -5.48862,23.68064 0.50605,5.39014 0.35867,6.7443 -0.39396,3.62024 -2.03448,-8.44437 -5.92372,-7.02553 -13.39188,4.88548 l -6.83861,10.90691 2.62345,12.13902 c 3.92941,18.18163 3.03274,28.25978 -2.22517,25.0102 z M 238.09236,379.50071 c 6.16823,-4.70935 11.42475,-9.09719 11.68114,-9.75078 0.2564,-0.65358 -2.56248,-7.77502 -6.26419,-15.82541 -3.7017,-8.05042 -6.73036,-15.59776 -6.73036,-16.7719 0,-1.17416 -1.17615,-3.11093 -2.61367,-4.30397 -2.24317,-1.86166 -4.1741,-0.6087 -13.62209,8.83929 l -11.00845,11.00844 2.76418,5.82508 c 1.52029,3.20378 2.76418,6.25641 2.76418,6.78362 0,1.8764 10.00067,22.75806 10.89933,22.75806 0.50322,0 5.96169,-3.85309 12.12993,-8.56243 z m 425.53715,-5.96402 c 7.01587,-8.61272 7.67246,-10.15733 6.92293,-16.2869 -1.21164,-9.90844 -3.60381,-19.61695 -5.87309,-23.83545 -1.93649,-3.59981 -2.26186,-3.41918 -12.00977,6.66701 -6.42251,6.6454 -9.67181,11.27191 -9.05127,12.88755 0.53245,1.38626 2.98634,8.71663 5.4531,16.28972 2.46677,7.57309 5.00751,13.77463 5.64608,13.78122 0.63859,0.007 4.64899,-4.26984 8.91202,-9.50315 z m -54.03949,-8.44224 c 3.17421,-2.52656 9.37707,-7.77092 13.78417,-11.65415 9.29264,-8.18802 9.29302,-8.72777 0.0205,-27.84157 -3.16417,-6.52246 -5.75303,-12.82485 -5.75303,-14.00533 0,-4.82168 -5.39656,-3.60869 -15.36571,3.45383 -5.78946,4.10145 -12.14972,7.95464 -14.13394,8.56267 -7.88208,2.41531 -7.78015,4.68213 1.03042,22.91541 12.99435,26.89149 11.579,25.60429 20.41751,18.56914 z M 274.36488,353.68986 c 8.72767,-6.04284 15.8685,-12.09263 15.8685,-13.44399 0,-2.50276 -15.30877,-33.13197 -18.48671,-36.98747 -2.07369,-2.51584 -3.40288,-1.7185 -17.59991,10.55752 -5.25673,4.54543 -10.48601,9.01612 -11.62064,9.93487 -1.5884,1.28618 -0.39795,5.5132 5.17492,18.37496 3.98084,9.18749 7.59173,18.01999 8.02421,19.6278 0.43248,1.60781 1.23291,2.92329 1.77873,2.92329 0.54582,0 8.13323,-4.94414 16.8609,-10.98698 z m 270.43836,-16.00632 c 9.28311,-5.65884 17.88816,-11.20565 19.12228,-12.32626 1.84806,-1.67803 0.26723,-5.6127 -8.9614,-22.30478 -6.16292,-11.14703 -11.84502,-20.66271 -12.62691,-21.14595 -1.58056,-0.97683 -14.12285,4.99144 -15.63656,7.44067 -0.52991,0.85738 -5.72803,4.22339 -11.55144,7.48001 -5.82339,3.25663 -11.40096,6.90072 -12.39459,8.09798 -1.36335,1.64274 1.0332,6.77865 9.76762,20.93243 6.36584,10.31556 11.57425,19.51137 11.57425,20.43514 0,3.24269 3.97567,1.58973 20.70675,-8.60924 z m -325.97952,-7.07231 c 5.28163,-4.95485 9.60297,-9.61783 9.60297,-10.36219 0,-3.31336 -10.36439,-34.08339 -11.48046,-34.08339 -1.77745,0 -15.28637,19.91247 -15.72004,23.17174 -0.43933,3.30198 5.91357,30.28269 7.13041,30.28269 0.47528,0 5.18548,-4.05398 10.46712,-9.00885 z m 432.31861,-1.43147 c 5.41938,-4.82343 9.87317,-9.89743 9.89729,-11.27555 0.049,-2.7977 -11.41422,-33.49319 -13.28324,-35.56909 -1.71361,-1.90329 -24.97942,15.82466 -25.04688,19.08507 -0.0753,3.64029 15.38972,36.52944 17.17677,36.52944 0.77146,0 5.83668,-3.94644 11.25606,-8.76987 z m -339.75929,-1.25284 c 4.34614,-2.75624 8.49202,-5.01135 9.21305,-5.01135 2.33795,0 19.75081,-11.74869 19.75081,-13.32613 0,-2.50827 -16.92123,-34.02646 -20.05745,-37.35981 -2.7624,-2.93604 -3.1566,-2.94574 -8.54142,-0.21024 -9.00518,4.57466 -29.86691,21.06804 -29.86691,23.61294 0,4.65132 17.6343,37.30594 20.14612,37.30594 0.79955,0 5.00965,-2.2551 9.3558,-5.01135 z m 282.32998,-21.0257 c 7.75807,-5.10909 14.489,-10.28839 14.9576,-11.50955 0.92651,-2.41446 -3.94178,-12.84197 -10.93634,-23.42485 -2.42892,-3.67499 -5.45989,-8.74899 -6.73548,-11.27555 -2.86502,-5.67472 -6.28467,-5.79524 -13.61847,-0.47999 -3.12179,2.26258 -9.99828,6.40778 -15.28107,9.21154 -5.2828,2.80376 -9.6051,5.35493 -9.6051,5.66924 0,0.31431 3.75852,7.10317 8.35225,15.08638 4.59374,7.98321 8.35225,14.76458 8.35225,15.06976 0,0.30517 1.16522,3.34358 2.58936,6.75204 3.08632,7.38662 2.89995,7.42995 21.925,-5.09902 z m -341.87984,-3.61345 c 7.17529,-6.20155 13.40932,-12.06966 13.8534,-13.04022 0.4441,-0.97059 -1.74408,-7.27329 -4.86261,-14.00599 -3.11853,-6.73271 -5.67006,-14.0194 -5.67006,-16.19266 0,-6.06065 -5.05862,-4.92283 -12.60698,2.83562 -3.63176,3.73286 -9.04624,8.30438 -12.03217,10.15895 -6.65649,4.13437 -6.7606,6.55817 -1.02984,23.97441 4.09821,12.45475 6.56521,17.54543 8.50272,17.54543 0.43977,0 6.67028,-5.07399 13.84554,-11.27554 z m 378.5184,-23.29088 c 10.13485,-7.44151 12.49143,-11.21984 9.22812,-14.79539 -0.79658,-0.87282 -4.31408,-7.22471 -7.81667,-14.11532 -10.05923,-19.78947 -8.8877,-19.30555 -23.37718,-9.65604 -6.85298,4.56385 -12.45996,8.69363 -12.45996,9.17727 0,0.48365 4.09021,7.74247 9.08935,16.13073 4.99914,8.38827 9.58978,16.56686 10.20142,18.17466 1.63292,4.29245 3.35601,3.73278 15.13492,-4.91591 z m -393.02681,-22.72984 13.0742,-12.06154 -3.80375,-12.92896 c -2.7443,-9.32785 -4.56734,-12.92893 -6.54524,-12.92893 -3.22702,0 -23.32224,20.40178 -23.30383,23.65934 0.0218,3.8344 3.45287,23.63389 4.34618,25.07928 1.49346,2.41648 2.90625,1.47485 16.23244,-10.81919 z m 427.0896,158.35854 c 0,-1.37812 0.75171,-2.50567 1.67046,-2.50567 0.91876,0 1.68717,-0.93963 1.70758,-2.08807 0.0205,-1.14844 1.5071,-3.96732 3.30373,-6.26419 2.41589,-3.0885 3.27631,-3.47345 3.30379,-1.47812 0.0205,1.48392 -1.46628,4.60929 -3.30379,6.94529 -1.83744,2.33599 -3.34085,5.06833 -3.34085,6.07185 0,1.00352 -0.7517,1.82458 -1.67046,1.82458 -0.91875,0 -1.67046,-1.12755 -1.67046,-2.50567 z m 10.76798,-24.36708 c -0.61728,-0.99882 -0.28582,-2.65256 0.73664,-3.675 1.36502,-1.36502 1.85899,-0.88248 1.85899,1.816 0,4.03332 -0.86777,4.6548 -2.59563,1.859 z M 185.12686,335.30475 c 0.0802,-1.946 0.47598,-2.3418 1.00922,-1.00924 0.48254,1.20585 0.42321,2.64663 -0.1318,3.20171 -0.55507,0.55507 -0.94989,-0.43155 -0.87735,-2.19247 z m 229.46187,-15.53987 c -13.10125,-5.95076 -22.45785,-21.12502 -22.45785,-36.42147 0,-6.3368 -0.50191,-6.95151 -12.11077,-14.83265 -6.66092,-4.52205 -19.6278,-14.23946 -28.81528,-21.59427 -31.02207,-24.83393 -30.95245,-24.79835 -39.25559,-20.05185 -13.92321,7.95923 -29.68198,-4.04423 -25.56403,-19.47212 l 1.74176,-6.52551 -9.38711,-8.27581 c -5.16292,-4.55169 -9.95741,-8.28642 -10.65442,-8.29942 -0.69702,-0.0133 -4.45553,2.30576 -8.35226,5.15279 -6.55828,4.79163 -7.80848,5.10298 -16.8181,4.18835 l -9.73315,-0.98806 -16.88072,17.10989 c -9.2844,9.41044 -20.12646,21.51488 -24.09348,26.89875 -7.77833,10.55644 -9.52712,10.47482 -3.45424,-0.16119 4.70795,-8.2455 16.66263,-22.22342 33.40902,-39.06328 7.1203,-7.16004 12.94599,-14.00109 12.94599,-15.20235 0,-1.20128 1.5034,-4.98916 3.3409,-8.41752 4.57436,-8.53478 4.25036,-10.4223 -2.50568,-14.59777 -5.93325,-3.66695 -7.55294,-7.46655 -3.75851,-8.81698 1.14843,-0.40872 5.37538,1.15773 9.39321,3.48099 5.88499,3.40294 7.83346,3.84042 10.02271,2.25029 13.3699,-9.71092 19.58734,-10.94785 25.46833,-5.06688 2.92308,2.92311 3.36654,4.8104 2.54264,10.82142 -0.54888,4.00446 -1.95421,8.82481 -3.12298,10.7119 -1.90904,3.08235 -1.4459,4.00903 4.55677,9.11754 11.42664,9.72451 12.93167,10.15173 21.37072,6.06646 6.78564,-3.28486 7.9979,-4.86756 13.91196,-18.16313 11.24477,-25.2797 30.73764,-62.63753 38.78029,-74.321993 5.55438,-8.06947 12.8978,-14.21508 14.76022,-12.35266 0.56114,0.56113 -2.88735,6.67278 -7.66329,13.58143 -6.90627,9.990273 -31.88159,58.567083 -31.88159,62.009443 0,0.44648 -2.72642,6.77622 -6.0587,14.06608 l -6.0587,13.2543 5.40878,6.16025 c 5.12152,5.8331 5.35236,6.65905 4.3463,15.55146 l -1.06249,9.39121 6.8958,4.12084 c 3.79271,2.26647 9.26143,6.06706 12.15273,8.4458 2.89131,2.37872 13.90149,10.70268 24.4671,18.49765 10.5656,7.79499 20.24185,15.43298 21.50278,16.9733 3.19037,3.89726 4.82066,3.53676 9.57893,-2.11813 5.5634,-6.61173 13.39516,-11.25222 22.42258,-13.2859 9.97999,-2.24827 22.25573,1.3304 31.39345,9.15194 l 6.87777,5.88714 38.0524,-18.93565 c 20.92882,-10.4146 44.06602,-21.04992 51.416,-23.63408 7.34999,-2.58414 13.99262,-5.29299 14.76142,-6.01969 0.76879,-0.72668 0.0987,-5.4422 -1.48888,-10.47888 -1.77849,-5.64198 -2.43869,-10.94261 -1.71975,-13.80713 1.63464,-6.51289 10.30085,-14.16339 16.0438,-14.16339 4.63251,0 4.70749,-0.1637 5.89907,-12.87941 1.19421,-12.74418 -0.95508,-43.5409 -3.45559,-49.5143 -1.02791,-2.45552 -0.64214,-2.97047 1.87237,-2.49946 6.07397,1.13778 8.85963,14.55297 8.94049,43.05567 l 0.0732,25.77032 5.00475,4.2978 c 2.75263,2.36377 6.75835,7.68043 8.90161,11.81479 l 3.89683,7.51703 21.06807,0.46679 21.06807,0.46678 0.51605,-7.14858 c 0.75046,-10.39534 5.56027,-10.57965 12.67511,-0.48573 2.95938,4.19851 5.38069,8.29435 5.38069,9.10187 0,0.80753 3.38134,3.60443 7.51405,6.21535 8.77703,5.54503 9.66348,8.09911 2.29983,6.62639 -5.11666,-1.02333 -5.19916,-0.93916 -4.16178,4.24769 0.58208,2.91044 2.84029,9.11199 5.01818,13.78121 7.56928,16.22777 12.71607,27.79566 12.71607,28.58058 0,0.43426 -0.6114,0.78955 -1.35868,0.78955 -0.74728,0 -2.43861,-2.78127 -3.75852,-6.18063 -1.3199,-3.39933 -4.09116,-9.54036 -6.15834,-13.64669 -2.06719,-4.10636 -3.75852,-8.33522 -3.75852,-9.39747 0,-2.41302 -7.08154,-9.19557 -9.60092,-9.19557 -1.02775,0 -4.64041,-3.38266 -8.02823,-7.51703 l -6.15963,-7.51703 h -21.5944 c -20.50277,0 -21.78038,0.19826 -25.27315,3.92204 -7.42038,7.91108 -15.49468,9.62012 -27.89601,5.90459 -5.72317,-1.7147 -7.50536,-1.30289 -21.90967,5.06285 -8.62387,3.81117 -32.59308,15.39939 -53.26491,25.75159 l -37.58513,18.82219 -0.83523,12.44724 c -1.18397,17.64438 -8.22263,28.06747 -23.17269,34.31488 -7.78247,3.25217 -21.43642,2.88389 -29.53974,-0.79676 z M 198.35858,264.58641 c 0,-4.97878 1.80071,-8.48888 4.35485,-8.48888 2.83469,0 2.93163,1.85661 0.38837,7.43844 -2.29115,5.0285 -4.74322,5.57154 -4.74322,1.05044 z m 183.10465,-17.67636 c -6.27302,-5.97186 -12.5814,-10.85793 -14.01861,-10.85793 -1.43722,0 -3.99386,-1.24957 -5.68145,-2.7768 -2.90168,-2.62597 -2.91284,-2.94866 -0.20569,-5.94003 2.50424,-2.76717 2.5706,-3.6221 0.52998,-6.82828 -1.28299,-2.01578 -5.6752,-9.53156 -9.76043,-16.70172 -5.73555,-10.06662 -8.04146,-12.77428 -10.12155,-11.88496 -1.48159,0.63344 -4.19721,1.238 -6.03471,1.34349 -4.65325,0.26714 -5.58411,-6.6532 -1.08692,-8.08055 4.92684,-1.56372 5.62695,-5.56957 1.86311,-10.66042 -2.88017,-3.89564 -3.09482,-5.32675 -1.4896,-9.93148 2.60102,-7.46132 5.77146,-6.72119 9.15446,2.13705 3.20825,8.40069 6.30354,9.40704 14.94527,4.85907 2.75625,-1.45055 10.83705,-5.64776 17.95734,-9.32712 7.1203,-3.67937 12.94599,-7.65072 12.94599,-8.82525 0,-2.67798 -16.56431,-24.29185 -18.61663,-24.29185 -0.8317,0 -6.81263,2.66928 -13.29096,5.9317 -11.54848,5.81573 -11.76815,5.85656 -11.23385,2.08807 0.39227,-2.7667 3.00214,-5.00985 9.31481,-8.00594 5.67618,-2.69398 8.76988,-5.19841 8.76988,-7.09941 0,-1.61542 -0.70106,-2.93713 -1.55789,-2.93713 -2.17633,0 -3.74185,-5.65704 -2.47741,-8.95214 1.55252,-4.04578 3.53576,-3.39775 9.5043,3.10557 2.95118,3.21561 6.66765,5.84657 8.25881,5.84657 1.59117,0 7.60999,-2.14233 13.37518,-4.76073 5.76518,-2.61841 12.54933,-5.2637 15.07589,-5.87842 6.41557,-1.5609 5.72891,-4.87018 -2.08324,-10.040013 -5.59741,-3.70419 -7.79921,-4.23917 -13.61775,-3.30875 l -6.94075,1.10987 3.76612,-3.76613 c 3.32827,-3.32824 4.81447,-3.63515 12.78253,-2.63961 4.959,0.61958 9.01638,1.81347 9.01638,2.65307 0,0.8396 2.96222,3.48687 6.58273,5.8828 6.17004,4.083133 7.08637,4.233753 14.61644,2.402493 4.41855,-1.074553 10.88065,-2.460423 14.36023,-3.079693 7.9888,-1.42181 8.542,-3.76764 1.64428,-6.97255 -2.96604,-1.37812 -5.40907,-3.06945 -5.42897,-3.75851 -0.0548,-1.89652 9.63636,-1.50045 10.83742,0.44292 2.79505,4.52248 13.46421,6.94204 26.71158,6.05765 7.34998,-0.49068 14.86701,-0.23364 16.70451,0.57118 l 3.3409,1.4633 -3.3409,0.3165 c -1.8375,0.17408 -7.22464,0.41484 -11.97141,0.53503 -4.74677,0.12027 -9.13591,0.72385 -9.75364,1.34148 -0.61772,0.61766 2.05742,4.000323 5.94476,7.517033 12.57354,11.37475 11.97579,11.17868 26.75882,8.77795 7.28366,-1.18284 13.24301,-2.55502 13.24301,-3.0493 0,-1.84373 -9.1212,-8.6514 -12.84308,-9.58555 -2.1238,-0.53302 -3.86143,-1.639363 -3.86143,-2.458503 0,-3.34142 6.00674,-1.07233 15.95648,6.027653 9.38965,6.70031 11.52301,7.51703 19.6354,7.51703 6.45547,0 9.76767,0.80786 11.39382,2.77901 2.09505,2.53956 1.68086,2.6818 -4.80683,1.65072 -7.65875,-1.2172 -9.14183,0.4822 -4.17612,4.78528 20.27194,17.56678 20.7841,17.88769 26.97819,16.90331 7.75115,-1.23185 11.72938,0.91661 8.62455,4.65772 -1.20185,1.44815 -3.2207,2.63298 -4.48631,2.63298 -3.17686,0 -2.93799,1.12546 2.04282,9.62458 2.93988,5.01652 3.79572,7.96067 2.6478,9.10859 -1.1479,1.14791 -3.0219,-0.39066 -5.79775,-4.75998 -2.25586,-3.5509 -5.64287,-7.83419 -7.52666,-9.51845 -3.32782,-2.97532 -3.77282,-2.95438 -15.66835,0.73737 -17.90859,5.55789 -18.13991,6.01762 -8.39841,16.69006 13.10626,14.35876 17.03579,21.07189 17.03579,29.10356 v 7.08779 l -16.26798,8.19179 c -10.51551,5.29511 -16.98464,9.62923 -18.29465,12.25687 -2.41836,4.85074 -6.94283,6.81796 -10.92377,4.74959 -2.06752,-1.07422 -5.75849,-0.0534 -12.97042,3.58716 -14.02506,7.07982 -28.42601,16.48632 -29.49175,19.26359 -1.88786,4.91967 -7.218,4.51546 -13.58191,-1.02997 -3.41748,-2.97794 -6.58945,-6.23056 -7.04883,-7.22804 -2.84829,-6.18474 -20.39589,-34.26918 -22.50625,-36.02063 -1.75362,-1.45536 -3.20291,-1.58835 -4.63857,-0.4256 -1.14844,0.93011 -9.84051,5.59463 -19.31571,10.3656 -9.4752,4.77096 -17.58347,9.60175 -18.01836,10.73507 -0.4349,1.13333 1.86769,7.43971 5.11687,14.01416 9.47388,19.16963 8.09038,19.94315 -8.10095,4.52916 z m 95.5692,-15.65081 c 6.13215,-3.55485 14.06293,-7.49861 17.62395,-8.76391 3.56102,-1.26532 6.80908,-3.17224 7.2179,-4.23761 0.40881,-1.06537 -3.82022,-8.6455 -9.39786,-16.8447 -5.57766,-8.1992 -10.1412,-15.69484 -10.1412,-16.65695 0,-0.96211 -1.18107,-2.7295 -2.62459,-3.92752 -2.22399,-1.84575 -5.66614,-0.67432 -22.55109,7.67452 -13.20209,6.52786 -19.92649,10.76611 -19.92649,12.55932 0,4.12921 23.13538,36.66018 26.07198,36.66018 1.41791,0 7.59524,-2.9085 13.7274,-6.46333 z m -89.9129,-17.02316 c 4.13436,-2.80347 12.53509,-7.6676 18.66828,-10.80918 6.13318,-3.14158 11.62349,-6.47607 12.20068,-7.40997 1.06224,-1.71875 -5.76096,-12.74127 -14.51113,-23.44193 -2.62949,-3.21562 -5.49136,-6.73835 -6.35977,-7.82831 -1.17705,-1.4774 -4.252,-0.62714 -12.08232,3.3409 -5.77689,2.92744 -14.51396,7.15429 -19.41573,9.39297 -4.90177,2.23869 -9.24,4.92431 -9.64052,5.96807 -0.95135,2.47914 19.29848,35.90115 21.74624,35.89184 1.0325,-0.003 5.2599,-2.30091 9.39427,-5.10439 z m 137.06753,-6.18397 c 4.08456,-2.53755 11.3729,-6.42455 16.19633,-8.6378 4.82343,-2.21325 8.74512,-4.83522 8.71488,-5.82662 -0.0303,-0.99138 -3.80604,-6.31273 -8.39064,-11.82522 -4.58461,-5.51249 -9.89604,-12.46574 -11.80318,-15.45167 -1.90712,-2.98593 -4.40716,-5.42897 -5.55563,-5.42897 -3.47846,0 -33.37397,12.99581 -33.96341,14.76417 -0.82986,2.48957 23.69279,37.01981 26.2907,37.01981 0.59646,0 4.4264,-2.07617 8.51095,-4.6137 z M 442.7718,183.41724 c 5.8658,-3.22426 14.53626,-7.01189 19.26768,-8.41698 4.73142,-1.40508 8.60259,-3.2988 8.60259,-4.20828 0,-2.24305 -23.27902,-31.626 -25.0561,-31.626 -2.59971,0 -36.35241,16.37928 -37.46612,18.1813 -0.91567,1.48159 21.33895,31.93223 23.33742,31.93223 0.35719,0 5.44872,-2.63803 11.31453,-5.86227 z m 54.5346,-23.23141 c 7.84394,-3.13905 15.60961,-6.13471 17.25703,-6.65702 2.28604,-0.72477 2.61735,-1.64778 1.39918,-3.89773 -2.97421,-5.49329 -20.35134,-23.63136 -23.63994,-24.67513 -3.1033,-0.98495 -28.32907,5.84603 -33.12576,8.97025 -1.73208,1.12815 0.54645,5.02055 9.78672,16.71875 6.62444,8.38653 12.49818,15.24824 13.05275,15.24824 0.55457,0 7.42607,-2.56831 15.27002,-5.70736 z m -77.65573,-19.02965 c 10.01244,-4.41787 18.49443,-8.90245 18.84885,-9.96573 0.7876,-2.36281 -13.81107,-18.26661 -17.98304,-19.59074 -3.56816,-1.13248 -33.33201,10.41927 -34.46705,13.37714 -0.85167,2.21943 12.93154,24.21183 15.17416,24.21183 0.12245,0 8.41465,-3.61462 18.42708,-8.0325 z m 118.64466,3.80821 c 3.67499,-1.32396 8.32876,-2.41853 10.34172,-2.43236 9.16794,-0.0629 6.0741,-5.55697 -10.0387,-17.82651 l -9.71969,-7.40132 -12.71764,1.76885 c -6.99472,0.97288 -13.0699,2.12111 -13.50042,2.55163 -0.43052,0.43053 4.02851,5.70611 9.90895,11.7235 5.88045,6.0174 10.94229,11.66731 11.24853,12.55539 0.78182,2.26711 6.63055,1.8877 14.47725,-0.93918 z m -74.83418,-20.01015 c 14.88819,-3.87103 20.54452,-5.95481 20.54452,-7.56859 0,-1.88387 -5.6869,-7.34521 -14.14881,-13.58763 -5.66071,-4.175943 -7.6175,-4.737883 -13.36361,-3.837683 -11.22188,1.758053 -24.27155,6.283733 -24.27155,8.417493 0,3.1346 15.71066,19.09499 18.79619,19.09499 1.51617,0 7.11565,-1.13336 12.44326,-2.51858 z m 165.45613,70.14389 c -1.6078,-2.16778 -2.92328,-4.40454 -2.92328,-4.97061 0,-0.56607 -2.16693,-3.34782 -4.81541,-6.18169 -4.45259,-4.76424 -5.22017,-5.01136 -10.18753,-3.27974 -3.79182,1.32184 -6.33627,1.35674 -8.64971,0.1186 -4.38885,-2.34884 -3.05332,-5.57769 2.58188,-6.24213 6.6437,-0.78335 7.04656,-4.41126 1.18443,-10.66611 -2.83523,-3.02517 -5.14781,-6.62786 -5.13907,-8.00599 0.008,-1.37811 3.82605,1.81662 8.4829,7.09942 5.08564,5.76922 9.82377,9.60509 11.86436,9.60509 2.67379,0 3.19348,0.7796 2.44013,3.66041 -0.66797,2.55432 0.82918,6.14692 4.95459,11.88919 3.25148,4.52583 5.28589,8.83318 4.5209,9.57186 -0.76499,0.73871 -2.70638,-0.43054 -4.31419,-2.59832 z M 284.66521,176.47272 c -1.938,-1.93801 -1.22492,-3.31028 2.64487,-5.08988 2.06719,-0.95064 8.37191,-5.20566 14.01048,-9.45562 9.81762,-7.39981 13.96958,-9.29486 13.96958,-6.37601 0,2.79907 -4.5108,7.17211 -14.94265,14.4863 -10.61707,7.44405 -13.49322,8.62427 -15.68228,6.43521 z m 0.55681,-30.34802 c 0,-0.76643 4.87174,-4.69719 10.82609,-8.735 11.28837,-7.65496 13.70183,-10.70468 11.02441,-13.93077 -1.11997,-1.34947 1.11951,-3.34042 7.53653,-6.70017 5.02149,-2.62909 9.59169,-4.31846 10.15599,-3.75416 0.56429,0.56429 -0.39709,1.56086 -2.1364,2.21461 -3.7415,1.40632 -7.37067,5.8388 -6.25657,7.64146 1.06956,1.73057 7.27033,1.6188 7.27033,-0.13113 0,-1.19785 7.12318,-5.2795 9.21364,-5.2795 0.38732,0 0.29167,1.07504 -0.21252,2.38897 -0.50419,1.31393 -3.17504,3.1762 -5.93516,4.1384 -4.48706,1.56418 -4.90189,2.28007 -3.91773,6.76097 2.03694,9.27405 -3.97858,16.89254 -6.66212,8.43742 -1.68078,-5.29561 -5.71093,-8.6011 -8.03353,-6.58899 -5.4924,4.75817 -20.05258,14.93135 -21.37023,14.93135 -0.8265,0 -1.50273,-0.62708 -1.50273,-1.39353 z m 8.35226,-16.98143 c 0,-0.91874 0.7517,-1.67045 1.67045,-1.67045 0.91875,0 1.67045,0.75171 1.67045,1.67045 0,0.91874 -0.7517,1.67045 -1.67045,1.67045 -0.91875,0 -1.67045,-0.75171 -1.67045,-1.67045 z m 43.11851,-22.85696 c 1.20585,-0.48255 2.64663,-0.4232 3.20171,0.1318 0.55506,0.55507 -0.43155,0.94988 -2.19247,0.87735 -1.946,-0.0802 -2.34181,-0.47598 -1.00924,-1.00924 z m 30.38132,-3.53468 c 0,-1.58386 9.85179,-5.346923 13.9984,-5.346923 1.59682,0 2.43871,0.7517 1.87089,1.67045 -0.56782,0.91874 -2.82293,1.670443 -5.01135,1.670443 -2.18843,0 -4.44354,0.75171 -5.01136,1.67045 -1.22703,1.98541 -5.84658,2.25054 -5.84658,0.33558 z"
     id="path2" /></svg>
