<svg xmlns="http://www.w3.org/2000/svg" xml:space="preserve" width="872" height="1209" viewBox="0 0 872 1209"><circle cx="438.499" cy="780.88" r="417.838" style="fill:none;stroke:#000;stroke-width:18;stroke-dasharray:none;stroke-opacity:1"/><path d="M95.136 520.7c-3.252-7.838-6.121-15.923-6.377-17.967s-2.711-10.408-5.456-18.586c-9.013-26.855-11.632-49.804-11.594-101.602.037-51.585 2.274-70.936 11.744-101.602 2.947-9.54 5.501-18.461 5.678-19.824.683-5.282 15.904-40.415 22.012-50.808 2.805-4.774 7.889-14.04 11.296-20.59 3.408-6.552 10.098-16.827 14.869-22.836a1595 1595 0 0 0 17.346-22.344c11.187-14.73 46.518-48.387 61.476-58.563 6.395-4.351 12.186-8.677 12.867-9.613 3.54-4.86 53.867-31.997 73.104-39.417 2.726-1.052 7.744-3.132 11.152-4.624s20.84-6.499 38.74-11.127l32.547-8.415 59.143.523c45.643.403 62.68 1.453 74.632 4.6a2689 2689 0 0 0 30.078 7.7c8.025 1.994 20.778 6.454 28.34 9.913s15.427 6.29 17.478 6.29 4.332.974 5.069 2.165c.736 1.191 7.214 4.954 14.395 8.362 41.06 19.487 99.627 69.74 128.557 110.307 8.03 11.26 14.6 21.096 14.6 21.857s3.345 6.246 7.434 12.19c4.089 5.942 7.434 12.104 7.434 13.693 0 1.588 2.364 6.207 5.253 10.265 2.89 4.057 6.671 12.035 8.404 17.729 3.083 10.126 6.859 19.985 11.654 30.428 1.315 2.863 2.78 8.439 3.255 12.39 1.302 10.821 3.641 20.721 8.137 34.443 3.251 9.922 4.06 23.005 4.06 65.67 0 48.135-.567 55.431-5.876 75.581-3.232 12.267-6.165 24.75-6.519 27.74-.795 6.735-15.626 45.784-18.544 48.83-1.233 1.286-8.73-4.517-17.75-13.737-8.588-8.78-20.81-20.147-27.157-25.26-6.348-5.112-15.627-13.149-20.62-17.858s-10.163-8.563-11.486-8.563-3.753-1.131-5.4-2.513c-4.408-3.701-21.543-14.85-31.49-20.489-39.427-22.35-71.09-34.558-132.579-51.122-19.12-5.15-51.247-7.9-92.567-7.921-45.889-.025-76.135 3.076-104.441 10.707-10.223 2.756-22.083 5.848-26.357 6.873-19.19 4.6-67.007 25.36-98.788 42.89-12.256 6.76-43.36 27.622-49.801 33.404-2.622 2.353-10.332 8.72-17.133 14.15s-19.133 16.86-27.407 25.4c-8.273 8.541-15.595 15.53-16.27 15.53-.677 0-3.89-6.413-7.142-14.25m80.582-78.67c64.24-43.07 137.929-69.97 214.643-78.353 31.666-3.46 102.537-1.506 129.856 3.582 88.291 16.444 167.027 53.019 229.714 106.708 10.516 9.007 20.23 16.376 21.588 16.376 2.452 0 3.713-3.81 11.478-34.694 6.151-24.462 7.71-101.257 2.647-130.418-7.77-44.763-29.293-98.39-55.017-137.092C680.73 113.072 592.733 55.15 504.066 39.004c-23.937-4.358-101.781-4.42-124.956-.1-68.082 12.692-132.858 47.303-183.716 98.16-40.763 40.764-67.43 83.818-85.71 138.377-19.961 59.58-21.878 144.72-4.524 200.906l5.051 16.355 19.124-16.198c10.518-8.91 31.39-24.423 46.383-34.475" style="fill:#000;stroke-width:2.4781"/><path d="M656.617 431.838c-1.058-.654-1.905-3.066-1.882-5.36.063-6.448-2.286-21.118-3.764-23.51-.96-1.554-4.156.474-11.576 7.344-10.38 9.61-14.44 11.41-16.081 7.131-.546-1.421 2.285-5.238 7.125-9.605 17.035-15.372 17.685-16.2 16.565-21.07-2.446-10.635-10.244-28.773-12.37-28.773-1.254 0-5.766 3.068-10.025 6.817s-9.801 8.032-12.315 9.517-4.907 3.578-5.32 4.651c-.411 1.074 1.808 8.255 4.932 15.958 6.563 16.184 6.855 18.182 2.654 18.182-4.214 0-7.558-4.117-12.55-15.452-2.326-5.283-5.075-9.605-6.109-9.605s-5.227 2.303-9.318 5.119c-4.861 3.344-9.014 4.936-11.98 4.593-7.268-.84-6.194-5.038 2.861-11.186 15.294-10.385 15.102-8.99 4.279-30.995-5.225-10.623-9.941-19.315-10.482-19.315-2.758 0-38.812 24.066-38.812 25.907 0 1.182 3.007 7.099 6.682 13.148s6.681 11.778 6.681 12.73c0 1.57-3.124 1.302-11.822-1.012-1.45-.386-4.33-4.45-6.4-9.033-4.532-10.027-6.709-10.374-20.147-3.212-7.345 3.915-11.298 4.995-16.808 4.594-9.369-.683-10.352-4.02-2.183-7.409 10.184-4.225 25.622-14.265 25.622-16.664 0-4.114-23.086-42.377-25.591-42.414-.753-.012-4.647 2.234-8.653 4.99s-7.99 5.012-8.851 5.012c-2.641 0-24.094 12.408-24.853 14.375-.729 1.887 16.922 33.307 19.663 35 3.472 2.146 1.08 4.079-5.048 4.079-5.442 0-7.366-.978-11.288-5.736-2.6-3.154-6.847-9.92-9.436-15.034-2.59-5.114-5.682-9.298-6.873-9.298s-9.214 3.993-17.83 8.873c-23.531 13.329-25.083 14.5-23.949 18.073 1.275 4.016-6.693 7.613-10.276 4.64-1.723-1.43-3.863-1.264-8.71.676-3.535 1.414-11.107 3.42-16.828 4.457-5.72 1.037-11.556 2.33-12.968 2.871-2.231.856-2.272.51-.313-2.648 1.239-1.998 8.079-6.397 15.199-9.774 7.12-3.378 12.946-7.17 12.946-8.428s-2.921-7.305-6.492-13.437c-3.57-6.132-8.374-14.517-10.676-18.633-6.719-12.018-7.121-12.017-27.134.059-9.813 5.92-18.266 11.82-18.786 13.111-1.012 2.513 4.23 12.875 15.18 30.011 6.514 10.193 6.668 10.739 3.649 12.946-4.645 3.397-7.12 2.844-10.246-2.289-1.54-2.526-5.287-8.487-8.33-13.245-3.041-4.758-6.008-10.553-6.591-12.877-2.049-8.163-4.361-8.055-17.526.824-6.842 4.615-14.131 9.075-16.198 9.912-5.153 2.087-4.8 4.258 3.108 19.091 4.597 8.625 6.312 13.435 5.189 14.559-3.473 3.473-7.665.182-13.567-10.65-3.35-6.148-6.568-11.656-7.15-12.239-.985-.984-24.748 15.26-24.748 16.918 0 .412 2.22 5.147 4.934 10.523s4.468 10.24 3.898 10.81c-2.686 2.686-5.789.337-9.667-7.316-2.328-4.594-4.675-8.352-5.217-8.352-2.4 0-13.993 10.544-13.993 12.727 0 1.333 1.23 4.3 2.732 6.594 2.785 4.25 2.267 6.957-.95 4.969-.98-.606-1.782-2.56-1.782-4.343 0-4.023-1.486-4.134-4.274-.322-1.957 2.678-2.229 2.551-3.25-1.514-.612-2.44-.279-5.995.74-7.899 1.781-3.328.955-10.903-1.569-14.388-2.24-3.095-3.458-10.858-1.702-10.858.936 0 1.734 1.315 1.773 2.923s1.378 5.377 2.978 8.376l2.909 5.453 6.344-6.497 6.344-6.497-5.047-12.32c-2.775-6.775-5.28-14.19-5.564-16.478-.83-6.665-5.115-5.745-10.09 2.166-3.954 6.287-4.344 8.012-2.923 12.964.9 3.141 1.638 5.94 1.638 6.218 0 .279-1.814-.844-4.03-2.495-3.598-2.68-3.928-3.894-3.079-11.353.705-6.198 2.391-10.046 6.535-14.917 6.26-7.358 6.797-11.462 3.097-23.656-1.368-4.51-2.495-9.954-2.505-12.097-.024-5.032-3.5-3.963-6.39 1.965-2.193 4.501-5.322 4.64-5.322.237 0-1.283 1.88-5.102 4.177-8.486 3.371-4.969 4.176-8.2 4.176-16.78 0-5.969-.732-10.624-1.67-10.624-2.4 0-1.961-6.995.654-10.44 1.22-1.608 2.575-2.923 3.01-2.923s.79 4.535.79 10.078c0 14.756 2.178 15.345 10.35 2.801l6.955-10.674-1.306-11.543c-1.13-9.99-1.725-11.47-4.424-11-2.438.424-2.847-.123-1.87-2.506 3.172-7.741 5.68-19.99 4.806-23.471-.892-3.556 1.666-8.81 4.29-8.81.621 0 .823 2.63.448 5.846-.376 3.216-.015 5.847.8 5.847 3.103 0 22.032-21.026 22.558-25.057.452-3.454 1.34-4.093 5.133-3.696 2.523.264 6.094-.327 7.935-1.312 4.396-2.353 4.255-.35-.319 4.52l-3.666 3.902 3.11 12.91c1.711 7.1 3.629 13.515 4.262 14.256s3.326-.434 5.985-2.61c11.684-9.564 15.702-11.665 18.256-9.546 1.346 1.117 2.447 2.596 2.447 3.287s-5.262 5.256-11.694 10.145c-6.43 4.89-11.693 9.482-11.693 10.206 0 2.234 13.105 31.848 14.879 33.621 1.115 1.115 3.504.277 7.178-2.52 3.028-2.306 8.513-5.782 12.187-7.724 3.675-1.942 9.296-5.741 12.49-8.442l5.809-4.91-4.853-10.155c-2.67-5.585-4.53-10.478-4.135-10.873.396-.396 2.774-1.235 5.286-1.866 3.95-.991 4.966-.42 7.514 4.224 1.62 2.953 4.15 6.922 5.62 8.819l2.673 3.45 5.397-3.843c4.738-3.374 5.888-3.579 9.437-1.68 5.753 3.08 5.023 5.95-2.628 10.318-7.075 4.04-8.782 9.184-4.286 12.916 2.537 2.106 14.296 25.186 14.296 28.061 0 .923 1.1 2.59 2.443 3.706 1.993 1.654 5.548.153 19.288-8.148 9.265-5.596 17.185-10.175 17.602-10.175s.748 3.195.737 7.1c-.02 7.072-.068 7.126-12.593 14.382-19.313 11.188-18.97 8.748-4.596 32.76 12.612 21.07 15.888 24.04 20.45 18.544 1.087-1.31 9.824-6.96 19.414-12.555 9.733-5.677 17.436-11.266 17.436-12.65 0-1.76 1.854-2.479 6.385-2.479 10.145 0 21.03-4.614 30.805-13.058 4.98-4.303 11.218-9.39 13.86-11.305l4.806-3.482-4.428-9.786c-3.264-7.215-4.003-10.58-2.812-12.805 2.755-5.147 6.058-3.379 11.52 6.169 2.892 5.053 6.226 9.187 7.41 9.187 1.978 0 34.887-18.774 38.378-21.894.887-.793-.097-4.408-2.366-8.684-7.303-13.766 1.143-18.258 10.033-5.336 2.845 4.134 5.634 7.517 6.198 7.517 2.006 0 30.826-18.418 32.522-20.784.624-.87-.315-3.62-2.088-6.109-3.607-5.066-4.138-8.187-1.393-8.187 2.583 0 11.534 5.465 11.534 7.042 0 3.091 6.396.766 19.369-7.042 11.775-7.087 15.155-8.352 22.31-8.352 9.206 0 10.777 1.737 4.258 4.708-2.297 1.046-4.2 2.858-4.231 4.026-.105 4.05 17.606 36.366 19.932 36.367 2.935.002 13.532-10.761 13.532-13.743 0-1.22-1.018-3.7-2.263-5.512-4.897-7.13-12.988-22.845-12.179-23.654 1.712-1.712 4.09 1.282 8.515 10.723 2.485 5.3 6.362 11.38 8.617 13.512 3.41 3.225 3.914 4.86 3 9.738-1.016 5.41-.305 8.184 4.528 17.684.811 1.596 1.407 4.978 1.324 7.517-.14 4.322-.256 4.244-1.8-1.23-.909-3.215-2.344-6.56-3.191-7.433s-1.54-2.94-1.54-4.594c0-4.198-2.579-3.757-9.276 1.587-5.47 4.365-7.39 9.235-4.373 11.1.762.47 3.551 7.655 6.2 15.967 2.647 8.312 5.239 15.112 5.758 15.112 2.632 0 10.05-14.665 10.097-19.962.049-5.461.239-5.684 2.406-2.823 2.751 3.632 2.897 19.442.179 19.447-.992.002-3.904 3.328-6.472 7.393-4.568 7.231-4.616 7.561-2.243 15.448 1.334 4.433 3.07 10.631 3.858 13.775 1.6 6.381 5.56 9.023 5.56 3.71 0-3.38 2.793-6.354 4.43-4.717.476.477-.22 3.37-1.547 6.431-5.718 13.181-6.256 15.506-5.489 23.68.506 5.391.359 6.745-.394 3.621-2.034-8.444-5.924-7.025-13.392 4.886l-6.838 10.906 2.623 12.14c3.93 18.181 3.033 28.26-2.225 25.01M238.092 379.5c6.169-4.71 11.425-9.097 11.681-9.751.257-.654-2.562-7.775-6.264-15.825-3.701-8.05-6.73-15.598-6.73-16.772 0-1.175-1.176-3.111-2.614-4.304-2.243-1.862-4.174-.609-13.622 8.839l-11.008 11.008 2.764 5.825c1.52 3.204 2.764 6.257 2.764 6.784 0 1.876 10 22.758 10.9 22.758.503 0 5.961-3.853 12.13-8.562m425.538-5.964c7.015-8.613 7.672-10.158 6.922-16.287-1.211-9.909-3.603-19.617-5.873-23.836-1.936-3.6-2.262-3.419-12.01 6.667-6.422 6.646-9.671 11.272-9.05 12.888.532 1.386 2.986 8.717 5.452 16.29 2.467 7.573 5.008 13.774 5.646 13.78.64.008 4.65-4.269 8.913-9.502m-54.04-8.443c3.174-2.526 9.377-7.77 13.784-11.654 9.293-8.188 9.293-8.727.02-27.841-3.163-6.523-5.752-12.825-5.752-14.006 0-4.821-5.397-3.608-15.366 3.454-5.79 4.102-12.15 7.955-14.134 8.563-7.882 2.415-7.78 4.682 1.03 22.915 12.995 26.892 11.58 25.605 20.418 18.57M274.365 353.69c8.728-6.043 15.868-12.093 15.868-13.444 0-2.503-15.308-33.132-18.486-36.988-2.074-2.515-3.403-1.718-17.6 10.558-5.257 4.545-10.486 9.016-11.62 9.935-1.59 1.286-.399 5.513 5.174 18.375 3.98 9.187 7.592 18.02 8.024 19.628.433 1.607 1.233 2.923 1.779 2.923s8.133-4.944 16.86-10.987m270.438-16.006c9.283-5.66 17.888-11.206 19.123-12.327 1.848-1.678.267-5.612-8.962-22.305-6.163-11.147-11.845-20.662-12.627-21.145-1.58-.977-14.123 4.991-15.636 7.44-.53.858-5.728 4.224-11.552 7.48s-11.4 6.901-12.394 8.098c-1.364 1.643 1.033 6.779 9.767 20.933 6.366 10.315 11.574 19.511 11.574 20.435 0 3.242 3.976 1.59 20.707-8.61m-325.98-7.073c5.282-4.955 9.604-9.618 9.604-10.362 0-3.313-10.365-34.083-11.48-34.083-1.778 0-15.287 19.912-15.72 23.171-.44 3.302 5.913 30.283 7.13 30.283.475 0 5.185-4.054 10.467-9.009m432.32-1.431c5.419-4.824 9.872-9.898 9.897-11.276.049-2.797-11.415-33.493-13.284-35.569-1.713-1.903-24.979 15.825-25.047 19.085-.075 3.64 15.39 36.53 17.177 36.53.772 0 5.837-3.947 11.256-8.77m-339.76-1.253c4.346-2.756 8.492-5.011 9.213-5.011 2.338 0 19.75-11.75 19.75-13.327 0-2.508-16.92-34.026-20.057-37.36-2.762-2.935-3.156-2.945-8.541-.21-9.005 4.575-29.867 21.068-29.867 23.613 0 4.652 17.634 37.306 20.146 37.306.8 0 5.01-2.255 9.356-5.011m282.33-21.026c7.758-5.109 14.489-10.288 14.958-11.51.926-2.414-3.942-12.841-10.937-23.424-2.429-3.675-5.46-8.75-6.735-11.276-2.865-5.674-6.285-5.795-13.619-.48-3.121 2.263-9.998 6.408-15.28 9.212-5.284 2.804-9.606 5.355-9.606 5.67 0 .313 3.759 7.102 8.352 15.085 4.594 7.984 8.353 14.765 8.353 15.07s1.165 3.344 2.589 6.752c3.086 7.387 2.9 7.43 21.925-5.099m-341.88-3.613c7.175-6.202 13.41-12.07 13.854-13.04.444-.971-1.745-7.274-4.863-14.006s-5.67-14.02-5.67-16.193c0-6.06-5.059-4.923-12.607 2.836-3.632 3.732-9.046 8.304-12.032 10.158-6.657 4.135-6.76 6.559-1.03 23.975 4.098 12.455 6.565 17.545 8.503 17.545.44 0 6.67-5.074 13.845-11.275m378.519-23.291c10.134-7.442 12.491-11.22 9.228-14.796-.797-.872-4.314-7.224-7.817-14.115-10.06-19.79-8.888-19.305-23.377-9.656-6.853 4.564-12.46 8.694-12.46 9.177 0 .484 4.09 7.743 9.09 16.131 4.998 8.388 9.589 16.567 10.2 18.175 1.634 4.292 3.357 3.733 15.136-4.916m-393.027-22.73 13.074-12.061-3.804-12.93c-2.744-9.327-4.567-12.928-6.545-12.928-3.227 0-23.322 20.401-23.304 23.659.022 3.834 3.453 23.634 4.346 25.08 1.494 2.416 2.907 1.474 16.233-10.82m427.09 158.359c0-1.379.751-2.506 1.67-2.506s1.687-.94 1.707-2.088 1.508-3.967 3.304-6.264c2.416-3.089 3.276-3.474 3.304-1.478.02 1.483-1.466 4.609-3.304 6.945s-3.34 5.068-3.34 6.072c0 1.003-.752 1.824-1.671 1.824s-1.67-1.127-1.67-2.505m10.767-24.367c-.617-1-.285-2.653.737-3.675 1.365-1.366 1.859-.883 1.859 1.816 0 4.033-.868 4.654-2.596 1.859m-490.055-55.954c.08-1.946.476-2.342 1.01-1.01.482 1.206.422 2.647-.133 3.202s-.95-.431-.877-2.192m229.462-15.54c-13.102-5.95-22.458-21.125-22.458-36.422 0-6.336-.502-6.951-12.11-14.832-6.662-4.522-19.629-14.24-28.816-21.595-31.022-24.833-30.953-24.798-39.256-20.051-13.923 7.959-29.682-4.045-25.564-19.472l1.742-6.526-9.387-8.276c-5.163-4.551-9.958-8.286-10.655-8.3-.697-.013-4.455 2.307-8.352 5.154-6.558 4.791-7.808 5.103-16.818 4.188l-9.733-.988-16.88 17.11c-9.285 9.41-20.127 21.515-24.094 26.899-7.779 10.556-9.527 10.474-3.455-.162 4.708-8.245 16.663-22.223 33.41-39.063 7.12-7.16 12.945-14.001 12.945-15.202s1.504-4.99 3.341-8.418c4.575-8.535 4.25-10.422-2.505-14.598-5.934-3.667-7.553-7.466-3.759-8.817 1.149-.408 5.376 1.158 9.393 3.481 5.885 3.403 7.834 3.84 10.023 2.25 13.37-9.71 19.587-10.947 25.468-5.066 2.924 2.923 3.367 4.81 2.543 10.821-.549 4.005-1.954 8.825-3.123 10.712-1.909 3.082-1.446 4.01 4.557 9.118 11.427 9.724 12.932 10.151 21.37 6.066 6.786-3.285 7.999-4.867 13.913-18.163 11.244-25.28 30.737-62.638 38.78-74.322 5.554-8.07 12.898-14.215 14.76-12.353.561.561-2.887 6.673-7.663 13.582-6.906 9.99-31.882 58.567-31.882 62.01 0 .446-2.726 6.775-6.059 14.065l-6.058 13.255 5.409 6.16c5.121 5.833 5.352 6.659 4.346 15.551l-1.063 9.392 6.896 4.12c3.793 2.267 9.262 6.067 12.153 8.446s13.901 10.703 24.467 18.498 20.242 15.433 21.503 16.973c3.19 3.897 4.82 3.537 9.579-2.118 5.563-6.612 13.395-11.252 22.422-13.286 9.98-2.248 22.256 1.33 31.394 9.152l6.878 5.887 38.052-18.935c20.929-10.415 44.066-21.05 51.416-23.635 7.35-2.584 13.993-5.293 14.761-6.02.77-.726.099-5.441-1.489-10.478-1.778-5.642-2.438-10.943-1.72-13.807 1.635-6.513 10.302-14.164 16.045-14.164 4.632 0 4.707-.163 5.899-12.88 1.194-12.743-.955-43.54-3.456-49.513-1.028-2.456-.642-2.97 1.872-2.5 6.074 1.138 8.86 14.553 8.94 43.056l.074 25.77 5.005 4.298c2.752 2.364 6.758 7.68 8.901 11.815l3.897 7.517 21.068.467 21.068.466.516-7.148c.75-10.396 5.56-10.58 12.676-.486 2.959 4.199 5.38 8.294 5.38 9.102s3.382 3.604 7.514 6.215c8.777 5.545 9.664 8.1 2.3 6.627-5.117-1.024-5.199-.94-4.162 4.247.582 2.91 2.84 9.112 5.019 13.782 7.569 16.227 12.716 27.795 12.716 28.58 0 .434-.612.79-1.36.79-.746 0-2.438-2.782-3.758-6.181s-4.09-9.54-6.158-13.647c-2.067-4.106-3.758-8.335-3.758-9.397 0-2.413-7.082-9.196-9.601-9.196-1.028 0-4.64-3.382-8.029-7.517l-6.16-7.517h-21.594c-20.502 0-21.78.199-25.273 3.922-7.42 7.911-15.494 9.62-27.896 5.905-5.723-1.715-7.505-1.303-21.91 5.063-8.623 3.81-32.593 15.4-53.264 25.751L468.136 273.8l-.835 12.447c-1.184 17.644-8.222 28.067-23.172 34.315-7.783 3.252-21.437 2.884-29.54-.797m-216.23-55.179c0-4.978 1.8-8.488 4.354-8.488 2.835 0 2.932 1.856.389 7.438-2.291 5.028-4.743 5.572-4.743 1.05m183.104-17.676c-6.273-5.972-12.581-10.858-14.018-10.858s-3.994-1.25-5.682-2.777c-2.902-2.626-2.913-2.948-.206-5.94 2.505-2.767 2.571-3.622.53-6.828-1.283-2.016-5.675-9.532-9.76-16.702-5.736-10.066-8.041-12.774-10.122-11.885-1.481.634-4.197 1.238-6.034 1.344-4.653.267-5.584-6.653-1.087-8.08 4.927-1.564 5.627-5.57 1.863-10.661-2.88-3.896-3.095-5.327-1.49-9.932 2.601-7.46 5.772-6.72 9.155 2.137 3.208 8.401 6.303 9.407 14.945 4.86a3925 3925 0 0 1 17.957-9.328c7.12-3.679 12.946-7.65 12.946-8.825 0-2.678-16.564-24.292-18.616-24.292-.832 0-6.813 2.67-13.291 5.932-11.549 5.816-11.768 5.857-11.234 2.088.392-2.767 3.002-5.01 9.315-8.006 5.676-2.694 8.77-5.198 8.77-7.1 0-1.615-.701-2.936-1.558-2.936-2.177 0-3.742-5.657-2.478-8.953 1.553-4.045 3.536-3.397 9.505 3.106 2.95 3.216 6.667 5.847 8.258 5.847 1.592 0 7.61-2.143 13.376-4.761s12.549-5.264 15.076-5.879c6.415-1.56 5.728-4.87-2.084-10.04-5.597-3.704-7.799-4.239-13.617-3.308l-6.941 1.11 3.766-3.767c3.328-3.328 4.814-3.635 12.782-2.64 4.96.62 9.017 1.814 9.017 2.654s2.962 3.487 6.583 5.883c6.17 4.083 7.086 4.233 14.616 2.402 4.419-1.074 10.88-2.46 14.36-3.08 7.989-1.421 8.542-3.767 1.645-6.972-2.967-1.378-5.41-3.07-5.43-3.759-.054-1.896 9.637-1.5 10.838.443 2.795 4.523 13.464 6.942 26.712 6.058 7.35-.49 14.867-.234 16.704.571l3.341 1.463-3.34.317c-1.838.174-7.226.415-11.972.535-4.747.12-9.136.724-9.754 1.341-.618.618 2.057 4 5.945 7.517 12.573 11.375 11.976 11.18 26.759 8.778 7.283-1.182 13.243-2.555 13.243-3.049 0-1.844-9.122-8.651-12.843-9.585-2.124-.533-3.862-1.64-3.862-2.459 0-3.341 6.007-1.072 15.957 6.028 9.39 6.7 11.523 7.517 19.635 7.517 6.455 0 9.768.808 11.394 2.779 2.095 2.54 1.68 2.682-4.807 1.65-7.659-1.217-9.142.483-4.176 4.786 20.272 17.567 20.784 17.887 26.978 16.903 7.751-1.232 11.73.917 8.625 4.658-1.202 1.448-3.221 2.633-4.487 2.633-3.177 0-2.938 1.125 2.043 9.624 2.94 5.017 3.796 7.961 2.648 9.109s-3.022-.39-5.798-4.76c-2.256-3.55-5.643-7.834-7.527-9.518-3.327-2.976-3.772-2.955-15.668.737-17.908 5.558-18.14 6.018-8.398 16.69 13.106 14.359 17.036 21.072 17.036 29.104v7.087l-16.268 8.192c-10.516 5.295-16.985 9.63-18.295 12.257-2.418 4.85-6.943 6.818-10.924 4.75-2.067-1.075-5.758-.054-12.97 3.587-14.025 7.08-28.426 16.486-29.492 19.263-1.888 4.92-7.218 4.516-13.582-1.03-3.417-2.978-6.59-6.23-7.049-7.228-2.848-6.184-20.396-34.269-22.506-36.02-1.754-1.456-3.203-1.589-4.639-.426-1.148.93-9.84 5.595-19.315 10.366-9.476 4.77-17.584 9.601-18.019 10.735s1.868 7.44 5.117 14.014c9.474 19.17 8.09 19.943-8.1 4.53m95.57-15.65c6.132-3.556 14.062-7.5 17.623-8.765s6.81-3.172 7.218-4.237c.41-1.066-3.82-8.646-9.398-16.845-5.577-8.2-10.14-15.695-10.14-16.657s-1.182-2.73-2.625-3.927c-2.224-1.846-5.667-.675-22.551 7.674-13.203 6.528-19.927 10.766-19.927 12.56 0 4.129 23.135 36.66 26.072 36.66 1.418 0 7.595-2.909 13.727-6.464m-89.913-17.024c4.134-2.803 12.535-7.668 18.668-10.81 6.133-3.14 11.623-6.475 12.2-7.41 1.063-1.718-5.76-12.74-14.51-23.441-2.63-3.216-5.492-6.738-6.36-7.828-1.177-1.478-4.252-.627-12.083 3.34-5.777 2.928-14.514 7.155-19.415 9.394-4.902 2.238-9.24 4.924-9.641 5.968-.951 2.479 19.299 35.9 21.746 35.891 1.033-.003 5.26-2.3 9.395-5.104m137.067-6.184c4.085-2.537 11.373-6.424 16.196-8.638s8.746-4.835 8.715-5.826c-.03-.992-3.806-6.313-8.39-11.826-4.585-5.512-9.896-12.465-11.804-15.451s-4.407-5.43-5.555-5.43c-3.479 0-33.374 12.997-33.964 14.765-.83 2.49 23.693 37.02 26.291 37.02.597 0 4.427-2.076 8.511-4.614m-81.415-24.635c5.866-3.224 14.536-7.012 19.267-8.417 4.732-1.405 8.603-3.299 8.603-4.208 0-2.243-23.279-31.626-25.056-31.626-2.6 0-36.352 16.38-37.466 18.181-.916 1.482 21.339 31.933 23.337 31.933.357 0 5.449-2.639 11.315-5.863m54.534-23.231c7.844-3.14 15.61-6.135 17.257-6.657 2.286-.725 2.618-1.648 1.4-3.898-2.975-5.493-20.352-23.631-23.64-24.675-3.104-.985-28.33 5.846-33.126 8.97-1.732 1.128.546 5.02 9.787 16.719 6.624 8.386 12.498 15.248 13.052 15.248s7.426-2.568 15.27-5.707m-77.655-19.03c10.012-4.418 18.494-8.902 18.849-9.966.787-2.362-13.812-18.266-17.984-19.59-3.568-1.133-33.332 10.419-34.467 13.377-.851 2.22 12.932 24.212 15.175 24.212.122 0 8.414-3.615 18.427-8.033m118.644 3.808c3.675-1.324 8.33-2.418 10.342-2.432 9.168-.063 6.074-5.557-10.039-17.826l-9.72-7.402-12.717 1.769c-6.995.973-13.07 2.121-13.5 2.552-.43.43 4.028 5.706 9.909 11.723 5.88 6.018 10.942 11.667 11.248 12.556.782 2.267 6.63 1.887 14.477-.94m-74.834-20.01c14.888-3.87 20.545-5.955 20.545-7.568 0-1.884-5.687-7.346-14.15-13.588-5.66-4.176-7.617-4.738-13.363-3.838-11.222 1.758-24.271 6.284-24.271 8.418 0 3.134 15.71 19.095 18.796 19.095 1.516 0 7.116-1.134 12.443-2.519m165.456 70.144c-1.608-2.168-2.923-4.404-2.923-4.97 0-.567-2.167-3.348-4.815-6.182-4.453-4.764-5.22-5.012-10.188-3.28-3.792 1.322-6.336 1.357-8.65.119-4.389-2.35-3.053-5.578 2.582-6.242 6.644-.784 7.047-4.412 1.185-10.667-2.836-3.025-5.148-6.627-5.14-8.006.009-1.378 3.827 1.817 8.483 7.1 5.086 5.77 9.824 9.605 11.865 9.605 2.674 0 3.193.78 2.44 3.66-.668 2.555.83 6.147 4.955 11.89 3.251 4.525 5.285 8.833 4.52 9.571-.765.74-2.706-.43-4.314-2.598m-344.252-18.625c-1.938-1.938-1.225-3.31 2.645-5.09 2.067-.95 8.372-5.206 14.01-9.456 9.818-7.4 13.97-9.295 13.97-6.376 0 2.8-4.51 7.172-14.943 14.487-10.617 7.444-13.493 8.624-15.682 6.435m.557-30.348c0-.767 4.872-4.697 10.826-8.735 11.288-7.655 13.702-10.705 11.025-13.931-1.12-1.35 1.119-3.34 7.536-6.7 5.022-2.63 9.592-4.319 10.156-3.754.564.564-.397 1.56-2.136 2.214-3.742 1.407-7.371 5.839-6.257 7.642 1.07 1.73 7.27 1.618 7.27-.131 0-1.198 7.124-5.28 9.214-5.28.387 0 .292 1.075-.212 2.389-.505 1.314-3.176 3.176-5.936 4.138-4.487 1.565-4.902 2.28-3.917 6.761 2.037 9.274-3.979 16.893-6.662 8.438-1.681-5.296-5.711-8.601-8.034-6.59-5.492 4.759-20.053 14.932-21.37 14.932-.827 0-1.503-.627-1.503-1.393m8.352-16.982c0-.918.752-1.67 1.67-1.67.92 0 1.671.752 1.671 1.67 0 .919-.752 1.67-1.67 1.67-.919 0-1.67-.751-1.67-1.67m43.119-22.857c1.206-.482 2.646-.423 3.202.132.555.555-.432.95-2.193.877-1.946-.08-2.342-.476-1.01-1.009m30.381-3.534c0-1.584 9.852-5.347 13.999-5.347 1.596 0 2.438.751 1.87 1.67-.567.919-2.823 1.67-5.01 1.67-2.19 0-4.444.752-5.012 1.671-1.227 1.985-5.847 2.25-5.847.336" style="fill:#000;stroke-width:1.67045"/></svg>