<?xml version="1.0" encoding="UTF-8" standalone="no"?>
<!-- Created with Inkscape (http://www.inkscape.org/) -->

<svg
   version="1.1"
   id="svg1"
   width="872"
   height="889"
   viewBox="0 0 872 889"
   sodipodi:docname="augmented.svg"
   inkscape:version="1.4.2 (f4327f4, 2025-05-13)"
   xml:space="preserve"
   xmlns:inkscape="http://www.inkscape.org/namespaces/inkscape"
   xmlns:sodipodi="http://sodipodi.sourceforge.net/DTD/sodipodi-0.dtd"
   xmlns="http://www.w3.org/2000/svg"
   xmlns:svg="http://www.w3.org/2000/svg"><defs
     id="defs1" /><sodipodi:namedview
     id="namedview1"
     pagecolor="#ffffff"
     bordercolor="#000000"
     borderopacity="0.25"
     inkscape:showpageshadow="2"
     inkscape:pageopacity="0.0"
     inkscape:pagecheckerboard="true"
     inkscape:deskcolor="#d1d1d1"
     inkscape:zoom="0.92822679"
     inkscape:cx="-63.562053"
     inkscape:cy="244.01364"
     inkscape:window-width="3440"
     inkscape:window-height="1369"
     inkscape:window-x="-8"
     inkscape:window-y="-8"
     inkscape:window-maximized="1"
     inkscape:current-layer="g1" /><g
     inkscape:groupmode="layer"
     inkscape:label="Image"
     id="g1"><circle
       style="fill:none;stroke:#000000;stroke-width:18;stroke-dasharray:none;stroke-opacity:1"
       id="path2"
       cx="438.49911"
       cy="448.88046"
       r="417.83762" /><path
       style="fill:#000000;stroke-width:2.67918"
       d="m 221.49645,712.67616 c -87.94969,-58.81223 -93.231,-62.79918 -93.231,-70.38143 0,-7.57728 5.21401,-11.52789 91.05165,-68.9889 l 91.05175,-60.95136 h 59.84861 c 55.55765,0 59.78379,0.33617 58.9436,4.68855 -0.82385,4.26628 -5.42669,4.68857 -51.10271,4.68857 h -50.19714 l 10e-4,30.14079 10e-4,30.14078 h 50.90444 c 49.11824,0 50.90444,0.18809 50.90444,5.35837 0,5.18603 -1.7862,5.35836 -55.53647,5.35836 h -55.53621 l -63.62225,42.1971 c -34.99206,23.20841 -63.65128,43.06232 -63.68707,44.11982 -0.0359,1.05747 28.18924,20.64898 62.72231,43.53669 l 62.78741,41.61397 h 56.63252 c 52.49319,0 56.56688,0.34273 55.73152,4.68857 -0.8193,4.26183 -6.06834,4.75434 -57.66937,5.41128 L 314.72611,775.02 Z M 317.14772,552.5164 c 0,-16.19487 -0.5672,-29.44521 -1.26003,-29.44521 -2.10048,0 -178.24511,117.75986 -178.24511,119.16408 0,0.71804 9.7993,7.8662 21.77623,15.8848 l 21.77619,14.57927 67.97626,-45.36888 67.97646,-45.36886 z m 129.52527,218.26347 c -0.87262,-2.27387 -0.94281,-4.77816 -0.1554,-5.56509 0.78687,-0.78695 26.19328,-1.29441 56.45838,-1.12774 l 55.02797,0.30307 63.09579,-42.05371 c 34.70289,-23.12956 63.05988,-42.76442 63.0154,-43.63301 -0.0429,-0.86861 -28.78512,-20.54241 -63.86845,-43.71955 l -63.78782,-42.14025 -54.6853,-0.72665 c -46.5004,-0.61787 -54.68558,-1.32817 -54.68558,-4.74541 0,-3.40372 7.70158,-4.13039 50.32173,-4.74799 l 50.32199,-0.72925 -0.75715,-29.59051 -0.75686,-29.59053 -49.56485,-0.49083 c -42.0535,-0.41645 -49.56486,-1.09986 -49.56486,-4.50959 0,-3.43317 8.58893,-4.10194 58.94199,-4.58953 l 58.94199,-0.57077 91.09214,60.85234 c 85.90471,57.38691 91.09211,61.31003 91.09211,68.88986 0,7.58587 -5.24928,11.53809 -93.41201,70.32851 l -93.41205,62.29096 h -56.03641 c -48.0345,0 -56.2628,-0.59036 -57.62275,-4.13433 z M 722.42742,653.07295 c 8.50238,-5.72171 14.53054,-11.2442 13.3959,-12.27223 -1.98393,-1.79765 -167.35075,-111.96037 -174.20034,-116.04746 -2.60176,-1.55243 -3.32728,4.76232 -3.25199,28.30058 l 0.0965,30.29892 67.37122,44.71089 67.37122,44.71088 6.87906,-4.64922 c 3.78355,-2.55709 13.83584,-9.33065 22.33821,-15.05236 z m -395.90258,89.56754 c -23.54169,-7.66923 -27.53233,-24.74162 -8.47907,-36.27241 11.97111,-7.24461 60.49216,-7.45169 73.56549,-0.31392 17.30483,9.4481 17.2191,23.98194 -0.19558,33.16793 -10.09783,5.3264 -52.22233,7.54547 -64.89084,3.4184 z m 163.92248,-1.0789 c -39.3001,-14.01623 -19.81067,-41.24822 29.73435,-41.54687 47.45393,-0.28603 66.11416,25.95615 29.37293,41.30753 -12.24841,5.11775 -45.05605,5.25061 -59.10728,0.23925 z m -271.82974,-63.57 c -4.60427,-4.60428 1.02586,-10.24463 10.22609,-10.24463 10.00846,0 15.96615,2.49933 15.96615,6.69795 0,6.717 -20.27628,9.46263 -26.19224,3.54668 z m 194.2854,-0.67811 c -14.06195,-5.01791 -18.45848,-9.35505 -17.52479,-17.28819 0.98942,-8.405 15.89585,-19.07014 26.65383,-19.07014 h 7.64129 V 661.049 c 0,22.07922 -0.1286,22.20316 -16.77033,16.26448 z m 34.58286,1.99447 c -0.95566,-0.95553 -1.73744,-10.13355 -1.73744,-20.39561 v -18.65828 l 9.98424,1.62018 c 22.71409,3.68601 31.83857,22.22681 15.46798,31.43101 -9.68041,5.44261 -21.32709,8.39062 -23.71478,6.0027 z m 186.47502,0.0606 c -5.72889,-2.31162 -3.67691,-8.75795 3.34898,-10.52136 8.88577,-2.23017 20.09386,0.76078 20.09386,5.36217 0,5.93645 -13.92291,9.00054 -23.44284,5.15919 z M 259.29401,645.90708 c -3.06311,-4.95654 7.33667,-10.82927 16.13108,-9.10916 9.64372,1.88624 10.65538,2.82913 8.64786,8.06045 -1.89927,4.94981 -21.84604,5.794 -24.77894,1.04871 z m 331.13016,0.31449 c -3.47838,-2.32752 -3.3195,-3.22252 1.18178,-6.65692 2.86057,-2.18233 7.75383,-3.96786 10.87454,-3.96786 7.52983,0 16.04374,6.43228 13.64721,10.31029 -2.3392,3.78464 -20.19111,4.00307 -25.70353,0.31449 z M 307.87346,613.23018 c -7.38248,-5.39812 -2.62479,-9.78357 10.61384,-9.78357 6.4571,0 12.59831,1.38855 13.64721,3.08561 2.39653,3.87802 -6.11737,10.3103 -13.64721,10.3103 -3.12071,0 -7.89688,-1.62554 -10.61384,-3.61234 z m 60.54278,0.73654 c -9.36534,-3.74986 -2.59344,-10.52011 10.52249,-10.52011 11.90012,0 16.186,4.60549 9.1044,9.78357 -5.66835,4.14499 -10.64787,4.33184 -19.62689,0.73654 z m 118.96235,-0.73654 c -7.11725,-5.20413 -2.77618,-9.78357 9.27425,-9.78357 5.72031,0 11.25872,1.38855 12.30762,3.08561 2.1921,3.54724 -5.88107,10.3103 -12.30762,10.3103 -2.38394,0 -6.55729,-1.62554 -9.27425,-3.61234 z m 58.94197,0 c -7.38247,-5.39812 -2.62479,-9.78357 10.61385,-9.78357 6.45709,0 12.59831,1.38855 13.64721,3.08561 2.39653,3.87802 -6.11738,10.3103 -13.64721,10.3103 -3.12071,0 -7.89689,-1.62554 -10.61385,-3.61234 z m -122.00561,-5.76479 c 0,-2.21033 1.20563,-4.01878 2.67918,-4.01878 1.47356,0 2.67918,1.80845 2.67918,4.01878 0,2.21032 -1.20562,4.01877 -2.67918,4.01877 -1.47355,0 -2.67918,-1.80845 -2.67918,-4.01877 z m 21.43345,-1.3396 c 0,-1.47354 1.20563,-2.67918 2.67918,-2.67918 1.47354,0 2.67918,1.20564 2.67918,2.67918 0,1.47356 -1.20564,2.67919 -2.67918,2.67919 -1.47355,0 -2.67918,-1.20563 -2.67918,-2.67919 z M 313.46384,472.81435 c -2.77536,-5.36717 -4.35367,-15.07063 -4.35367,-26.76838 v -18.34934 l 9.37713,1.09474 9.37713,1.09471 -0.11252,16.45178 c -0.0723,10.6266 -1.85131,19.717 -5.02346,25.67365 l -4.91122,9.22193 z m 238.65876,-1.97267 c -2.6915,-5.6441 -4.56533,-16.01376 -4.56533,-25.26452 v -15.69108 l 9.37714,-1.09471 9.37713,-1.09474 -0.11252,17.54649 c -0.0723,11.40452 -1.75728,20.6313 -4.81181,26.35923 l -4.69982,8.81276 z m -179.98283,-1.22107 c -2.35553,-4.55506 -4.08762,-14.84099 -4.08762,-24.27437 v -16.36985 l 9.77981,0.83151 9.77982,0.83155 -0.11789,15.50562 c -0.11788,15.49293 -4.66552,31.38004 -8.9798,31.38004 -1.25708,0 -4.12487,-3.55702 -6.37298,-7.9045 z m 118.05356,-2.28332 c -2.9112,-6.45573 -4.28696,-15.0435 -3.75594,-23.44284 0.8351,-13.20282 0.87529,-13.255 10.21545,-13.255 9.34015,0 9.38034,0.0522 10.21544,13.255 0.79277,12.5405 -5.61314,33.63066 -10.21544,33.63066 -1.02586,0 -3.93278,-4.58451 -6.45951,-10.18782 z M 251.78481,435.27276 c -3.26888,-7.24935 -4.32957,-15.5845 -3.75568,-29.51554 l 0.79946,-19.41337 10.04693,6.83909 c 9.11029,6.20149 10.04693,7.96405 10.04693,18.90556 0,9.8889 -8.22669,33.28644 -11.70373,33.28644 -0.48306,0 -2.92834,-4.54598 -5.43391,-10.10218 z m 359.09732,-1.37391 c -2.41072,-6.31186 -4.38287,-16.47763 -4.38287,-22.59061 0,-9.21016 1.33316,-12.06385 7.78141,-16.65532 12.13214,-8.63881 13.65204,-7.30489 13.65204,11.98063 0,12.29294 -1.61528,20.68746 -5.41275,28.1314 -2.97711,5.83549 -5.82749,10.60999 -6.33413,10.60999 -0.50662,0 -2.89324,-5.16424 -5.3037,-11.47609 z M 317.14772,389.11213 v -29.47099 h 56.26279 56.2628 v 29.47099 29.471 h -56.2628 -56.26279 z m 129.17992,0.66979 0.76034,-28.80118 55.59302,-0.72416 55.593,-0.72416 v 29.52536 29.52535 H 501.92064 445.56702 Z M 219.80792,354.77891 137.2036,299.35957 136.75331,270.55775 c -0.24755,-15.841 0.2786,-28.80154 1.16949,-28.80118 0.89091,3.4e-4 39.47111,25.09382 85.73379,55.76332 l 84.11399,55.76272 -0.84207,28.63148 c -0.46323,15.74731 -1.66886,28.55334 -2.67918,28.45783 -1.01059,-0.0953 -39.00915,-25.11237 -84.44141,-55.59301 z m 349.1828,31.87318 c 0,-13.14144 -0.70274,-25.72454 -1.56142,-27.96243 -1.1558,-3.01228 20.4041,-18.72357 83.02326,-60.50071 46.5213,-31.03748 85.20144,-56.43177 85.95563,-56.43177 0.75393,0 1.37093,13.06663 1.37093,29.03696 v 29.03697 l -83.04763,55.35723 c -45.67603,30.44649 -83.65341,55.35724 -84.39421,55.35724 -0.74052,0 -1.34656,-10.75209 -1.34656,-23.89349 z m -376.35613,5.27227 c -2.55017,-4.93148 -4.08757,-15.13747 -4.08757,-27.13517 v -19.23068 l 8.70734,6.69473 c 7.24011,5.56662 8.84398,8.76111 9.51822,18.95784 0.70537,10.66742 -4.84476,28.61778 -8.84842,28.61778 -0.66109,0 -3.04141,-3.55702 -5.28957,-7.9045 z m 479.57346,0 c -2.24811,-4.34748 -4.07263,-13.69112 -4.0544,-20.76364 0.0295,-11.72898 0.85439,-13.39115 9.37713,-18.91195 l 9.34391,-6.0528 v 18.91196 c 0,16.48723 -4.92434,34.72093 -9.37714,34.72093 -0.66122,0 -3.0414,-3.55702 -5.2895,-7.9045 z M 150.24537,350.27853 c -4.31452,-9.0477 -6.4124,-30.82511 -2.96944,-30.82511 0.8777,0 5.09741,2.49336 9.37713,5.5408 8.94892,6.37218 9.69946,13.21412 2.85716,26.04498 l -4.69958,8.81277 z m 563.25261,-2.5703 -5.92394,-13.2725 8.97311,-7.49115 c 4.93533,-4.12013 9.92289,-7.49116 11.08378,-7.49116 4.07958,0 1.82987,22.87721 -3.16144,32.15018 l -5.04758,9.37714 z M 234.10081,292.65999 c -46.41258,-30.91822 -84.77593,-57.38319 -85.25185,-58.81104 -0.47596,-1.42783 37.27416,-27.98636 83.88912,-59.01892 l 84.75445,-56.42285 55.42072,0.72364 55.42047,0.72362 0.75634,26.81175 0.75633,26.81176 -45.63262,22.69012 c -25.09802,12.47955 -45.55357,23.32125 -45.45713,24.09267 0.0965,0.77142 20.59219,11.32228 45.54608,23.44635 l 45.37059,22.04374 v 41.5868 41.58679 l -55.593,-0.0241 -55.59301,-0.0241 z M 445.7484,307.41201 V 265.8996 l 46.13737,-23.09883 46.13737,-23.09885 -45.46757,-23.13194 -45.46759,-23.13191 v -26.79182 -26.79181 l 54.79516,-0.72699 54.79514,-0.727 85.19206,56.73801 c 46.85567,31.20589 85.15857,57.45412 85.11758,58.32939 -0.0402,0.87526 -38.61824,27.21104 -85.72736,58.52397 l -85.65288,56.9326 H 500.67804 445.7484 Z"
       id="path1" /></g></svg>
