<?xml version="1.0" encoding="UTF-8" standalone="no"?>
<svg
   xml:space="preserve"
   width="872"
   height="889"
   viewBox="0 0 872 889"
   version="1.1"
   id="svg1"
   sodipodi:docname="augmented.svg"
   inkscape:version="1.4.2 (f4327f4, 2025-05-13)"
   xmlns:inkscape="http://www.inkscape.org/namespaces/inkscape"
   xmlns:sodipodi="http://sodipodi.sourceforge.net/DTD/sodipodi-0.dtd"
   xmlns="http://www.w3.org/2000/svg"
   xmlns:svg="http://www.w3.org/2000/svg"><defs
     id="defs1" /><sodipodi:namedview
     id="namedview1"
     pagecolor="#ffffff"
     bordercolor="#000000"
     borderopacity="0.25"
     inkscape:showpageshadow="2"
     inkscape:pageopacity="0.0"
     inkscape:pagecheckerboard="0"
     inkscape:deskcolor="#d1d1d1"
     inkscape:zoom="1.3127109"
     inkscape:cx="436.12039"
     inkscape:cy="444.5"
     inkscape:window-width="3440"
     inkscape:window-height="1369"
     inkscape:window-x="1737"
     inkscape:window-y="1432"
     inkscape:window-maximized="1"
     inkscape:current-layer="svg1" /><path
     d="M221.496 712.676c-87.95-58.812-93.23-62.799-93.23-70.381 0-7.578 5.213-11.528 91.051-68.99l91.052-60.95h59.848c55.558 0 59.784.336 58.944 4.688-.824 4.266-5.427 4.689-51.103 4.689h-50.197l.001 30.14.001 30.141h50.905c49.118 0 50.904.188 50.904 5.359 0 5.186-1.786 5.358-55.536 5.358h-55.537l-63.622 42.197c-34.992 23.208-63.651 43.062-63.687 44.12s28.19 20.649 62.722 43.536l62.788 41.614h56.632c52.494 0 56.567.343 55.732 4.689-.82 4.262-6.068 4.754-57.67 5.411l-56.768.723Zm95.652-160.16c0-16.194-.567-29.445-1.26-29.445-2.1 0-178.245 117.76-178.245 119.164 0 .718 9.799 7.866 21.776 15.885l21.776 14.58 67.976-45.37 67.977-45.368zM446.673 770.78c-.873-2.274-.943-4.778-.155-5.565.786-.787 26.193-1.295 56.458-1.128l55.028.303 63.096-42.054c34.703-23.13 63.06-42.764 63.015-43.633-.043-.868-28.785-20.542-63.868-43.72l-63.788-42.14-54.685-.726c-46.5-.618-54.686-1.328-54.686-4.745 0-3.404 7.702-4.13 50.322-4.748l50.322-.73-.757-29.59-.757-29.59-49.565-.492c-42.054-.416-49.565-1.1-49.565-4.51 0-3.432 8.589-4.101 58.942-4.589l58.942-.57 91.092 60.852c85.905 57.387 91.092 61.31 91.092 68.89 0 7.586-5.25 11.538-93.412 70.328l-93.412 62.291h-56.036c-48.035 0-56.263-.59-57.623-4.134m275.754-117.707c8.503-5.722 14.531-11.244 13.396-12.272-1.984-1.798-167.35-111.96-174.2-116.048-2.602-1.552-3.327 4.763-3.252 28.3l.096 30.3 67.372 44.71 67.37 44.712 6.88-4.65c3.784-2.557 13.836-9.33 22.338-15.052M326.525 742.64c-23.542-7.669-27.532-24.741-8.48-36.272 11.972-7.245 60.493-7.452 73.566-.314 17.305 9.448 17.22 23.982-.195 33.168-10.098 5.326-52.223 7.546-64.891 3.418m163.922-1.078c-39.3-14.017-19.81-41.249 29.735-41.547 47.454-.286 66.114 25.956 29.373 41.307-12.249 5.118-45.056 5.25-59.108.24m-271.83-63.57c-4.604-4.605 1.026-10.245 10.227-10.245 10.008 0 15.966 2.5 15.966 6.698 0 6.717-20.276 9.463-26.192 3.547m194.286-.679c-14.062-5.017-18.459-9.355-17.525-17.288.99-8.405 15.896-19.07 26.654-19.07h7.641v20.094c0 22.08-.128 22.203-16.77 16.264m34.583 1.995c-.956-.956-1.738-10.134-1.738-20.396v-18.658l9.985 1.62c22.714 3.686 31.838 22.227 15.468 31.431-9.68 5.443-21.327 8.39-23.715 6.003m186.475.06c-5.729-2.311-3.677-8.757 3.349-10.52 8.886-2.231 20.094.76 20.094 5.361 0 5.937-13.923 9-23.443 5.16m-374.667-33.46c-3.063-4.957 7.337-10.83 16.131-9.11 9.644 1.886 10.655 2.829 8.648 8.06-1.9 4.95-21.846 5.794-24.779 1.05m331.13.314c-3.478-2.328-3.32-3.223 1.182-6.657 2.86-2.183 7.754-3.968 10.874-3.968 7.53 0 16.044 6.432 13.648 10.31-2.34 3.785-20.191 4.003-25.704.315m-282.55-32.992c-7.383-5.398-2.625-9.783 10.613-9.783 6.457 0 12.599 1.388 13.648 3.085 2.396 3.878-6.118 10.31-13.648 10.31-3.12 0-7.897-1.625-10.614-3.612m60.542.737c-9.365-3.75-2.593-10.52 10.523-10.52 11.9 0 16.186 4.605 9.104 9.783-5.668 4.145-10.648 4.332-19.627.737m118.963-.737c-7.118-5.204-2.777-9.783 9.274-9.783 5.72 0 11.259 1.388 12.307 3.085 2.193 3.547-5.88 10.31-12.307 10.31-2.384 0-6.557-1.625-9.274-3.612m58.942 0c-7.383-5.398-2.625-9.783 10.613-9.783 6.457 0 12.599 1.388 13.648 3.085 2.396 3.878-6.118 10.31-13.648 10.31-3.12 0-7.896-1.625-10.613-3.612m-122.006-5.765c0-2.21 1.206-4.018 2.68-4.018 1.473 0 2.678 1.808 2.678 4.018s-1.205 4.02-2.679 4.02-2.68-1.81-2.68-4.02m21.433-1.34a2.687 2.687 0 0 1 2.68-2.678 2.687 2.687 0 0 1 2.679 2.679 2.687 2.687 0 0 1-2.68 2.679 2.687 2.687 0 0 1-2.679-2.68m-132.284-133.31c-2.776-5.368-4.354-15.071-4.354-26.769v-18.35l9.377 1.095 9.377 1.095-.112 16.452c-.072 10.626-1.851 19.717-5.024 25.674l-4.91 9.221zm238.659-1.973c-2.692-5.644-4.566-16.014-4.566-25.265v-15.69l9.377-1.096 9.378-1.094-.113 17.546c-.072 11.405-1.757 20.631-4.812 26.36l-4.7 8.812zM372.14 469.62c-2.356-4.555-4.088-14.841-4.088-24.275v-16.37l9.78.832 9.78.831-.118 15.506c-.118 15.493-4.666 31.38-8.98 31.38-1.257 0-4.125-3.557-6.373-7.904zm118.053-2.284c-2.91-6.455-4.287-15.043-3.756-23.443.835-13.202.876-13.255 10.216-13.255s9.38.053 10.215 13.255c.793 12.541-5.613 33.631-10.215 33.631-1.026 0-3.933-4.584-6.46-10.188m-238.408-32.064c-3.27-7.25-4.33-15.585-3.756-29.516l.8-19.413 10.047 6.839c9.11 6.201 10.046 7.964 10.046 18.906 0 9.888-8.226 33.286-11.703 33.286-.483 0-2.929-4.546-5.434-10.102m359.097-1.374c-2.41-6.312-4.383-16.478-4.383-22.59 0-9.21 1.333-12.065 7.782-16.656 12.132-8.639 13.652-7.305 13.652 11.98 0 12.293-1.616 20.688-5.413 28.132-2.977 5.835-5.828 10.61-6.334 10.61-.507 0-2.893-5.164-5.304-11.476m-293.734-44.787v-29.47h112.525v58.941H317.148zm129.18.67.76-28.801 55.593-.724 55.593-.725v59.051H445.567Zm-226.52-35.003-82.604-55.42-.45-28.801c-.248-15.841.278-28.802 1.169-28.801.89 0 39.47 25.093 85.734 55.763l84.114 55.763-.842 28.631c-.464 15.747-1.67 28.553-2.68 28.458s-39.009-25.112-84.441-55.593m349.183 31.873c0-13.141-.703-25.724-1.562-27.962-1.155-3.013 20.404-18.724 83.024-60.501 46.52-31.038 85.201-56.432 85.955-56.432s1.371 13.067 1.371 29.037v29.037l-83.048 55.357c-45.676 30.447-83.653 55.358-84.394 55.358s-1.346-10.753-1.346-23.894m-376.356 5.272c-2.55-4.931-4.088-15.137-4.088-27.135v-19.23l8.707 6.694c7.24 5.567 8.844 8.761 9.519 18.958.705 10.667-4.845 28.618-8.849 28.618-.66 0-3.041-3.557-5.29-7.905m479.573 0c-2.248-4.347-4.073-13.69-4.054-20.763.03-11.73.854-13.391 9.377-18.912l9.344-6.053v18.912c0 16.487-4.925 34.72-9.377 34.72-.662 0-3.042-3.556-5.29-7.904M150.245 350.28c-4.314-9.048-6.412-30.826-2.97-30.826.879 0 5.098 2.494 9.378 5.541 8.949 6.372 9.7 13.214 2.857 26.045l-4.7 8.813zm563.253-2.57-5.924-13.273 8.973-7.491c4.935-4.12 9.923-7.492 11.084-7.492 4.08 0 1.83 22.878-3.162 32.15l-5.047 9.378zm-479.397-55.05c-46.413-30.918-84.776-57.383-85.252-58.811s37.274-27.986 83.89-59.019l84.754-56.423 55.42.724 55.42.723.757 26.812.756 26.812-45.632 22.69c-25.098 12.48-45.554 23.321-45.457 24.093.096.771 20.592 11.322 45.546 23.446l45.37 22.044v83.173l-55.593-.024-55.593-.024zm211.647 14.752V265.9l46.138-23.1 46.137-23.098-45.467-23.132-45.468-23.132v-53.584l54.795-.727 54.795-.727 85.192 56.738c46.856 31.206 85.159 57.455 85.118 58.33-.04.875-38.618 27.21-85.727 58.524l-85.653 56.932h-109.86Z"
     style="fill:#000;stroke-width:2.67918"
     id="path1" /></svg>
