<?xml version="1.0" encoding="UTF-8" standalone="no"?>
<svg
   xml:space="preserve"
   width="872"
   height="1209"
   viewBox="0 0 872 1209"
   version="1.1"
   id="svg1"
   sodipodi:docname="brutal.svg"
   inkscape:version="1.4.2 (f4327f4, 2025-05-13)"
   xmlns:inkscape="http://www.inkscape.org/namespaces/inkscape"
   xmlns:sodipodi="http://sodipodi.sourceforge.net/DTD/sodipodi-0.dtd"
   xmlns="http://www.w3.org/2000/svg"
   xmlns:svg="http://www.w3.org/2000/svg"><defs
     id="defs1" /><sodipodi:namedview
     id="namedview1"
     pagecolor="#ffffff"
     bordercolor="#000000"
     borderopacity="0.25"
     inkscape:showpageshadow="2"
     inkscape:pageopacity="0.0"
     inkscape:pagecheckerboard="0"
     inkscape:deskcolor="#d1d1d1"
     inkscape:zoom="0.32817773"
     inkscape:cx="-1273.7001"
     inkscape:cy="763.30591"
     inkscape:window-width="3440"
     inkscape:window-height="1369"
     inkscape:window-x="1737"
     inkscape:window-y="1432"
     inkscape:window-maximized="1"
     inkscape:current-layer="svg1" /><circle
     cx="438.49899"
     cy="780.88"
     r="417.83801"
     style="fill:none;stroke:#000000;stroke-width:18;stroke-dasharray:none;stroke-opacity:1"
     id="circle1" /><path
     style="fill:#000000;stroke-width:2.4781"
     d="m 95.136139,520.6992 c -3.25171,-7.83697 -6.12154,-15.92176 -6.37738,-17.96619 -0.25584,-2.04443 -2.71084,-10.408 -5.45555,-18.58572 -9.01363,-26.85562 -11.63246,-49.80405 -11.59464,-101.60193 0.0377,-51.58518 2.27457,-70.93636 11.74464,-101.60193 2.94633,-9.54066 5.50117,-18.46181 5.67744,-19.82476 0.68304,-5.28151 15.904101,-40.4142 22.012181,-50.80769 2.80563,-4.77404 7.88899,-14.03984 11.29638,-20.59067 3.40738,-6.55083 10.09824,-16.82656 14.86857,-22.83497 4.77033,-6.0084 12.57634,-16.06344 17.34667,-22.34452 11.1866,-14.72937 46.51773,-48.386637 61.47529,-58.562811 6.39569,-4.351231 12.18611,-8.677024 12.86759,-9.612872 3.53919,-4.860258 53.86691,-31.99676 73.10382,-39.417295 2.72591,-1.051503 7.74405,-3.132214 11.15143,-4.623802 3.40738,-1.491586 20.84089,-6.49868 38.74112,-11.126873 l 32.54587,-8.414897 59.14367,0.522472 c 45.64249,0.403201 62.67927,1.453296 74.63177,4.600074 8.51846,2.242684 22.05376,5.70817 30.07846,7.701079 8.02469,1.992912 20.77737,6.453484 28.3393,9.912383 7.56194,3.458901 15.42732,6.288909 17.47866,6.288909 2.05132,0 4.33203,0.974639 5.06825,2.165865 0.73622,1.191225 7.21411,4.954298 14.39531,8.362383 41.06009,19.486491 99.62745,69.739455 128.55731,110.306975 8.0297,11.25979 14.59943,21.09516 14.59943,21.85637 0,0.76122 3.34543,6.24644 7.43429,12.1894 4.08886,5.94295 7.43433,12.10501 7.43433,13.69347 0,1.58846 2.3637,6.20766 5.2527,10.26489 2.889,4.05723 6.6709,12.03537 8.4043,17.72921 3.0828,10.12638 6.8585,19.98477 11.6538,30.42782 1.315,2.86374 2.7798,8.43945 3.2552,12.39048 1.302,10.82126 3.6408,20.72121 8.1368,34.44273 3.251,9.92194 4.0598,23.00517 4.0597,65.66953 -10e-5,48.13605 -0.5673,55.43196 -5.8761,75.58193 -3.2318,12.26657 -6.165,24.7498 -6.5183,27.74049 -0.7955,6.73408 -15.626,45.78357 -18.5446,48.82883 -1.2324,1.28595 -8.73,-4.51658 -17.74961,-13.73688 -8.58871,-8.7798 -20.80946,-20.14643 -27.1572,-25.25918 -6.34774,-5.11276 -15.62707,-13.14925 -20.62073,-17.85887 -4.99366,-4.70962 -10.1622,-8.56296 -11.48563,-8.56296 -1.32343,0 -3.7531,-1.13086 -5.39928,-2.51299 -4.40811,-3.70114 -21.54359,-14.84977 -31.49112,-20.48865 -39.42675,-22.34952 -71.08869,-34.55826 -132.57812,-51.1217 -19.11997,-5.15035 -51.24668,-7.8996 -92.56734,-7.92151 -45.88843,-0.0248 -76.13461,3.07651 -104.44128,10.70718 -10.22214,2.75562 -22.08256,5.84843 -26.35646,6.87293 -19.19096,4.60026 -67.00734,25.36009 -98.7878,42.88944 -12.25651,6.7604 -43.36016,27.62304 -49.80162,33.40422 -2.62207,2.35327 -10.33155,8.72108 -17.13222,14.15067 -6.80064,5.42958 -19.1338,16.85979 -27.40699,25.40048 -8.27323,8.54068 -15.59523,15.52851 -16.27116,15.52851 -0.67592,0 -3.889441,-6.41207 -7.141151,-14.24905 z m 80.582131,-78.66987 c 64.24039,-43.06993 137.9287,-69.96896 214.64239,-78.35264 31.66588,-3.46061 102.53761,-1.50524 129.85678,3.58279 88.29082,16.44365 167.02619,53.01829 229.71369,106.70794 10.51567,9.00632 20.23022,16.37511 21.58782,16.37511 2.4524,0 3.7126,-3.80871 11.4784,-34.69334 6.1508,-24.46171 7.7094,-101.25678 2.6469,-130.41805 C 777.87305,280.46768 756.3515,226.84059 730.62661,188.13917 680.72951,113.07228 592.73317,55.148062 504.06596,39.003992 480.12894,34.645661 402.28452,34.583085 379.11038,38.903543 311.02777,51.596492 246.25231,86.206631 195.39405,137.06489 154.63054,177.82839 127.96318,220.88214 109.68427,275.441 89.722959,335.02153 87.805559,420.16087 105.15972,476.34706 l 5.05164,16.35536 19.12392,-16.19864 c 10.51817,-8.90925 31.39051,-24.42275 46.38299,-34.47445 z"
     id="path1" /><path
     style="fill:#000000;stroke-width:1.49543"
     d="m 94.556782,450.56069 c -0.454903,-1.18568 -0.596228,-3.37274 -0.313891,-4.86014 0.433981,-2.28671 3.167018,-2.99253 17.697799,-4.57052 36.7675,-3.99281 45.83428,-5.09591 52.32698,-6.36625 15.34937,-3.00322 20.93599,-3.27172 20.93599,-1.00618 0,1.18819 -1.17764,2.55115 -2.61699,3.02882 -1.43936,0.47765 -5.29486,1.8758 -8.56791,3.10698 -5.35468,2.01425 -13.61991,3.47851 -47.88451,8.48329 -5.7574,0.84095 -14.11325,2.16143 -18.56843,2.93439 -10.73763,1.86296 -12.034917,1.78815 -13.009038,-0.75039 z m 685.640918,1.47089 c -0.45222,-0.45222 -5.81058,-1.47754 -11.90746,-2.27849 -29.17036,-3.83214 -40.42135,-6.13085 -48.32622,-9.87364 -11.30198,-5.35123 -12.33596,-7.39169 -2.99541,-5.91118 18.29913,2.90051 24.84212,3.75079 40.23638,5.22886 9.04734,0.86866 19.81443,2.08714 23.92686,2.70771 7.05233,1.06421 7.47714,1.38215 7.47714,5.59613 0,3.67001 -0.67756,4.54682 -3.79453,4.91032 -2.08701,0.24337 -4.16455,0.0725 -4.61676,-0.37971 z m -89.21423,-28.58974 c -1.30203,-2.3266 -0.82949,-5.93649 1.99156,-15.21434 l 1.02308,-3.36472 -19.24112,0.0151 c -16.00168,0.012 -20.81469,-0.53752 -28.58755,-3.26741 -5.14054,-1.8054 -9.34643,-3.83104 -9.34643,-4.50141 0,-0.67039 22.16739,-1.21889 49.26088,-1.21889 27.09348,0 49.6138,-0.57103 50.04514,-1.26896 0.43133,-0.69791 -0.37012,-2.54851 -1.78103,-4.11242 -1.41091,-1.56391 -3.44988,-4.56271 -4.53104,-6.66399 -1.08116,-2.10129 -3.84239,-5.82851 -6.13604,-8.28272 -4.11297,-4.40085 -4.32228,-4.4481 -15.23167,-3.43824 -6.08377,0.56316 -21.82847,2.4851 -34.98824,4.27101 -13.15977,1.78588 -30.31981,4.04764 -38.13343,5.02612 l -14.20656,1.77907 -0.46861,4.84963 c -0.25773,2.6673 -1.0588,4.84965 -1.78015,4.84965 -0.72137,0 -5.89403,-1.65182 -11.49483,-3.67069 -18.95774,-6.83359 -49.37298,-13.88082 -80.46839,-18.64458 -50.38005,-7.71816 -134.02942,-6.35351 -176.46055,2.87873 -3.28994,0.71583 -13.04761,2.06793 -21.6837,3.00463 -9.56079,1.03701 -16.65317,2.5615 -18.13396,3.89783 -1.33757,1.20707 -7.99731,3.90383 -14.79942,5.99276 l -12.36734,3.79807 -3.14578,-3.70527 c -2.55225,-3.00621 -4.97963,-3.86824 -12.86607,-4.5691 -5.34615,-0.47511 -22.78151,-2.56969 -38.7452,-4.65466 -15.96384,-2.08495 -29.38187,-3.434 -29.81794,-2.99788 -1.128,1.12802 3.66305,14.29977 10.58001,29.08639 l 5.92174,12.65936 -3.45847,2.80041 c -3.40091,2.75396 -3.5026,2.74585 -6.12094,-0.48775 -1.46447,-1.80849 -2.66261,-4.60042 -2.66261,-6.2043 0,-1.60388 -4.03094,-11.23204 -8.95747,-21.3959 -7.74856,-15.9859 -9.51452,-18.59026 -13.085,-19.29849 -6.61876,-1.31285 -14.09695,-2.40939 -21.32495,-3.12686 -3.70119,-0.3674 -14.46828,-1.73871 -23.92686,-3.04735 -18.67475,-2.58376 -34.94337,-4.6913 -47.853701,-6.19926 -8.79536,-1.02733 -10.409084,-2.22837 -10.445123,-7.77422 -0.01796,-2.77392 0.534621,-3.29523 2.594126,-2.44735 4.576004,1.88386 6.71402,2.19021 25.796128,3.69608 10.28107,0.81132 24.6164,2.15408 31.85621,2.98391 12.49237,1.43186 13.40727,1.33792 17.94515,-1.84273 2.63001,-1.84332 5.27497,-4.11229 5.87763,-5.04216 0.6028,-0.92988 7.87133,-7.5913 16.15227,-14.80319 8.28093,-7.21186 14.51717,-13.62081 13.85829,-14.24207 -0.65874,-0.62128 -8.93669,-3.77766 -18.39527,-7.01421 -14.55336,-4.97991 -17.12071,-6.32392 -16.69855,-8.74182 0.8512,-4.8753 2.52129,-5.3016 9.34867,-2.38625 3.6312,1.55053 10.30335,3.67379 14.82702,4.71834 4.52367,1.04456 18.99194,5.52111 32.15171,9.9479 13.15977,4.42679 24.43156,8.0472 25.04842,8.04534 1.91326,-0.006 1.31867,-3.25402 -3.2856,-17.9485 -12.00291,-38.30675 -14.15992,-45.83538 -13.92498,-48.60142 0.18185,-2.1391 -2.75772,-5.12028 -10.32175,-10.46801 -18.70018,-13.22094 -40.27637,-27.50705 -42.85927,-28.37804 -5.27991,-1.78048 -12.73582,-9.27338 -11.7593,-11.81784 1.80633,-4.70738 4.9409,-3.99436 17.08318,3.88589 6.69233,4.34327 16.07914,10.38358 20.85957,13.4229 11.51435,7.32066 45.39299,30.50352 48.64898,33.29018 1.41423,1.21045 5.37367,3.6304 8.7985,5.37768 6.04153,3.08209 6.30652,3.09485 8.88448,0.42748 1.4615,-1.51216 5.81962,-8.74597 9.6847,-16.07511 l 7.02747,-13.32571 -13.24531,-12.4646 c -11.29273,-10.62698 -13.002,-12.85127 -11.59376,-15.08742 0.90848,-1.44256 2.68235,-2.82597 3.94211,-3.07426 1.33212,-0.26261 12.99856,10.32762 27.89003,25.31754 l 25.59993,25.76898 4.60148,-4.38154 c 2.53083,-2.40986 7.01267,-7.65352 9.95964,-11.65258 l 5.35817,-7.27102 -3.61521,-6.43151 c -5.14474,-9.15256 -22.38523,-34.81973 -32.84516,-48.89873 -4.89692,-6.59132 -8.90347,-12.56076 -8.90347,-13.26542 0,-1.4181 -15.38497,-24.75356 -26.94807,-40.87402 -6.98873,-9.74315 -7.28394,-10.52128 -4.96378,-13.085 3.83413,-4.2366 5.7915,-3.33645 11.14484,5.12518 2.73185,4.31805 8.24892,12.17983 12.26011,17.47062 4.01134,5.29078 7.90827,11.23725 8.66002,13.21438 1.22401,3.21976 1.97682,3.4917 7.21485,2.60673 6.79493,-1.14801 49.29424,-13.56248 50.47645,-14.74469 0.43885,-0.43885 -2.35196,-9.08147 -6.20179,-19.20582 -3.84982,-10.12436 -7.8873,-20.76323 -8.97217,-23.641929 -1.08486,-2.878699 -2.84848,-8.262241 -3.91913,-11.963426 -1.07066,-3.701185 -3.16459,-9.651704 -4.65316,-13.223385 -2.66258,-6.388485 -2.65785,-6.506683 0.2905,-7.277696 1.64837,-0.431057 2.99704,-1.378202 2.99704,-2.104755 0,-3.451688 2.54766,-0.715937 3.99213,4.286839 1.71094,5.925754 4.89269,14.293918 16.05801,42.233452 3.77716,9.45176 6.86756,17.6769 6.86756,18.27811 0,0.60121 1.61062,4.64444 3.57915,8.98497 6.08095,13.40827 11.60685,28.53384 12.71471,34.80277 0.69933,3.95728 1.81476,5.93558 3.28849,5.83242 1.22661,-0.0858 9.48764,-5.38348 18.35787,-11.77244 13.43727,-9.6785 16.00105,-12.14709 15.36872,-14.79816 -2.70312,-11.33317 -5.62379,-31.24186 -4.87106,-33.20347 0.53519,-1.39469 2.24793,-2.14648 4.24003,-1.86113 2.76749,0.39643 3.53134,1.76439 4.44244,7.95589 1.27273,8.64901 3.44344,21.87479 5.95191,36.26415 0.96782,5.55177 2.41595,10.95921 3.21805,12.01653 1.04537,1.37801 5.3111,1.80149 15.06386,1.49543 l 13.60552,-0.42694 0.38911,-67.66813 0.38909,-67.668131 h 4.47105 4.47105 l 0.0229,25.796138 c 0.012,14.187877 0.51895,26.57572 1.12523,27.528563 0.60629,0.952826 5.30512,2.821453 10.44183,4.152519 8.25745,2.139719 9.82894,2.166996 13.56411,0.235471 2.32354,-1.201547 5.18502,-3.347696 6.35883,-4.769221 1.17382,-1.421523 9.53661,-8.608163 18.58395,-15.970321 15.79779,-12.85524 21.26729,-19.670041 21.57281,-26.879008 0.13175,-3.108427 1.58738,-3.306347 5.15124,-0.700384 2.43714,1.782087 2.46684,2.648015 0.42317,12.337283 -1.20887,5.731365 -2.98861,15.467739 -3.95499,21.636381 -0.96637,6.168642 -2.38016,13.234541 -3.14177,15.701998 -0.76161,2.467456 -3.10636,12.561592 -5.21059,22.431422 -2.10423,9.86983 -4.58421,20.12 -5.51107,22.77817 -1.42492,4.08665 -1.21699,5.70323 1.34643,10.468 1.66737,3.09923 5.66636,12.53263 8.88664,20.96311 3.22028,8.43047 6.29816,15.32814 6.83975,15.32814 0.54158,0 3.14965,-5.21531 5.79571,-11.58957 2.64606,-6.37427 5.47512,-12.01179 6.2868,-12.52785 2.51728,-1.60044 7.12643,0.40709 7.12643,3.10393 0,1.4105 -4.65004,13.74911 -10.33339,27.41917 -5.68338,13.67004 -10.7619,26.80557 -11.28563,29.19004 -0.96406,4.38934 0.86037,7.29026 14.7629,23.47369 l 3.85399,4.48629 2.62263,-3.21517 c 4.17399,-5.11699 17.37337,-24.36506 19.68871,-28.71114 2.42501,-4.55196 21.88613,-33.3694 32.97392,-48.82682 4.12985,-5.7574 7.51448,-11.1846 7.52141,-12.06048 0.007,-0.87585 3.36153,-6.2594 7.45468,-11.96342 4.09315,-5.70401 10.88993,-15.58626 15.10396,-21.96052 4.21401,-6.37426 8.43568,-11.56817 9.38148,-11.54202 0.94579,0.0262 3.00577,1.02088 4.57774,2.21047 2.74649,2.07842 2.57125,2.57631 -4.48628,12.74625 -16.83145,24.25421 -26.47443,38.53122 -30.9785,45.86557 -2.62848,4.28019 -10.7226,16.56375 -17.98692,27.29681 -7.26433,10.73309 -12.98434,20.01703 -12.71114,20.63101 0.69562,1.56334 22.98276,22.80003 23.92778,22.80003 0.42526,0 8.78504,-7.75598 18.57731,-17.23553 9.79228,-9.47954 18.74246,-17.05013 19.88931,-16.82356 1.14684,0.22658 2.75984,1.48346 3.58445,2.79308 1.21424,1.92843 -2.89609,6.76175 -21.61947,25.42228 -12.71532,12.67264 -24.20731,24.72352 -25.53779,26.77973 -2.27164,3.51079 -2.17468,4.5808 1.59149,17.56207 3.9737,13.69673 5.69312,15.87792 9.19253,11.66141 0.99531,-1.19929 9.99419,-7.36491 19.99752,-13.70137 17.64979,-11.18002 34.10908,-22.07529 52.58271,-34.80727 16.4798,-11.35784 28.33692,-19.10299 36.96058,-24.14293 4.70107,-2.74746 10.69178,-6.82557 13.31269,-9.06247 5.17023,-4.41272 8.14007,-4.27241 9.64064,0.45548 1.25543,3.95552 0.61417,4.49521 -24.02363,20.21787 -11.51479,7.34817 -25.95314,17.15662 -32.08522,21.79653 -6.13207,4.6399 -15.21678,10.56799 -20.18828,13.17352 -10.20384,5.34777 -24.74106,15.94331 -24.74106,18.03269 0,2.30765 22.55581,23.10721 32.72487,30.17681 7.94136,5.52088 10.20343,6.43245 13.45885,5.42362 2.15222,-0.66697 7.95079,-2.52846 12.88571,-4.13668 4.93491,-1.6082 12.67375,-3.77306 17.19742,-4.81078 4.52367,-1.03774 11.17646,-3.25836 14.78397,-4.93472 6.40767,-2.97756 6.60666,-2.98291 8.61887,-0.23105 2.65691,3.63355 1.95585,5.50498 -2.56429,6.84532 -2.00261,0.59385 -15.41762,5.21337 -29.81112,10.26563 -14.3935,5.05226 -32.22648,11.19546 -39.62885,13.65157 -7.40237,2.45609 -14.26231,5.27562 -15.24429,6.2656 -1.38565,1.39696 -0.2137,4.91033 5.234,15.69084 l 7.01944,13.89088 8.22485,-0.91728 c 4.52367,-0.50452 15.62723,-1.8874 24.67457,-3.07308 17.50179,-2.29369 32.92465,-4.279 52.33999,-6.73754 6.57988,-0.83319 16.33755,-2.12395 21.6837,-2.86836 5.34616,-0.7444 17.29165,-1.88536 26.54552,-2.53547 l 16.82525,-1.182 -10e-4,3.82218 c -10e-4,4.22911 2.19265,3.73911 -43.36909,9.68403 -31.32931,4.08788 -40.37657,5.54239 -40.37473,6.49103 0.003,1.24532 17.82676,23.06099 19.9921,24.46885 0.92938,0.60428 15.58136,1.10899 32.55993,1.12158 26.75626,0.0199 30.99111,0.33813 31.77785,2.38834 2.60926,6.79962 4.20615,6.60712 -54.80859,6.60712 h -55.71628 l -3.89576,10.09414 c -3.95122,10.23786 -7.35791,13.13924 -9.9626,8.48492 z M 305.10591,367.7554 c 5.27973,-9.47944 4.60637,-10.86852 -6.55805,-13.52986 -4.35409,-1.03791 -13.47829,-3.6301 -20.27606,-5.76045 -6.79777,-2.13033 -12.54231,-3.60298 -12.76543,-3.27253 -10.25579,15.18065 -11.84005,18.51052 -10.55204,22.17985 1.20068,3.42094 2.41332,3.95806 11.03581,4.88822 5.32776,0.57472 13.72459,1.68422 18.65951,2.46552 14.47619,2.29187 15.48964,1.94658 20.45626,-6.97075 z m 337.46383,2.82324 c 11.01953,-1.60949 11.97114,-2.22294 9.52482,-6.14015 -0.99698,-1.59639 -1.81927,-3.75286 -1.82731,-4.79212 -0.0337,-4.35425 -7.43297,-17.59157 -9.83323,-17.59157 -1.37958,0 -8.30819,1.95888 -15.39693,4.3531 -7.08876,2.3942 -15.24394,4.81554 -18.12265,5.38079 -2.87869,0.56523 -6.70228,1.95653 -8.49687,3.09178 l -3.26285,2.06409 3.03313,8.63097 c 1.66822,4.74703 3.67207,9.02622 4.45298,9.5093 1.27823,0.79072 11.76947,-0.39327 39.92891,-4.50619 z m -399.17118,-7.9617 c 1.51681,-3.49557 4.85775,-8.97165 7.42406,-12.16906 5.20991,-6.49087 5.47236,-7.38412 2.79689,-9.51717 -1.78957,-1.42675 -50.06619,-18.31649 -52.35479,-18.31649 -0.60879,0 -1.10677,0.92672 -1.10677,2.05936 0,2.07436 -19.71603,20.501 -30.46262,28.47034 -4.2681,3.16515 -5.24985,4.58825 -3.73857,5.41937 1.12725,0.61989 16.50519,2.92254 34.17307,5.11699 17.66804,2.19447 32.41671,4.28295 32.77485,4.64108 0.35816,0.35813 2.24525,0.65114 4.19364,0.65114 2.73813,0 4.16866,-1.44319 6.30024,-6.35556 z m 325.38247,-8.59872 c 0.50833,-0.82249 2.64986,-1.49543 4.759,-1.49543 3.02335,0 22.6487,-5.875 37.71086,-11.28905 1.6161,-0.5809 1.30202,-1.59469 -1.37771,-4.44713 -3.92072,-4.17344 -27.43698,-18.6627 -30.27103,-18.65113 -1.01671,0.004 -5.21327,2.66013 -9.32569,5.90219 -4.11243,3.24206 -10.00069,7.40024 -13.085,9.24041 -6.85084,4.08733 -7.04022,6.90368 -1.04973,15.61055 4.4881,6.52325 10.31615,8.88852 12.6393,5.12959 z M 297.70324,328.6076 c 4.01403,-6.98473 7.42974,-13.97159 7.59034,-15.52638 0.18978,-1.83693 -1.54088,-3.86716 -4.94193,-5.79733 -2.8787,-1.63373 -7.92577,-4.92334 -11.21571,-7.31024 -3.28995,-2.3869 -14.72997,-10.30144 -25.42229,-17.58788 -10.69231,-7.28643 -21.05772,-14.6747 -23.03407,-16.41837 -4.21832,-3.72153 -7.62221,-4.11443 -7.62221,-0.87982 0,1.25978 1.93688,8.83038 4.30414,16.82357 2.36741,7.99319 4.76699,17.30534 5.33255,20.69364 2.05801,12.32911 7.37307,25.04619 11.29931,27.0349 6.37576,3.2295 32.03567,12.13167 34.28165,11.89338 1.17151,-0.12427 5.41419,-5.94076 9.42822,-12.92547 z m 339.23873,3.61115 c 6.10321,-2.11989 12.10617,-4.25595 13.33989,-4.74678 1.23374,-0.49084 5.55437,-1.96064 9.60144,-3.26622 4.04704,-1.30557 7.61391,-3.1407 7.92637,-4.07806 0.31245,-0.93737 -2.22233,-3.95784 -5.63284,-6.71218 -3.41051,-2.75432 -11.35151,-9.58974 -17.64666,-15.18982 -6.29514,-5.60008 -12.50655,-10.77655 -13.80314,-11.50326 -2.35279,-1.31869 -7.97324,1.96099 -25.30801,14.76791 -3.70119,2.73444 -8.24355,5.56105 -10.09414,6.28136 -5.34493,2.0804 -3.96573,5.22813 4.48629,10.23901 5.78509,3.42977 24.63655,16.47033 25.91508,17.92685 0.0655,0.0745 5.11249,-1.59894 11.21572,-3.71881 z m -256.63468,-16.4455 c 2.22882,-5.33432 2.21833,-5.36808 -5.00297,-16.07585 -3.98007,-5.90167 -8.99947,-14.09502 -11.15425,-18.20745 -2.15476,-4.11243 -5.92976,-10.16891 -8.38885,-13.45886 -2.45912,-3.28994 -7.86193,-10.83752 -12.00625,-16.77239 -4.46574,-6.39516 -8.29207,-10.4643 -9.39337,-9.98943 -2.66782,1.15033 -16.06482,17.90054 -16.06482,20.08579 0,1.8958 56.71465,59.60828 58.67549,59.70783 0.60583,0.0308 2.10659,-2.3496 3.33502,-5.28964 z m 186.94889,-1.3996 c 4.91872,-3.69253 9.44803,-6.71371 10.0651,-6.71371 1.75749,0 17.62974,-10.4376 17.62974,-11.59332 0,-0.5684 -1.4172,-5.76302 -3.14932,-11.54363 -1.73214,-5.78059 -3.39337,-11.35137 -3.69165,-12.37947 -1.22584,-4.22539 -5.51721,-0.94034 -22.95339,17.57094 l -18.31121,19.44024 4.73788,5.98204 c 2.60583,3.29014 5.18605,5.97498 5.73379,5.96635 0.54775,-0.009 5.02033,-3.0369 9.93906,-6.72944 z m -66.47044,-2.28639 c 4.41041,-5.56858 19.88626,-28.65432 30.60958,-45.66109 2.46746,-3.9133 5.43229,-8.56683 6.58851,-10.3412 1.93959,-2.97652 1.57387,-3.87484 -4.72675,-11.61028 -3.75593,-4.61129 -7.52005,-9.60931 -8.36466,-11.10672 -2.24052,-3.97215 -3.37912,-2.15717 -12.83291,20.45656 -4.64192,11.10355 -9.17803,21.87063 -10.08024,23.92685 -0.90222,2.05621 -2.17562,5.08445 -2.82978,6.72942 -0.65416,1.64498 -3.66905,8.9171 -6.69974,16.16026 -5.30122,12.66957 -5.40457,13.24953 -2.72297,15.28057 4.28739,3.2473 5.89037,2.6915 11.05896,-3.83437 z m -159.40896,-0.031 7.21584,-4.57615 -12.53093,-13.17273 c -6.89199,-7.24501 -13.16384,-13.26106 -13.93744,-13.369 -2.49669,-0.34835 -23.25502,10.9637 -23.2616,12.67619 0,1.46122 12.49258,9.99674 22.12528,15.1102 1.89137,1.00403 5.17859,3.19397 7.30496,4.86657 2.12635,1.67259 4.31654,3.04107 4.86708,3.04107 0.55054,0 4.24811,-2.05926 8.21681,-4.57615 z m 221.66444,-33.40395 c 17.55039,-17.59907 31.9098,-32.58889 31.9098,-33.31065 0,-2.57953 -22.1348,-23.28102 -23.79549,-22.25465 -0.91966,0.56838 -2.63481,3.33751 -3.81146,6.15363 -1.17665,2.81611 -6.71822,11.61857 -12.31462,19.56102 -21.2052,30.09456 -26.03478,37.3469 -28.73933,43.15623 -1.53164,3.28994 -4.5425,8.29953 -6.69079,11.1324 -2.14831,2.83285 -3.90601,5.69287 -3.90601,6.35556 0,0.6627 3.47357,1.2049 7.71905,1.2049 h 7.71903 z m -63.9703,-18.98683 c 6.67486,-15.70458 12.13612,-29.36532 12.13612,-30.35719 0,-0.99188 0.56787,-2.44271 1.26196,-3.22407 0.69408,-0.78136 3.1703,-6.13125 5.50273,-11.88866 2.33243,-5.7574 4.79279,-11.10729 5.46747,-11.88865 2.19582,-2.54302 1.32823,-6.21331 -5.36812,-22.70968 -3.62714,-8.93542 -6.99982,-17.49966 -7.49484,-19.03164 -0.73616,-2.27832 -1.30518,-2.44917 -3.12546,-0.93848 -1.22399,1.01584 -2.22546,2.82529 -2.22546,4.02103 0,2.06866 -1.23835,7.56977 -12.72521,56.52914 -2.70161,11.5148 -5.3543,24.56964 -5.89489,29.0108 -0.54056,4.44113 -2.33386,13.76329 -3.98512,20.71591 -2.84059,11.9604 -2.864,12.79391 -0.43473,15.47821 1.41213,1.56038 3.05843,2.83706 3.65846,2.83706 0.60004,0 6.55222,-12.84919 13.22709,-28.55378 z m -197.97156,20.35964 c 6.57989,-3.6191 11.96342,-7.24977 11.96342,-8.06816 0,-0.81839 -6.54967,-7.6351 -14.55485,-15.14826 -12.91601,-12.12207 -17.59685,-14.89282 -17.59685,-10.41618 0,0.75026 -3.02824,6.48615 -6.72943,12.74646 -3.70119,6.26027 -6.72943,11.92952 -6.72943,12.5983 0,0.66879 3.31297,3.34191 7.36215,5.94029 4.04931,2.59837 8.16937,5.69677 9.15576,6.88532 2.57722,3.10542 3.84265,2.77019 17.12923,-4.53777 z m 142.81341,-60.59549 v -44.86285 h -13.3706 c -7.35383,0 -13.72372,0.57134 -14.15529,1.26965 -0.43158,0.69831 1.20779,12.64305 3.64305,26.54386 2.43526,13.9008 5.48899,32.00361 6.78606,40.22847 3.27096,20.74146 3.75257,21.68371 11.083,21.68371 h 6.01378 z m -67.93926,37.44726 c 5.15072,-2.43359 9.75748,-5.05985 10.23724,-5.83611 0.937,-1.51611 -8.46127,-27.2098 -11.94588,-32.65854 -1.15742,-1.80978 -4.29781,-3.93756 -6.97866,-4.72838 -2.68085,-0.79084 -12.93793,-3.85246 -22.79352,-6.80363 -9.85557,-2.95116 -18.7554,-5.36575 -19.7774,-5.36575 -2.93078,0 0.21468,6.69303 8.0199,17.06514 3.76838,5.00767 11.83267,16.67547 17.92063,25.92843 6.61014,10.04661 12.05266,16.82357 13.51088,16.82357 1.34303,0 6.6561,-1.99113 11.80681,-4.42473 z m 102.32873,-13.89427 c 2.16491,-5.10849 7.39107,-28.2653 8.94373,-39.62914 0.75853,-5.55162 1.80809,-11.53202 2.33237,-13.28979 0.5243,-1.75777 0.38993,-3.52769 -0.29859,-3.93315 -1.14557,-0.67459 -17.66904,3.88351 -30.4127,8.38957 l -5.234,1.85069 -0.41648,21.50616 c -0.23772,12.275 0.19647,22.11911 1.01152,22.93416 1.1176,1.1176 12.63991,3.98976 21.49459,5.35796 0.63449,0.0981 1.79529,-1.33587 2.57956,-3.18646 z m -63.3031,-13.45886 c -2.14067,-8.7335 -8.43528,-47.98884 -9.35192,-58.3217 -0.74576,-8.40657 -1.59924,-11.58957 -3.1076,-11.58957 -1.70449,0 -13.62625,7.42253 -29.40217,18.30589 -2.59532,1.79044 -2.41852,2.71619 3.50151,18.33373 3.42917,9.04645 7.51916,19.30077 9.0889,22.78736 1.56974,3.4866 2.85405,6.97148 2.85405,7.74418 0,4.18926 5.01137,6.10483 15.97094,6.10483 10.93586,0 11.24649,-0.10004 10.44629,-3.36472 z m -47.41659,-27.66542 c -0.26351,-4.66479 -4.94198,-19.35956 -11.90006,-37.37733 -9.49231,-24.58018 -8.17183,-23.71968 -27.15405,-17.69506 -6.27869,1.99275 -16.86937,5.09471 -23.53484,6.89325 -6.66557,1.79856 -12.11909,3.71352 -12.11909,4.2555 0,0.98468 5.16326,8.49566 14.86859,21.62933 5.7555,7.78867 10.07046,9.82709 35.22825,16.64198 8.22486,2.22799 16.30017,4.61803 17.94515,5.31119 3.84378,1.6197 6.74668,1.76825 6.66605,0.34114 z m 106.34694,-22.23945 c 10.22158,-2.97875 18.79611,-5.60155 19.05451,-5.82846 0.37906,-0.33284 9.83718,-40.6321 13.16266,-56.08355 0.89591,-4.16273 2.6358,-3.14462 -24.10048,-14.10267 -18.71492,-7.670436 -20.57731,-8.460366 -23.61382,-10.0157 -1.47281,-0.754385 -3.3234,-0.972627 -4.11243,-0.484983 -1.76963,1.093697 -1.97206,91.931243 -0.20486,91.931243 0.67635,0 9.59285,-2.43715 19.81442,-5.41588 z M 510.4827,98.673838 c 0.45545,-2.261835 1.41379,-6.131256 2.12966,-8.598712 2.46009,-8.479334 4.91276,-20.350402 4.32583,-20.937313 -0.32316,-0.323177 -6.28724,3.709231 -13.25351,8.960891 -15.24757,11.494699 -17.89992,13.803909 -17.89992,15.584172 0,1.507556 17.17463,8.741244 21.28137,8.963374 1.67935,0.0908 2.87933,-1.30436 3.41657,-3.972412 z"
     id="path5" /></svg>
