<?xml version="1.0" encoding="UTF-8" standalone="no"?>
<svg
   xml:space="preserve"
   width="872"
   height="889"
   viewBox="0 0 872 889"
   version="1.1"
   id="svg2"
   sodipodi:docname="brutal_no_circle.svg"
   inkscape:version="1.4.2 (f4327f4, 2025-05-13)"
   xmlns:inkscape="http://www.inkscape.org/namespaces/inkscape"
   xmlns:sodipodi="http://sodipodi.sourceforge.net/DTD/sodipodi-0.dtd"
   xmlns="http://www.w3.org/2000/svg"
   xmlns:svg="http://www.w3.org/2000/svg"><defs
     id="defs2" /><sodipodi:namedview
     id="namedview2"
     pagecolor="#ffffff"
     bordercolor="#000000"
     borderopacity="0.25"
     inkscape:showpageshadow="2"
     inkscape:pageopacity="0.0"
     inkscape:pagecheckerboard="0"
     inkscape:deskcolor="#d1d1d1"
     inkscape:zoom="0.96526055"
     inkscape:cx="436.15167"
     inkscape:cy="604.5"
     inkscape:window-width="3440"
     inkscape:window-height="1369"
     inkscape:window-x="1737"
     inkscape:window-y="1432"
     inkscape:window-maximized="1"
     inkscape:current-layer="svg2" /><path
     d="m 95.136,520.7 c -3.252,-7.838 -6.121,-15.923 -6.377,-17.967 -0.256,-2.044 -2.711,-10.408 -5.456,-18.586 -9.013,-26.855 -11.632,-49.804 -11.594,-101.602 0.037,-51.585 2.274,-70.936 11.744,-101.602 2.947,-9.54 5.501,-18.461 5.678,-19.824 0.683,-5.282 15.904,-40.415 22.012,-50.808 2.805,-4.774 7.889,-14.04 11.296,-20.59 3.408,-6.552 10.098,-16.827 14.869,-22.836 a 1595,1595 0 0 0 17.346,-22.344 c 11.187,-14.73 46.518,-48.387 61.476,-58.563 6.395,-4.351 12.186,-8.677 12.867,-9.613 3.54,-4.86 53.867,-31.997 73.104,-39.417 2.726,-1.052 7.744,-3.132 11.152,-4.624 3.408,-1.492 20.84,-6.499 38.74,-11.127 l 32.547,-8.415 59.143,0.523 c 45.643,0.403 62.68,1.453 74.632,4.6 a 2689,2689 0 0 0 30.078,7.7 c 8.025,1.994 20.778,6.454 28.34,9.913 7.562,3.459 15.427,6.29 17.478,6.29 2.051,0 4.332,0.974 5.069,2.165 0.736,1.191 7.214,4.954 14.395,8.362 41.06,19.487 99.627,69.74 128.557,110.307 8.03,11.26 14.6,21.096 14.6,21.857 0,0.761 3.345,6.246 7.434,12.19 4.089,5.942 7.434,12.104 7.434,13.693 0,1.588 2.364,6.207 5.253,10.265 2.89,4.057 6.671,12.035 8.404,17.729 3.083,10.126 6.859,19.985 11.654,30.428 1.315,2.863 2.78,8.439 3.255,12.39 1.302,10.821 3.641,20.721 8.137,34.443 3.251,9.922 4.06,23.005 4.06,65.67 0,48.135 -0.567,55.431 -5.876,75.581 -3.232,12.267 -6.165,24.75 -6.519,27.74 -0.795,6.735 -15.626,45.784 -18.544,48.83 -1.233,1.286 -8.73,-4.517 -17.75,-13.737 -8.588,-8.78 -20.81,-20.147 -27.157,-25.26 -6.348,-5.112 -15.627,-13.149 -20.62,-17.858 -4.993,-4.709 -10.163,-8.563 -11.486,-8.563 -1.323,0 -3.753,-1.131 -5.4,-2.513 -4.408,-3.701 -21.543,-14.85 -31.49,-20.489 -39.427,-22.35 -71.09,-34.558 -132.579,-51.122 -19.12,-5.15 -51.247,-7.9 -92.567,-7.921 -45.889,-0.025 -76.135,3.076 -104.441,10.707 -10.223,2.756 -22.083,5.848 -26.357,6.873 -19.19,4.6 -67.007,25.36 -98.788,42.89 -12.256,6.76 -43.36,27.622 -49.801,33.404 -2.622,2.353 -10.332,8.72 -17.133,14.15 -6.801,5.43 -19.133,16.86 -27.407,25.4 -8.273,8.541 -15.595,15.53 -16.27,15.53 -0.677,0 -3.89,-6.413 -7.142,-14.25 m 80.582,-78.67 c 64.24,-43.07 137.929,-69.97 214.643,-78.353 31.666,-3.46 102.537,-1.506 129.856,3.582 88.291,16.444 167.027,53.019 229.714,106.708 10.516,9.007 20.23,16.376 21.588,16.376 2.452,0 3.713,-3.81 11.478,-34.694 6.151,-24.462 7.71,-101.257 2.647,-130.418 -7.77,-44.763 -29.293,-98.39 -55.017,-137.092 C 680.73,113.072 592.733,55.15 504.066,39.004 c -23.937,-4.358 -101.781,-4.42 -124.956,-0.1 -68.082,12.692 -132.858,47.303 -183.716,98.16 -40.763,40.764 -67.43,83.818 -85.71,138.377 -19.961,59.58 -21.878,144.72 -4.524,200.906 l 5.051,16.355 19.124,-16.198 c 10.518,-8.91 31.39,-24.423 46.383,-34.475"
     style="fill:#000000;stroke-width:2.4781"
     id="path1" /><path
     d="m 94.557,450.56 c -0.455,-1.185 -0.596,-3.372 -0.314,-4.86 0.434,-2.286 3.167,-2.992 17.698,-4.57 36.767,-3.993 45.834,-5.096 52.327,-6.366 15.349,-3.003 20.936,-3.272 20.936,-1.006 0,1.188 -1.178,2.55 -2.617,3.028 -1.439,0.478 -5.295,1.876 -8.568,3.107 -5.355,2.015 -13.62,3.479 -47.885,8.484 -5.757,0.84 -14.113,2.161 -18.568,2.934 -10.738,1.863 -12.035,1.788 -13.01,-0.75 m 685.64,1.472 c -0.452,-0.453 -5.81,-1.478 -11.907,-2.279 -29.17,-3.832 -40.421,-6.13 -48.326,-9.874 -11.302,-5.35 -12.336,-7.391 -2.995,-5.91 18.299,2.9 24.842,3.75 40.236,5.228 9.047,0.869 19.814,2.087 23.927,2.708 7.052,1.064 7.477,1.382 7.477,5.596 0,3.67 -0.678,4.547 -3.795,4.91 -2.087,0.244 -4.164,0.073 -4.616,-0.38 m -89.214,-28.59 c -1.302,-2.327 -0.829,-5.937 1.992,-15.214 l 1.023,-3.365 -19.241,0.015 c -16.002,0.012 -20.815,-0.538 -28.588,-3.268 -5.14,-1.805 -9.346,-3.83 -9.346,-4.5 0,-0.671 22.167,-1.22 49.26,-1.22 27.094,0 49.615,-0.57 50.046,-1.269 0.431,-0.698 -0.37,-2.548 -1.781,-4.112 -1.41,-1.564 -3.45,-4.563 -4.531,-6.664 -1.081,-2.101 -3.842,-5.829 -6.136,-8.283 -4.113,-4.4 -4.322,-4.448 -15.232,-3.438 -6.084,0.563 -21.828,2.485 -34.988,4.27 -13.16,1.787 -30.32,4.048 -38.133,5.027 l -14.208,1.779 -0.469,4.85 c -0.257,2.667 -1.058,4.85 -1.78,4.85 -0.721,0 -5.894,-1.652 -11.495,-3.671 -18.957,-6.834 -49.373,-13.881 -80.468,-18.645 -50.38,-7.718 -134.03,-6.353 -176.46,2.879 -3.29,0.716 -13.048,2.068 -21.684,3.004 -9.561,1.037 -16.653,2.562 -18.134,3.898 -1.338,1.207 -7.997,3.904 -14.8,5.993 l -12.367,3.798 -3.146,-3.705 c -2.552,-3.006 -4.98,-3.868 -12.866,-4.57 -5.346,-0.474 -22.781,-2.569 -38.745,-4.654 -15.964,-2.085 -29.382,-3.434 -29.818,-2.998 -1.128,1.128 3.663,14.3 10.58,29.087 l 5.922,12.659 -3.459,2.8 c -3.4,2.754 -3.502,2.746 -6.12,-0.487 -1.465,-1.809 -2.663,-4.6 -2.663,-6.205 0,-1.604 -4.031,-11.232 -8.958,-21.396 -7.748,-15.986 -9.514,-18.59 -13.085,-19.298 -6.618,-1.313 -14.097,-2.41 -21.325,-3.127 -3.7,-0.367 -14.468,-1.739 -23.926,-3.047 -18.675,-2.584 -34.944,-4.692 -47.854,-6.2 -8.796,-1.027 -10.41,-2.228 -10.445,-7.774 -0.018,-2.774 0.534,-3.295 2.594,-2.447 4.576,1.884 6.714,2.19 25.796,3.696 10.281,0.811 24.616,2.154 31.856,2.984 12.493,1.432 13.407,1.338 17.945,-1.843 2.63,-1.843 5.275,-4.112 5.878,-5.042 0.603,-0.93 7.871,-7.591 16.152,-14.803 8.281,-7.212 14.517,-13.621 13.859,-14.242 -0.66,-0.622 -8.937,-3.778 -18.396,-7.015 -14.553,-4.98 -17.12,-6.323 -16.698,-8.741 0.85,-4.876 2.521,-5.302 9.348,-2.387 3.632,1.55 10.304,3.674 14.827,4.719 4.524,1.044 18.992,5.52 32.152,9.948 13.16,4.426 24.432,8.047 25.049,8.045 1.913,-0.006 1.318,-3.254 -3.286,-17.949 -12.003,-38.306 -14.16,-45.835 -13.925,-48.6 0.182,-2.14 -2.758,-5.121 -10.322,-10.469 -18.7,-13.22 -40.276,-27.507 -42.86,-28.378 -5.279,-1.78 -12.735,-9.273 -11.758,-11.818 1.806,-4.707 4.94,-3.994 17.083,3.886 a 3295,3295 0 0 0 20.86,13.423 c 11.514,7.32 45.392,30.503 48.648,33.29 1.415,1.21 5.374,3.63 8.799,5.378 6.041,3.082 6.306,3.095 8.884,0.427 1.462,-1.512 5.82,-8.746 9.685,-16.075 l 7.027,-13.326 -13.245,-12.464 c -11.293,-10.627 -13.002,-12.851 -11.594,-15.088 0.909,-1.442 2.683,-2.826 3.943,-3.074 1.332,-0.262 12.998,10.328 27.89,25.318 l 25.6,25.769 4.601,-4.382 c 2.53,-2.41 7.013,-7.653 9.96,-11.652 l 5.358,-7.271 -3.615,-6.432 c -5.145,-9.152 -22.386,-34.82 -32.846,-48.899 -4.897,-6.591 -8.903,-12.56 -8.903,-13.265 0,-1.418 -15.385,-24.754 -26.948,-40.874 -6.989,-9.743 -7.284,-10.521 -4.964,-13.085 3.834,-4.237 5.792,-3.337 11.145,5.125 2.732,4.318 8.249,12.18 12.26,17.47 4.011,5.291 7.908,11.238 8.66,13.215 1.224,3.22 1.977,3.492 7.215,2.607 6.795,-1.148 49.294,-13.563 50.476,-14.745 0.44,-0.439 -2.352,-9.081 -6.201,-19.206 a 14202,14202 0 0 1 -8.973,-23.642 c -1.084,-2.878 -2.848,-8.262 -3.919,-11.963 -1.07,-3.701 -3.164,-9.652 -4.653,-13.223 -2.662,-6.389 -2.658,-6.507 0.29,-7.278 1.649,-0.431 2.998,-1.378 2.998,-2.105 0,-3.452 2.547,-0.716 3.992,4.287 1.71,5.926 4.892,14.294 16.058,42.233 3.777,9.452 6.867,17.677 6.867,18.279 0,0.6 1.611,4.644 3.58,8.984 6.08,13.409 11.606,28.534 12.714,34.803 0.7,3.958 1.815,5.936 3.289,5.833 1.226,-0.086 9.487,-5.384 18.358,-11.773 13.437,-9.678 16,-12.147 15.368,-14.798 -2.703,-11.333 -5.623,-31.242 -4.87,-33.203 0.534,-1.395 2.247,-2.147 4.24,-1.862 2.767,0.397 3.53,1.765 4.442,7.956 1.272,8.65 3.443,21.875 5.952,36.265 0.967,5.551 2.416,10.959 3.218,12.016 1.045,1.378 5.31,1.802 15.064,1.495 l 13.605,-0.426 0.39,-67.669 0.388,-67.668 h 8.942 l 0.023,25.796 c 0.012,14.188 0.52,26.576 1.125,27.529 0.607,0.953 5.306,2.821 10.442,4.152 8.258,2.14 9.83,2.167 13.564,0.236 2.324,-1.202 5.185,-3.348 6.36,-4.77 1.173,-1.42 9.536,-8.607 18.583,-15.97 15.798,-12.855 21.267,-19.67 21.573,-26.879 0.132,-3.108 1.587,-3.306 5.151,-0.7 2.437,1.782 2.467,2.648 0.423,12.337 -1.208,5.732 -2.988,15.468 -3.955,21.637 -0.966,6.168 -2.38,13.234 -3.141,15.702 -0.761,2.468 -3.107,12.561 -5.21,22.431 -2.105,9.87 -4.585,20.12 -5.512,22.778 -1.425,4.087 -1.217,5.704 1.346,10.468 1.668,3.1 5.667,12.533 8.887,20.963 3.22,8.43 6.298,15.329 6.84,15.329 0.542,0 3.15,-5.216 5.796,-11.59 2.646,-6.374 5.475,-12.012 6.286,-12.528 2.518,-1.6 7.127,0.407 7.127,3.104 0,1.41 -4.65,13.75 -10.334,27.42 -5.684,13.67 -10.762,26.805 -11.285,29.19 -0.964,4.389 0.86,7.29 14.763,23.473 l 3.854,4.486 2.622,-3.215 c 4.174,-5.117 17.374,-24.365 19.689,-28.711 2.425,-4.552 21.886,-33.37 32.974,-48.827 4.13,-5.757 7.514,-11.185 7.521,-12.06 0.007,-0.876 3.362,-6.26 7.455,-11.964 4.093,-5.704 10.89,-15.586 15.104,-21.96 4.214,-6.374 8.436,-11.568 9.381,-11.542 0.945,0.026 3.006,1.02 4.578,2.21 2.747,2.079 2.571,2.576 -4.486,12.746 -16.832,24.255 -26.475,38.532 -30.979,45.866 -2.628,4.28 -10.722,16.564 -17.987,27.297 -7.265,10.733 -12.984,20.017 -12.71,20.63 0.695,1.564 22.982,22.8 23.927,22.8 0.425,0 8.785,-7.755 18.577,-17.235 9.792,-9.48 18.743,-17.05 19.89,-16.823 1.147,0.226 2.76,1.483 3.584,2.793 1.214,1.928 -2.896,6.762 -21.62,25.422 -12.715,12.673 -24.207,24.724 -25.537,26.78 -2.272,3.51 -2.175,4.58 1.591,17.562 3.974,13.697 5.694,15.878 9.193,11.661 0.995,-1.199 9.994,-7.365 19.997,-13.701 17.65,-11.18 34.11,-22.075 52.583,-34.807 16.48,-11.358 28.337,-19.103 36.96,-24.143 4.702,-2.748 10.693,-6.826 13.313,-9.063 5.17,-4.412 8.14,-4.272 9.641,0.456 1.255,3.955 0.614,4.495 -24.024,20.218 -11.514,7.348 -25.953,17.156 -32.085,21.796 -6.132,4.64 -15.217,10.568 -20.188,13.174 -10.204,5.347 -24.741,15.943 -24.741,18.032 0,2.308 22.556,23.108 32.725,30.177 7.941,5.521 10.203,6.433 13.459,5.424 2.152,-0.667 7.95,-2.529 12.885,-4.137 4.935,-1.608 12.674,-3.773 17.198,-4.81 4.523,-1.038 11.176,-3.26 14.784,-4.935 6.407,-2.978 6.606,-2.983 8.619,-0.231 2.656,3.633 1.955,5.505 -2.565,6.845 -2.002,0.594 -15.417,5.213 -29.81,10.265 -14.394,5.053 -32.227,11.196 -39.63,13.652 -7.402,2.456 -14.262,5.276 -15.244,6.266 -1.386,1.397 -0.214,4.91 5.234,15.69 l 7.02,13.891 8.224,-0.917 c 4.524,-0.504 15.628,-1.887 24.675,-3.073 a 11479,11479 0 0 1 52.34,-6.738 c 6.58,-0.833 16.337,-2.123 21.684,-2.868 5.346,-0.744 17.291,-1.885 26.545,-2.535 l 16.825,-1.182 v 3.822 c -0.002,4.229 2.192,3.739 -43.37,9.684 -31.33,4.088 -40.376,5.542 -40.374,6.49 0.003,1.246 17.826,23.062 19.992,24.47 0.929,0.604 15.581,1.109 32.56,1.121 26.756,0.02 30.99,0.338 31.777,2.389 2.61,6.8 4.207,6.607 -54.808,6.607 h -55.716 l -3.896,10.094 c -3.951,10.238 -7.358,13.14 -9.963,8.485 M 305.106,367.755 c 5.28,-9.479 4.606,-10.868 -6.558,-13.53 -4.354,-1.037 -13.478,-3.63 -20.276,-5.76 -6.798,-2.13 -12.543,-3.603 -12.766,-3.272 -10.255,15.18 -11.84,18.51 -10.552,22.18 1.201,3.42 2.414,3.957 11.036,4.888 5.328,0.574 13.725,1.684 18.66,2.465 14.476,2.292 15.49,1.947 20.456,-6.97 m 337.464,2.824 c 11.02,-1.61 11.97,-2.223 9.525,-6.14 -0.997,-1.597 -1.82,-3.753 -1.828,-4.793 -0.033,-4.354 -7.433,-17.591 -9.833,-17.591 -1.38,0 -8.308,1.959 -15.397,4.353 -7.089,2.394 -15.244,4.815 -18.123,5.38 -2.878,0.566 -6.702,1.957 -8.496,3.092 l -3.263,2.065 3.033,8.63 c 1.668,4.748 3.672,9.027 4.453,9.51 1.278,0.79 11.77,-0.393 39.929,-4.506 m -399.171,-7.962 c 1.516,-3.496 4.857,-8.972 7.424,-12.17 5.21,-6.49 5.472,-7.383 2.797,-9.516 -1.79,-1.427 -50.067,-18.317 -52.355,-18.317 -0.61,0 -1.107,0.927 -1.107,2.06 0,2.074 -19.716,20.5 -30.463,28.47 -4.268,3.165 -5.25,4.588 -3.738,5.42 1.127,0.62 16.505,2.922 34.173,5.116 17.668,2.195 32.417,4.283 32.775,4.641 0.358,0.358 2.245,0.652 4.193,0.652 2.738,0 4.169,-1.444 6.3,-6.356 m 325.382,-8.599 c 0.508,-0.822 2.65,-1.495 4.759,-1.495 3.023,0 22.649,-5.875 37.71,-11.29 1.617,-0.58 1.303,-1.594 -1.377,-4.446 -3.92,-4.174 -27.437,-18.663 -30.27,-18.652 -1.018,0.004 -5.214,2.66 -9.327,5.903 -4.113,3.243 -10,7.4 -13.085,9.24 -6.85,4.087 -7.04,6.904 -1.05,15.61 4.489,6.524 10.317,8.89 12.64,5.13 m -271.078,-25.41 c 4.014,-6.985 7.43,-13.972 7.59,-15.527 0.19,-1.837 -1.54,-3.867 -4.941,-5.797 -2.879,-1.634 -7.926,-4.923 -11.216,-7.31 -3.29,-2.387 -14.73,-10.302 -25.422,-17.588 -10.692,-7.286 -21.058,-14.675 -23.034,-16.419 -4.219,-3.721 -7.623,-4.114 -7.623,-0.88 0,1.26 1.937,8.831 4.305,16.824 2.368,7.993 4.767,17.305 5.332,20.694 2.058,12.329 7.373,25.046 11.3,27.035 6.375,3.23 32.035,12.131 34.281,11.893 1.172,-0.124 5.414,-5.94 9.428,-12.925 m 339.239,3.61 c 6.103,-2.12 12.106,-4.255 13.34,-4.746 1.234,-0.49 5.554,-1.96 9.601,-3.266 4.047,-1.306 7.614,-3.14 7.927,-4.078 0.313,-0.938 -2.223,-3.958 -5.633,-6.712 -3.41,-2.755 -11.352,-9.59 -17.647,-15.19 -6.295,-5.6 -12.506,-10.777 -13.803,-11.504 -2.353,-1.318 -7.973,1.961 -25.308,14.768 -3.701,2.735 -8.244,5.561 -10.094,6.282 -5.345,2.08 -3.966,5.228 4.486,10.239 5.785,3.43 24.637,16.47 25.915,17.927 0.066,0.074 5.113,-1.6 11.216,-3.72 M 380.306,315.774 c 2.23,-5.334 2.219,-5.368 -5.003,-16.076 -3.98,-5.901 -9,-14.095 -11.154,-18.207 -2.154,-4.112 -5.93,-10.169 -8.389,-13.459 -2.459,-3.29 -7.862,-10.837 -12.006,-16.772 -4.466,-6.395 -8.292,-10.465 -9.393,-9.99 -2.668,1.15 -16.065,17.9 -16.065,20.086 0,1.896 56.714,59.608 58.675,59.708 0.606,0.03 2.107,-2.35 3.335,-5.29 m 186.95,-1.4 c 4.918,-3.692 9.447,-6.713 10.064,-6.713 1.758,0 17.63,-10.438 17.63,-11.593 0,-0.569 -1.417,-5.763 -3.15,-11.544 a 3200,3200 0 0 1 -3.691,-12.38 c -1.226,-4.225 -5.517,-0.94 -22.953,17.571 l -18.312,19.44 4.738,5.983 c 2.606,3.29 5.186,5.975 5.734,5.966 0.548,-0.009 5.02,-3.037 9.94,-6.73 m -66.471,-2.286 c 4.41,-5.568 19.886,-28.654 30.61,-45.66 2.467,-3.914 5.432,-8.568 6.588,-10.342 1.94,-2.977 1.574,-3.875 -4.727,-11.61 -3.756,-4.612 -7.52,-9.61 -8.365,-11.107 -2.24,-3.972 -3.379,-2.157 -12.832,20.457 -4.642,11.103 -9.179,21.87 -10.08,23.926 a 256,256 0 0 0 -2.83,6.73 c -0.655,1.645 -3.67,8.917 -6.7,16.16 -5.301,12.67 -5.405,13.25 -2.723,15.28 4.287,3.248 5.89,2.692 11.059,-3.834 m -159.41,-0.03 7.217,-4.577 -12.531,-13.173 c -6.892,-7.245 -13.164,-13.26 -13.938,-13.369 -2.496,-0.348 -23.255,10.964 -23.261,12.677 0,1.46 12.492,9.996 22.125,15.11 1.891,1.004 5.179,3.194 7.305,4.866 2.126,1.673 4.316,3.041 4.867,3.041 0.55,0 4.248,-2.059 8.217,-4.576 m 221.665,-33.405 c 17.55,-17.599 31.91,-32.589 31.91,-33.31 0,-2.58 -22.135,-23.281 -23.795,-22.255 -0.92,0.568 -2.635,3.338 -3.812,6.154 -1.177,2.816 -6.718,11.618 -12.315,19.56 -21.205,30.095 -26.034,37.348 -28.739,43.157 -1.532,3.29 -4.542,8.3 -6.69,11.132 -2.149,2.833 -3.907,5.693 -3.907,6.356 0,0.663 3.474,1.205 7.72,1.205 h 7.718 z m -63.97,-18.987 c 6.675,-15.704 12.136,-29.365 12.136,-30.357 0,-0.992 0.568,-2.442 1.262,-3.224 0.694,-0.781 3.17,-6.131 5.503,-11.888 2.332,-5.758 4.793,-11.108 5.467,-11.89 2.196,-2.542 1.328,-6.212 -5.368,-22.709 -3.627,-8.935 -7,-17.5 -7.495,-19.031 -0.736,-2.279 -1.305,-2.45 -3.125,-0.939 -1.224,1.016 -2.226,2.825 -2.226,4.021 0,2.069 -1.238,7.57 -12.725,56.53 -2.701,11.514 -5.354,24.569 -5.895,29.01 -0.541,4.441 -2.334,13.763 -3.985,20.716 -2.84,11.96 -2.864,12.794 -0.435,15.478 1.413,1.56 3.059,2.837 3.659,2.837 0.6,0 6.552,-12.849 13.227,-28.554 m -197.972,20.36 c 6.58,-3.619 11.964,-7.25 11.964,-8.068 0,-0.818 -6.55,-7.635 -14.555,-15.148 -12.916,-12.122 -17.597,-14.893 -17.597,-10.416 0,0.75 -3.028,6.486 -6.73,12.746 -3.7,6.26 -6.729,11.93 -6.729,12.598 0,0.67 3.313,3.342 7.362,5.94 4.05,2.599 8.17,5.697 9.156,6.886 2.577,3.105 3.843,2.77 17.13,-4.538 M 443.914,219.43 v -44.863 h -13.37 c -7.355,0 -13.725,0.571 -14.156,1.27 -0.432,0.698 1.208,12.642 3.643,26.543 2.435,13.901 5.489,32.004 6.786,40.229 3.27,20.741 3.753,21.683 11.083,21.683 h 6.014 z m -67.94,37.447 c 5.151,-2.434 9.758,-5.06 10.238,-5.836 0.937,-1.516 -8.462,-27.21 -11.946,-32.659 -1.158,-1.81 -4.298,-3.937 -6.979,-4.728 -2.681,-0.791 -12.938,-3.853 -22.793,-6.804 -9.856,-2.95 -18.756,-5.366 -19.778,-5.366 -2.93,0 0.215,6.694 8.02,17.066 3.769,5.007 11.833,16.675 17.92,25.928 6.611,10.047 12.053,16.824 13.512,16.824 1.343,0 6.656,-1.992 11.807,-4.425 m 102.33,-13.894 c 2.164,-5.109 7.39,-28.266 8.943,-39.63 0.758,-5.551 1.808,-11.532 2.332,-13.29 0.525,-1.757 0.39,-3.527 -0.298,-3.932 -1.146,-0.675 -17.67,3.883 -30.413,8.39 l -5.234,1.85 -0.416,21.506 c -0.238,12.275 0.196,22.12 1.011,22.934 1.118,1.118 12.64,3.99 21.495,5.358 0.634,0.098 1.795,-1.336 2.58,-3.186 m -63.304,-13.46 c -2.14,-8.733 -8.435,-47.988 -9.352,-58.32 -0.746,-8.408 -1.599,-11.59 -3.107,-11.59 -1.705,0 -13.627,7.422 -29.403,18.305 -2.595,1.79 -2.418,2.717 3.502,18.334 3.43,9.047 7.52,19.3 9.089,22.787 1.569,3.487 2.854,6.972 2.854,7.745 0,4.189 5.011,6.104 15.97,6.104 10.937,0 11.247,-0.1 10.447,-3.364 m -47.416,-27.665 c -0.264,-4.664 -4.942,-19.36 -11.9,-37.377 -9.493,-24.58 -8.172,-23.72 -27.155,-17.695 -6.278,1.993 -16.869,5.095 -23.534,6.893 -6.666,1.799 -12.12,3.714 -12.12,4.256 0,0.984 5.164,8.495 14.87,21.629 5.755,7.789 10.07,9.827 35.227,16.642 8.225,2.228 16.3,4.618 17.945,5.311 3.844,1.62 6.747,1.768 6.667,0.341 m 106.346,-22.24 c 10.222,-2.978 18.797,-5.6 19.055,-5.828 0.38,-0.332 9.837,-40.632 13.163,-56.083 0.896,-4.163 2.635,-3.145 -24.1,-14.103 -18.716,-7.67 -20.578,-8.46 -23.615,-10.015 -1.472,-0.755 -3.323,-0.973 -4.112,-0.485 -1.77,1.093 -1.972,91.93 -0.205,91.93 0.676,0 9.593,-2.436 19.814,-5.415 m 36.554,-80.944 c 0.455,-2.262 1.413,-6.131 2.13,-8.599 2.46,-8.48 4.912,-20.35 4.325,-20.937 -0.323,-0.323 -6.287,3.709 -13.253,8.96 -15.248,11.495 -17.9,13.805 -17.9,15.585 0,1.507 17.174,8.741 21.281,8.963 1.68,0.091 2.88,-1.304 3.417,-3.972"
     style="fill:#000000;stroke-width:1.49543"
     id="path2" /></svg>
