<?xml version="1.0" encoding="UTF-8" standalone="no"?>
<svg
   xml:space="preserve"
   width="872"
   height="889"
   viewBox="0 0 872 889"
   version="1.1"
   id="svg1"
   sodipodi:docname="chosen.svg"
   inkscape:version="1.4.2 (f4327f4, 2025-05-13)"
   xmlns:inkscape="http://www.inkscape.org/namespaces/inkscape"
   xmlns:sodipodi="http://sodipodi.sourceforge.net/DTD/sodipodi-0.dtd"
   xmlns="http://www.w3.org/2000/svg"
   xmlns:svg="http://www.w3.org/2000/svg"><defs
     id="defs1" /><sodipodi:namedview
     id="namedview1"
     pagecolor="#ffffff"
     bordercolor="#000000"
     borderopacity="0.25"
     inkscape:showpageshadow="2"
     inkscape:pageopacity="0.0"
     inkscape:pagecheckerboard="0"
     inkscape:deskcolor="#d1d1d1"
     inkscape:zoom="1.3127109"
     inkscape:cx="436.12039"
     inkscape:cy="444.5"
     inkscape:window-width="3440"
     inkscape:window-height="1369"
     inkscape:window-x="1737"
     inkscape:window-y="1432"
     inkscape:window-maximized="1"
     inkscape:current-layer="svg1" /><path
     d="M412.308 822.796c-35.761-2.806-79.637-12.609-107.904-24.109l-13.2-5.37 10.264-11.734c5.646-6.454 13.828-13.658 18.183-16.01 8.893-4.802 16.566-19.803 21.217-41.477 1.764-8.223 5.212-15.563 9.45-20.12 4.87-5.235 6.674-9.562 6.674-16.012 0-4.861 1.732-16.455 3.85-25.763 5.425-23.854 3.664-125.142-2.324-133.692-5.707-8.147-4.773-12.63 3.44-16.52 6.632-3.14 9.677-2.97 32.366 1.817 13.775 2.906 29.017 5.91 33.872 6.677l8.827 1.395v151.717c0 83.444-.265 151.566-.588 151.382-.324-.184-11.181-1.166-24.127-2.181M453.5 673.15V522.038l6.473-1.286c3.56-.708 13.358-2.448 21.773-3.867s20.13-3.985 26.034-5.702c8.803-2.56 12.032-2.576 17.96-.084 10.04 4.222 11.44 7.655 6.084 14.908-4.167 5.641-4.779 11.872-6.29 64.02-1.165 40.236-.885 59.843.924 64.6 1.429 3.757 3.605 14.776 4.836 24.487 1.7 13.416 3.596 19.1 7.892 23.67 3.473 3.693 6.761 11.457 8.526 20.131 4.24 20.836 14.302 38.085 26.868 46.054 11.857 7.52 23.526 23.476 19.26 26.337-5.612 3.765-46.705 15.9-69.728 20.592-13.285 2.707-34.607 5.696-47.383 6.643l-23.229 1.722zm110.755 53.887c-6.532-23.52.199-47.062 20.91-73.145 5.475-6.893 11.455-16.127 13.29-20.52 4.628-11.075 4.393-26.713-.429-28.563-2.072-.795-14.518.837-27.658 3.628-29.258 6.213-29.775 6.214-29.775.067 0-3.3 1.11-4.533 3.317-3.687 1.824.7 12.152-.881 22.95-3.515 18.838-4.594 34.354-4.799 45.209-.596 3.66 1.418 4.13.877 2.82-3.249-2.7-8.507-1.62-31.686 2.107-45.194 6.231-22.584 4.593-34.319-6.492-46.488-8.953-9.83-15.917-7.149-27.511 10.592-10.041 15.365-36.24 42.958-40.787 42.958-1.236 0-1.629-3.7-.881-8.305.917-5.651 5.568-12.97 14.553-22.898 26.475-29.256 40.447-68.855 38.306-108.57-3.825-70.947-57.703-129.933-127.766-139.88-10.964-1.556-11.788-2.146-12.45-8.914l-.709-7.247 15.285 2.048c8.407 1.126 21.313 4.122 28.682 6.657l13.397 4.609-1.193-16.674c-1.46-20.391-5.014-25.814-25.47-38.853-21.11-13.457-30.46-22.746-30.46-30.263 0-11.326 20.782-25.146 42.37-28.177 26.383-3.705 40.015-6.762 40.015-8.974 0-8.044-12.281-20.144-36.232-35.696C470.25 99.097 453.5 82.241 453.5 71.746c0-8.591 1.325-8.486 5.957.472 6.727 13.007 20.197 25.593 40.546 37.885 23.373 14.118 34.759 23.59 39.594 32.94 1.909 3.69 4.672 6.711 6.14 6.711 1.47 0 9-6.328 16.734-14.063l14.064-14.064-1.522 12.953c-2.632 22.389-1.782 23.436 19.245 23.719 10.353.139 26.113 2.397 36.746 5.265 10.24 2.762 24.839 5.021 32.44 5.021 14.362 0 37.425-6.462 50.746-14.218 9.172-5.34 9.311-4.755 1.888 7.914-6.876 11.735-13.07 34.208-13.066 47.403.002 5.23 2.729 20.631 6.06 34.225 5.888 24.027 6.74 44.218 2.306 54.583-2.204 5.153 9.54 7.59 29.585 6.14l14.254-1.03-13.158 11.54c-7.236 6.348-13.157 12.676-13.157 14.063s4.19 6.108 9.311 10.492 14.335 16.415 20.474 26.737c6.14 10.321 14.337 22.616 18.216 27.322 9.422 11.43 31.745 25.58 46.2 29.286 6.447 1.652 11.722 3.757 11.722 4.678s-5.295 2.944-11.766 4.497c-25.86 6.203-41.773 20.845-69.076 63.555-5.469 8.554-14.678 18.905-20.887 23.478-10.874 8.008-11.03 8.302-7.476 14.123 1.996 3.27 8.583 10.565 14.636 16.212l11.007 10.267-11.937-1.465c-6.565-.806-15.1-.833-18.966-.06-6.949 1.39-7.02 1.56-6.13 14.737.606 8.997-1.071 21.368-5.158 38.047-3.331 13.593-6.058 28.995-6.06 34.225-.005 13.195 6.19 35.667 13.066 47.402 3.169 5.41 5.762 10.388 5.762 11.065s-8.045-2.59-17.878-7.26c-24.619-11.691-42.54-12.73-76.607-4.436-27.14 6.606-38.187 7.445-48.154 3.655-3.798-1.444-7.285-1.577-8.536-.325-1.164 1.163-2.097 10.736-2.074 21.272s-.391 19.156-.921 19.156-2.067-3.972-3.415-8.827m65.785-44.054c19.744-5.4 49.61-5.616 63.238-.457l10.277 3.891-1.5-6.465c-6.723-28.959-6.888-36.794-1.326-63.052 6.274-29.619 8.04-47.972 5.046-52.453-2.854-4.273-16.284 1.439-32.13 13.663-15.369 11.857-30.71 18.76-41.84 18.825-10.226.06-10.425.67-4.078 12.513l4.75 8.862-9.364-4.777c-5.15-2.627-10.29-4.777-11.425-4.777-1.134 0-2.228 4.254-2.432 9.454-.51 12.999-4.562 21.454-21.308 44.46-15.31 21.03-16.064 22.652-11.459 24.643 5.684 2.457 38.412-.19 53.55-4.33m18.112-97.18c4.137-2.264 14.91-9.233 23.943-15.487 15.95-11.043 39.466-20.406 51.251-20.406h5.795l-5.735-7.65c-10.755-14.345-15.64-27.363-19.225-51.229-3.868-25.752-6.783-33.317-16.248-42.16l-6.109-5.706-6.217 5.707c-3.42 3.138-10.838 12.782-16.484 21.43-11.875 18.185-19.04 24.485-31.745 27.905-5.01 1.35-9.108 2.826-9.108 3.282s2.095 5.447 4.656 11.09c5.574 12.284 5.885 22.336 1.229 39.684-1.911 7.12-3.488 18.508-3.503 25.304l-.028 12.358 10.004-.005c5.502-.002 13.388-1.856 17.524-4.12zm83.2-74.144c5.968-4.621 14.968-16.037 22.731-28.834 15.743-25.95 28.55-39.58 45.153-48.056l12.664-6.465-12.664-7.234c-17.017-9.721-31.843-25.828-46.619-50.644-10.347-17.378-23.796-32.364-29.045-32.364-2.137 0-8.321 20.89-11.15 37.662-3.733 22.134-6.676 30-14.6 39.026-5.08 5.784-6.159 8.335-3.87 9.143 1.745.617 6.35 2.328 10.234 3.802l7.062 2.68-11.301 3.38-11.3 3.382 6.36 7.543c8.668 10.28 12.147 19.379 15.184 39.708 3.372 22.578 6.625 34.921 9.203 34.921 1.144 0 6.525-3.442 11.959-7.65m-95.672-25.153c4.76-2.942 11.493-10.723 15.817-18.281 7.678-13.42 23.027-30.794 31.504-35.66l4.708-2.702-4.708-2.72c-7.865-4.543-21.778-20.144-28.524-31.986-9.114-16-17.102-23.898-26.68-26.38-7.602-1.97-21.076-3.306-27.306-2.707-1.546.149-.486 7.986 2.82 20.835 7.258 28.205 7.157 52.473-.34 82.029-3.237 12.759-5.886 23.632-5.886 24.163 0 3.218 31.398-2.143 38.595-6.59m55.482-76.063c7.36-7.797 14.201-25.74 14.201-37.252 0-11.631 9.421-37.13 17.75-48.042 8.798-11.525 8.724-11.669-7.091-13.892-11.863-1.668-28.192-10.126-45.987-23.818-14.752-11.352-29.113-17.639-40.291-17.639-6.623 0-6.766.272-6.766 12.8 0 7.04 1.643 19.886 3.652 28.547 3.973 17.134 3.056 26.178-3.88 38.23-5.462 9.491-5.481 9.87-.515 9.87 10.603 0 24.374 10.02 33.093 24.078 7.654 12.342 25.62 34.768 27.854 34.768.417 0 4.008-3.442 7.98-7.65m-79.45-57.676c2.22-1.932 5.824-8.197 8.011-13.923 3.75-9.819 3.738-11.452-.205-28.716-2.695-11.8-3.845-24.245-3.236-35.02l.945-16.716-15.367 1.252c-10.26.836-20.174-.007-29.83-2.534-24.808-6.495-37.351-4.896-49.68 6.333-6.877 6.265-7.128 17.228-.442 19.35 6.803 2.16 34.508 23.457 43.893 33.743 4.305 4.72 12.658 16.097 18.561 25.284 9.623 14.976 11.384 16.588 17.025 15.581 3.46-.617 8.106-2.703 10.325-4.634m93.916-61.194c3.112-8.05 1.727-22.939-5.08-54.637-4.68-21.792-4.982-26.532-2.621-41.192 1.467-9.112 3.311-18.861 4.098-21.665 1.415-5.047 1.328-5.061-8.797-1.473-13.536 4.798-46.374 4.52-63.188-.534-15.946-4.793-46.592-7.269-49.835-4.026-2.865 2.865 1.113 11.03 15.41 31.626 13.368 19.26 17.028 26.75 19.068 39.028 1.487 8.946 2.253 9.918 6.751 8.562 2.791-.841 6.081-2.47 7.31-3.619 5.159-4.82 5.781-1.467 1.343 7.233-6.027 11.814-6.02 11.86 1.718 11.876 11.225.023 23.422 4.55 35.147 13.043 18.328 13.279 32.13 22.252 34.222 22.252 1.074 0 3.078-2.913 4.454-6.474M527.578 250.7c10.254-6.05 24.932-6.424 45.132-1.15 7.954 2.076 18.812 3.775 24.127 3.775h9.664v-10.686c0-12.144-5.564-24.43-19.306-42.631-9.842-13.036-18.356-32.445-18.356-41.847 0-11.962-2.135-13.512-10.234-7.427-11.583 8.701-29.192 14.907-50.63 17.843-10.82 1.482-22.472 3.908-25.893 5.392-9.232 4.002-21.52 13.606-21.52 16.818 0 3.962 10.68 13.413 26.18 23.167 17.587 11.067 25.235 19.634 28.319 31.721 1.404 5.502 2.895 10.004 3.315 10.004s4.56-2.24 9.202-4.98M314.26 714.802l.865-19.052-12.62 1.483c-9.481 1.114-18.956-.044-38.101-4.658-14.015-3.377-31.587-6.14-39.048-6.14-14.112 0-35.422 6.133-48.864 14.064-4.295 2.534-7.809 4.078-7.809 3.432s2.733-6.568 6.072-13.159c13.155-25.96 14.271-46.98 4.481-84.369-2.869-10.958-3.674-20.782-2.839-34.615l1.168-19.315-10.51-1.576c-5.78-.867-15.415-.903-21.413-.081l-10.904 1.494 13.442-11.98c7.393-6.59 13.401-13.22 13.352-14.735s-4.021-5.502-8.827-8.861c-5.432-3.797-14.05-14.763-22.78-28.987-7.722-12.584-19.122-27.633-25.333-33.442-11.68-10.926-30.297-20.966-43.577-23.501-7.682-1.466-8.465-5.646-1.059-5.65 6.457-.002 33.693-13.787 43.937-22.236 5.22-4.305 15.289-17.544 22.42-29.478 11.803-19.75 27.325-37.245 38.875-43.814 4.114-2.34 3.22-3.842-10.72-18.031l-15.208-15.48 18.242 1.303 18.243 1.302.028-18.578c.016-10.219 1.601-24.405 3.524-31.525 9.861-36.51 8.823-55.826-4.471-83.203-4.183-8.613-7.336-15.66-7.008-15.66s4.17 2.11 8.54 4.687c13.567 8.005 34.834 14.144 48.998 14.144 7.461 0 25.038-2.785 39.058-6.19 22.195-5.39 27.32-5.886 39.616-3.838 7.768 1.294 14.918 1.898 15.889 1.343.97-.554 1.765-9.998 1.765-20.987v-19.978l13.01 13.644 13.008 13.645 4.057-5.88c6.746-9.78 14.874-16.402 35.704-29.09 22.3-13.582 32.836-23.143 42.776-38.817l6.784-10.697v7.17c0 14.144-15.264 29.775-49.805 51.002-18.363 11.285-33.77 26.012-31.335 29.952 1.718 2.78 20.992 8.011 42.718 11.594 11.014 1.816 20.68 5.188 27.78 9.69l10.886 6.904-.71 12.332-.71 12.332-21.005 14.123c-26.742 17.982-30.285 22.782-31.557 42.761-.925 14.532-.683 15.52 3.421 13.937 5.576-2.152 29.832-7.54 41.63-9.249 8.896-1.287 8.96-1.238 8.238 6.227-.693 7.162-1.308 7.596-12.763 8.994-31.582 3.855-59.334 18.049-84.506 43.22-21.167 21.167-31.245 38.051-38.64 64.735-9.18 33.13-5.217 77.268 9.59 106.783 6.604 13.165 22.21 34.307 30.723 41.62 5.883 5.054 6.827 7.391 6.182 15.3l-.76 9.336-14.85-14.025c-8.168-7.714-19.7-21.805-25.626-31.314-9.971-15.998-11.317-17.235-18.029-16.575-5.21.512-8.786 2.996-12.692 8.812-8.196 12.204-8.81 18.113-4.16 40.064 4.142 19.545 4.79 32.542 2.246 45.021l-1.242 6.091 12.872-2.333c10.083-1.828 16.351-1.502 28.937 1.504 8.837 2.11 20.568 4.526 26.07 5.37 6.164.944 10.004 2.773 10.004 4.763 0 4.583-11.885 4.027-32.795-1.533-19.194-5.105-27.77-5.726-33.038-2.395-6.756 4.273.353 25.56 16.427 49.19 14.446 21.235 21.16 37.225 21.16 50.394 0 5.202.884 6.6 3.53 5.585 6.436-2.47 3.886 7.595-4.144 16.357l-7.675 8.375zm-4.345-29.638c0-5.235-7.767-19.615-16.477-30.507-10.5-13.128-15.75-24.144-17.697-37.128-1.838-12.254-2.087-12.433-10.55-7.595-9.11 5.208-9.885 4.264-4.755-5.79 2.615-5.128 4.755-9.894 4.755-10.593 0-.7-4.27-1.271-9.49-1.271-12.39 0-21.897-4.144-38.943-16.975-7.67-5.773-17.431-12.514-21.694-14.98-6.749-3.907-8.035-4.033-9.967-.977-4.91 7.765-3.899 22.042 3.912 55.294 6.541 27.842 6.526 42.979-.062 61.65l-3.464 9.82 10.653-3.206c21.314-6.415 37.973-6.521 60.817-.39 25.466 6.837 52.962 8.21 52.962 2.648m-42.398-111.126c-.016-6.15-1.591-17.007-3.503-24.127-4.996-18.615-4.392-30.171 2.177-41.66l5.651-9.883-11.153-3.705c-12.4-4.119-22.205-13.394-31.58-29.873-8.44-14.835-17.699-25.51-22.125-25.51-3.52 0-6.254 2.628-13.703 13.178-1.918 2.717-6.012 17.114-9.098 31.994-5.827 28.102-11.495 42.281-19.957 49.935-2.727 2.466-4.958 5.242-4.958 6.17s5.245 2.381 11.655 3.232c13.974 1.853 33.048 11.51 51.739 26.195 14.776 11.609 22.227 14.715 36.056 15.032l8.827.202zm-96.846-63.104c1.51-3.312 4.243-15.229 6.074-26.481 3.892-23.911 6.605-31.764 14.592-42.235 6.807-8.925 6.016-11.364-4.438-13.682-8.248-1.829-7.9-2.16 8.508-8.085l6.716-2.425-8.197-9.074c-9.703-10.74-12.371-18.274-15.9-44.898-3.339-25.18-5.346-29.35-12.384-25.733-9.703 4.987-18.452 14.993-30.646 35.05-14.098 23.186-31.744 41.67-45.86 48.036-10.913 4.921-12.266 7.388-5.268 9.61 2.547.808 10.821 6.026 18.387 11.596 10.916 8.036 17.467 15.906 31.728 38.116 15.204 23.68 26.185 35.877 32.557 36.165.763.034 2.622-2.648 4.131-5.96m120.387-21.635c-.014-.971-1.552-6.798-3.419-12.949-9.626-31.723-9.218-70.648 1.046-99.875 5.168-14.717 3.987-15.651-15.74-12.44-17.077 2.779-22.915 7.08-35.293 26.002-5.436 8.311-15.365 20.079-22.063 26.15l-12.178 11.04 7.267 4.419c8.593 5.225 18.946 17.792 28.694 34.83 7.48 13.073 15.357 19.621 26.947 22.4 9.7 2.327 24.77 2.584 24.74.423m-61.175-101.59c13.239-19.877 26.36-30.778 37.074-30.803 6.45-.014 6.463-.265.588-11.781-5.628-11.033-6.057-27.162-1.151-43.332 1.928-6.355 3.505-17.36 3.505-24.455v-12.9l-11.608 1.375c-12.781 1.513-23.168 6.545-42.122 20.403-13.139 9.607-36.704 18.893-47.943 18.893-7.397 0-8.441 2.607-2.89 7.214 8.428 6.995 16.323 27.585 19.796 51.633 3.153 21.825 6.972 32.656 14.564 41.302 6.634 7.556 7.715 8.005 12.258 5.087 2.74-1.76 10.809-11.946 17.93-22.637m75.416-46.704c9.727-17.315 37.108-44.133 55.877-54.727 19.567-11.044 19.704-18.97.524-30.386-9.944-5.919-22.826-6.279-40.177-1.122-8.663 2.575-18.166 3.456-29.473 2.732l-16.688-1.068 1.068 16.687c.724 11.308-.157 20.81-2.731 29.473-5.42 18.236-4.84 29.75 2.093 41.58 4.282 7.308 7.659 10.281 12.358 10.883 8.743 1.12 8.527 1.297 17.15-14.052m-106.51-52.384c4.803-2.595 15.43-9.452 23.616-15.237 15.066-10.647 26.848-15.315 38.715-15.339l6.52-.014-4.803-9.415c-5.177-10.148-4.415-11.1 4.708-5.885 9.315 5.325 11.126 4.256 12.907-7.62 2.09-13.94 4.909-19.384 21.217-40.983 17.49-23.165 16.919-26.496-4.7-27.44-11.98-.523-20.921.68-32.757 4.407-20.182 6.356-51.553 6.94-67.061 1.246-5.704-2.094-10.689-3.49-11.077-3.101-.388.388.943 5.43 2.957 11.206 6.581 18.867 6.571 34.19-.04 61.108-6.143 25.01-7.395 33.588-6.615 45.312.52 7.822 4.413 8.238 16.413 1.754zm186.933-59.406c2.486-3.55 11.603-10.608 20.26-15.682 8.658-5.075 18.845-12.49 22.64-16.479l6.898-7.252-5.722-6.106c-7.8-8.325-18.635-12.577-41.817-16.411-20.577-3.404-42.75-12.137-51.368-20.233l-5.092-4.783-2.833 13.746c-3.529 17.12-6.79 23.543-22.733 44.777-13.155 17.52-20.498 34.214-19.17 43.583 1.009 7.116 12.085 8.168 33.557 3.188 21.885-5.075 33.69-4.598 44.888 1.815l9.416 5.392 3.278-9.55c1.803-5.252 5.312-12.455 7.798-16.005m36.938 280.088c-20.616-13.66-26.541-52.18-15.302-99.478 3.38-14.224 11.172-40.621 17.316-58.661l11.172-32.8.67 26.828c.622 24.862.025 29.161-8.15 58.692-10.268 37.096-11.563 58.166-4.673 76.026 2.379 6.164 6.35 12.292 8.827 13.618 3.272 1.75 4.503 4.96 4.503 11.742 0 10.964-2.742 11.733-14.363 4.033m30.84-4.568c0-7.582 1.184-10.924 4.635-13.079 2.63-1.643 6.324-8.706 8.542-16.338 5.057-17.393 3.43-38.876-5.315-70.17-5.376-19.24-6.692-29.127-7.203-54.139-.575-28.16-.357-29.998 2.73-23.055 5.965 13.409 24.605 75.479 28.624 95.313 9.002 44.428-2.275 82.42-26.717 90.008-4.93 1.531-5.296.94-5.296-8.54"
     style="fill:#000;stroke-width:2.35386"
     id="path1" /></svg>
