<?xml version="1.0" encoding="UTF-8" standalone="no"?>
<!-- Created with Inkscape (http://www.inkscape.org/) -->

<svg
   version="1.1"
   id="svg1"
   width="872"
   height="889"
   viewBox="0 0 872 889"
   sodipodi:docname="chosen.svg"
   inkscape:version="1.4.2 (f4327f4, 2025-05-13)"
   xml:space="preserve"
   xmlns:inkscape="http://www.inkscape.org/namespaces/inkscape"
   xmlns:sodipodi="http://sodipodi.sourceforge.net/DTD/sodipodi-0.dtd"
   xmlns="http://www.w3.org/2000/svg"
   xmlns:svg="http://www.w3.org/2000/svg"><defs
     id="defs1" /><sodipodi:namedview
     id="namedview1"
     pagecolor="#ffffff"
     bordercolor="#000000"
     borderopacity="0.25"
     inkscape:showpageshadow="2"
     inkscape:pageopacity="0.0"
     inkscape:pagecheckerboard="true"
     inkscape:deskcolor="#d1d1d1"
     inkscape:zoom="0.92822679"
     inkscape:cx="-63.562053"
     inkscape:cy="244.01364"
     inkscape:window-width="3440"
     inkscape:window-height="1369"
     inkscape:window-x="-8"
     inkscape:window-y="-8"
     inkscape:window-maximized="1"
     inkscape:current-layer="g1" /><g
     inkscape:groupmode="layer"
     inkscape:label="Image"
     id="g1"><circle
       style="fill:none;stroke:#000000;stroke-width:18;stroke-dasharray:none;stroke-opacity:1"
       id="path2"
       cx="438.49911"
       cy="448.88046"
       r="417.83762" /><path
       style="fill:#000000;stroke-width:2.35386"
       d="m 412.30753,822.79551 c -35.76063,-2.80517 -79.63606,-12.60804 -107.90304,-24.1083 l -13.2005,-5.37054 10.26434,-11.73366 c 5.64538,-6.45352 13.82741,-13.65786 18.18229,-16.00966 8.89354,-4.80278 16.56658,-19.80294 21.21688,-41.47725 1.76439,-8.22346 5.21209,-15.56316 9.45101,-20.11987 4.87013,-5.23525 6.67333,-9.56194 6.67333,-16.01234 0,-4.86128 1.73216,-16.45446 3.84926,-25.76259 5.42547,-23.85401 3.66511,-125.14186 -2.32356,-133.69188 -5.70644,-8.14706 -4.77275,-12.62968 3.44082,-16.51955 6.63179,-3.14078 9.67619,-2.96994 32.36558,1.81629 13.77485,2.90572 29.01731,5.91048 33.87215,6.67726 l 8.82697,1.39412 v 151.71724 c 0,83.44449 -0.26481,151.5665 -0.58847,151.38222 -0.32365,-0.18431 -11.18083,-1.16597 -24.12706,-2.18149 z M 453.50007,673.15077 V 522.03826 l 6.47312,-1.28671 c 3.5602,-0.70769 13.35814,-2.44757 21.77319,-3.86641 8.41505,-1.41881 20.13004,-3.98475 26.03333,-5.70208 8.80318,-2.56095 12.03274,-2.57602 17.95982,-0.0838 10.03983,4.22141 11.44122,7.6552 6.08436,14.90805 -4.16643,5.6411 -4.77855,11.87195 -6.28916,64.01928 -1.16558,40.23672 -0.88531,59.84303 0.92351,64.60055 1.42835,3.75686 3.60438,14.77599 4.8356,24.48695 1.70093,13.41565 3.59642,19.10045 7.89198,23.66916 3.47309,3.69391 6.76131,11.45814 8.5262,20.1322 4.23938,20.83584 14.30244,38.08443 26.86821,46.0534 11.85717,7.51959 23.52615,23.47576 19.26053,26.33683 -5.61306,3.76483 -46.70565,15.89997 -69.72917,20.59187 -13.28415,2.70713 -34.60616,5.6969 -47.38225,6.64393 l -23.22927,1.72178 z m 110.75515,53.88765 c -6.53184,-23.52009 0.19843,-47.06271 20.91058,-73.14506 5.47394,-6.89328 11.45446,-16.12757 13.29003,-20.52067 4.6271,-11.0742 4.39182,-26.71268 -0.4297,-28.56286 -2.07187,-0.79506 -14.51789,0.83753 -27.65784,3.62796 -29.25859,6.21344 -29.77543,6.21461 -29.77543,0.0673 0,-3.29936 1.11037,-4.53346 3.31701,-3.68671 1.82436,0.70009 12.15192,-0.88182 22.95013,-3.51532 18.83767,-4.59419 34.35406,-4.79865 45.20874,-0.59572 3.66056,1.41738 4.12961,0.87696 2.82008,-3.24896 -2.70006,-8.5072 -1.61915,-31.68647 2.10756,-45.19408 6.23095,-22.58431 4.59217,-34.3191 -6.49221,-46.48871 -8.9532,-9.82981 -15.91752,-7.14841 -27.51113,10.59237 -10.04139,15.36552 -36.23954,42.95793 -40.78727,42.95793 -1.2361,0 -1.62858,-3.69924 -0.88114,-8.30517 0.91699,-5.65078 5.56841,-12.96914 14.55339,-22.89788 26.47541,-29.25627 40.4467,-68.85522 38.30577,-108.57043 -3.82451,-70.94614 -57.70288,-129.93258 -127.76548,-139.8786 -10.96414,-1.55647 -11.78822,-2.14651 -12.45013,-8.9144 l -0.7088,-7.2476 15.28472,2.04786 c 8.40658,1.12632 21.3133,4.12201 28.68161,6.65706 l 13.39692,4.60921 -1.19303,-16.67384 c -1.45897,-20.39118 -5.0139,-25.81423 -25.46923,-38.85339 -21.11016,-13.45656 -30.4603,-22.74616 -30.4603,-30.26303 0,-11.32556 20.78163,-25.14609 42.36946,-28.17717 26.38361,-3.70443 40.01561,-6.76141 40.01561,-8.97357 0,-8.04427 -12.28109,-20.1436 -36.23203,-35.69574 -29.40267,-19.092123 -46.15304,-35.947944 -46.15304,-46.443567 0,-8.590832 1.32506,-8.48585 5.95736,0.47202 6.72655,13.007685 20.19635,25.593656 40.54579,37.885297 23.37309,14.11802 34.75882,23.59026 39.59339,32.93926 1.90906,3.6917 4.67251,6.71218 6.14104,6.71218 1.46852,0 8.99865,-6.32864 16.73365,-14.06363 l 14.06363,-14.06362 -1.52234,12.95259 c -2.63135,22.38881 -1.78154,23.43611 19.24582,23.71878 10.35224,0.13912 26.113,2.39746 36.74609,5.26521 10.24041,2.76186 24.83835,5.02154 32.43983,5.02154 14.36129,0 37.42475,-6.46193 50.74565,-14.21793 9.17176,-5.34019 9.31121,-4.75561 1.88779,7.91413 -6.87557,11.73474 -13.06981,34.20765 -13.06559,47.40242 0.002,5.23013 2.72852,20.63134 6.05966,34.22487 5.88794,24.02724 6.74105,44.21796 2.30631,54.58367 -2.20439,5.1525 9.53946,7.58974 29.58471,6.1398 l 14.25394,-1.03103 -13.15761,11.5413 c -7.23667,6.34772 -13.15759,12.676 -13.15759,14.06285 0,1.38684 4.19015,6.10815 9.31147,10.49181 5.12131,4.38363 14.3348,16.41508 20.47443,26.73649 6.13964,10.32144 14.33648,22.61629 18.21524,27.32189 9.42272,11.4314 31.74483,25.58124 46.20026,29.28605 6.44724,1.65239 11.72226,3.75765 11.72226,4.67842 0,0.92073 -5.29499,2.94431 -11.76661,4.49685 -25.85922,6.20353 -41.77243,20.84484 -69.07598,63.55484 -5.46869,8.55452 -14.67718,18.90577 -20.8864,23.4784 -10.87405,8.00793 -11.02981,8.30215 -7.47607,14.12315 1.99612,3.26966 8.58241,10.56496 14.6362,16.21174 l 11.00686,10.26693 -11.93715,-1.46524 c -6.56544,-0.80584 -15.10029,-0.83255 -18.96634,-0.0593 -6.94861,1.38972 -7.0189,1.55868 -6.13027,14.7369 0.60664,8.99628 -1.07045,21.36762 -5.15766,38.04657 -3.33114,13.59354 -6.05796,28.99475 -6.05966,34.22488 -0.005,13.19478 6.19002,35.66768 13.06559,47.40242 3.16924,5.40903 5.76225,10.38819 5.76225,11.06481 0,0.67662 -8.04528,-2.59047 -17.87838,-7.26019 -24.61832,-11.69118 -42.53974,-12.72897 -76.60706,-4.43612 -27.13863,6.60625 -38.1865,7.44498 -48.15311,3.65566 -3.79894,-1.44434 -7.28519,-1.57731 -8.53691,-0.3256 -1.16363,1.16363 -2.09677,10.73614 -2.0736,21.2722 0.0236,10.53606 -0.39135,19.15649 -0.92114,19.15649 -0.52978,0 -2.06633,-3.97215 -3.4146,-8.82698 z m 65.78429,-44.05469 c 19.74438,-5.40026 49.61069,-5.61581 63.2386,-0.45638 l 10.27673,3.89071 -1.50072,-6.46497 c -6.72222,-28.95861 -6.88688,-36.79454 -1.32487,-63.05176 6.27412,-29.61894 8.0397,-47.97279 5.04584,-52.45359 -2.85459,-4.27241 -16.28458,1.43877 -32.13032,13.66366 -15.36841,11.85666 -30.71063,18.75943 -41.83986,18.82461 -10.22609,0.0598 -10.42506,0.6705 -4.07767,12.51338 l 4.74929,8.86114 -9.36325,-4.77676 c -5.14977,-2.62722 -10.29103,-4.77678 -11.425,-4.77678 -1.13396,0 -2.22844,4.25434 -2.43219,9.45412 -0.50935,12.99866 -4.56166,21.45364 -21.30859,44.45929 -15.30969,21.03126 -16.06366,22.65283 -11.45828,24.64338 5.68418,2.45682 38.41179,-0.18949 53.55029,-4.33005 z m 18.11287,-97.18051 c 4.13628,-2.26359 14.91043,-9.23221 23.94255,-15.48583 15.95064,-11.04385 39.46572,-20.40687 51.25154,-20.40687 h 5.7947 l -5.73557,-7.65005 c -10.75451,-14.3442 -15.63964,-27.36197 -19.22428,-51.22817 -3.8679,-25.75204 -6.78354,-33.31713 -16.24862,-42.15957 l -6.10828,-5.7065 -6.21754,5.7065 c -3.41967,3.13857 -10.83755,12.782 -16.48419,21.42985 -11.87428,18.18542 -19.04035,24.48496 -31.74434,27.90578 -5.00948,1.34892 -9.10813,2.82569 -9.10813,3.28172 0,0.45603 2.09521,5.44657 4.65602,11.09011 5.57382,12.2836 5.88505,22.3361 1.22862,39.68419 -1.91119,7.12042 -3.48748,18.50721 -3.50284,25.30399 l -0.028,12.35775 10.00389,-0.005 c 5.50215,-0.002 13.38814,-1.85569 17.52442,-4.11926 z m 83.20036,-74.14291 c 5.96759,-4.62131 14.96683,-16.03734 22.73037,-28.83478 15.74265,-25.95017 28.54897,-39.57977 45.15258,-48.05528 l 12.66451,-6.46476 -12.66451,-7.23487 c -17.01624,-9.72087 -31.84303,-25.82775 -46.6184,-50.6432 -10.34738,-17.3786 -23.79606,-32.36423 -29.04487,-32.36423 -2.13703,0 -8.32186,20.89008 -11.15035,37.66175 -3.73289,22.13411 -6.67562,29.99963 -14.60074,39.02583 -5.07899,5.78465 -6.15831,8.33475 -3.87007,9.14371 1.74529,0.61701 6.35095,2.32768 10.23481,3.80153 l 7.06158,2.6797 -11.30071,3.38096 -11.30073,3.38097 6.36123,7.54386 c 8.66738,10.27872 12.14675,19.3782 15.18319,39.70791 3.37225,22.57788 6.6252,34.92093 9.20325,34.92093 1.1441,0 6.52556,-3.44251 11.95886,-7.65003 z m -95.67296,-25.15297 c 4.7603,-2.94201 11.493,-10.72375 15.81723,-18.28172 7.67806,-13.41984 23.02705,-30.79323 31.50433,-35.65953 l 4.70772,-2.70239 -4.70772,-2.71916 c -7.86579,-4.54325 -21.77828,-20.14449 -28.52432,-31.98673 -9.11419,-15.9994 -17.10218,-23.89779 -26.67926,-26.38005 -7.60234,-1.97044 -21.0768,-3.30607 -27.3066,-2.70676 -1.54651,0.14877 -0.48567,7.98559 2.82035,20.83477 7.25702,28.20509 7.15602,52.47363 -0.34138,82.02926 -3.23656,12.75888 -5.88464,23.63209 -5.88464,24.16269 0,3.21877 31.39788,-2.14274 38.59429,-6.59038 z m 55.48214,-76.06298 c 7.36098,-7.79701 14.20109,-25.74008 14.20109,-37.25258 0,-11.63112 9.42139,-37.12966 17.75085,-48.04184 8.79686,-11.52451 8.72321,-11.66879 -7.09226,-13.89222 -11.86224,-1.66766 -28.19192,-10.12529 -45.98611,-23.81762 -14.75293,-11.35212 -29.11353,-17.63883 -40.29193,-17.63883 -6.62216,0 -6.76563,0.27143 -6.76563,12.80017 0,7.04009 1.64333,19.88606 3.65185,28.54664 3.97365,17.13396 3.05581,26.17769 -3.87994,38.23049 -5.4614,9.49071 -5.48117,9.86935 -0.51507,9.86935 10.6031,0 24.37384,10.01958 33.09291,24.07839 7.65413,12.34166 25.62086,34.76809 27.85414,34.76809 0.41681,0 4.00784,-3.44252 7.9801,-7.65004 z M 611.7125,352.76767 c 2.21908,-1.93145 5.82387,-8.19667 8.01069,-13.92272 3.74986,-9.81891 3.73821,-11.45208 -0.2048,-28.71584 -2.69512,-11.80022 -3.84509,-24.24465 -3.23623,-35.02028 l 0.94452,-16.71546 -15.36682,1.25182 c -10.25913,0.83572 -20.17408,-0.007 -29.82973,-2.53456 -24.80786,-6.49465 -37.35126,-4.89553 -49.67975,6.33353 -6.87771,6.26437 -7.12829,17.22768 -0.44224,19.34975 6.80319,2.15925 34.50759,23.45756 43.89263,33.74329 4.30563,4.71887 12.65837,16.09669 18.56163,25.28404 9.62283,14.9762 11.38399,16.58807 17.02429,15.58121 3.4601,-0.6177 8.10668,-2.70334 10.32574,-4.63478 z m 93.91531,-61.1932 c 3.11192,-8.0506 1.72752,-22.93904 -5.08038,-54.63724 -4.68029,-21.79177 -4.98187,-26.53197 -2.62067,-41.19254 1.46754,-9.11185 3.31158,-18.8609 4.09791,-21.66454 1.41544,-5.04691 1.32807,-5.06155 -8.79684,-1.473 -13.53606,4.79759 -46.37423,4.51986 -63.18832,-0.53442 -15.94547,-4.79316 -46.59139,-7.26859 -49.83459,-4.02541 -2.86491,2.86491 1.11302,11.02909 15.4093,31.62557 13.3692,19.2608 17.02837,26.75008 19.06867,39.02797 1.48667,8.94632 2.25321,9.91846 6.75145,8.56242 2.7909,-0.84136 6.08065,-2.46991 7.31055,-3.61901 5.15813,-4.81936 5.78044,-1.46681 1.34245,7.23235 -6.02731,11.81453 -6.02068,11.86051 1.71757,11.8762 11.22467,0.0236 23.42183,4.54931 35.14693,13.04355 18.32865,13.27819 32.12926,22.25121 34.22254,22.25121 1.07322,0 3.07725,-2.91289 4.45343,-6.47311 z M 527.57834,250.69882 c 10.25384,-6.04993 24.93199,-6.42412 45.13138,-1.1505 7.9546,2.07675 18.81178,3.77594 24.12705,3.77594 h 9.66415 v -10.68615 c 0,-12.14376 -5.5641,-24.43042 -19.306,-42.63142 -9.84209,-13.03574 -18.35575,-32.44473 -18.35575,-41.84646 0,-11.96192 -2.13553,-13.51181 -10.23427,-7.42763 -11.58325,8.70189 -29.19146,14.90758 -50.63074,17.84387 -10.81987,1.48188 -22.47147,3.90788 -25.89245,5.39115 -9.23174,4.00261 -21.52006,13.60619 -21.52006,16.81836 0,3.96243 10.67949,13.41276 26.18013,23.167 17.58701,11.06714 25.23479,19.63374 28.31889,31.72124 1.40386,5.50214 2.89581,10.00389 3.31541,10.00389 0.41962,0 4.56065,-2.24068 9.20226,-4.97929 z m -213.31815,464.10294 0.8652,-19.05223 -12.61976,1.48322 c -9.48163,1.11438 -18.95638,-0.0438 -38.10168,-4.6576 -14.01505,-3.37744 -31.58672,-6.1408 -39.04815,-6.1408 -14.11174,0 -35.42198,6.13387 -48.86402,14.06488 -4.29476,2.53397 -7.80867,4.07813 -7.80867,3.43143 0,-0.64668 2.73245,-6.56802 6.07208,-13.1585 13.15459,-25.95932 14.27105,-46.97922 4.48116,-84.36902 -2.86907,-10.95765 -3.67479,-20.78208 -2.83892,-34.61525 l 1.16716,-19.31513 -10.50894,-1.57591 c -5.77991,-0.86676 -15.41589,-0.90334 -21.41329,-0.0812 l -10.9044,1.4946 13.44179,-11.98046 c 7.39298,-6.58925 13.40157,-13.21979 13.35245,-14.73452 -0.0492,-1.51471 -4.02126,-5.50239 -8.82697,-8.86145 -5.43235,-3.79709 -14.04943,-14.76238 -22.77952,-28.98708 -7.72303,-12.58382 -19.12313,-27.63261 -25.33357,-33.44172 -11.680976,-10.92619 -30.297299,-20.96582 -43.577484,-23.50098 -7.68145,-1.46638 -8.46465,-5.64637 -1.058604,-5.64983 6.456561,-0.002 33.692972,-13.78721 43.937338,-22.23648 5.21928,-4.30471 15.28811,-17.54324 22.42025,-29.4782 11.80251,-19.75039 27.32473,-37.24465 38.8743,-43.81314 4.11365,-2.3395 3.22014,-3.84241 -10.72019,-18.03181 l -15.20788,-15.47961 18.24241,1.30272 18.24241,1.3027 0.028,-18.57877 c 0.0165,-10.21832 1.60145,-24.40456 3.52462,-31.52499 9.86093,-36.50948 8.82278,-55.82569 -4.47177,-83.20273 -4.18245,-8.61275 -7.33602,-15.65945 -7.00796,-15.65945 0.32803,0 4.17088,2.10899 8.53964,4.68663 13.56793,8.00527 34.83462,14.14424 48.99857,14.14424 7.46142,0 25.03781,-2.78552 39.05865,-6.19008 22.19486,-5.38935 27.31928,-5.88584 39.61556,-3.83825 7.76773,1.29352 14.91759,1.89806 15.88855,1.34345 0.97097,-0.55462 1.76539,-9.99877 1.76539,-20.98702 v -19.97863 l 13.00913,13.64443 13.0091,13.64445 4.05637,-5.88004 c 6.74635,-9.77936 14.87493,-16.40181 35.70476,-29.08901 22.30031,-13.582901 32.83543,-23.143124 42.7759,-38.817638 l 6.78385,-10.696994 v 7.169243 c 0,14.144833 -15.26427,29.776103 -49.80522,51.002739 -18.36287,11.28464 -33.77018,26.01219 -31.33495,29.95248 1.71787,2.77955 20.99237,8.01052 42.71762,11.59325 11.01492,1.81648 20.68144,5.18831 27.77999,9.69006 l 10.88679,6.90422 -0.71058,12.33215 -0.71059,12.33215 -21.00402,14.12316 c -26.74241,17.98165 -30.28473,22.78164 -31.55692,42.76082 -0.92532,14.53213 -0.68288,15.51993 3.42084,13.93628 5.57622,-2.15192 29.83187,-7.5404 41.62985,-9.24824 8.89619,-1.28777 8.96104,-1.23877 8.23852,6.22673 -0.69317,7.16219 -1.30814,7.59553 -12.76308,8.9937 -31.58222,3.85489 -59.33472,18.04892 -84.50679,43.22099 -21.16663,21.16661 -31.24419,38.05026 -38.63862,64.73396 -9.18094,33.13059 -5.21757,77.26846 9.5887,106.78339 6.6043,13.16506 22.21097,34.30683 30.72377,41.62037 5.88237,5.05364 6.82662,7.39063 6.18197,15.30008 l -0.76087,9.33536 -14.84998,-14.02497 c -8.16749,-7.71372 -19.69902,-21.80493 -25.62561,-31.31377 -9.97095,-15.99775 -11.31731,-17.23552 -18.02891,-16.57522 -5.20937,0.51254 -8.78595,2.99574 -12.69234,8.81231 -8.1961,12.2038 -8.80941,18.11236 -4.15875,40.06366 4.14091,19.54521 4.78892,32.54223 2.24468,45.02139 l -1.24182,6.09096 12.87177,-2.3331 c 10.0839,-1.82777 16.35153,-1.50217 28.93788,1.50338 8.83633,2.11008 20.56783,4.52655 26.06997,5.36996 6.16396,0.94486 10.00391,2.77327 10.00391,4.76343 0,4.58283 -11.88552,4.02718 -32.79484,-1.53318 -19.19483,-5.10439 -27.77083,-5.72598 -33.0384,-2.39451 -6.75612,4.27289 0.35278,25.55919 16.42747,49.18916 14.44564,21.23527 21.15945,37.22536 21.15945,50.39492 0,5.20121 0.88437,6.59996 3.53079,5.58441 6.43551,-2.46952 3.88541,7.59501 -4.14448,16.35711 l -7.67528,8.37518 z m -4.34553,-29.63812 c 0,-5.23512 -7.76667,-19.61473 -16.47702,-30.50639 -10.49922,-13.12853 -15.74995,-24.14464 -17.69701,-37.12853 -1.83753,-12.25344 -2.08639,-12.4326 -10.54929,-7.59479 -9.11022,5.20787 -9.88525,4.26411 -4.75555,-5.79087 2.61553,-5.12692 4.75555,-9.89349 4.75555,-10.59237 0,-0.69889 -4.27096,-1.27071 -9.49105,-1.27071 -12.38956,0 -21.89588,-4.14382 -38.94269,-16.97518 -7.66895,-5.77251 -17.43085,-12.51371 -21.69312,-14.98041 -6.74922,-3.90597 -8.03594,-4.03199 -9.96786,-0.97629 -4.90896,7.76449 -3.89865,22.04162 3.91276,55.29355 6.54074,27.84281 6.52554,42.9793 -0.0619,61.65028 l -3.46477,9.82017 10.65298,-3.20606 c 21.3146,-6.41474 37.97305,-6.52139 60.8172,-0.38933 25.4665,6.83596 52.96183,8.21014 52.96183,2.64693 z M 267.51725,574.03757 c -0.0165,-6.14945 -1.59165,-17.00663 -3.50285,-24.12705 -4.99644,-18.61484 -4.39255,-30.17083 2.17702,-41.65999 l 5.65107,-9.88289 -11.15353,-3.7046 c -12.40017,-4.11869 -22.20527,-13.39381 -31.58033,-29.87342 -8.43927,-14.83465 -17.69834,-25.51049 -22.12506,-25.51049 -3.51991,0 -6.25342,2.62901 -13.70228,13.17844 -1.91842,2.71697 -6.01265,17.11453 -9.09831,31.99459 -5.82732,28.10141 -11.4945,42.28123 -19.95711,49.93464 -2.72703,2.46623 -4.9582,5.24267 -4.9582,6.16985 0,0.92719 5.24511,2.38158 11.65577,3.23197 13.97381,1.85371 33.04767,11.51076 51.73846,26.19509 14.77628,11.6089 22.2275,14.71541 36.05632,15.03238 l 8.82698,0.2022 z m -96.84577,-63.10362 c 1.50925,-3.31238 4.24243,-15.22879 6.07378,-26.48091 3.89173,-23.91147 6.60453,-31.76371 14.59136,-42.23499 6.80779,-8.92546 6.01671,-11.3643 -4.43811,-13.68236 -8.2473,-1.82859 -7.89907,-2.15947 8.50857,-8.08434 l 6.71615,-2.42524 -8.19745,-9.07363 c -9.70283,-10.73986 -12.37111,-18.2743 -15.90044,-44.8981 -3.33794,-25.17994 -5.34516,-29.35109 -12.3834,-25.73351 -9.70286,4.98721 -18.4515,14.99305 -30.64623,35.05021 -14.09724,23.18628 -31.74389,41.67046 -45.858957,48.03548 -10.913975,4.92152 -12.266786,7.38879 -5.268996,9.60982 2.54723,0.80844 10.821557,6.02692 18.387443,11.5966 10.91555,8.03558 17.46719,15.90634 31.72774,38.11585 15.2045,23.67961 26.18534,35.8774 32.55693,36.16502 0.76317,0.0344 2.62239,-2.64751 4.13161,-5.9599 z m 120.38684,-21.63531 c -0.0141,-0.97097 -1.55252,-6.79778 -3.41888,-12.94844 -9.62624,-31.72364 -9.2189,-70.64832 1.04515,-99.87514 5.16849,-14.7172 3.98692,-15.65109 -15.73992,-12.44045 -17.07704,2.77935 -22.9147,7.08037 -35.29227,26.00219 -5.43675,8.31124 -15.36519,20.07896 -22.06321,26.15043 l -12.17821,11.03909 7.26692,4.41928 c 8.5931,5.22577 18.94587,17.79258 28.69395,34.83045 7.47939,13.07258 15.35705,19.62117 26.94717,22.40075 9.70089,2.32651 24.77048,2.58347 24.7393,0.42184 z M 229.88344,387.70811 c 13.23842,-19.87599 26.3596,-30.77759 37.07329,-30.802 6.45087,-0.0141 6.46341,-0.26551 0.58847,-11.78135 -5.62839,-11.03253 -6.05698,-27.16143 -1.15147,-43.33203 1.92793,-6.35521 3.50532,-17.35991 3.50532,-24.45492 v -12.9 l -11.60831,1.37482 c -12.78106,1.51375 -23.16791,6.54505 -42.12144,20.40328 -13.13905,9.60687 -36.70404,18.89325 -47.94325,18.89325 -7.39669,0 -8.44114,2.60702 -2.8901,7.21397 8.42805,6.99467 16.32262,27.58506 19.79639,51.63252 3.15279,21.8251 6.9719,32.65645 14.56326,41.30252 6.63409,7.55579 7.71532,8.00447 12.25871,5.08698 2.7406,-1.75986 10.80871,-11.94653 17.92913,-22.63704 z m 75.41573,-46.70267 c 9.72708,-17.3156 37.10804,-44.13321 55.8768,-54.72715 19.56709,-11.04457 19.70366,-18.96996 0.52359,-30.38648 -9.94364,-5.91876 -22.82605,-6.27839 -40.17685,-1.12165 -8.66281,2.57465 -18.16548,3.45538 -29.47269,2.73164 l -16.68773,-1.06817 1.06816,16.68774 c 0.72373,11.30721 -0.157,20.80988 -2.73163,29.4727 -5.41971,18.23557 -4.84017,29.7494 2.09293,41.57985 4.28268,7.30784 7.65911,10.28141 12.35777,10.88322 8.74343,1.11991 8.52762,1.29673 17.14965,-14.0517 z M 198.78858,288.6211 c 4.80327,-2.59531 15.43064,-9.4519 23.61637,-15.23681 15.06573,-10.64707 26.84798,-15.31529 38.71496,-15.33918 l 6.52097,-0.0141 -4.8034,-9.41544 c -5.17706,-10.14784 -4.41542,-11.0999 4.70772,-5.88465 9.31525,5.32509 11.12598,4.2562 12.90677,-7.61904 2.09056,-13.9408 4.90862,-19.38441 21.2167,-40.98405 17.48952,-23.16445 16.91888,-26.49587 -4.70023,-27.43986 -11.97929,-0.52308 -20.92085,0.68001 -32.75654,4.40741 -20.18231,6.35596 -51.55329,6.93878 -67.06119,1.2459 -5.70409,-2.09397 -10.68855,-3.48971 -11.07659,-3.10168 -0.38803,0.38804 0.94268,5.4307 2.95711,11.20597 6.581,18.86713 6.57087,34.19042 -0.0402,61.10842 -6.14264,25.0102 -7.39487,33.58762 -6.61515,45.31179 0.5202,7.82202 4.41304,8.23814 16.41282,1.75436 z m 186.93303,-59.40641 c 2.48596,-3.55058 11.60323,-10.6075 20.26063,-15.68205 8.65741,-5.07451 18.84497,-12.4899 22.63904,-16.47864 l 6.89831,-7.25223 -5.72137,-6.10604 c -7.80027,-8.32467 -18.63504,-12.57671 -41.81759,-16.41102 -20.57647,-3.40331 -42.75013,-12.13695 -51.3672,-20.23228 l -5.09218,-4.78386 -2.83343,13.74684 c -3.52854,17.11922 -6.78973,23.5426 -22.7332,44.77627 -13.15501,17.51991 -20.49807,34.21477 -19.16978,43.58361 1.00877,7.11536 12.08507,8.1676 33.5572,3.18787 21.88525,-5.07553 33.68948,-4.59821 44.88831,1.81514 l 9.41544,5.392 3.27793,-9.54997 c 1.8029,-5.25253 5.31193,-12.45505 7.79789,-16.00564 z m 36.93791,280.08834 c -20.61516,-13.65965 -26.54047,-52.17965 -15.30199,-99.47754 3.37981,-14.22415 11.17238,-40.62185 17.31685,-58.66161 l 11.17174,-32.79957 0.67024,26.8275 c 0.62117,24.86247 0.0243,29.16141 -8.15012,58.69201 -10.26856,37.09635 -11.56363,58.16652 -4.67293,76.02624 2.37829,6.16425 6.35044,12.29212 8.82698,13.61753 3.27213,1.75117 4.50277,4.96047 4.50277,11.74241 0,10.96357 -2.74201,11.73347 -14.36354,4.03303 z m 30.84055,-4.56794 c 0,-7.58185 1.18442,-10.92445 4.63446,-13.07904 2.63082,-1.64296 6.32409,-8.7064 8.54261,-16.3378 5.05647,-17.39366 3.4292,-38.87662 -5.31523,-70.17008 -5.37612,-19.23938 -6.69161,-29.12755 -7.20257,-54.13875 -0.57528,-28.16102 -0.35763,-29.99881 2.73054,-23.05579 5.96417,13.40904 24.60412,75.47922 28.62307,95.31363 9.00225,44.4279 -2.2746,82.41942 -26.7167,90.00824 -4.92968,1.53058 -5.29618,0.93956 -5.29618,-8.54041 z"
       id="path1" /></g></svg>
