<svg xmlns="http://www.w3.org/2000/svg" xml:space="preserve" width="872" height="1209" viewBox="0 0 872 1209"><circle cx="438.499" cy="780.88" r="417.838" style="fill:none;stroke:#000;stroke-width:18;stroke-dasharray:none;stroke-opacity:1"/><path d="M95.136 520.7c-3.252-7.838-6.121-15.923-6.377-17.967s-2.711-10.408-5.456-18.586c-9.013-26.855-11.632-49.804-11.594-101.602.037-51.585 2.274-70.936 11.744-101.602 2.947-9.54 5.501-18.461 5.678-19.824.683-5.282 15.904-40.415 22.012-50.808 2.805-4.774 7.889-14.04 11.296-20.59 3.408-6.552 10.098-16.827 14.869-22.836a1595 1595 0 0 0 17.346-22.344c11.187-14.73 46.518-48.387 61.476-58.563 6.395-4.351 12.186-8.677 12.867-9.613 3.54-4.86 53.867-31.997 73.104-39.417 2.726-1.052 7.744-3.132 11.152-4.624s20.84-6.499 38.74-11.127l32.547-8.415 59.143.523c45.643.403 62.68 1.453 74.632 4.6a2689 2689 0 0 0 30.078 7.7c8.025 1.994 20.778 6.454 28.34 9.913s15.427 6.29 17.478 6.29 4.332.974 5.069 2.165c.736 1.191 7.214 4.954 14.395 8.362 41.06 19.487 99.627 69.74 128.557 110.307 8.03 11.26 14.6 21.096 14.6 21.857s3.345 6.246 7.434 12.19c4.089 5.942 7.434 12.104 7.434 13.693 0 1.588 2.364 6.207 5.253 10.265 2.89 4.057 6.671 12.035 8.404 17.729 3.083 10.126 6.859 19.985 11.654 30.428 1.315 2.863 2.78 8.439 3.255 12.39 1.302 10.821 3.641 20.721 8.137 34.443 3.251 9.922 4.06 23.005 4.06 65.67 0 48.135-.567 55.431-5.876 75.581-3.232 12.267-6.165 24.75-6.519 27.74-.795 6.735-15.626 45.784-18.544 48.83-1.233 1.286-8.73-4.517-17.75-13.737-8.588-8.78-20.81-20.147-27.157-25.26-6.348-5.112-15.627-13.149-20.62-17.858s-10.163-8.563-11.486-8.563-3.753-1.131-5.4-2.513c-4.408-3.701-21.543-14.85-31.49-20.489-39.427-22.35-71.09-34.558-132.579-51.122-19.12-5.15-51.247-7.9-92.567-7.921-45.889-.025-76.135 3.076-104.441 10.707-10.223 2.756-22.083 5.848-26.357 6.873-19.19 4.6-67.007 25.36-98.788 42.89-12.256 6.76-43.36 27.622-49.801 33.404-2.622 2.353-10.332 8.72-17.133 14.15s-19.133 16.86-27.407 25.4c-8.273 8.541-15.595 15.53-16.27 15.53-.677 0-3.89-6.413-7.142-14.25m80.582-78.67c64.24-43.07 137.929-69.97 214.643-78.353 31.666-3.46 102.537-1.506 129.856 3.582 88.291 16.444 167.027 53.019 229.714 106.708 10.516 9.007 20.23 16.376 21.588 16.376 2.452 0 3.713-3.81 11.478-34.694 6.151-24.462 7.71-101.257 2.647-130.418-7.77-44.763-29.293-98.39-55.017-137.092C680.73 113.072 592.733 55.15 504.066 39.004c-23.937-4.358-101.781-4.42-124.956-.1-68.082 12.692-132.858 47.303-183.716 98.16-40.763 40.764-67.43 83.818-85.71 138.377-19.961 59.58-21.878 144.72-4.524 200.906l5.051 16.355 19.124-16.198c10.518-8.91 31.39-24.423 46.383-34.475" style="fill:#000;stroke-width:2.4781"/></svg>