<?xml version="1.0" encoding="UTF-8" standalone="no"?>
<svg
   xml:space="preserve"
   width="872"
   height="889"
   viewBox="0 0 872 889"
   version="1.1"
   id="svg1"
   sodipodi:docname="clandestine.svg"
   inkscape:version="1.4.2 (f4327f4, 2025-05-13)"
   xmlns:inkscape="http://www.inkscape.org/namespaces/inkscape"
   xmlns:sodipodi="http://sodipodi.sourceforge.net/DTD/sodipodi-0.dtd"
   xmlns="http://www.w3.org/2000/svg"
   xmlns:svg="http://www.w3.org/2000/svg"><defs
     id="defs1" /><sodipodi:namedview
     id="namedview1"
     pagecolor="#ffffff"
     bordercolor="#000000"
     borderopacity="0.25"
     inkscape:showpageshadow="2"
     inkscape:pageopacity="0.0"
     inkscape:pagecheckerboard="0"
     inkscape:deskcolor="#d1d1d1"
     inkscape:zoom="1.3127109"
     inkscape:cx="436.12039"
     inkscape:cy="444.5"
     inkscape:window-width="3440"
     inkscape:window-height="1369"
     inkscape:window-x="1737"
     inkscape:window-y="1432"
     inkscape:window-maximized="1"
     inkscape:current-layer="svg1" /><path
     d="M397.643 739.726c-43.346-7.86-91.898-29.518-125.874-56.151-21.809-17.095-14.976-19.362-50.542 16.768l-30.257 30.738-7.857-7.857-7.856-7.856 31.087-31.184 31.086-31.183-13.073-16.049c-12.292-15.09-33.477-47.584-33.477-51.347 0-4.548 37.36 22.923 49.08 36.09l13.318 14.959 5.55-5.023 5.55-5.023 10.518 4.394 10.517 4.395-7.218 7.784c-20.913 22.554 77.13 72.918 153.021 78.605l10.014.75.888 10.73.888 10.73-12.332-.259c-6.783-.142-21.647-1.947-33.031-4.011m59.324-6.751v-11.02l22.531-1.738c24.288-1.873 73.876-16.73 93.43-27.991 13.35-7.69 46.826-30.845 52.505-36.318l3.95-3.807-8.009-8.36-8.008-8.358 10.802-4.514 10.803-4.513 4.926 4.458c6.79 6.145 7.145 5.99 17.062-7.495 8.59-11.682 48.928-41.848 48.928-36.591 0 3.45-17.899 31.508-32.455 50.874l-11.428 15.205 31.183 31.28 31.184 31.28-7.82 7.82-7.82 7.82-30.795-30.701c-35.422-35.312-31.94-33.858-47.802-19.971-38.399 33.619-116.201 63.577-165.3 63.649l-7.867.011zm-48.64-79.488c-3.934-.568-18.74-2.463-32.903-4.212C263.81 635.5 114.294 533.963 94.66 458.61c-5.511-21.151 65.028-101.645 121.22-138.328 19.693-12.855 30.802-18.663 67.954-35.529 29.534-13.406 82.843-25.062 130.93-28.626l27.896-2.068-.065 66.862-.065 66.862-9.234 4.457c-20.57 9.928-24.225 37.334-7.242 54.317l8.926 8.927-3.313 17.98c-4.705 25.536-4.452 27.334 3.84 27.334h7.153v43.555l-10.73-1.986c-63.655-11.783-94.594-98.03-51.588-143.808 8.52-9.069 6.42-9.689-20.86-6.16-30.95 4.004-31.725 4.471-37.881 22.838-24.22 72.262 23.144 152.536 100.316 170.017l20.743 4.699V655.3l-13.59-.39c-7.475-.214-16.81-.855-20.744-1.423m-3.148-25.218c-91.903-25.348-146.997-114.397-130.476-210.89l2.28-13.319-9.433 2.35c-52.523 13.08-80.397 20.646-92.407 25.085l-14.306 5.287.29 23.198.29 23.197 10.22 21.519c30.993 65.263 145.305 126.672 236.69 127.15l10.014.053zm51.788-5.135V590.36l23.863-6.304c78.585-20.76 124.529-109.996 91.308-177.349l-5.017-10.17-26.818-3.787c-30.606-4.32-32.799-3.622-22.655 7.222 42.764 45.71 12.718 128.897-51.383 142.26l-9.298 1.937v-43.372h7.153c3.934 0 7.153-.506 7.153-1.124s-2.054-11.053-4.563-23.189l-4.563-22.064 8.558-8.999c16.047-16.873 13.828-39.255-5.146-51.917l-8.576-5.722-.009-66.891-.009-66.892 23.605 1.888c133.15 10.645 242.584 70.517 305.981 167.405 16.107 24.615 18.417 31.556 13.567 40.76-55.766 105.822-178.02 179.096-316.687 189.81l-26.466 2.045zm56.3 6.196c21.738-2.992 80.22-17.889 89.374-22.765 2.495-1.329 14.219-6.907 26.052-12.396 43.444-20.151 81.877-55.453 98.202-90.201l8.883-18.907.075-24.153.076-24.153-14.306-5.368c-15.319-5.748-99.523-27.706-101.064-26.355-.508.446.45 5.76 2.13 11.808 23.14 83.333-31.986 177.033-122.805 208.742-21.145 7.382-18.467 8.132 13.384 3.748M190.88 324.282c0-3.73 21.37-36.253 32.921-50.102l12.635-15.15-29.931-30.089c-32.7-32.872-33.42-34.204-22.415-41.415l7.517-4.925 30.432 30.338 30.432 30.338 7.114-6.459c43.87-39.825 120.81-70.616 176.811-70.759l6.61-.017-.888 10.73-.888 10.729-21.894 1.986c-12.043 1.092-29.959 4.633-39.814 7.868s-19.315 5.889-21.022 5.896c-9.28.042-74.96 38.996-85.358 50.625l-5.003 5.595 7.149 6.716c9.284 8.722 9.087 9.59-3.18 14.026l-10.328 3.734-4.497-4.496-4.496-4.496-15.933 16.357c-13.937 14.31-45.974 37.284-45.974 32.97m509.663-1.851c-2.038-2.455-10.36-8.239-18.493-12.853-8.16-4.63-19.187-14.3-24.602-21.578l-9.814-13.189-5.028 4.55-5.028 4.551-10.193-3.364c-11.729-3.87-12.386-5.772-4.471-12.934 20.534-18.584-79.514-72.71-143.773-77.78l-22.174-1.75v-11.02c0-12.76-.542-12.63 33.293-7.925 53.108 7.387 105.107 30.932 146.646 66.402l9.701 8.284 30.766-30.67 30.767-30.672 7.367 5.37c10.564 7.7 10.134 8.582-17.488 35.834-13.77 13.586-27.508 27.44-30.53 30.787l-5.495 6.085 7.324 7.82c11.15 11.903 37.121 51.94 35.957 55.432-.622 1.866-2.49 1.321-4.732-1.38"
     style="fill:#000;stroke-width:2.86116"
     id="path1" /></svg>
