<?xml version="1.0" encoding="UTF-8" standalone="no"?>
<!-- Created with Inkscape (http://www.inkscape.org/) -->

<svg
   version="1.1"
   id="svg1"
   width="872"
   height="889"
   viewBox="0 0 872 889"
   sodipodi:docname="clandestine.svg"
   inkscape:version="1.4.2 (f4327f4, 2025-05-13)"
   xml:space="preserve"
   xmlns:inkscape="http://www.inkscape.org/namespaces/inkscape"
   xmlns:sodipodi="http://sodipodi.sourceforge.net/DTD/sodipodi-0.dtd"
   xmlns="http://www.w3.org/2000/svg"
   xmlns:svg="http://www.w3.org/2000/svg"><defs
     id="defs1" /><sodipodi:namedview
     id="namedview1"
     pagecolor="#ffffff"
     bordercolor="#000000"
     borderopacity="0.25"
     inkscape:showpageshadow="2"
     inkscape:pageopacity="0.0"
     inkscape:pagecheckerboard="true"
     inkscape:deskcolor="#d1d1d1"
     inkscape:zoom="0.65635546"
     inkscape:cx="-172.92459"
     inkscape:cy="534.00943"
     inkscape:window-width="3440"
     inkscape:window-height="1369"
     inkscape:window-x="1737"
     inkscape:window-y="1432"
     inkscape:window-maximized="1"
     inkscape:current-layer="g1" /><g
     inkscape:groupmode="layer"
     inkscape:label="Image"
     id="g1"><circle
       style="fill:none;stroke:#000000;stroke-width:18;stroke-dasharray:none;stroke-opacity:1"
       id="path2"
       cx="438.49911"
       cy="448.88046"
       r="417.83762" /><path
       style="fill:#000000;stroke-width:2.86116"
       d="m 397.64252,739.72586 c -43.34552,-7.85957 -91.89728,-29.51811 -125.87398,-56.1513 -21.80808,-17.09458 -14.97556,-19.36147 -50.54118,16.76845 l -30.25746,30.73753 -7.85645,-7.85643 -7.85646,-7.85644 31.08671,-31.18341 31.0867,-31.1834 -13.07325,-16.04883 c -12.29243,-15.09021 -33.47761,-47.58354 -33.47761,-51.34714 0,-4.54795 37.3613,22.92356 49.08139,36.08918 l 13.31695,14.95951 5.55023,-5.02289 5.5502,-5.02288 10.51744,4.39445 10.51742,4.39448 -7.21786,7.7841 c -20.91316,22.55393 77.13046,72.918 153.02106,78.60549 l 10.01404,0.75048 0.88802,10.72928 0.88799,10.72935 -12.33261,-0.25806 c -6.78296,-0.14194 -21.64702,-1.94713 -33.03129,-4.01142 z m 59.32423,-6.75095 v -11.02055 l 22.53132,-1.73747 c 24.28766,-1.87294 73.87603,-16.72938 93.42934,-27.991 13.35045,-7.68911 46.82617,-30.8445 52.50545,-36.31839 l 3.94982,-3.80695 -8.00843,-8.35898 -8.00841,-8.359 10.80238,-4.51352 10.80241,-4.51353 4.9261,4.45805 c 6.79097,6.14575 7.14564,5.98999 17.06194,-7.49411 8.59107,-11.68203 48.92836,-41.84896 48.92836,-36.59191 0,3.45064 -17.89908,31.50833 -32.45459,50.87419 l -11.42838,15.20524 31.18336,31.28036 31.18332,31.28033 -7.81941,7.81938 -7.81939,7.81939 -30.79599,-30.70048 C 642.51374,664.99362 645.99536,666.4482 630.13439,680.3348 591.73526,713.95401 513.93267,743.91214 464.83492,743.98396 l -7.86817,0.0113 z m -48.6396,-79.4877 C 404.39307,652.91892 389.5866,651.02366 375.4239,649.2755 263.81008,635.49851 114.29343,533.9616 94.66052,458.60879 89.14973,437.45795 159.68935,356.96402 215.88176,320.28124 c 19.69214,-12.85518 30.80111,-18.66339 67.95368,-35.52891 29.53334,-13.40676 82.84231,-25.06238 130.92931,-28.62674 l 27.89624,-2.06777 -0.065,66.86205 -0.065,66.86206 -9.23377,4.45659 c -20.57094,9.92835 -24.22526,37.3348 -7.24258,54.31746 l 8.92654,8.92657 -3.31299,17.98031 c -4.70522,25.53576 -4.45252,27.33461 3.83981,27.33461 h 7.15288 v 21.77705 21.77707 l -10.72932,-1.98595 c -63.65564,-11.78255 -94.59486,-98.02891 -51.58813,-143.80747 8.51957,-9.06868 6.41954,-9.68877 -20.86118,-6.15972 -30.9496,4.00367 -31.72458,4.4709 -37.88069,22.83804 -24.21985,72.26171 23.14475,152.53578 100.31596,170.0166 l 20.74336,4.69878 v 32.6739 32.67394 l -13.59046,-0.38963 c -7.47477,-0.21429 -16.80929,-0.8546 -20.74337,-1.42287 z m -3.14787,-25.2185 C 313.27648,602.92145 258.18176,513.87179 274.70293,417.37967 l 2.28058,-13.31953 -9.43346,2.3492 c -52.52335,13.07993 -80.39698,20.64675 -92.40685,25.08554 l -14.30576,5.28735 0.28992,23.19737 0.28995,23.19737 10.21926,21.51887 c 30.99356,65.26362 145.30568,126.67228 236.69058,127.15057 l 10.01403,0.0524 z m 51.78747,-5.13514 v -32.77364 l 23.86281,-6.30389 c 78.58583,-20.76022 124.52924,-109.99639 91.30832,-177.3487 l -5.01675,-10.17097 -26.81823,-3.78622 c -30.60585,-4.32092 -32.79895,-3.62182 -22.6547,7.22152 42.76355,45.71074 12.71733,128.89748 -51.3827,142.25938 l -9.29875,1.93837 v -21.68596 -21.68599 h 7.15289 c 3.93408,0 7.15287,-0.50605 7.15287,-1.12456 0,-0.61849 -2.05331,-11.05331 -4.5629,-23.18849 l -4.56294,-22.06396 8.55876,-8.99947 c 16.04647,-16.87269 13.82756,-39.25523 -5.14684,-51.91676 l -8.57538,-5.7223 -0.009,-66.89127 -0.009,-66.89123 23.60451,1.88716 c 133.15099,10.64525 242.58455,70.51734 305.98155,167.40519 16.10631,24.61495 18.41691,31.55648 13.56707,40.75949 -55.76668,105.82275 -178.02018,179.0971 -316.68747,189.81108 l -26.46566,2.04484 z m 56.30074,6.19624 c 21.7374,-2.99212 80.22025,-17.88845 89.37354,-22.76463 2.49492,-1.32909 14.21852,-6.90756 26.05243,-12.39658 43.44331,-20.15066 81.87632,-55.45246 98.20153,-90.20086 l 8.88258,-18.90661 0.0758,-24.15311 0.0758,-24.15312 -14.30576,-5.36806 c -15.31905,-5.74832 -99.5232,-27.70611 -101.06422,-26.35439 -0.50812,0.4457 0.45035,5.7593 2.12994,11.80801 23.13922,83.33209 -31.98606,177.03279 -122.80506,208.74123 -21.14467,7.38243 -18.46714,8.13228 13.38344,3.74812 z M 190.87954,324.28179 c 0,-3.72951 21.37033,-36.25244 32.92144,-50.10226 l 12.6351,-15.14948 -29.93116,-30.08883 c -32.69948,-32.87175 -33.42046,-34.20384 -22.41478,-41.41506 l 7.51639,-4.92491 30.4322,30.33784 30.43219,30.33782 7.11457,-6.45862 C 303.4552,196.99331 380.395,166.20235 436.39612,166.05947 l 6.6103,-0.0171 -0.88799,10.72932 -0.88802,10.72932 -21.89485,1.98582 c -12.0422,1.09221 -29.95822,4.63289 -39.81341,7.86816 -9.85518,3.23531 -19.31526,5.88865 -21.02244,5.89633 -9.28,0.0417 -74.95896,38.99527 -85.35777,50.6248 l -5.00272,5.59485 7.1486,6.71575 c 9.28412,8.722 9.08733,9.59001 -3.17969,14.02583 l -10.3283,3.73476 -4.49636,-4.49636 -4.49639,-4.4964 -15.93271,16.35743 c -13.93733,14.30915 -45.97483,37.28395 -45.97483,32.96987 z m 509.6633,-1.8508 c -2.03746,-2.45498 -10.35928,-8.2388 -18.49292,-12.85289 -8.16055,-4.62935 -19.18672,-14.30019 -24.60208,-21.57796 l -9.81361,-13.18872 -5.02805,4.55032 -5.02801,4.5503 -10.19344,-3.36415 c -11.72849,-3.87074 -12.38563,-5.77183 -4.47112,-12.93438 20.53464,-18.58359 -79.51341,-72.70873 -143.77292,-77.77993 l -22.17394,-1.7499 v -11.02057 c 0,-12.7589 -0.54139,-12.63003 33.29352,-7.92404 53.10822,7.38669 105.10688,30.93203 146.64593,66.40234 l 9.70085,8.28359 30.76626,-30.67087 30.76625,-30.67087 7.36728,5.37015 c 10.5638,7.70011 10.13383,8.58114 -17.48797,35.83388 -13.76929,13.58532 -27.50786,27.43914 -30.53015,30.78626 l -5.49508,6.08567 7.32389,7.81888 c 11.1502,11.90373 37.12151,51.94131 35.95771,55.43271 -0.62213,1.86638 -2.49038,1.32165 -4.7324,-1.37982 z"
       id="path3" /></g></svg>
