<?xml version="1.0" encoding="UTF-8" standalone="no"?>
<svg
   xml:space="preserve"
   width="872"
   height="1209"
   viewBox="0 0 872 1209"
   version="1.1"
   id="svg1"
   sodipodi:docname="colonist.svg"
   inkscape:version="1.4.2 (f4327f4, 2025-05-13)"
   xmlns:inkscape="http://www.inkscape.org/namespaces/inkscape"
   xmlns:sodipodi="http://sodipodi.sourceforge.net/DTD/sodipodi-0.dtd"
   xmlns="http://www.w3.org/2000/svg"
   xmlns:svg="http://www.w3.org/2000/svg"><defs
     id="defs1" /><sodipodi:namedview
     id="namedview1"
     pagecolor="#ffffff"
     bordercolor="#000000"
     borderopacity="0.25"
     inkscape:showpageshadow="2"
     inkscape:pageopacity="0.0"
     inkscape:pagecheckerboard="0"
     inkscape:deskcolor="#d1d1d1"
     inkscape:zoom="0.32817773"
     inkscape:cx="-1273.7001"
     inkscape:cy="763.30591"
     inkscape:window-width="3440"
     inkscape:window-height="1369"
     inkscape:window-x="1737"
     inkscape:window-y="1432"
     inkscape:window-maximized="1"
     inkscape:current-layer="svg1" /><circle
     cx="438.49899"
     cy="780.88"
     r="417.83801"
     style="fill:none;stroke:#000000;stroke-width:18;stroke-dasharray:none;stroke-opacity:1"
     id="circle1" /><path
     style="fill:#000000;stroke-width:2.4781"
     d="m 95.136139,520.6992 c -3.25171,-7.83697 -6.12154,-15.92176 -6.37738,-17.96619 -0.25584,-2.04443 -2.71084,-10.408 -5.45555,-18.58572 -9.01363,-26.85562 -11.63246,-49.80405 -11.59464,-101.60193 0.0377,-51.58518 2.27457,-70.93636 11.74464,-101.60193 2.94633,-9.54066 5.50117,-18.46181 5.67744,-19.82476 0.68304,-5.28151 15.904101,-40.4142 22.012181,-50.80769 2.80563,-4.77404 7.88899,-14.03984 11.29638,-20.59067 3.40738,-6.55083 10.09824,-16.82656 14.86857,-22.83497 4.77033,-6.0084 12.57634,-16.06344 17.34667,-22.34452 11.1866,-14.72937 46.51773,-48.386637 61.47529,-58.562811 6.39569,-4.351231 12.18611,-8.677024 12.86759,-9.612872 3.53919,-4.860258 53.86691,-31.99676 73.10382,-39.417295 2.72591,-1.051503 7.74405,-3.132214 11.15143,-4.623802 3.40738,-1.491586 20.84089,-6.49868 38.74112,-11.126873 l 32.54587,-8.414897 59.14367,0.522472 c 45.64249,0.403201 62.67927,1.453296 74.63177,4.600074 8.51846,2.242684 22.05376,5.70817 30.07846,7.701079 8.02469,1.992912 20.77737,6.453484 28.3393,9.912383 7.56194,3.458901 15.42732,6.288909 17.47866,6.288909 2.05132,0 4.33203,0.974639 5.06825,2.165865 0.73622,1.191225 7.21411,4.954298 14.39531,8.362383 41.06009,19.486491 99.62745,69.739455 128.55731,110.306975 8.0297,11.25979 14.59943,21.09516 14.59943,21.85637 0,0.76122 3.34543,6.24644 7.43429,12.1894 4.08886,5.94295 7.43433,12.10501 7.43433,13.69347 0,1.58846 2.3637,6.20766 5.2527,10.26489 2.889,4.05723 6.6709,12.03537 8.4043,17.72921 3.0828,10.12638 6.8585,19.98477 11.6538,30.42782 1.315,2.86374 2.7798,8.43945 3.2552,12.39048 1.302,10.82126 3.6408,20.72121 8.1368,34.44273 3.251,9.92194 4.0598,23.00517 4.0597,65.66953 -10e-5,48.13605 -0.5673,55.43196 -5.8761,75.58193 -3.2318,12.26657 -6.165,24.7498 -6.5183,27.74049 -0.7955,6.73408 -15.626,45.78357 -18.5446,48.82883 -1.2324,1.28595 -8.73,-4.51658 -17.74961,-13.73688 -8.58871,-8.7798 -20.80946,-20.14643 -27.1572,-25.25918 -6.34774,-5.11276 -15.62707,-13.14925 -20.62073,-17.85887 -4.99366,-4.70962 -10.1622,-8.56296 -11.48563,-8.56296 -1.32343,0 -3.7531,-1.13086 -5.39928,-2.51299 -4.40811,-3.70114 -21.54359,-14.84977 -31.49112,-20.48865 -39.42675,-22.34952 -71.08869,-34.55826 -132.57812,-51.1217 -19.11997,-5.15035 -51.24668,-7.8996 -92.56734,-7.92151 -45.88843,-0.0248 -76.13461,3.07651 -104.44128,10.70718 -10.22214,2.75562 -22.08256,5.84843 -26.35646,6.87293 -19.19096,4.60026 -67.00734,25.36009 -98.7878,42.88944 -12.25651,6.7604 -43.36016,27.62304 -49.80162,33.40422 -2.62207,2.35327 -10.33155,8.72108 -17.13222,14.15067 -6.80064,5.42958 -19.1338,16.85979 -27.40699,25.40048 -8.27323,8.54068 -15.59523,15.52851 -16.27116,15.52851 -0.67592,0 -3.889441,-6.41207 -7.141151,-14.24905 z m 80.582131,-78.66987 c 64.24039,-43.06993 137.9287,-69.96896 214.64239,-78.35264 31.66588,-3.46061 102.53761,-1.50524 129.85678,3.58279 88.29082,16.44365 167.02619,53.01829 229.71369,106.70794 10.51567,9.00632 20.23022,16.37511 21.58782,16.37511 2.4524,0 3.7126,-3.80871 11.4784,-34.69334 6.1508,-24.46171 7.7094,-101.25678 2.6469,-130.41805 C 777.87305,280.46768 756.3515,226.84059 730.62661,188.13917 680.72951,113.07228 592.73317,55.148062 504.06596,39.003992 480.12894,34.645661 402.28452,34.583085 379.11038,38.903543 311.02777,51.596492 246.25231,86.206631 195.39405,137.06489 154.63054,177.82839 127.96318,220.88214 109.68427,275.441 89.722959,335.02153 87.805559,420.16087 105.15972,476.34706 l 5.05164,16.35536 19.12392,-16.19864 c 10.51817,-8.90925 31.39051,-24.42275 46.38299,-34.47445 z"
     id="path1" /><path
     style="fill:#000000;stroke-width:1.30768"
     d="m 148.07803,355.06514 c -0.94297,-2.45725 0.085,-14.95673 3.5412,-43.06819 2.74954,-22.36303 3.18905,-24.3456 9.85742,-44.46113 6.43837,-19.42219 6.81668,-20.30329 18.85322,-43.9004 11.96751,-23.46187 24.62938,-42.56864 37.21907,-56.16354 4.34281,-4.68949 9.96859,-10.86827 12.50184,-13.73064 4.38514,-4.9548 15.47806,-15.44541 24.48795,-23.15844 2.29343,-1.96329 11.39693,-8.36384 20.23001,-14.22343 8.83307,-5.85959 17.57612,-11.6981 19.42904,-12.97446 6.02036,-4.14709 24.85619,-13.160037 34.39583,-16.458401 20.6649,-7.144978 28.05507,-9.539785 37.42686,-12.12832 38.88878,-10.74126 85.85627,-12.241825 128.15266,-4.094334 10.16723,1.958493 24.9542,6.123825 37.92273,10.682413 6.11341,2.148934 14.35179,4.953661 18.30753,6.232731 13.74475,4.444316 40.35446,19.683481 62.62971,35.867531 11.14288,8.09584 29.9558,24.86405 34.70716,30.93496 1.40722,1.79805 4.65017,5.33585 7.20651,7.86164 10.70682,10.57913 24.94343,29.89396 34.22905,46.43846 16.45212,29.31349 29.62603,61.96745 32.44857,80.42993 0.71142,4.6535 2.2332,13.75706 3.38161,20.23007 2.90592,16.37856 4.62716,43.99415 2.87717,46.1619 -0.75508,0.93538 -2.88553,1.52384 -4.73431,1.30768 -3.34932,-0.39165 -3.36929,-0.4688 -5.53696,-21.31596 -1.1965,-11.50759 -3.43323,-27.10168 -4.97048,-34.65354 -3.66149,-17.98753 -13.18687,-46.147 -20.44696,-60.44673 -3.18579,-6.27478 -5.79233,-12.08951 -5.79233,-12.92159 0,-3.06049 -13.4958,-24.41151 -23.05675,-36.47682 -5.4144,-6.83263 -10.95404,-14.20272 -12.31031,-16.3779 -3.3944,-5.44414 -40.3594,-39.46332 -48.98692,-45.08307 C 585.4608,118.77099 569.3775,109.19372 561.80702,105.61283 533.37819,92.165788 528.72487,90.478185 507.90377,86.063695 450.64964,73.924679 423.94395,74.014333 367.26764,86.535843 c -24.0533,5.314097 -50.63854,16.732977 -75.13111,32.270227 -5.75379,3.65002 -13.80693,8.76202 -17.89589,11.36 -8.04138,5.10921 -49.44964,43.44091 -49.44964,45.77564 0,0.78214 -1.78563,3.58842 -3.96815,6.2362 -18.87362,22.89683 -30.05154,42.04598 -41.86525,71.71973 -11.49465,28.87278 -19.52498,65.13333 -19.54198,88.24134 0,7.45012 -0.59003,12.4159 -1.57784,13.40372 -2.27589,2.27589 -8.8262,1.95539 -9.75975,-0.47756 z m 118.11849,-0.13705 c -0.47709,-0.47704 -0.86743,-16.24569 -0.86743,-35.04151 0,-24.83625 0.42877,-34.60279 1.56921,-35.74321 1.99895,-1.99893 141.67451,-2.29211 142.90572,-0.29999 0.43145,0.69816 -0.13739,3.052 -1.26408,5.23073 l -2.04855,3.96148 h -63.13896 c -48.46754,0 -63.64954,0.37989 -65.33622,1.63459 -1.91565,1.42513 -2.24096,5.14469 -2.53838,29.0237 l -0.34113,27.38911 -4.03639,2.35632 c -2.22,1.29591 -4.42671,1.96582 -4.90379,1.48878 z m 321.80267,-9.02875 -3.59611,-1.94778 v -16.7081 c 0,-11.33158 -0.52602,-17.41007 -1.6346,-18.88917 -1.31059,-1.74877 -4.35631,-2.25196 -15.36525,-2.53847 l -13.73065,-0.35726 v -5.23073 -5.23071 h 19.33806 c 15.76028,0 19.57003,0.36286 20.59198,1.96151 1.68564,2.63681 1.02951,50.00765 -0.69963,50.50928 -0.71922,0.20858 -2.92594,-0.49718 -4.9038,-1.56857 z M 314.0023,318.35973 c 0.35838,-17.8127 0.41786,-18.13949 3.37906,-18.55925 5.86362,-0.83116 6.79335,1.55379 6.79335,17.42719 0,15.73232 -0.36883,16.71176 -6.91054,18.35368 l -3.62668,0.91028 z m 225.37921,10.5437 c -1.69391,-1.69398 -2.05493,-5.6684 -2.05493,-22.62288 0,-14.25371 -0.48173,-21.04971 -1.56922,-22.13718 -1.12864,-1.12867 -9.93166,-1.56922 -31.35418,-1.56922 h -29.78495 l -2.11462,-3.22735 c -1.16303,-1.77492 -1.89409,-3.8888 -1.62457,-4.69733 0.66898,-2.00688 71.46875,-1.72325 73.90196,0.2962 1.29471,1.07451 1.69935,7.91107 1.69935,28.71141 0,26.09242 -0.11168,27.30124 -2.52196,27.30124 -1.38708,0 -3.44668,-0.92466 -4.57688,-2.05489 z m -149.05252,-8.21824 c -0.33566,-0.5431 1.3877,-2.0634 3.82968,-3.37853 8.31427,-4.47751 22.86133,-25.58177 22.86133,-33.16631 0,-3.98724 3.5333,-6.79693 8.54732,-6.79693 5.572,0 7.14485,-2.67119 7.14485,-12.13435 0,-7.97725 -2.10337,-10.90004 -8.36336,-11.62136 -3.28026,-0.37804 -3.98533,-1.22386 -5.27399,-6.32695 -0.81813,-3.23977 -3.41104,-8.68613 -5.762,-12.10323 l -4.27447,-6.21265 4.31775,-5.2 c 4.69772,-5.65755 6.4032,-6.28758 8.89462,-3.28555 0.89536,1.07884 2.75235,1.96153 4.12663,1.96153 4.67368,0 15.62935,-6.56507 17.88061,-10.71475 4.1995,-7.74081 7.05107,-9.91626 14.10298,-10.75932 10.45431,-1.24962 10.65617,-0.3944 5.16452,21.88141 -2.75284,11.16627 -4.65969,22.14857 -4.65969,26.83673 0,9.71097 2.97526,22.01049 7.52406,31.10383 2.89875,5.79485 1.49165,8.34378 -4.60612,8.34378 -6.84436,0 -8.14866,1.78853 -8.14866,11.17414 0,11.26736 1.48086,12.36411 16.69508,12.36411 10.68727,0 12.52144,0.36981 17.8363,3.59612 3.25822,1.97786 5.94265,4.05119 5.96537,4.60748 0.0227,0.5563 -4.81343,0.5563 -10.74703,0 -13.45416,-1.26126 -76.39261,-1.33226 -85.61662,-0.0968 -3.75589,0.50319 -7.10352,0.4705 -7.43916,-0.0733 z m 70.943,-16.78932 c -0.71462,-0.85941 -1.10701,-2.919 -0.87199,-4.57687 0.3608,-2.54515 1.44479,-3.14903 6.96569,-3.88042 9.61204,-1.27342 59.86381,-1.23877 61.8849,0.0432 1.04139,0.66025 1.56263,2.86748 1.30768,5.53762 l -0.42393,4.43919 h -33.78153 c -24.59864,0 -34.1347,-0.42474 -35.08082,-1.56268 z M 313.71326,270.41273 c 0,-3.8119 0.70614,-7.63685 1.56922,-8.49994 1.16981,-1.16985 15.30886,-1.5692 55.55149,-1.5692 h 53.98229 l 0.81978,3.26631 c 1.8672,7.43953 3.53719,7.19513 -49.17552,7.19513 h -48.48766 l -3.02978,3.26919 c -1.99051,2.14775 -4.4362,3.2692 -7.1298,3.2692 -4.07917,0 -4.10002,-0.0353 -4.10002,-6.93069 z m 56.48831,-30.58246 c -2.80262,-0.38002 -6.3912,-2.57117 -10.22184,-6.24156 -5.27687,-5.05614 -5.85907,-6.19121 -5.48877,-10.7005 0.3899,-4.74791 0.64473,-5.02043 4.33727,-4.63833 2.72421,0.2818 5.43121,2.15479 8.85836,6.12923 5.04641,5.85239 15.73892,11.11854 22.57501,11.11854 3.69967,0 4.3348,2.11558 0.93172,3.10339 -3.83631,1.11363 -16.41304,1.85012 -20.99175,1.22923 z m 12.16491,-12.74871 c -3.14851,-1.14421 -7.57323,-4.53268 -11.11529,-8.51208 -3.58618,-4.02883 -6.97137,-6.61086 -8.66714,-6.61059 -7.16836,0.002 -20.15583,-8.16646 -23.61157,-14.84909 -3.2237,-6.23398 -2.70123,-19.01132 1.0503,-25.68638 3.56375,-6.34082 12.05288,-11.34386 21.42889,-12.62892 l 5.87648,-0.8054 v -5.54719 c 0,-3.05093 0.8367,-7.53144 1.8593,-9.95679 1.95391,-4.63404 8.58435,-11.58082 13.41997,-14.06033 4.37944,-2.24559 17.41666,-1.70156 22.35646,0.93288 l 4.28986,2.28786 5.75707,-5.36123 c 5.2847,-4.92136 11.15166,-8.38841 20.70517,-12.23564 7.18008,-2.89143 18.25823,-1.6833 29.03435,3.16638 4.46344,2.00872 14.76586,11.40022 17.85968,16.2806 1.942,3.0634 2.35079,3.16489 6.58277,1.6346 9.66461,-3.49477 17.15231,-1.40932 24.34245,6.77976 5.76455,6.56547 7.68365,13.69206 5.48288,20.36045 -1.42306,4.31195 -1.42607,6.47157 -0.0171,12.34449 1.40957,5.87581 1.40574,8.1964 -0.0219,13.29571 -2.34079,8.36039 -10.47215,16.74275 -18.2674,18.83125 -11.84504,3.17336 -25.65489,-1.5169 -30.95496,-10.51336 -1.76697,-2.9993 -3.07339,-3.87687 -5.00625,-3.36283 -15.30035,4.06872 -19.05174,4.45213 -26.49211,2.70756 l -7.50757,-1.76054 -2.99457,3.78835 c -1.64704,2.08353 -5.17776,5.0436 -7.84609,6.5779 -3.27707,1.88424 -5.91244,4.95925 -8.1207,9.47572 -6.10008,12.47578 -17.59966,17.7235 -29.42282,13.42686 z m 91.86454,-2.19129 c -1.97788,-0.75883 -3.59284,-2.36048 -3.58883,-3.55909 0.007,-2.41034 2.50266,-11.98712 3.12246,-11.98712 0.21531,0 2.39436,1.02913 4.84233,2.28687 6.44402,3.3109 22.62116,3.16406 28.2758,-0.25657 2.31535,-1.40066 4.56456,-2.19181 4.9982,-1.75818 1.65312,1.65305 -5.90961,11.18734 -10.73165,13.52926 -5.82186,2.82746 -21.4554,3.84093 -26.91831,1.74483 z m -48.38417,-12.52456 c -3.29352,-0.86072 -2.87587,-2.02037 2.41448,-6.70409 8.11927,-7.18831 15.46454,-4.43905 9.7146,3.636 -2.78542,3.91181 -5.89278,4.69773 -12.12908,3.06809 z m 98.12719,-15.50241 c -0.3914,-0.3914 0.18634,-3.77489 1.28388,-7.51904 1.66351,-5.67468 1.73391,-8.07388 0.42312,-14.42005 -1.70372,-8.24858 -0.17072,-16.57968 3.05083,-16.57968 0.91516,0 4.07597,1.74732 7.02403,3.88288 3.96043,2.86894 5.5899,5.10755 6.24002,8.57303 1.98652,10.58907 -1.91021,18.88787 -11.1963,23.8445 -6.15304,3.28424 -5.85615,3.18773 -6.82558,2.21836 z"
     id="path2" /></svg>
