<?xml version="1.0" encoding="UTF-8" standalone="no"?>
<svg
   xml:space="preserve"
   width="872"
   height="889"
   viewBox="0 0 872 889"
   version="1.1"
   id="svg2"
   sodipodi:docname="colonist_no_circle.svg"
   inkscape:version="1.4.2 (f4327f4, 2025-05-13)"
   xmlns:inkscape="http://www.inkscape.org/namespaces/inkscape"
   xmlns:sodipodi="http://sodipodi.sourceforge.net/DTD/sodipodi-0.dtd"
   xmlns="http://www.w3.org/2000/svg"
   xmlns:svg="http://www.w3.org/2000/svg"><defs
     id="defs2" /><sodipodi:namedview
     id="namedview2"
     pagecolor="#ffffff"
     bordercolor="#000000"
     borderopacity="0.25"
     inkscape:showpageshadow="2"
     inkscape:pageopacity="0.0"
     inkscape:pagecheckerboard="0"
     inkscape:deskcolor="#d1d1d1"
     inkscape:zoom="0.96526055"
     inkscape:cx="436.15167"
     inkscape:cy="604.5"
     inkscape:window-width="3440"
     inkscape:window-height="1369"
     inkscape:window-x="1737"
     inkscape:window-y="1432"
     inkscape:window-maximized="1"
     inkscape:current-layer="svg2" /><path
     d="m 95.136,520.7 c -3.252,-7.838 -6.121,-15.923 -6.377,-17.967 -0.256,-2.044 -2.711,-10.408 -5.456,-18.586 -9.013,-26.855 -11.632,-49.804 -11.594,-101.602 0.037,-51.585 2.274,-70.936 11.744,-101.602 2.947,-9.54 5.501,-18.461 5.678,-19.824 0.683,-5.282 15.904,-40.415 22.012,-50.808 2.805,-4.774 7.889,-14.04 11.296,-20.59 3.408,-6.552 10.098,-16.827 14.869,-22.836 a 1595,1595 0 0 0 17.346,-22.344 c 11.187,-14.73 46.518,-48.387 61.476,-58.563 6.395,-4.351 12.186,-8.677 12.867,-9.613 3.54,-4.86 53.867,-31.997 73.104,-39.417 2.726,-1.052 7.744,-3.132 11.152,-4.624 3.408,-1.492 20.84,-6.499 38.74,-11.127 l 32.547,-8.415 59.143,0.523 c 45.643,0.403 62.68,1.453 74.632,4.6 a 2689,2689 0 0 0 30.078,7.7 c 8.025,1.994 20.778,6.454 28.34,9.913 7.562,3.459 15.427,6.29 17.478,6.29 2.051,0 4.332,0.974 5.069,2.165 0.736,1.191 7.214,4.954 14.395,8.362 41.06,19.487 99.627,69.74 128.557,110.307 8.03,11.26 14.6,21.096 14.6,21.857 0,0.761 3.345,6.246 7.434,12.19 4.089,5.942 7.434,12.104 7.434,13.693 0,1.588 2.364,6.207 5.253,10.265 2.89,4.057 6.671,12.035 8.404,17.729 3.083,10.126 6.859,19.985 11.654,30.428 1.315,2.863 2.78,8.439 3.255,12.39 1.302,10.821 3.641,20.721 8.137,34.443 3.251,9.922 4.06,23.005 4.06,65.67 0,48.135 -0.567,55.431 -5.876,75.581 -3.232,12.267 -6.165,24.75 -6.519,27.74 -0.795,6.735 -15.626,45.784 -18.544,48.83 -1.233,1.286 -8.73,-4.517 -17.75,-13.737 -8.588,-8.78 -20.81,-20.147 -27.157,-25.26 -6.348,-5.112 -15.627,-13.149 -20.62,-17.858 -4.993,-4.709 -10.163,-8.563 -11.486,-8.563 -1.323,0 -3.753,-1.131 -5.4,-2.513 -4.408,-3.701 -21.543,-14.85 -31.49,-20.489 -39.427,-22.35 -71.09,-34.558 -132.579,-51.122 -19.12,-5.15 -51.247,-7.9 -92.567,-7.921 -45.889,-0.025 -76.135,3.076 -104.441,10.707 -10.223,2.756 -22.083,5.848 -26.357,6.873 -19.19,4.6 -67.007,25.36 -98.788,42.89 -12.256,6.76 -43.36,27.622 -49.801,33.404 -2.622,2.353 -10.332,8.72 -17.133,14.15 -6.801,5.43 -19.133,16.86 -27.407,25.4 -8.273,8.541 -15.595,15.53 -16.27,15.53 -0.677,0 -3.89,-6.413 -7.142,-14.25 m 80.582,-78.67 c 64.24,-43.07 137.929,-69.97 214.643,-78.353 31.666,-3.46 102.537,-1.506 129.856,3.582 88.291,16.444 167.027,53.019 229.714,106.708 10.516,9.007 20.23,16.376 21.588,16.376 2.452,0 3.713,-3.81 11.478,-34.694 6.151,-24.462 7.71,-101.257 2.647,-130.418 -7.77,-44.763 -29.293,-98.39 -55.017,-137.092 C 680.73,113.072 592.733,55.15 504.066,39.004 c -23.937,-4.358 -101.781,-4.42 -124.956,-0.1 -68.082,12.692 -132.858,47.303 -183.716,98.16 -40.763,40.764 -67.43,83.818 -85.71,138.377 -19.961,59.58 -21.878,144.72 -4.524,200.906 l 5.051,16.355 19.124,-16.198 c 10.518,-8.91 31.39,-24.423 46.383,-34.475"
     style="fill:#000000;stroke-width:2.4781"
     id="path1" /><path
     d="m 148.078,355.065 c -0.943,-2.457 0.085,-14.957 3.541,-43.068 2.75,-22.363 3.19,-24.346 9.858,-44.461 6.438,-19.422 6.816,-20.303 18.853,-43.9 11.967,-23.462 24.63,-42.57 37.219,-56.164 4.343,-4.69 9.969,-10.868 12.502,-13.73 4.385,-4.956 15.478,-15.446 24.488,-23.16 2.293,-1.962 11.397,-8.363 20.23,-14.223 8.833,-5.86 17.576,-11.698 19.429,-12.974 6.02,-4.147 24.856,-13.16 34.396,-16.458 20.665,-7.145 28.055,-9.54 37.426,-12.129 38.89,-10.741 85.857,-12.242 128.153,-4.094 10.167,1.958 24.954,6.124 37.923,10.682 6.113,2.15 14.352,4.954 18.307,6.233 13.745,4.444 40.355,19.683 62.63,35.868 11.143,8.095 29.956,24.864 34.707,30.934 1.407,1.799 4.65,5.336 7.207,7.862 10.707,10.58 24.943,29.894 34.229,46.439 16.452,29.313 29.626,61.967 32.448,80.43 0.712,4.653 2.234,13.757 3.382,20.23 2.906,16.378 4.627,43.994 2.877,46.161 -0.755,0.936 -2.885,1.524 -4.734,1.308 -3.35,-0.391 -3.37,-0.469 -5.537,-21.316 -1.197,-11.507 -3.433,-27.101 -4.97,-34.653 -3.662,-17.988 -13.187,-46.147 -20.448,-60.447 -3.185,-6.275 -5.792,-12.09 -5.792,-12.922 0,-3.06 -13.496,-24.411 -23.057,-36.476 -5.414,-6.833 -10.954,-14.203 -12.31,-16.378 -3.394,-5.445 -40.36,-39.464 -48.987,-45.083 -16.587,-10.805 -32.67,-20.382 -40.241,-23.963 -28.429,-13.447 -33.082,-15.135 -53.903,-19.55 -57.254,-12.138 -83.96,-12.049 -140.636,0.473 -24.054,5.314 -50.639,16.733 -75.131,32.27 -5.754,3.65 -13.807,8.762 -17.896,11.36 -8.042,5.11 -49.45,43.441 -49.45,45.776 0,0.782 -1.786,3.588 -3.968,6.236 -18.874,22.897 -30.052,42.046 -41.865,71.72 -11.495,28.872 -19.525,65.133 -19.542,88.241 0,7.45 -0.59,12.416 -1.578,13.404 -2.276,2.276 -8.826,1.955 -9.76,-0.478 m 118.119,-0.137 c -0.478,-0.477 -0.868,-16.246 -0.868,-35.041 0,-24.837 0.429,-34.603 1.57,-35.744 1.998,-1.999 141.674,-2.292 142.905,-0.3 0.431,0.699 -0.137,3.052 -1.264,5.231 l -2.049,3.962 h -63.139 c -48.467,0 -63.65,0.38 -65.336,1.634 -1.915,1.425 -2.24,5.145 -2.538,29.024 l -0.341,27.389 -4.037,2.356 c -2.22,1.296 -4.426,1.966 -4.903,1.49 m 321.802,-9.029 -3.596,-1.947 v -16.709 c 0,-11.331 -0.526,-17.41 -1.635,-18.889 -1.31,-1.748 -4.356,-2.252 -15.365,-2.538 l -13.73,-0.357 v -10.461 h 19.338 c 15.76,0 19.57,0.362 20.592,1.96 1.685,2.637 1.03,50.008 -0.7,50.51 -0.72,0.208 -2.926,-0.497 -4.904,-1.569 M 314.002,318.36 c 0.359,-17.812 0.418,-18.139 3.38,-18.559 5.863,-0.83 6.793,1.554 6.793,17.428 0,15.732 -0.37,16.711 -6.91,18.353 l -3.628,0.91 z m 225.38,10.544 c -1.694,-1.694 -2.055,-5.668 -2.055,-22.622 0,-14.254 -0.482,-21.05 -1.57,-22.138 -1.128,-1.128 -9.931,-1.569 -31.354,-1.569 h -29.785 l -2.114,-3.227 c -1.163,-1.775 -1.894,-3.889 -1.625,-4.698 0.669,-2.006 71.469,-1.723 73.902,0.297 1.295,1.074 1.7,7.91 1.7,28.711 0,26.093 -0.112,27.301 -2.523,27.301 -1.387,0 -3.446,-0.924 -4.576,-2.055 m -149.053,-8.218 c -0.336,-0.543 1.388,-2.063 3.83,-3.378 8.314,-4.478 22.861,-25.582 22.861,-33.167 0,-3.987 3.533,-6.797 8.547,-6.797 5.572,0 7.145,-2.67 7.145,-12.134 0,-7.977 -2.103,-10.9 -8.363,-11.621 -3.28,-0.378 -3.986,-1.224 -5.274,-6.327 -0.818,-3.24 -3.411,-8.686 -5.762,-12.103 l -4.275,-6.213 4.318,-5.2 c 4.698,-5.658 6.403,-6.288 8.895,-3.286 0.895,1.08 2.752,1.962 4.126,1.962 4.674,0 15.63,-6.565 17.881,-10.715 4.2,-7.74 7.051,-9.916 14.103,-10.76 10.454,-1.249 10.656,-0.394 5.164,21.882 -2.752,11.166 -4.66,22.149 -4.66,26.837 0,9.71 2.976,22.01 7.525,31.104 2.899,5.795 1.491,8.344 -4.606,8.344 -6.845,0 -8.149,1.788 -8.149,11.174 0,11.267 1.48,12.364 16.695,12.364 10.687,0 12.522,0.37 17.836,3.596 3.259,1.978 5.943,4.051 5.966,4.607 0.022,0.557 -4.814,0.557 -10.747,0 -13.454,-1.26 -76.393,-1.332 -85.617,-0.096 -3.756,0.503 -7.103,0.47 -7.439,-0.074 z m 70.943,-16.79 c -0.715,-0.859 -1.107,-2.918 -0.872,-4.576 0.36,-2.545 1.445,-3.149 6.966,-3.88 9.612,-1.274 59.863,-1.24 61.885,0.043 1.041,0.66 1.562,2.867 1.307,5.537 l -0.424,4.44 h -33.781 c -24.599,0 -34.135,-0.425 -35.081,-1.563 M 313.713,270.415 c 0,-3.812 0.706,-7.637 1.57,-8.5 1.17,-1.17 15.308,-1.57 55.551,-1.57 h 53.982 l 0.82,3.267 c 1.867,7.44 3.537,7.195 -49.175,7.195 h -48.488 l -3.03,3.27 c -1.99,2.147 -4.436,3.268 -7.13,3.268 -4.079,0 -4.1,-0.035 -4.1,-6.93 m 56.489,-30.583 c -2.803,-0.38 -6.392,-2.57 -10.222,-6.241 -5.277,-5.056 -5.86,-6.191 -5.489,-10.7 0.39,-4.749 0.645,-5.021 4.337,-4.64 2.724,0.283 5.431,2.156 8.859,6.13 5.046,5.853 15.739,11.119 22.575,11.119 3.7,0 4.334,2.115 0.931,3.103 -3.836,1.114 -16.413,1.85 -20.991,1.23 m 12.164,-12.748 c -3.148,-1.145 -7.573,-4.533 -11.115,-8.513 -3.586,-4.028 -6.971,-6.61 -8.667,-6.61 -7.168,0.002 -20.156,-8.167 -23.612,-14.85 -3.223,-6.233 -2.7,-19.01 1.05,-25.686 3.565,-6.34 12.054,-11.343 21.43,-12.628 l 5.876,-0.806 v -5.547 c 0,-3.051 0.837,-7.532 1.86,-9.957 1.953,-4.634 8.584,-11.58 13.42,-14.06 4.379,-2.246 17.416,-1.702 22.356,0.933 l 4.29,2.288 5.757,-5.362 c 5.285,-4.921 11.151,-8.388 20.705,-12.235 7.18,-2.892 18.258,-1.684 29.034,3.166 4.464,2.009 14.766,11.4 17.86,16.28 1.942,3.064 2.35,3.166 6.583,1.635 9.664,-3.495 17.152,-1.41 24.342,6.78 5.765,6.565 7.684,13.692 5.483,20.36 -1.423,4.312 -1.426,6.472 -0.017,12.345 1.41,5.876 1.406,8.196 -0.022,13.296 -2.34,8.36 -10.472,16.742 -18.267,18.83 -11.845,3.174 -25.655,-1.516 -30.955,-10.512 -1.767,-3 -3.074,-3.877 -5.006,-3.363 -15.3,4.068 -19.052,4.452 -26.493,2.707 l -7.507,-1.76 -2.995,3.788 c -1.647,2.084 -5.178,5.044 -7.846,6.578 -3.277,1.884 -5.912,4.96 -8.12,9.476 -6.1,12.475 -17.6,17.723 -29.423,13.427 z m 91.865,-2.192 c -1.978,-0.759 -3.593,-2.36 -3.589,-3.559 0.007,-2.41 2.503,-11.987 3.123,-11.987 0.215,0 2.394,1.03 4.842,2.287 6.444,3.31 22.621,3.164 28.276,-0.257 2.315,-1.4 4.564,-2.191 4.998,-1.758 1.653,1.653 -5.91,11.188 -10.732,13.53 -5.822,2.827 -21.455,3.84 -26.918,1.744 m -48.384,-12.524 c -3.294,-0.861 -2.876,-2.02 2.414,-6.704 8.12,-7.189 15.465,-4.44 9.715,3.636 -2.785,3.911 -5.893,4.697 -12.13,3.068 m 98.127,-15.503 c -0.391,-0.391 0.186,-3.775 1.284,-7.519 1.663,-5.674 1.734,-8.074 0.423,-14.42 -1.704,-8.248 -0.17,-16.58 3.05,-16.58 0.916,0 4.077,1.748 7.025,3.883 3.96,2.87 5.59,5.108 6.24,8.573 1.986,10.59 -1.91,18.888 -11.196,23.845 -6.153,3.284 -5.857,3.188 -6.826,2.218"
     style="fill:#000000;stroke-width:1.30768"
     id="path2" /></svg>
