<svg xmlns="http://www.w3.org/2000/svg" xml:space="preserve" width="872" height="889" viewBox="0 0 872 889"><path d="M403.87 782.949c-8.383-4.189-9.922-6.49-10.697-16.004-.863-10.593-.667-10.897 4.197-6.505 2.806 2.533 11.082 6.11 18.392 7.946 12.006 3.018 13.29 4.119 13.29 11.402 0 6.93-1.08 8.06-7.695 8.057-4.231-.002-12.1-2.206-17.486-4.896m39.17-2.826c0-8.521 3.896-11.859 13.841-11.859 2.745 0 8.191-2.518 12.104-5.595 9.326-7.337 10.427-7.093 10.427 2.31 0 10.676-10.707 20.165-24.905 22.069-11.235 1.507-11.466 1.367-11.466-6.925m-39.869-20.443c-9.516-5.024-10.491-6.605-10.491-17.006 0-9.762.61-10.96 4.105-8.06 2.257 1.874 10.126 4.936 17.486 6.805 12.678 3.219 13.427 3.94 14.25 13.722.814 9.683.379 10.318-6.995 10.202-4.324-.068-12.584-2.616-18.355-5.663m39.87-5.405c0-9.796.798-11.191 6.403-11.191 3.521 0 11.342-2.518 17.378-5.596 6.037-3.078 11.34-5.596 11.783-5.596 1.513 0 .813 13.517-.937 18.077-2.083 5.428-20.873 15.497-28.92 15.497-4.793 0-5.707-1.792-5.707-11.19m-84.802 2.59c-16.193-3.907-20.884-7.332-22.954-16.756-2.424-11.038-.08-13.256 7.12-6.74 3.975 3.598 11.866 5.653 25.897 6.745l20.18 1.57v8.394c0 7.636-.884 8.437-9.792 8.877-5.385.265-14.589-.675-20.451-2.09m124.462-5.667.908-9.513 18.618-1.601c10.511-.904 21.863-3.728 26.071-6.485l7.454-4.884-.89 9.147c-1.166 11.959-12.42 18.6-35.626 21.026l-17.443 1.824zm-232.711-.045c-13.406-4.039-19.585-10.252-19.585-19.694 0-9.047 1.734-9.79 8.518-3.65 10.65 9.637 54.596 10.145 69.555.803 10.54-6.582 6.155-7.726-7.114-1.856-15.996 7.076-41.69 6.21-58.369-1.967l-11.191-5.487-.512-22.877-.512-22.877 8.906 5.224c17.98 10.548 59.733 9.534 72.205-1.753 4.478-4.052 4.746-2.198 4.311 29.872-.455 33.604-.592 34.29-7.972 39.798-8.875 6.624-42.51 9.202-58.24 4.464m56.287-48.808c11.583-5.99 8.638-7.948-4.008-2.664-5.572 2.328-18.396 4.233-28.498 4.233-10.1 0-22.925-1.905-28.497-4.233-11.564-4.832-15.846-3.602-6.016 1.727 16.237 8.802 50.873 9.286 67.019.937m265.464 48.904c-15.563-4.534-19.025-10.749-19.117-34.316l-.081-20.612 9.86 5.027c20.282 10.34 59.095 9.045 71.735-2.395 4.913-4.446 5.094-4.111 4.242 7.852-.831 11.673-1.72 12.924-13.48 18.969-10.228 5.257-16.002 6.29-30.776 5.502-10.002-.533-22.482-3.136-27.733-5.784-11.145-5.62-13.654-4.867-6.213 1.867 11.81 10.689 55.478 10.72 71.761.05l7.373-4.83-.91 9.276c-1.4 14.252-11.627 20.249-36.4 21.343-11.257.497-24.875-.38-30.26-1.949zm-157.937-14.275c-15.078-3.313-21.124-9.45-21.124-21.438 0-8.569.468-9.261 3.497-5.17 1.923 2.599 10.107 6.285 18.186 8.192 13.244 3.126 14.688 4.212 14.688 11.034 0 9.561-1.663 10.366-15.247 7.382m-55.939-2.19c-12.71-2.519-23.94-13.792-23.94-24.031 0-7.999 2.04-8.457 10.689-2.4 3.486 2.442 14.783 5.275 25.104 6.296l18.765 1.855v9.793c0 9.242-.55 9.817-9.793 10.234-5.386.243-14.757-.543-20.825-1.746m85.176-5.378c0-7.133 1.231-8.307 10.491-10 5.771-1.054 13.434-3.813 17.03-6.13 8.242-5.312 9.886-3.658 7.439 7.485-2.09 9.514-14.111 16.727-27.876 16.727-5.946 0-7.084-1.299-7.084-8.082m39.17-2.385v-11.264l17.605-1.12c12.546-.8 20.184-2.958 26.58-7.512l8.973-6.39v9.783c0 15.915-10.274 23.285-36.243 26l-16.916 1.767zm-271.39-5.06c-2.31-.488-9.06-1.684-15.002-2.658-13.193-2.162-24.169-12.467-24.169-22.69 0-6.988.368-7.229 4.897-3.203 6.175 5.49 24.104 10.468 37.77 10.489 9.703.014 10.492.624 10.492 8.11 0 4.8-1.8 8.785-4.425 9.792-2.434.934-4.638 1.552-4.897 1.373-.258-.178-2.359-.724-4.667-1.212m437.161-.359c-1.923-.752-3.497-4.857-3.497-9.123 0-7.534.54-7.806 18.837-9.515 12.413-1.159 21.479-3.711 26.58-7.483l7.742-5.724v7.263c0 10.976-4.573 17.34-14.667 20.409-12.065 3.668-30.625 5.881-34.995 4.173m-238.458-9.619c-11.13-4.44-16.844-11.147-16.844-19.766v-8.031l9.092 4.736c5.002 2.605 12.87 5.515 17.487 6.466 6.96 1.434 8.543 3.265 9.27 10.723.763 7.828.038 8.971-5.595 8.817-3.56-.097-9.595-1.423-13.41-2.945m33.517-6.67c0-8.004 1.046-9.792 5.73-9.792 3.152 0 10.943-2.518 17.313-5.596s11.975-5.596 12.455-5.596.873 3.208.873 7.128c0 8.858-11.148 19.583-22.772 21.908-13.247 2.65-13.6 2.44-13.6-8.052m-85.334 2.443c-15.04-4.473-23.782-12.28-23.782-21.238 0-4.25 1.17-5.086 4.896-3.494 9.642 4.12 32.834 9.699 40.314 9.699 9.16 0 11.855 3.594 9.558 12.749-2.037 8.114-9.532 8.666-30.986 2.284m126.369 2.686c-1.026-1.025-1.866-5.253-1.866-9.393 0-7.165.835-7.616 17.268-9.334 9.498-.993 21.458-4.277 26.58-7.299l9.311-5.494v7.866c0 10.415-7.406 16.627-25.598 21.469-16.632 4.426-22.92 4.961-25.695 2.185M569 700.956c-11.13-4.704-16.845-11.339-16.845-19.557v-7.658l10.053 5.125c20.317 10.358 59.22 9.207 71.739-2.123 4.637-4.197 4.941-3.847 4.941 5.69 0 14.986-8.654 19.583-38.825 20.623-13.27.457-27.248-.488-31.063-2.1m-381.962-6.972c-10.991-5.631-15.389-11.741-15.389-21.38 0-9.395-.097-9.379 12.278-2.078 5.39 3.18 16.793 6.504 25.34 7.387 15.455 1.595 15.541 1.656 15.541 11.004v9.401l-14.688-.016c-8.08-.01-18.466-1.953-23.082-4.318m457.446-4.786v-9.771l14.958-1.241c8.228-.682 20.257-3.862 26.732-7.065l11.774-5.825-.852 9.938c-1.23 14.357-11.554 21.122-34.456 22.58l-18.156 1.156zm-241.217-3.875-10.396-4.313.088-23.788c.082-22.115.42-23.488 4.8-19.534 2.592 2.34 10.693 5.757 18.002 7.594 12.007 3.017 13.29 4.118 13.29 11.401 0 6.933-1.077 8.059-7.694 8.044-4.232-.009-11.3-1.898-15.708-4.197-9.338-4.87-10.172-5.01-10.172-1.72 0 2.852 11.41 7.597 24.48 10.179 8.137 1.607 9.094 2.802 9.094 11.366 0 8.61-.772 9.555-7.694 9.426-4.232-.08-12.373-2.085-18.09-4.458m39.773-4.968c0-8.544.975-9.773 9.093-11.463 5-1.04 13.184-4.246 18.185-7.122l9.093-5.23v9.498c0 13.902-12.355 23.887-29.559 23.887-5.89 0-6.812-1.296-6.812-9.57m-69.946 5.227c-2.309-.484-9.06-1.677-15.002-2.65-12.998-2.13-24.168-12.456-24.168-22.341v-7.205l7.934 5.866c5.302 3.92 14.353 6.5 27.28 7.778 18.476 1.825 19.383 2.256 20.229 9.605.487 4.232-.354 7.694-1.87 7.694-1.515 0-4.431.48-6.48 1.067-2.05.586-5.615.67-7.923.186m112.613-.314c-1.924-.773-3.498-4.905-3.498-9.182 0-7.57.492-7.817 18.496-9.262 12.743-1.023 21.01-3.344 26.58-7.462l8.083-5.976v7.95c0 9.794-8.352 19.213-18.762 21.156-16.94 3.164-27.56 4.118-30.9 2.776m-231.429-6.756c-19.02-4.697-23.315-11.058-23.408-34.672l-.08-20.442 8.9 4.542c12.687 6.475 50.983 7.808 64.313 2.239 5.685-2.375 10.336-5.546 10.336-7.045 0-1.5-4.092-.62-9.093 1.956-6.272 3.229-16.037 4.681-31.476 4.681-18.578 0-24.166-1.108-32.874-6.523-8.238-5.121-10.492-8.278-10.492-14.689 0-8.154 3.63-10.81 7.101-5.194 5.81 9.401 49.953 11.945 66.99 3.86 15.394-7.304 11.548-9.338-6.244-3.303-36.282 12.307-87.688-8.125-58.055-23.075 11.493-5.798 55.647-5.8 67.148-.002l8.394 4.23.647 30.204.647 30.203-11.839 5.374c-14.683 6.665-45.44 7.314-59.92 1.263-5.573-2.328-10.747-3.619-11.498-2.868s4.583 3.915 11.853 7.031c18.508 7.934 41.642 7.559 58.444-.948l13.065-6.614v9.184c0 7.345-1.821 10.307-9.093 14.795-10.885 6.718-38.162 9.668-53.766 5.814zm323.401.357c-14.32-3.595-24-12.033-24.978-21.775l-.853-8.496 13.444 6.587c19.08 9.349 45.318 9.265 61.87-.198l12.056-6.892-.865 10.286c-.673 8.02-2.714 11.354-9.257 15.13-9.976 5.758-38.137 8.692-51.417 5.358m-384.863-9.815c-14.88-3.995-21.167-10.005-21.167-20.233 0-7.783-.864-7.723 12.59-.864 6.879 3.507 16.5 5.596 25.773 5.596h14.796v9.792c0 9.222-.53 9.782-9.093 9.604-5-.104-15.306-1.857-22.899-3.895m451.668-4.971v-9.778l19.496-1.395c11.528-.825 22.47-3.343 26.77-6.162l7.276-4.766-.891 9.147c-1.157 11.875-11.826 18.18-35.165 20.782l-17.486 1.95zm-517.6-1.441c-8.712-4.353-9.89-6.27-10.682-17.39-.848-11.898-.647-12.28 4.196-7.971 6.096 5.422 23.99 10.64 36.563 10.66 8.524.015 9.093.63 9.093 9.809v9.792l-14.689-.007c-8.377-.002-18.896-2.106-24.481-4.896zm576.354-4.178v-9.71l17.148-1.792c9.693-1.013 21.249-4.327 26.58-7.621l9.431-5.83v9.534c0 15.508-10.08 22.694-33.71 24.03l-19.449 1.099zM366.1 662.211c-13.474-2.003-28.05-9.559-30.437-15.778-2.43-6.334-2.174-18.751.36-17.447 15.21 7.83 27.02 11.676 39.17 12.76 14.56 1.297 14.689 1.39 14.689 10.754 0 5.196-1.156 9.446-2.57 9.446-1.412 0-4.245.434-6.294.965-2.05.53-8.763.215-14.918-.7m76.94-5.56c0-8.137 4.04-11.492 13.841-11.492 2.745 0 8.191-2.518 12.104-5.595 8.94-7.033 10.427-7.007 10.427.184 0 9.447-5.444 16.825-15.523 21.036-15.299 6.393-20.848 5.292-20.848-4.134zm41.066 6.259c-1.043-1.043-1.896-6.093-1.896-11.222 0-8.65.66-9.329 9.093-9.357 10.614-.035 34.768-6.927 40.264-11.488 3.08-2.556 3.802-1.313 3.802 6.546 0 9.703-4.223 15.474-15.388 21.025-7.344 3.652-33.448 6.923-35.875 4.496m86.635-9.436c-15.528-4.653-18.384-9.764-18.12-32.428.132-11.359.64-20.652 1.127-20.652s5.3 2.604 10.694 5.787c14.032 8.28 47.6 8.297 63.453.033l11.356-5.919-.88 8.866c-1.51 15.2-12.256 20.592-41.061 20.602-18.944.007-26.154-1.137-32.224-5.111-4.3-2.816-8.45-4.49-9.219-3.721s2.114 3.703 6.408 6.518c11.941 7.832 52.118 8.676 66.122 1.39l10.492-5.46v11.027c0 10.261-.826 11.402-11.89 16.424-12.683 5.757-41.37 7.105-56.258 2.644m-380.905-8.973c-10.72-3.85-18.186-12.37-18.186-20.753 0-7.733 1.958-8.194 8.739-2.058 2.74 2.48 13.856 5.906 24.701 7.614 18.951 2.984 19.72 3.408 19.72 10.879 0 7.44-.572 7.765-13.29 7.553-7.31-.121-17.067-1.577-21.684-3.235m454.649-4.193c0-8.247.35-8.454 17.486-10.387 9.618-1.085 21.67-4.555 26.783-7.71l9.297-5.738-.903 9.17c-1.31 13.305-11.548 19.78-34.14 21.594l-18.523 1.486zm-512.296-1.67c-11.944-5.36-16.495-10.507-16.495-18.65v-7.7l10.764 5.325c5.92 2.93 17.252 6.095 25.18 7.034 13.6 1.61 14.417 2.16 14.417 9.71 0 7.716-.48 7.996-13.29 7.777-7.31-.125-16.569-1.698-20.576-3.497m276.41-.975c-22.45-6.865-20.44-17.547 4.26-22.637 7.252-1.495 13.862-2.04 14.689-1.214s1.503 7.59 1.503 15.027c0 15.074-.007 15.077-20.452 8.824m34.442-9.237c0-13.574.266-14.043 7.976-14.043 13.385 0 25.598 5.538 25.598 11.608 0 5.468-9.26 10.711-25.88 14.653-7.614 1.805-7.694 1.678-7.694-12.218m260.198 5.542c0-7.138 1.07-8.393 7.155-8.393 10.506 0 32.44-5.886 39.92-10.713 6.398-4.127 6.492-4.037 5.596 5.356-.781 8.194-2.702 10.433-13.5 15.733-7.422 3.643-18.047 6.227-25.88 6.295-12.928.112-13.29-.114-13.29-8.278m-345-.207c-16.193-3.908-20.884-7.333-22.954-16.757-2.424-11.038-.08-13.256 7.12-6.739 3.975 3.597 11.866 5.652 25.897 6.744l20.18 1.571v8.394c0 7.635-.884 8.437-9.792 8.876-5.385.265-14.589-.675-20.451-2.09m124.465-5.703.905-9.478 18.618-1.601c10.277-.884 21.871-3.733 25.88-6.36 6.958-4.559 7.262-4.53 7.262.673 0 14.866-9.497 21.257-36.056 24.262l-17.515 1.981zm-290.688-6.194c-13.748-5.01-20.366-11.978-20.366-21.443 0-9.895-.616-9.698 11.461-3.66 5.238 2.618 16.763 5.288 25.61 5.932l16.088 1.171v21.711l-11.89-.213c-6.54-.118-15.947-1.691-20.903-3.498m452.469-6.751v-11.155l17.613-1.414c9.687-.777 21.728-3.542 26.758-6.143l9.145-4.729-.878 10.656c-.766 9.297-2.294 11.347-11.975 16.072-6.103 2.979-17.75 5.967-25.88 6.642l-14.783 1.225zm-509.206 1.564c-28.774-8.221-18.68-24.254 18.475-29.347l12.3-1.686v34.335l-10.491-.252c-5.77-.14-14.899-1.512-20.284-3.05m567.96-13.097c0-16.879.133-17.175 7.694-17.145 9.465.037 33.699 7.201 38.865 11.489 10.523 8.733-3.97 18.97-30.225 21.351l-16.334 1.481zm-347.81 8.121c-18.037-5.785-20.857-15.57-6.868-23.834 6.838-4.04 14.504-5.355 31.475-5.403 36.095-.102 54.877 13.092 36.127 25.377-8.379 5.49-47.833 7.998-60.734 3.86m104.667-.973c-34.794-12.2 2.917-34.884 45.517-27.38 20.012 3.525 29.098 10.617 24.533 19.148-5.704 10.658-48.715 15.713-70.05 8.232m110.483-6.782c-16.949-6.102-22.284-13.243-14.312-19.161 9.364-6.953 27.177-10.248 48.182-8.914 32.52 2.067 45.29 15.515 24.255 25.546-15.37 7.33-41.618 8.471-58.125 2.529m-359.759-5.09c-2.308-.488-9.059-1.684-15.001-2.658-13.193-2.162-24.169-12.466-24.169-22.69 0-6.988.368-7.229 4.897-3.203 6.175 5.49 24.104 10.468 37.77 10.489 9.703.014 10.492.624 10.492 8.11 0 4.8-1.8 8.785-4.425 9.792-2.434.934-4.638 1.552-4.897 1.373-.258-.178-2.359-.724-4.667-1.212m438.561-.657c-3.251-.673-4.896-3.636-4.896-8.818 0-7.605.475-7.844 18.495-9.29 12.744-1.023 21.01-3.344 26.58-7.462l8.084-5.977v7.95c0 10.708-8.908 19.583-21.672 21.592-17.548 2.762-21.493 3.059-26.591 2.005M199.63 575.575c-11.179-2.433-21.656-8.422-23.6-13.49-2.112-5.5 11.666-14.397 25.513-16.473 16.873-2.53 45.066.596 53.151 5.893 15.485 10.147 1.099 23.166-27.679 25.05-9.676.633-22 .192-27.385-.98m427.601-.875c-23.102-6.15-23.768-21.424-1.183-27.11 36.795-9.266 78.98 3.342 64.547 19.29-8.642 9.549-41.595 13.616-63.364 7.82m-258.709-66.055c-26.24-34.942-54.733-72.975-63.317-84.516-8.584-11.54-39.627-52.94-68.985-91.996-29.357-39.057-53.377-72.437-53.377-74.178s12.905-7.305 28.678-12.366l28.677-9.2 29.358 9.51 29.357 9.511 17.56 45.89c9.658 25.239 25.03 66.033 34.16 90.654s27.946 74.923 41.813 111.781 24.893 67.337 24.5 67.729c-.392.392-22.183-27.876-48.424-62.819m88.594 53.977c1.78-4.616 27.795-73.863 57.813-153.88 30.017-80.019 55.584-147.311 56.816-149.54s15.207-8.238 31.058-13.356l28.82-9.305 28.814 9.099c15.848 5.004 28.814 10.028 28.814 11.164 0 1.898-226.491 305.06-232.655 311.414-1.494 1.539-1.26-.98.52-5.596m-178.042-.19c5.994-2.197 12.604-5.41 14.689-7.14 3.026-2.512 3.791-1.666 3.791 4.19 0 7.01-.653 7.328-14.689 7.14l-14.688-.197zm294.781-2.608c-1.52-7.955-.237-8.625 6.06-3.163 2.43 2.108 8.194 5.156 12.81 6.774 8.165 2.862 8.04 2.948-4.57 3.163-11.682.199-13.095-.47-14.3-6.774m12.525-4.519c-10.908-5.397-11.84-6.72-11.84-16.814v-10.955l11.08 5.652c6.094 3.109 14.907 5.653 19.585 5.653 9.887 0 10.872 2.77 2.78 7.824-3.148 1.966-6.633 6.033-7.744 9.037-1.992 5.383-2.19 5.378-13.861-.397m-316.804-1.136c0-2.341-3.148-5.691-6.995-7.444-9.854-4.49-8.686-7.884 2.713-7.884 5.339 0 14.19-2.518 19.67-5.596s10.554-5.596 11.276-5.596c.723 0 1.314 4.315 1.314 9.59 0 7.027-1.97 11.138-7.372 15.388-8.725 6.863-20.606 7.752-20.606 1.542m174.14-149.694.724-149.338 27.979-9.465 27.978-9.466 27.547 8.934c24.812 8.047 27.41 9.528 26.177 14.922-2.124 9.285-107.57 290.19-109.75 292.371-.758.758-1.053-65.823-.655-147.958m-21.376 138.69c-1.387-5.525-99.822-268.6-106.351-284.232-1.438-3.443 4.03-6.193 26.952-13.553l28.756-9.232 27.978 9.494 27.978 9.495.725 147.448c.662 134.821-.528 162.533-6.038 140.58m-211.52-11.518c0-6.54.4-6.795 4.397-2.798 2.418 2.418 5.565 4.397 6.994 4.397 1.43 0 2.598 1.259 2.598 2.798s-3.147 2.798-6.994 2.798c-5.648 0-6.995-1.386-6.995-7.195m433.665 4.846c0-1.951 11.891-8.843 15.258-8.843.553 0 .346 2.518-.458 5.596-.947 3.621-3.817 5.596-8.132 5.596-3.667 0-6.668-1.057-6.668-2.35m-408.148-3.389c-18.91-3.84-25.517-9.364-25.517-21.34 0-9.496.32-9.872 4.896-5.741 12.365 11.162 51.943 13.19 71.083 3.643 11.497-5.736 11.249-5.85 10.232 4.695-.7 7.25-2.861 10.036-10.67 13.746-12.586 5.98-34.432 8.163-50.024 4.997m367.58 1.135c-4.617-.643-13.116-3.209-18.886-5.703-9.155-3.956-10.492-5.736-10.492-13.973v-9.44l9.093 4.87c12.632 6.765 53.036 6.81 65.61.072 11.499-6.16 12.23-6.06 10.821 1.498-.645 3.462-1.267 7.677-1.381 9.367-.52 7.674-35.02 16.058-54.766 13.309m-374.692-26.333c-21.186-5.311-24.043-13.235-7.466-20.71 21.905-9.878 71.128-4.102 75.12 8.814 3.023 9.78-43.481 17.956-67.654 11.896m366.298 1.255c-23.603-5.944-28.046-15.218-10.753-22.443 22.993-9.607 73.704-3.027 73.704 9.564 0 3.048-3.26 6.787-7.694 8.825-8.077 3.71-45.668 6.469-55.257 4.054M277.269 233.306c-13.465-4.497-24.481-9.26-24.481-10.586s12.978-24.853 28.84-52.283l28.842-49.872 34.352-.788 34.352-.787-1.575 7.782c-.865 4.28-4.208 27.279-7.428 51.108s-6.432 43.903-7.138 44.609c-1.766 1.765-57.403 19.878-59.553 19.387-.951-.218-12.747-4.074-26.211-8.57m259-.555c-14.124-4.766-26.33-9.331-27.125-10.144-1.088-1.113-15.742-96.514-15.742-102.488 0-.619 15.352-.772 34.117-.34l34.117.786 28.834 50.154c15.859 27.584 28.834 51.09 28.834 52.235 0 2.066-51.78 19.708-55.443 18.89-1.052-.235-13.468-4.327-27.592-9.093m-133.797-.984c-12.31-3.918-22.69-7.347-23.067-7.62-.376-.274 2.67-24.006 6.769-52.74l7.452-52.24h35.425v60.153c0 33.084-.944 60.022-2.098 59.861-1.154-.16-12.17-3.497-24.481-7.414m40.569-52.715V118.9l17.486.833 17.487.833 7.362 50.361c4.05 27.699 6.83 51.271 6.177 52.383-.652 1.113-5.854 3.312-11.56 4.887-5.705 1.576-16.353 4.698-23.663 6.937l-13.29 4.072zM231.804 191.91c24.585-24.621 45.174-44.766 45.754-44.766s-.756 2.833-2.968 6.296-12.074 20.49-21.917 37.842l-17.896 31.547-21.915 6.923c-12.054 3.808-22.78 6.923-23.837 6.923s18.194-20.144 42.779-44.765m426.98 37.921-20.675-6.158-20.478-34.767c-11.264-19.122-20.531-35.59-20.594-36.595-.064-1.006 18.874 17.04 42.084 40.103s41.78 42.302 41.268 42.754-10.235-1.95-21.605-5.337" style="fill:#000;stroke-width:2.79784"/></svg>