<?xml version="1.0" encoding="UTF-8" standalone="no"?>
<!-- Created with Inkscape (http://www.inkscape.org/) -->

<svg
   version="1.1"
   id="svg1"
   width="872"
   height="889"
   viewBox="0 0 872 889"
   sodipodi:docname="commercial.svg"
   inkscape:version="1.4.2 (f4327f4, 2025-05-13)"
   xml:space="preserve"
   xmlns:inkscape="http://www.inkscape.org/namespaces/inkscape"
   xmlns:sodipodi="http://sodipodi.sourceforge.net/DTD/sodipodi-0.dtd"
   xmlns="http://www.w3.org/2000/svg"
   xmlns:svg="http://www.w3.org/2000/svg"><defs
     id="defs1" /><sodipodi:namedview
     id="namedview1"
     pagecolor="#ffffff"
     bordercolor="#000000"
     borderopacity="0.25"
     inkscape:showpageshadow="2"
     inkscape:pageopacity="0.0"
     inkscape:pagecheckerboard="true"
     inkscape:deskcolor="#d1d1d1"
     inkscape:zoom="0.92822679"
     inkscape:cx="-63.023391"
     inkscape:cy="502.57114"
     inkscape:window-width="3440"
     inkscape:window-height="1369"
     inkscape:window-x="1737"
     inkscape:window-y="1432"
     inkscape:window-maximized="1"
     inkscape:current-layer="g1" /><g
     inkscape:groupmode="layer"
     inkscape:label="Image"
     id="g1"><circle
       style="fill:none;stroke:#000000;stroke-width:18;stroke-dasharray:none;stroke-opacity:1"
       id="path2"
       cx="438.49911"
       cy="448.88046"
       r="417.83762" /><path
       style="fill:#000000;stroke-width:2.79784"
       d="m 403.87086,782.94855 c -8.38432,-4.18845 -9.92261,-6.48971 -10.69776,-16.00368 -0.86298,-10.59261 -0.66691,-10.89658 4.19676,-6.50526 2.80615,2.53361 11.08245,6.10961 18.3918,7.94668 12.00664,3.0176 13.28974,4.11841 13.28974,11.40145 0,6.93006 -1.07978,8.06077 -7.69406,8.05703 -4.23173,-0.002 -12.10065,-2.20567 -17.48648,-4.89622 z m 39.16972,-2.82524 c 0,-8.5217 3.89504,-11.85904 13.8407,-11.85904 2.74423,0 8.19073,-2.51805 12.10328,-5.59567 9.32647,-7.33622 10.4279,-7.09222 10.4279,2.31012 0,10.67657 -10.70774,20.1649 -24.90554,22.06922 -11.23493,1.50691 -11.46634,1.36715 -11.46634,-6.92463 z m -39.86917,-20.44306 c -9.51643,-5.02388 -10.4919,-6.60499 -10.4919,-17.00595 0,-9.76193 0.61044,-10.96047 4.10507,-8.06018 2.2578,1.87379 10.12672,4.93587 17.48648,6.80456 12.67837,3.21911 13.42702,3.94009 14.24976,13.72267 0.81427,9.68216 0.37877,10.31736 -6.9946,10.20142 -4.32462,-0.068 -12.58428,-2.61616 -18.35481,-5.66252 z m 39.86917,-5.40517 c 0,-9.79648 0.79806,-11.19134 6.40301,-11.19134 3.52165,0 11.34202,-2.51806 17.3786,-5.59568 6.03657,-3.07762 11.33888,-5.59568 11.78292,-5.59568 1.51335,0 0.81296,13.51689 -0.93666,18.07628 -2.08321,5.42878 -20.8732,15.49777 -28.92073,15.49777 -4.79312,0 -5.70714,-1.79238 -5.70714,-11.19135 z m -84.80169,2.5901 c -16.19265,-3.90744 -20.884,-7.33207 -22.95387,-16.75607 -2.42435,-11.038 -0.0808,-13.25616 7.12007,-6.73941 3.97478,3.59713 11.86565,5.6521 25.89715,6.7443 l 20.18051,1.57082 v 8.3935 c 0,7.63541 -0.88444,8.43711 -9.79242,8.87623 -5.38583,0.26552 -14.58899,-0.6747 -20.45144,-2.08937 z m 124.46222,-5.66702 0.9081,-9.51334 18.61771,-1.60124 c 10.51113,-0.90398 21.86324,-3.72774 26.07145,-6.48504 l 7.45368,-4.88385 -0.89088,9.14682 c -1.16479,11.959 -12.41848,18.60127 -35.62482,21.0268 l -17.4433,1.82319 z m -232.71128,-0.0455 c -13.40581,-4.03822 -19.58486,-10.25163 -19.58486,-19.69368 0,-9.04721 1.73365,-9.79023 8.51781,-3.65062 10.64989,9.63798 54.59607,10.1456 69.5553,0.80341 10.53917,-6.58182 6.15538,-7.72566 -7.11365,-1.85613 -15.9964,7.07595 -41.69002,6.21021 -58.36919,-1.96673 l -11.19136,-5.48656 -0.51169,-22.87702 -0.5117,-22.87702 8.90522,5.22409 c 17.98009,10.54776 59.73323,9.53382 72.2055,-1.75346 4.47783,-4.05236 4.7455,-2.19764 4.31103,29.87225 -0.45528,33.60365 -0.59264,34.28945 -7.97254,39.79792 -8.87436,6.62393 -42.51018,9.2018 -58.23987,4.46355 z m 56.28691,-48.80809 c 11.58343,-5.99002 8.6384,-7.94762 -4.00749,-2.66383 -5.57267,2.32841 -18.39669,4.2335 -28.4978,4.2335 -10.10112,0 -22.92516,-1.90509 -28.49782,-4.2335 -11.56338,-4.83146 -15.84558,-3.60206 -6.01533,1.727 16.23697,8.80216 50.87229,9.28632 67.01844,0.93683 z m 265.46434,48.90468 c -15.56305,-4.53458 -19.02504,-10.74888 -19.11748,-34.3161 l -0.0808,-20.61219 9.85972,5.02675 c 20.28252,10.34064 59.09503,9.04494 71.73579,-2.39477 4.91296,-4.44619 5.0939,-4.11126 4.24192,7.85252 -0.83123,11.6726 -1.72032,12.92366 -13.48018,18.96827 -10.2283,5.25736 -16.00204,6.28957 -30.77621,5.50203 -10.00228,-0.53322 -22.48217,-3.13604 -27.73309,-5.78413 -11.145,-5.6205 -13.65382,-4.86637 -6.21296,1.86751 11.81073,10.68856 55.47867,10.71902 71.76158,0.05 l 7.37305,-4.83104 -0.91105,9.27679 c -1.39974,14.25243 -11.62631,20.24904 -36.39874,21.34327 -11.25801,0.4973 -24.87566,-0.37977 -30.2615,-1.94902 z M 413.80351,736.97356 c -15.07787,-3.31291 -21.124,-9.4488 -21.124,-21.43753 0,-8.56905 0.46819,-9.26115 3.4973,-5.16962 1.92352,2.59818 10.10719,6.28434 18.18594,8.19145 13.24382,3.12645 14.68865,4.21176 14.68865,11.0338 0,9.56131 -1.66357,10.36666 -15.24789,7.3819 z m -55.93815,-2.18868 c -12.70994,-2.51983 -23.94042,-13.79334 -23.94042,-24.03217 0,-7.99868 2.04046,-8.45665 10.68896,-2.399 3.48611,2.44178 14.78273,5.27459 25.10362,6.29512 l 18.76523,1.85559 v 9.79244 c 0,9.24203 -0.55038,9.81722 -9.79242,10.23387 -5.38583,0.24284 -14.75709,-0.54285 -20.82497,-1.74585 z m 85.17522,-5.37882 c 0,-7.1333 1.23175,-8.30722 10.4919,-9.99942 5.77052,-1.0545 13.43391,-3.81325 17.02974,-6.13058 8.24227,-5.31172 9.8856,-3.65818 7.43829,7.48449 -2.08966,9.51404 -14.11061,16.72765 -27.87547,16.72765 -5.94574,0 -7.08446,-1.2991 -7.08446,-8.08214 z m 39.16972,-2.38471 v -11.26399 l 17.6055,-1.12103 c 12.54587,-0.79886 20.18451,-2.95745 26.57946,-7.51104 l 8.97394,-6.39001 v 9.78308 c 0,15.91454 -10.27399,23.28462 -36.24292,25.9989 l -16.91598,1.76807 z M 210.82011,721.9618 c -2.30822,-0.48842 -9.05878,-1.68483 -15.00124,-2.65869 -13.1924,-2.16198 -24.16848,-12.46664 -24.16848,-22.69004 0,-6.98841 0.36741,-7.22879 4.89622,-3.20309 6.17577,5.48973 24.10403,10.4682 37.77079,10.48853 9.70262,0.0141 10.49189,0.62452 10.49189,8.1098 0,4.79982 -1.80122,8.78533 -4.42558,9.79242 -2.43406,0.93403 -4.63737,1.55219 -4.89622,1.37368 -0.25881,-0.1785 -2.35917,-0.72417 -4.66738,-1.21261 z m 437.16203,-0.35969 c -1.92351,-0.752 -3.49729,-4.85738 -3.49729,-9.12305 0,-7.53367 0.53941,-7.80616 18.83752,-9.51486 12.41218,-1.15906 21.47821,-3.71143 26.57944,-7.48292 l 7.74193,-5.72387 v 7.26228 c 0,10.97676 -4.57278,17.33969 -14.66716,20.40901 -12.06416,3.66823 -30.62475,5.88177 -34.99444,4.17341 z m -238.45809,-9.61913 c -11.12918,-4.44042 -16.84454,-11.14692 -16.84454,-19.76568 v -8.03173 l 9.09297,4.73665 c 5.00113,2.60516 12.87005,5.51477 17.48648,6.46578 6.96009,1.43381 8.54322,3.26508 9.27025,10.72327 0.76302,7.82771 0.0373,8.97119 -5.59568,8.81685 -3.55983,-0.0976 -9.59409,-1.42287 -13.40948,-2.94514 z m 33.51653,-6.66993 c 0,-8.0042 1.04653,-9.79243 5.73081,-9.79243 3.15196,0 10.94261,-2.51806 17.31254,-5.59568 6.36994,-3.07762 11.97474,-5.59568 12.45513,-5.59568 0.48036,0 0.8734,3.20767 0.8734,7.12816 0,8.85746 -11.14857,19.58263 -22.77219,21.90736 -13.24725,2.64944 -13.59969,2.44078 -13.59969,-8.05173 z m -85.33402,2.44342 c -15.03923,-4.47373 -23.78162,-12.28132 -23.78162,-21.23868 0,-4.25067 1.1698,-5.08531 4.89622,-3.49342 9.6422,4.11904 32.83415,9.69841 40.31377,9.69841 9.16068,0 11.85556,3.5947 9.55792,12.74926 -2.03644,8.11379 -9.53231,8.66642 -30.98629,2.28443 z m 126.36896,2.68594 c -1.02588,-1.02588 -1.86522,-5.25311 -1.86522,-9.39385 0,-7.16478 0.83454,-7.61588 17.26788,-9.3335 9.49735,-0.99268 21.4581,-4.27714 26.57945,-7.2988 l 9.31157,-5.49394 v 7.8655 c 0,10.41511 -7.40644,16.6267 -25.59868,21.46886 -16.63162,4.42681 -22.91909,4.96166 -25.695,2.18573 z m 84.92526,-9.48688 c -11.12975,-4.70358 -16.84456,-11.33835 -16.84456,-19.55613 v -7.6583 l 10.05297,5.12532 c 20.3165,10.35794 59.21898,9.20622 71.73858,-2.12384 4.63714,-4.19658 4.9414,-3.84622 4.9414,5.68962 0,14.98692 -8.65467,19.58426 -38.825,20.62375 -13.2695,0.45719 -27.24802,-0.488 -31.06339,-2.10042 z m -381.96228,-6.9719 c -10.99091,-5.63112 -15.38811,-11.74065 -15.38811,-21.38045 0,-9.39456 -0.0971,-9.37813 12.27789,-2.0767 5.38997,3.18016 16.79317,6.50387 25.34045,7.38604 15.45395,1.59499 15.54056,1.65631 15.54056,11.00492 v 9.40102 l -14.68864,-0.0168 c -8.07876,-0.009 -18.46572,-1.95239 -23.08215,-4.31756 z m 457.44635,-4.78522 v -9.7719 l 14.95857,-1.24051 c 8.22722,-0.68225 20.25657,-3.86171 26.7319,-7.06546 l 11.77333,-5.82498 -0.85192,9.93836 c -1.23064,14.35664 -11.55423,21.12204 -34.45608,22.58031 l -18.1558,1.15609 z m -241.21724,-3.87526 -10.39569,-4.31345 0.0885,-23.78741 c 0.0819,-22.11562 0.41943,-23.48852 4.79999,-19.53415 2.59145,2.33934 10.6921,5.75637 18.00145,7.59342 12.00664,3.01761 13.28974,4.11842 13.28974,11.40148 0,6.93318 -1.07681,8.05894 -7.69406,8.04412 -4.23173,-0.009 -11.30029,-1.89801 -15.70792,-4.19677 -9.33716,-4.86966 -10.17207,-5.01092 -10.17207,-1.72112 0,2.85277 11.41119,7.59753 24.48108,10.17927 8.13644,1.60718 9.09297,2.80287 9.09297,11.36626 0,8.60987 -0.77203,9.55565 -7.69406,9.42597 -4.23173,-0.0792 -12.37212,-2.08523 -18.08973,-4.45762 z m 39.77297,-4.96835 c 0,-8.54367 0.97526,-9.77309 9.09297,-11.46246 5.00113,-1.04079 13.1848,-4.24594 18.18594,-7.12252 l 9.09297,-5.2302 v 9.4982 c 0,13.90267 -12.35536,23.88712 -29.55943,23.88712 -5.89028,0 -6.81245,-1.29545 -6.81245,-9.57014 z m -69.94593,5.22712 c -2.30821,-0.48403 -9.05878,-1.67684 -15.00124,-2.65069 -12.99816,-2.13014 -24.16847,-12.45545 -24.16847,-22.34018 v -7.20551 l 7.93444,5.86618 c 5.30188,3.91986 14.35273,6.50044 27.27892,7.77782 18.47659,1.82585 19.38416,2.25679 20.22975,9.60569 0.48691,4.23172 -0.35437,7.69403 -1.86954,7.69403 -1.51517,0 -4.4316,0.47987 -6.48098,1.06636 -2.04938,0.58651 -5.61466,0.67034 -7.92288,0.18632 z m 112.61294,-0.31411 c -1.92351,-0.77266 -3.49729,-4.90464 -3.49729,-9.18217 0,-7.57048 0.49188,-7.8168 18.49542,-9.26194 12.74327,-1.02291 21.00961,-3.34344 26.57946,-7.4614 l 8.08402,-5.97676 v 7.94971 c 0,9.79475 -8.35236,19.21331 -18.76204,21.15712 -16.94076,3.16338 -27.55948,4.11717 -30.89957,2.77544 z m -231.42834,-6.75625 c -19.02118,-4.69676 -23.31567,-11.05759 -23.40828,-34.67142 l -0.0804,-20.44193 8.90005,4.54218 c 12.68757,6.4751 50.98323,7.8081 64.31299,2.23859 5.68492,-2.37534 10.33624,-5.54554 10.33624,-7.04493 0,-1.49938 -4.09184,-0.61937 -9.09296,1.9556 -6.27187,3.22926 -16.03724,4.6818 -31.47567,4.6818 -18.57848,0 -24.16592,-1.10873 -32.87458,-6.52333 -8.23714,-5.12144 -10.4919,-8.2781 -10.4919,-14.68863 0,-8.15419 3.63079,-10.81027 7.10125,-5.19491 5.81055,9.40167 49.95288,11.94569 66.99048,3.8608 15.39312,-7.3045 11.54791,-9.33877 -6.24418,-3.30348 -36.28199,12.30729 -87.6886,-8.12507 -58.05511,-23.07491 11.49317,-5.79821 55.64699,-5.80075 67.14809,-0.002 l 8.39349,4.23058 0.64707,30.20318 0.64702,30.20318 -11.83838,5.37397 c -14.68352,6.66552 -45.43997,7.31397 -59.92107,1.2634 -5.57268,-2.32842 -10.74655,-3.61908 -11.49749,-2.86816 -0.75091,0.75093 4.58288,3.91503 11.85289,7.03132 18.50829,7.93356 41.6422,7.55829 58.44444,-0.94808 l 13.06445,-6.61407 v 9.18374 c 0,7.34475 -1.82078,10.30736 -9.09297,14.79542 -10.88473,6.71746 -38.16143,9.66705 -53.7657,5.81399 z m 323.40108,0.35748 C 563.3591,675.27371 553.6802,666.83596 552.7023,657.09401 l -0.85284,-8.49605 13.44312,6.58681 c 19.08085,9.34919 45.31815,9.26524 61.87057,-0.19782 l 12.05563,-6.89227 -0.86429,10.28645 c -0.6738,8.01955 -2.71401,11.35395 -9.25776,15.13031 -9.97598,5.75708 -38.13687,8.6915 -51.4164,5.35768 z m -384.86336,-9.81552 c -14.87906,-3.99455 -21.16658,-10.00449 -21.16658,-20.23207 0,-7.78314 -0.86448,-7.7238 12.59026,-0.86417 6.87824,3.50671 16.49935,5.59567 25.77212,5.59567 h 14.79652 v 9.79242 c 0,9.22138 -0.53027,9.78141 -9.09297,9.60359 -5.00113,-0.1038 -15.30584,-1.85679 -22.89935,-3.89544 z m 451.66788,-4.97082 v -9.77789 l 19.49613,-1.39494 c 11.52827,-0.82483 22.46923,-3.34301 26.77088,-6.16153 l 7.27474,-4.7666 -0.89088,9.14682 c -1.15663,11.87517 -11.82546,18.18055 -35.1644,20.78251 l -17.48647,1.9495 z m -517.59986,-1.44114 c -8.71225,-4.35225 -9.89059,-6.27036 -10.68235,-17.3887 -0.84733,-11.89848 -0.64642,-12.28019 4.19674,-7.9721 6.09521,5.42175 23.98919,10.63934 36.56237,10.66091 8.52377,0.0141 9.09297,0.62858 9.09297,9.80804 v 9.79242 l -14.68865,-0.007 c -8.37692,-0.002 -18.89646,-2.10638 -24.48108,-4.89622 z m 576.35443,-4.17757 v -9.70959 l 17.14786,-1.79231 c 9.69243,-1.01304 21.24845,-4.3266 26.57945,-7.62134 l 9.4316,-5.82904 v 9.5329 c 0,15.50857 -10.08123,22.69485 -33.71031,24.03001 l -19.4486,1.09897 z m -337.13937,3.74723 c -13.4744,-2.00308 -28.0507,-9.55925 -30.43715,-15.77824 -2.43057,-6.3339 -2.17404,-18.75136 0.36042,-17.44674 15.20962,7.82925 27.01904,11.67599 39.16971,12.75903 14.56064,1.29783 14.68864,1.39152 14.68864,10.75522 0,5.19527 -1.15606,9.44598 -2.56899,9.44598 -1.41297,0 -4.24577,0.43387 -6.29515,0.96421 -2.04938,0.53034 -8.76223,0.21572 -14.91748,-0.69946 z m 76.94053,-5.56112 c 0,-8.13658 4.04005,-11.49066 13.8407,-11.49066 2.74423,0 8.19073,-2.51806 12.10328,-5.59567 8.94127,-7.03321 10.4279,-7.00699 10.4279,0.18381 0,9.447 -5.44485,16.82558 -15.52344,21.03669 -15.29904,6.39235 -20.84844,5.29192 -20.84844,-4.13428 z m 41.06539,6.25944 c -1.04261,-1.04265 -1.89567,-6.09246 -1.89567,-11.22182 0,-8.65035 0.65889,-9.32833 9.09297,-9.35642 10.61423,-0.0353 34.76754,-6.92708 40.2638,-11.48858 3.07995,-2.55611 3.80213,-1.31278 3.80213,6.5459 0,9.70315 -4.22356,15.474 -15.38811,21.02556 -7.34434,3.65197 -33.44761,6.92284 -35.87512,4.49536 z m 86.63503,-9.43551 c -15.52811,-4.65338 -18.38392,-9.7642 -18.12003,-32.42836 0.13234,-11.3584 0.63933,-20.65162 1.12682,-20.65162 0.48752,0 5.29998,2.60407 10.69432,5.7868 14.03236,8.27927 47.59896,8.29701 63.45281,0.0335 l 11.35615,-5.91916 -0.88043,8.86576 c -1.50946,15.20054 -12.25594,20.59254 -41.06097,20.60219 -18.94373,0.007 -26.15361,-1.13736 -32.22364,-5.1116 -4.3008,-2.81586 -8.44915,-4.49024 -9.21856,-3.72084 -0.76941,0.7694 2.11396,3.70282 6.4075,6.51868 11.9411,7.83148 52.11849,8.67578 66.1223,1.38955 l 10.4919,-5.459 v 11.02655 c 0,10.26051 -0.82607,11.40149 -11.89081,16.42397 -12.68284,5.75694 -41.36982,7.10497 -56.25736,2.64357 z m -380.90466,-8.9734 c -10.72004,-3.85052 -18.18595,-12.37033 -18.18595,-20.75307 0,-7.73273 1.95798,-8.19379 8.73834,-2.05765 2.74021,2.47983 13.85584,5.90606 24.70139,7.61382 18.95097,2.98404 19.71917,3.40786 19.71917,10.87925 0,7.44034 -0.57084,7.76479 -13.28972,7.55341 -7.30935,-0.12148 -17.06681,-1.5776 -21.68323,-3.23576 z m 454.64851,-4.19244 c 0,-8.24699 0.34947,-8.45458 17.48647,-10.38765 9.61756,-1.08485 21.66997,-4.55438 26.78314,-7.71002 l 9.29662,-5.73761 -0.90311,9.17042 c -1.31032,13.30486 -11.54759,19.77967 -34.14086,21.59325 l -18.52226,1.48681 z m -512.2963,-1.67112 c -11.94369,-5.35999 -16.4949,-10.50574 -16.4949,-18.64974 v -7.6999 l 10.76468,5.32593 c 5.92058,2.92929 17.25183,6.09425 25.18053,7.03329 13.59853,1.61055 14.41586,2.16113 14.41586,9.71115 0,7.71505 -0.47944,7.99561 -13.28974,7.77656 -7.30935,-0.12506 -16.56875,-1.69877 -20.57643,-3.49729 z m 276.41004,-0.97374 c -22.44964,-6.86536 -20.43931,-17.54697 4.26046,-22.63751 7.25171,-1.49455 13.86161,-2.04073 14.68864,-1.21368 0.82705,0.82704 1.50371,7.58899 1.50371,15.02657 0,15.07432 -0.007,15.07724 -20.45281,8.82462 z m 34.44199,-9.23761 c 0,-13.57421 0.26606,-14.04248 7.97603,-14.04248 13.38529,0 25.59801,5.53803 25.59801,11.6078 0,5.46834 -9.26039,10.71132 -25.87998,14.65255 -7.6139,1.80559 -7.69406,1.6783 -7.69406,-12.21787 z m 260.19884,5.54237 c 0,-7.13792 1.07025,-8.39351 7.15458,-8.39351 10.50553,0 32.43923,-5.88566 39.92079,-10.71231 6.39734,-4.12717 6.49143,-4.0371 5.59568,5.35567 -0.78144,8.19413 -2.70242,10.43265 -13.50133,15.7332 -7.42129,3.64264 -18.04642,6.22716 -25.88,6.29514 -12.92676,0.11214 -13.28972,-0.11389 -13.28972,-8.27819 z M 358.23889,633.7605 c -16.19265,-3.90744 -20.884,-7.33207 -22.95387,-16.75608 -2.42435,-11.038 -0.0808,-13.25616 7.12007,-6.7394 3.97478,3.59712 11.86565,5.6521 25.89715,6.7443 l 20.18051,1.57081 v 8.39351 c 0,7.63541 -0.88444,8.43711 -9.79242,8.87623 -5.38583,0.2655 -14.58899,-0.6747 -20.45144,-2.08937 z m 124.46493,-5.70272 0.90539,-9.47765 18.61771,-1.60123 c 10.27683,-0.88384 21.8713,-3.73302 25.87999,-6.35962 6.95794,-4.55903 7.26229,-4.53082 7.26229,0.67291 0,14.86627 -9.49732,21.2569 -36.05609,24.26169 l -17.51474,1.98154 z m -290.68786,-6.19336 c -13.74835,-5.01076 -20.36557,-11.97807 -20.36557,-21.443 0,-9.89511 -0.61684,-9.69809 11.46094,-3.66051 5.23756,2.61821 16.76224,5.2876 25.6104,5.93194 l 16.08756,1.17158 v 10.85508 10.85507 l -11.89081,-0.21292 c -6.53994,-0.11725 -15.94607,-1.69086 -20.90252,-3.49728 z m 452.46889,-6.75167 V 603.958 l 17.61291,-1.41382 c 9.6871,-0.77759 21.72825,-3.54191 26.75812,-6.14299 l 9.14523,-4.72918 -0.87815,10.65615 c -0.76607,9.29637 -2.29415,11.3472 -11.97497,16.07179 -6.10326,2.97864 -17.74925,5.96734 -25.87999,6.64159 l -14.78315,1.22595 z m -509.20634,1.56376 c -28.77391,-8.22074 -18.68015,-24.25349 18.47552,-29.34626 l 12.30069,-1.68597 v 17.1673 17.16732 l -10.4919,-0.25235 c -5.77053,-0.13877 -14.89848,-1.51131 -20.28431,-3.05007 z m 567.96091,-13.09605 c 0,-16.87914 0.1329,-17.17509 7.69406,-17.14532 9.46465,0.0373 33.69848,7.20084 38.86488,11.48859 10.52266,8.73303 -3.96984,18.97052 -30.22558,21.35127 l -16.33336,1.48107 z m -347.81012,8.12051 c -18.0374,-5.78533 -20.85747,-15.57067 -6.86877,-23.83399 6.83808,-4.03934 14.50453,-5.35539 31.47566,-5.40318 36.09476,-0.10155 54.87678,13.09199 36.12666,25.37753 -8.37862,5.48992 -47.83333,7.99726 -60.73355,3.85964 z M 460.09588,610.728 c -34.79401,-12.19958 2.91711,-34.8839 45.5174,-27.38003 20.01136,3.52495 29.0982,10.61721 24.53278,19.14782 -5.70413,10.6582 -48.71502,15.71281 -70.05018,8.23221 z m 110.48329,-6.78227 c -16.94911,-6.10147 -22.28368,-13.24307 -14.31264,-19.1609 9.36485,-6.95259 27.17771,-10.2478 48.18261,-8.91334 32.52046,2.06603 45.2897,15.51448 24.25506,25.5452 -15.36988,7.32937 -41.6178,8.47142 -58.12503,2.52904 z m -359.75906,-5.08886 c -2.30822,-0.48843 -9.05878,-1.68483 -15.00124,-2.65871 -13.1924,-2.16197 -24.16848,-12.46662 -24.16848,-22.69005 0,-6.9884 0.36741,-7.22876 4.89622,-3.20307 6.17577,5.48973 24.10403,10.4682 37.77079,10.48854 9.70262,0.0141 10.49189,0.6245 10.49189,8.10977 0,4.79984 -1.80122,8.78536 -4.42558,9.79244 -2.43406,0.93403 -4.63737,1.55219 -4.89622,1.37368 -0.25881,-0.1785 -2.35917,-0.72416 -4.66738,-1.2126 z m 438.56094,-0.6583 c -3.25102,-0.6724 -4.8962,-3.63535 -4.8962,-8.81799 0,-7.60496 0.47467,-7.84339 18.49544,-9.28992 12.74325,-1.02293 21.00959,-3.34346 26.57944,-7.46141 l 8.08401,-5.97678 v 7.94971 c 0,10.70806 -8.90763,19.58252 -21.67218,21.59153 -17.54801,2.76186 -21.49252,3.05926 -26.59051,2.00486 z M 199.62876,575.5758 c -11.17865,-2.43312 -21.65567,-8.42135 -23.60028,-13.4889 -2.11112,-5.50149 11.66653,-14.39758 25.51397,-16.47414 16.87294,-2.53025 45.0651,0.59586 53.15054,5.89366 15.48515,10.14629 1.09904,23.16563 -27.67894,25.04927 -9.67607,0.63335 -21.99946,0.19249 -27.38529,-0.97989 z m 427.60129,-0.87459 c -23.10214,-6.15105 -23.76846,-21.42371 -1.18281,-27.11086 36.79449,-9.26495 78.97979,3.34226 64.54718,19.29011 -8.64207,9.54939 -41.59581,13.61668 -63.36437,7.82075 z M 368.52142,508.6462 c -26.24091,-34.94267 -54.73377,-72.97481 -63.31748,-84.51589 -8.58373,-11.54108 -39.62674,-52.93954 -68.98448,-91.99659 -29.35777,-39.05702 -53.37772,-72.43691 -53.37772,-74.17747 0,-1.74054 12.90503,-7.30517 28.67783,-12.36581 l 28.67782,-9.20117 29.35745,9.51092 29.35749,9.51091 17.55992,45.88937 c 9.65797,25.23911 25.02978,66.03376 34.15958,90.65473 9.12979,24.62096 27.94584,74.92231 41.81339,111.78082 13.8676,36.85852 24.89274,67.3365 24.50035,67.7289 -0.3924,0.39236 -22.18327,-27.87604 -48.42415,-62.81872 z m 88.59387,53.97704 c 1.77946,-4.61642 27.79498,-73.86288 57.81226,-153.88102 30.01728,-80.01814 55.58446,-147.31067 56.81599,-149.53896 1.2315,-2.22828 15.20795,-8.23866 31.05877,-13.35638 l 28.81964,-9.30494 28.81414,9.09905 c 15.84779,5.0045 28.81415,10.0283 28.81415,11.16402 0,1.89777 -226.49157,305.0609 -232.65568,311.41392 -1.49306,1.53881 -1.25875,-0.97925 0.52073,-5.59569 z M 279.0731,562.43216 c 5.99352,-2.19645 12.60341,-5.40945 14.68863,-7.14003 3.02595,-2.51131 3.79133,-1.66533 3.79133,4.19066 0,7.01102 -0.65299,7.32841 -14.68865,7.14002 l -14.68865,-0.19725 z m 294.78105,-2.60678 c -1.52075,-7.95521 -0.23669,-8.62534 6.06013,-3.16293 2.4294,2.10743 8.19415,5.15559 12.81057,6.77371 8.1642,2.86166 8.03935,2.94809 -4.57004,3.16293 -11.68318,0.19892 -13.09564,-0.46999 -14.30066,-6.77371 z m 12.5249,-4.51915 c -10.9085,-5.39714 -11.84013,-6.7201 -11.84013,-16.81389 v -10.95581 l 11.07988,5.65253 c 6.09393,3.10889 14.90713,5.65255 19.58485,5.65255 9.88773,0 10.87252,2.77108 2.78067,7.82454 -3.14838,1.96619 -6.6335,6.03261 -7.74472,9.0365 -1.99152,5.38367 -2.18937,5.37801 -13.86055,-0.39642 z m -316.80436,-1.1365 c 0,-2.34121 -3.14757,-5.69088 -6.99461,-7.4437 -9.85425,-4.48993 -8.68632,-7.88442 2.71274,-7.88442 5.33903,0 14.19052,-2.51806 19.66996,-5.59568 5.47945,-3.07762 10.55385,-5.59567 11.27647,-5.59567 0.7226,0 1.31381,4.31518 1.31381,9.58936 0,7.02711 -1.96975,11.13875 -7.37191,15.3881 -8.72545,6.86343 -20.60646,7.7525 -20.60646,1.54201 z m 174.14059,-149.69421 0.72421,-149.3374 27.97839,-9.46531 27.97835,-9.46534 27.54655,8.93347 c 24.81262,8.04683 27.41064,9.52786 26.17685,14.92252 -2.12336,9.28431 -107.56947,290.19037 -109.74963,292.37051 -0.75841,0.75841 -1.05305,-65.82288 -0.65472,-147.95845 z M 422.33877,543.1657 c -1.38653,-5.52428 -99.82139,-268.5998 -106.35074,-284.2313 -1.43849,-3.44376 4.0295,-6.19342 26.95156,-13.55303 l 28.75614,-9.23274 27.97837,9.49474 27.97837,9.49475 0.7242,147.44739 c 0.6622,134.82167 -0.52803,162.53326 -6.0379,140.58019 z M 210.82011,531.64716 c 0,-6.54042 0.3997,-6.79473 4.3966,-2.79783 2.41812,2.41812 5.56568,4.3966 6.9946,4.3966 1.42888,0 2.59798,1.25903 2.59798,2.79784 0,1.53881 -3.14756,2.79784 -6.9946,2.79784 -5.64748,0 -6.99458,-1.38561 -6.99458,-7.19445 z m 433.66474,4.84569 c 0,-1.95088 11.89159,-8.84259 15.25781,-8.84259 0.55292,0 0.34684,2.51805 -0.45796,5.59567 -0.94695,3.62115 -3.81631,5.59568 -8.13158,5.59568 -3.66757,0 -6.66827,-1.05695 -6.66827,-2.34876 z m -408.14777,-3.38888 c -18.91092,-3.83972 -25.51697,-9.36439 -25.51697,-21.33997 0,-9.49633 0.32051,-9.87219 4.89621,-5.74127 12.36446,11.16251 51.94294,13.19093 71.08224,3.64301 11.49746,-5.73571 11.24899,-5.84973 10.23231,4.69479 -0.69904,7.25015 -2.86133,10.03598 -10.66916,13.74605 -12.58678,5.98089 -34.43248,8.16325 -50.02463,4.99739 z m 367.57914,1.13486 c -4.61644,-0.64268 -13.11488,-3.20879 -18.88542,-5.70241 -9.15486,-3.95609 -10.49188,-5.73673 -10.49188,-13.97321 v -9.43934 l 9.09296,4.86938 c 12.63191,6.76455 53.03656,6.80881 65.61023,0.0719 11.49878,-6.16102 12.22994,-6.05984 10.82117,1.4976 -0.64538,3.46232 -1.267,7.67768 -1.38134,9.36749 -0.51928,7.67385 -35.01944,16.05773 -54.76572,13.30864 z M 229.22514,507.90612 c -21.18611,-5.31132 -24.04298,-13.23556 -7.4666,-20.71046 21.90501,-9.87779 71.12863,-4.10185 75.12114,8.81479 3.02263,9.77891 -43.48175,17.95576 -67.65454,11.89567 z m 366.29755,1.25463 c -23.60261,-5.94417 -28.04546,-15.21734 -10.75256,-22.4428 22.99308,-9.60712 73.7039,-3.02662 73.7039,9.56421 0,3.04803 -3.26035,6.78732 -7.69406,8.82436 -8.07744,3.71117 -45.66819,6.46919 -55.25728,4.05423 z M 277.26874,233.30567 c -13.46459,-4.49618 -24.48107,-9.25976 -24.48107,-10.58565 0,-1.32593 12.97849,-24.85322 28.8411,-52.28291 l 28.84109,-49.87213 34.35186,-0.78754 34.35188,-0.78749 -1.5741,7.78208 c -0.86573,4.28016 -4.20852,27.27861 -7.42841,51.10762 -3.21987,23.82903 -6.43203,43.90324 -7.13815,44.60932 -1.76544,1.76547 -57.40268,19.87763 -59.55253,19.38675 -0.95182,-0.2174 -12.74708,-4.07384 -26.21167,-8.57005 z m 259.00016,-0.55462 c -14.12387,-4.76637 -26.32994,-9.33109 -27.12458,-10.14384 -1.08867,-1.11347 -15.74267,-96.51429 -15.74267,-102.48823 0,-0.61884 15.35282,-0.77164 34.11738,-0.33957 l 34.11741,0.78557 28.83392,50.1537 c 15.85867,27.5845 28.83395,51.09026 28.83395,52.23497 0,2.06594 -51.78058,19.70824 -55.44378,18.89038 -1.05155,-0.23475 -13.46778,-4.32662 -27.59163,-9.09298 z m -133.79695,-0.98414 c -12.3105,-3.91761 -22.69049,-7.34668 -23.06669,-7.62014 -0.3762,-0.27334 2.66965,-24.006 6.76853,-52.73897 l 7.45256,-52.24174 h 17.71253 17.71252 v 60.1535 c 0,33.08443 -0.94427,60.02224 -2.09838,59.86187 -1.1541,-0.16031 -12.1706,-3.49693 -24.48107,-7.41452 z m 40.56863,-52.71468 v -60.15319 l 17.48648,0.83297 17.48647,0.83297 7.36266,50.36106 c 4.04947,27.69859 6.82913,51.27112 6.177,52.3834 -0.65212,1.11229 -5.85385,3.31146 -11.55939,4.88701 -5.70557,1.57558 -16.35416,4.69715 -23.6635,6.93682 l -13.28972,4.07211 z m -211.2367,12.85759 c 24.58487,-24.62097 45.1741,-44.76539 45.75385,-44.76539 0.57971,0 -0.75556,2.83281 -2.96727,6.29513 -2.2117,3.46232 -12.07442,20.49133 -21.91715,37.84226 l -17.89588,31.54715 -21.91552,6.92311 c -12.05353,3.80772 -22.78005,6.92314 -23.83667,6.92314 -1.05664,0 18.19374,-20.14443 42.77864,-44.7654 z m 426.97975,37.92163 -20.67416,-6.1584 -20.47885,-34.76702 c -11.26339,-19.12187 -20.53064,-35.58975 -20.59393,-36.59529 -0.0632,-1.00557 18.87463,17.04112 42.08426,40.10371 23.20961,23.06258 41.78025,42.30175 41.26809,42.75371 -0.51217,0.45193 -10.23461,-1.94957 -21.60541,-5.33671 z"
       id="path1" /></g></svg>
