<svg xmlns="http://www.w3.org/2000/svg" xml:space="preserve" width="872" height="889" viewBox="0 0 872 889"><circle cx="438.499" cy="448.88" r="417.838" style="fill:none;stroke:#000;stroke-width:18;stroke-dasharray:none;stroke-opacity:1"/><path d="M339.192 808.288c-2.29-5.967.555-21.301 6.064-32.68 7.017-14.496 23.627-30.328 46.447-44.273 10.67-6.52 19.399-12.149 19.399-12.508s-8.779-5.956-19.508-12.436c-22.584-13.642-41.96-32.97-48.616-48.495-5.8-13.531-6.118-35.818-.738-51.718 5.133-15.17 28.74-38.914 52.334-52.638 15.222-8.855 16.958-10.52 13.275-12.73-53.123-31.896-67.478-49.292-69.133-83.777-.743-15.496-.035-19.582 5.373-31.015 7.7-16.276 29.71-37.05 51.456-48.565 8.535-4.519 15.526-8.908 15.537-9.754 0-.845-8.33-6.432-18.534-12.415-21.385-12.537-40.351-30.2-47.588-44.318-7.003-13.661-8.494-39.39-3.205-55.313 5.5-16.557 23.298-35.335 47.524-50.139 10.863-6.638 20.217-12.824 20.787-13.746s-5.039-5.076-12.463-9.232c-25.125-14.063-44.032-31.214-52.012-47.184-8.741-17.492-10.07-35.6-2.894-39.44 6.447-3.45 11.904 1.654 13.624 12.746 3.363 21.685 18.44 38.835 50.086 56.971l19.954 11.437.697 14.41.696 14.41-12.434 6.29c-41.305 20.891-58.914 41.334-58.7 68.149.115 14.509 6.041 26.947 18.482 38.794 9.93 9.456 33.862 25.388 45.177 30.075 7.006 2.902 7.254 3.502 7.19 17.393l-.065 14.388-20.36 11.582c-36.752 20.908-50.407 37.803-50.407 62.368 0 24.558 15.372 43.385 51.872 63.527l18.889 10.423v28.172l-18.126 10.005c-36.952 20.4-52.635 39.452-52.635 63.945s15.683 43.545 52.635 63.944l18.126 10.006v28.171l-18.889 10.424c-31.945 17.628-46.6 33.325-52.165 55.872-2.379 9.636-3.65 11.279-9.228 11.92-4.288.493-6.96-.534-7.924-3.046m25.388-2.98.743-6.456 31.106-.655 31.106-.655v14.222h-63.697zm79.389-.657v-7.113l29.932.657 29.932.657.743 6.456.743 6.456h-61.35zm70.684 1.985c-1.172-2.99-3.306-9.826-4.742-15.19-3.839-14.34-19.923-30.682-44.54-45.254l-21.402-12.668v-29.117l18.194-10.608c36.011-20.995 49.934-38.583 49.835-62.956-.099-24.6-13.658-41.608-49.835-62.518l-18.194-10.515v-29.698l19.104-11.019c35.093-20.242 48.977-37.864 48.977-62.168 0-24.292-13.41-41.17-49.531-62.347l-18.55-10.875v-29.978l9.977-5.073c14.74-7.496 34.768-21.639 43.312-30.587 15.623-16.363 19.498-41.625 9.341-60.906-6.42-12.186-26.932-29.46-47.79-40.244l-14.823-7.664v-31.269l18.007-9.883c31.232-17.14 49.89-38.739 50.022-57.902.064-9.264 7.831-15.833 14.5-12.264 3.226 1.726 4.333 5.016 4.333 12.876 0 22.732-15.207 44.58-44.396 63.783-11.311 7.441-22.588 14.883-25.06 16.536-2.536 1.696-3.418 3.504-2.024 4.15 14.45 6.687 35.411 21.315 46.938 32.754 19.789 19.638 23.368 27.91 23.368 53.995 0 18.735-.714 22.326-6.301 31.693-9.468 15.872-24.086 29.536-45.789 42.798-10.732 6.558-19.512 12.745-19.512 13.75 0 1.004 2.06 2.48 4.58 3.28 9.321 2.958 39.167 24.265 48.942 34.938 14.106 15.403 19.254 28.597 19.254 49.347 0 13.492-1.23 19.418-6.025 29.042-7.355 14.76-28.31 34.61-50.375 47.718-9.007 5.351-16.376 10.09-16.376 10.53 0 .441 7.528 5.274 16.729 10.74 20.9 12.417 40.235 29.921 48.355 43.776 5.01 8.548 6.425 14.44 7.251 30.172.916 17.447.375 20.879-5.034 31.91-7.866 16.044-26.468 34.07-48.52 47.014-9.684 5.685-17.607 11.282-17.607 12.437s6.798 5.822 15.107 10.37c18.463 10.109 40.523 30.042 48.712 44.014 4.464 7.617 6.157 13.942 6.348 23.711.252 12.853.033 13.35-6.175 14.064-4.928.567-6.936-.533-8.568-4.695zM373.54 781.049c0-3.035 5.702-5.117 11.014-4.021 3.117.643 2.217 1.6-3.384 3.598-4.692 1.674-7.63 1.837-7.63.423m-58.255-1.802-5.433-1.53 6.607-6.256c7.066-6.69 31.213-23.083 34.003-23.083.924 0-1.967 5.537-6.424 12.304-4.456 6.767-8.693 14.162-9.413 16.433-1.358 4.276-8.807 5.097-19.34 2.132m169.767-.35c-.798-1.291.662-2.348 3.244-2.348s5.349 1.057 6.146 2.348c.798 1.291-.662 2.348-3.244 2.348s-5.348-1.057-6.146-2.348m46.953-7.042c-2.455-5.444-7.92-13.158-12.145-17.143s-7.257-7.67-6.737-8.19 7.092 2.377 14.608 6.436c14.841 8.015 33.126 22.519 31.03 24.615-.717.717-6.026 1.951-11.798 2.742l-10.495 1.439zm-137.425-9.487c6.783-5.797 10.183-6.947 20.541-6.947 12.229 0 12.414.105 12.414 7.043v7.043l-20.541-.096-20.542-.095zm49.389-.195v-7.334l13.064 1.084c10.143.84 14.462 2.48 19.314 7.333l6.25 6.25H443.97zm-177.246-6.001c-2.582-.579-9.793-2.68-16.023-4.67l-11.328-3.619 5.076-5.404c2.793-2.972 12.986-9.418 22.653-14.325 23.956-12.16 41.35-13.46 60.279-4.505 7.311 3.459 13.293 7.126 13.293 8.15 0 4.69-10.504 14.366-21.598 19.895-10.116 5.04-15.209 6.028-29.924 5.802-9.753-.15-19.846-.746-22.428-1.324m287.584-2.006c-9.638-4.326-23.476-17.068-23.476-21.616 0-5.493 23.324-14.643 37.39-14.668 10.107-.019 16.659 1.896 31.693 9.257 10.424 5.104 22.104 11.857 25.956 15.006l7.004 5.726-12.873 4.072c-18.184 5.753-55.05 7-65.694 2.223m-187.565-29.683c-5.61-2.775-14.3-10.31-19.56-16.96-10.238-12.941-24.727-40.31-22.512-42.525 3.688-3.687 13.506 3.045 22.654 15.533 7 9.555 15.579 17.36 27.5 25.02 9.53 6.124 17.017 12.18 16.637 13.46s-3.826 4.158-7.659 6.396c-6.705 3.916-7.348 3.881-17.06-.924m117.325.19c-9.03-5.491-7.725-8.27 8.294-17.658 9.868-5.784 38.47-34.3 38.47-38.356 0-2.352 13.769-5.895 15.639-4.024.67.67-3.11 9.536-8.4 19.704-10.584 20.344-24.995 36.1-37.946 41.49-7.77 3.233-8.984 3.146-16.057-1.156m-270.825-6.932c-6.174-2.506-17.774-8.72-25.778-13.81l-14.554-9.253 6.326-2.406c28.7-10.911 57.958-13.485 71.817-6.319 4.253 2.2 11.912 7.775 17.019 12.388 7.815 7.06 8.815 8.957 6.316 11.978-9.911 11.979-40.713 15.718-61.146 7.422m393.3-.97c-6.78-3.157-12.326-6.948-12.326-8.427 0-3.977 13.584-15.948 24.498-21.589 12.777-6.603 35.268-6.323 57.574.717 9.178 2.897 17.175 6.057 17.772 7.023 1.522 2.463-19.895 15.826-35.944 22.426-18.06 7.428-35.405 7.377-51.574-.15m-309.816-12.929c-10.84-6.61-21.087-21.927-24.314-36.344-2.899-12.953-2.067-51.51 1.18-54.664 2.81-2.731 28.513 26.377 35.279 39.954 6.95 13.947 8.06 34.416 2.577 47.54-3.957 9.469-4.675 9.64-14.722 3.514m261.193-7.538c-4.767-16.054-4.56-22.687 1.187-38.048 5.53-14.78 34.179-47.911 38.067-44.023 1.252 1.252 2.32 13.196 2.372 26.54.101 25.653-3.127 38.869-12.358 50.605-5.868 7.459-18.65 17.09-22.68 17.09-1.637 0-4.601-5.474-6.588-12.164M392.94 674.87c-4.18-2.825-7.613-5.929-7.63-6.897-.024-.969 9.477-1.76 21.098-1.76h21.128v7.042c0 7.026-.033 7.043-13.499 6.897-9.83-.106-15.564-1.542-21.097-5.282m51.03-1.615v-7.043h19.954c10.976 0 19.942.792 19.926 1.76-.08 4.917-16.977 12.326-28.11 12.326-11.513 0-11.77-.154-11.77-7.043m-266.601 2.623c-12.411-3.193-29.9-14.035-42.93-26.615-12.274-11.851-12.432-12.17-7.042-14.269 3.032-1.18 15.549-2.29 27.815-2.466 20.117-.288 23.642.337 35.972 6.374 13.305 6.515 27.414 21.386 27.414 28.894 0 6.569-26.738 11.81-41.23 8.082m484.343-1.552c-6.134-1.958-11.152-4.427-11.152-5.485 0-3.697 13.724-20.83 20.333-25.387 15.742-10.85 39.557-14.108 67.703-9.26l11.738 2.02-15.26 13.912c-26.204 23.89-49.878 31.7-73.362 24.2m-428.477-6.357c-7.299-7.775-14.527-25.166-14.586-35.095-.028-4.778 1.132-14.207 2.58-20.953 2.682-12.51 14.842-41.961 17.324-41.961 2.533 0 15.554 31.548 18.847 45.664 4.77 20.45-.937 41.088-14.844 53.674-4.113 3.722-4.651 3.645-9.32-1.329m389.273-4.313c-14.303-19.744-14.974-40.987-2.26-71.529 9.95-23.897 12.065-25.04 18.533-10.004 14.513 33.737 15.632 58.739 3.503 78.312-3.84 6.199-8.247 11.688-9.792 12.199s-6.037-3.53-9.984-8.978m-312.354-30.631c-42.277-29.69-72.74-72.621-87.181-122.867-7.387-25.7-8.53-73.474-2.459-102.748 5.578-26.898 22.22-63.553 38.761-85.38 17.649-23.285 51.159-53.011 66.318-58.829 2.623-1.006 3.343 1.3 3.343 10.707 0 11.413-.3 11.99-6.239 11.99-7.752 0-26.965 14.523-40.938 30.944-11.094 13.038-27.927 37.18-27.94 40.07-.004.97 12.406 1.758 27.578 1.753l27.584-.009 10.96-23.468c6.027-12.907 12.068-23.468 13.423-23.468s3.966 2.865 5.8 6.367c3.07 5.86 2.815 7.308-3.21 18.194-12.916 23.34-13.654 22.392 17.417 22.392 22.433 0 28.355.764 34.394 4.436 11.02 6.702 5.478 8.322-33.003 9.65l-34.04 1.173-3.976 18.781c-2.187 10.33-4.3 26.704-4.697 36.388l-.72 17.608 8.803.728c8.012.663 8.804 1.35 8.804 7.63 0 6.51-.543 6.901-9.59 6.901h-9.591l1.649 17.597c.906 9.679 3.374 25.79 5.483 35.802l3.834 18.204 31.692 1.173c34.823 1.29 47.1 4.739 38.71 10.874-3.176 2.322-12.726 3.212-34.464 3.212-16.539 0-30.07.696-30.07 1.547 0 .85 3.814 9.16 8.476 18.467 8.3 16.57 8.391 17.05 4.398 23.145-5.525 8.432-7.816 6.057-20.192-20.922l-10.2-22.236h-27.768c-21.57 0-27.382.655-26.04 2.935 20.33 34.535 54.767 69.842 68.12 69.842 5.099 0 5.553.96 5.553 11.738 0 6.456-.362 11.738-.806 11.738-.443 0-8.532-5.426-17.976-12.059m-5.656-102.096c-2.988-7.785-8.429-44.166-8.429-56.356v-12.604h-32.866c-32.798 0-32.867.012-32.867 5.438 0 12.606 10.48 56.348 15.712 65.578.55.968 14.254 1.76 30.456 1.76 26.231 0 29.298-.418 27.994-3.816m-11.72-84.842c1.418-.95 3.268-11.233 4.111-22.854s2.996-27.282 4.784-34.804c2.493-10.48 2.596-13.927.441-14.753-1.545-.593-14.895-.778-29.664-.41l-26.855.667-5.329 15.948c-6.22 18.613-11.321 48.643-9.202 54.166 1.253 3.265 5.769 3.83 30.304 3.8 15.858-.019 29.992-.812 31.41-1.76m247.444 187.319c0-11.401.226-11.799 6.678-11.799 4.684 0 10.797-3.605 20.482-12.08 20.551-17.984 47.964-51.936 47.964-59.406 0-.71-12.138-1.29-26.974-1.29h-26.975l-7.178 15.831c-3.948 8.708-9.916 20.503-13.261 26.212l-6.084 10.38-3.894-7.53c-3.806-7.362-3.722-7.886 3.745-23.278 4.201-8.66 7.685-17.067 7.742-18.68.077-2.2-7.421-2.935-29.968-2.935-21.817 0-31.282-.886-34.487-3.23-4.19-3.063-4.037-3.427 2.956-7.043 5.686-2.94 14.3-3.813 37.637-3.813h30.264l2.605-8.803c3.909-13.212 7.491-37.778 7.511-51.506l.024-12.184-8.804-.728c-7.587-.628-8.904-1.6-9.532-7.035-.665-5.763.042-6.369 8.217-7.043l8.94-.737.729-12.891c.742-13.116-2.413-36.342-7.098-52.255l-2.592-8.804H516.22c-19.26 0-34.629-1.059-37.476-2.583-4.697-2.514-4.645-2.702 1.915-7.027 5.648-3.724 11.217-4.447 34.326-4.46 17.21-.009 27.585-.918 27.585-2.415 0-1.32-3.205-9.467-7.122-18.105-6.163-13.593-6.756-16.586-4.41-22.25 1.491-3.6 3.445-6.546 4.341-6.546 2.228 0 11.775 16.98 19.14 34.04L560.6 357.5l27.372.661c18.44.446 27.373-.166 27.373-1.873 0-6.247-18.778-31.06-37.727-49.85-18.017-17.865-21.773-20.54-28.83-20.54-8.102 0-8.115-.02-9.07-12.326-.526-6.779-.76-12.632-.522-13.007 1.018-1.602 19.854 10.713 34.895 22.813 65.945 53.053 95.078 142.744 73.032 224.838-10.126 37.704-26.545 67.704-51.604 94.286-13.64 14.469-36.539 33.108-47.668 38.8l-7.63 3.902zm90.17-116.855c3.324-10.007 6.632-23.476 7.351-29.932s1.759-14.643 2.31-18.194l1-6.456h-65.065l-1.656 18.194c-.91 10.007-3.148 25.394-4.97 34.194-1.824 8.8-3.316 16.987-3.316 18.194 0 1.243 12.642 2.194 29.153 2.194h29.152zm8.911-81.58c-.965-16.339-4.894-35.35-10.311-49.887l-4.593-12.325h-29.176c-16.526 0-29.177.952-29.177 2.194 0 1.207 1.482 9.394 3.294 18.194 1.811 8.8 4.044 23.924 4.961 33.608s2.157 18.43 2.756 19.434c.598 1.006 15.004 1.534 32.013 1.174l30.926-.654zM365.051 634.655c-.714-1.861-.932-5.294-.484-7.63.729-3.8 4.073-4.314 31.891-4.9l31.077-.655v16.57h-30.593c-24.477 0-30.852-.677-31.891-3.385m78.918-4.832v-8.357l29.932.657 29.932.657v14.086l-29.932.657-29.932.657zM181.45 616.067c-6.792-13.599-6.896-36.062-.236-50.804 6.569-14.538 23.431-40.103 25.577-38.776 3.876 2.395 9.586 30.009 9.812 47.45.187 14.426-.833 20.622-4.614 28.034-4.555 8.929-19.48 24.33-23.578 24.33-1.017 0-4.15-4.605-6.961-10.234m489.913 2.636c-14.22-13.044-17.314-21.246-17.054-45.223.15-13.905 1.776-25.898 4.75-35.08l4.522-13.95 8.762 11.936c14.799 20.16 21.55 37.283 21.568 54.701.023 15.11-5.997 32.772-11.754 34.531-1.342.41-6.2-2.701-10.794-6.915m-536.108 2.418c-9.002-3.146-21.65-12.211-30.066-21.549-10.042-11.14-20.408-25.346-20.408-27.967 0-1.487 7.293-1.83 19.943-.936 32.654 2.304 53.95 14.38 63.976 36.28 4.822 10.533 5.299 13.21 2.65 14.888-4.382 2.776-27.413 2.32-36.095-.716m564.794.653c-5.599-3.544 3.021-21.94 15.377-32.815 13.322-11.726 27.385-16.667 52.268-18.362l19.708-1.343-4.449 7.603c-8.781 15.006-29.927 35.958-41.932 41.548-12.27 5.714-34.393 7.533-40.972 3.369m-312.406-30.1c.044-4.295 19.072-12.325 29.205-12.325 10.308 0 10.686.25 10.686 7.043v7.043H407.58c-10.975 0-19.946-.792-19.936-1.76m56.325-5.282c0-6.667.508-7.043 9.512-7.043 9.009 0 27.99 8.346 28.031 12.325 0 .969-8.433 1.76-18.762 1.76h-18.781Zm-316.945-20.975c-18.496-5.626-35.87-22.293-49.086-47.089l-7.786-14.608 10.25 1.72c34.633 5.811 52.896 14.813 63.282 31.19 7.233 11.404 12.203 25.64 10.127 29-1.485 2.401-18.641 2.265-26.787-.213m590.511-.042c-3.164-5.12 3.91-23.447 13.067-33.849 5.298-6.018 13.961-12.352 21.092-15.42 12.555-5.4 44.174-12.907 46.13-10.952 1.959 1.96-9.073 21.77-19.57 35.144-13.06 16.639-27.297 25.035-45.205 26.659-9.4.852-14.319.35-15.514-1.582m-19.492-18.777c-20.89-15.134-28.354-37.432-24.007-71.722 1.281-10.102 2.974-18.988 3.762-19.746 2.655-2.555 24.619 24.322 31.822 38.94 8.707 17.67 9.743 37.256 2.699 50.987l-4.444 8.662zm-540.332-1.876c-5.627-12.321-5.703-28.883-.2-43.469 4.797-12.712 28.89-46.328 33.203-46.328 3.561 0 5.466 12.548 5.523 36.388.069 28.201-5.055 41.363-20.533 52.746-11.914 8.762-14.255 8.848-17.993.663m-40.408-40.486c-11.642-6.215-24.571-21.87-28.878-34.969-3.87-11.764-9.085-44.896-7.343-46.639 2.42-2.42 29.966 16.84 39.919 27.909 12.57 13.982 16.03 23.922 15.006 43.124-.874 16.39-4.243 18.294-18.704 10.575m616.962-.37c-4.709-17.59 2.556-40.674 17.53-55.7 8.337-8.366 33.263-26.108 36.68-26.108 3.003 0-.437 27.675-5.264 42.344-7.86 23.887-22.865 40.05-40.443 43.567-5.971 1.194-7.25.577-8.503-4.104m-342.573-5.595c-4.819-3.274-8.762-6.443-8.762-7.042s10.036-1.09 22.303-1.09h22.302v7.043c0 7.012-.06 7.043-13.54 7.043-10.627 0-15.427-1.281-22.303-5.954m52.277-1.089v-7.043h19.954c10.976 0 19.955.97 19.955 2.157 0 5.056-16.051 11.93-27.861 11.93-11.822 0-12.048-.133-12.048-7.044M142.69 472.141c-.86-.86-1.542-7.992-1.513-15.847.086-24.002 12.115-42.756 39.943-62.277l14.712-10.32-1.284 19.768c-1.615 24.836-8.334 43.098-19.954 54.232-12.954 12.41-27.398 18.95-31.904 14.444m570.081-1.695c-20.022-8.747-32.499-29.144-36.637-59.894-3.848-28.596-3.648-28.765 16.32-13.738 27.873 20.977 40.651 44.415 36.762 67.434-1.76 10.415-4.46 11.433-16.445 6.198m-346.99-9.976c-.897-.898-1.632-4.097-1.632-7.11 0-5.47.05-5.478 31.85-5.478h31.848l-.743 6.456-.743 6.456-29.474.654c-16.21.36-30.208-.081-31.106-.978m78.188-5.475v-7.113h61.35l-.743 6.456-.743 6.456-29.932.657-29.932.657zm-322.063-25.9c-4.613-3.802-10.641-12.306-13.602-19.19-4.697-10.918-5.169-14.976-4.038-34.732 1.189-20.77 5.297-40.068 8.495-39.908 3.11.155 22.157 29.115 26.271 39.942 5.716 15.042 5.69 35.658-.062 48.322-2.42 5.329-5.384 10.297-6.59 11.042-1.204.744-5.917-1.72-10.474-5.475m613.634 1.24c-11.82-15.028-12.573-38.596-1.91-59.825 7.06-14.057 21.963-35.314 24.758-35.314 2.73 0 9.553 33.809 9.553 47.334 0 17.98-4.479 29.575-16.454 42.598l-10.802 11.747zM394.669 410.32c6.778-5.706 10.374-6.927 20.541-6.98 12.144-.062 12.325.041 12.325 6.98v7.043l-20.541-.063-20.542-.063zm49.3 0c0-6.791.38-7.043 10.659-7.043 10.155 0 24.555 7.143 24.555 12.18 0 1.048-7.923 1.906-17.607 1.906h-17.607zm-281.715-32.448c0-24.008 19.997-46.762 51.913-59.07 10.471-4.038 19.556-6.824 20.19-6.19 1.768 1.768-6.217 24.748-13.033 37.504-11.069 20.716-31.622 34.38-51.713 34.38-6.506 0-7.357-.766-7.357-6.624m520.902 3.386c-13.013-4.651-21.956-12.01-30.193-24.845-6.653-10.369-19.65-42.314-17.92-44.045.363-.363 6.69 1.414 14.058 3.95 31.762 10.927 50.275 26.726 56.827 48.494 5.296 17.598 4.707 19.7-5.482 19.581-4.842-.056-12.622-1.467-17.29-3.135m-538.21-32.049c-15.092-17.935-14.18-50.04 2.35-82.68 3.105-6.134 6.139-11.152 6.741-11.152 2.089 0 12.408 22.368 16.172 35.054 6.905 23.273 2.828 46.034-10.858 60.612-6.377 6.793-7.239 6.683-14.405-1.834m566.185.66c-12.958-13.85-17.466-30.654-13.452-50.148 2.732-13.271 15.775-44.344 18.614-44.344 2.974 0 16.366 31.749 19.07 45.209 1.452 7.234 1.937 17.844 1.078 23.577-1.52 10.14-13.373 32.162-17.31 32.162-1.078 0-4.678-2.905-8-6.456M392.915 322.87c-4.156-2.905-7.574-6.074-7.596-7.043-.024-.968 9.467-1.76 21.088-1.76h21.128v7.043c0 7.01-.06 7.042-13.532 7.042-10.229 0-15.376-1.289-21.088-5.282m51.054-1.76v-7.043h19.954c10.976 0 19.948.792 19.94 1.76 0 .969-3.508 4.138-7.776 7.043-5.585 3.802-11.172 5.282-19.939 5.282-11.968 0-12.18-.122-12.18-7.042m-260.535-17.02c.069-16.463 6.18-29.005 20.325-41.721 11.28-10.14 29.441-21.281 39.765-24.394 4.803-1.449 4.897-1.085 2.759 10.68-5.798 31.901-22.82 57.017-43.392 64.027-18.167 6.19-19.516 5.594-19.457-8.593m485.315 8.975c-15.44-5.51-25.17-14.917-33.58-32.47-7.488-15.623-14.496-40.72-12.053-43.163 2.042-2.042 33.065 14.956 43.083 23.605 12.811 11.062 21.922 29.39 21.922 44.1 0 10.16-.523 11.267-5.282 11.174-2.905-.056-9.246-1.517-14.09-3.246M365.05 282.512c-1.612-4.2-.337-10.992 2.033-10.826.968.069 14.966.124 31.106.124h29.345v14.086h-30.593c-24.477 0-30.852-.676-31.891-3.384m78.918-3.589v-7.113h61.35l-.743 6.456-.743 6.456-29.932.657-29.932.657zm-53.867-41.308c5.278-6.36 15.685-10.41 26.752-10.41 10.303 0 10.681.25 10.681 7.043v7.043h-20.242c-18.106 0-19.92-.388-17.191-3.676m53.867-3.367c0-6.725.452-7.042 10.019-7.042 6.857 0 12.785 1.879 18.781 5.953 4.819 3.275 8.762 6.444 8.762 7.043s-8.452 1.09-18.781 1.09h-18.781zm-49.915-86.063c-4.827-3.434-8.776-7.131-8.776-8.216s9.508-1.973 21.129-1.973h21.128v16.433h-12.353c-9.61 0-14.301-1.386-21.128-6.244m49.915-1.972v-8.217h19.954c10.976 0 19.955.913 19.955 2.028 0 1.116-4.018 4.813-8.93 8.217-6.55 4.54-11.866 6.188-19.955 6.188H443.97zm-78.72-39.91c-.604-1.937-1.595-5.106-2.2-7.043-.942-3.014 3.62-3.521 31.693-3.521h32.793v14.085h-30.593c-25.14 0-30.788-.627-31.693-3.521m78.72-3.451v-7.113h61.35l-.743 6.456-.743 6.456-29.932.657-29.932.657z" style="fill:#000;stroke-width:2.34762"/></svg>