<?xml version="1.0" encoding="UTF-8" standalone="no"?>
<!-- Created with Inkscape (http://www.inkscape.org/) -->

<svg
   version="1.1"
   id="svg1"
   width="872"
   height="889"
   viewBox="0 0 872 889"
   sodipodi:docname="consul.svg"
   inkscape:version="1.4.2 (f4327f4, 2025-05-13)"
   xml:space="preserve"
   xmlns:inkscape="http://www.inkscape.org/namespaces/inkscape"
   xmlns:sodipodi="http://sodipodi.sourceforge.net/DTD/sodipodi-0.dtd"
   xmlns="http://www.w3.org/2000/svg"
   xmlns:svg="http://www.w3.org/2000/svg"><defs
     id="defs1" /><sodipodi:namedview
     id="namedview1"
     pagecolor="#ffffff"
     bordercolor="#000000"
     borderopacity="0.25"
     inkscape:showpageshadow="2"
     inkscape:pageopacity="0.0"
     inkscape:pagecheckerboard="true"
     inkscape:deskcolor="#d1d1d1"
     inkscape:zoom="0.92822679"
     inkscape:cx="-63.562053"
     inkscape:cy="244.01364"
     inkscape:window-width="3440"
     inkscape:window-height="1369"
     inkscape:window-x="-8"
     inkscape:window-y="-8"
     inkscape:window-maximized="1"
     inkscape:current-layer="g1" /><g
     inkscape:groupmode="layer"
     inkscape:label="Image"
     id="g1"><circle
       style="fill:none;stroke:#000000;stroke-width:18;stroke-dasharray:none;stroke-opacity:1"
       id="path2"
       cx="438.49911"
       cy="448.88046"
       r="417.83762" /><path
       style="fill:#000000;stroke-width:2.34762"
       d="m 339.19181,808.2877 c -2.28964,-5.96677 0.55568,-21.301 6.06391,-32.67934 7.01752,-14.4962 23.62742,-30.32876 46.44679,-44.27334 10.66971,-6.52003 19.39935,-12.14852 19.39935,-12.5078 0,-0.35926 -8.7787,-5.95576 -19.50805,-12.43666 -22.58413,-13.64147 -41.96048,-32.96985 -48.61552,-48.49504 -5.7998,-13.5305 -6.1179,-35.81797 -0.73809,-51.71746 5.13308,-15.17039 28.7389,-38.91388 52.33345,-52.63846 15.22223,-8.85457 16.95829,-10.5193 13.27581,-12.73029 -53.12296,-31.89563 -67.4782,-49.29171 -69.13304,-83.77674 -0.74373,-15.49603 -0.0352,-19.58202 5.37253,-31.01464 7.69974,-16.27577 29.70988,-37.049 51.45638,-48.56444 8.53432,-4.51918 15.52578,-8.9086 15.53681,-9.75428 0,-0.84569 -8.32937,-6.43233 -18.53378,-12.41478 -21.38497,-12.53713 -40.35166,-30.20034 -47.58844,-44.31808 -7.00319,-13.66173 -8.4937,-39.3895 -3.20451,-55.31343 5.49931,-16.55734 23.29758,-35.33499 47.52318,-50.13892 10.86339,-6.63835 20.21773,-12.82401 20.7875,-13.74594 0.56977,-0.92191 -5.03871,-5.07617 -12.46306,-9.23168 -25.12544,-14.06301 -44.03179,-31.21465 -52.01207,-47.18448 -8.74114,-17.4924 -10.06989,-35.599448 -2.89438,-39.439648 6.44774,-3.45075 11.90456,1.65423 13.62443,12.746068 3.36273,21.68453 18.44011,38.83481 50.0856,56.97116 l 19.9548,11.43631 0.69654,14.41053 0.69631,14.41053 -12.43443,6.28912 c -41.30525,20.89117 -58.91337,41.33367 -58.69997,68.14864 0.11503,14.50914 6.04138,26.94785 18.4819,38.79441 9.92951,9.45566 33.86259,25.3879 45.17696,30.07453 7.00625,2.90201 7.25416,3.50214 7.19077,17.39354 l -0.0657,14.38783 -20.35906,11.58203 c -36.75275,20.908 -50.4077,37.80298 -50.4077,62.36811 0,24.55832 15.37247,43.38473 51.87238,63.52682 l 18.88827,10.42331 v 14.08574 14.08574 l -18.12529,10.00569 c -36.95253,20.39897 -52.63536,39.45122 -52.63536,63.94445 0,24.49322 15.68283,43.54547 52.63536,63.94444 l 18.12529,10.00569 v 14.08574 14.08574 l -18.8883,10.42331 c -31.94505,17.6286 -46.60056,33.32542 -52.1656,55.8719 -2.37861,9.63601 -3.65032,11.27893 -9.22804,11.92048 -4.2877,0.49319 -6.95976,-0.53413 -7.92393,-3.04641 z m 25.38861,-2.97986 0.74279,-6.45597 31.106,-0.65506 31.10601,-0.65503 v 7.111 7.11102 h -31.84879 -31.8488 z m 79.38817,-0.65706 v -7.11299 l 29.93219,0.65703 29.9322,0.65705 0.74279,6.45597 0.74279,6.45596 h -30.67499 -30.67498 z m 70.68435,1.9849 c -1.1724,-2.98991 -3.30639,-9.8254 -4.7422,-15.18997 -3.83836,-14.33957 -19.92287,-30.68177 -44.54005,-45.25347 l -21.4021,-12.66855 v -14.55843 -14.55844 l 18.19408,-10.60757 c 36.01183,-20.99571 49.93394,-38.58349 49.83534,-62.95673 -0.0986,-24.59894 -13.65776,-41.60763 -49.83534,-62.5173 l -18.19408,-10.51567 v -14.84862 -14.84862 l 19.10402,-11.01921 c 35.09368,-20.24203 48.97705,-37.86453 48.97705,-62.16804 0,-24.29171 -13.40915,-41.17065 -49.53086,-62.34727 L 443.96859,381.7025 v -14.98871 -14.98873 l 9.9774,-5.0734 c 14.74025,-7.4953 34.76759,-21.63865 43.312,-30.58709 15.62343,-16.36228 19.49795,-41.62493 9.34096,-60.90516 -6.42005,-12.18656 -26.9324,-29.46021 -47.78986,-40.24444 l -14.82313,-7.66417 v -15.63426 -15.63428 l 18.00744,-9.88311 c 31.23138,-17.14064 49.89029,-38.73917 50.02199,-57.90233 0.0634,-9.263878 7.83096,-15.833188 14.50033,-12.263888 3.2254,1.72614 4.3323,5.016098 4.3323,12.875688 0,22.73206 -15.20673,44.57955 -44.39567,63.78307 -11.31132,7.44177 -22.5886,14.88315 -25.06017,16.53642 -2.53591,1.69604 -3.41791,3.50411 -2.02436,4.14912 14.44962,6.68784 35.41132,21.31548 46.93815,32.75456 19.78858,19.63815 23.36824,27.90936 23.36824,53.99533 0,18.73502 -0.71391,22.32541 -6.30149,31.69292 -9.46797,15.87235 -24.08591,29.53563 -45.78875,42.79775 -10.73169,6.558 -19.51227,12.74551 -19.51227,13.75003 0,1.00453 2.06121,2.48062 4.58068,3.28024 9.32077,2.95834 39.16704,24.26462 48.94161,34.93811 14.10569,15.40266 19.25403,28.59731 19.25403,49.34638 0,13.4929 -1.22921,19.41849 -6.02494,29.04215 -7.35534,14.76012 -28.31046,34.61023 -50.37554,47.71875 -9.00665,5.35082 -16.37584,10.08941 -16.37584,10.53019 0,0.44079 7.52812,5.27382 16.72916,10.7401 20.89995,12.41644 40.23545,29.92074 48.35494,43.77569 5.00959,8.54807 6.42568,14.44018 7.25134,30.17172 0.91557,17.44695 0.37444,20.8784 -5.03378,31.90916 -7.86618,16.04457 -26.46875,34.06985 -48.52068,47.01507 -9.68394,5.68482 -17.60717,11.2812 -17.60717,12.43637 0,1.1552 6.79825,5.8222 15.10719,10.37112 18.46312,10.10809 40.52374,30.04082 48.71248,44.01352 4.46354,7.61666 6.15711,13.94169 6.34821,23.71062 0.25166,12.85343 0.0329,13.34908 -6.17519,14.06391 -4.92813,0.5673 -6.93582,-0.53291 -8.56789,-4.69524 z M 373.53989,781.04891 c 0,-3.03471 5.70214,-5.11649 11.01411,-4.02106 3.1167,0.64275 2.21709,1.59925 -3.38434,3.59787 -4.69125,1.67388 -7.62977,1.83685 -7.62977,0.42319 z m -58.25463,-1.8019 -5.43334,-1.52966 6.60715,-6.2564 c 7.06564,-6.69077 31.21259,-23.08298 34.00298,-23.08298 0.92355,0 -1.96708,5.5368 -6.42381,12.30396 -4.45672,6.76719 -8.69301,14.16221 -9.41373,16.43337 -1.35716,4.27608 -8.80641,5.09716 -19.33925,2.13171 z m 169.76673,-0.34994 c -0.79795,-1.29119 0.66203,-2.34762 3.24442,-2.34762 2.58239,0 5.34812,1.05643 6.14608,2.34762 0.79795,1.2912 -0.66203,2.34763 -3.24442,2.34763 -2.58238,0 -5.34812,-1.05643 -6.14608,-2.34763 z m 46.95294,-7.04169 c -2.45491,-5.44407 -7.92018,-13.15869 -12.14496,-17.14362 -4.22478,-3.98492 -7.2565,-7.67006 -6.73744,-8.18921 0.51906,-0.51913 7.09287,2.37678 14.60808,6.4354 14.84168,8.01514 33.12638,22.51908 31.03089,24.61457 -0.7172,0.71739 -6.02682,1.95163 -11.79869,2.74275 l -10.49434,1.43842 z M 394.57976,762.3683 c 6.78275,-5.79752 10.18281,-6.94746 20.5417,-6.94746 12.22807,0 12.41376,0.10541 12.41376,7.04287 v 7.04287 l -20.5417,-0.0953 -20.5417,-0.0953 z m 49.38883,-0.19532 v -7.33358 l 13.06429,1.08341 c 10.1429,0.84113 14.46206,2.48106 19.3146,7.33358 l 6.25007,6.25017 h -19.31436 -19.3146 z m -177.24556,-6.00116 c -2.58239,-0.57857 -9.79286,-2.68021 -16.02326,-4.67031 l -11.32803,-3.61835 5.07666,-5.40385 c 2.79217,-2.97212 12.98593,-9.41838 22.65278,-14.32506 23.95599,-12.15942 41.35062,-13.45946 60.27856,-4.50506 7.31144,3.4588 13.29342,7.126 13.29342,8.14928 0,4.69111 -10.50374,14.36658 -21.59813,19.89519 -10.11568,5.04089 -15.20861,6.02844 -29.92361,5.80246 -9.75322,-0.14978 -19.84601,-0.74573 -22.42839,-1.3243 z m 287.58385,-2.00597 c -9.63746,-4.32594 -23.47623,-17.06812 -23.47623,-21.61598 0,-5.4929 23.32411,-14.64278 37.39059,-14.66809 10.10629,-0.0188 16.65874,1.89573 31.69292,9.2571 10.42368,5.10402 22.10405,11.85667 25.95626,15.00592 l 7.0039,5.72585 -12.87296,4.07266 c -18.18469,5.75315 -55.05012,7.00037 -65.69448,2.22254 z M 366.74164,724.48283 c -5.60871,-2.77492 -14.2989,-10.31004 -19.55969,-16.95994 -10.23822,-12.94136 -24.72682,-40.30972 -22.51207,-42.5244 3.68765,-3.6876 13.50658,3.04482 22.65457,15.53293 6.99897,9.55462 15.57836,17.36051 27.50029,25.02038 9.53018,6.12329 17.01675,12.17999 16.63667,13.45933 -0.38032,1.27936 -3.82686,4.1574 -7.65936,6.39563 -6.70528,3.91619 -7.34806,3.88137 -17.06041,-0.92393 z m 117.32529,0.19039 c -9.03037,-5.49172 -7.72509,-8.27103 8.29368,-17.65868 9.86871,-5.78332 38.47004,-34.29951 38.47004,-38.35524 0,-2.35189 13.76904,-5.89521 15.6394,-4.02467 0.67001,0.6699 -3.10967,9.53673 -8.39933,19.70405 -10.58426,20.34425 -24.99538,36.10086 -37.94722,41.49049 -7.76899,3.23288 -8.98341,3.14548 -16.05657,-1.15595 z M 213.24166,717.7413 c -6.17327,-2.50616 -17.77341,-8.72069 -25.77806,-13.81011 l -14.55393,-9.25341 6.32666,-2.4054 c 28.69941,-10.9115 57.95719,-13.48583 71.81636,-6.31898 4.25377,2.19972 11.91238,7.77427 17.01909,12.38789 7.81482,7.06022 8.81484,8.95668 6.31574,11.97736 -9.91065,11.9791 -40.71203,15.71816 -61.14586,7.42265 z m 393.29984,-0.97119 c -6.77876,-3.15598 -12.32502,-6.94753 -12.32502,-8.42569 0,-3.97788 13.58358,-15.94874 24.49768,-21.58905 12.77718,-6.60323 35.26741,-6.32316 57.57429,0.71696 9.17733,2.89641 17.17451,6.05683 17.77174,7.02315 1.5222,2.46297 -19.89517,15.82519 -35.94469,22.42586 -18.0598,7.42737 -35.40498,7.37649 -51.574,-0.15118 z m -309.81528,-12.9281 c -10.84053,-6.60976 -21.08762,-21.9268 -24.31401,-36.34384 -2.89878,-12.95304 -2.0672,-51.50984 1.17895,-54.66425 2.81079,-2.73138 28.51405,26.37741 35.27945,39.95371 6.95038,13.94775 8.0601,34.41682 2.57699,47.53945 -3.95645,9.46951 -4.67435,9.64089 -14.72138,3.51493 z m 261.19295,-7.53787 c -4.76755,-16.05417 -4.56073,-22.68691 1.18649,-38.04777 5.53006,-14.78 34.17905,-47.9114 38.06741,-44.02312 1.25223,1.25222 2.31946,13.1954 2.37204,26.54042 0.10095,25.6525 -3.1268,38.86803 -12.35859,50.60426 -5.86718,7.45899 -18.64905,17.09042 -22.68039,17.09042 -1.63606,0 -4.60017,-5.47391 -6.58696,-12.16421 z M 392.93853,674.86881 c -4.17947,-2.82494 -7.61287,-5.92857 -7.62977,-6.89696 -0.0235,-0.9684 9.47712,-1.76072 21.09785,-1.76072 h 21.12861 v 7.04287 c 0,7.02576 -0.0329,7.04252 -13.49883,6.89697 -9.8295,-0.10635 -15.56451,-1.54209 -21.09786,-5.28216 z m 51.03006,-1.61481 v -7.04287 h 19.95479 c 10.97514,0 19.94166,0.79232 19.92569,1.76072 -0.0798,4.91656 -16.97754,12.32502 -28.1095,12.32502 -11.51368,0 -11.77098,-0.15377 -11.77098,-7.04287 z m -266.60071,2.62288 c -12.41108,-3.19293 -29.89895,-14.03503 -42.92911,-26.61512 -12.2749,-11.85092 -12.43228,-12.16975 -7.04287,-14.26853 3.03193,-1.18069 15.54869,-2.29045 27.81502,-2.46617 20.11681,-0.28813 23.64204,0.33653 35.97218,6.37431 13.30474,6.51498 27.41365,21.38575 27.41365,28.89391 0,6.56844 -26.73805,11.80961 -41.22887,8.0816 z m 484.34277,-1.55171 c -6.13317,-1.95848 -11.15121,-4.42684 -11.15121,-5.48522 0,-3.69659 13.72326,-20.83072 20.333,-25.38666 15.74199,-10.85071 39.55698,-14.10841 67.70287,-9.26116 l 11.73812,2.02152 -15.25955,13.91147 c -26.20441,23.88953 -49.87925,31.69907 -73.36323,24.20005 z m -428.47652,-6.35682 c -7.29899,-7.77502 -14.5269,-25.16624 -14.58583,-35.0953 -0.0284,-4.77842 1.13212,-14.2073 2.57882,-20.95308 2.68291,-12.50992 14.8424,-41.96139 17.32443,-41.96139 2.53301,0 15.55425,31.5487 18.84716,45.66416 4.77073,20.45031 -0.93684,41.08805 -14.844,53.67387 -4.11313,3.72232 -4.6512,3.64563 -9.32058,-1.32826 z m 389.27285,-4.31303 c -14.30289,-19.74464 -14.97384,-40.98744 -2.25935,-71.52896 9.94852,-23.89772 12.06467,-25.04008 18.53261,-10.00472 14.51324,33.73694 15.63165,58.73936 3.50312,78.31279 -3.84095,6.19855 -8.2472,11.68785 -9.79194,12.19846 -1.54473,0.51061 -6.03761,-3.5293 -9.98444,-8.97757 z m -312.3541,-30.63146 c -42.27712,-29.69006 -72.73923,-72.62128 -87.1811,-122.86709 -7.3867,-25.69969 -8.52983,-73.47329 -2.45855,-102.7481 5.57826,-26.8975 22.21955,-63.55317 38.76121,-85.379 17.64816,-23.28582 51.15828,-53.0121 66.31782,-58.82935 2.623,-1.00654 3.34278,1.29873 3.34278,10.70655 0,11.41311 -0.29979,11.98929 -6.23904,11.98929 -7.75162,0 -26.96513,14.5234 -40.93762,30.94442 -11.09447,13.03867 -27.92754,37.1806 -27.93982,40.07118 -0.005,0.96839 12.4056,1.75701 27.57711,1.7525 l 27.58458,-0.009 10.95941,-23.46799 c 6.02752,-12.90742 12.06819,-23.46802 13.42371,-23.46802 1.35551,0 3.9656,2.86492 5.80027,6.3665 3.07022,5.85981 2.8148,7.30782 -3.20991,18.19408 -12.91709,23.34005 -13.65448,22.39189 17.41632,22.39189 22.43295,0 28.3553,0.76387 34.39385,4.43614 11.02068,6.70211 5.47842,8.32258 -33.00336,9.6496 l -34.03913,1.17381 -3.97617,18.78099 c -2.18704,10.32954 -4.30061,26.70421 -4.69689,36.38816 l -0.72048,17.60717 8.80359,0.72863 c 8.01126,0.66304 8.80358,1.34972 8.80358,7.62978 0,6.51026 -0.54324,6.90114 -9.59074,6.90114 h -9.59075 l 1.64897,17.59725 c 0.90689,9.67847 3.37448,25.78904 5.48358,35.80125 l 3.83438,18.20401 31.69197,1.17382 c 34.823,1.28978 47.09943,4.73818 38.70902,10.87334 -3.17586,2.32227 -12.72552,3.2124 -34.46358,3.2124 -16.53877,0 -30.07047,0.69585 -30.07047,1.54638 0,0.85049 3.81418,9.16091 8.47609,18.4676 8.3005,16.57058 8.39158,17.05022 4.39828,23.14472 -5.52467,8.43182 -7.81618,6.05739 -20.19191,-20.92159 l -10.20019,-22.23596 h -27.7679 c -21.5705,0 -27.38223,0.65494 -26.04026,2.93453 20.3303,34.53464 54.76763,69.84179 68.12115,69.84179 5.09786,0 5.55236,0.96102 5.55236,11.73812 0,6.45596 -0.36247,11.73811 -0.8057,11.73811 -0.443,0 -8.53244,-5.42639 -17.97646,-12.05866 z m -5.65613,-102.0956 c -2.98728,-7.78491 -8.42843,-44.1664 -8.42843,-56.35594 V 461.9679 h -32.86673 c -32.79785,0 -32.86673,0.0117 -32.86673,5.4379 0,12.60666 10.48036,56.34779 15.71239,65.57771 0.54894,0.96839 14.25413,1.76072 30.456,1.76072 26.23086,0 29.29737,-0.41805 27.9935,-3.81597 z M 292.77733,446.0855 c 1.41794,-0.94862 3.26775,-11.23265 4.11068,-22.85338 0.84294,-11.62074 2.99595,-27.28239 4.78446,-34.80368 2.4921,-10.4804 2.59516,-13.92704 0.44102,-14.75366 -1.54595,-0.59325 -14.89517,-0.77805 -29.66494,-0.4107 l -26.85413,0.66795 -5.32913,15.9479 c -6.21975,18.61322 -11.32156,48.64322 -9.20226,54.16601 1.25274,3.26458 5.76853,3.83087 30.30418,3.80028 15.85763,-0.0188 29.99217,-0.81209 31.41012,-1.76072 z m 247.44381,187.31919 c 0,-11.40083 0.22537,-11.7984 6.67758,-11.7984 4.68468,0 10.79743,-3.60511 20.48184,-12.07967 20.5518,-17.98444 47.96453,-51.93638 47.96453,-59.40626 0,-0.70971 -12.13839,-1.29039 -26.97419,-1.29039 h -26.97443 l -7.17833,15.83145 c -3.948,8.70729 -9.91566,20.50248 -13.26149,26.21152 l -6.08316,10.38006 -3.894,-7.53058 c -3.80667,-7.361 -3.72239,-7.88518 3.74446,-23.27699 4.20107,-8.66053 7.68494,-17.06694 7.74175,-18.68093 0.0775,-2.20027 -7.42107,-2.93453 -29.96741,-2.93453 -21.81763,0 -31.28255,-0.88644 -34.48752,-3.22996 -4.18957,-3.06339 -4.03698,-3.42657 2.95612,-7.04287 5.68595,-2.94033 14.29938,-3.81291 37.63757,-3.81291 h 30.26392 l 2.60469,-8.80359 c 3.90879,-13.2121 7.49126,-37.77805 7.51122,-51.50599 l 0.0235,-12.18332 -8.80358,-0.72861 c -7.58682,-0.62792 -8.90431,-1.60025 -9.53206,-7.03444 -0.66555,-5.76301 0.0423,-6.36926 8.21668,-7.04287 l 8.93952,-0.73706 0.72917,-12.89157 c 0.74208,-13.11559 -2.41265,-36.34203 -7.09734,-52.25497 l -2.59177,-8.80359 h -32.64934 c -19.26014,0 -34.62885,-1.05927 -37.47581,-2.58297 -4.69713,-2.51379 -4.64572,-2.70207 1.91495,-7.0274 5.64768,-3.72343 11.21648,-4.44694 34.32601,-4.4599 17.20972,-0.009 27.58458,-0.91783 27.58458,-2.41465 0,-1.31953 -3.20475,-9.46684 -7.12152,-18.10513 -6.16322,-13.59314 -6.75669,-16.5864 -4.41025,-22.25087 1.49098,-3.5997 3.44467,-6.54491 4.34146,-6.54491 2.22766,0 11.77474,16.97897 19.14018,34.04054 l 6.08105,14.08574 27.37258,0.66142 c 18.44011,0.44555 27.37282,-0.16575 27.37282,-1.8735 0,-6.24707 -18.77841,-31.05875 -37.72748,-49.84873 -18.01684,-17.86581 -21.77233,-20.5417 -28.82929,-20.5417 -8.10188,0 -8.1155,-0.0188 -9.07004,-12.32503 -0.52587,-6.77876 -0.7611,-12.63206 -0.52258,-13.00733 1.01816,-1.60176 19.85455,10.71286 34.89507,22.81322 65.94474,53.05337 95.07828,142.74441 73.03198,224.83822 -10.1253,37.70424 -26.54458,67.70388 -51.60381,94.28614 -13.63969,14.46863 -36.53864,33.10721 -47.66802,38.79943 l -7.62978,3.90229 z m 90.1708,-116.85454 c 3.3233,-10.00675 6.63087,-23.47624 7.35041,-29.9322 0.71955,-6.45597 1.75861,-14.6433 2.30889,-18.19408 l 1.00032,-6.45597 h -32.53219 -32.53219 l -1.65601,18.19408 c -0.91088,10.00675 -3.14793,25.39406 -4.97109,34.19403 -1.8234,8.79995 -3.31508,16.98728 -3.31508,18.19408 0,1.24264 12.64195,2.19414 29.15255,2.19414 h 29.15255 z m 8.91017,-81.57991 c -0.96487,-16.33906 -4.89432,-35.35012 -10.31123,-49.887 l -4.59265,-12.32502 h -29.1765 c -16.52562,0 -29.17673,0.9514 -29.17673,2.19413 0,1.2068 1.48229,9.39414 3.29371,18.19408 1.81166,8.79998 4.04449,23.92318 4.96171,33.60712 0.91721,9.68395 2.15699,18.4296 2.75517,19.43478 0.59794,1.00518 15.00413,1.5334 32.01336,1.17381 l 30.92618,-0.65379 z m -274.25123,199.6851 c -0.71415,-1.86136 -0.93201,-5.29476 -0.48408,-7.62977 0.72894,-3.80022 4.0736,-4.31416 31.89129,-4.90053 l 31.07713,-0.65503 v 8.28481 8.28483 H 396.9424 c -24.47702,0 -30.85246,-0.67656 -31.89152,-3.38431 z m 78.91771,-4.83237 v -8.35695 l 29.93219,0.65703 29.9322,0.65705 v 7.04287 7.04287 l -29.9322,0.65705 -29.93219,0.65703 z M 181.45092,616.06702 c -6.79144,-13.59853 -6.89558,-36.06188 -0.23552,-50.80367 6.56839,-14.53883 23.43057,-40.10327 25.57693,-38.77675 3.87605,2.39552 9.58601,30.00927 9.8118,47.4504 0.18687,14.42626 -0.8331,20.62204 -4.61458,28.03433 -4.555,8.92853 -19.48018,24.33023 -23.57746,24.33023 -1.01739,0 -4.14992,-4.60555 -6.96117,-10.23454 z m 489.91339,2.63608 c -14.2212,-13.04412 -17.31443,-21.24625 -17.05384,-45.22307 0.15025,-13.90483 1.77504,-25.8983 4.75042,-35.07933 l 4.52105,-13.95073 8.76203,11.9364 c 14.79872,20.15991 21.54978,37.28251 21.56762,54.70084 0.0235,15.10965 -5.9963,32.77179 -11.75314,34.53091 -1.34284,0.41034 -6.20031,-2.70141 -10.79414,-6.91502 z m -536.10819,2.41831 c -9.00173,-3.14657 -21.64964,-12.21175 -30.06603,-21.54933 -10.041626,-11.14067 -20.407866,-25.34649 -20.407866,-27.96679 0,-1.48686 7.2931,-1.82941 19.942896,-0.9367 32.65433,2.30445 53.94953,14.38095 63.97548,36.28052 4.82216,10.53301 5.29891,13.21053 2.65091,14.88783 -4.38233,2.77586 -27.41331,2.31931 -36.09539,-0.71553 z m 564.7938,0.65222 c -5.59861,-3.5436 3.02139,-21.93878 15.37717,-32.81464 13.32158,-11.7263 27.38479,-16.66681 52.26748,-18.36203 l 19.70853,-1.34272 -4.44898,7.60273 c -8.78128,15.00557 -29.92726,35.95799 -41.93184,41.5481 -12.26985,5.71367 -34.39362,7.53258 -40.97236,3.36856 z M 387.6437,591.67411 c 0.0446,-4.29485 19.07233,-12.32502 29.20538,-12.32502 10.30841,0 10.68614,0.24897 10.68614,7.04287 v 7.04287 h -19.9548 c -10.97513,0 -19.94658,-0.79232 -19.93672,-1.76072 z m 56.32489,-5.28215 c 0,-6.66664 0.50826,-7.04287 9.51233,-7.04287 9.00901,0 27.99071,8.34592 28.03156,12.32502 0,0.9684 -8.43336,1.76072 -18.76291,1.76072 H 443.96859 Z M 127.02425,565.4175 C 108.52787,559.79116 91.154194,543.1243 77.938124,518.32845 l -7.78596,-14.60797 10.24956,1.7198 c 34.633286,5.81119 52.896616,14.81244 63.282576,31.18937 7.23242,11.40433 12.20313,25.63983 10.12624,29.00028 -1.4841,2.40134 -18.64093,2.26527 -26.78629,-0.21246 z m 590.51124,-0.0427 c -3.16436,-5.11995 3.9102,-23.44644 13.0664,-33.84838 5.29765,-6.01844 13.96108,-12.35193 21.09222,-15.41966 12.55439,-5.40071 44.17407,-12.90799 46.12987,-10.95228 1.9586,1.95863 -9.0733,21.76909 -19.57027,35.14341 -13.05912,16.63868 -27.29628,25.03486 -45.20442,26.65872 -9.40012,0.85237 -14.31933,0.3508 -15.5138,-1.58181 z m -19.49208,-18.7773 c -20.89103,-15.13337 -28.35483,-37.43133 -24.00727,-71.7214 1.28086,-10.10215 2.9735,-18.98795 3.7616,-19.74621 2.65516,-2.55466 24.61882,24.32187 31.82203,38.94012 8.70687,17.66922 9.74358,37.25565 2.69883,50.9873 l -4.44382,8.66196 z m -540.33225,-1.87582 c -5.62732,-12.3207 -5.70339,-28.88236 -0.19978,-43.46841 4.79678,-12.71245 28.88877,-46.32818 33.20286,-46.32818 3.56085,0 5.46548,12.54833 5.52316,36.38816 0.0683,28.20092 -5.05561,41.3631 -20.533,52.7453 -11.91442,8.76196 -14.25493,8.84823 -17.99336,0.66313 z M 117.3026,504.23562 C 105.66114,498.0213 92.731774,482.36521 88.424584,469.2674 c -3.86865,-11.76422 -9.08488,-44.89668 -7.34264,-46.63892 2.4197,-2.41969 29.966306,16.83899 39.918566,27.90829 12.57119,13.98221 16.02999,23.92174 15.00643,43.1241 -0.8736,16.38937 -4.24303,18.2943 -18.70434,10.57475 z m 616.96275,-0.37052 c -4.70909,-17.58865 2.55586,-40.67274 17.529,-55.69859 8.33759,-8.36693 33.26324,-26.10815 36.68093,-26.10815 3.0031,0 -0.4374,27.67468 -5.26409,42.34345 -7.85984,23.88695 -22.86515,40.05111 -40.44368,43.56679 -5.97071,1.19412 -7.24923,0.57703 -8.50216,-4.1035 z m -342.5734,-5.59361 c -4.81874,-3.27454 -8.76157,-6.44383 -8.76157,-7.04287 0,-0.59905 10.03609,-1.08918 22.30242,-1.08918 h 22.30242 v 7.04287 c 0,7.01136 -0.061,7.04287 -13.54085,7.04287 -10.62652,0 -15.42647,-1.28136 -22.30242,-5.95369 z m 52.27664,-1.08918 v -7.04287 h 19.95479 c 10.97514,0 19.9548,0.97027 19.9548,2.15615 0,5.05673 -16.05164,11.92959 -27.86159,11.92959 -11.82169,0 -12.048,-0.13241 -12.048,-7.04287 z M 142.69027,472.14095 c -0.8608,-0.86078 -1.5419,-7.99168 -1.51354,-15.84645 0.0866,-24.00286 12.11501,-42.75682 39.94305,-62.27707 l 14.71242,-10.32018 -1.28465,19.76746 c -1.61406,24.83637 -8.33324,43.09839 -19.95364,54.2319 -12.95344,12.41074 -27.39766,18.95035 -31.90364,14.44434 z m 570.08118,-1.6954 c -20.0224,-8.74687 -32.49908,-29.14307 -36.63724,-59.89327 -3.84846,-28.59622 -3.64774,-28.76531 16.3195,-13.73853 27.87357,20.97702 40.65145,44.41562 36.76261,67.43379 -1.75978,10.41586 -4.46001,11.43361 -16.44487,6.19801 z m -346.99022,-9.97599 c -0.8975,-0.89748 -1.63184,-4.09679 -1.63184,-7.10959 0,-5.46945 0.0493,-5.47778 31.8488,-5.47778 h 31.8488 l -0.74279,6.45596 -0.74279,6.45597 -29.47417,0.65362 c -16.21081,0.35949 -30.20852,-0.0808 -31.10601,-0.97818 z m 78.18736,-5.47436 v -7.11301 h 30.67498 30.67499 l -0.74279,6.45596 -0.74279,6.45597 -29.9322,0.65705 -29.93219,0.65703 z M 121.90615,429.09585 c -4.61315,-3.80254 -10.64117,-12.30709 -13.60253,-19.19098 -4.69682,-10.91807 -5.16853,-14.97551 -4.0377,-34.73184 1.18886,-20.77003 5.29664,-40.06844 8.49476,-39.90833 3.10982,0.15565 22.15731,29.11525 26.27143,39.94272 5.71541,15.04169 5.68909,35.65798 -0.0617,48.322 -2.41958,5.32829 -5.38486,10.29694 -6.58955,11.04146 -1.20468,0.74453 -5.91831,-1.71923 -10.47474,-5.47503 z m 613.63373,1.23839 c -11.82028,-15.02709 -12.57293,-38.59525 -1.91026,-59.82399 7.06048,-14.05729 21.96342,-35.31398 24.75827,-35.31398 2.72982,0 9.55271,33.80824 9.55271,47.33372 0,17.98005 -4.47832,29.57454 -16.45378,42.59823 l -10.80165,11.74725 z M 394.6685,410.32021 c 6.77852,-5.70589 10.37414,-6.92762 20.5417,-6.97971 12.14332,-0.0622 12.32502,0.0406 12.32502,6.97971 v 7.04287 l -20.5417,-0.0631 -20.5417,-0.0632 z m 49.30009,0 c 0,-6.79132 0.38078,-7.04287 10.65938,-7.04287 10.15535,0 24.55497,7.14246 24.55497,12.17961 0,1.04838 -7.92323,1.90613 -17.60718,1.90613 h -17.60717 z m -281.7148,-32.44852 c 0,-24.00754 19.99743,-46.76172 51.9133,-59.06977 10.47089,-4.038 19.55626,-6.82358 20.1897,-6.19014 1.76846,1.76849 -6.21707,24.7485 -13.03278,37.5046 -11.06851,20.71538 -31.62216,34.37998 -51.71282,34.37998 -6.5066,0 -7.3574,-0.76608 -7.3574,-6.62467 z m 520.90263,3.38584 c -13.01381,-4.6506 -21.95638,-12.00917 -30.19302,-24.84476 -6.65316,-10.3683 -19.65078,-42.31412 -17.92011,-44.04479 0.36294,-0.36306 6.68885,1.41411 14.05733,3.94927 31.76194,10.92767 50.27577,26.72708 56.82704,48.49511 5.29601,17.59781 4.70746,19.70022 -5.48123,19.58096 -4.84197,-0.0566 -12.62246,-1.46778 -17.29001,-3.13579 z M 144.94551,349.20911 c -15.0916,-17.93537 -14.1791,-50.03919 2.35009,-82.68082 3.10574,-6.13317 6.13941,-11.15121 6.74151,-11.15121 2.08849,0 12.40784,22.36832 16.17155,35.05353 6.90516,23.27331 2.82804,46.03413 -10.85743,60.61212 -6.37727,6.79317 -7.23903,6.68349 -14.40572,-1.83362 z m 566.18566,0.6598 c -12.95818,-13.84989 -17.46608,-30.65409 -13.45235,-50.14767 2.7324,-13.27147 15.77556,-44.34416 18.61407,-44.34416 2.97444,0 16.36599,31.7485 19.06927,45.2087 1.45295,7.23459 1.9382,17.84437 1.0785,23.57727 -1.52055,10.13953 -13.37276,32.16183 -17.30926,32.16183 -1.07803,0 -4.67811,-2.90519 -8.00023,-6.45597 z M 392.91529,322.87125 c -4.156,-2.90519 -7.57437,-6.07448 -7.59667,-7.04287 -0.0235,-0.9684 9.46726,-1.76072 21.08799,-1.76072 h 21.12861 v 7.04287 c 0,7.01085 -0.061,7.04287 -13.53193,7.04287 -10.22907,0 -15.376,-1.28922 -21.088,-5.28215 z m 51.0533,-1.76072 v -7.04287 h 19.95479 c 10.97514,0 19.94752,0.79232 19.93884,1.76072 0,0.96839 -3.50759,4.13768 -7.7751,7.04287 -5.58476,3.80202 -11.17186,5.28215 -19.93883,5.28215 -11.96795,0 -12.1797,-0.12255 -12.1797,-7.04287 z M 183.43395,304.09026 c 0.0688,-16.46182 6.17923,-29.00423 20.32509,-41.72036 11.28057,-10.14042 29.44093,-21.28107 39.76508,-24.39425 4.80302,-1.44832 4.89707,-1.08418 2.75885,10.68004 -5.7983,31.90162 -22.81936,57.01722 -43.39156,64.02687 -18.16727,6.19021 -19.51681,5.59427 -19.45746,-8.5923 z m 485.31487,8.97555 c -15.44008,-5.51001 -25.1691,-14.91691 -33.58064,-32.46927 -7.48751,-15.62369 -14.49493,-40.72056 -12.05199,-43.1635 2.04173,-2.04184 33.06487,14.95591 43.08241,23.60524 12.81168,11.06172 21.92281,29.38956 21.92281,44.09982 0,10.1603 -0.52305,11.26697 -5.28215,11.17414 -2.90519,-0.0566 -9.24588,-1.51757 -14.09044,-3.24643 z M 365.05088,282.51187 c -1.61188,-4.20058 -0.33641,-10.9923 2.03304,-10.82543 0.9684,0.0681 14.9661,0.12395 31.10601,0.12395 h 29.34529 v 7.04287 7.04287 H 396.9424 c -24.47702,0 -30.85246,-0.67656 -31.89152,-3.38431 z m 78.91771,-3.58841 v -7.11302 h 30.67498 30.67499 l -0.74279,6.45596 -0.74279,6.45597 -29.9322,0.65705 -29.93219,0.65703 z M 390.10166,237.6151 c 5.27864,-6.36042 15.68495,-10.4095 26.75258,-10.4095 10.30278,0 10.68098,0.24946 10.68098,7.04287 v 7.04287 h -20.24214 c -18.10581,0 -19.92029,-0.38802 -17.19142,-3.67624 z m 53.86693,-3.36663 c 0,-6.72529 0.45191,-7.04287 10.01942,-7.04287 6.85694,0 12.78468,1.87915 18.78098,5.95369 4.81874,3.27453 8.76157,6.44382 8.76157,7.04287 0,0.59904 -8.45144,1.08918 -18.78099,1.08918 h -18.78098 z m -49.91494,-86.06319 c -4.82647,-3.4342 -8.77565,-7.13171 -8.77565,-8.21668 0,-1.08498 9.50788,-1.97269 21.12861,-1.97269 h 21.12861 v 8.21668 8.21668 h -12.35296 c -9.60952,0 -14.30172,-1.38669 -21.12861,-6.24399 z m 49.91494,-1.97269 v -8.21668 h 19.95479 c 10.97514,0 19.9548,0.91276 19.9548,2.02835 0,1.11559 -4.01842,4.8131 -8.92989,8.21668 -6.55104,4.5399 -11.86653,6.18833 -19.9548,6.18833 h -11.0249 z M 365.24949,106.303 c -0.60498,-1.93679 -1.59521,-5.10609 -2.20019,-7.042868 -0.94187,-3.01461 3.61956,-3.52144 31.69291,-3.52144 h 32.79301 v 7.042868 7.04287 H 396.9424 c -25.13952,0 -30.78884,-0.62771 -31.69291,-3.52143 z m 78.7191,-3.45129 v -7.113018 h 30.67498 30.67499 l -0.74279,6.455958 -0.74279,6.45597 -29.9322,0.65705 -29.93219,0.65703 z"
       id="path1" /></g></svg>
