<svg xmlns="http://www.w3.org/2000/svg" xml:space="preserve" width="872" height="889" viewBox="0 0 872 889"><path d="M95.136 520.7c-3.252-7.838-6.121-15.923-6.377-17.967s-2.711-10.408-5.456-18.586c-9.013-26.855-11.632-49.804-11.594-101.602.037-51.585 2.274-70.936 11.744-101.602 2.947-9.54 5.501-18.461 5.678-19.824.683-5.282 15.904-40.415 22.012-50.808 2.805-4.774 7.889-14.04 11.296-20.59 3.408-6.552 10.098-16.827 14.869-22.836a1595 1595 0 0 0 17.346-22.344c11.187-14.73 46.518-48.387 61.476-58.563 6.395-4.351 12.186-8.677 12.867-9.613 3.54-4.86 53.867-31.997 73.104-39.417 2.726-1.052 7.744-3.132 11.152-4.624s20.84-6.499 38.74-11.127l32.547-8.415 59.143.523c45.643.403 62.68 1.453 74.632 4.6a2689 2689 0 0 0 30.078 7.7c8.025 1.994 20.778 6.454 28.34 9.913s15.427 6.29 17.478 6.29 4.332.974 5.069 2.165c.736 1.191 7.214 4.954 14.395 8.362 41.06 19.487 99.627 69.74 128.557 110.307 8.03 11.26 14.6 21.096 14.6 21.857s3.345 6.246 7.434 12.19c4.089 5.942 7.434 12.104 7.434 13.693 0 1.588 2.364 6.207 5.253 10.265 2.89 4.057 6.671 12.035 8.404 17.729 3.083 10.126 6.859 19.985 11.654 30.428 1.315 2.863 2.78 8.439 3.255 12.39 1.302 10.821 3.641 20.721 8.137 34.443 3.251 9.922 4.06 23.005 4.06 65.67 0 48.135-.567 55.431-5.876 75.581-3.232 12.267-6.165 24.75-6.519 27.74-.795 6.735-15.626 45.784-18.544 48.83-1.233 1.286-8.73-4.517-17.75-13.737-8.588-8.78-20.81-20.147-27.157-25.26-6.348-5.112-15.627-13.149-20.62-17.858s-10.163-8.563-11.486-8.563-3.753-1.131-5.4-2.513c-4.408-3.701-21.543-14.85-31.49-20.489-39.427-22.35-71.09-34.558-132.579-51.122-19.12-5.15-51.247-7.9-92.567-7.921-45.889-.025-76.135 3.076-104.441 10.707-10.223 2.756-22.083 5.848-26.357 6.873-19.19 4.6-67.007 25.36-98.788 42.89-12.256 6.76-43.36 27.622-49.801 33.404-2.622 2.353-10.332 8.72-17.133 14.15s-19.133 16.86-27.407 25.4c-8.273 8.541-15.595 15.53-16.27 15.53-.677 0-3.89-6.413-7.142-14.25m80.582-78.67c64.24-43.07 137.929-69.97 214.643-78.353 31.666-3.46 102.537-1.506 129.856 3.582 88.291 16.444 167.027 53.019 229.714 106.708 10.516 9.007 20.23 16.376 21.588 16.376 2.452 0 3.713-3.81 11.478-34.694 6.151-24.462 7.71-101.257 2.647-130.418-7.77-44.763-29.293-98.39-55.017-137.092C680.73 113.072 592.733 55.15 504.066 39.004c-23.937-4.358-101.781-4.42-124.956-.1-68.082 12.692-132.858 47.303-183.716 98.16-40.763 40.764-67.43 83.818-85.71 138.377-19.961 59.58-21.878 144.72-4.524 200.906l5.051 16.355 19.124-16.198c10.518-8.91 31.39-24.423 46.383-34.475" style="fill:#000;stroke-width:2.4781"/><path d="M191.458 403.174c-.028-.609-.036-25.69-.018-55.734.027-45.603-.323-55.09-2.118-57.43-1.778-2.317-2.542-2.478-4.411-.927-1.942 1.612-2.26 8.383-2.26 47.987v46.11l-3.622 3.907c-4.436 4.787-10.684 5.115-16.111.847l-3.89-3.06V265.879l5.736-6.465 5.737-6.464h106.021l4.656 5.167c2.612 2.899 5.335 8.084 6.201 11.811.94 4.04 1.406 23.935 1.19 50.775l-.356 44.13-8.316 2.97c-13.752 4.91-13.092 6.819-13.092-37.853 0-31.176-.405-39.326-2.019-40.666-4.6-3.818-5.31 1.658-5.708 44.032l-.393 41.735-7.382 2.82a938 938 0 0 1-16.24 5.978c-10.804 3.851-30.878 13.32-36.91 17.41-4.69 3.179-6.612 3.729-6.695 1.915m480.254-8.12c-.869-1.094-1.815-22.898-2.322-53.52-.536-32.396-1.497-53.876-2.575-57.575-2.25-7.718-12.213-17.64-19.84-19.758-3.245-.901-11.146-1.642-17.557-1.646l-11.656-.015 7.438-7.866c9.176-9.702 11.852-19.13 9.088-32.019-1.445-6.738-3.065-9.328-10.459-16.722-7.445-7.445-8.683-9.435-8.301-13.35l.448-4.601 33.12-.398c35.865-.431 43.68.737 50.014 7.479 7.405 7.882 7.668 10.3 7.618 70.014-.05 58.717-.03 58.542-6.87 62.184-4.728 2.519-7.2 2.133-11.825-1.844l-4.143-3.561-.738-48.482c-.636-41.783-1.044-48.482-2.953-48.482-1.939 0-2.262 10.71-2.595 86-.318 71.634-.72 86.001-2.403 86.001-1.112 0-2.682-.83-3.489-1.845zm-16.612-7.772c-2.03-1.173-6.182-2.836-9.227-3.696l-5.537-1.565-.022-36.484c-.015-20.066-.61-37.411-1.327-38.545-.718-1.133-2.369-1.652-3.669-1.153-2.074.796-2.363 5.156-2.363 35.649 0 19.108-.211 34.742-.469 34.742s-8.064-3.429-17.348-7.62c-9.283-4.19-24.852-10.336-34.596-13.656l-17.717-6.038-.738-21.408c-.611-17.717-1.12-21.408-2.953-21.408-1.843 0-2.284 3.444-2.627 20.487l-.412 20.487-4.755-.913c-12.508-2.401-17.488-3.58-18.218-4.31-.438-.437-.721-13.311-.63-28.608.16-26.67.31-28.03 3.676-33.118 6.706-10.14 8.126-10.364 62.435-9.885 67.57.596 62.4-4.983 63.535 68.564.849 54.977 1.11 53.181-7.038 48.478m-354.83-26.8c-.541-.542-.984-9.14-.984-19.107s-.588-18.485-1.306-18.929-1.77-12.94-2.337-27.77c-.854-22.313-1.535-28.027-3.945-33.136-3.85-8.16-14.6-15.234-23.148-15.234-5.38 0-6.236-.47-7.096-3.897-.538-2.144-.57-10.615-.07-18.825.933-15.323.142-19.75-5.361-30.034-1.405-2.624-4.51-6.218-6.9-7.986-2.392-1.767-4.002-3.772-3.58-4.455s22.486-1.24 49.032-1.236c45.512 0 48.54.172 53.064 2.931 4.134 2.52 4.798 3.748 4.798 8.87 0 3.268 1.289 8.759 2.864 12.201 3.276 7.16 4.203 12.814 2.54 15.486-.724 1.163-4.628 1.846-10.559 1.846-8.113 0-9.54-.407-10.347-2.953-1.742-5.489-7.844-2.514-6.878 3.353.236 1.438-2.18 5.58-5.37 9.204-4.306 4.892-6.042 8.359-6.742 13.462-.518 3.78-.942 30.673-.942 59.761v52.888l-7.65 2.272c-8.96 2.66-7.864 2.505-9.082 1.287zm23.487-7.518c-.467-.467-.848-24.764-.848-53.993v-53.144l3.645-6.22c2.513-4.289 5.718-7.195 10.319-9.358 6.348-2.984 8.869-3.137 51.793-3.137 48.897 0 49.292.058 56.973 8.358 7.14 7.713 7.194 8.14 7.194 56.575v45.933l-9.966-.437-9.966-.436-.738-36.172-.738-36.172h-7.382l-.395 36.541c-.218 20.098-.882 36.586-1.477 36.64s-3.074.324-5.51.597-12.402.931-22.147 1.463c-9.744.531-22.035 1.881-27.313 3s-10.084 1.556-10.679.972c-.595-.583-1.26-18.645-1.476-40.137l-.395-39.076h-7.382l-.393 40.551c-.216 22.304-.927 41.085-1.578 41.737-1.744 1.743-20.548 6.907-21.54 5.915m184.81-13.21-5.537-.613v-66.906c0-57.417-.311-67.166-2.195-68.73-1.208-1.002-3.169-1.449-4.357-.993-1.828.702-2.23 8.721-2.603 51.97l-.441 51.139-4.143 3.562c-6.917 5.947-14.505 4.041-18.092-4.543-2.737-6.551-3.087-117.117-.395-124.921 2.554-7.407 7.013-12.81 12.007-14.552 2.75-.958 24.273-1.538 56.98-1.535 49.528 0 52.835.172 57.289 2.888 6.206 3.784 9.632 10.705 9.856 19.912l.181 7.461-7.552.19c-10.255.256-17.689 2.875-26.067 9.185-17.587 13.245-19.171 37.727-3.379 52.22 2.89 2.653 5.255 5.326 5.255 5.94s-5.149 1.122-11.442 1.127c-14.4.014-21.212 1.89-27.798 7.673-9.519 8.357-10.14 10.728-10.958 41.778l-.738 28.052-5.167.154c-2.842.084-7.659-.121-10.704-.459m-48.476-36.157c-.214-59.486-.162-58.696-4.325-66.15-2.21-3.957-6.606-8.584-10.87-11.442-6.732-4.51-7.943-4.798-20.195-4.798-7.169 0-13.378-.557-13.798-1.237s1.929-3.836 5.22-7.013c6.86-6.622 8.596-10.216 9.923-20.54l.95-7.382 17.109-.414 17.109-.414.974 41.015c.535 22.558.975 49.716.977 60.35 0 20.883 1.139 25.253 8.151 31.35 3.39 2.947 3.758 4.235 3.366 11.746l-.442 8.437-7.013.45-7.012.45zm26.275 20.042c-2.268-2.268-.842-4.774 3.597-6.321 6.132-2.138 5.95-2.22 5.414 2.44-.356 3.093-1.358 4.163-4.213 4.496-2.06.24-4.22-.037-4.798-.615m103.772-63.448c-16.656-6.118-23.622-14.784-23.622-29.388 0-11.688 3.985-18.775 13.67-24.306 10.73-6.128 17.65-6.906 27.77-3.119 4.51 1.688 10.258 5.08 12.771 7.537 8.01 7.83 9.893 25.198 3.843 35.44-5.115 8.66-25.846 16.99-34.432 13.836m-344.003-15.92c0-1.118 1.025-2.883 2.278-3.923 2.822-2.342 5.616-.047 4.257 3.496-1.136 2.96-6.535 3.313-6.535.428m-26.575-.943c-7.99-1.616-12.197-3.735-16.552-8.337-4.653-4.916-8.547-14.967-8.547-22.06 0-18.625 18.426-34.113 35.896-30.173 5.902 1.331 7.815 2.512 15.525 9.582 12.082 11.08 12.264 28.629.427 41.169-8.44 8.941-16.485 11.895-26.749 9.819m161.006-25.325c-6.683-1.918-16.894-9.331-19.452-14.122-1.246-2.333-2.033-8.436-2.033-15.756 0-9.915.548-12.717 3.22-16.462 8.342-11.696 29.827-15.455 43.363-7.588 8.98 5.22 13.498 13.323 13.599 24.39.12 13.07-6.167 22.121-19.581 28.193-7.257 3.285-11.353 3.573-19.116 1.345m251.65-39.926c-6.717-2.362-17.082-11.384-19.37-16.861-4.61-11.031-.654-27.479 8.45-35.139 8.44-7.102 29.496-7.92 39.257-1.524 6.064 3.974 11.245 13.52 11.95 22.019.894 10.775-1.668 17.426-9.298 24.142-9.521 8.381-20.604 11.014-30.989 7.363m-200.708-3.142c-3.455-.97-9.135-4.716-13.966-9.213l-8.143-7.58-.583-10.32c-.863-15.275 3.477-22.485 17.19-28.55 8.776-3.883 18.462-3.67 27.565.606 8.714 4.093 12.11 7.58 14.84 15.23 5.612 15.738-.534 29.777-16.317 37.269-8.002 3.799-13.659 4.502-20.586 2.558m-147.521-6.009c-11.872-4.398-18.658-14.622-18.658-28.11 0-9.747 2.083-14.33 9.844-21.655 12.585-11.88 30.815-11.165 42.403 1.661 8.992 9.954 10.398 20.75 4.431 34.045-3.286 7.323-4.863 9.07-10.704 11.861-8.517 4.07-19.812 4.979-27.316 2.198m248.107-15.556c-14.49-2.884-28.043-22.535-25.37-36.785 2.598-13.849 13.311-25.416 26.213-28.304 11.603-2.596 20.882.68 29.696 10.483 12.24 13.613 12.476 29.988.627 43.449-3.267 3.712-7.692 7.645-9.832 8.74-5.317 2.72-14.556 3.766-21.334 2.417" style="fill:#000;stroke-width:1.47641"/></svg>