<?xml version="1.0" encoding="UTF-8" standalone="no"?>
<svg
   xml:space="preserve"
   width="872"
   height="1209"
   viewBox="0 0 872 1209"
   version="1.1"
   id="svg1"
   sodipodi:docname="crowded.svg"
   inkscape:version="1.4.2 (f4327f4, 2025-05-13)"
   xmlns:inkscape="http://www.inkscape.org/namespaces/inkscape"
   xmlns:sodipodi="http://sodipodi.sourceforge.net/DTD/sodipodi-0.dtd"
   xmlns="http://www.w3.org/2000/svg"
   xmlns:svg="http://www.w3.org/2000/svg"><defs
     id="defs1" /><sodipodi:namedview
     id="namedview1"
     pagecolor="#ffffff"
     bordercolor="#000000"
     borderopacity="0.25"
     inkscape:showpageshadow="2"
     inkscape:pageopacity="0.0"
     inkscape:pagecheckerboard="0"
     inkscape:deskcolor="#d1d1d1"
     inkscape:zoom="0.32817773"
     inkscape:cx="-1273.7001"
     inkscape:cy="763.30591"
     inkscape:window-width="3440"
     inkscape:window-height="1369"
     inkscape:window-x="1737"
     inkscape:window-y="1432"
     inkscape:window-maximized="1"
     inkscape:current-layer="svg1" /><circle
     cx="438.49899"
     cy="780.88"
     r="417.83801"
     style="fill:none;stroke:#000000;stroke-width:18;stroke-dasharray:none;stroke-opacity:1"
     id="circle1" /><path
     style="fill:#000000;stroke-width:2.4781"
     d="m 95.136139,520.6992 c -3.25171,-7.83697 -6.12154,-15.92176 -6.37738,-17.96619 -0.25584,-2.04443 -2.71084,-10.408 -5.45555,-18.58572 -9.01363,-26.85562 -11.63246,-49.80405 -11.59464,-101.60193 0.0377,-51.58518 2.27457,-70.93636 11.74464,-101.60193 2.94633,-9.54066 5.50117,-18.46181 5.67744,-19.82476 0.68304,-5.28151 15.904101,-40.4142 22.012181,-50.80769 2.80563,-4.77404 7.88899,-14.03984 11.29638,-20.59067 3.40738,-6.55083 10.09824,-16.82656 14.86857,-22.83497 4.77033,-6.0084 12.57634,-16.06344 17.34667,-22.34452 11.1866,-14.72937 46.51773,-48.386637 61.47529,-58.562811 6.39569,-4.351231 12.18611,-8.677024 12.86759,-9.612872 3.53919,-4.860258 53.86691,-31.99676 73.10382,-39.417295 2.72591,-1.051503 7.74405,-3.132214 11.15143,-4.623802 3.40738,-1.491586 20.84089,-6.49868 38.74112,-11.126873 l 32.54587,-8.414897 59.14367,0.522472 c 45.64249,0.403201 62.67927,1.453296 74.63177,4.600074 8.51846,2.242684 22.05376,5.70817 30.07846,7.701079 8.02469,1.992912 20.77737,6.453484 28.3393,9.912383 7.56194,3.458901 15.42732,6.288909 17.47866,6.288909 2.05132,0 4.33203,0.974639 5.06825,2.165865 0.73622,1.191225 7.21411,4.954298 14.39531,8.362383 41.06009,19.486491 99.62745,69.739455 128.55731,110.306975 8.0297,11.25979 14.59943,21.09516 14.59943,21.85637 0,0.76122 3.34543,6.24644 7.43429,12.1894 4.08886,5.94295 7.43433,12.10501 7.43433,13.69347 0,1.58846 2.3637,6.20766 5.2527,10.26489 2.889,4.05723 6.6709,12.03537 8.4043,17.72921 3.0828,10.12638 6.8585,19.98477 11.6538,30.42782 1.315,2.86374 2.7798,8.43945 3.2552,12.39048 1.302,10.82126 3.6408,20.72121 8.1368,34.44273 3.251,9.92194 4.0598,23.00517 4.0597,65.66953 -10e-5,48.13605 -0.5673,55.43196 -5.8761,75.58193 -3.2318,12.26657 -6.165,24.7498 -6.5183,27.74049 -0.7955,6.73408 -15.626,45.78357 -18.5446,48.82883 -1.2324,1.28595 -8.73,-4.51658 -17.74961,-13.73688 -8.58871,-8.7798 -20.80946,-20.14643 -27.1572,-25.25918 -6.34774,-5.11276 -15.62707,-13.14925 -20.62073,-17.85887 -4.99366,-4.70962 -10.1622,-8.56296 -11.48563,-8.56296 -1.32343,0 -3.7531,-1.13086 -5.39928,-2.51299 -4.40811,-3.70114 -21.54359,-14.84977 -31.49112,-20.48865 -39.42675,-22.34952 -71.08869,-34.55826 -132.57812,-51.1217 -19.11997,-5.15035 -51.24668,-7.8996 -92.56734,-7.92151 -45.88843,-0.0248 -76.13461,3.07651 -104.44128,10.70718 -10.22214,2.75562 -22.08256,5.84843 -26.35646,6.87293 -19.19096,4.60026 -67.00734,25.36009 -98.7878,42.88944 -12.25651,6.7604 -43.36016,27.62304 -49.80162,33.40422 -2.62207,2.35327 -10.33155,8.72108 -17.13222,14.15067 -6.80064,5.42958 -19.1338,16.85979 -27.40699,25.40048 -8.27323,8.54068 -15.59523,15.52851 -16.27116,15.52851 -0.67592,0 -3.889441,-6.41207 -7.141151,-14.24905 z m 80.582131,-78.66987 c 64.24039,-43.06993 137.9287,-69.96896 214.64239,-78.35264 31.66588,-3.46061 102.53761,-1.50524 129.85678,3.58279 88.29082,16.44365 167.02619,53.01829 229.71369,106.70794 10.51567,9.00632 20.23022,16.37511 21.58782,16.37511 2.4524,0 3.7126,-3.80871 11.4784,-34.69334 6.1508,-24.46171 7.7094,-101.25678 2.6469,-130.41805 C 777.87305,280.46768 756.3515,226.84059 730.62661,188.13917 680.72951,113.07228 592.73317,55.148062 504.06596,39.003992 480.12894,34.645661 402.28452,34.583085 379.11038,38.903543 311.02777,51.596492 246.25231,86.206631 195.39405,137.06489 154.63054,177.82839 127.96318,220.88214 109.68427,275.441 89.722959,335.02153 87.805559,420.16087 105.15972,476.34706 l 5.05164,16.35536 19.12392,-16.19864 c 10.51817,-8.90925 31.39051,-24.42275 46.38299,-34.47445 z"
     id="path1" /><path
     style="fill:#000000;stroke-width:1.47641"
     d="m 191.45786,403.17408 c -0.0281,-0.60901 -0.0354,-25.68949 -0.0177,-55.73439 0.0266,-45.60254 -0.32289,-55.09008 -2.11806,-57.42989 -1.77803,-2.31723 -2.54222,-2.47771 -4.41121,-0.9266 -1.94177,1.6115 -2.26082,8.3826 -2.26082,47.9868 v 46.11042 l -3.62059,3.90673 c -4.43646,4.78695 -10.68491,5.1153 -16.11175,0.84657 l -3.89033,-3.06001 V 325.37626 265.8788 l 5.73688,-6.4646 5.73687,-6.4646 h 53.01042 53.01042 l 4.65644,5.16743 c 2.61206,2.89863 5.33456,8.08421 6.20106,11.81126 0.93944,4.04063 1.4054,23.93508 1.1891,50.7744 l -0.35552,44.13056 -8.31616,2.9698 c -13.7517,4.91082 -13.09175,6.81893 -13.09175,-37.85318 0,-31.17538 -0.40468,-39.32618 -2.01869,-40.66573 -4.60049,-3.81814 -5.31049,1.65771 -5.70897,44.03224 l -0.39258,41.7342 -7.38204,2.82039 c -4.06012,1.55126 -11.36834,4.24142 -16.24048,5.97827 -10.80332,3.85106 -30.87789,13.3197 -36.9102,17.40965 -4.68892,3.179 -6.61164,3.72911 -6.69432,1.91519 z m 480.25446,-8.12024 c -0.86902,-1.09372 -1.8151,-22.8979 -2.3221,-53.51978 -0.53652,-32.39622 -1.49722,-53.87574 -2.5753,-57.57503 -2.2493,-7.71836 -12.21269,-17.64085 -19.83967,-19.75817 -3.24544,-0.90105 -11.14614,-1.64191 -17.55714,-1.64634 l -11.65624,-0.0148 7.43858,-7.86526 c 9.17573,-9.70207 11.85187,-19.13056 9.08774,-32.019 -1.44511,-6.73803 -3.06517,-9.32824 -10.45917,-16.72239 -7.44508,-7.44508 -8.68261,-9.43513 -8.3014,-13.35071 l 0.44794,-4.60063 33.12011,-0.39804 c 35.8649,-0.43112 43.681,0.73776 50.01434,7.47933 7.40478,7.88195 7.66788,10.30001 7.61768,70.01361 -0.0502,58.71748 -0.0295,58.54208 -6.86899,62.18438 -4.72893,2.51875 -7.19985,2.13341 -11.82588,-1.84389 l -4.1425,-3.56139 -0.73821,-48.48198 c -0.63618,-41.78263 -1.04426,-48.48183 -2.95281,-48.48183 -1.93882,0 -2.26201,10.70927 -2.59567,86.00075 -0.31728,71.63308 -0.71872,86.00074 -2.40286,86.00074 -1.11203,0 -2.68189,-0.83047 -3.48845,-1.8455 z m -16.61195,-7.77225 c -2.03006,-1.17212 -6.18246,-2.83515 -9.22755,-3.6956 l -5.53653,-1.56455 -0.0222,-36.48425 c -0.0148,-20.0663 -0.60975,-37.41143 -1.32743,-38.54472 -0.71769,-1.13344 -2.36846,-1.65254 -3.66843,-1.15366 -2.0745,0.79607 -2.36359,5.15576 -2.36359,35.64889 0,19.10811 -0.21097,34.74194 -0.46861,34.74194 -0.25778,0 -8.06428,-3.42866 -17.34779,-7.61929 -9.28365,-4.19064 -24.85178,-10.33619 -34.59607,-13.65678 l -17.71733,-6.03747 -0.73821,-21.40791 c -0.61094,-17.71689 -1.12,-21.40791 -2.95281,-21.40791 -1.84241,0 -2.28386,3.44372 -2.62653,20.48678 l -0.41207,20.48678 -4.75536,-0.91286 c -12.50827,-2.40138 -17.48761,-3.57926 -18.21798,-4.30964 -0.43776,-0.43775 -0.72123,-13.31159 -0.62984,-28.60835 0.15916,-26.66998 0.31019,-28.03034 3.67552,-33.11819 6.70628,-10.13893 8.12614,-10.36364 62.43521,-9.88484 67.57031,0.59573 62.40067,-4.98317 63.53544,68.56378 0.84834,54.97759 1.10907,53.18168 -7.03789,48.47785 z M 300.27043,360.48124 c -0.5414,-0.54139 -0.98432,-9.13911 -0.98432,-19.10619 0,-9.96693 -0.58761,-18.48506 -1.30573,-18.92887 -0.71813,-0.44381 -1.77022,-12.94027 -2.33775,-27.76976 -0.85395,-22.31324 -1.53428,-28.02753 -3.94466,-33.13678 -3.84915,-8.15922 -14.59931,-15.23387 -23.14845,-15.23387 -5.38003,0 -6.23517,-0.46965 -7.09547,-3.89713 -0.53786,-2.1433 -0.5693,-10.61419 -0.0694,-18.8242 0.9325,-15.32349 0.14173,-19.7499 -5.36172,-30.03412 -1.40466,-2.62461 -4.50999,-6.21833 -6.90073,-7.98589 -2.3909,-1.76755 -4.00166,-3.77251 -3.57955,-4.4555 0.42195,-0.68284 22.48672,-1.239 49.03253,-1.23605 45.5116,0 48.53897,0.17245 53.06357,2.93111 4.13438,2.52082 4.79832,3.74801 4.79832,8.86908 0,3.26891 1.28876,8.75982 2.86379,12.20207 3.2763,7.15998 4.20363,12.81374 2.54001,15.48618 -0.72403,1.16312 -4.6278,1.84551 -10.55882,1.84551 -8.11345,0 -9.53922,-0.40689 -10.34726,-2.95281 -1.74201,-5.48855 -7.84356,-2.51403 -6.87799,3.35307 0.23667,1.43817 -2.17962,5.57979 -5.3694,9.20363 -4.30639,4.89222 -6.04249,8.35898 -6.74201,13.46262 -0.51808,3.78049 -0.9421,30.67311 -0.9421,59.76115 v 52.88743 l -7.65001,2.27175 c -8.96032,2.66093 -7.86453,2.50561 -9.08256,1.28757 z m 23.4867,-7.51772 c -0.4667,-0.46669 -0.8485,-24.76334 -0.8485,-53.99252 v -53.14403 l 3.6454,-6.2204 c 2.51314,-4.28853 5.71813,-7.19469 10.31876,-9.35733 6.34856,-2.98411 8.86923,-3.13678 51.79327,-3.13678 48.8973,0 49.2915,0.0576 56.9731,8.35751 7.13917,7.71349 7.19335,8.14032 7.19335,56.57476 v 45.93326 l -9.96575,-0.43658 -9.96575,-0.43657 -0.73821,-36.17199 -0.7382,-36.17199 h -3.69102 -3.69102 l -0.39494,36.54109 c -0.21718,20.0976 -0.88156,36.58583 -1.4764,36.64075 -0.59485,0.0546 -3.07462,0.32304 -5.5107,0.59603 -2.43607,0.27298 -12.40182,0.93131 -22.14611,1.46297 -9.74429,0.53165 -22.03539,1.88168 -27.31354,3.00006 -5.27816,1.11838 -10.08357,1.55584 -10.67886,0.97236 -0.59514,-0.58362 -1.25952,-18.64526 -1.47641,-40.13718 l -0.3942,-39.07608 h -3.69102 -3.69102 l -0.39346,40.55161 c -0.21629,22.3035 -0.92645,41.08473 -1.57784,41.73627 -1.74364,1.74364 -20.54849,6.90708 -21.54093,5.91478 z m 184.80977,-13.21015 -5.53653,-0.61227 v -66.90652 c 0,-57.4169 -0.31137,-67.16518 -2.19586,-68.72914 -1.2077,-1.00218 -3.16822,-1.44909 -4.35673,-0.99303 -1.8275,0.7013 -2.22923,8.72099 -2.60261,51.96896 l -0.44145,51.13967 -4.1425,3.56153 c -6.91697,5.94697 -14.50526,4.04167 -18.0922,-4.5429 -2.73711,-6.55082 -3.08702,-117.11619 -0.39523,-124.92078 2.55448,-7.40699 7.01323,-12.81049 12.00733,-14.55147 2.7501,-0.95863 24.27303,-1.53842 56.98062,-1.53502 49.52684,0 52.83414,0.17185 57.28802,2.88755 6.20593,3.78404 9.63179,10.70529 9.85576,19.91158 l 0.1816,7.46176 -7.55227,0.18898 c -10.25528,0.2566 -17.68884,2.87619 -26.06686,9.18577 -17.58697,13.24515 -19.17101,37.7265 -3.37891,52.21995 2.89036,2.65281 5.25527,5.32599 5.25527,5.94077 0,0.61463 -5.14897,1.12118 -11.44216,1.12576 -14.39985,0.0148 -21.21243,1.89083 -27.79839,7.67348 -9.51855,8.35735 -10.14027,10.72758 -10.95731,41.77791 l -0.7382,28.05174 -5.16743,0.15399 c -2.84209,0.0842 -7.65887,-0.12106 -10.70396,-0.45827 z m -48.47607,-36.1559 c -0.21393,-59.48624 -0.16226,-58.69665 -4.32484,-66.15015 -2.20989,-3.95707 -6.60604,-8.58428 -10.87079,-11.44216 -6.7308,-4.51043 -7.94263,-4.79833 -20.19416,-4.79833 -7.16855,0 -13.37758,-0.55645 -13.79792,-1.23649 -0.42018,-0.68003 1.92849,-3.83585 5.21925,-7.01293 6.85998,-6.62273 8.59624,-10.2163 9.92383,-20.54053 l 0.94918,-7.38203 17.10935,-0.41399 17.1092,-0.41384 0.97384,41.01505 c 0.53564,22.55833 0.97517,49.71611 0.97679,60.35068 0,20.8826 1.1392,25.25218 8.15154,31.3493 3.38924,2.94691 3.75835,4.23522 3.36547,11.7463 l -0.44115,8.43649 -7.01293,0.45001 -7.01294,0.45001 z m 26.27474,20.04135 c -2.26761,-2.26762 -0.8414,-4.77367 3.59742,-6.32109 6.13225,-2.13769 5.95036,-2.21963 5.41428,2.43932 -0.35596,3.09381 -1.35874,4.16406 -4.21337,4.49699 -2.06048,0.24021 -4.21973,-0.0369 -4.79833,-0.61522 z m 103.77286,-63.44788 c -16.65624,-6.11779 -23.62252,-14.78416 -23.62252,-29.38746 0,-11.68886 3.98556,-18.77518 13.67079,-24.30669 10.73024,-6.12827 17.64854,-6.9053 27.76916,-3.11861 4.51073,1.68768 10.25794,5.07914 12.77137,7.53647 8.00937,7.83057 9.89267,25.19873 3.84309,35.43998 -5.11531,8.65943 -25.84584,16.98991 -34.43189,13.83631 z m -344.003,-15.91907 c 0,-1.11853 1.02478,-2.88431 2.27722,-3.92371 2.822,-2.34202 5.61669,-0.0472 4.25707,3.49614 -1.13551,2.95901 -6.53429,3.31232 -6.53429,0.42757 z M 219.5601,243.328 c -7.98973,-1.61578 -12.1972,-3.73502 -16.55231,-8.33683 -4.6526,-4.91629 -8.54663,-14.96738 -8.54663,-22.06034 0,-18.62533 18.42543,-34.11314 35.89591,-30.1729 5.90223,1.33113 7.81536,2.51196 15.52472,9.58189 12.08174,11.07984 12.26378,28.62887 0.42712,41.16903 -8.43988,8.94142 -16.48527,11.89468 -26.74881,9.81915 z m 161.00565,-25.32497 c -6.68266,-1.9183 -16.8935,-9.33134 -19.45197,-14.12228 -1.24549,-2.33228 -2.03316,-8.4362 -2.03316,-15.75578 0,-9.91467 0.54805,-12.71689 3.21975,-16.46224 8.34289,-11.69566 29.82772,-15.45504 43.36328,-7.58756 8.98084,5.21999 13.49835,13.32237 13.59919,24.39055 0.11959,13.06975 -6.16695,22.12028 -19.581,28.19245 -7.25729,3.28501 -11.35284,3.5732 -19.11609,1.34486 z m 251.6503,-39.9262 c -6.71707,-2.36181 -17.08219,-11.38428 -19.37062,-16.86131 -4.6089,-11.03054 -0.6536,-27.47846 8.44978,-35.13851 8.44062,-7.1024 29.49656,-7.91959 39.25797,-1.52365 6.06376,3.97316 11.24521,13.5202 11.95005,22.01826 0.89352,10.77512 -1.6682,17.42634 -9.29827,24.14266 -9.52091,8.38068 -20.60445,11.014 -30.98891,7.36255 z m -200.70833,-3.14179 c -3.45435,-0.96927 -9.13438,-4.71654 -13.96563,-9.21353 l -8.14328,-7.57973 -0.58318,-10.32068 c -0.86311,-15.27432 3.47783,-22.48406 17.18952,-28.54944 8.77665,-3.88236 18.46263,-3.66932 27.56557,0.60636 8.7139,4.0929 12.11097,7.57944 14.83967,15.23033 5.61271,15.73732 -0.53373,29.77663 -16.31608,37.26866 -8.00272,3.79895 -13.65913,4.50186 -20.58659,2.55803 z M 283.98654,168.9262 c -11.87179,-4.39851 -18.65781,-14.62263 -18.65781,-28.11095 0,-9.74576 2.08351,-14.32868 9.8441,-21.65403 12.58564,-11.87976 30.8147,-11.16562 42.40302,1.66126 8.99236,9.9535 10.39775,20.75002 4.43159,34.04448 -3.28649,7.32313 -4.863,9.07017 -10.70396,11.86117 -8.51725,4.06972 -19.81206,4.97859 -27.31694,2.19807 z m 248.10722,-15.55587 c -14.48991,-2.88402 -28.0426,-22.53559 -25.36927,-36.78573 2.59789,-13.84856 13.311,-25.415774 26.21288,-28.303184 11.6028,-2.59656 20.88172,0.67885 29.69588,10.48235 12.23957,13.613214 12.47579,29.987904 0.62688,43.448904 -3.26744,3.71214 -7.69179,7.64484 -9.83184,8.73975 -5.31699,2.71983 -14.55635,3.76705 -21.33453,2.41791 z"
     id="path5" /></svg>
