<?xml version="1.0" encoding="UTF-8" standalone="no"?>
<!-- Created with Inkscape (http://www.inkscape.org/) -->

<svg
   version="1.1"
   id="svg1"
   width="872"
   height="889"
   viewBox="0 0 872 889"
   sodipodi:docname="explorer.svg"
   inkscape:version="1.4.2 (f4327f4, 2025-05-13)"
   xml:space="preserve"
   xmlns:inkscape="http://www.inkscape.org/namespaces/inkscape"
   xmlns:sodipodi="http://sodipodi.sourceforge.net/DTD/sodipodi-0.dtd"
   xmlns="http://www.w3.org/2000/svg"
   xmlns:svg="http://www.w3.org/2000/svg"><defs
     id="defs1" /><sodipodi:namedview
     id="namedview1"
     pagecolor="#ffffff"
     bordercolor="#000000"
     borderopacity="0.25"
     inkscape:showpageshadow="2"
     inkscape:pageopacity="0.0"
     inkscape:pagecheckerboard="true"
     inkscape:deskcolor="#d1d1d1"
     inkscape:zoom="0.92822679"
     inkscape:cx="-63.562053"
     inkscape:cy="244.01364"
     inkscape:window-width="3440"
     inkscape:window-height="1369"
     inkscape:window-x="1737"
     inkscape:window-y="1432"
     inkscape:window-maximized="1"
     inkscape:current-layer="g1" /><g
     inkscape:groupmode="layer"
     inkscape:label="Image"
     id="g1"><circle
       style="fill:none;stroke:#000000;stroke-width:18;stroke-dasharray:none;stroke-opacity:1"
       id="path2"
       cx="438.49911"
       cy="448.88046"
       r="417.83762" /><path
       style="fill:#000000;stroke-width:2.77204"
       d="m 316.82203,788.8476 c -18.52855,-6.12894 -23.56232,-9.82407 -23.56232,-17.2964 0,-38.67492 60.21803,-57.2109 92.83234,-28.57514 10.96423,9.62674 16.62211,25.22707 12.16777,33.55007 -1.58452,2.96072 -7.45836,7.31043 -13.05297,9.66604 -13.7309,5.78138 -54.18567,7.35227 -68.38482,2.65543 z m 194.04266,0 c -19.532,-6.46087 -23.56232,-9.66479 -23.56232,-18.73104 0,-20.82713 19.85893,-38.13487 46.53101,-40.55342 19.73323,-1.78935 33.60342,2.26401 46.50268,13.58969 10.7872,9.47128 16.39232,25.10347 11.96642,33.3733 -1.58452,2.96072 -7.45836,7.31043 -13.05297,9.66604 -13.7309,5.78138 -54.18566,7.35227 -68.38482,2.65543 z M 424.6993,772.54802 c -5.57,-4.89051 -13.16835,-13.70919 -16.88521,-19.59709 -6.2013,-9.82352 -6.5164,-11.88799 -3.82546,-25.06559 7.06021,-34.57422 9.21755,-98.38817 9.98146,-295.24855 0.7606,-196.01211 1.04686,-206.23059 5.88047,-209.8937 2.79452,-2.11783 7.88764,-3.89025 11.31804,-3.93876 l 6.23709,-0.0882 v 281.36191 c 0,154.74903 -0.5803,281.36186 -1.28956,281.36186 -0.70928,0 -5.84684,-4.00133 -11.41683,-8.89187 z m 26.56657,-273.85601 c 0,-303.86173 -1.03804,-284.119 14.56479,-277.00989 l 6.50952,2.96595 0.008,186.22564 c 0.008,180.06508 2.72841,267.24185 9.77235,313.23597 2.76004,18.02191 2.56715,19.39571 -4.14813,29.54316 -8.2764,12.5075 -20.30715,25.01501 -24.06079,25.01501 -1.66256,0 -2.64605,-104.06142 -2.64605,-279.97584 z M 272.46942,752.85988 c -10.39273,-5.96739 -11.07052,-7.13182 -10.80706,-18.56612 0.24615,-10.68027 1.72917,-13.48444 11.90998,-22.51909 12.70555,-11.27522 32.72113,-17.40346 47.31114,-14.48545 7.7397,1.54793 8.41189,2.59734 8.40232,13.1172 -0.0113,10.92973 -0.55756,11.65966 -12.40182,16.53038 -11.18856,4.60105 -23.05715,15.36962 -30.55436,27.72241 -2.5214,4.15433 -3.77466,3.99164 -13.8602,-1.79933 z m 327.20629,1.27464 c -2.71435,-8.40219 -18.76664,-23.06378 -30.98623,-28.30171 -11.3335,-4.8581 -12.08616,-5.85817 -12.08616,-16.05889 0,-10.10283 0.64211,-10.99002 9.00912,-12.44764 12.81976,-2.23333 30.33577,1.77006 41.2339,9.42421 12.13069,8.51983 15.57192,13.00443 18.93875,24.68104 2.3248,8.06258 1.91379,10.49692 -2.57984,15.28018 -2.93989,3.12933 -9.10429,7.10859 -13.6987,8.8428 -7.08555,2.6745 -8.57774,2.45897 -9.83084,-1.41999 z m -221.7752,-26.26085 c -6.04698,-3.12173 -17.45295,-6.21148 -25.34654,-6.86606 l -14.35204,-1.19018 -1.12207,-18.39244 C 335.41517,674.13804 318.7578,640.2713 298.5856,623.16076 252.49112,584.06235 198.99026,557.04048 136.63956,541.36601 c -20.40286,-5.12909 -22.92814,-6.29419 -13.86019,-6.39465 15.02403,-0.16659 56.67454,9.27284 80.38911,18.2187 22.3702,8.43875 60.2479,26.87421 71.37997,34.7414 13.94674,9.85637 7.88071,0.85132 -13.8602,-20.57557 -29.07208,-28.65217 -56.68423,-48.71297 -87.31919,-63.43916 -21.2376,-10.2089 -15.10294,-11.07366 8.31612,-1.17227 56.87632,24.04688 102.81558,61.65527 138.7594,113.59606 5.04165,7.28545 9.78139,12.63151 10.53278,11.88013 0.75136,-0.75137 -0.069,-9.93216 -1.82331,-20.40176 -2.50634,-14.95875 -6.09354,-23.516 -16.74919,-39.95513 -20.97911,-32.36579 -33.9439,-42.83999 -82.84196,-66.92772 -31.00333,-15.27255 -28.07619,-17.29319 5.39126,-3.72166 12.90824,5.23449 23.84823,9.13858 24.31105,8.67578 1.43655,-1.43657 -20.80706,-18.88162 -47.17432,-36.99755 -13.86907,-9.52889 -24.28702,-17.32524 -23.15104,-17.32524 9.47194,0 59.08679,30.71398 84.67293,52.41661 17.43911,14.7922 15.12953,7.92267 -4.1207,-12.2564 -7.25419,-7.60423 -13.53538,-15.69698 -13.95821,-17.9839 -1.2116,-6.55332 -55.57888,-58.19282 -80.41615,-76.3814 -28.86074,-21.13502 -30.11384,-21.97531 -47.74567,-32.01644 -8.14635,-4.63928 -14.26315,-8.98345 -13.59287,-9.6537 0.67027,-0.67028 10.95104,3.2165 22.84613,8.63729 23.95396,10.91614 64.07306,36.85459 86.96155,56.2238 14.8683,12.58214 51.8905,49.97336 65.01663,65.66461 12.65385,15.12674 10.32396,5.62022 -7.19405,-29.35333 -23.70835,-47.33216 -46.79003,-80.45319 -86.14221,-123.60981 -20.3756,-22.34539 -11.57218,-17.663 17.10881,9.09994 42.6001,39.7512 72.3447,82.27728 99.09886,141.68242 9.66445,21.45895 13.95179,27.65304 25.51102,36.85662 7.64184,6.08455 14.5464,11.06279 15.34347,11.06279 2.57371,0 -16.6093,-69.99401 -25.45066,-92.86327 -9.87347,-25.53896 -33.01544,-56.08446 -71.30338,-94.11468 -13.12162,-13.03332 -23.05518,-23.69693 -22.0746,-23.69693 3.08913,0 30.05393,20.77077 46.61855,35.90989 8.75186,7.99872 15.91244,13.78088 15.91244,12.84931 0,-3.70007 -31.91247,-52.98244 -48.85242,-75.4427 -9.8877,-13.10986 -17.46482,-24.34887 -16.83808,-24.97563 1.71871,-1.71869 35.86391,35.20198 49.52479,53.55034 16.72001,22.45725 32.15006,47.77674 47.32101,77.65006 7.11873,14.01759 17.88064,32.72885 23.91534,41.58056 14.19958,20.82799 33.52049,59.30895 45.95507,91.52757 8.23057,21.32573 9.81576,28.8682 9.61296,45.73863 -0.23257,19.34885 -4.16205,53.44622 -4.93085,42.78663 -0.42313,-5.8668 -14.68487,-32.27988 -17.43183,-32.28415 -4.87703,-0.008 2.12492,25.0929 10.63546,38.12586 l 9.51189,14.56639 -2.9568,36.71631 c -3.13101,38.88025 -5.70643,52.6774 -9.98236,53.4781 -1.44149,0.27 -7.56843,-2.06337 -13.61541,-5.18509 z M 359.78862,571.41476 c 0,-4.21648 -2.18299,-11.54223 -4.85107,-16.27942 -5.16649,-9.17314 -27.72842,-30.19689 -24.87441,-23.1786 0.92993,2.2868 3.1191,9.30877 4.86481,15.6044 3.15924,11.39321 17.39258,31.51998 22.29043,31.51998 1.41363,0 2.57024,-3.44985 2.57024,-7.66636 z m 20.79028,-28.37013 c -4.12637,-12.39038 -8.10851,-21.92189 -8.84922,-21.18117 -4.14065,4.14064 11.18755,48.65972 15.3725,44.64779 0.53858,-0.51628 -2.3969,-11.07626 -6.52328,-23.46662 z m 110.98362,186.04823 c -2.81406,-8.86633 -6.98901,-50.62767 -7.01116,-70.13145 -0.0167,-15.71485 1.22769,-20.55369 8.20558,-31.87844 8.82531,-14.32306 14.87696,-39.5272 8.55215,-35.61824 -1.90844,1.17947 -7.08708,9.79055 -11.50814,19.13576 l -8.03828,16.99129 -0.002,-36.39946 c -0.002,-31.79361 0.84648,-38.63351 6.70473,-54.05474 12.15822,-32.00521 26.29691,-60.50547 44.23921,-89.17577 9.73143,-15.55008 22.98118,-38.87592 29.44383,-51.8352 21.44507,-43.00276 55.92055,-91.07921 83.98547,-117.1186 17.72288,-16.44379 17.04135,-13.20212 -2.20688,10.49707 -16.95256,20.87267 -56.38123,81.67318 -52.96441,81.67318 0.85073,0 8.12512,-6.3469 16.16527,-14.10423 13.37914,-12.90844 46.49695,-37.67361 46.49695,-34.76992 0,0.67601 -8.90941,9.76625 -19.79868,20.20056 -29.42867,28.1991 -59.05795,64.86452 -68.63792,84.93754 -8.17835,17.13619 -25.22819,72.28646 -29.22591,94.53562 l -1.94261,10.81167 13.37092,-9.83109 c 11.74778,-8.6377 15.895,-14.82943 34.16365,-51.00623 28.64219,-56.71911 47.85166,-84.37755 83.80097,-120.65962 16.00618,-16.15431 21.76353,-21.27382 36.86753,-32.78302 5.18335,-3.94968 5.24842,-3.88212 1.29873,1.34816 -2.28693,3.0284 -6.14969,7.39436 -8.58392,9.70214 -12.71731,12.05661 -40.0906,46.15589 -56.24695,70.06757 -28.40984,42.04708 -63.24355,117.09109 -40.06803,86.32061 6.91798,-9.1851 58.38721,-60.76857 68.91636,-69.0693 31.16815,-24.57165 75.58185,-51.38329 98.35339,-59.37392 7.77799,-2.72932 7.95736,-2.64511 2.77205,1.30148 -3.04925,2.3208 -13.6523,9.39404 -23.56233,15.71833 -9.91003,6.32429 -27.37387,18.37796 -38.80853,26.78587 -25.76291,18.94356 -80.20236,72.95744 -75.20961,74.62169 2.20328,0.73442 0.39516,3.14271 -4.67395,6.22544 -9.69174,5.89391 -29.52132,32.76649 -20.69183,28.04108 2.96782,-1.58832 7.00445,-4.82587 8.97026,-7.19455 8.35978,-10.07291 58.47389,-41.86486 77.23749,-48.99876 9.71666,-3.69427 7.29974,-1.5669 -14.44778,12.71694 -18.89976,12.41339 -51.85486,38.1566 -50.53528,39.47618 0.41273,0.41273 11.26282,-3.57939 24.11133,-8.87138 34.98012,-14.40747 35.50032,-11.59791 1.18463,6.39795 -50.96154,26.72524 -54.58531,29.66818 -76.12801,61.82506 -13.1363,19.60859 -16.36492,26.76777 -18.01018,39.93612 -1.10255,8.82453 -2.71294,17.89038 -3.57862,20.14631 -3.44509,8.97772 5.07017,1.08141 15.58967,-14.45654 13.0385,-19.25862 51.47563,-58.91578 67.88937,-70.04421 6.30616,-4.27556 12.08944,-8.4635 12.85174,-9.30659 6.00208,-6.63795 42.84601,-25.30569 71.37998,-36.16615 12.01222,-4.572 6.08256,0.25919 -10.74264,8.75244 -9.33885,4.71423 -18.38263,9.72761 -20.09728,11.14084 -1.71464,1.41325 -11.20839,7.8533 -21.0972,14.31123 -19.23577,12.56205 -52.05715,42.16963 -61.59393,55.56281 l -5.80795,8.15653 6.65428,-3.50781 c 3.65983,-1.92932 7.27799,-4.40959 8.0403,-5.51171 2.53782,-3.66912 41.18899,-22.02863 64.40861,-30.59448 26.85015,-9.90513 68.12171,-19.23395 83.89541,-18.96329 9.10485,0.15634 7.01862,1.10948 -11.66373,5.3293 -61.82759,13.96511 -133.2127,50.71053 -171.42375,88.24017 -17.4018,17.09151 -31.48148,48.32142 -33.06675,73.34488 l -1.08642,17.14905 -14.73535,1.653 c -8.10447,0.90918 -19.9872,4.33957 -26.4061,7.6231 -14.14743,7.23705 -13.89174,7.22507 -15.94756,0.74773 z m 60.39764,-182.27718 c 2.64496,-8.58955 4.38464,-16.04176 3.86596,-16.56044 -0.51871,-0.51868 -6.65464,4.95344 -13.63546,12.16024 -10.4541,10.79257 -13.0311,15.54753 -14.61316,26.9635 l -1.9208,13.86019 10.74722,-10.40304 c 7.32068,-7.08624 12.28048,-15.38237 15.55624,-26.02045 z m -38.48627,-8.97151 c 2.50039,-11.24566 4.00053,-20.99225 3.33368,-21.6591 -1.01281,-1.01285 -4.94005,9.79192 -17.82308,49.03586 -0.92207,2.80868 0.46985,2.35889 4.28911,-1.38602 3.35588,-3.29055 7.50205,-13.85512 10.20029,-25.99074 z m -34.48764,-50.24111 c 0,-22.80902 4.62179,-33.25634 35.4262,-80.07886 15.6641,-23.80933 76.66523,-88.72874 80.12371,-85.27029 0.96728,0.96729 -5.00323,8.9406 -13.26784,17.71845 -35.10979,37.2902 -74.35126,98.77905 -91.49368,143.3647 -4.71252,12.25679 -9.06776,22.80481 -9.6783,23.44008 -0.61054,0.63524 -1.11009,-7.99309 -1.11009,-19.17408 z m -82.88313,-5.84811 C 377.45248,435.72767 347.0844,386.9059 311.37284,345.53691 c -11.51604,-13.34043 -20.29182,-24.25532 -19.5017,-24.25532 2.48255,0 18.74355,14.56944 36.62516,32.81522 23.00328,23.47175 44.49047,51.91716 62.11093,82.22435 12.16164,20.91811 14.69768,27.67168 15.69863,41.80657 1.95933,27.66871 -0.15607,28.42082 -10.20274,3.62722 z M 135.25355,259.17077 c 0,-1.31854 25.36946,-20.07587 37.42251,-27.66892 68.13231,-42.92133 136.1139,-66.90489 205.82382,-72.61356 l 22.8693,-1.87282 v -9.1806 c 0,-12.08152 2.71669,-13.26757 15.60135,-6.8111 5.90316,2.95805 12.91599,6.01707 15.58409,6.79787 4.24111,1.2411 4.85107,5.26457 4.85107,31.99902 0,30.01659 -0.11671,30.57941 -6.34399,30.57941 -3.48919,0 -10.92504,2.33557 -16.52414,5.19014 -5.5991,2.85459 -10.85253,4.51781 -11.67427,3.69607 -0.82174,-0.82177 -1.49411,-5.83972 -1.49411,-11.151 v -9.65686 l -31.18542,1.86619 c -32.05671,1.91833 -39.01932,2.95296 -93.55628,13.9023 -48.06628,9.65024 -114.81249,31.14992 -131.59561,42.38839 -5.38207,3.60401 -9.77832,4.74393 -9.77832,2.53547 z m 605.69029,-3.29831 C 695.51674,231.89117 586.07681,204.62519 518.48779,200.4495 l -31.18542,-1.92664 v 7.0979 c 0,14.57447 -1.9993,15.94987 -14.76191,10.15529 -6.36485,-2.88983 -13.75543,-5.28163 -16.42352,-5.31511 -4.31889,-0.0544 -4.85107,-3.3673 -4.85107,-30.20019 v -30.13931 l 14.43633,-7.14446 c 16.23938,-8.03678 21.60017,-6.43604 21.60017,6.44981 0,7.59943 0.15301,7.66155 23.67545,9.62097 33.29232,2.77322 104.05404,19.06336 113.479,26.12412 1.55841,1.16748 7.19942,3.77183 12.5356,5.78744 13.31366,5.02889 51.42935,24.0084 60.48989,30.12064 4.08376,2.7549 16.50673,11.06427 27.60656,18.46529 25.44415,16.96528 34.25923,26.04296 15.85497,16.32721 z M 422.95003,134.16903 c -5.60922,-3.81157 -12.01385,-6.9301 -14.2325,-6.9301 -2.21868,0 -5.41033,-3.94825 -7.09254,-8.77386 -3.78671,-10.86257 1.1706,-17.54075 16.09898,-21.687556 19.64639,-5.45739 19.68172,-5.42013 19.68172,20.759286 0,12.95927 -0.95786,23.56232 -2.12857,23.56232 -1.17068,0 -6.7179,-3.11855 -12.32709,-6.93009 z m 28.31584,-16.71922 c 0,-26.102596 0.0278,-26.131596 19.79723,-20.640416 13.63447,3.787136 16.97441,8.445736 14.70977,20.517286 -1.29325,6.89367 -3.34008,9.91225 -6.72128,9.91225 -2.67396,0 -7.83666,2.28249 -11.47266,5.07221 -15.30116,11.73983 -16.31306,10.81797 -16.31306,-14.86133 z"
       id="path1" /></g></svg>
