<svg xmlns="http://www.w3.org/2000/svg" xml:space="preserve" width="872" height="889" viewBox="0 0 872 889"><circle cx="438.499" cy="448.88" r="417.838" style="fill:none;stroke:#000;stroke-width:18;stroke-dasharray:none;stroke-opacity:1"/><path d="M316.822 788.848c-18.529-6.13-23.562-9.824-23.562-17.297 0-38.675 60.218-57.21 92.832-28.575 10.964 9.627 16.622 25.227 12.168 33.55-1.585 2.96-7.459 7.31-13.053 9.666-13.731 5.782-54.186 7.352-68.385 2.656m194.043 0c-19.532-6.461-23.563-9.665-23.563-18.731 0-20.828 19.86-38.135 46.531-40.554 19.734-1.79 33.604 2.264 46.503 13.59 10.787 9.471 16.392 25.103 11.966 33.373-1.584 2.96-7.458 7.31-13.052 9.666-13.731 5.782-54.186 7.352-68.385 2.656m-86.166-16.3c-5.57-4.89-13.168-13.71-16.885-19.597-6.201-9.824-6.516-11.888-3.825-25.066 7.06-34.574 9.217-98.388 9.981-295.248.76-196.012 1.047-206.23 5.88-209.894 2.795-2.118 7.888-3.89 11.319-3.939l6.237-.088v281.362c0 154.75-.58 281.362-1.29 281.362s-5.847-4.001-11.417-8.892m26.567-273.856c0-303.862-1.038-284.119 14.565-277.01l6.51 2.966.007 186.226c.008 180.065 2.729 267.242 9.773 313.236 2.76 18.022 2.567 19.395-4.149 29.543-8.276 12.507-20.307 25.015-24.06 25.015-1.663 0-2.646-104.062-2.646-279.976M272.469 752.86c-10.392-5.968-11.07-7.132-10.807-18.566.247-10.68 1.73-13.485 11.91-22.52 12.706-11.275 32.721-17.403 47.311-14.485 7.74 1.548 8.412 2.598 8.403 13.117-.011 10.93-.558 11.66-12.402 16.53-11.189 4.602-23.057 15.37-30.554 27.723-2.522 4.155-3.775 3.992-13.86-1.8m327.207 1.275c-2.715-8.403-18.767-23.064-30.987-28.302-11.333-4.858-12.086-5.858-12.086-16.06 0-10.102.642-10.99 9.01-12.447 12.82-2.233 30.335 1.77 41.233 9.424 12.131 8.52 15.572 13.005 18.94 24.682 2.324 8.062 1.913 10.496-2.58 15.28-2.94 3.129-9.105 7.108-13.7 8.843-7.085 2.674-8.577 2.458-9.83-1.42M377.9 727.874c-6.047-3.122-17.453-6.212-25.347-6.866l-14.352-1.19-1.122-18.393c-1.665-27.287-18.322-61.154-38.494-78.264-46.095-39.099-99.596-66.12-161.946-81.795-20.403-5.13-22.929-6.294-13.86-6.395 15.023-.166 56.674 9.273 80.388 18.22 22.37 8.438 60.248 26.873 71.38 34.74 13.947 9.857 7.881.852-13.86-20.575-29.072-28.652-56.684-48.713-87.319-63.44-21.238-10.208-15.103-11.073 8.316-1.172 56.877 24.047 102.816 61.656 138.76 113.597 5.041 7.285 9.781 12.631 10.532 11.88.752-.752-.069-9.933-1.823-20.402-2.506-14.959-6.093-23.516-16.75-39.955-20.978-32.366-33.943-42.84-82.841-66.928-31.003-15.273-28.076-17.293 5.391-3.722 12.908 5.235 23.848 9.139 24.311 8.676 1.437-1.436-20.807-18.881-47.174-36.997-13.87-9.53-24.287-17.326-23.151-17.326 9.472 0 59.087 30.714 84.673 52.417 17.439 14.792 15.13 7.923-4.12-12.256-7.255-7.605-13.536-15.697-13.96-17.984-1.21-6.554-55.578-58.193-80.415-76.382-28.861-21.135-30.114-21.975-47.746-32.016-8.146-4.64-14.263-8.984-13.593-9.654s10.951 3.217 22.846 8.637c23.954 10.917 64.073 36.855 86.962 56.224 14.868 12.582 51.89 49.974 65.016 65.665 12.654 15.127 10.324 5.62-7.194-29.353-23.708-47.333-46.79-80.454-86.142-123.61-20.375-22.346-11.572-17.663 17.109 9.1 42.6 39.75 72.345 82.277 99.099 141.682 9.664 21.459 13.952 27.653 25.51 36.857 7.643 6.084 14.547 11.062 15.344 11.062 2.574 0-16.609-69.994-25.45-92.863-9.874-25.539-33.016-56.084-71.304-94.114-13.121-13.034-23.055-23.697-22.074-23.697 3.089 0 30.054 20.77 46.618 35.91 8.752 7.998 15.913 13.78 15.913 12.849 0-3.7-31.913-52.983-48.853-75.443-9.887-13.11-17.465-24.349-16.838-24.976 1.719-1.718 35.864 35.202 49.525 53.55 16.72 22.458 32.15 47.778 47.321 77.65 7.119 14.018 17.88 32.73 23.915 41.581 14.2 20.828 33.52 59.31 45.955 91.528 8.231 21.326 9.816 28.868 9.613 45.739-.232 19.348-4.162 53.446-4.93 42.786-.424-5.867-14.685-32.28-17.432-32.284-4.877-.008 2.125 25.093 10.635 38.126l9.512 14.566-2.957 36.717c-3.13 38.88-5.706 52.677-9.982 53.478-1.442.27-7.569-2.064-13.615-5.185m-18.112-156.46c0-4.216-2.183-11.541-4.851-16.279-5.167-9.173-27.729-30.197-24.875-23.178.93 2.287 3.12 9.309 4.865 15.604 3.16 11.393 17.393 31.52 22.29 31.52 1.414 0 2.57-3.45 2.57-7.666m20.79-28.37c-4.126-12.39-8.109-21.921-8.85-21.18-4.14 4.14 11.188 48.66 15.373 44.647.539-.516-2.397-11.076-6.523-23.466m110.984 186.049c-2.815-8.866-6.99-50.628-7.012-70.132-.016-15.714 1.228-20.553 8.206-31.878 8.825-14.323 14.877-39.527 8.552-35.618-1.908 1.18-7.087 9.79-11.508 19.135l-8.038 16.992-.002-36.4c-.002-31.793.846-38.633 6.704-54.054 12.159-32.006 26.297-60.506 44.24-89.176 9.731-15.55 22.98-38.876 29.443-51.835 21.446-43.003 55.921-91.08 83.986-117.119 17.723-16.444 17.041-13.202-2.207 10.497-16.953 20.873-56.381 81.673-52.964 81.673.85 0 8.125-6.347 16.165-14.104 13.379-12.908 46.497-37.674 46.497-34.77 0 .676-8.91 9.766-19.799 20.2-29.429 28.2-59.058 64.865-68.638 84.938-8.178 17.136-25.228 72.287-29.226 94.536l-1.942 10.812 13.37-9.832c11.748-8.637 15.896-14.829 34.164-51.006 28.642-56.719 47.852-84.377 83.801-120.66 16.006-16.154 21.764-21.273 36.868-32.782 5.183-3.95 5.248-3.883 1.299 1.348-2.287 3.028-6.15 7.394-8.584 9.702-12.718 12.056-40.091 46.156-56.247 70.067-28.41 42.047-63.244 117.091-40.068 86.321 6.918-9.185 58.387-60.769 68.916-69.07 31.168-24.57 75.582-51.383 98.353-59.373 7.778-2.73 7.958-2.645 2.772 1.301-3.049 2.321-13.652 9.394-23.562 15.719s-27.374 18.378-38.808 26.785c-25.763 18.944-80.203 72.958-75.21 74.622 2.203.735.395 3.143-4.674 6.226-9.692 5.894-29.521 32.766-20.692 28.04 2.968-1.588 7.005-4.825 8.97-7.194 8.36-10.073 58.474-41.865 77.238-48.999 9.717-3.694 7.3-1.567-14.448 12.717-18.9 12.414-51.855 38.157-50.535 39.477.413.412 11.263-3.58 24.111-8.872 34.98-14.407 35.5-11.598 1.185 6.398-50.962 26.725-54.585 29.668-76.128 61.825-13.136 19.609-16.365 26.768-18.01 39.936-1.103 8.825-2.713 17.89-3.579 20.147-3.445 8.977 5.07 1.081 15.59-14.457 13.038-19.259 51.475-58.916 67.889-70.044 6.306-4.276 12.09-8.464 12.852-9.307 6.002-6.638 42.846-25.305 71.38-36.166 12.012-4.572 6.082.26-10.743 8.753-9.339 4.714-18.383 9.727-20.097 11.14s-11.209 7.854-21.097 14.312c-19.236 12.562-52.058 42.17-61.594 55.562l-5.808 8.157 6.654-3.508c3.66-1.93 7.278-4.41 8.04-5.512 2.538-3.669 41.19-22.028 64.409-30.594 26.85-9.905 68.122-19.234 83.895-18.963 9.105.156 7.019 1.11-11.663 5.329-61.828 13.965-133.213 50.71-171.424 88.24-17.402 17.092-31.482 48.322-33.067 73.345l-1.086 17.149-14.736 1.653c-8.104.91-19.987 4.34-26.406 7.623-14.147 7.237-13.891 7.225-15.947.748m60.397-182.277c2.645-8.59 4.385-16.042 3.866-16.56-.519-.52-6.655 4.953-13.635 12.16-10.454 10.792-13.031 15.547-14.614 26.963l-1.92 13.86 10.747-10.403c7.32-7.086 12.28-15.382 15.556-26.02m-38.486-8.972c2.5-11.245 4-20.992 3.334-21.659-1.013-1.013-4.94 9.792-17.824 49.036-.922 2.809.47 2.359 4.29-1.386 3.355-3.29 7.502-13.855 10.2-25.99m-34.488-50.24c0-22.81 4.622-33.257 35.426-80.08 15.665-23.81 76.666-88.729 80.124-85.27.967.967-5.003 8.94-13.268 17.718-35.11 37.29-74.35 98.78-91.493 143.365-4.713 12.257-9.068 22.805-9.679 23.44-.61.635-1.11-7.993-1.11-19.174m-82.883-5.85c-18.65-46.026-49.019-94.848-84.73-136.217-11.516-13.34-20.292-24.255-19.502-24.255 2.483 0 18.744 14.569 36.625 32.815 23.004 23.472 44.49 51.917 62.111 82.224 12.162 20.918 14.698 27.672 15.699 41.807 1.96 27.668-.156 28.42-10.203 3.627m-260.85-222.583c0-1.319 25.37-20.076 37.423-27.67 68.132-42.92 136.114-66.904 205.824-72.613l22.87-1.873v-9.18c0-12.082 2.716-13.268 15.6-6.811 5.904 2.958 12.917 6.017 15.585 6.798 4.24 1.24 4.85 5.264 4.85 31.999 0 30.016-.116 30.58-6.343 30.58-3.49 0-10.925 2.335-16.524 5.19-5.6 2.854-10.853 4.517-11.675 3.695-.821-.821-1.494-5.84-1.494-11.15v-9.658l-31.185 1.867c-32.057 1.918-39.02 2.953-93.557 13.902-48.066 9.65-114.812 31.15-131.595 42.388-5.382 3.604-9.778 4.744-9.778 2.536m605.69-3.299c-45.426-23.98-154.866-51.247-222.455-55.423l-31.186-1.926v7.098c0 14.574-1.999 15.95-14.762 10.155-6.364-2.89-13.755-5.282-16.423-5.315-4.319-.054-4.851-3.367-4.851-30.2v-30.14l14.436-7.144c16.24-8.037 21.6-6.436 21.6 6.45 0 7.6.153 7.661 23.676 9.62 33.292 2.774 104.054 19.064 113.479 26.125 1.558 1.167 7.2 3.772 12.535 5.787 13.314 5.03 51.43 24.009 60.49 30.121 4.084 2.755 16.507 11.064 27.607 18.465 25.444 16.966 34.26 26.043 15.855 16.327M422.95 134.17c-5.61-3.812-12.014-6.93-14.232-6.93-2.22 0-5.41-3.948-7.093-8.774-3.787-10.863 1.17-17.54 16.099-21.687 19.646-5.458 19.682-5.42 19.682 20.759 0 12.96-.958 23.562-2.129 23.562-1.17 0-6.718-3.118-12.327-6.93m28.316-16.72c0-26.102.028-26.13 19.797-20.64 13.635 3.788 16.975 8.446 14.71 20.518-1.293 6.893-3.34 9.912-6.721 9.912-2.674 0-7.837 2.282-11.473 5.072-15.301 11.74-16.313 10.818-16.313-14.861" style="fill:#000;stroke-width:2.77204"/></svg>