<svg xmlns="http://www.w3.org/2000/svg" xml:space="preserve" width="872" height="889" viewBox="0 0 872 889"><circle cx="438.499" cy="448.88" r="417.838" style="fill:none;stroke:#000;stroke-width:18;stroke-dasharray:none;stroke-opacity:1"/><path d="M361.877 797.783c-3.722-3.722-4.785-7.975-4.785-19.14 0-7.896.336-14.356.747-14.356s9.958 3.113 21.214 6.918c13.101 4.428 21.658 6.163 23.777 4.822 1.82-1.153 8.424-2.113 14.675-2.133l11.365-.037v28.711h-31.104c-27.914 0-31.595-.49-35.89-4.785m83.74-9.902v-14.688l22.008 1.255c15.483.883 24.793.272 31.405-2.06 14.527-5.126 15.973-4.546 15.973 6.411 0 9.821-3.294 18.707-8.134 21.938-1.448.967-15.822 1.774-31.942 1.795l-29.31.036zM282.66 773.854c-2.117-1.237-27.419-19.009-56.226-39.492-33.098-23.535-53.198-39.388-54.61-43.072-2.43-6.344-.223-12.066 9.23-23.92l5.415-6.792 10.415 14.769c5.807 8.234 12.218 14.769 14.489 14.769 5.215 0 46.568 29.137 55.996 39.455 5.23 5.723 12.53 9.604 26.9 14.298l19.723 6.444-7.252 10.54c-9.75 14.172-16.157 17.631-24.08 13.001m298.013-1.828c-3.074-2.145-15.425-18.422-15.425-20.328 0-1.313 3.32-2.663 33.894-13.78 10.783-3.92 14.056-6.36 15.995-11.92 3.039-8.719 39.932-36.553 45.927-34.65 6.643 2.108 10.826-.899 20.215-14.532 4.932-7.16 9.839-13.019 10.905-13.019 4.531 0 12.113 14.6 11.39 21.93-.682 6.894-5.865 11.35-55.675 47.866-51.201 37.535-60.717 42.975-67.226 38.433M333.18 751.58c-44.57-14.902-58.795-20.605-59.398-23.814-1.104-5.868 6.602-28.175 10.212-29.56 3.752-1.44 121.01 36.919 125.415 41.028 2.755 2.57 2.538 5.247-1.38 17.04-3.863 11.625-5.63 14.07-10.447 14.446-3.188.25-32.169-8.364-64.402-19.14m144.508 10.911c-2.136-4.935-4.034-12.584-4.219-16.998l-.335-8.026 61.936-21.305c46.227-15.902 62.73-20.646 65.067-18.707 3.985 3.307 11.39 25.358 9.857 29.353-.638 1.66-4.775 4.202-9.195 5.648s-31.874 10.815-61.01 20.818c-29.138 10.004-54.156 18.19-55.597 18.19-1.44 0-4.368-4.038-6.504-8.973m-64.903-26.73c-2.926-2.441-15.069-7.43-26.984-11.084-12.114-3.717-21.285-7.79-20.803-9.24.544-1.64 12.429-2.837 32.367-3.26l31.506-.667v14.425c0 13.387-.387 14.419-5.384 14.345-2.96-.044-7.777-2.077-10.702-4.519m32.834-9.757v-14.356h29.429c27.521 0 35.171 1.59 35.171 7.308 0 .861-8.199 4-18.22 6.975s-20.249 7.438-22.73 9.918c-2.914 2.916-7.894 4.51-14.08 4.51h-9.57zm-132.79-25.453c-13.172-4.274-26.668-7.25-30.027-6.622-9.325 1.744-38.055-19.454-38.117-28.123-.026-3.709-3.858-11.198-9.182-17.945-5.025-6.369-11.07-14.54-13.434-18.16-4.155-6.361-4.15-6.578.165-6.559 3.707.017 81.35 53.129 108.576 74.272 13.331 10.354 7.433 11.382-17.98 3.137m225.58 4.17c.945-2.493 8.178-9.316 16.073-15.161 20.545-15.21 67.249-49.482 81.67-59.93 12.564-9.104 24.8-11.795 24.8-5.453 0 1.897-1.007 4.071-2.24 4.833-3.67 2.268-24.078 32.38-24.078 35.527 0 3.363-29.78 25.578-34.286 25.578-1.663 0-15.842 4.307-31.51 9.57-15.668 5.264-29.31 9.57-30.317 9.57-1.006 0-1.056-2.04-.112-4.533m113.217-25.88c-6.714-4.7-12.191-10.277-12.173-12.393.045-5.14 74.868-106.57 79.154-107.303 4.682-.8 26.087 15.392 26.087 19.733 0 4.057-73.91 105.66-78.115 107.382-1.51.62-8.24-2.72-14.953-7.42m-448.133-3.68c-4.526-5.592-11.601-15.013-15.724-20.935s-17.788-24.763-30.368-41.87c-12.58-17.108-22.586-32.668-22.237-34.58.9-4.93 20.852-19.624 25.445-18.74 4.952.954 79.576 102.456 78.696 107.04-.795 4.135-20.009 19.254-24.47 19.254-1.713 0-6.817-4.576-11.342-10.169m-78.653-50.526c-2.938-1.49-6.264-4.324-7.39-6.298-1.128-1.974-11.16-31.336-22.293-65.25-23.013-70.102-23.036-70.54-4.08-76.998 5.973-2.035 11.206-3.7 11.63-3.7s.77 6.956.77 15.458c0 11.888 1.02 16.447 4.417 19.74 6.878 6.665 24.472 59.017 22.742 67.669-1.204 6.02.545 9.897 10.825 23.986 6.743 9.242 12.26 17.652 12.26 18.69 0 1.036-5.296 3.578-11.77 5.648-9.134 2.921-12.967 3.158-17.111 1.055m607.89-.212c-4.729-1.763-8.043-4.497-7.614-6.282.417-1.74 6.07-9.92 12.56-18.18 12.213-15.54 14.275-22.78 8.352-29.324-3.031-3.349-2.37-7.112 5.425-30.915 8.156-24.904 9.503-27.366 16.61-30.354 7.6-3.195 7.735-3.527 7.735-18.92 0-8.617.573-15.667 1.273-15.667 6.273 0 17.94 7.827 19.21 12.89 2.115 8.429-38.011 130.247-44.815 136.05-5.691 4.853-7.421 4.918-18.735.702m-479.901-18.705c-11.943-4.756-31.422-18.268-35.66-24.735-5.225-7.976-8.138-28.005-6.223-42.798l1.549-11.963 5.378 11.831c7.89 17.357 16.572 27.593 27.686 32.64 24.678 11.207 48.74-1.16 51.155-26.292 1.695-17.64-5.226-29.663-31.436-54.607-31.323-29.811-35.9-36.408-34.414-49.594 1.114-9.89 12.76-32.398 16.767-32.408.987-.002 1.818 4.034 1.847 8.968.08 13.616 7.545 27.912 16.517 31.628 14.445 5.983 34.375-4.943 45.06-24.704 2.764-5.111 4.053-12.999 4.022-24.614-.04-14.654-1.233-19.485-8.371-33.865l-8.326-16.773 6.617 4.712c8.75 6.231 26.567 31.425 34.543 48.847 8.127 17.75 8.462 42.533 1.12 82.846-6.412 35.203-6.544 57.116-.424 70.596 5.947 13.1 22.602 29.6 39.504 39.14 7.403 4.177 13.046 8.009 12.542 8.513-.505.505-6.623-.163-13.595-1.486-18.582-3.524-54.008-2.844-71.839 1.379-21.51 5.094-45.103 6.29-54.02 2.739m323.187-1.165c-13.199-3.993-65.782-5.429-86.134-2.352l-11.963 1.81 14.356-8.596c29.75-17.812 46.584-40.82 46.632-63.732.012-6.207-2.78-28.279-6.206-49.048-7.873-47.727-7.04-63.065 4.759-87.596 5.094-10.592 14.025-23.43 22.836-32.828l14.47-15.434-7.31 16.006c-13.987 30.631-11.797 57.074 6.218 75.09 22.644 22.644 44.864 13.553 51.03-20.877l1.862-10.404 7.37 11.434c8.748 13.572 11.333 24.933 7.793 34.245-1.42 3.735-14.793 19.21-29.717 34.39-37.425 38.065-42.676 49.34-32.377 69.529 8.184 16.041 24.348 22.413 42.18 16.626 15.17-4.923 21.882-11.288 30.338-28.77 4.416-9.13 8.741-15.889 9.611-15.02 2.455 2.455 1.837 32.068-.872 41.822-2.974 10.708-17.505 24.327-34.298 32.146-14.322 6.669-31.9 7.21-50.578 1.56m95.472-6.624c-1.948-7.762 37.793-130.242 44.116-135.965 2.39-2.162 6.04-3.931 8.112-3.931 3.11 0 3.926 4.077 4.671 23.328.808 20.857.115 25.861-6.544 47.253-5.757 18.493-10.4 28.001-20.448 41.871-27.656 38.178-27.296 37.847-29.907 27.444M184.99 579.087c-8.13-11.262-17.076-22.084-19.88-24.047-2.817-1.973-7.921-11.357-11.412-20.979-5.852-16.131-6.237-19.56-5.243-46.718.78-21.336 1.889-29.31 4.073-29.31 5.486 0 8.72 6.71 21.583 44.78 24.59 72.78 30.308 92.105 27.95 94.462-1.456 1.456-7.665-5.16-17.07-18.188m230.722 2.408c-38.586-12.203-54.797-40.46-49.132-85.637 4.173-33.286 14.515-73.675 33.578-131.136 10.26-30.924 20.841-61.07 23.515-66.992l4.86-10.767.17 148.94c.093 81.916-.639 148.867-1.626 148.779s-6.101-1.523-11.365-3.187m30.06-145.547c.1-99.69.926-147.045 2.492-143.122 10.27 25.716 32.48 92.772 41.73 125.989 23.307 83.69 23.788 116.326 2.09 141.676-8.043 9.396-26.387 19.963-39.884 22.974l-6.58 1.468zm-335.816 68.44c-3.121-3.12-1.998-131.225 1.178-134.402 3.212-3.212 25.369-3.856 30.066-.875 2.351 1.493 2.887 16.881 2.393 68.75l-.637 66.828-15.653.697c-8.61.382-16.415-.066-17.347-.997m625.31-3.024c-1.594-2.977-2.534-27.38-2.534-65.732 0-52.262.538-61.536 3.76-64.757 4.832-4.832 27.973-5.179 31.875-.477 1.927 2.322 2.538 22.46 2.087 68.787l-.637 65.504-16.009.705c-13.915.612-16.34.085-18.543-4.03M150.53 427.728c-.878-.878-1.596-14.603-1.596-30.5 0-26.002.756-31.188 7.528-51.64 4.928-14.885 10.534-26.454 16.234-33.503 4.789-5.921 11.36-14.797 14.604-19.722 6.842-10.39 10.93-11.298 14.6-3.242 2.217 4.865-.594 15.426-18.308 68.787-21.884 65.927-26.727 76.155-33.062 69.82m564.93-1.396c-3.983-3.112-44.939-123.882-44.939-132.515 0-6.076 8.202-13.873 12.755-12.126 7.802 2.994 23.402 32.389 33.89 63.856 10.101 30.31 10.778 33.955 10.778 58.058 0 23.217-.421 25.718-4.328 25.718-2.38 0-6.05-1.346-8.156-2.991M88.5 410.99c-16.085-6.672-15.592-10.173 13.413-95.298 18.947-55.605 20.608-58.029 36.445-53.168 4.501 1.38 8.184 3.252 8.184 4.158s-3.768 6.583-8.374 12.615c-9.034 11.831-9.99 15.908-5.442 23.191 2.454 3.93 1.456 9.18-6.122 32.205-7.613 23.13-10.08 28-15.493 30.59-6.26 2.994-6.459 3.73-7.124 26.381-.75 25.517-.702 25.457-15.486 19.326m687.296-18.52c0-23.913-.656-25.39-13.053-29.386-6.405-2.065-7.863-4.687-15.473-27.845l-8.403-25.565 5.007-3.507c8.878-6.218 8.265-12.03-2.834-26.866-10.885-14.55-10.613-17.354 1.687-17.425 3.524-.019 8.004 1.56 9.955 3.51 3.989 3.99 44.647 124.072 44.647 131.864 0 5.844-5.67 11.566-14.958 15.098l-6.575 2.5zm-254.5-52.273c-.794-2.96-1.458-10.415-1.476-16.564-.045-15.42 7.391-23.751 28.343-31.757 17.446-6.667 27.065-14.932 30.727-26.403l2.278-7.133 4.002 11.746c4.996 14.662 5.273 35.601.534 40.34-1.908 1.908-9.703 4.248-17.322 5.2-18.298 2.287-30.439 8.79-38.143 20.431-3.466 5.238-6.572 9.524-6.902 9.524s-1.248-2.423-2.042-5.384M340.575 333.3c-9.45-11.378-17.614-15.3-36.783-17.677-21.076-2.613-25.137-12.034-17.066-39.592 4.473-15.271 8.157-20.36 8.157-11.265 0 10.518 10.357 20.075 28.18 26.004 17.886 5.95 27.775 14.573 30.112 26.259 1.596 7.983-.474 26.188-2.97 26.116-.819-.024-5.152-4.454-9.63-9.845m373.346-20.883c-2.51-2.51-8.952-10.878-14.318-18.598s-21.101-29.529-34.97-48.466-25.216-35.866-25.216-37.62c0-4.206 23.62-20.032 27.611-18.5 1.708.656 8.375 8.378 14.815 17.16 51.166 69.776 62.849 86.426 62.849 89.567 0 3.547-10.517 12.713-20.88 18.199-4.446 2.353-6.085 2.064-9.891-1.742M145.99 307.81c-4.91-3.57-9.56-8.38-10.334-10.69-.979-2.924 9.199-18.607 33.542-51.684 35.464-48.189 43.174-57.813 46.225-57.707 4.245.148 24.431 17.142 24.431 20.568 0 2.107-16.913 26.86-37.585 55.006-27.966 38.078-38.835 51.152-42.468 51.086-2.686-.049-8.901-3.01-13.811-6.58m64.168-43.235c-.697-1.129 5.968-11.898 14.812-23.933 13.409-18.246 20.43-25.053 42.254-40.97 19.752-14.406 30.743-20.61 44.803-25.293 10.246-3.412 19.733-5.522 21.08-4.69 1.348.834 2.451 4.48 2.451 8.104 0 7.786-4.864 12.575-34.692 34.159-11.844 8.57-33.377 24.348-47.852 35.064-19.821 14.673-28.204 19.498-33.954 19.546-4.199.035-8.205-.86-8.902-1.987m423.107-9.447c-27.23-18.888-93.016-65.49-94.765-67.13-3.689-3.46-4.41-13.705-1.266-18 3.222-4.401 3.71-4.378 19.846.972 22.608 7.495 84.735 51.803 98.849 70.496 5.394 7.145 9.808 14.053 9.808 15.351 0 2.791-9.49 9.809-13.266 9.809-1.446 0-10.09-5.174-19.206-11.498M173.05 215.02c-9.683-14.217-7.511-16.717 53.337-61.399 30.051-22.067 56.729-40.123 59.284-40.123 4.617 0 16.39 9.896 16.39 13.776 0 1.117-7.53 4.456-16.735 7.42-17.84 5.747-22.662 10.61-20.209 20.385 1.27 5.057-.839 7.484-16.667 19.19-17.938 13.266-23.674 15.645-26.54 11.007-.814-1.315-3.895-2.392-6.848-2.392-3.954 0-9.365 5.36-20.528 20.337-8.337 11.185-15.278 20.33-15.425 20.32-.146-.01-2.873-3.843-6.06-8.521m509.985-15.324c-13.485-18.02-17.584-19.844-27.346-12.165l-5.907 4.647-19.953-14.235c-10.974-7.828-20.429-14.71-21.01-15.291-.582-.582.075-4.307 1.46-8.28 3.588-10.291-1.593-15.24-24.19-23.109l-18.637-6.489 5.297-5.638c2.923-3.112 8.077-5.638 11.503-5.638 6.741 0 7.58.544 72.964 47.33 42.118 30.14 44.41 32.184 44.41 39.62 0 4.312-1.352 9.69-3.005 11.95-2.68 3.665-4.365 2.293-15.586-12.702m-405.636-23.392c-3.782-6.662-9-27.707-7.293-29.414 3.77-3.77 117.154-42.962 124.29-42.962 3.92 0 10.256 13.097 12.234 25.285l1.235 7.61-24.789 8.49c-101.864 34.882-103.239 35.285-105.677 30.991m85.835-5.205c-6.861-7.582-3.761-12.406 11.802-18.363 10.618-4.063 19.496-5.526 34.095-5.618l19.739-.123v28.711h-30.733c-27.299 0-31.2-.515-34.903-4.607m82.384-9.749v-14.355h19.872c26.059 0 49.513 7.295 49.513 15.4 0 11.192-6.219 13.311-39.068 13.311h-30.317zm81.806-5.035c-32.196-10.645-58.726-20.705-59.428-22.532-.697-1.816.855-9.007 3.448-15.98 3.461-9.308 6.097-12.886 9.913-13.46 4.628-.696 109.882 32.734 120.378 38.234 5.183 2.715 5.266 7.578.373 21.936-3.272 9.605-4.715 11.182-10.168 11.113-3.495-.044-32.527-8.734-64.516-19.31m-122.647-48.2c-4.33-9.838-11.446-10.904-28.789-4.313-16.369 6.222-16.511 6.207-16.467-1.668.08-14.353 7.272-17.347 41.676-17.347h27.673v31.104h-10.335c-9.363 0-10.657-.731-13.758-7.776m40.84-7.966V84.408l31.303.788c34.4.867 38.083 2.478 38.083 16.655v6.578l-17.007-5.784c-19.335-6.577-24.816-5.39-28.875 6.255-2.196 6.3-3.48 6.992-12.97 6.992h-10.533z" style="fill:#000;stroke-width:2.3926"/></svg>