<?xml version="1.0" encoding="UTF-8" standalone="no"?>
<!-- Created with Inkscape (http://www.inkscape.org/) -->

<svg
   version="1.1"
   id="svg1"
   width="872"
   height="889"
   viewBox="0 0 872 889"
   sodipodi:docname="fanatic.svg"
   inkscape:version="1.4.2 (f4327f4, 2025-05-13)"
   xml:space="preserve"
   xmlns:inkscape="http://www.inkscape.org/namespaces/inkscape"
   xmlns:sodipodi="http://sodipodi.sourceforge.net/DTD/sodipodi-0.dtd"
   xmlns="http://www.w3.org/2000/svg"
   xmlns:svg="http://www.w3.org/2000/svg"><defs
     id="defs1" /><sodipodi:namedview
     id="namedview1"
     pagecolor="#ffffff"
     bordercolor="#000000"
     borderopacity="0.25"
     inkscape:showpageshadow="2"
     inkscape:pageopacity="0.0"
     inkscape:pagecheckerboard="true"
     inkscape:deskcolor="#d1d1d1"
     inkscape:zoom="0.92822679"
     inkscape:cx="546.20272"
     inkscape:cy="244.01364"
     inkscape:window-width="3440"
     inkscape:window-height="1369"
     inkscape:window-x="-8"
     inkscape:window-y="-8"
     inkscape:window-maximized="1"
     inkscape:current-layer="g1" /><g
     inkscape:groupmode="layer"
     inkscape:label="Image"
     id="g1"><circle
       style="fill:none;stroke:#000000;stroke-width:18;stroke-dasharray:none;stroke-opacity:1"
       id="path2"
       cx="438.49911"
       cy="448.88046"
       r="417.83762" /><path
       style="fill:#000000;stroke-width:2.3926"
       d="m 361.87687,797.78299 c -3.72183,-3.72183 -4.7852,-7.97532 -4.7852,-19.1408 0,-7.89557 0.33638,-14.35559 0.74747,-14.35559 0.41112,0 9.9575,3.11317 21.21416,6.91817 13.10103,4.42844 21.65786,6.16372 23.77668,4.82183 1.8205,-1.15299 8.42417,-2.11283 14.67484,-2.13297 l 11.36484,-0.0366 v 14.35559 14.3556 h -31.1038 c -27.91365,0 -31.59456,-0.4908 -35.88899,-4.7852 z m 83.74099,-9.90227 v -14.68746 l 22.0074,1.2548 c 15.4832,0.88282 24.79322,0.27189 31.40459,-2.06072 14.52763,-5.12564 15.97341,-4.54527 15.97341,6.41214 0,9.82079 -3.29454,18.70617 -8.13413,21.93764 -1.4479,0.96679 -15.82178,1.7743 -31.94192,1.79444 l -29.30935,0.0367 z M 282.66015,773.85407 c -2.11741,-1.23751 -27.41916,-19.0091 -56.22611,-39.49242 -33.09795,-23.53447 -53.19835,-39.388 -54.60975,-43.07169 -2.43078,-6.34427 -0.22323,-12.06608 9.22932,-23.9206 l 5.41539,-6.79154 10.41545,14.76909 c 5.80656,8.2337 12.21765,14.76909 14.48821,14.76909 5.21553,0 46.56827,29.13689 55.99652,39.45481 5.22991,5.7234 12.53004,9.60376 26.90028,14.29865 l 19.72246,6.44354 -7.25158,10.53983 c -9.75085,14.17235 -16.15768,17.6315 -24.08019,13.00124 z m 298.01313,-1.82816 c -3.07449,-2.14539 -15.42543,-18.42206 -15.42543,-20.32841 0,-1.31289 3.32031,-2.66272 33.89431,-13.77932 10.78305,-3.92068 14.05591,-6.35995 15.99439,-11.92067 3.03927,-8.71849 39.93256,-36.55232 45.92746,-34.64961 6.64286,2.10836 10.82589,-0.89858 20.21539,-14.53172 4.9315,-7.16033 9.83863,-13.01878 10.9047,-13.01878 4.53086,0 12.11302,14.59888 11.38906,21.92883 -0.68091,6.89437 -5.86368,11.35027 -55.67462,47.8664 -51.20092,37.5351 -60.71636,42.97518 -67.22526,38.43328 z M 333.17936,751.58065 c -44.57083,-14.90193 -58.79503,-20.60453 -59.39847,-23.81331 -1.10363,-5.86849 6.60233,-28.17538 10.21171,-29.56043 3.75287,-1.4401 121.00975,36.91887 125.41586,41.02809 2.75476,2.56915 2.53775,5.24731 -1.38083,17.04067 -3.86254,11.62468 -5.63021,14.06913 -10.44625,14.44577 -3.18836,0.24936 -32.16925,-8.364 -64.40202,-19.14079 z m 144.5081,10.9115 c -2.13602,-4.93474 -4.03462,-12.58385 -4.21916,-16.99804 l -0.33554,-8.02578 61.93615,-21.30539 c 46.22702,-15.90159 62.73032,-20.64629 65.06723,-18.70683 3.98478,3.30708 11.38931,25.35828 9.85639,29.35302 -0.63714,1.66032 -4.77448,4.20198 -9.19409,5.64813 -4.41964,1.44614 -31.87474,10.81434 -61.01139,20.81823 -29.13665,10.0039 -54.15477,18.1889 -55.59584,18.1889 -1.44106,0 -4.36776,-4.03751 -6.50375,-8.97224 z M 412.78369,735.7623 c -2.92562,-2.44149 -15.06823,-7.42963 -26.9836,-11.08472 -12.11435,-3.71616 -21.28478,-7.78872 -20.80339,-9.23875 0.5448,-1.641 12.42926,-2.83825 32.36695,-3.26073 l 31.50601,-0.66759 v 14.42503 c 0,13.38784 -0.38707,14.41934 -5.38334,14.34546 -2.96085,-0.0438 -7.77703,-2.07719 -10.70263,-4.5187 z m 32.83417,-9.7573 v -14.3556 h 29.42898 c 27.52157,0 35.17122,1.58943 35.17122,7.3078 0,0.86103 -8.19879,3.99949 -18.21953,6.9743 -10.02076,2.97484 -20.24912,7.43835 -22.72969,9.91895 -2.9151,2.91507 -7.89484,4.51014 -14.08058,4.51014 h -9.5704 z M 312.82858,700.55166 c -13.17232,-4.27398 -26.66842,-7.25012 -30.02768,-6.62169 -9.32464,1.74442 -38.05529,-19.45375 -38.11648,-28.12326 -0.0261,-3.70824 -3.85869,-11.19799 -9.18225,-17.9445 -5.02552,-6.36883 -11.07105,-14.54054 -13.43448,-18.15935 -4.15501,-6.362 -4.14953,-6.57901 0.16509,-6.55977 3.70734,0.0168 81.35007,53.12876 108.57582,74.27233 13.33145,10.35321 7.43338,11.382 -17.98,3.13624 z m 225.57964,4.17098 c 0.94455,-2.4938 8.17735,-9.31659 16.07293,-15.16181 20.54466,-15.20947 67.24874,-49.4817 81.66896,-59.93004 12.56504,-9.10415 24.80173,-11.7943 24.80173,-5.45249 0,1.89623 -1.00829,4.07086 -2.24069,4.83252 -3.66992,2.26813 -24.0779,32.38051 -24.0779,35.52743 0,3.36239 -29.77943,25.57775 -34.28667,25.57775 -1.66251,0 -15.84194,4.30668 -31.50982,9.5704 -15.66788,5.26373 -29.31031,9.5704 -30.31648,9.5704 -1.00617,0 -1.05661,-2.04038 -0.11197,-4.53416 z M 651.6247,678.84167 c -6.71345,-4.69967 -12.19106,-10.27641 -12.17249,-12.39272 0.0449,-5.13973 74.86773,-106.57082 79.15421,-107.30302 4.68155,-0.79971 26.08642,15.39188 26.08642,19.73292 0,4.05732 -73.91012,105.66003 -78.11439,107.38222 -1.51112,0.61901 -8.24031,-2.71972 -14.95375,-7.4194 z m -448.1331,-3.67942 c -4.52534,-5.5927 -11.60108,-15.01356 -15.72386,-20.93524 -4.12276,-5.92168 -17.78821,-24.76341 -30.36769,-41.8705 -12.57945,-17.10709 -22.58604,-32.66777 -22.23686,-34.57931 0.90057,-4.93008 20.85191,-19.62396 25.44448,-18.73952 4.95191,0.95364 79.57653,102.45484 78.69602,107.03894 -0.79427,4.13508 -20.00861,19.25418 -24.4695,19.25418 -1.71308,0 -6.81723,-4.57584 -11.34259,-10.16855 z m -78.65289,-50.52613 c -2.93755,-1.49006 -6.26334,-4.32422 -7.39064,-6.29811 -1.1273,-1.9739 -11.15853,-31.33631 -22.291636,-65.24983 -23.01327,-70.10268 -23.036404,-70.53945 -4.0801,-76.99853 5.97279,-2.03512 11.206156,-3.70022 11.629696,-3.70022 0.42353,0 0.77008,6.9564 0.77008,15.45867 0,11.88814 1.02018,16.44733 4.41683,19.73895 6.87855,6.66588 24.4725,59.01745 22.74201,67.66993 -1.2041,6.02047 0.54539,9.897 10.82476,23.98557 6.74354,9.2425 12.26098,17.65279 12.26098,18.6896 0,1.03681 -5.29672,3.5789 -11.77047,5.64915 -9.13406,2.92093 -12.96681,3.1572 -17.11151,1.05482 z m 607.89113,-0.21246 c -4.72959,-1.76251 -8.04375,-4.49654 -7.61508,-6.28209 0.41747,-1.73879 6.06998,-9.9195 12.56116,-18.17935 12.2119,-15.53936 14.27377,-22.77944 8.35103,-29.32399 -3.03102,-3.34923 -2.37071,-7.11241 5.42472,-30.91531 8.15602,-24.90387 9.50312,-27.36562 16.6104,-30.35401 7.59917,-3.19522 7.73456,-3.52645 7.73456,-18.91955 0,-8.61706 0.57294,-15.66738 1.27315,-15.66738 6.27359,0 17.93955,7.82745 19.20997,12.88924 2.11573,8.42973 -38.01102,130.24756 -44.81485,136.05009 -5.69126,4.8537 -7.42113,4.91854 -18.73506,0.70235 z M 252.82753,605.71872 c -11.94254,-4.75613 -31.42155,-18.26762 -35.65878,-24.73446 -5.2262,-7.97616 -8.13874,-28.00478 -6.22368,-42.79839 l 1.54862,-11.963 5.37799,11.83129 c 7.88956,17.35665 16.57202,27.59246 27.68634,32.63967 24.67793,11.20671 48.74064,-1.16045 51.15542,-26.29158 1.69496,-17.63985 -5.2266,-29.66315 -31.43627,-54.60733 -31.32342,-29.81099 -35.90094,-36.40753 -34.41464,-49.59398 1.11474,-9.88984 12.76045,-32.39793 16.76771,-32.40748 0.98693,-0.002 1.81808,4.03323 1.84698,8.96796 0.0797,13.61591 7.54521,27.91171 16.5164,31.62771 14.44497,5.9833 34.37554,-4.94337 45.06054,-24.70381 2.76397,-5.11157 4.05274,-12.99932 4.02171,-24.61425 -0.0393,-14.654 -1.23334,-19.48488 -8.37135,-33.86507 l -8.32567,-16.77284 6.61731,4.71194 c 8.75055,6.23095 26.56726,31.42523 34.54316,48.84691 8.12651,17.7506 8.46119,42.53348 1.11886,82.84621 -6.4116,35.20251 -6.54289,57.11544 -0.42292,70.59618 5.94654,13.09882 22.6014,29.59991 39.50354,39.1389 7.40282,4.1779 13.0466,8.00925 12.54175,8.51414 -0.50489,0.50485 -6.62253,-0.1639 -13.59478,-1.48617 -18.58146,-3.52389 -54.00751,-2.84414 -71.83869,1.37845 -21.51103,5.09401 -45.10261,6.29019 -54.01955,2.739 z m 323.18702,-1.16465 c -13.19849,-3.99339 -65.78204,-5.42907 -86.13359,-2.35166 l -11.963,1.80897 14.3556,-8.5951 c 29.74982,-17.81204 46.58488,-40.82034 46.63234,-63.73185 0.012,-6.20763 -2.77986,-28.27935 -6.20601,-49.0483 -7.87335,-47.727 -7.04006,-63.06531 4.75883,-87.5962 5.09458,-10.5921 14.0252,-23.4305 22.836,-32.82842 l 14.46947,-15.43363 -7.30874,16.0057 c -13.98735,30.63153 -11.7978,57.07469 6.21759,75.0901 22.64385,22.64385 44.86414,13.55322 51.02936,-20.87682 l 1.86297,-10.40398 7.3695,11.43381 c 8.7478,13.57221 11.3331,24.93318 7.79281,34.24489 -1.42011,3.73521 -14.79246,19.21059 -29.7163,34.38977 -37.42576,38.0661 -42.67625,49.34143 -32.37714,69.52934 8.18382,16.04161 24.34775,22.41337 42.17888,16.62679 15.17011,-4.92301 21.88255,-11.28843 30.33865,-28.77023 4.41647,-9.13039 8.74155,-15.88908 9.6113,-15.01932 2.45458,2.45457 1.83714,32.06704 -0.87197,41.8206 -2.97422,10.70802 -17.50548,24.3278 -34.29801,32.14664 -14.32177,6.66845 -31.90047,7.21025 -50.57854,1.5589 z m 95.47244,-6.62402 c -1.94817,-7.76212 37.7929,-130.24237 44.1165,-135.96513 2.3891,-2.16213 6.0393,-3.93114 8.11156,-3.93114 3.10911,0 3.92563,4.07758 4.67134,23.32784 0.80796,20.85756 0.11484,25.86147 -6.54449,47.25384 -5.75683,18.49287 -10.40008,28.00087 -20.44758,41.8705 -27.65678,38.17757 -27.29641,37.84686 -29.90733,27.44409 z m -486.4988,-18.84321 c -8.13035,-11.26226 -17.07615,-22.08342 -19.87959,-24.04702 -2.81721,-1.97326 -7.92209,-11.35693 -11.41277,-20.97877 -5.85215,-16.131 -6.23693,-19.55956 -5.2431,-46.71793 0.78078,-21.33596 1.88896,-29.30934 4.0736,-29.30934 5.48571,0 8.71966,6.70993 21.5823,44.77961 24.59025,72.78018 30.30804,92.10423 27.95031,94.46196 -1.456,1.456 -7.66498,-5.15952 -17.07075,-18.18851 z m 230.72218,2.4079 c -38.58604,-12.20311 -54.79745,-40.45921 -49.13262,-85.63705 4.17368,-33.28575 14.51562,-73.67439 33.57854,-131.13526 10.2593,-30.92435 20.84074,-61.07111 23.51433,-66.99279 l 4.86104,-10.7667 0.16892,148.93933 c 0.093,81.91664 -0.63848,148.86733 -1.62543,148.77927 -0.98695,-0.088 -6.10113,-1.52207 -11.36486,-3.18674 z m 30.05916,-145.54693 c 0.10141,-99.69006 0.92629,-147.0451 2.49285,-143.12219 10.26944,25.71658 32.47945,92.77208 41.72988,125.98919 23.30668,83.69103 23.78806,116.32648 2.08984,141.67597 -8.04315,9.39661 -26.38733,19.96316 -39.88459,22.97415 l -6.57965,1.46779 z M 109.95436,504.3887 c -3.12132,-3.12132 -1.99845,-131.22609 1.17807,-134.4026 3.21179,-3.2118 25.36838,-3.85659 30.06573,-0.87497 2.35128,1.49247 2.88681,16.88125 2.39259,68.75061 l -0.63676,66.82773 -15.65329,0.69615 c -8.60929,0.38287 -16.41514,-0.0658 -17.34634,-0.99692 z m 625.30905,-3.02473 c -1.59297,-2.97651 -2.53357,-27.37947 -2.53357,-65.7317 0,-52.2623 0.53845,-61.53611 3.7598,-64.75748 4.83224,-4.83224 27.9733,-5.17846 31.87524,-0.4769 1.92694,2.32181 2.53805,22.46015 2.08743,68.78724 l -0.63718,65.50434 -16.00907,0.70426 c -13.91488,0.61213 -16.3405,0.085 -18.54265,-4.02976 z M 150.53056,427.72755 c -0.87729,-0.87727 -1.59507,-14.60216 -1.59507,-30.49971 0,-26.00203 0.75591,-31.1878 7.52753,-51.6403 4.92824,-14.88491 10.5339,-26.45339 16.234,-33.50231 4.78855,-5.92168 11.36035,-14.79687 14.60399,-19.7226 6.84225,-10.39046 10.92948,-11.2979 14.6002,-3.24152 2.21651,4.86469 -0.59439,15.42598 -18.30782,68.78725 -21.88451,65.92659 -26.72779,76.15425 -33.06283,69.81919 z m 564.93005,-1.39567 c -3.98273,-3.11144 -44.93837,-123.88182 -44.93837,-132.51465 0,-6.07584 8.20157,-13.87303 12.75469,-12.12584 7.80191,2.9939 23.4023,32.38856 33.88938,63.85529 10.1017,30.31048 10.77833,33.95518 10.77833,58.05832 0,23.21676 -0.42086,25.71763 -4.3279,25.71763 -2.38033,0 -6.0506,-1.34584 -8.15613,-2.99075 z M 88.501631,410.99067 C 72.41631,404.31938 72.909154,400.81759 101.91421,315.6927 c 18.9464,-55.60445 20.60816,-58.0287 36.44524,-53.16815 4.50089,1.38136 8.18344,3.25275 8.18344,4.15867 0,0.90591 -3.76835,6.58235 -8.3741,12.61434 -9.034,11.83145 -9.99069,15.90843 -5.44208,23.19192 2.45403,3.92955 1.45606,9.17935 -6.12205,32.20441 -7.61291,23.13089 -10.07893,27.99983 -15.49315,30.58975 -6.2592,2.99415 -6.45825,3.73121 -7.12389,26.38178 -0.74989,25.5167 -0.70194,25.45683 -15.485989,19.32525 z M 775.79663,392.47106 c 0,-23.91298 -0.65571,-25.38921 -13.05273,-29.38569 -6.40537,-2.06491 -7.86246,-4.68704 -15.47335,-27.84511 l -8.40211,-25.5655 5.0066,-3.50678 c 8.87806,-6.21842 8.26508,-12.0295 -2.83403,-26.86633 -10.88474,-14.55029 -10.61336,-17.35406 1.6865,-17.42437 3.5248,-0.0192 8.00471,1.55934 9.95534,3.50999 3.98887,3.98887 44.64718,124.07134 44.64718,131.86344 0,5.84397 -5.66943,11.5664 -14.95812,15.09797 l -6.57528,2.49991 z M 521.29649,340.19828 c -0.79349,-2.96084 -1.45738,-10.41491 -1.47535,-16.56461 -0.0449,-15.41923 7.39096,-23.7511 28.34257,-31.75715 17.44665,-6.66674 27.06521,-14.93142 30.72768,-26.40255 l 2.27752,-7.13337 4.00248,11.74664 c 4.99571,14.66156 5.27252,35.60095 0.53332,40.34017 -1.90804,1.90802 -9.70265,4.24796 -17.32135,5.19986 -18.29866,2.28627 -30.43916,8.78921 -38.14348,20.43121 -3.46616,5.23774 -6.5718,9.52315 -6.90141,9.52315 -0.32962,0 -1.2485,-2.42251 -2.04198,-5.38335 z m -180.72084,-6.89777 c -9.4501,-11.37721 -17.6133,-15.30022 -36.78225,-17.67651 -21.07613,-2.61273 -25.1373,-12.03417 -17.0662,-39.59166 4.4728,-15.27162 8.15688,-20.35946 8.15688,-11.2649 0,10.51785 10.35718,20.07494 28.18046,26.00356 17.88524,5.94922 27.77402,14.57285 30.11121,26.25878 1.59666,7.9833 -0.47335,26.18844 -2.96952,26.11612 -0.81876,-0.0239 -5.15252,-4.45414 -9.63058,-9.84539 z m 373.34604,-20.88263 c -2.50923,-2.50925 -8.95197,-10.87811 -14.31721,-18.59749 -5.36521,-7.71938 -21.10193,-29.52929 -34.97049,-48.46646 -13.86854,-18.93717 -25.21554,-35.86613 -25.21554,-37.61987 0,-4.20641 23.61881,-20.03171 27.6106,-18.49992 1.70788,0.65538 8.37453,8.37742 14.81476,17.16011 51.16606,69.7762 62.84903,86.42577 62.84903,89.56692 0,3.54696 -10.51689,12.71306 -20.88041,18.19852 -4.44529,2.35291 -6.08472,2.06422 -9.89074,-1.74181 z m -567.93192,-4.60827 c -4.90997,-3.57009 -9.55995,-8.38024 -10.3333,-10.68922 -0.97941,-2.92427 9.19835,-18.60737 33.54132,-51.68444 35.46427,-48.18863 43.17382,-57.81298 46.22556,-57.70658 4.24456,0.14785 24.43094,17.14187 24.43094,20.56719 0,2.10747 -16.9133,26.86043 -37.5851,55.00654 -27.96614,38.07786 -38.83491,51.15205 -42.46864,51.08616 -2.68596,-0.0489 -8.9008,-3.00958 -13.81078,-6.57965 z m 64.16799,-43.23499 c -0.69723,-1.12816 5.96841,-11.89797 14.81256,-23.93288 13.40859,-18.24615 20.42883,-25.05313 42.25341,-40.96988 19.75276,-14.40575 30.74319,-20.61012 44.80313,-25.29251 10.24648,-3.41239 19.73278,-5.52277 21.0807,-4.68971 1.3479,0.83303 2.45071,4.47967 2.45071,8.10359 0,7.78571 -4.86398,12.57481 -34.69269,34.15843 -11.84337,8.56969 -33.37677,24.34858 -47.852,35.0642 -19.8209,14.67283 -28.20351,19.49859 -33.95333,19.54643 -4.19911,0.0349 -8.20524,-0.85949 -8.90249,-1.98767 z m 423.10709,-9.44706 c -27.22915,-18.88798 -93.01548,-65.49029 -94.76442,-67.13009 -3.68922,-3.45898 -4.41007,-13.70488 -1.26634,-17.99936 3.22213,-4.40156 3.71055,-4.37764 19.84564,0.97174 22.60801,7.49536 84.73491,51.80266 98.8488,70.4964 5.39469,7.1452 9.80851,14.05309 9.80851,15.35086 0,2.79118 -9.49072,9.80873 -13.26562,9.80873 -1.44679,0 -10.08974,-5.17424 -19.20657,-11.49828 z M 173.04981,215.02059 c -9.68278,-14.21663 -7.511,-16.71668 53.33683,-61.39855 30.05145,-22.06743 56.72938,-40.12258 59.28435,-40.12258 4.6174,0 16.39089,9.89515 16.39089,13.7759 0,1.11672 -7.53107,4.45594 -16.73571,7.42049 -17.84042,5.74591 -22.66192,10.6092 -20.20867,20.38378 1.26921,5.0569 -0.83946,7.48478 -16.66716,19.18989 -17.93853,13.26619 -23.67454,15.64525 -26.54056,11.00792 -0.81329,-1.31592 -3.89493,-2.39259 -6.8481,-2.39259 -3.95413,0 -9.36483,5.36048 -20.52759,20.3371 -8.33702,11.1854 -15.27809,20.32975 -15.42464,20.32076 -0.14666,-0.01 -2.8734,-3.84396 -6.05964,-8.52212 z M 683.0348,199.69662 c -13.48522,-18.02006 -17.58367,-19.84329 -27.34536,-12.16474 l -5.90776,4.64703 -19.95297,-14.23442 c -10.97413,-7.82892 -20.42868,-14.71013 -21.01013,-15.29158 -0.58145,-0.58145 0.0758,-4.30714 1.46044,-8.27929 3.58778,-10.29186 -1.59276,-15.24093 -24.19009,-23.10925 l -18.63685,-6.48928 5.29645,-5.63783 c 2.92367,-3.11208 8.07713,-5.6378 11.50331,-5.6378 6.74137,0 7.57945,0.54364 72.96384,47.33041 42.11844,30.13847 44.41036,32.18312 44.41036,39.61874 0,4.31214 -1.35229,9.68962 -3.00513,11.95001 -2.6804,3.66568 -4.36456,2.29319 -15.58611,-12.702 z M 277.39936,176.3052 c -3.78277,-6.66185 -9.00067,-27.707 -7.29302,-29.41464 3.76973,-3.76973 117.15415,-42.9615 124.29048,-42.9615 3.91889,0 10.25514,13.09659 12.23301,25.28483 l 1.23503,7.61066 -24.78843,8.48859 C 281.21174,180.19581 279.8374,180.59886 277.39936,176.3052 Z m 85.83493,-5.20534 c -6.86167,-7.58203 -3.7616,-12.40537 11.80188,-18.36242 10.61735,-4.06384 19.49572,-5.52685 34.09455,-5.61813 l 19.73894,-0.12345 v 14.35559 14.3556 h -30.73297 c -27.29855,0 -31.19889,-0.51486 -34.9024,-4.60719 z m 82.38357,-9.74841 v -14.35559 h 19.87253 c 26.05818,0 49.51287,7.29546 49.51287,15.40072 0,11.19173 -6.21885,13.31047 -39.06814,13.31047 h -30.31726 z m 81.80622,-5.03518 c -32.19643,-10.64575 -58.72648,-20.70479 -59.42782,-22.53245 -0.6968,-1.81587 0.85471,-9.00686 3.4478,-15.98 3.46126,-9.30774 6.09673,-12.88631 9.91298,-13.46026 4.62771,-0.69601 109.88198,32.7346 120.37796,38.23416 5.18283,2.71564 5.26556,7.5783 0.37324,21.93642 -3.27272,9.60492 -4.71538,11.18157 -10.16854,11.11298 -3.49512,-0.0441 -32.52713,-8.73384 -64.51562,-19.31085 z M 404.77731,108.11611 c -4.33024,-9.83825 -11.44672,-10.90442 -28.78896,-4.31302 -16.36909,6.2215 -16.51131,6.2071 -16.46745,-1.66848 0.0799,-14.352993 7.27183,-17.346353 41.67657,-17.346353 h 27.67219 v 15.551903 15.5519 h -10.3349 c -9.36277,0 -10.65686,-0.73144 -13.75745,-7.77595 z m 40.84055,-7.96608 V 84.407982 l 31.30177,0.788286 c 34.4,0.866317 38.08363,2.477275 38.08363,16.654962 v 6.57795 l -17.0072,-5.78451 c -19.33498,-6.57626 -24.81626,-5.38891 -28.87533,6.25497 -2.19622,6.30007 -3.48045,6.99242 -12.97021,6.99242 h -10.53266 z"
       id="path1" /></g></svg>
