<svg xmlns="http://www.w3.org/2000/svg" xml:space="preserve" width="872" height="889" viewBox="0 0 872 889"><path d="M95.136 520.7c-3.252-7.838-6.121-15.923-6.377-17.967s-2.711-10.408-5.456-18.586c-9.013-26.855-11.632-49.804-11.594-101.602.037-51.585 2.274-70.936 11.744-101.602 2.947-9.54 5.501-18.461 5.678-19.824.683-5.282 15.904-40.415 22.012-50.808 2.805-4.774 7.889-14.04 11.296-20.59 3.408-6.552 10.098-16.827 14.869-22.836a1595 1595 0 0 0 17.346-22.344c11.187-14.73 46.518-48.387 61.476-58.563 6.395-4.351 12.186-8.677 12.867-9.613 3.54-4.86 53.867-31.997 73.104-39.417 2.726-1.052 7.744-3.132 11.152-4.624s20.84-6.499 38.74-11.127l32.547-8.415 59.143.523c45.643.403 62.68 1.453 74.632 4.6a2689 2689 0 0 0 30.078 7.7c8.025 1.994 20.778 6.454 28.34 9.913s15.427 6.29 17.478 6.29 4.332.974 5.069 2.165c.736 1.191 7.214 4.954 14.395 8.362 41.06 19.487 99.627 69.74 128.557 110.307 8.03 11.26 14.6 21.096 14.6 21.857s3.345 6.246 7.434 12.19c4.089 5.942 7.434 12.104 7.434 13.693 0 1.588 2.364 6.207 5.253 10.265 2.89 4.057 6.671 12.035 8.404 17.729 3.083 10.126 6.859 19.985 11.654 30.428 1.315 2.863 2.78 8.439 3.255 12.39 1.302 10.821 3.641 20.721 8.137 34.443 3.251 9.922 4.06 23.005 4.06 65.67 0 48.135-.567 55.431-5.876 75.581-3.232 12.267-6.165 24.75-6.519 27.74-.795 6.735-15.626 45.784-18.544 48.83-1.233 1.286-8.73-4.517-17.75-13.737-8.588-8.78-20.81-20.147-27.157-25.26-6.348-5.112-15.627-13.149-20.62-17.858s-10.163-8.563-11.486-8.563-3.753-1.131-5.4-2.513c-4.408-3.701-21.543-14.85-31.49-20.489-39.427-22.35-71.09-34.558-132.579-51.122-19.12-5.15-51.247-7.9-92.567-7.921-45.889-.025-76.135 3.076-104.441 10.707-10.223 2.756-22.083 5.848-26.357 6.873-19.19 4.6-67.007 25.36-98.788 42.89-12.256 6.76-43.36 27.622-49.801 33.404-2.622 2.353-10.332 8.72-17.133 14.15s-19.133 16.86-27.407 25.4c-8.273 8.541-15.595 15.53-16.27 15.53-.677 0-3.89-6.413-7.142-14.25m80.582-78.67c64.24-43.07 137.929-69.97 214.643-78.353 31.666-3.46 102.537-1.506 129.856 3.582 88.291 16.444 167.027 53.019 229.714 106.708 10.516 9.007 20.23 16.376 21.588 16.376 2.452 0 3.713-3.81 11.478-34.694 6.151-24.462 7.71-101.257 2.647-130.418-7.77-44.763-29.293-98.39-55.017-137.092C680.73 113.072 592.733 55.15 504.066 39.004c-23.937-4.358-101.781-4.42-124.956-.1-68.082 12.692-132.858 47.303-183.716 98.16-40.763 40.764-67.43 83.818-85.71 138.377-19.961 59.58-21.878 144.72-4.524 200.906l5.051 16.355 19.124-16.198c10.518-8.91 31.39-24.423 46.383-34.475" style="fill:#000;stroke-width:2.4781"/><path d="M120.641 436.607c-3.91-18.836-7.21-42.37-7.269-51.848-.046-7.476.346-7.822 7.287-6.434 16.132 3.226 29.415-9.106 29.415-27.31V342.2l15.312.73 15.313.73.656 22.05c.833 28.044 1.37 29.608 8.446 24.652 6.144-4.304 17.994-5.105 20.301-1.373.834 1.35-1.03 3.437-4.143 4.637-8.172 3.15-47.468 29.374-63.235 42.2-19.882 16.172-18.895 16.137-22.083.78m628.464 7.082c-4.042-3.363-11.693-9.362-17.002-13.33-9.147-6.836-9.62-7.835-9.023-19.066.806-15.197-6.427-24.63-20.664-26.949-9.282-1.512-9.633-1.909-8.952-10.104 1.57-18.874 3.093-22.545 8.722-21.035 2.898.777 9.911 1.428 15.586 1.447l10.316.033-.516 12.449c-.47 11.341.218 13.106 7.745 19.833 8.335 7.45 16.246 8.402 27.876 3.355 3.64-1.58 4.288-.51 4.288 7.08 0 9.498-6.7 44.772-9.412 49.556-1.104 1.948-3.933.917-8.964-3.269m-51.045-36.904c-12.955-8.145-13.887-9.285-9.944-12.168 11.032-8.067 27.914.44 27.914 14.064 0 3.99-.827 7.218-1.837 7.173s-8.27-4.126-16.133-9.069m-38.914-21.589-16.459-8.448 5.096-8.637c3.044-5.16 4.622-11.116 3.92-14.792l-1.177-6.154 14.99 1.632c8.244.897 15.868 2.136 16.944 2.752 2.68 1.536-2.39 42.427-5.233 42.216-.892-.066-9.029-3.922-18.081-8.569m-445.372-2.335c-1.87-2.253-7.242-3.676-13.882-3.676h-10.833l.72-17.762.72-17.763 15.925-.71 15.925-.71V353.2c0 8.736 1.43 12.456 7.043 18.313l7.042 7.351-9.179 3.835c-11.075 4.628-9.786 4.612-13.48.16m530.431.727c-10.156-5.718-11.381-14.574-3.217-23.265 7.495-7.978 3.86-10.492-19.157-13.253-25.851-3.102-25.34-2.81-23.91-13.694 3.445-26.22 3.053-25.299 9.517-22.353 7.226 3.292 19.186-.92 24.615-8.671 9.684-13.827-.362-33.418-17.137-33.418-7.849 0-8.683-.65-8.66-6.737.015-3.706.731-10.997 1.591-16.202l1.564-9.464 12.029 1.155c14.628 1.406 16.612 3.212 19.292 17.558 1.155 6.18 4.284 14.27 6.954 17.977 4.749 6.592 11.587 30.553 17.507 61.347 2.695 14.018 2.565 15.699-1.44 18.628-4.13 3.02-4.15 3.582-.338 9.025 5.15 7.353 5.11 10.314-.222 16.48-5.583 6.457-12.868 8.332-18.988 4.887m-122.747-15.251c-4.178-1.819-8.308-5.163-9.179-7.432-1.613-4.205 2.064-13.511 6.474-16.385 1.342-.875 1.824-3.196 1.07-5.159-.928-2.42-8.251-4.456-22.774-6.331-11.773-1.52-21.925-3.283-22.56-3.918s-.383-8.37.562-17.19l1.717-16.033 9.29 1.486c11.315 1.809 20.289-3.282 24.743-14.036 6.025-14.545-8.393-31.374-24.277-28.337-5.429 1.038-5.7.547-4.321-7.793.81-4.895 1.484-12.518 1.499-16.94.032-9.93 3.382-11.399 20.968-9.202l13.511 1.688-1.518 8.092c-1.74 9.278 3.62 21.799 11.03 25.764 2.593 1.388 9.098 2.523 14.457 2.523 7.873 0 10.962-1.448 16.087-7.538 4.043-4.805 6.342-10.494 6.342-15.692 0-8.139.02-8.152 10.413-7.01 23.49 2.58 22.005.743 20.115 24.903-1.391 17.78-1.03 21.968 2.117 24.58 2.804 2.327 5.068 2.465 8.688.527 7.216-3.862 13.734-3.2 18.313 1.86 11.882 13.13-7.463 30.544-20.661 18.6-3.292-2.979-5.406-3.265-9.183-1.244-3.876 2.074-5.237 6.105-6.477 19.183-.863 9.106-1.805 18.21-2.094 20.232-.433 3.035-4.427 3.522-22.933 2.798-25.836-1.012-29.365.119-24.05 7.708 5.024 7.172 4.652 13.045-1.198 18.894-5.715 5.715-6.171 5.755-16.17 1.402m-504.336-2.233c-4.07-2.977-4.233-4.74-1.749-18.988a17747 17747 0 0 0 5.42-31.288c3.406-19.784 18.428-63.158 24.585-70.986 2.583-3.283 4.696-7.422 4.696-9.198s1.279-6.038 2.843-9.47c2.53-5.553 4.284-6.24 15.925-6.24h13.082v21.905c0 12.048.94 22.487 2.089 23.197s4.18-.292 6.738-2.227c7.744-5.862 19.515-4.568 25.295 2.78 5.808 7.384 6.186 10.485 2.31 18.99-4.198 9.215-14.544 12.615-23.809 7.824-4.114-2.128-8.637-3.869-10.051-3.869-1.605 0-2.572 8.288-2.572 22.05v22.051h-23.13c-12.723 0-23.798 1.079-24.613 2.397-.815 1.32.826 5.52 3.647 9.335 4.15 5.612 4.66 8.167 2.68 13.379-4.039 10.62-14.955 14.523-23.386 8.358m153.003-12.382v-11.287h15.925c15.149 0 15.925.285 15.925 5.843 0 4.813-2.076 6.522-11.771 9.693-6.474 2.118-13.64 4.568-15.925 5.445-3.535 1.356-4.154-.089-4.154-9.694m316.666 2.684c-13.283-3.987-15.313-5.38-15.313-10.509 0-5.454.902-5.893 11.638-5.668 18.909.397 21.636 2.03 20.213 12.103l-1.225 8.67zm-41.038-9.706c-17.124-3.502-22.471-11.615-7.656-11.615 16.661 0 23.581 2.606 23.581 8.881 0 3.2-.827 5.689-1.837 5.53-1.01-.16-7.35-1.418-14.088-2.796m-95.412-14.678c.932-3.031 1.927-5.79 2.212-6.13.284-.339 7.313.094 15.62.962 12.518 1.309 15.104 2.358 15.104 6.13 0 4.005-2.076 4.551-17.315 4.551-16.825 0-17.267-.156-15.62-5.513m-40.516-45.197c-15.805-8.186-23.91-27.402-17-40.312 1.456-2.722 2.21-5.387 1.674-5.923s-18.51 2.805-39.942 7.425c-21.433 4.62-39.55 7.831-40.262 7.137-1.824-1.78-21.568-70.535-20.59-71.705.44-.53 2.557.494 4.701 2.274 2.145 1.78 9.255 3.315 15.8 3.412 20.38.3 33.895-14.492 26.687-29.209-8.082-16.5-31.445-23.284-47.524-13.798-10.53 6.213-10.994 6.275-10.994 1.454 0-2.064-3.317-14.917-7.37-28.563-4.054-13.646-7.086-25.052-6.738-25.347s15.398-1.332 33.445-2.304l32.811-1.767-1.445 5.528c-2.432 9.299 4.288 21.112 15.165 26.661 28.131 14.352 53.868-4.896 35.59-26.618l-6.342-7.538 9.405-.017c5.173-.01 16.78-.714 25.792-1.565l16.387-1.548 10.553 21.778c5.804 11.978 10.762 22.166 11.018 22.64.255.475 2.986-.903 6.068-3.062 22.436-15.715 62.542 18.897 43.714 37.725-5.386 5.386-19.212 6.592-27.112 2.364-6.734-3.604-6.098-1.003 6.286 25.678 6.064 13.065 11.025 24.526 11.025 25.468s-11.852 4.26-26.337 7.373c-38.535 8.28-36.68 7.433-27.93 12.754 15.86 9.644 19.916 31.11 8.33 44.077-8.647 9.677-22.587 11.887-34.865 5.529zm301.477-67.504c.332-20.048 2.94-21.061 11.736-4.558l7.98 14.97H711.13Z" style="fill:#000;stroke-width:2.45002"/></svg>