<?xml version="1.0" encoding="UTF-8" standalone="no"?>
<svg
   xml:space="preserve"
   width="872"
   height="1209"
   viewBox="0 0 872 1209"
   version="1.1"
   id="svg1"
   sodipodi:docname="galactic.svg"
   inkscape:version="1.4.2 (f4327f4, 2025-05-13)"
   xmlns:inkscape="http://www.inkscape.org/namespaces/inkscape"
   xmlns:sodipodi="http://sodipodi.sourceforge.net/DTD/sodipodi-0.dtd"
   xmlns="http://www.w3.org/2000/svg"
   xmlns:svg="http://www.w3.org/2000/svg"><defs
     id="defs1" /><sodipodi:namedview
     id="namedview1"
     pagecolor="#ffffff"
     bordercolor="#000000"
     borderopacity="0.25"
     inkscape:showpageshadow="2"
     inkscape:pageopacity="0.0"
     inkscape:pagecheckerboard="0"
     inkscape:deskcolor="#d1d1d1"
     inkscape:zoom="0.32817773"
     inkscape:cx="-1273.7001"
     inkscape:cy="763.30591"
     inkscape:window-width="3440"
     inkscape:window-height="1369"
     inkscape:window-x="1737"
     inkscape:window-y="1432"
     inkscape:window-maximized="1"
     inkscape:current-layer="svg1" /><circle
     cx="438.49899"
     cy="780.88"
     r="417.83801"
     style="fill:none;stroke:#000000;stroke-width:18;stroke-dasharray:none;stroke-opacity:1"
     id="circle1" /><path
     style="fill:#000000;stroke-width:2.4781"
     d="m 95.136139,520.6992 c -3.25171,-7.83697 -6.12154,-15.92176 -6.37738,-17.96619 -0.25584,-2.04443 -2.71084,-10.408 -5.45555,-18.58572 -9.01363,-26.85562 -11.63246,-49.80405 -11.59464,-101.60193 0.0377,-51.58518 2.27457,-70.93636 11.74464,-101.60193 2.94633,-9.54066 5.50117,-18.46181 5.67744,-19.82476 0.68304,-5.28151 15.904101,-40.4142 22.012181,-50.80769 2.80563,-4.77404 7.88899,-14.03984 11.29638,-20.59067 3.40738,-6.55083 10.09824,-16.82656 14.86857,-22.83497 4.77033,-6.0084 12.57634,-16.06344 17.34667,-22.34452 11.1866,-14.72937 46.51773,-48.386637 61.47529,-58.562811 6.39569,-4.351231 12.18611,-8.677024 12.86759,-9.612872 3.53919,-4.860258 53.86691,-31.99676 73.10382,-39.417295 2.72591,-1.051503 7.74405,-3.132214 11.15143,-4.623802 3.40738,-1.491586 20.84089,-6.49868 38.74112,-11.126873 l 32.54587,-8.414897 59.14367,0.522472 c 45.64249,0.403201 62.67927,1.453296 74.63177,4.600074 8.51846,2.242684 22.05376,5.70817 30.07846,7.701079 8.02469,1.992912 20.77737,6.453484 28.3393,9.912383 7.56194,3.458901 15.42732,6.288909 17.47866,6.288909 2.05132,0 4.33203,0.974639 5.06825,2.165865 0.73622,1.191225 7.21411,4.954298 14.39531,8.362383 41.06009,19.486491 99.62745,69.739455 128.55731,110.306975 8.0297,11.25979 14.59943,21.09516 14.59943,21.85637 0,0.76122 3.34543,6.24644 7.43429,12.1894 4.08886,5.94295 7.43433,12.10501 7.43433,13.69347 0,1.58846 2.3637,6.20766 5.2527,10.26489 2.889,4.05723 6.6709,12.03537 8.4043,17.72921 3.0828,10.12638 6.8585,19.98477 11.6538,30.42782 1.315,2.86374 2.7798,8.43945 3.2552,12.39048 1.302,10.82126 3.6408,20.72121 8.1368,34.44273 3.251,9.92194 4.0598,23.00517 4.0597,65.66953 -10e-5,48.13605 -0.5673,55.43196 -5.8761,75.58193 -3.2318,12.26657 -6.165,24.7498 -6.5183,27.74049 -0.7955,6.73408 -15.626,45.78357 -18.5446,48.82883 -1.2324,1.28595 -8.73,-4.51658 -17.74961,-13.73688 -8.58871,-8.7798 -20.80946,-20.14643 -27.1572,-25.25918 -6.34774,-5.11276 -15.62707,-13.14925 -20.62073,-17.85887 -4.99366,-4.70962 -10.1622,-8.56296 -11.48563,-8.56296 -1.32343,0 -3.7531,-1.13086 -5.39928,-2.51299 -4.40811,-3.70114 -21.54359,-14.84977 -31.49112,-20.48865 -39.42675,-22.34952 -71.08869,-34.55826 -132.57812,-51.1217 -19.11997,-5.15035 -51.24668,-7.8996 -92.56734,-7.92151 -45.88843,-0.0248 -76.13461,3.07651 -104.44128,10.70718 -10.22214,2.75562 -22.08256,5.84843 -26.35646,6.87293 -19.19096,4.60026 -67.00734,25.36009 -98.7878,42.88944 -12.25651,6.7604 -43.36016,27.62304 -49.80162,33.40422 -2.62207,2.35327 -10.33155,8.72108 -17.13222,14.15067 -6.80064,5.42958 -19.1338,16.85979 -27.40699,25.40048 -8.27323,8.54068 -15.59523,15.52851 -16.27116,15.52851 -0.67592,0 -3.889441,-6.41207 -7.141151,-14.24905 z m 80.582131,-78.66987 c 64.24039,-43.06993 137.9287,-69.96896 214.64239,-78.35264 31.66588,-3.46061 102.53761,-1.50524 129.85678,3.58279 88.29082,16.44365 167.02619,53.01829 229.71369,106.70794 10.51567,9.00632 20.23022,16.37511 21.58782,16.37511 2.4524,0 3.7126,-3.80871 11.4784,-34.69334 6.1508,-24.46171 7.7094,-101.25678 2.6469,-130.41805 C 777.87305,280.46768 756.3515,226.84059 730.62661,188.13917 680.72951,113.07228 592.73317,55.148062 504.06596,39.003992 480.12894,34.645661 402.28452,34.583085 379.11038,38.903543 311.02777,51.596492 246.25231,86.206631 195.39405,137.06489 154.63054,177.82839 127.96318,220.88214 109.68427,275.441 89.722959,335.02153 87.805559,420.16087 105.15972,476.34706 l 5.05164,16.35536 19.12392,-16.19864 c 10.51817,-8.90925 31.39051,-24.42275 46.38299,-34.47445 z"
     id="path1" /><path
     style="fill:#000000;stroke-width:1.51706"
     d="m 215.43229,393.33883 c -0.46397,-2.8592 -2.86983,-9.57627 -5.34632,-14.92678 -5.24845,-11.33925 -12.47057,-17.98182 -24.41162,-22.45259 -9.26141,-3.46753 -17.23247,-8.63115 -16.11499,-10.43931 0.40968,-0.66282 7.75647,0.11376 16.3262,1.72746 19.75198,3.7177 34.17023,3.0634 43.41482,-1.97051 9.82911,-5.35218 11.48073,-9.6591 11.28162,-29.41935 -0.21893,-21.7276 -2.13247,-26.43184 -13.31995,-32.74567 -7.87125,-4.44225 -15.9343,-12.11248 -15.9343,-15.15798 0,-1.94533 0.29444,-1.86082 7.77348,2.23341 3.6512,1.99872 8.34525,4.11108 10.4312,4.69408 2.08595,0.58301 9.59537,3.88412 16.68762,7.33558 19.3148,9.39983 33.41974,8.25976 37.49048,-3.03048 6.52335,-18.09272 12.59428,-38.41126 12.58432,-42.11789 -0.01,-3.48696 -1.98827,-6.2847 -9.12068,-12.89498 -5.9461,-5.51085 -9.10652,-9.62709 -9.10234,-11.85519 0.008,-4.34333 0.80707,-4.28598 6.45117,0.46316 2.53394,2.13222 7.85414,5.52209 11.82267,7.5331 6.91523,3.50424 16.62486,13.26802 16.62486,16.71765 0,0.90539 1.97542,3.53869 4.38981,5.85175 3.46926,3.32387 6.27967,4.37716 13.40213,5.02297 11.65319,1.05663 14.93086,-0.7068 15.98994,-8.60277 0.79754,-5.94611 1.98506,-8.24718 14.78825,-28.65538 3.32414,-5.29863 6.04391,-11.18935 6.04391,-13.09038 0,-1.90102 -2.38937,-7.42447 -5.3097,-12.27419 -5.70362,-9.47175 -6.05647,-10.80267 -3.79264,-14.30569 1.23476,-1.91073 1.47432,-1.81669 1.49383,0.58664 0.0121,1.57425 4.80196,7.30113 10.64262,12.72629 l 10.61939,9.86404 v 9.74998 c 0,5.36249 0.70292,11.06344 1.56203,12.66863 2.47363,4.62217 17.21253,11.59456 25.63545,12.1272 8.49742,0.53749 8.79039,0.29447 9.58249,-7.94922 0.82359,-8.57122 1.45661,-9.33097 18.41793,-22.10489 4.72135,-3.55567 9.73162,-8.87098 11.13397,-11.81179 2.40811,-5.04983 2.39519,-5.74389 -0.23278,-12.49813 -3.40216,-8.74415 -4.69257,-15.52312 -2.93415,-15.41389 1.76993,0.1092 15.45081,21.82421 16.57691,26.31106 0.60922,2.42729 -0.60298,6.23633 -3.77119,11.85003 -2.56795,4.55027 -4.669,9.75544 -4.669,11.5671 0,4.77934 9.70463,13.25059 22.37974,19.53545 10.68042,5.2959 11.09037,5.37508 14.03278,2.71235 1.66703,-1.50872 3.03096,-4.29145 3.03096,-6.18383 0,-4.70258 7.71234,-12.03815 15.53563,-14.77674 3.55392,-1.24398 9.11906,-3.18082 12.36697,-4.30373 8.3932,-2.90228 12.0899,-8.46746 11.76283,-17.70861 -0.14534,-4.10682 0.33583,-9.08823 1.06935,-11.06965 1.2221,-3.30143 1.47219,-3.03184 2.99016,3.22405 0.9111,3.7547 2.62732,10.24012 3.81383,14.41203 2.59966,9.14072 1.73967,11.20134 -7.25833,17.39213 -7.57709,5.21323 -9.15492,8.56789 -7.69358,16.35753 1.82692,9.73829 21.94814,29.20818 30.18529,29.20818 1.42054,0 5.14774,-2.69641 8.28264,-5.99177 5.84724,-6.14681 8.29732,-7.06598 28.18578,-10.57509 10.69812,-1.88752 15.46811,-5.80654 16.82212,-13.82099 0.53745,-3.18112 1.84766,-6.11799 2.91155,-6.52623 1.48295,-0.56905 1.86094,2.06335 1.61972,11.28038 -0.37761,14.42827 -2.22048,17.13698 -13.27111,19.50692 -4.21974,0.90491 -8.56765,2.8243 -9.66203,4.26536 -3.85325,5.07364 -1.80889,16.23265 5.71691,31.20585 3.96949,7.89764 6.97385,11.33469 12.32763,14.10317 3.7848,1.95729 4.91276,1.86521 11.19508,-0.91373 5.68608,-2.51528 10.17988,-3.0904 24.14725,-3.0904 h 17.16104 l 7.09736,-6.14271 c 3.90356,-3.37849 7.40594,-5.83414 7.7831,-5.457 1.24128,1.24125 -5.76931,15.7871 -9.12958,18.94242 -2.0441,1.91938 -7.02639,3.68539 -13.15162,4.66177 -15.27238,2.43441 -18.77406,9.42834 -15.24619,30.45096 2.14728,12.79562 4.10742,17.3524 9.71946,22.59474 3.33919,3.11922 6.08848,3.78308 20.24515,4.88841 9.00966,0.70345 19.56967,1.72186 23.46665,2.26329 4.83459,0.6716 9.37409,0.20434 14.29003,-1.47063 3.96255,-1.35018 7.5565,-2.10295 7.98659,-1.67286 1.2842,1.28419 -10.54962,12.59475 -15.58847,14.89932 -3.1314,1.43209 -7.77656,1.88994 -14.09161,1.38901 -8.93875,-0.70921 -9.63684,-0.5155 -13.65352,3.78703 -2.32822,2.49389 -5.29356,6.08673 -6.58968,7.98381 l -2.35658,3.44933 -7.50429,-5.27222 c -4.12736,-2.89986 -9.21098,-5.72628 -11.29695,-6.28122 -6.63082,-1.76373 -18.25148,-10.05217 -19.79852,-14.12107 -3.69951,-9.73055 -16.74891,-34.07885 -23.14034,-43.1768 -8.01923,-11.41478 -26.36776,-31.71558 -28.66576,-31.71558 -0.84477,0 -2.87186,-1.69834 -4.50465,-3.77413 -2.8478,-3.6203 -31.43722,-23.53289 -33.78737,-23.53289 -0.62625,0 -3.05991,-1.36808 -5.40814,-3.04017 -15.02999,-10.70239 -55.49812,-20.04745 -87.98079,-20.31687 -50.0626,-0.41539 -88.79666,12.89921 -127.52928,43.83731 -13.40482,10.70723 -28.26348,26.11385 -32.91972,34.13377 -2.17994,3.75472 -6.82565,10.92281 -10.32378,15.9291 -6.97121,9.97661 -11.89597,19.42742 -17.39158,33.37524 -3.58195,9.09096 -6.51932,12.75571 -10.2967,12.84673 -1.10124,0.0258 -4.85596,1.95518 -8.34381,4.28585 -5.42973,3.62834 -13.71068,7.89885 -15.31679,7.89885 -0.26876,0 -0.86828,-2.3393 -1.33227,-5.19849 z m 513.19345,-68.49359 c -0.0111,-3.53354 -1.55242,-8.63706 -3.79264,-12.55577 -2.0759,-3.63123 -3.77436,-6.87393 -3.77436,-7.20601 0,-0.33193 2.56003,-0.60623 5.68896,-0.60925 3.12893,0 7.92416,-1.36854 10.65606,-3.03412 2.73191,-1.66573 5.63328,-3.0285 6.4475,-3.0285 0.81421,0 1.49557,3.24271 1.51412,7.20602 0.0225,4.8068 1.02145,8.46881 3.00037,10.99866 4.46341,5.70611 3.73418,6.81203 -4.60388,6.98225 -5.74271,0.11682 -8.54271,1.02311 -11.36856,3.67796 l -3.74929,3.52214 z m -574.59408,-24.9166 c -1.04215,-1.66876 -3.25439,-3.03411 -4.91607,-3.03411 -3.99844,0 -3.74541,-1.28494 1.4488,-7.35697 l 4.34675,-5.08137 5.0732,3.55916 c 2.79025,1.95761 5.38165,3.75624 5.75865,3.99699 0.37703,0.24075 -1.159,2.148 -3.41338,4.23836 -2.25435,2.0905 -4.09884,4.45574 -4.09884,5.25645 0,2.44989 -2.1997,1.6231 -4.19911,-1.57851 z M 245.8298,189.18353 c 11.07509,-16.35677 40.40696,-45.23332 61.13748,-60.18832 14.8262,-10.69555 51.74307,-29.08379 67.44405,-33.5937 25.36004,-7.28445 32.93999,-8.36246 63.53986,-9.0368 44.66879,-0.98426 69.73842,2.61465 99.09749,14.22651 l 17.40003,6.88197 11.34148,-4.13656 11.34148,-4.1364 9.38495,4.9864 c 12.78616,6.79354 12.55234,6.53519 16.07958,17.77247 2.97681,9.48373 3.00454,10.22315 0.57975,15.45715 -6.53665,14.10953 -8.49779,15.99598 -20.43703,19.65922 l -11.2752,3.45966 -9.77838,-5.94505 c -10.07481,-6.12526 -12.2508,-9.58476 -15.74058,-25.02537 -1.08976,-4.82181 -8.05185,-8.40373 -22.10337,-11.37216 -4.5891,-0.96939 -15.85323,-3.41701 -25.03144,-5.43894 -31.36864,-6.91034 -38.49458,-7.66796 -72.06017,-7.66084 -35.88882,0.0151 -41.41636,0.90174 -75.64544,12.23477 -18.87509,6.24935 -21.00494,7.29931 -40.40939,19.92213 -20.46796,13.31475 -33.28922,23.65986 -52.94844,42.72305 -12.93832,12.54591 -15.53273,14.5513 -11.91671,9.21081 z m 341.61314,-8.49158 c -4.34849,-4.65874 -13.69322,-9.7131 -17.95803,-9.7131 -3.93965,0 -10.33803,2.82506 -16.20411,7.15458 -2.58191,1.90558 -5.14195,3.4648 -5.68897,3.4648 -0.54702,0 -0.99459,-3.82009 -0.99459,-8.48898 0,-6.17155 -0.86317,-9.70097 -3.16187,-12.92927 -3.84567,-5.40073 -13.27423,-10.43993 -19.53354,-10.43993 -5.09548,0 -5.86809,-1.61991 -2.21768,-4.64948 1.31665,-1.09272 4.05885,-5.27238 6.09377,-9.28802 2.03493,-4.0158 4.24055,-7.30129 4.90141,-7.30129 3.0445,0 6.20278,4.48534 8.54556,12.13645 3.98322,13.00846 5.14623,14.56738 14.15954,18.98081 11.27579,5.52117 17.56757,6.14589 31.24691,3.10253 13.37184,-2.97495 15.43742,-4.94499 21.31679,-20.33114 l 3.91454,-10.24423 -3.05623,-11.9497 c -1.68092,-6.57234 -4.07917,-13.08005 -5.32943,-14.46148 -1.25026,-1.38159 -7.44081,-5.13479 -13.75677,-8.34064 l -11.48358,-5.82882 -10.23838,3.29746 c -17.23227,5.55015 -21.07985,4.29495 -16.10069,-5.25205 1.24643,-2.38997 2.27044,-6.56399 2.27559,-9.27573 0.0121,-6.243451 2.63165,-6.351311 8.38558,-0.34544 8.63802,9.01602 20.47946,9.21414 32.1038,0.53688 2.65606,-1.98263 5.2161,-3.604818 5.68897,-3.604818 0.47286,0 0.85974,3.995018 0.85974,8.877968 0,6.70463 0.84302,10.13986 3.44361,14.03276 4.04911,6.06111 12.00744,10.45875 18.93298,10.46209 6.21796,0 6.37852,2.81975 0.3893,6.82918 -4.43252,2.9672 -9.11238,11.7898 -9.11238,17.17884 0,3.55416 7.4606,18.47198 9.23804,18.47198 0.75975,0 1.38136,1.02402 1.38136,2.27559 0,1.72595 -1.87337,2.27558 -7.758,2.27558 -14.38546,0 -24.10019,9.18518 -24.10019,22.78649 0,5.55167 -1.4184,5.68487 -6.18305,0.58013 z m 108.96364,-0.19888 c -5.6303,-0.58893 -5.68898,-0.66462 -5.68898,-7.33028 0,-5.96719 0.38925,-6.73755 3.41338,-6.7559 1.87736,-0.0151 4.8591,-0.4087 6.6261,-0.88293 2.98558,-0.80131 3.2181,-0.26366 3.2888,7.60592 0.0419,4.65751 -0.37985,8.35352 -0.93712,8.21333 -0.55728,-0.13955 -3.57326,-0.52292 -6.70218,-0.85014 z m -482.04473,-69.3216 c 0,-1.18755 -1.76736,-4.25959 -3.92749,-6.82675 -2.63043,-3.1262 -3.22877,-4.66752 -1.81178,-4.66752 1.16362,0 4.46703,-1.73841 7.34086,-3.8632 l 5.22517,-3.86303 1.92451,4.68012 c 1.0585,2.57399 2.93586,5.06802 4.1719,5.54241 3.09833,1.18892 2.81468,3.18734 -0.60651,4.27326 -1.56965,0.49804 -4.40483,2.25084 -6.30035,3.89474 -4.07454,3.53381 -6.01631,3.80172 -6.01631,0.82997 z"
     id="path3" /></svg>
