<?xml version="1.0" encoding="UTF-8" standalone="no"?>
<svg
   xml:space="preserve"
   width="872"
   height="889"
   viewBox="0 0 872 889"
   version="1.1"
   id="svg2"
   sodipodi:docname="galactic_no_circle.svg"
   inkscape:version="1.4.2 (f4327f4, 2025-05-13)"
   xmlns:inkscape="http://www.inkscape.org/namespaces/inkscape"
   xmlns:sodipodi="http://sodipodi.sourceforge.net/DTD/sodipodi-0.dtd"
   xmlns="http://www.w3.org/2000/svg"
   xmlns:svg="http://www.w3.org/2000/svg"><defs
     id="defs2" /><sodipodi:namedview
     id="namedview2"
     pagecolor="#ffffff"
     bordercolor="#000000"
     borderopacity="0.25"
     inkscape:showpageshadow="2"
     inkscape:pageopacity="0.0"
     inkscape:pagecheckerboard="0"
     inkscape:deskcolor="#d1d1d1"
     inkscape:zoom="0.96526055"
     inkscape:cx="436.15167"
     inkscape:cy="604.5"
     inkscape:window-width="3440"
     inkscape:window-height="1369"
     inkscape:window-x="1737"
     inkscape:window-y="1432"
     inkscape:window-maximized="1"
     inkscape:current-layer="svg2" /><path
     d="m 95.136,520.7 c -3.252,-7.838 -6.121,-15.923 -6.377,-17.967 -0.256,-2.044 -2.711,-10.408 -5.456,-18.586 -9.013,-26.855 -11.632,-49.804 -11.594,-101.602 0.037,-51.585 2.274,-70.936 11.744,-101.602 2.947,-9.54 5.501,-18.461 5.678,-19.824 0.683,-5.282 15.904,-40.415 22.012,-50.808 2.805,-4.774 7.889,-14.04 11.296,-20.59 3.408,-6.552 10.098,-16.827 14.869,-22.836 a 1595,1595 0 0 0 17.346,-22.344 c 11.187,-14.73 46.518,-48.387 61.476,-58.563 6.395,-4.351 12.186,-8.677 12.867,-9.613 3.54,-4.86 53.867,-31.997 73.104,-39.417 2.726,-1.052 7.744,-3.132 11.152,-4.624 3.408,-1.492 20.84,-6.499 38.74,-11.127 l 32.547,-8.415 59.143,0.523 c 45.643,0.403 62.68,1.453 74.632,4.6 a 2689,2689 0 0 0 30.078,7.7 c 8.025,1.994 20.778,6.454 28.34,9.913 7.562,3.459 15.427,6.29 17.478,6.29 2.051,0 4.332,0.974 5.069,2.165 0.736,1.191 7.214,4.954 14.395,8.362 41.06,19.487 99.627,69.74 128.557,110.307 8.03,11.26 14.6,21.096 14.6,21.857 0,0.761 3.345,6.246 7.434,12.19 4.089,5.942 7.434,12.104 7.434,13.693 0,1.588 2.364,6.207 5.253,10.265 2.89,4.057 6.671,12.035 8.404,17.729 3.083,10.126 6.859,19.985 11.654,30.428 1.315,2.863 2.78,8.439 3.255,12.39 1.302,10.821 3.641,20.721 8.137,34.443 3.251,9.922 4.06,23.005 4.06,65.67 0,48.135 -0.567,55.431 -5.876,75.581 -3.232,12.267 -6.165,24.75 -6.519,27.74 -0.795,6.735 -15.626,45.784 -18.544,48.83 -1.233,1.286 -8.73,-4.517 -17.75,-13.737 -8.588,-8.78 -20.81,-20.147 -27.157,-25.26 -6.348,-5.112 -15.627,-13.149 -20.62,-17.858 -4.993,-4.709 -10.163,-8.563 -11.486,-8.563 -1.323,0 -3.753,-1.131 -5.4,-2.513 -4.408,-3.701 -21.543,-14.85 -31.49,-20.489 -39.427,-22.35 -71.09,-34.558 -132.579,-51.122 -19.12,-5.15 -51.247,-7.9 -92.567,-7.921 -45.889,-0.025 -76.135,3.076 -104.441,10.707 -10.223,2.756 -22.083,5.848 -26.357,6.873 -19.19,4.6 -67.007,25.36 -98.788,42.89 -12.256,6.76 -43.36,27.622 -49.801,33.404 -2.622,2.353 -10.332,8.72 -17.133,14.15 -6.801,5.43 -19.133,16.86 -27.407,25.4 -8.273,8.541 -15.595,15.53 -16.27,15.53 -0.677,0 -3.89,-6.413 -7.142,-14.25 m 80.582,-78.67 c 64.24,-43.07 137.929,-69.97 214.643,-78.353 31.666,-3.46 102.537,-1.506 129.856,3.582 88.291,16.444 167.027,53.019 229.714,106.708 10.516,9.007 20.23,16.376 21.588,16.376 2.452,0 3.713,-3.81 11.478,-34.694 6.151,-24.462 7.71,-101.257 2.647,-130.418 -7.77,-44.763 -29.293,-98.39 -55.017,-137.092 C 680.73,113.072 592.733,55.15 504.066,39.004 c -23.937,-4.358 -101.781,-4.42 -124.956,-0.1 -68.082,12.692 -132.858,47.303 -183.716,98.16 -40.763,40.764 -67.43,83.818 -85.71,138.377 -19.961,59.58 -21.878,144.72 -4.524,200.906 l 5.051,16.355 19.124,-16.198 c 10.518,-8.91 31.39,-24.423 46.383,-34.475"
     style="fill:#000000;stroke-width:2.4781"
     id="path1" /><path
     d="m 215.432,393.339 c -0.464,-2.86 -2.87,-9.576 -5.346,-14.927 -5.248,-11.34 -12.47,-17.982 -24.412,-22.453 -9.261,-3.467 -17.232,-8.63 -16.115,-10.439 0.41,-0.663 7.757,0.114 16.327,1.728 19.752,3.717 34.17,3.063 43.414,-1.97 9.83,-5.353 11.481,-9.66 11.282,-29.42 -0.219,-21.728 -2.132,-26.432 -13.32,-32.746 -7.871,-4.442 -15.934,-12.112 -15.934,-15.158 0,-1.945 0.294,-1.86 7.773,2.234 3.651,1.998 8.345,4.11 10.431,4.694 2.086,0.584 9.596,3.884 16.688,7.335 19.315,9.4 33.42,8.26 37.49,-3.03 6.524,-18.093 12.595,-38.412 12.585,-42.118 -0.01,-3.487 -1.988,-6.285 -9.12,-12.895 -5.947,-5.511 -9.107,-9.627 -9.103,-11.855 0.008,-4.344 0.807,-4.286 6.451,0.463 2.534,2.132 7.854,5.522 11.823,7.533 6.915,3.504 16.625,13.268 16.625,16.718 0,0.905 1.975,3.538 4.39,5.851 3.469,3.324 6.279,4.377 13.401,5.023 11.654,1.057 14.931,-0.707 15.99,-8.603 0.798,-5.946 1.985,-8.247 14.789,-28.655 3.324,-5.299 6.044,-11.19 6.044,-13.09 0,-1.9 -2.39,-7.425 -5.31,-12.274 -5.704,-9.472 -6.057,-10.803 -3.793,-14.306 1.235,-1.91 1.475,-1.817 1.494,0.586 0.012,1.575 4.802,7.302 10.643,12.727 l 10.62,9.864 v 9.75 c 0,5.362 0.702,11.063 1.561,12.668 2.474,4.623 17.213,11.595 25.636,12.128 8.497,0.537 8.79,0.294 9.582,-7.95 0.824,-8.57 1.457,-9.33 18.418,-22.104 4.721,-3.556 9.732,-8.871 11.134,-11.812 2.408,-5.05 2.395,-5.744 -0.233,-12.498 -3.402,-8.745 -4.692,-15.524 -2.934,-15.414 1.77,0.109 15.45,21.824 16.577,26.31 0.61,2.428 -0.603,6.237 -3.771,11.85 -2.568,4.551 -4.67,9.756 -4.67,11.568 0,4.78 9.705,13.25 22.38,19.535 10.68,5.296 11.09,5.375 14.033,2.713 1.667,-1.509 3.031,-4.292 3.031,-6.184 0,-4.703 7.713,-12.038 15.536,-14.777 3.554,-1.244 9.119,-3.18 12.367,-4.304 8.393,-2.902 12.09,-8.467 11.763,-17.708 -0.146,-4.107 0.335,-9.088 1.069,-11.07 1.222,-3.301 1.472,-3.032 2.99,3.224 0.911,3.755 2.627,10.24 3.814,14.412 2.6,9.14 1.74,11.202 -7.258,17.392 -7.577,5.214 -9.155,8.568 -7.694,16.358 1.827,9.738 21.948,29.208 30.185,29.208 1.42,0 5.148,-2.696 8.283,-5.992 5.847,-6.147 8.297,-7.066 28.186,-10.575 10.698,-1.887 15.468,-5.806 16.822,-13.82 0.537,-3.182 1.848,-6.119 2.911,-6.527 1.483,-0.57 1.861,2.063 1.62,11.28 -0.377,14.429 -2.22,17.137 -13.27,19.507 -4.22,0.905 -8.569,2.825 -9.663,4.266 -3.853,5.073 -1.809,16.232 5.717,31.205 3.97,7.898 6.974,11.335 12.328,14.104 3.784,1.957 4.912,1.865 11.195,-0.914 5.686,-2.515 10.18,-3.09 24.147,-3.09 h 17.16 l 7.098,-6.143 c 3.904,-3.379 7.406,-5.834 7.783,-5.457 1.242,1.241 -5.769,15.787 -9.13,18.942 -2.043,1.92 -7.026,3.686 -13.15,4.662 -15.273,2.434 -18.775,9.428 -15.247,30.451 2.147,12.796 4.107,17.352 9.72,22.595 3.339,3.119 6.088,3.783 20.245,4.888 9.01,0.704 19.57,1.722 23.466,2.263 4.835,0.672 9.374,0.205 14.29,-1.47 3.963,-1.35 7.557,-2.103 7.987,-1.673 1.284,1.284 -10.55,12.595 -15.589,14.9 -3.131,1.431 -7.776,1.89 -14.091,1.388 -8.939,-0.709 -9.637,-0.515 -13.654,3.787 -2.328,2.494 -5.293,6.087 -6.59,7.984 l -2.356,3.45 -7.504,-5.273 c -4.128,-2.9 -9.211,-5.726 -11.297,-6.281 -6.631,-1.764 -18.252,-10.052 -19.799,-14.121 -3.7,-9.73 -16.749,-34.079 -23.14,-43.177 -8.02,-11.415 -26.368,-31.715 -28.666,-31.715 -0.845,0 -2.872,-1.699 -4.504,-3.775 -2.848,-3.62 -31.438,-23.532 -33.788,-23.532 -0.626,0 -3.06,-1.369 -5.408,-3.04 -15.03,-10.703 -55.498,-20.048 -87.98,-20.318 -50.063,-0.415 -88.797,12.9 -127.53,43.838 -13.405,10.707 -28.264,26.114 -32.92,34.134 -2.18,3.754 -6.825,10.922 -10.324,15.929 -6.97,9.976 -11.896,19.427 -17.391,33.375 -3.582,9.09 -6.52,12.756 -10.297,12.847 -1.101,0.025 -4.856,1.955 -8.344,4.285 -5.43,3.629 -13.71,7.9 -15.316,7.9 -0.27,0 -0.869,-2.34 -1.333,-5.2 m 513.194,-68.494 c -0.011,-3.533 -1.553,-8.637 -3.793,-12.556 -2.076,-3.63 -3.774,-6.873 -3.774,-7.206 0,-0.331 2.56,-0.606 5.689,-0.609 3.129,0 7.924,-1.368 10.656,-3.034 2.732,-1.666 5.633,-3.028 6.447,-3.028 0.814,0 1.496,3.242 1.514,7.206 0.023,4.806 1.022,8.468 3,10.998 4.464,5.706 3.735,6.812 -4.603,6.983 -5.743,0.116 -8.543,1.023 -11.369,3.677 l -3.749,3.523 z M 154.032,299.93 c -1.042,-1.67 -3.255,-3.034 -4.916,-3.034 -3.999,0 -3.746,-1.285 1.448,-7.357 l 4.347,-5.082 5.073,3.56 c 2.79,1.957 5.382,3.756 5.759,3.996 0.377,0.24 -1.159,2.148 -3.413,4.239 -2.255,2.09 -4.1,4.455 -4.1,5.256 0,2.45 -2.199,1.623 -4.198,-1.578 M 245.83,189.185 c 11.075,-16.357 40.407,-45.234 61.137,-60.189 14.826,-10.695 51.743,-29.084 67.444,-33.593 25.36,-7.285 32.94,-8.363 63.54,-9.037 44.669,-0.985 69.739,2.614 99.098,14.226 l 17.4,6.882 11.341,-4.136 11.342,-4.137 9.385,4.987 c 12.786,6.793 12.552,6.535 16.08,17.772 2.976,9.484 3.004,10.223 0.579,15.457 -6.537,14.11 -8.498,15.996 -20.437,19.66 l -11.275,3.46 -9.779,-5.946 c -10.074,-6.125 -12.25,-9.585 -15.74,-25.025 -1.09,-4.822 -8.052,-8.404 -22.104,-11.372 -4.589,-0.97 -15.853,-3.417 -25.031,-5.44 -31.369,-6.91 -38.495,-7.667 -72.06,-7.66 -35.889,0.015 -41.417,0.902 -75.646,12.235 -18.875,6.249 -21.005,7.299 -40.41,19.922 -20.467,13.314 -33.288,23.66 -52.947,42.723 -12.939,12.546 -15.533,14.551 -11.917,9.21 m 341.613,-8.492 c -4.349,-4.659 -13.693,-9.713 -17.958,-9.713 -3.94,0 -10.338,2.825 -16.204,7.154 -2.582,1.906 -5.142,3.465 -5.69,3.465 -0.546,0 -0.994,-3.82 -0.994,-8.489 0,-6.171 -0.863,-9.7 -3.162,-12.929 -3.845,-5.4 -13.274,-10.44 -19.533,-10.44 -5.096,0 -5.868,-1.62 -2.218,-4.65 1.317,-1.092 4.059,-5.272 6.094,-9.287 2.035,-4.015 4.24,-7.302 4.901,-7.302 3.045,0 6.203,4.486 8.546,12.137 3.983,13.008 5.146,14.567 14.16,18.98 11.275,5.522 17.567,6.146 31.246,3.103 13.372,-2.975 15.438,-4.945 21.317,-20.331 l 3.915,-10.244 -3.057,-11.95 c -1.68,-6.572 -4.079,-13.08 -5.329,-14.462 -1.25,-1.382 -7.44,-5.134 -13.757,-8.34 l -11.483,-5.829 -10.239,3.297 c -17.232,5.55 -21.08,4.295 -16.1,-5.252 1.246,-2.39 2.27,-6.564 2.275,-9.275 0.012,-6.244 2.632,-6.352 8.386,-0.346 8.638,9.016 20.48,9.214 32.104,0.537 2.656,-1.982 5.216,-3.605 5.689,-3.605 0.473,0 0.86,3.995 0.86,8.878 0,6.705 0.842,10.14 3.443,14.033 4.049,6.061 12.007,10.459 18.933,10.462 6.218,0 6.378,2.82 0.39,6.83 -4.433,2.967 -9.113,11.79 -9.113,17.178 0,3.554 7.46,18.472 9.238,18.472 0.76,0 1.381,1.024 1.381,2.276 0,1.726 -1.873,2.275 -7.758,2.275 -14.385,0 -24.1,9.186 -24.1,22.787 0,5.551 -1.418,5.685 -6.183,0.58 m 108.964,-0.199 c -5.63,-0.589 -5.69,-0.665 -5.69,-7.33 0,-5.967 0.39,-6.738 3.414,-6.756 1.877,-0.015 4.86,-0.409 6.626,-0.883 2.986,-0.801 3.218,-0.264 3.289,7.606 0.042,4.657 -0.38,8.353 -0.937,8.213 -0.558,-0.14 -3.574,-0.523 -6.702,-0.85 M 214.362,111.171 c 0,-1.187 -1.768,-4.26 -3.928,-6.826 -2.63,-3.126 -3.228,-4.668 -1.811,-4.668 1.163,0 4.467,-1.738 7.34,-3.863 l 5.226,-3.863 1.924,4.68 c 1.059,2.574 2.936,5.068 4.172,5.542 3.098,1.19 2.815,3.188 -0.606,4.274 -1.57,0.498 -4.405,2.25 -6.3,3.894 -4.075,3.534 -6.017,3.802 -6.017,0.83"
     style="fill:#000000;stroke-width:1.51706"
     id="path2" /></svg>
