<?xml version="1.0" encoding="UTF-8" standalone="no"?>
<svg
   xml:space="preserve"
   width="872"
   height="889"
   viewBox="0 0 872 889"
   version="1.1"
   id="svg2"
   sodipodi:docname="impoverished_no_circle.svg"
   inkscape:version="1.4.2 (f4327f4, 2025-05-13)"
   xmlns:inkscape="http://www.inkscape.org/namespaces/inkscape"
   xmlns:sodipodi="http://sodipodi.sourceforge.net/DTD/sodipodi-0.dtd"
   xmlns="http://www.w3.org/2000/svg"
   xmlns:svg="http://www.w3.org/2000/svg"><defs
     id="defs2" /><sodipodi:namedview
     id="namedview2"
     pagecolor="#ffffff"
     bordercolor="#000000"
     borderopacity="0.25"
     inkscape:showpageshadow="2"
     inkscape:pageopacity="0.0"
     inkscape:pagecheckerboard="0"
     inkscape:deskcolor="#d1d1d1"
     inkscape:zoom="0.96526055"
     inkscape:cx="436.15167"
     inkscape:cy="604.5"
     inkscape:window-width="3440"
     inkscape:window-height="1369"
     inkscape:window-x="1737"
     inkscape:window-y="1432"
     inkscape:window-maximized="1"
     inkscape:current-layer="svg2" /><path
     d="m 95.136,520.7 c -3.252,-7.838 -6.121,-15.923 -6.377,-17.967 -0.256,-2.044 -2.711,-10.408 -5.456,-18.586 -9.013,-26.855 -11.632,-49.804 -11.594,-101.602 0.037,-51.585 2.274,-70.936 11.744,-101.602 2.947,-9.54 5.501,-18.461 5.678,-19.824 0.683,-5.282 15.904,-40.415 22.012,-50.808 2.805,-4.774 7.889,-14.04 11.296,-20.59 3.408,-6.552 10.098,-16.827 14.869,-22.836 a 1595,1595 0 0 0 17.346,-22.344 c 11.187,-14.73 46.518,-48.387 61.476,-58.563 6.395,-4.351 12.186,-8.677 12.867,-9.613 3.54,-4.86 53.867,-31.997 73.104,-39.417 2.726,-1.052 7.744,-3.132 11.152,-4.624 3.408,-1.492 20.84,-6.499 38.74,-11.127 l 32.547,-8.415 59.143,0.523 c 45.643,0.403 62.68,1.453 74.632,4.6 a 2689,2689 0 0 0 30.078,7.7 c 8.025,1.994 20.778,6.454 28.34,9.913 7.562,3.459 15.427,6.29 17.478,6.29 2.051,0 4.332,0.974 5.069,2.165 0.736,1.191 7.214,4.954 14.395,8.362 41.06,19.487 99.627,69.74 128.557,110.307 8.03,11.26 14.6,21.096 14.6,21.857 0,0.761 3.345,6.246 7.434,12.19 4.089,5.942 7.434,12.104 7.434,13.693 0,1.588 2.364,6.207 5.253,10.265 2.89,4.057 6.671,12.035 8.404,17.729 3.083,10.126 6.859,19.985 11.654,30.428 1.315,2.863 2.78,8.439 3.255,12.39 1.302,10.821 3.641,20.721 8.137,34.443 3.251,9.922 4.06,23.005 4.06,65.67 0,48.135 -0.567,55.431 -5.876,75.581 -3.232,12.267 -6.165,24.75 -6.519,27.74 -0.795,6.735 -15.626,45.784 -18.544,48.83 -1.233,1.286 -8.73,-4.517 -17.75,-13.737 -8.588,-8.78 -20.81,-20.147 -27.157,-25.26 -6.348,-5.112 -15.627,-13.149 -20.62,-17.858 -4.993,-4.709 -10.163,-8.563 -11.486,-8.563 -1.323,0 -3.753,-1.131 -5.4,-2.513 -4.408,-3.701 -21.543,-14.85 -31.49,-20.489 -39.427,-22.35 -71.09,-34.558 -132.579,-51.122 -19.12,-5.15 -51.247,-7.9 -92.567,-7.921 -45.889,-0.025 -76.135,3.076 -104.441,10.707 -10.223,2.756 -22.083,5.848 -26.357,6.873 -19.19,4.6 -67.007,25.36 -98.788,42.89 -12.256,6.76 -43.36,27.622 -49.801,33.404 -2.622,2.353 -10.332,8.72 -17.133,14.15 -6.801,5.43 -19.133,16.86 -27.407,25.4 -8.273,8.541 -15.595,15.53 -16.27,15.53 -0.677,0 -3.89,-6.413 -7.142,-14.25 m 80.582,-78.67 c 64.24,-43.07 137.929,-69.97 214.643,-78.353 31.666,-3.46 102.537,-1.506 129.856,3.582 88.291,16.444 167.027,53.019 229.714,106.708 10.516,9.007 20.23,16.376 21.588,16.376 2.452,0 3.713,-3.81 11.478,-34.694 6.151,-24.462 7.71,-101.257 2.647,-130.418 -7.77,-44.763 -29.293,-98.39 -55.017,-137.092 C 680.73,113.072 592.733,55.15 504.066,39.004 c -23.937,-4.358 -101.781,-4.42 -124.956,-0.1 -68.082,12.692 -132.858,47.303 -183.716,98.16 -40.763,40.764 -67.43,83.818 -85.71,138.377 -19.961,59.58 -21.878,144.72 -4.524,200.906 l 5.051,16.355 19.124,-16.198 c 10.518,-8.91 31.39,-24.423 46.383,-34.475"
     style="fill:#000000;stroke-width:2.4781"
     id="path1" /><path
     d="m 323.016,379.212 c -2.375,-5.735 -1.501,-6.628 5.248,-5.362 6.299,1.182 6.59,2.221 1.864,6.66 -4.509,4.236 -4.845,4.175 -7.112,-1.298 m -34.738,-14.988 c -2.406,-4.496 -1.922,-5.73 2.596,-6.617 5.78,-1.135 7.293,1 3.954,5.581 -3.409,4.678 -4.508,4.852 -6.55,1.036 m 124.904,-3.875 c -3.281,-0.96 -6.216,-2.496 -6.522,-3.414 -0.738,-2.214 6.959,-14.321 8.499,-13.37 1.363,0.843 5.566,17.288 4.61,18.04 -0.342,0.269 -3.306,-0.296 -6.587,-1.256 m -190.04,-8.332 c 0,-0.833 1.022,-1.514 2.27,-1.514 1.25,0 2.27,0.681 2.27,1.514 0,0.832 -1.02,1.513 -2.27,1.513 -1.248,0 -2.27,-0.681 -2.27,-1.513 M 360.9,341.989 c 0.036,-11.76 1.546,-12.507 9.623,-4.769 7.818,7.49 8.736,10.256 3.408,10.256 -1.977,0 -5.723,0.426 -8.325,0.946 l -4.73,0.946 z m -68.133,1.737 c 0,-3.506 8.012,-18.953 9.83,-18.953 2.182,0 13.392,15.12 12.138,16.374 -0.943,0.943 -16.148,4.516 -20.076,4.718 -1.041,0.053 -1.892,-0.91 -1.892,-2.14 m 286.347,-0.452 c -4.658,-0.763 -5.893,-4.505 -2.368,-7.174 4.216,-3.193 6.45,-2.705 7.542,1.649 1.162,4.63 -0.407,6.305 -5.174,5.525 M 483.22,327.8 c -0.14,-3.33 -0.31,-7.246 -0.379,-8.703 -0.098,-2.063 0.933,-2.568 4.664,-2.282 2.634,0.201 6.666,1.08 8.959,1.952 l 4.17,1.585 -6.626,6.75 c -8.28,8.438 -10.46,8.58 -10.788,0.698 m -39.1,0.756 c 0,-2.285 0.863,-3.783 2.18,-3.783 3.194,0 4.41,2.828 2.305,5.363 -2.73,3.29 -4.485,2.672 -4.485,-1.58 m -168.55,-6.347 c -1.81,-1.81 -0.977,-5.004 1.302,-5.004 1.249,0 2.27,0.981 2.27,2.18 0,2.53 -2.16,4.236 -3.572,2.824 m 176.117,-19.174 c 0,-1.314 1.792,-6.307 3.982,-11.094 l 3.982,-8.704 6.582,7.524 c 3.62,4.138 6.596,8.298 6.613,9.245 0.017,0.947 -3.204,2.186 -7.158,2.757 -3.954,0.57 -8.722,1.403 -10.595,1.85 -2.437,0.58 -3.406,0.131 -3.406,-1.578 m 99.414,-3.062 c -0.442,-1.153 0.242,-3.591 1.522,-5.418 l 2.326,-3.321 2.857,4.697 c 1.572,2.584 2.857,5.022 2.857,5.418 0,1.77 -8.843,0.498 -9.562,-1.376 m -188.36,-4.664 c -12.197,-3.809 -11.864,-3.457 -7.59,-8.041 2.112,-2.265 4.628,-5.65 5.592,-7.524 0.964,-1.874 2.306,-3.405 2.985,-3.405 1.154,0 9.269,17.575 9.26,20.055 0,1.563 -2.674,1.28 -10.247,-1.085 m 24.938,-1.186 c -2.633,-1.968 -2.127,-3.5 2.306,-6.975 2.32,-1.819 2.809,-1.571 4.221,2.144 1.212,3.188 1.127,4.5 -0.353,5.44 -2.616,1.658 -3.22,1.599 -6.174,-0.609 m 155.92,-10.127 c -0.423,-1.616 -3.227,-3.965 -6.23,-5.22 -5.69,-2.377 -7.172,-5.998 -3.097,-7.562 3.34,-1.282 1.286,-3.837 -2.325,-2.892 -2.16,0.565 -3.478,-0.307 -4.78,-3.163 -1.512,-3.32 -1.362,-4.423 0.95,-6.976 1.509,-1.669 3.57,-3.034 4.579,-3.034 2.641,0 9.473,10.902 10.062,16.055 0.423,3.707 1.253,4.45 5.416,4.852 2.891,0.279 5.54,1.638 6.428,3.297 1.258,2.351 0.714,3.22 -3.257,5.202 -6.107,3.046 -6.817,2.995 -7.746,-0.559 m 82.147,-15.102 c 0,-2.665 5.31,-10.699 7.078,-10.708 1.678,-0.015 6.544,8.036 6.544,10.818 0,0.704 -3.065,1.28 -6.811,1.28 -3.746,0 -6.811,-0.625 -6.811,-1.39 m -53.532,-16.32 c -0.526,-0.526 -0.956,-3.567 -0.956,-6.758 0,-6.264 1.313,-6.954 8.226,-4.326 2.135,0.812 3.882,2.269 3.882,3.238 0,2.888 -9.457,9.54 -11.152,7.845 M 457.742,243.06 c -6.244,-2.323 -16.46,-6.588 -22.704,-9.476 -6.244,-2.888 -15.097,-6.42 -19.676,-7.847 -4.579,-1.427 -11.049,-3.888 -14.378,-5.466 -8.18,-3.878 -21.156,-8.872 -29.897,-11.507 -5.322,-1.605 -8.668,-1.78 -12.865,-0.678 -3.12,0.82 -12.824,3.333 -21.564,5.583 -8.74,2.25 -16.574,4.565 -17.406,5.143 -0.833,0.578 -5.857,2.239 -11.166,3.69 -8.037,2.198 -9.962,2.301 -11.509,0.616 -1.021,-1.114 -4.036,-10.879 -6.698,-21.7 a 32970,32970 0 0 0 -7.65,-31.029 c -1.544,-6.243 -3.04,-16.101 -3.325,-21.906 l -0.518,-10.555 6.054,-2.939 c 30.779,-14.94 83.876,-34.545 93.84,-34.65 7.957,-0.086 7.032,-0.448 59.786,23.49 30.063,13.64 40.027,16.723 74.92,23.173 39.557,7.313 40.11,7.568 40.11,18.561 0,4.47 -1.296,9.78 -3.406,13.965 -3.075,6.097 -3.994,6.802 -9.46,7.256 -3.33,0.276 -14.227,-0.594 -24.217,-1.932 -9.99,-1.338 -23.952,-3.16 -31.027,-4.047 -33.231,-4.17 -71.327,-13.919 -83.083,-21.26 -2.335,-1.459 -3.439,-1.428 -5.337,0.147 -6.372,5.288 -0.236,9.802 20.019,14.725 8.068,1.962 21.14,4.614 29.048,5.894 a 7760,7760 0 0 1 36.325,6.017 c 30.584,5.14 53.154,8.278 59.54,8.278 7.953,0 14.002,-7.174 16.754,-19.87 1.159,-5.345 3.242,-6.496 36.403,-20.125 30.77,-12.647 44.657,-17.52 49.923,-17.52 3.592,0 7.616,4.675 12.842,14.92 5.557,10.89 5.02,11.612 -17.686,23.779 -3.545,1.9 -8.994,4.25 -12.108,5.226 -3.115,0.974 -13.925,5.793 -24.022,10.708 -10.097,4.915 -18.74,8.936 -19.21,8.936 -0.469,0 -8.554,3.652 -17.968,8.116 -23.421,11.106 -27.43,12.87 -36.493,16.062 -4.326,1.523 -18.751,7.263 -32.056,12.755 -13.305,5.492 -25.224,9.92 -26.487,9.84 -1.263,-0.083 -7.405,-2.05 -13.648,-4.373 m 84.38,2.005 c -3.954,-1.21 -7.19,-3.045 -7.19,-4.076 0,-2.213 10.797,-13.085 12.994,-13.085 0.833,0 2.412,3.236 3.51,7.19 1.098,3.954 2.34,8.381 2.76,9.838 0.932,3.222 -1.88,3.253 -12.074,0.133 m 67.611,-4.69 c -0.899,-0.615 -1.58,-3.162 -1.513,-5.66 0.115,-4.31 -0.291,-4.62 -7.985,-6.095 -6.469,-1.24 -8.542,-2.386 -10.265,-5.675 -2.182,-4.165 -5.641,-5.39 -7.36,-2.608 -0.515,0.832 -1.958,1.513 -3.208,1.513 -1.7,0 -2.154,-1.429 -1.803,-5.676 0.434,-5.239 0.938,-5.792 6.547,-7.19 3.342,-0.832 8.319,-3.12 11.06,-5.083 6.096,-4.368 7.785,-3.306 3.468,2.181 -4.082,5.19 -4.02,6.153 0.467,7.279 2.473,0.62 4.236,2.645 5.415,6.218 1.995,6.045 2.346,6.161 8.849,2.917 3.39,-1.691 4.773,-3.446 4.773,-6.054 0,-4.67 1.32,-4.613 8.946,0.38 6.97,4.563 7.543,5.908 3.114,7.314 -1.692,0.537 -4.836,2.607 -6.986,4.6 -2.989,2.77 -3.684,4.525 -2.95,7.45 0.78,3.107 0.41,3.827 -1.971,3.827 -1.613,0 -3.84,0.333 -4.948,0.74 -1.109,0.408 -2.751,0.238 -3.65,-0.378 m -89.936,-2.633 c 0,-1.26 1.346,-2.27 3.027,-2.27 1.681,0 3.027,1.01 3.027,2.27 0,1.262 -1.345,2.27 -3.027,2.27 -1.681,0 -3.027,-1.008 -3.027,-2.27 m 73.786,0.11 c -3.573,-2.64 -3.402,-6.921 0.276,-6.921 3.146,0 5.797,5.522 3.658,7.618 -0.707,0.693 -2.477,0.379 -3.934,-0.698 m 15.514,-34.679 c 0,-5.472 0.609,-6.845 3.647,-8.23 3.837,-1.748 11.748,-0.468 12.455,2.015 0.38,1.337 -13.235,12.783 -15.205,12.783 -0.494,0 -0.897,-2.956 -0.897,-6.568 m 26.74,-15.63 c -1.635,-1.635 -1.168,-3.148 1.26,-4.08 1.545,-0.592 2.27,0.082 2.27,2.109 0,2.974 -1.622,3.88 -3.53,1.97"
     style="fill:#000000;stroke-width:1.51355"
     id="path2" /></svg>
