<?xml version="1.0" encoding="UTF-8" standalone="no"?>
<svg
   xml:space="preserve"
   width="872"
   height="1209"
   viewBox="0 0 872 1209"
   version="1.1"
   id="svg1"
   sodipodi:docname="impoverished.svg"
   inkscape:version="1.4.2 (f4327f4, 2025-05-13)"
   xmlns:inkscape="http://www.inkscape.org/namespaces/inkscape"
   xmlns:sodipodi="http://sodipodi.sourceforge.net/DTD/sodipodi-0.dtd"
   xmlns="http://www.w3.org/2000/svg"
   xmlns:svg="http://www.w3.org/2000/svg"><defs
     id="defs1" /><sodipodi:namedview
     id="namedview1"
     pagecolor="#ffffff"
     bordercolor="#000000"
     borderopacity="0.25"
     inkscape:showpageshadow="2"
     inkscape:pageopacity="0.0"
     inkscape:pagecheckerboard="0"
     inkscape:deskcolor="#d1d1d1"
     inkscape:zoom="0.32817773"
     inkscape:cx="-1273.7001"
     inkscape:cy="763.30591"
     inkscape:window-width="3440"
     inkscape:window-height="1369"
     inkscape:window-x="1737"
     inkscape:window-y="1432"
     inkscape:window-maximized="1"
     inkscape:current-layer="svg1" /><circle
     cx="438.49899"
     cy="780.88"
     r="417.83801"
     style="fill:none;stroke:#000000;stroke-width:18;stroke-dasharray:none;stroke-opacity:1"
     id="circle1" /><path
     style="fill:#000000;stroke-width:2.4781"
     d="m 95.136139,520.6992 c -3.25171,-7.83697 -6.12154,-15.92176 -6.37738,-17.96619 -0.25584,-2.04443 -2.71084,-10.408 -5.45555,-18.58572 -9.01363,-26.85562 -11.63246,-49.80405 -11.59464,-101.60193 0.0377,-51.58518 2.27457,-70.93636 11.74464,-101.60193 2.94633,-9.54066 5.50117,-18.46181 5.67744,-19.82476 0.68304,-5.28151 15.904101,-40.4142 22.012181,-50.80769 2.80563,-4.77404 7.88899,-14.03984 11.29638,-20.59067 3.40738,-6.55083 10.09824,-16.82656 14.86857,-22.83497 4.77033,-6.0084 12.57634,-16.06344 17.34667,-22.34452 11.1866,-14.72937 46.51773,-48.386637 61.47529,-58.562811 6.39569,-4.351231 12.18611,-8.677024 12.86759,-9.612872 3.53919,-4.860258 53.86691,-31.99676 73.10382,-39.417295 2.72591,-1.051503 7.74405,-3.132214 11.15143,-4.623802 3.40738,-1.491586 20.84089,-6.49868 38.74112,-11.126873 l 32.54587,-8.414897 59.14367,0.522472 c 45.64249,0.403201 62.67927,1.453296 74.63177,4.600074 8.51846,2.242684 22.05376,5.70817 30.07846,7.701079 8.02469,1.992912 20.77737,6.453484 28.3393,9.912383 7.56194,3.458901 15.42732,6.288909 17.47866,6.288909 2.05132,0 4.33203,0.974639 5.06825,2.165865 0.73622,1.191225 7.21411,4.954298 14.39531,8.362383 41.06009,19.486491 99.62745,69.739455 128.55731,110.306975 8.0297,11.25979 14.59943,21.09516 14.59943,21.85637 0,0.76122 3.34543,6.24644 7.43429,12.1894 4.08886,5.94295 7.43433,12.10501 7.43433,13.69347 0,1.58846 2.3637,6.20766 5.2527,10.26489 2.889,4.05723 6.6709,12.03537 8.4043,17.72921 3.0828,10.12638 6.8585,19.98477 11.6538,30.42782 1.315,2.86374 2.7798,8.43945 3.2552,12.39048 1.302,10.82126 3.6408,20.72121 8.1368,34.44273 3.251,9.92194 4.0598,23.00517 4.0597,65.66953 -10e-5,48.13605 -0.5673,55.43196 -5.8761,75.58193 -3.2318,12.26657 -6.165,24.7498 -6.5183,27.74049 -0.7955,6.73408 -15.626,45.78357 -18.5446,48.82883 -1.2324,1.28595 -8.73,-4.51658 -17.74961,-13.73688 -8.58871,-8.7798 -20.80946,-20.14643 -27.1572,-25.25918 -6.34774,-5.11276 -15.62707,-13.14925 -20.62073,-17.85887 -4.99366,-4.70962 -10.1622,-8.56296 -11.48563,-8.56296 -1.32343,0 -3.7531,-1.13086 -5.39928,-2.51299 -4.40811,-3.70114 -21.54359,-14.84977 -31.49112,-20.48865 -39.42675,-22.34952 -71.08869,-34.55826 -132.57812,-51.1217 -19.11997,-5.15035 -51.24668,-7.8996 -92.56734,-7.92151 -45.88843,-0.0248 -76.13461,3.07651 -104.44128,10.70718 -10.22214,2.75562 -22.08256,5.84843 -26.35646,6.87293 -19.19096,4.60026 -67.00734,25.36009 -98.7878,42.88944 -12.25651,6.7604 -43.36016,27.62304 -49.80162,33.40422 -2.62207,2.35327 -10.33155,8.72108 -17.13222,14.15067 -6.80064,5.42958 -19.1338,16.85979 -27.40699,25.40048 -8.27323,8.54068 -15.59523,15.52851 -16.27116,15.52851 -0.67592,0 -3.889441,-6.41207 -7.141151,-14.24905 z m 80.582131,-78.66987 c 64.24039,-43.06993 137.9287,-69.96896 214.64239,-78.35264 31.66588,-3.46061 102.53761,-1.50524 129.85678,3.58279 88.29082,16.44365 167.02619,53.01829 229.71369,106.70794 10.51567,9.00632 20.23022,16.37511 21.58782,16.37511 2.4524,0 3.7126,-3.80871 11.4784,-34.69334 6.1508,-24.46171 7.7094,-101.25678 2.6469,-130.41805 C 777.87305,280.46768 756.3515,226.84059 730.62661,188.13917 680.72951,113.07228 592.73317,55.148062 504.06596,39.003992 480.12894,34.645661 402.28452,34.583085 379.11038,38.903543 311.02777,51.596492 246.25231,86.206631 195.39405,137.06489 154.63054,177.82839 127.96318,220.88214 109.68427,275.441 89.722959,335.02153 87.805559,420.16087 105.15972,476.34706 l 5.05164,16.35536 19.12392,-16.19864 c 10.51817,-8.90925 31.39051,-24.42275 46.38299,-34.47445 z"
     id="path1" /><path
     style="fill:#000000;stroke-width:1.51355"
     d="m 323.01649,379.21185 c -2.37552,-5.73513 -1.5019,-6.62798 5.24702,-5.36189 6.2991,1.18163 6.59015,2.22114 1.86485,6.66022 -4.50903,4.23598 -4.84487,4.17468 -7.11187,-1.29833 z m -34.73826,-14.98746 c -2.40656,-4.49663 -1.92237,-5.73093 2.59543,-6.61756 5.78101,-1.1344 7.29304,0.99985 3.95431,5.58151 -3.40869,4.67764 -4.50782,4.85155 -6.54974,1.03605 z m 124.90353,-3.87516 c -3.28077,-0.95975 -6.21555,-2.49615 -6.52159,-3.41427 -0.73801,-2.21387 6.9584,-14.32122 8.49858,-13.36935 1.36281,0.84228 5.56579,17.28702 4.61058,18.03896 -0.34221,0.26942 -3.30665,-0.29546 -6.58757,-1.25534 z m -190.03952,-8.3327 c 0,-0.83246 1.02165,-1.51354 2.27033,-1.51354 1.24869,0 2.27032,0.68108 2.27032,1.51354 0,0.83244 -1.02163,1.51355 -2.27032,1.51355 -1.24868,0 -2.27033,-0.68111 -2.27033,-1.51355 z m 137.75632,-10.02728 c 0.0363,-11.75954 1.54685,-12.50769 9.62345,-4.7689 7.81765,7.49057 8.73637,10.25552 3.40776,10.25552 -1.977,0 -5.72303,0.42577 -8.32453,0.94597 l -4.72984,0.94597 z m -68.13297,1.73635 c 0,-3.50585 8.01199,-18.95299 9.83037,-18.95299 2.18254,0 13.3916,15.12127 12.13822,16.37466 -0.94294,0.94293 -16.14837,4.51612 -20.07665,4.71788 -1.04056,0.053 -1.89194,-0.90935 -1.89194,-2.13955 z m 286.34709,-0.4521 c -4.65736,-0.76299 -5.89242,-4.50479 -2.36765,-7.17378 4.2163,-3.19284 6.44955,-2.70472 7.54217,1.64886 1.16212,4.6298 -0.40759,6.30575 -5.17452,5.52492 z m -95.89194,-15.47379 c -0.13926,-3.32982 -0.30893,-7.24613 -0.37841,-8.70292 -0.0984,-2.06297 0.93297,-2.56758 4.66341,-2.28214 2.63419,0.20161 6.66583,1.07993 8.95917,1.95189 l 4.16968,1.58529 -6.62557,6.75103 c -8.28078,8.43761 -10.45984,8.57837 -10.78828,0.69685 z m -39.10003,0.75677 c 0,-2.28547 0.86363,-3.78387 2.18103,-3.78387 3.19343,0 4.40883,2.82836 2.30453,5.36371 -2.73029,3.28986 -4.48556,2.67158 -4.48556,-1.57984 z M 275.5709,322.2088 c -1.809,-1.80885 -0.97731,-5.00395 1.30242,-5.00395 1.24866,0 2.27031,0.98139 2.27031,2.18103 0,2.52853 -2.16028,4.23551 -3.57273,2.82292 z m 176.11757,-19.17382 c 0,-1.31421 1.79174,-6.30651 3.98154,-11.09402 l 3.98155,-8.70445 6.58213,7.52448 c 3.62028,4.13851 6.59621,8.29851 6.61331,9.24462 0.0167,0.94596 -3.20403,2.18678 -7.15818,2.75723 -3.95416,0.57046 -8.72185,1.40277 -10.59485,1.84955 -2.43653,0.58106 -3.4055,0.13169 -3.4055,-1.57741 z m 99.41367,-3.06221 c -0.44241,-1.15319 0.24232,-3.5912 1.52187,-5.41791 l 2.32634,-3.32134 2.85697,4.69761 c 1.57121,2.58378 2.85683,5.02196 2.85683,5.41807 0,1.77054 -8.84277,0.49764 -9.56201,-1.37643 z M 362.74191,295.3092 c -12.1965,-3.809 -11.86428,-3.45679 -7.58925,-8.04164 2.1117,-2.26473 4.62753,-5.65008 5.59106,-7.5231 0.96352,-1.87302 2.30665,-3.40549 2.98501,-3.40549 1.1544,0 9.269,17.57474 9.25947,20.05455 0,1.5632 -2.67279,1.28108 -10.24629,-1.08432 z m 24.93817,-1.18601 c -2.63342,-1.96822 -2.12669,-3.50099 2.30604,-6.9755 2.32028,-1.81868 2.8084,-1.57076 4.221,2.1447 1.2119,3.1877 1.12671,4.49979 -0.35326,5.43879 -2.61542,1.65931 -3.21977,1.59983 -6.17378,-0.60799 z m 155.91984,-10.12716 c -0.42258,-1.61589 -3.22644,-3.96491 -6.23084,-5.22024 -5.68838,-2.37673 -7.17105,-5.99791 -3.09611,-7.56155 3.34025,-1.28183 1.28651,-3.83686 -2.32498,-2.89241 -2.16089,0.56517 -3.47767,-0.30648 -4.77918,-3.16301 -1.51263,-3.31982 -1.36281,-4.42243 0.9484,-6.97626 1.50975,-1.66839 3.5706,-3.03331 4.57969,-3.03331 2.64145,0 9.47347,10.90135 10.06164,16.05485 0.42319,3.70668 1.25382,4.45075 5.41683,4.8523 2.89074,0.27863 5.53961,1.63734 6.42777,3.29696 1.2582,2.351 0.71362,3.22053 -3.25762,5.20162 -6.10658,3.04647 -6.81614,2.99516 -7.7456,-0.55895 z m 82.14693,-15.10222 c 0,-2.66521 5.31029,-10.69839 7.07857,-10.70792 1.67732,-0.015 6.54338,8.0359 6.54338,10.8178 0,0.70457 -3.06494,1.28107 -6.81097,1.28107 -3.74604,0 -6.81098,-0.62585 -6.81098,-1.39095 z m -53.53203,-16.32048 c -0.52567,-0.52564 -0.95581,-3.56652 -0.95581,-6.7577 0,-6.26337 1.31331,-6.954 8.226,-4.32588 2.1353,0.81187 3.88241,2.26928 3.88241,3.2387 0,2.88785 -9.45727,9.54036 -11.1526,7.84488 z m -114.47215,-9.51221 c -6.24339,-2.3236 -16.45986,-6.58788 -22.70326,-9.47619 -6.24341,-2.8883 -15.09768,-6.41957 -19.67617,-7.8473 -4.5785,-1.42773 -11.04893,-3.88726 -14.37874,-5.46574 -8.17953,-3.87757 -21.15567,-8.87214 -29.89612,-11.50707 -5.32225,-1.60452 -8.66826,-1.7807 -12.86519,-0.67732 -3.11987,0.8202 -12.82386,3.33253 -21.56461,5.58273 -8.74076,2.25035 -16.57338,4.56456 -17.40584,5.14273 -0.83245,0.57819 -5.85685,2.23886 -11.1653,3.69051 -8.03757,2.19782 -9.96251,2.3006 -11.50922,0.6151 -1.02149,-1.11336 -4.03573,-10.87849 -6.69836,-21.70038 -2.66264,-10.8219 -6.10477,-24.7844 -7.64919,-31.0278 -1.54443,-6.2434 -3.04102,-16.10147 -3.32588,-21.9067 l -0.51793,-10.55504 6.0542,-2.93856 c 30.77883,-14.93922 83.87572,-34.54545 93.84018,-34.65094 7.95642,-0.0847 7.03195,-0.447558 59.78527,23.49001 30.06366,13.64179 40.02705,16.72369 74.92078,23.17399 39.55682,7.31241 40.1091,7.56805 40.1091,18.56083 0,4.46921 -1.29514,9.7804 -3.40548,13.96537 -3.07464,6.09705 -3.99381,6.80206 -9.4597,7.25521 -3.32982,0.27608 -14.22737,-0.59315 -24.21682,-1.93144 -9.98943,-1.33827 -23.95194,-3.15969 -31.0278,-4.04753 -33.23108,-4.17013 -71.32701,-13.91817 -83.08216,-21.25949 -2.33586,-1.45876 -3.43908,-1.4282 -5.33768,0.14681 -6.3722,5.2885 -0.23611,9.80206 20.01913,14.7255 8.06829,1.9611 21.14007,4.61329 29.04838,5.89391 7.90831,1.28061 24.25466,3.98806 36.32522,6.01667 30.58313,5.13971 53.15366,8.27761 59.53994,8.27761 7.9528,0 14.00156,-7.17333 16.75363,-19.86884 1.15878,-5.3454 3.24173,-6.49707 36.40319,-20.12614 30.77049,-12.64647 44.65717,-17.51996 49.92252,-17.51996 3.5918,0 7.61648,4.67566 12.84264,14.91983 5.55639,10.89136 5.02027,11.6121 -17.68646,23.77955 -3.54474,1.89934 -8.99352,4.2508 -12.10841,5.22553 -3.11503,0.97473 -13.92438,5.79342 -24.02112,10.70822 -10.09659,4.91481 -18.74124,8.93602 -19.21029,8.93602 -0.46905,0 -8.5546,3.65204 -17.96767,8.1158 -23.4216,11.10644 -27.43023,12.8708 -36.49323,16.06196 -4.32604,1.52324 -18.75123,7.26338 -32.0558,12.75592 -13.30473,5.49251 -25.22395,9.91995 -26.48716,9.83867 -1.26336,-0.0817 -7.40519,-2.04889 -13.64859,-4.37265 z m 84.38048,2.00455 c -3.95416,-1.21038 -7.18937,-3.04465 -7.18937,-4.07598 0,-2.21298 10.79587,-13.08436 12.99354,-13.08436 0.83275,0 2.41213,3.23522 3.50977,7.18936 1.09748,3.95416 2.33995,8.38129 2.76071,9.83809 0.93098,3.22251 -1.87997,3.25354 -12.07465,0.13319 z m 67.61093,-4.68943 c -0.89889,-0.61556 -1.57999,-3.16258 -1.51354,-5.65993 0.11502,-4.31029 -0.29077,-4.61951 -7.98474,-6.09492 -6.46878,-1.24035 -8.54143,-2.38642 -10.26492,-5.67581 -2.18192,-4.16424 -5.64085,-5.38991 -7.36024,-2.60801 -0.51446,0.83247 -1.95792,1.51356 -3.20782,1.51356 -1.70032,0 -2.15409,-1.42879 -1.80263,-5.67583 0.43362,-5.23885 0.93763,-5.79236 6.5464,-7.18937 3.34223,-0.83245 8.31939,-3.12032 11.06043,-5.08416 6.09628,-4.36765 7.78464,-3.30574 3.46846,2.18147 -4.08266,5.19013 -4.02091,6.15229 0.46662,7.27853 2.47269,0.6207 4.23552,2.64509 5.41488,6.21842 1.99501,6.04528 2.34601,6.16092 8.84898,2.91692 3.38975,-1.69109 4.77314,-3.44576 4.77314,-6.05421 0,-4.66916 1.31951,-4.61315 8.94553,0.3796 6.9705,4.56382 7.54309,5.90875 3.11414,7.31439 -1.69185,0.53702 -4.83535,2.60694 -6.9858,4.59983 -2.98851,2.76965 -3.68368,4.52553 -2.9496,7.4503 0.77978,3.10687 0.40896,3.82672 -1.97171,3.82672 -1.6127,0 -3.83913,0.33343 -4.94779,0.74088 -1.10869,0.40746 -2.75105,0.23718 -3.64979,-0.37838 z m -89.93581,-2.63284 c 0,-1.26123 1.3454,-2.27031 3.0271,-2.27031 1.68172,0 3.0271,1.00908 3.0271,2.27031 0,1.26125 -1.34538,2.27034 -3.0271,2.27034 -1.6817,0 -3.0271,-1.00909 -3.0271,-2.27034 z m 73.78562,0.10899 c -3.57245,-2.63933 -3.4014,-6.92057 0.27637,-6.92057 3.14561,0 5.7972,5.52249 3.6578,7.61816 -0.70698,0.69277 -2.47737,0.3787 -3.93417,-0.69759 z m 15.5139,-34.67833 c 0,-5.4718 0.60889,-6.84549 3.64765,-8.2301 3.83701,-1.74814 11.74759,-0.46812 12.45487,2.01545 0.38051,1.33618 -13.2357,12.78269 -15.20559,12.78269 -0.49328,0 -0.89693,-2.95565 -0.89693,-6.56804 z m 26.73944,-15.63075 c -1.63462,-1.63448 -1.16694,-3.14712 1.26126,-4.07887 1.54426,-0.59256 2.27031,0.0818 2.27031,2.10839 0,2.97411 -1.62267,3.87951 -3.53157,1.97048 z"
     id="path6" /></svg>
