<svg xmlns="http://www.w3.org/2000/svg" xml:space="preserve" width="872" height="1209" viewBox="0 0 872 1209"><circle cx="438.499" cy="780.88" r="417.838" style="fill:none;stroke:#000;stroke-width:18;stroke-dasharray:none;stroke-opacity:1"/><path d="M95.136 520.7c-3.252-7.838-6.121-15.923-6.377-17.967s-2.711-10.408-5.456-18.586c-9.013-26.855-11.632-49.804-11.594-101.602.037-51.585 2.274-70.936 11.744-101.602 2.947-9.54 5.501-18.461 5.678-19.824.683-5.282 15.904-40.415 22.012-50.808 2.805-4.774 7.889-14.04 11.296-20.59 3.408-6.552 10.098-16.827 14.869-22.836a1595 1595 0 0 0 17.346-22.344c11.187-14.73 46.518-48.387 61.476-58.563 6.395-4.351 12.186-8.677 12.867-9.613 3.54-4.86 53.867-31.997 73.104-39.417 2.726-1.052 7.744-3.132 11.152-4.624s20.84-6.499 38.74-11.127l32.547-8.415 59.143.523c45.643.403 62.68 1.453 74.632 4.6a2689 2689 0 0 0 30.078 7.7c8.025 1.994 20.778 6.454 28.34 9.913s15.427 6.29 17.478 6.29 4.332.974 5.069 2.165c.736 1.191 7.214 4.954 14.395 8.362 41.06 19.487 99.627 69.74 128.557 110.307 8.03 11.26 14.6 21.096 14.6 21.857s3.345 6.246 7.434 12.19c4.089 5.942 7.434 12.104 7.434 13.693 0 1.588 2.364 6.207 5.253 10.265 2.89 4.057 6.671 12.035 8.404 17.729 3.083 10.126 6.859 19.985 11.654 30.428 1.315 2.863 2.78 8.439 3.255 12.39 1.302 10.821 3.641 20.721 8.137 34.443 3.251 9.922 4.06 23.005 4.06 65.67 0 48.135-.567 55.431-5.876 75.581-3.232 12.267-6.165 24.75-6.519 27.74-.795 6.735-15.626 45.784-18.544 48.83-1.233 1.286-8.73-4.517-17.75-13.737-8.588-8.78-20.81-20.147-27.157-25.26-6.348-5.112-15.627-13.149-20.62-17.858s-10.163-8.563-11.486-8.563-3.753-1.131-5.4-2.513c-4.408-3.701-21.543-14.85-31.49-20.489-39.427-22.35-71.09-34.558-132.579-51.122-19.12-5.15-51.247-7.9-92.567-7.921-45.889-.025-76.135 3.076-104.441 10.707-10.223 2.756-22.083 5.848-26.357 6.873-19.19 4.6-67.007 25.36-98.788 42.89-12.256 6.76-43.36 27.622-49.801 33.404-2.622 2.353-10.332 8.72-17.133 14.15s-19.133 16.86-27.407 25.4c-8.273 8.541-15.595 15.53-16.27 15.53-.677 0-3.89-6.413-7.142-14.25m80.582-78.67c64.24-43.07 137.929-69.97 214.643-78.353 31.666-3.46 102.537-1.506 129.856 3.582 88.291 16.444 167.027 53.019 229.714 106.708 10.516 9.007 20.23 16.376 21.588 16.376 2.452 0 3.713-3.81 11.478-34.694 6.151-24.462 7.71-101.257 2.647-130.418-7.77-44.763-29.293-98.39-55.017-137.092C680.73 113.072 592.733 55.15 504.066 39.004c-23.937-4.358-101.781-4.42-124.956-.1-68.082 12.692-132.858 47.303-183.716 98.16-40.763 40.764-67.43 83.818-85.71 138.377-19.961 59.58-21.878 144.72-4.524 200.906l5.051 16.355 19.124-16.198c10.518-8.91 31.39-24.423 46.383-34.475" style="fill:#000;stroke-width:2.4781"/><path d="M323.016 379.212c-2.375-5.735-1.501-6.628 5.248-5.362 6.299 1.182 6.59 2.221 1.864 6.66-4.509 4.236-4.845 4.175-7.112-1.298m-34.738-14.988c-2.406-4.496-1.922-5.73 2.596-6.617 5.78-1.135 7.293 1 3.954 5.581-3.409 4.678-4.508 4.852-6.55 1.036m124.904-3.875c-3.281-.96-6.216-2.496-6.522-3.414-.738-2.214 6.959-14.321 8.499-13.37 1.363.843 5.566 17.288 4.61 18.04-.342.269-3.306-.296-6.587-1.256m-190.04-8.332c0-.833 1.022-1.514 2.27-1.514 1.25 0 2.27.681 2.27 1.514 0 .832-1.02 1.513-2.27 1.513-1.248 0-2.27-.681-2.27-1.513M360.9 341.989c.036-11.76 1.546-12.507 9.623-4.769 7.818 7.49 8.736 10.256 3.408 10.256-1.977 0-5.723.426-8.325.946l-4.73.946zm-68.133 1.737c0-3.506 8.012-18.953 9.83-18.953 2.182 0 13.392 15.12 12.138 16.374-.943.943-16.148 4.516-20.076 4.718-1.041.053-1.892-.91-1.892-2.14m286.347-.452c-4.658-.763-5.893-4.505-2.368-7.174 4.216-3.193 6.45-2.705 7.542 1.649 1.162 4.63-.407 6.305-5.174 5.525M483.22 327.8c-.14-3.33-.31-7.246-.379-8.703-.098-2.063.933-2.568 4.664-2.282 2.634.201 6.666 1.08 8.959 1.952l4.17 1.585-6.626 6.75c-8.28 8.438-10.46 8.58-10.788.698m-39.1.756c0-2.285.863-3.783 2.18-3.783 3.194 0 4.41 2.828 2.305 5.363-2.73 3.29-4.485 2.672-4.485-1.58m-168.55-6.347c-1.81-1.81-.977-5.004 1.302-5.004 1.249 0 2.27.981 2.27 2.18 0 2.53-2.16 4.236-3.572 2.824m176.117-19.174c0-1.314 1.792-6.307 3.982-11.094l3.982-8.704 6.582 7.524c3.62 4.138 6.596 8.298 6.613 9.245s-3.204 2.186-7.158 2.757c-3.954.57-8.722 1.403-10.595 1.85-2.437.58-3.406.131-3.406-1.578m99.414-3.062c-.442-1.153.242-3.591 1.522-5.418l2.326-3.321 2.857 4.697c1.572 2.584 2.857 5.022 2.857 5.418 0 1.77-8.843.498-9.562-1.376m-188.36-4.664c-12.197-3.809-11.864-3.457-7.59-8.041 2.112-2.265 4.628-5.65 5.592-7.524s2.306-3.405 2.985-3.405c1.154 0 9.269 17.575 9.26 20.055 0 1.563-2.674 1.28-10.247-1.085m24.938-1.186c-2.633-1.968-2.127-3.5 2.306-6.975 2.32-1.819 2.809-1.571 4.221 2.144 1.212 3.188 1.127 4.5-.353 5.44-2.616 1.658-3.22 1.599-6.174-.609m155.92-10.127c-.423-1.616-3.227-3.965-6.23-5.22-5.69-2.377-7.172-5.998-3.097-7.562 3.34-1.282 1.286-3.837-2.325-2.892-2.16.565-3.478-.307-4.78-3.163-1.512-3.32-1.362-4.423.95-6.976 1.509-1.669 3.57-3.034 4.579-3.034 2.641 0 9.473 10.902 10.062 16.055.423 3.707 1.253 4.45 5.416 4.852 2.891.279 5.54 1.638 6.428 3.297 1.258 2.351.714 3.22-3.257 5.202-6.107 3.046-6.817 2.995-7.746-.559m82.147-15.102c0-2.665 5.31-10.699 7.078-10.708 1.678-.015 6.544 8.036 6.544 10.818 0 .704-3.065 1.28-6.811 1.28s-6.811-.625-6.811-1.39m-53.532-16.32c-.526-.526-.956-3.567-.956-6.758 0-6.264 1.313-6.954 8.226-4.326 2.135.812 3.882 2.269 3.882 3.238 0 2.888-9.457 9.54-11.152 7.845m-114.472-9.513c-6.244-2.323-16.46-6.588-22.704-9.476s-15.097-6.42-19.676-7.847-11.049-3.888-14.378-5.466c-8.18-3.878-21.156-8.872-29.897-11.507-5.322-1.605-8.668-1.78-12.865-.678-3.12.82-12.824 3.333-21.564 5.583s-16.574 4.565-17.406 5.143c-.833.578-5.857 2.239-11.166 3.69-8.037 2.198-9.962 2.301-11.509.616-1.021-1.114-4.036-10.879-6.698-21.7a32970 32970 0 0 0-7.65-31.029c-1.544-6.243-3.04-16.101-3.325-21.906l-.518-10.555 6.054-2.939c30.779-14.94 83.876-34.545 93.84-34.65 7.957-.086 7.032-.448 59.786 23.49 30.063 13.64 40.027 16.723 74.92 23.173 39.557 7.313 40.11 7.568 40.11 18.561 0 4.47-1.296 9.78-3.406 13.965-3.075 6.097-3.994 6.802-9.46 7.256-3.33.276-14.227-.594-24.217-1.932s-23.952-3.16-31.027-4.047c-33.231-4.17-71.327-13.919-83.083-21.26-2.335-1.459-3.439-1.428-5.337.147-6.372 5.288-.236 9.802 20.019 14.725 8.068 1.962 21.14 4.614 29.048 5.894a7760 7760 0 0 1 36.325 6.017c30.584 5.14 53.154 8.278 59.54 8.278 7.953 0 14.002-7.174 16.754-19.87 1.159-5.345 3.242-6.496 36.403-20.125 30.77-12.647 44.657-17.52 49.923-17.52 3.592 0 7.616 4.675 12.842 14.92 5.557 10.89 5.02 11.612-17.686 23.779-3.545 1.9-8.994 4.25-12.108 5.226-3.115.974-13.925 5.793-24.022 10.708s-18.74 8.936-19.21 8.936c-.469 0-8.554 3.652-17.968 8.116-23.421 11.106-27.43 12.87-36.493 16.062-4.326 1.523-18.751 7.263-32.056 12.755s-25.224 9.92-26.487 9.84c-1.263-.083-7.405-2.05-13.648-4.373m84.38 2.005c-3.954-1.21-7.19-3.045-7.19-4.076 0-2.213 10.797-13.085 12.994-13.085.833 0 2.412 3.236 3.51 7.19s2.34 8.381 2.76 9.838c.932 3.222-1.88 3.253-12.074.133m67.611-4.69c-.899-.615-1.58-3.162-1.513-5.66.115-4.31-.291-4.62-7.985-6.095-6.469-1.24-8.542-2.386-10.265-5.675-2.182-4.165-5.641-5.39-7.36-2.608-.515.832-1.958 1.513-3.208 1.513-1.7 0-2.154-1.429-1.803-5.676.434-5.239.938-5.792 6.547-7.19 3.342-.832 8.319-3.12 11.06-5.083 6.096-4.368 7.785-3.306 3.468 2.181-4.082 5.19-4.02 6.153.467 7.279 2.473.62 4.236 2.645 5.415 6.218 1.995 6.045 2.346 6.161 8.849 2.917 3.39-1.691 4.773-3.446 4.773-6.054 0-4.67 1.32-4.613 8.946.38 6.97 4.563 7.543 5.908 3.114 7.314-1.692.537-4.836 2.607-6.986 4.6-2.989 2.77-3.684 4.525-2.95 7.45.78 3.107.41 3.827-1.971 3.827-1.613 0-3.84.333-4.948.74-1.109.408-2.751.238-3.65-.378m-89.936-2.633c0-1.26 1.346-2.27 3.027-2.27s3.027 1.01 3.027 2.27c0 1.262-1.345 2.27-3.027 2.27-1.681 0-3.027-1.008-3.027-2.27m73.786.11c-3.573-2.64-3.402-6.921.276-6.921 3.146 0 5.797 5.522 3.658 7.618-.707.693-2.477.379-3.934-.698m15.514-34.679c0-5.472.609-6.845 3.647-8.23 3.837-1.748 11.748-.468 12.455 2.015.38 1.337-13.235 12.783-15.205 12.783-.494 0-.897-2.956-.897-6.568m26.74-15.63c-1.635-1.635-1.168-3.148 1.26-4.08 1.545-.592 2.27.082 2.27 2.109 0 2.974-1.622 3.88-3.53 1.97" style="fill:#000;stroke-width:1.51355"/></svg>