<?xml version="1.0" encoding="UTF-8" standalone="no"?>
<svg
   xml:space="preserve"
   width="872"
   height="889"
   viewBox="0 0 872 889"
   version="1.1"
   id="svg1"
   sodipodi:docname="industrial.svg"
   inkscape:version="1.4.2 (f4327f4, 2025-05-13)"
   xmlns:inkscape="http://www.inkscape.org/namespaces/inkscape"
   xmlns:sodipodi="http://sodipodi.sourceforge.net/DTD/sodipodi-0.dtd"
   xmlns="http://www.w3.org/2000/svg"
   xmlns:svg="http://www.w3.org/2000/svg"><defs
     id="defs1" /><sodipodi:namedview
     id="namedview1"
     pagecolor="#ffffff"
     bordercolor="#000000"
     borderopacity="0.25"
     inkscape:showpageshadow="2"
     inkscape:pageopacity="0.0"
     inkscape:pagecheckerboard="0"
     inkscape:deskcolor="#d1d1d1"
     inkscape:zoom="1.3127109"
     inkscape:cx="436.12039"
     inkscape:cy="444.5"
     inkscape:window-width="3440"
     inkscape:window-height="1369"
     inkscape:window-x="1737"
     inkscape:window-y="1432"
     inkscape:window-maximized="1"
     inkscape:current-layer="svg1" /><path
     d="M374.36 753.553v-48.56l-19.374-6.376c-10.656-3.506-26.51-9.941-35.232-14.3l-15.858-7.925-34.293 34.226-34.292 34.225-47.273-47.272-47.272-47.273 33.56-33.312c18.459-18.322 33.561-34.573 33.561-36.113s-3.718-10.19-8.262-19.223-10.592-23.848-13.44-32.925l-5.178-16.504H84.468v-134.9h97.12l6.037-17.939c3.32-9.866 9.768-25.042 14.327-33.725l8.289-15.786-34.587-34.888-34.587-34.887 46.455-46.196c25.55-25.408 47.346-46.196 48.436-46.196 1.089 0 17.127 15.107 35.64 33.571l33.658 33.572 20.918-10.24c11.505-5.633 27.054-11.867 34.552-13.854l13.634-3.612V90.3h60.274v154.991l-7.893.05c-17.701.112-49.16 9.218-74.595 21.59-46.568 22.654-85.514 66.444-101.222 113.808-32.226 97.175 12.586 203.295 103.95 246.167 19.888 9.332 48.53 17.345 62 17.345 18.666 0 17.76-4.117 17.76 80.673v77.189H374.36zm74.625-28.781V647.23l6.458-1.256c3.552-.69 15.982-2.798 27.623-4.684 36.887-5.975 87.207-36.012 112.844-67.36 47.215-57.732 58.563-142.595 28.091-210.063-20.455-45.29-57.88-82.107-104.156-102.467-15.954-7.02-52.63-16.109-64.999-16.109-5.757 0-5.86-1.38-5.86-77.495V90.3l29.419-.002 29.42-.003v96.134l18.656 6.025c10.26 3.314 25.54 9.528 33.952 13.808 17.913 9.115 12.432 12.143 54.8-30.27l30.776-30.809 47.016 47.08c25.858 25.895 46.08 48.096 44.936 49.337-1.144 1.24-16.5 16.708-34.124 34.37l-32.045 32.116 10.378 22.419c5.708 12.33 11.956 27.879 13.885 34.551l3.508 12.133 49.076.783 49.077.784.77 66.664.77 66.665-49.146.785-49.147.786-8.071 22.145c-4.439 12.18-11.023 27.398-14.631 33.817l-6.56 11.673 34.266 34.356 34.267 34.356-47.283 47.348L645.67 744.7l-34.49-34.407-34.49-34.406-10.035 6.204c-5.52 3.413-19.78 9.616-31.69 13.785s-23.265 8.577-25.236 9.795c-2.651 1.639-3.478 14.268-3.183 48.61l.4 46.397-28.98.818-28.98.818zm-47.358-104.897c-94.144-20.929-155.117-116.752-134.928-212.046 10.769-50.829 49.028-99.238 96.18-121.698 24.079-11.469 46.765-17.878 63.286-17.878 7.71 0 8.469.87 8.469 9.711 0 7.45-1.403 10.078-6.026 11.287-5.352 1.4-5.798 2.919-3.995 13.593 1.601 9.474 1.206 11.745-1.867 10.73-2.144-.71-4.544-5.707-5.333-11.106-1.314-8.988-2.779-10.109-11.515-8.813-1.759.26-2.18 4.957-1.068 11.91 2.208 13.81-2.627 15.601-6.419 2.378-2.83-9.87-6.16-12.229-12.02-8.516-3.065 1.942-2.983 4.168.451 12.151 15.11 35.125 19.09 45.467 19.09 49.598 0 10.209-4.881 3.257-17.02-24.239-6.993-15.84-13.83-29.49-15.195-30.333-1.364-.843-5.699.576-9.633 3.154l-7.152 4.686 5.844 7.429c6.79 8.632 7.397 12.395 1.999 12.395-2.115 0-5.316-3.229-7.114-7.176-3.995-8.767-8.878-9.079-17.43-1.111l-6.509 6.064 8.12 8.673c4.467 4.77 14.889 15.229 23.161 23.24 10.061 9.745 14.087 15.521 12.16 17.448s-10.47-4.665-25.804-19.91l-22.925-22.79-7.892 7.902-7.892 7.902 9.356 7.33c11.922 9.34 9.181 14.78-3.499 6.943l-9.474-5.856-4.872 7.436c-4.614 7.041-4.594 7.646.373 11.41 2.885 2.187 6.265 4.017 7.51 4.068 5.093.205 47.965 21.167 47.965 23.452 0 4.16-6.468 2.748-22.962-5.014-24.556-11.555-40.952-15.988-43.615-11.791-3.556 5.602-1.113 8.803 8.65 11.333 13.08 3.39 11.528 8.394-1.935 6.24-9.532-1.524-11.28-.954-12.603 4.106-2.008 7.679-.278 9.078 11.233 9.078 5.262 0 9.568 1.291 9.568 2.87 0 1.578-5.167 2.87-11.481 2.87-10.333 0-11.481.718-11.481 7.176v7.175h33.007c20.092 0 33.008 1.123 33.008 2.87 0 1.579-5.182 2.87-11.515 2.87h-11.515l1.886 12.199c1.037 6.709 3.013 15.249 4.39 18.978 2.556 6.918 2.538 6.917 20.342 1.309 8.372-2.638 5.619 4.371-3.588 9.133-4.736 2.449-8.61 5.13-8.61 5.956 0 3.491 8.587 17.719 12.81 21.223 3.88 3.22 5.58 2.859 11.138-2.361 6.633-6.232 13.364-8.142 13.364-3.792 0 1.303-3.315 5.484-7.367 9.29l-7.366 6.92 6.39 5.176c3.516 2.846 7.404 4.155 8.642 2.908s12.538-17.766 25.112-36.71c20.074-30.243 22.368-34.995 18.817-38.974-2.225-2.492-4.045-8.985-4.045-14.43 0-11.905 11.094-92.111 13.005-94.022.74-.74 1.346 60.22 1.346 135.467v136.813l-7.893-.228c-4.341-.125-15.643-1.95-25.114-4.056m-35.878-61.35c0-1.194-3.712-4.915-8.248-8.27l-8.248-6.097-7.731 8.07-7.731 8.069 9.52 7.555 9.522 7.555 6.458-7.356c3.552-4.046 6.458-8.333 6.458-9.527m-29.074-12.9 6.369-6.78-11.843-17.161-11.842-17.162-9.622 4.361c-9.606 4.354-9.614 4.376-5.114 13.178 5.567 10.887 20.67 30.343 23.554 30.343 1.17 0 4.995-3.05 8.498-6.78m-21.766-47.833c1.243-1.021.782-5.62-1.025-10.218s-4.114-14.818-5.13-22.711c-1.816-14.13-2.01-14.365-12.608-15.242-10.473-.867-10.763-.632-10.763 8.725 0 9.083 7.012 40.356 10.209 45.528 1.366 2.211 14.112-1.802 19.317-6.082m134.303-6.11c.124-73.16.709-131.726 1.3-130.147.59 1.579 3.787 21.925 7.105 45.214 5.733 40.235 5.789 42.76 1.113 50.674l-4.92 8.33 23.823 35.433c13.104 19.487 24.162 35.844 24.576 36.348 1.401 1.71 12.79-6.585 12.79-9.315 0-1.491-2.803-5.696-6.23-9.344-8.393-8.934-4.221-12.255 4.777-3.801 7.047 6.62 7.209 6.635 13.199 1.214 3.335-3.019 7.87-8.982 10.079-13.252 3.89-7.522 3.697-7.914-6.202-12.612-6.46-3.065-9.213-5.851-7.487-7.577s4.884-1.577 8.59.406c10.501 5.62 14.032 3.667 17.377-9.616 5.59-22.199 4.794-24.56-8.27-24.56-6.315 0-11.481-1.292-11.481-2.87 0-1.756 13.46-2.87 34.642-2.87 34.284 0 34.633-.068 33.725-6.459-.754-5.308-3.216-6.744-13.833-8.063-12.817-1.593-11.492-4.43 2.87-6.147 4.976-.595 7.176-2.618 7.176-6.599 0-4.96-1.657-5.636-12.199-4.97-14.157.892-16.653-4.328-3.34-6.99 9.265-1.854 13.875-8.073 9.342-12.606-2.957-2.957-14.353.222-36.856 10.282-20.068 8.97-27.267 10.913-27.267 7.358 0-2.721 27.414-16.882 41.618-21.499 3.157-1.026 8.041-3.618 10.854-5.76 4.341-3.305 4.597-5.028 1.692-11.404-4.07-8.933-4.719-9.015-13.981-1.77-8.477 6.63-11.481 7.133-11.481 1.92 0-2.1 3.229-5.548 7.175-7.66 3.947-2.112 7.176-5.272 7.176-7.022 0-4.966-8.555-15.948-12.361-15.868-1.884.04-13.037 9.727-24.785 21.527-20.05 20.14-25.999 24.54-25.999 19.23 0-1.223 9.687-11.847 21.527-23.607s21.526-23 21.526-24.977c0-1.976-3.4-5.821-7.557-8.545-7.395-4.845-7.69-4.785-13.741 2.804-9.498 11.912-14.92 9.872-7.155-2.693 6.303-10.197 6.327-10.544 1.007-14.434-2.997-2.192-7.17-3.625-9.272-3.184s-9.784 14.067-17.071 30.282c-15.723 34.988-22.204 35.402-8.192.524 13.782-34.308 14.196-36.18 8.48-38.374-5.286-2.028-9.529 2.547-9.6 10.351-.046 5.132-5.08 9.724-7.742 7.062-.867-.867-.205-5.51 1.47-10.316 2.607-7.475 2.267-9.157-2.349-11.627-7.981-4.272-8.412-3.912-10.43 8.704-2.433 15.22-8.382 13.186-7.25-2.48.675-9.362-.125-11.982-3.66-11.982-3.292 0-4.525-2.85-4.525-10.455v-10.455l16.97 1.774c29.306 3.063 71.875 22.98 95.807 44.827 22.593 20.625 43.89 56.815 52.117 88.563 5.599 21.607 5.66 62.509.127 85.972-16.326 69.248-78.435 124.814-149.952 134.158l-15.069 1.97zm92.697 73.824c6.594-5.164 4.462-12.01-5.099-16.365-5.822-2.653-8.296-2.235-14.18 2.392l-7.126 5.606 5.747 9.076c6.018 9.505 7.692 9.447 20.658-.709m27.24-30.772c6.527-9.718 11.866-18.52 11.866-19.56s-4.52-4.045-10.046-6.68-10.051-3.843-10.058-2.684-5.263 9.031-11.68 17.495l-11.667 15.39 6.44 6.854c3.541 3.77 7.978 6.855 9.86 6.855s8.76-7.951 15.286-17.67m21.761-46.338c2.327-8.208 4.604-20.09 5.06-26.404.818-11.301.669-11.494-9.584-12.35-10.346-.865-10.427-.784-12.393 12.329-1.089 7.259-3.66 17.983-5.716 23.831-3.677 10.466-3.595 10.707 5.218 15.382 4.924 2.613 9.905 4.161 11.069 3.442 1.164-.72 4.02-8.023 6.346-16.23"
     style="fill:#000;stroke-width:2.87021"
     id="path1" /></svg>
