<?xml version="1.0" encoding="UTF-8" standalone="no"?>
<!-- Created with Inkscape (http://www.inkscape.org/) -->

<svg
   version="1.1"
   id="svg1"
   width="872"
   height="889"
   viewBox="0 0 872 889"
   sodipodi:docname="industrial.svg"
   inkscape:version="1.4.2 (f4327f4, 2025-05-13)"
   xml:space="preserve"
   xmlns:inkscape="http://www.inkscape.org/namespaces/inkscape"
   xmlns:sodipodi="http://sodipodi.sourceforge.net/DTD/sodipodi-0.dtd"
   xmlns="http://www.w3.org/2000/svg"
   xmlns:svg="http://www.w3.org/2000/svg"><defs
     id="defs1" /><sodipodi:namedview
     id="namedview1"
     pagecolor="#ffffff"
     bordercolor="#000000"
     borderopacity="0.25"
     inkscape:showpageshadow="2"
     inkscape:pageopacity="0.0"
     inkscape:pagecheckerboard="true"
     inkscape:deskcolor="#d1d1d1"
     inkscape:zoom="0.92822679"
     inkscape:cx="-63.562053"
     inkscape:cy="243.47498"
     inkscape:window-width="2247"
     inkscape:window-height="1292"
     inkscape:window-x="299"
     inkscape:window-y="57"
     inkscape:window-maximized="0"
     inkscape:current-layer="g1" /><g
     inkscape:groupmode="layer"
     inkscape:label="Image"
     id="g1"><circle
       style="fill:none;stroke:#000000;stroke-width:18;stroke-dasharray:none;stroke-opacity:1"
       id="path2"
       cx="438.49911"
       cy="448.88046"
       r="417.83762" /><path
       style="fill:#000000;stroke-width:2.87021"
       d="m 374.35956,753.55294 v -48.55959 l -19.37393,-6.37591 C 344.32996,695.1107 328.47558,688.67551 319.75366,684.317 l -15.85803,-7.92454 -34.29249,34.22542 -34.29246,34.22541 -47.2725,-47.27251 -47.27248,-47.2725 33.56078,-33.31272 c 18.45842,-18.32202 33.56079,-34.57284 33.56079,-36.113 0,-1.54013 -3.71793,-10.19008 -8.26205,-19.22212 -4.54412,-9.03201 -10.59217,-23.84854 -13.44011,-32.92557 l -5.17807,-16.50372 H 132.73761 84.468161 v -67.44998 -67.44998 h 48.559589 48.5596 l 6.0376,-17.93883 c 3.32069,-9.86635 9.76771,-25.0426 14.32673,-33.72498 l 8.28914,-15.78617 -34.58706,-34.8878 -34.58703,-34.88776 46.45521,-46.19572 c 25.5504,-25.40764 47.34647,-46.19569 48.43577,-46.19569 1.0893,0 17.12707,15.10704 35.63948,33.57123 l 33.65894,33.57123 20.9182,-10.24054 c 11.50501,-5.6323 27.05329,-11.86606 34.55172,-13.85276 l 13.63351,-3.61222 V 138.72059 90.3 h 30.13722 30.13723 v 77.49572 77.49572 l -7.89308,0.05 c -17.70107,0.11162 -49.16059,9.2172 -74.59464,21.59013 -46.56783,22.65392 -85.51451,66.44311 -101.22192,113.80752 -32.2259,97.17472 12.58597,203.29477 103.95026,246.1669 19.88704,9.3319 48.53026,17.34506 62.00011,17.34506 18.66568,0 17.75927,-4.11745 17.75927,80.67302 v 77.18852 h -30.13723 -30.13722 z m 74.62551,-28.78102 v -77.54146 l 6.45797,-1.25604 c 3.55188,-0.6908 15.98226,-2.79875 27.62306,-4.6843 36.88716,-5.97487 87.20691,-36.01212 112.84355,-67.35943 47.21511,-57.7325 58.56381,-142.59582 28.09163,-210.06348 -20.45522,-45.2893 -57.88004,-82.10729 -104.15591,-102.46706 -15.95457,-7.01947 -52.62984,-16.10871 -64.99887,-16.10871 -5.75704,0 -5.86143,-1.3802 -5.86143,-77.49572 V 90.3 l 29.41967,-0.0023 29.41967,-0.0023 v 48.06698 48.06694 l 18.65638,6.02518 c 10.261,3.31383 25.53928,9.52738 33.95173,13.80789 17.91365,9.11502 12.43253,12.14266 54.80127,-30.27089 l 30.7755,-30.80801 47.01531,47.08017 c 25.85843,25.89411 46.0797,48.0954 44.9362,49.33618 -1.14349,1.24083 -16.49924,16.70776 -34.12386,34.37099 l -32.04473,32.11498 10.37777,22.41904 c 5.70778,12.33049 11.95614,27.87869 13.88521,34.55156 l 3.50743,12.13247 49.07661,0.78348 49.07657,0.78346 0.77028,66.66443 0.77028,66.6644 -49.14678,0.78557 -49.14678,0.78556 -8.07086,22.14511 c -4.43898,12.1798 -11.023,27.39764 -14.63111,33.81741 l -6.56022,11.67235 34.26675,34.35623 34.26671,34.35621 -47.28272,47.34797 -47.28272,47.34797 -34.48948,-34.40669 -34.4895,-34.40667 -10.0358,6.20445 c -5.5197,3.41248 -19.77998,9.61584 -31.68949,13.78527 -11.90951,4.16944 -23.26568,8.57709 -25.23595,9.79477 -2.65161,1.6388 -3.47855,14.26756 -3.183,48.6104 l 0.39925,46.39639 -28.97979,0.81795 -28.9798,0.81799 z M 401.62657,619.87467 C 307.48301,598.94611 246.50964,503.12317 266.69914,407.82896 c 10.76881,-50.82856 49.02741,-99.23782 96.17957,-121.69747 24.07886,-11.46935 46.76556,-17.87835 63.28593,-17.87835 7.71019,0 8.46937,0.87048 8.46937,9.71098 0,7.45027 -1.40273,10.07781 -6.02553,11.28668 -5.35203,1.3996 -5.79858,2.91894 -3.99513,13.5933 1.6006,9.47397 1.20531,11.74491 -1.86759,10.72928 -2.14384,-0.70854 -4.54372,-5.70618 -5.33302,-11.10585 -1.31374,-8.98715 -2.7784,-10.10817 -11.51478,-8.81302 -1.75898,0.26062 -2.18021,4.95758 -1.06827,11.91138 2.20826,13.80959 -2.62636,15.60041 -6.41862,2.37754 -2.83083,-9.8706 -6.15919,-12.22908 -12.01915,-8.51687 -3.0662,1.94242 -2.98367,4.16836 0.45045,12.15177 15.10902,35.12452 19.08952,45.46659 19.08952,49.59805 0,10.20832 -4.8812,3.25663 -17.01975,-24.23914 -6.99293,-15.84012 -13.83061,-29.49005 -15.19483,-30.33317 -1.36423,-0.84314 -5.699,0.57592 -9.63282,3.15348 l -7.15245,4.68645 5.84354,7.42885 c 6.79021,8.63237 7.39703,12.39516 1.99896,12.39516 -2.11455,0 -5.31584,-3.22899 -7.11402,-7.17553 -3.99494,-8.76793 -8.87717,-9.07935 -17.42942,-1.11169 l -6.50878,6.06384 8.1202,8.67338 c 4.46614,4.77038 14.88836,15.22868 23.16049,23.24068 10.06116,9.74474 14.08682,15.52073 12.16023,17.44733 -1.92664,1.92662 -10.4693,-4.66465 -25.80465,-19.91004 l -22.92455,-22.79008 -7.89202,7.90195 -7.89202,7.90195 9.35572,7.32992 c 11.92185,9.34047 9.18126,14.77953 -3.49843,6.94304 l -9.47436,-5.85546 -4.87187,7.43543 c -4.61375,7.04146 -4.59394,7.64607 0.37342,11.41098 2.88494,2.18656 6.26412,4.01661 7.50934,4.06684 5.09325,0.20521 47.96468,21.16738 47.96468,23.45238 0,4.16018 -6.46714,2.74806 -22.9617,-5.01371 -24.5563,-11.55536 -40.95184,-15.988 -43.61508,-11.79166 -3.55575,5.60259 -1.1127,8.80345 8.65022,11.33328 13.0795,3.38924 11.52826,8.39374 -1.93449,6.24097 -9.53292,-1.52437 -11.28045,-0.95518 -12.60379,4.1052 -2.00812,7.67902 -0.27755,9.07757 11.23366,9.07757 5.26205,0 9.56737,1.29159 9.56737,2.87021 0,1.57861 -5.16639,2.87021 -11.48085,2.87021 -10.33277,0 -11.48085,0.71756 -11.48085,7.17553 v 7.17553 h 33.00744 c 20.09148,0 33.00743,1.12312 33.00743,2.87021 0,1.57861 -5.18165,2.87022 -11.51477,2.87022 h -11.51477 l 1.88552,12.1984 c 1.03703,6.70911 3.01272,15.24911 4.39039,18.97774 2.55624,6.91845 2.53733,6.91722 20.3414,1.30888 8.37272,-2.63743 5.61921,4.37194 -3.58777,9.13305 -4.73585,2.449 -8.61063,5.12949 -8.61063,5.95666 0,3.49113 8.58801,17.71848 12.81084,21.22312 3.87915,3.2194 5.58081,2.85855 11.13755,-2.36173 6.63334,-6.23169 13.36436,-8.14144 13.36436,-3.79177 0,1.30341 -3.31499,5.48417 -7.36666,9.2905 l -7.36665,6.9206 6.391,5.17513 c 3.51507,2.84633 7.40372,4.15486 8.64147,2.90789 1.23775,-1.24699 12.53812,-17.76637 25.11189,-36.70977 20.07437,-30.24362 22.36834,-34.99498 18.81667,-38.97386 -2.22461,-2.49223 -4.04475,-8.98551 -4.04475,-14.4295 0,-11.90599 11.09394,-92.11217 13.0051,-94.02332 0.74029,-0.74028 1.34596,60.22008 1.34596,135.46745 V 624.1594 l -7.89308,-0.22818 c -4.34121,-0.12543 -15.64267,-1.95094 -25.11436,-4.05655 z m -35.87765,-61.35044 c 0,-1.19369 -3.71164,-4.91452 -8.2481,-8.26848 l -8.24812,-6.09808 -7.73104,8.06949 -7.73106,8.06945 9.52118,7.55535 9.52119,7.55535 6.45798,-7.35636 c 3.55187,-4.04597 6.45797,-8.333 6.45797,-9.52672 z m -29.07421,-12.89956 6.36896,-6.77948 -11.84243,-17.16156 -11.84246,-17.16157 -9.62155,4.36105 c -9.60586,4.35391 -9.61421,4.37547 -5.1138,13.17772 5.56634,10.88715 20.66894,30.34327 23.55362,30.34327 1.17078,0 4.99474,-3.05074 8.49766,-6.77943 z m -21.76539,-47.83234 c 1.24263,-1.02174 0.78144,-5.61991 -1.02487,-10.21816 -1.80631,-4.59825 -4.1146,-14.81844 -5.12952,-22.71152 -1.81697,-14.13028 -2.01093,-14.36476 -12.60864,-15.24189 -10.47307,-0.86677 -10.7633,-0.63151 -10.7633,8.72519 0,9.08321 7.01224,40.35624 10.20859,45.52804 1.36646,2.21098 14.11255,-1.80177 19.31774,-6.08166 z m 134.30234,-6.11088 c 0.12458,-73.15915 0.70935,-131.72505 1.29941,-130.14643 0.59003,1.57861 3.78785,21.92503 7.10621,45.21425 5.73282,40.23425 5.78828,42.75909 1.11276,50.67413 l -4.92073,8.33007 23.82402,35.43222 c 13.10321,19.48774 24.16213,35.84465 24.57539,36.34869 1.40133,1.70915 12.79122,-6.58531 12.79122,-9.31496 0,-1.4918 -2.80354,-5.6966 -6.23011,-9.34401 -8.39388,-8.93488 -4.22226,-12.25531 4.77623,-3.80167 7.04665,6.61997 7.20853,6.63486 13.19849,1.21401 3.33539,-3.0185 7.87099,-8.98181 10.0791,-13.2518 3.88988,-7.5222 3.69701,-7.91444 -6.20178,-12.61171 -6.46014,-3.06553 -9.21292,-5.85167 -7.48695,-7.57765 1.72598,-1.72597 4.88413,-1.57649 8.58946,0.40654 10.50212,5.62056 14.03274,3.6669 17.37737,-9.61573 5.58986,-22.1994 4.79472,-24.56091 -8.26991,-24.56091 -6.31447,0 -11.48084,-1.29161 -11.48084,-2.87022 0,-1.75494 13.46085,-2.87021 34.64216,-2.87021 34.2835,0 34.63266,-0.0669 33.72499,-6.45797 -0.75392,-5.30846 -3.21625,-6.74371 -13.83314,-8.06323 -12.81655,-1.59288 -11.49223,-4.42914 2.87022,-6.14709 4.97594,-0.59518 7.17553,-2.61797 7.17553,-6.59872 0,-4.9607 -1.65694,-5.6359 -12.1984,-4.97081 -14.15746,0.89324 -16.65291,-4.32753 -3.34107,-6.98991 9.26553,-1.8531 13.87538,-8.07274 9.3428,-12.60531 -2.95693,-2.95693 -14.35281,0.22216 -36.85651,10.28181 -20.06759,8.97067 -27.267,10.91343 -27.267,7.35804 0,-2.72092 27.41395,-16.88217 41.61806,-21.49866 3.15723,-1.02612 8.04165,-3.61801 10.85422,-5.7597 4.34121,-3.30572 4.59682,-5.02873 1.69196,-11.40422 -4.07027,-8.93325 -4.71839,-9.01528 -13.98129,-1.76974 -8.47633,6.63028 -11.48085,7.13276 -11.48085,1.92012 0,-2.10117 3.22899,-5.54841 7.17553,-7.66054 3.94654,-2.11214 7.17553,-5.27199 7.17553,-7.0219 0,-4.96623 -8.55463,-15.94781 -12.36113,-15.86795 -1.88378,0.0396 -13.03662,9.72645 -24.78414,21.52659 -20.04989,20.13966 -25.99938,24.54016 -25.99938,19.23024 0,-1.22345 9.68697,-11.8468 21.52659,-23.6074 11.83962,-11.76062 21.52658,-22.99996 21.52658,-24.97636 0,-1.9764 -3.4007,-5.82168 -7.55714,-8.54508 -7.39499,-4.84538 -7.68988,-4.78519 -13.74134,2.80405 -9.4982,11.9119 -14.91977,9.87132 -7.15467,-2.69289 6.30258,-10.1978 6.32678,-10.54423 1.00716,-14.43401 -2.99771,-2.19201 -7.17039,-3.62522 -9.27262,-3.18492 -2.10224,0.44026 -9.78415,14.06742 -17.07093,30.28251 -15.72285,34.9877 -22.20414,35.40243 -8.19222,0.52421 13.78276,-34.30778 14.19664,-36.18059 8.4803,-38.37418 -5.28567,-2.02829 -9.52855,2.54697 -9.59925,10.35121 -0.0466,5.1322 -5.08031,9.72328 -7.74229,7.0613 -0.86679,-0.8668 -0.20492,-5.50871 1.47056,-10.31537 2.606,-7.47561 2.26623,-9.15701 -2.34967,-11.62737 -7.98152,-4.2716 -8.41222,-3.91216 -10.42957,8.70386 -2.4338,15.22011 -8.3822,13.18656 -7.25114,-2.47889 0.676,-9.36246 -0.12428,-11.98316 -3.65957,-11.98316 -3.29145,0 -4.5248,-2.84972 -4.5248,-10.45463 v -10.45461 l 16.96955,1.77365 c 29.30687,3.06318 71.87518,22.98044 95.80727,44.82723 22.59319,20.62454 43.89001,56.8146 52.11687,88.56308 5.59889,21.6069 5.65957,62.50859 0.12743,85.97203 -16.32665,69.24713 -78.43521,124.81374 -149.95257,134.1579 l -15.06861,1.96882 z m 92.69774,73.82497 c 6.594,-5.16445 4.46123,-12.00951 -5.09916,-16.36549 -5.82202,-2.65271 -8.29663,-2.2352 -14.17951,2.39227 l -7.12661,5.60581 5.7466,9.07616 c 6.01779,9.50442 7.69179,9.44698 20.65868,-0.70875 z m 27.24041,-30.77214 c 6.52574,-9.71843 11.86499,-18.52035 11.86499,-19.55989 0,-1.03953 -4.52058,-4.04577 -10.04574,-6.68053 -5.52515,-2.63477 -10.0513,-3.84268 -10.05808,-2.68426 -0.006,1.15842 -5.26264,9.03152 -11.67969,17.49575 l -11.66733,15.38954 6.43958,6.8546 c 3.54176,3.77006 7.97896,6.85461 9.86041,6.85461 1.88148,0 8.76012,-7.95143 15.28586,-17.66982 z m 21.76026,-46.33848 c 2.32665,-8.20737 4.6039,-20.0889 5.06058,-26.40336 0.81738,-11.30184 0.66796,-11.49443 -9.58421,-12.35087 -10.34628,-0.86434 -10.42751,-0.78354 -12.39383,12.32893 -1.08862,7.25943 -3.66044,17.98369 -5.71517,23.83172 -3.67729,10.46608 -3.59551,10.70721 5.21716,15.38224 4.92416,2.61223 9.90527,4.161 11.06911,3.4417 1.16387,-0.7193 4.01971,-8.02296 6.34636,-16.23036 z"
       id="path1" /></g></svg>
