<?xml version="1.0" encoding="UTF-8" standalone="no"?>
<svg
   xml:space="preserve"
   width="872"
   height="889"
   viewBox="0 0 872 889"
   version="1.1"
   id="svg1"
   sodipodi:docname="kinetic.svg"
   inkscape:version="1.4.2 (f4327f4, 2025-05-13)"
   xmlns:inkscape="http://www.inkscape.org/namespaces/inkscape"
   xmlns:sodipodi="http://sodipodi.sourceforge.net/DTD/sodipodi-0.dtd"
   xmlns="http://www.w3.org/2000/svg"
   xmlns:svg="http://www.w3.org/2000/svg"><defs
     id="defs1" /><sodipodi:namedview
     id="namedview1"
     pagecolor="#ffffff"
     bordercolor="#000000"
     borderopacity="0.25"
     inkscape:showpageshadow="2"
     inkscape:pageopacity="0.0"
     inkscape:pagecheckerboard="0"
     inkscape:deskcolor="#d1d1d1"
     inkscape:zoom="1.3127109"
     inkscape:cx="436.12039"
     inkscape:cy="444.5"
     inkscape:window-width="3440"
     inkscape:window-height="1369"
     inkscape:window-x="1737"
     inkscape:window-y="1432"
     inkscape:window-maximized="1"
     inkscape:current-layer="svg1" /><path
     d="m410.311 741.23-17.367-34.832h14.392V622.32h21.62v76.871c0 42.28-.287 76.872-.639 76.872-.351 0-8.454-15.675-18.006-34.833m35.46-41.638V622.32h7.011c3.856 0 8.72-.656 10.81-1.458 3.379-1.297 3.8 3.362 3.8 42.039v43.497h7.207c3.963 0 7.206.34 7.206.755 0 1.283-33.46 67.137-34.785 68.462-.687.687-1.248-33.524-1.248-76.023m-276.256 2.527c0-2.832 28.512-87.492 29.95-88.93.688-.687 3.466.756 6.174 3.207 4.873 4.41 5.304 4.076 41.737-32.3l36.814-36.757 21.086 20.896 21.085 20.897-36.85 36.908c-36.471 36.528-36.806 36.96-32.396 41.832 2.451 2.709 3.801 5.58 3 6.38-1.563 1.564-85.638 29.744-88.74 29.744a1.874 1.874 0 0 1-1.86-1.877m487.927-12.648c-22.97-7.784-42.287-14.676-42.925-15.314-.639-.639.59-2.912 2.728-5.05 2.14-2.14 3.89-4.637 3.89-5.55 0-.912-16.558-18.19-36.795-38.396l-36.795-36.737 20.58-20.993 20.58-20.994 37.73 37.208c37.339 36.822 37.78 37.161 42.654 32.751 2.708-2.45 5.513-3.867 6.232-3.148 1.572 1.572 29.892 85.502 29.892 88.589 0 3.505-3.974 2.476-47.77-12.366m-276.352-28.42c-3.205-.896-6.316-3.094-6.913-4.884-.865-2.595 1.292-2.9 10.632-1.502 12.962 1.94 15.32 2.9 15.32 6.232 0 2.54-10.205 2.622-19.04.153m93.962-.454c1.24-3.721 17.893-7.896 23.267-5.834 5.857 2.247-.175 5.82-12.73 7.542-9.296 1.274-11.417.93-10.537-1.708m-158.4-26.337c-12.031-6.9-14.858-10.268-10.748-12.808 2.39-1.478 29.365 14.944 29.365 17.877 0 3.895-5.688 2.346-18.617-5.069m222.897 4.275c.138-4.595 26.693-19.22 29.607-16.306 2.95 2.95 3.221 2.69-12.387 11.847-13.871 8.139-17.358 9.042-17.22 4.46m-165.606-27.198c-23.355-7.954-39.904-17.574-36.35-21.13 1.923-1.921 6.045-.73 15.119 4.37 6.861 3.858 19.999 9.31 29.194 12.119 9.195 2.807 17.147 6.39 17.671 7.962 1.443 4.33-6.007 3.364-25.634-3.32m101.225 3.268c.534-1.6 6.945-4.683 14.248-6.851s20.448-7.75 29.213-12.404c12.28-6.52 16.5-7.782 18.394-5.5 3.03 3.65-17.551 15.127-40.6 22.641-17.63 5.748-22.632 6.245-21.255 2.115m-62.427-1.187c-4.545-.876-5.405-2.59-5.405-10.783 0-9.63.087-9.725 7.507-8.24 4.129.825 8.993 1.5 10.81 1.5 2.252 0 3.303 3.058 3.303 9.61 0 10.21-1.214 10.802-16.215 7.913m33.03-7.914c0-6.551 1.052-9.609 3.304-9.609 1.816 0 6.681-.675 10.81-1.5 7.407-1.482 7.507-1.374 7.507 8.107 0 8.84-.6 9.729-7.507 11.11-13.279 2.656-14.113 2.176-14.113-8.108m-61.256-18.925c-6.606-2.387-16.335-6.584-21.62-9.327-14.365-7.456-5.256-9.295 10.94-2.209 7.195 3.15 16.055 6.447 19.688 7.33 3.634.881 6.606 3.204 6.606 5.16 0 4.434-.84 4.382-15.614-.954m90.084 1.257c0-2.016 3.934-4.853 9.008-6.496 4.954-1.604 14.04-5.437 20.188-8.517 9.293-4.656 11.638-5.05 13.893-2.332 2.188 2.636-.675 4.663-14.783 10.464-25.215 10.37-28.306 11.12-28.306 6.88m-58.255-.897c-7.088-.742-9.008-1.965-9.008-5.74 0-4.159 1.36-4.7 10.21-4.059 8.487.614 10.339 1.65 10.977 6.144.422 2.973-.119 5.223-1.201 5.001s-6.023-.828-10.978-1.346m29.428-4.453c0-4.588 1.507-5.444 10.901-6.192 9.782-.778 10.83-.37 10.21 3.962-.531 3.706-3.068 5.147-10.902 6.192-9.35 1.248-10.21.915-10.21-3.962M313.55 565.441c-22.311-21.047-23.68-23.73-16.01-31.4l6.001-6 19.28 19.514c10.603 10.732 20.647 19.514 22.319 19.514 1.671 0-.068 3.243-3.865 7.206s-7.763 7.207-8.812 7.207c-1.05 0-9.56-7.218-18.913-16.041m220.398 9.351-6.409-6.69 11.657-9.233c6.411-5.078 15.828-14.5 20.927-20.936l9.27-11.704 7.066 7.066 7.065 7.066-11.264 13.185c-9.85 11.53-27.995 27.936-30.896 27.936-.553 0-3.89-3.01-7.416-6.69M238.132 555.31c-9.841-16.2-20.572-39.55-20.572-44.762 0-7.761 6.318-2.868 10.169 7.876 2.25 6.275 8.857 19.74 14.683 29.921 9.798 17.122 10.964 21.126 6.15 21.126-1.005 0-5.698-6.372-10.43-14.16m158.394 8.286c-24.54-8.395-39.014-17.211-55.251-33.654-17.008-17.224-32.498-43.94-27.329-47.135 2.228-1.377 4.873-.028 8.252 4.21 4.78 5.996 5.613 6.17 21.455 4.473 13.564-1.453 17.681-2.966 23.266-8.55 3.732-3.733 6.786-8.761 6.786-11.175 0-3.939 2.315-4.389 22.569-4.389 33.816 0 32.682-1.929 32.682 55.624v46.47l-7.807-.06c-4.294-.034-15.374-2.65-24.623-5.814m49.246-40.287c0-57.527-.883-55.933 30.98-55.933H497.6l4.39 9.173c5.022 10.493 9.459 12.687 30.46 15.063 14.577 1.65 15.232 1.484 20.527-5.156 8.741-10.962 9.988-1.575 1.791 13.485-19.12 35.128-59.122 63.533-96.448 68.484l-12.548 1.665zm176.554 43.743c-.823-1.33.7-5.502 3.384-9.27 4.174-5.862 21.876-40.65 25.016-49.159.696-1.887 1.881-2.022 3.606-.409 3.041 2.844-7.131 28.464-19.226 48.42-7.875 12.994-10.078 14.79-12.78 10.418m-277.448-9.834c-22.518-18.322-35.442-34.32-31.532-39.03 2.139-2.577 6.943.93 23.86 17.422 15.102 14.722 20.537 21.51 18.937 23.651-2.959 3.96-4.154 3.743-11.265-2.043m172.746 1.184c-2.676-3.224-2.441-4.185 1.53-6.253 2.58-1.344 12.407-10.414 21.838-20.155 14.495-14.972 17.601-17.166 20.078-14.182 2.401 2.893 1.12 5.69-7.101 15.51-8.824 10.54-22.223 22.556-30.453 27.312-1.502.867-4.153-.137-5.892-2.232m-241.4-26.12c-5.022-7.665-20.397-45.119-19.067-46.449 2.435-2.435 6.698 3.985 16.785 25.28 6.755 14.259 10.124 24.042 8.753 25.413s-3.863-.262-6.472-4.244m314.973 3.442c-1.5-3.892 16.737-45.497 21.214-48.399 4.422-2.865 4.54-.236.532 11.725-5.794 17.287-19.99 41.229-21.746 36.674m-299.09-32.14c-6.669-14.864-7.468-20.593-2.873-20.593.95 0 4.817 7.095 8.595 15.766 5.009 11.498 6.15 16.484 4.217 18.418s-4.624-1.746-9.939-13.591m277.978 11.634c-1.815-1.814 11.843-30.77 15.011-31.825 4.335-1.445 2.528 9.128-3.639 21.298-5.762 11.372-8.237 13.662-11.372 10.527m-304.667-35.041c-11.016-6.629-10.763-6.137-5.902-11.508 3.192-3.527 5.38-4.16 8.54-2.467 3.021 1.616 5.104 1.247 7.2-1.279 2.04-2.458 7.684-3.552 18.324-3.552h15.375l-3.935 6.005c-2.65 4.046-6.136 6.006-10.68 6.006-3.711 0-9.886 2.642-13.724 5.87l-6.977 5.871zm60.196-.91c-1.296-3.41-2.356-7.08-2.356-8.159 0-2.557 15.884-14.673 17.335-13.222.611.611 3.098-1.083 5.526-3.766 4.41-4.874 4.422-4.871 12.397 2.859 8.537 8.274 9.655 12.8 4.755 19.246-3.16 4.156-7.275 5.446-25.045 7.851-9.392 1.272-10.454.867-12.612-4.81m201.895 3.62c-21.683-3.142-26.576-14.95-11.463-27.666 7.13-6 7.32-6.024 12.324-1.562 2.796 2.493 9.137 6.957 14.091 9.921 4.955 2.964 9.009 5.895 9.009 6.514 0 2.831-7.52 15.266-9.07 15-.957-.166-7.658-1.158-14.891-2.206m64.799-3.5c-3.267-3.477-8.324-6.005-12.011-6.005-3.688 0-8.745-2.529-12.012-6.006l-5.641-6.005h16.368c12.68 0 17.047.927 19.377 4.113 2.628 3.593 3.529 3.68 7.131.691 3.62-3.004 4.532-2.863 7.467 1.15 4.711 6.444 4.347 7.447-4.748 13.068-9.984 6.17-9.14 6.224-15.931-1.006m-378.283-15.504c-.78-1.26-.726-5.044.119-8.407 1.244-4.96 2.988-6.117 9.223-6.117 7.095 0 18.564 5.613 15.81 7.738-10.889 8.397-22.26 11.466-25.152 6.786m205.497-6.663c-8.718-10.576-9.004-13.248-2.413-22.504 8.842-12.418 11.847-9.313 11.847 12.241 0 10.57-.462 19.218-1.026 19.218s-4.348-4.03-8.408-8.955m223.167 4.947c-3.267-2.204-6.479-4.455-7.137-5-2.513-2.085 8.43-7.808 14.928-7.808 5.164 0 7.395 1.547 9.243 6.407 3.917 10.302-5.827 13.964-17.034 6.401m-392.008-5.586c-1.033-7.041 2.874-13.666 6.136-10.404 2.78 2.78 1.694 12.109-1.741 14.96-2.682 2.226-3.529 1.348-4.395-4.556m195.09-10.53c0-21.109 3.421-23.924 11.804-9.716 5.058 8.572 5.059 8.614.35 15.227-10.739 15.081-12.153 14.44-12.153-5.512m172.197 16.156c-.901-.9-1.638-5.207-1.638-9.57 0-6.063.849-7.606 3.603-6.549 3.864 1.483 4.762 9.738 1.601 14.718-1.06 1.672-2.666 2.302-3.566 1.401m-221.855-7.443c6.597-6.518 6.732-6.542 10.262-1.801 3.285 4.414 3.128 4.931-1.935 6.366-3.032.86-7.65 1.67-10.262 1.802-4.212.212-3.993-.508 1.935-6.367m74.282 4.911c-6.09-1.173-6.545-2.718-2.326-7.913 2.539-3.127 3.78-2.73 9.38 3.002 6.696 6.857 5.905 7.407-7.054 4.911m-329.67-4.91c-.019-2.973 1.045-5.406 2.366-5.406 3.01 0 3.01 2.55 0 7.207-1.883 2.914-2.336 2.57-2.366-1.802m23.17.462c.79-2.058 3.006-3.139 4.926-2.402s4.005 1.339 4.636 1.339c.63 0 .478 1.08-.338 2.402-2.54 4.108-10.851 2.901-9.224-1.339m537.817 1.505c-.76-1.23-.284-2.915 1.06-3.745 2.866-1.772 7.245.477 7.245 3.72 0 2.924-6.502 2.943-8.305.025m27.523-3.77c0-1.981 1.08-3.603 2.402-3.603 1.321 0 2.402 1.622 2.402 3.604s-1.08 3.603-2.402 3.603c-1.321 0-2.402-1.621-2.402-3.603m-351.122-2.817c-6.43-1.703-7.405-8.25-2.074-13.926 2.68-2.852 4.873-6.3 4.873-7.662 0-1.361 1.986-4.273 4.414-6.47 4.125-3.734 4.676-3.706 8.408.417 5.02 5.548 5.142 16.94.254 23.919-3.596 5.133-7.283 5.998-15.875 3.722m103.193-2.587c-2.005-2.312-4.28-7.58-5.056-11.706-1.11-5.908-.198-8.64 4.288-12.855l5.697-5.352 3.632 7.024c1.998 3.863 5.325 8.429 7.394 10.146 5.162 4.283 4.723 11.46-.884 14.46-6.665 3.567-10.908 3.083-15.07-1.717m99.58-.606c-3.113-2.522-4.823-5.894-4.032-7.955 1.905-4.965 17.933-7.788 20.572-3.625 3.375 5.323 2.38 7.975-4.522 12.052-6.173 3.647-6.97 3.615-12.017-.472m-395.853-1.002c-3.543-2.614-4.028-4.164-1.96-6.263 4.036-4.097 11.666-1.809 11.666 3.5 0 5.988-3.851 7.084-9.706 2.763m93.403-.105c-3.561-2.511-4.768-5.247-3.856-8.737 1.13-4.322 2.59-4.875 9.782-3.708 10.93 1.774 14.407 5.14 10.971 10.62-3.47 5.535-10.552 6.3-16.897 1.825m400.2-.272c-2.604-3.138-2.552-4.16.307-5.969 4.926-3.117 8.445-2.762 11.717 1.18 2.277 2.744 1.884 3.954-1.95 6.006-6.164 3.299-6.344 3.277-10.074-1.217m-364.724-5.004c-3-6.584-.79-10.3 6.176-10.39 1.56-.02 3.181-2.47 3.604-5.442.544-3.837 2.644-5.622 7.236-6.152 5.137-.593 7.239.742 10.21 6.487 2.057 3.978 3.74 9.449 3.74 12.157 0 5.155-3.47 6.625-5.994 2.54-.902-1.46-5.117-.526-10.857 2.402-5.16 2.632-9.792 4.786-10.293 4.786s-2.221-2.875-3.822-6.388m232.052 2.559c-3.69-2-8.824-2.965-11.411-2.144-3.82 1.212-4.703.356-4.703-4.562 0-10.859 4.931-18.291 12.136-18.291 4.914 0 6.922 1.44 8.001 5.74.876 3.49 3.817 6.336 7.501 7.26 5.893 1.48 5.958 1.718 2.362 8.674-4.218 8.155-4.743 8.28-13.886 3.323m-302.467-9.493c-2.43-5.334-2.04-6.84 3.054-11.78 3.213-3.116 9.355-6.396 13.649-7.288 7.21-1.499 7.807-1.148 7.807 4.574 0 3.733-1.348 6.196-3.39 6.196-1.864 0-6.119 3.243-9.454 7.207-7.371 8.76-8.139 8.832-11.666 1.09m376.648.77c-2.135-3.26-6.57-7.15-9.854-8.646-5.934-2.704-7.941-8.53-3.817-11.08 4.832-2.985 17.395 1.976 22.243 8.784l5.064 7.111-4.877 4.877-4.878 4.878zm-267.898-.155c-.089-2.365-2.346-8.58-5.015-13.813-4.569-8.955-5.488-9.513-15.666-9.513-9.203 0-11.22.894-13.55 6.005-3.159 6.935-4.21 7.206-10.391 2.686-4.147-3.032-4.288-4.415-1.628-15.94 9.8-42.457 46.43-82.455 87.67-95.735 8.178-2.633 19.464-5.497 25.08-6.365l10.21-1.576v57.94c0 63.26-.21 64.15-13.635 58.034-4.61-2.1-6.942-2.108-9.444-.032-2.542 2.11-4.715 1.845-9.255-1.13-9.076-5.946-12.443-4.81-20.516 6.923-7.502 10.904-10.493 12.807-13.212 8.408-2.373-3.84-5.075-2.81-7.878 3.002-2.138 4.432-2.636 4.631-2.77 1.106m54.06-4.108c2.01-7.427 2.451-7.934 5.897-6.786 1.754.585.883 3.093-2.38 6.857l-5.144 5.934zm56.581.394c-3.37-6.115-1.79-10.051 2.367-5.894 1.423 1.423 2.168 4.594 1.656 7.046-.835 4.002-1.248 3.884-4.023-1.152m34.441-8.333c-8.264-11.378-13.884-13.508-20.307-7.695-3.51 3.177-5.46 3.452-9.43 1.327-3.503-1.875-6.398-1.932-9.651-.191-12.255 6.558-12.17 6.956-12.17-56.368 0-45.501.682-58.847 3.004-58.82 1.651.02 9.917 1.666 18.37 3.658 37.484 8.837 73.357 37.133 90.105 71.076 10.244 20.763 13.617 40.21 7.81 45.029-4.172 3.463-8.786 1.796-8.786-3.174 0-7.662-22.409-8.672-27.004-1.217-2.502 4.059-21.243 17.068-23.87 16.57-.426-.082-4.057-4.669-8.071-10.195m-219.713-4.769c0-16.827 19.464-67.28 24.149-62.596 1.591 1.592.3 6.97-3.849 16.032-3.433 7.5-8.03 22.284-10.216 32.851-2.453 11.865-5.142 19.214-7.029 19.214-1.68 0-3.055-2.475-3.055-5.5m312.29 4.741c0-7.484-6.902-33.32-12.52-46.865-4.918-11.86-6.505-18.389-4.868-20.026 4.523-4.523 19.528 33.689 23.029 58.643.956 6.817.423 9.008-2.19 9.008-1.898 0-3.451-.342-3.451-.76M251.19 406.672c0-12.257 24.097-72.62 28.99-72.62 4.678 0 4.22 5.052-1.34 14.777-5.584 9.77-15.773 38.123-19.076 53.086-1.267 5.74-8.574 9.793-8.574 4.757m364.027-1.153c-.529-1.652-2.758-9.49-4.953-17.416-2.196-7.928-7.695-22.447-12.22-32.265-10.576-22.944-7.112-28.137 4.67-7.004 7.934 14.228 18.42 45.786 18.42 55.435 0 4.847-4.464 5.79-5.917 1.25m44.214-7.282c-7.021-26.627-8.287-33.404-6.45-34.539 3.724-2.301 6.224 2.187 9.831 17.648 2.956 12.67 2.972 15.03.11 16.13-1.844.707-3.415 1.05-3.491.76m-450.652-5.93c.635-2.313 2.437-9.88 4.005-16.816 1.904-8.418 4.064-12.612 6.496-12.612 2.63 0 3.219 1.505 2.118 5.405-.839 2.973-2.676 10.54-4.082 16.816-1.645 7.34-3.83 11.41-6.124 11.41-2.234 0-3.135-1.57-2.413-4.204m338.427-47.037c-5.59-7.005-15.043-16.393-21.006-20.86-9.333-6.993-10.37-8.596-7.454-11.513 4.425-4.426 7.793-2.434 25.884 15.312 17.71 17.372 20.52 22.02 16.03 26.51-2.785 2.784-4.85 1.334-13.454-9.449m-235.102 6.772c-1.68-4.376 11.902-21.551 26.503-33.516 11.372-9.319 13.973-10.084 17.958-5.283 2.062 2.486 1.245 3.974-3.609 6.572-3.451 1.847-13.045 10.67-21.32 19.608-8.274 8.937-15.74 16.25-16.591 16.25s-2.175-1.634-2.94-3.63m-14.853-13.94c-2.873-3.058-5.223-6.926-5.223-8.596s8.762-11.693 19.471-22.273l19.471-19.237 6.954 6.662c3.824 3.664 6.953 7.34 6.953 8.168 0 .829-4.594 4.97-10.21 9.203-5.615 4.234-14.533 13.029-19.818 19.545s-10.231 11.902-10.992 11.968c-.76.066-3.733-2.383-6.606-5.44m252.224-15.477-20.011-20.509 6.035-6.035c5.647-5.647 6.399-5.797 11.687-2.332 7.06 4.626 27.634 25.24 32.524 32.586 3.382 5.08 3.24 5.939-1.9 11.41-3.057 3.254-6.18 5.797-6.941 5.652s-10.388-9.493-21.394-20.772m-302.384-34.691c-34.981-34.982-36.698-36.339-41.017-32.43-2.48 2.244-5.144 4.08-5.92 4.08-2.16 0-31.342-88.982-29.716-90.608 1.373-1.372 87.115 26.504 89.809 29.198.728.728-.682 3.54-3.133 6.248-4.41 4.873-4.075 5.305 32.388 41.825l36.844 36.902-9.118 8.036c-5.015 4.42-10.912 9.305-13.105 10.858-2.192 1.552-7.038 7.228-10.77 12.612-3.73 5.384-7.451 9.789-8.268 9.789-.816 0-17.914-16.43-37.994-36.51m321.588 15.46-20.023-20.521 36.498-36.556 36.5-36.556-3.953-6.033-3.953-6.032 45.732-15.414c29.283-9.87 45.732-14.356 45.732-12.472 0 3.944-28.025 87.37-30.02 89.365-.863.863-2.623-.313-3.911-2.614-1.288-2.302-3.653-4.184-5.255-4.184s-19.102 16.215-38.887 36.033-36.527 35.915-37.204 35.77c-.678-.146-10.242-9.5-21.255-20.786m-328.053 14.24c-2.148-3.475 5.273-17.797 8.264-15.948 3.45 2.131 2.701 6.482-2.214 12.875-2.83 3.68-4.996 4.78-6.05 3.073m384.459-5.26c-5.291-8.957-.366-12.685 5.934-4.491 5.317 6.915 5.518 8.46 1.31 10.074-1.833.704-4.95-1.698-7.244-5.583M355.84 300.665c-1.713-2.772 21.224-15.12 35.282-18.995 7.411-2.042 9.008-1.865 9.008 1.002 0 1.917-1.891 4.135-4.204 4.93-4.192 1.44-30.554 11.987-35.79 14.319-1.518.676-3.45.11-4.296-1.256m138.012-6.402c-19.612-8.78-25.55-14.919-11.767-12.167 12.349 2.466 38.706 15.492 36.984 18.278-2.202 3.564-5.26 2.823-25.217-6.111m-86.126-3.71c.69-4.888 2.338-5.858 11.022-6.486 8.942-.647 10.21-.125 10.21 4.204 0 2.718-1.487 4.943-3.304 4.943s-6.777.694-11.022 1.543c-7.106 1.422-7.654 1.088-6.906-4.204m44.653 3.342c-4.66-.706-6.606-2.41-6.606-5.784 0-4.141 1.37-4.684 10.21-4.044 8.486.614 10.338 1.65 10.976 6.144.802 5.643-.117 5.875-14.58 3.684M336.45 281.17c-1.971-3.189-2.673-2.523 10.83-10.268 10.163-5.829 44.616-18.525 50.27-18.525 1.419 0 2.58 1.493 2.58 3.318 0 1.95-4.668 4.493-11.321 6.168-8.795 2.215-34.597 13.323-49.116 21.144-.87.469-2.33-.358-3.243-1.837m187.607-3.487c-5.168-3.175-18.41-8.706-29.427-12.29-12.753-4.148-20.031-7.766-20.031-9.957 0-4.538 10.12-2.416 32.43 6.801 21.305 8.802 33.08 15.972 31.206 19.003-2.063 3.337-3.574 2.958-14.178-3.557m-116.72-10.893c0-8.354.705-9.613 5.404-9.642 2.973-.019 7.837-.684 10.81-1.481 4.947-1.326 5.405-.633 5.405 8.184 0 10.444-2.45 12.548-14.61 12.548-6.577 0-7.01-.594-7.01-9.609m41.438 8.018c-1.706-.688-3.003-5.397-3.003-10.9 0-8.876.454-9.568 5.405-8.241 2.973.797 7.837 1.463 10.81 1.481 4.699.029 5.405 1.288 5.405 9.642 0 9.278-.269 9.602-7.807 9.42-4.294-.105-9.159-.736-10.81-1.402m104.497-31.6c-7.598-4.577-13.813-9.79-13.813-11.587s.844-3.267 1.877-3.267c3.29 0 29.352 17.102 29.352 19.262 0 4.6-4.245 3.525-17.416-4.409m-250.268 4.631c-2.106-3.407 27.73-20.177 30.669-17.238 2.903 2.903 3.749 2.092-12.253 11.744-13.376 8.069-16.288 8.938-18.416 5.494m104.332-39.451V166.2l-6.945-.753-6.945-.753 17.63-34.832 17.628-34.832.126 76.27c.105 63.175-.44 76.271-3.177 76.271-1.817 0-6.681.676-10.81 1.502l-7.507 1.5zm45.042 39.866-6.606-1.001v-75.51c0-41.532.432-75.511.96-75.511.723 0 29.84 56.99 34.673 67.863.44.99-2.533 1.801-6.606 1.801h-7.407v42.04c0 46.273 1.297 42.789-15.014 40.318m-86.606-28.633c-3.61-3.61-1.102-5.24 13.832-8.991 18.84-4.733 20.525-4.784 20.525-.624 0 2.02-4.821 4.248-12.611 5.826-6.937 1.405-14.29 3.21-16.34 4.01-2.052.8-4.484.7-5.406-.221m123.84-2.763c-9.795-2.448-15.013-4.964-15.013-7.238 0-2.64 1.864-3.114 7.676-1.951 18.117 3.623 25.955 6.633 25.955 9.968 0 4.057.885 4.094-18.618-.78"
     style="fill:#000;stroke-width:2.40223"
     id="path1" /></svg>
