<?xml version="1.0" encoding="UTF-8" standalone="no"?>
<!-- Created with Inkscape (http://www.inkscape.org/) -->

<svg
   version="1.1"
   id="svg1"
   width="872"
   height="889"
   viewBox="0 0 872 889"
   sodipodi:docname="kinetic.svg"
   inkscape:version="1.4.2 (f4327f4, 2025-05-13)"
   xml:space="preserve"
   xmlns:inkscape="http://www.inkscape.org/namespaces/inkscape"
   xmlns:sodipodi="http://sodipodi.sourceforge.net/DTD/sodipodi-0.dtd"
   xmlns="http://www.w3.org/2000/svg"
   xmlns:svg="http://www.w3.org/2000/svg"><defs
     id="defs1" /><sodipodi:namedview
     id="namedview1"
     pagecolor="#ffffff"
     bordercolor="#000000"
     borderopacity="0.25"
     inkscape:showpageshadow="2"
     inkscape:pageopacity="0.0"
     inkscape:pagecheckerboard="true"
     inkscape:deskcolor="#d1d1d1"
     inkscape:zoom="0.92822679"
     inkscape:cx="-63.562053"
     inkscape:cy="244.01364"
     inkscape:window-width="3440"
     inkscape:window-height="1369"
     inkscape:window-x="-8"
     inkscape:window-y="-8"
     inkscape:window-maximized="1"
     inkscape:current-layer="g1" /><g
     inkscape:groupmode="layer"
     inkscape:label="Image"
     id="g1"><circle
       style="fill:none;stroke:#000000;stroke-width:18;stroke-dasharray:none;stroke-opacity:1"
       id="path2"
       cx="438.49911"
       cy="448.88046"
       r="417.83762" /><path
       style="fill:#000000;stroke-width:2.40223"
       d="m 410.31102,741.23038 -17.36719,-34.83234 h 7.19612 7.19612 V 664.35902 622.32 h 10.81004 10.81003 v 76.87136 c 0,42.27924 -0.28752,76.87135 -0.63897,76.87135 -0.35142,0 -8.45419,-15.67455 -18.00615,-34.83233 z m 35.46073,-41.63865 V 622.32 h 7.01021 c 3.85563,0 8.72014,-0.65614 10.81004,-1.45813 3.37873,-1.29653 3.79982,3.36226 3.79982,42.03902 v 43.49715 h 7.20669 c 3.96368,0 7.20669,0.33963 7.20669,0.75471 0,1.28287 -33.46035,67.13762 -34.78544,68.46269 -0.68639,0.68641 -1.24801,-33.52427 -1.24801,-76.02371 z m -276.25643,2.52737 c 0,-2.83257 28.51185,-87.49164 29.95026,-88.93002 0.68708,-0.68711 3.465,0.75591 6.1731,3.20671 4.87297,4.40999 5.30396,4.07646 41.73767,-32.30034 l 36.81381,-36.75635 21.08538,20.89633 21.0854,20.89635 -36.8508,36.90843 c -36.47049,36.52752 -36.80481,36.95922 -32.39479,41.83224 2.4508,2.70811 3.80092,5.57892 3.00028,6.37956 -1.56382,1.56382 -85.63826,29.7438 -88.7401,29.7438 -1.02311,0 -1.86021,-0.84452 -1.86021,-1.87671 z m 487.92709,-12.64791 c -22.97053,-7.7845 -42.28703,-14.67606 -42.92557,-15.3146 -0.63853,-0.63854 0.58925,-2.91117 2.72836,-5.0503 2.13914,-2.13914 3.88933,-4.63595 3.88933,-5.54848 0,-0.91254 -16.55768,-18.19098 -36.79486,-38.39657 l -36.79486,-36.7374 20.57981,-20.99325 20.57981,-20.99326 37.72999,37.20766 c 37.33916,36.82219 37.78103,37.16149 42.65431,32.75123 2.70837,-2.45104 5.51305,-3.86768 6.23263,-3.1481 1.57212,1.57212 29.89121,85.50166 29.89121,88.58886 0,3.50507 -3.97364,2.47643 -47.77016,-12.36579 z M 381.08965,661.05053 c -3.20511,-0.89567 -6.31578,-3.09335 -6.91256,-4.88374 -0.86495,-2.59481 1.29204,-2.89944 10.63193,-1.50149 12.96149,1.94 15.32036,2.89957 15.32036,6.23216 0,2.53985 -10.20505,2.62189 -19.03973,0.15302 z m 93.96216,-0.45366 c 1.24034,-3.72099 17.89298,-7.89635 23.26754,-5.83394 5.85652,2.24736 -0.17584,5.82082 -12.73112,7.54171 -9.29528,1.27407 -11.41578,0.93036 -10.53642,-1.70777 z M 316.6519,634.26002 c -12.0309,-6.89966 -14.85765,-10.2684 -10.74768,-12.80852 2.39061,-1.47747 29.36496,14.94441 29.36496,17.87727 0,3.89479 -5.68786,2.34619 -18.61728,-5.06875 z m 222.89685,4.27503 c 0.13789,-4.59518 26.69276,-19.2199 29.60703,-16.30564 2.94938,2.94939 3.22131,2.68932 -12.38662,11.84684 -13.87153,8.13873 -17.35782,9.04144 -17.22041,4.4588 z M 373.94306,611.33746 c -23.35472,-7.95445 -39.90428,-17.57471 -36.34922,-21.12977 1.92205,-1.92205 6.04439,-0.73045 15.11791,4.37001 6.86136,3.85698 19.99875,9.31001 29.19415,12.11786 9.1954,2.80785 17.14753,6.39101 17.67138,7.96258 1.44307,4.32917 -6.00752,3.36403 -25.63422,-3.32068 z m 101.22509,3.26804 c 0.53351,-1.60053 6.94482,-4.68372 14.24736,-6.85156 7.30256,-2.16782 20.44865,-7.74948 29.21354,-12.40365 12.2803,-6.52086 16.5001,-7.7827 18.39428,-5.50034 3.02914,3.6499 -17.55179,15.12701 -40.60095,22.64145 -17.6285,5.74719 -22.63112,6.24479 -21.25423,2.1141 z m -62.42706,-1.18751 c -4.54555,-0.87552 -5.40502,-2.59019 -5.40502,-10.78318 0,-9.62999 0.0865,-9.72485 7.50697,-8.24073 4.12883,0.82576 8.99335,1.50139 10.81004,1.50139 2.25209,0 3.30306,3.05739 3.30306,9.60892 0,10.21022 -1.2143,10.80285 -16.21505,7.9136 z m 33.03066,-7.9136 c 0,-6.55153 1.05098,-9.60892 3.30307,-9.60892 1.81668,0 6.6812,-0.67563 10.81003,-1.50139 7.40687,-1.48138 7.50697,-1.37328 7.50697,8.10752 0,8.84021 -0.60056,9.72904 -7.50697,11.11032 -13.27844,2.65569 -14.1131,2.1762 -14.1131,-8.10753 z m -61.25686,-18.92577 c -6.60613,-2.38648 -16.33516,-6.58346 -21.62007,-9.32664 -14.36495,-7.45621 -5.25574,-9.29528 10.9394,-2.20856 7.19559,3.14868 16.05566,6.44658 19.68903,7.32865 3.63337,0.88208 6.60613,3.2047 6.60613,5.16136 0,4.43351 -0.84128,4.38205 -15.61449,-0.95481 z m 90.08362,1.25723 c 0,-2.01569 3.93478,-4.85282 9.00836,-6.49542 4.9546,-1.60406 14.0393,-5.43699 20.18824,-8.51765 9.29277,-4.65572 11.6379,-5.04935 13.89318,-2.3319 2.18778,2.63611 -0.67534,4.66278 -14.78325,10.46436 -25.21472,10.36903 -28.30653,11.12057 -28.30653,6.88061 z m -58.25407,-0.89702 c -7.08802,-0.74142 -9.00837,-1.96502 -9.00837,-5.73986 0,-4.1586 1.35979,-4.6992 10.20948,-4.05891 8.48713,0.61408 10.33898,1.65053 10.97711,6.14371 0.42219,2.97275 -0.11843,5.22328 -1.20112,5.0012 -1.0828,-0.22221 -6.02251,-0.82786 -10.9771,-1.34614 z m 29.42731,-4.4528 c 0,-4.58842 1.50728,-5.44451 10.90163,-6.19165 9.78155,-0.77796 10.83053,-0.3709 10.20948,3.962 -0.53106,3.70515 -3.0683,5.1462 -10.90163,6.19167 -9.35027,1.24794 -10.20948,0.91451 -10.20948,-3.96202 z M 313.55033,565.44096 c -22.31141,-21.04745 -23.6795,-23.7305 -16.01072,-31.39928 l 6.00135,-6.00135 19.27958,19.51421 c 10.60375,10.7328 20.64735,19.51417 22.31911,19.51417 1.67176,0 -0.0675,3.24301 -3.8649,7.20669 -3.79744,3.96368 -7.76295,7.20669 -8.81222,7.20669 -1.04927,0 -9.55977,-7.21851 -18.9122,-16.04113 z m 220.39803,9.35136 -6.40922,-6.68978 11.6567,-9.23341 c 6.41117,-5.07836 15.82827,-14.49978 20.92686,-20.93651 l 9.27018,-11.70313 7.06575,7.06575 7.06577,7.06577 -11.26393,13.18457 c -9.85088,11.53056 -27.99501,27.93651 -30.89633,27.93651 -0.55362,0 -3.8907,-3.0104 -7.41578,-6.68977 z M 238.13232,555.31018 c -9.84143,-16.20075 -20.5724,-39.54968 -20.5724,-44.76235 0,-7.76132 6.31796,-2.8682 10.16904,7.87573 2.24955,6.27583 8.85693,19.74059 14.68306,29.92169 9.79771,17.12139 10.96351,21.12569 6.15045,21.12569 -1.00536,0 -5.69893,-6.37234 -10.43015,-14.16076 z m 158.39372,8.28553 c -24.54008,-8.3948 -39.01389,-17.21092 -55.25129,-33.65399 -17.00805,-17.22348 -32.49811,-43.93971 -27.32863,-47.1346 2.22838,-1.37723 4.87254,-0.0281 8.25231,4.2105 4.78022,5.99498 5.61295,6.16857 21.45424,4.47211 13.56477,-1.45267 17.68164,-2.96564 23.26658,-8.55056 3.73208,-3.73208 6.78585,-8.76053 6.78611,-11.17431 4.6e-4,-3.93863 2.31486,-4.38868 22.56854,-4.38868 33.81576,0 32.68224,-1.92919 32.68224,55.6236 v 46.47116 l -7.80724,-0.0615 c -4.29399,-0.0339 -15.37428,-2.65 -24.62286,-5.81381 z m 49.24571,-40.28645 c 0,-57.52694 -0.88279,-55.93308 30.97933,-55.93308 h 20.84859 l 4.39036,9.17293 c 5.02203,10.49261 9.45895,12.68678 30.45915,15.06266 14.57781,1.6493 15.23318,1.4847 20.52806,-5.15572 8.74106,-10.96233 9.98758,-1.57526 1.79072,13.48509 -19.11923,35.12831 -59.12195,63.53271 -96.44826,68.48423 l -12.54795,1.66453 z m 176.55376,43.74307 c -0.82214,-1.33026 0.70097,-5.50228 3.38467,-9.27119 4.17339,-5.86101 21.87612,-40.64856 25.01562,-49.15808 0.69628,-1.88729 1.88145,-2.02171 3.60606,-0.40898 3.04148,2.84415 -7.13117,28.46395 -19.22563,48.41971 -7.87549,12.9945 -10.0787,14.7905 -12.78072,10.41854 z M 344.8781,557.21787 c -22.51778,-18.32208 -35.44164,-34.31896 -31.53203,-39.02973 2.13887,-2.57718 6.94278,0.93053 23.85971,17.42184 15.10222,14.72221 20.53751,21.51055 18.93731,23.65149 -2.95904,3.95899 -4.1543,3.74217 -11.26499,-2.0436 z m 172.74564,1.1841 c -2.67584,-3.2242 -2.44088,-4.18473 1.5295,-6.25286 2.58005,-1.34392 12.40752,-10.41383 21.83887,-20.15533 14.49486,-14.97154 17.60113,-17.16569 20.07745,-14.18188 2.40146,2.89359 1.12138,5.68964 -7.10073,15.51005 -8.82397,10.53925 -22.22331,22.55641 -30.45297,27.31162 -1.50183,0.86778 -4.15329,-0.13644 -5.89212,-2.2316 z M 276.22345,532.28186 c -5.02191,-7.66439 -20.39661,-45.11873 -19.06676,-46.44856 2.43523,-2.43524 6.6984,3.98516 16.78555,25.27931 6.75471,14.25935 10.12394,24.04195 8.75258,25.41331 -1.37136,1.37136 -3.86245,-0.26234 -6.47137,-4.24406 z m 314.97351,3.44167 c -1.49986,-3.89118 16.73698,-45.49665 21.21438,-48.39835 4.42132,-2.86535 4.54057,-0.23614 0.53175,11.72492 -5.79374,17.28679 -19.99037,41.22847 -21.74613,36.67343 z M 292.10707,503.58352 c -6.66898,-14.86389 -7.46827,-20.59285 -2.87305,-20.59285 0.94927,0 4.81679,7.09491 8.59453,15.76646 5.00918,11.49827 6.15089,16.48417 4.21733,18.41773 -1.93353,1.93353 -4.6241,-1.7458 -9.93881,-13.59134 z m 277.9777,11.6347 c -1.81446,-1.81446 11.84287,-30.76937 15.01131,-31.82551 4.33447,-1.44482 2.52804,9.12821 -3.63882,21.29788 -5.76271,11.37218 -8.23725,13.66287 -11.37249,10.52763 z M 265.41791,480.17651 c -11.01564,-6.62836 -10.7631,-6.13602 -5.90226,-11.50719 3.19254,-3.52772 5.37953,-4.15951 8.5412,-2.46745 3.02064,1.6166 5.10272,1.24683 7.19848,-1.27839 2.04036,-2.45852 7.68473,-3.55288 18.32435,-3.55288 h 15.37574 l -3.93502,6.00558 c -2.6511,4.0461 -6.13609,6.00557 -10.68109,6.00557 -3.71036,0 -9.88577,2.64185 -13.72317,5.87081 l -6.97706,5.87081 z m 60.19647,-0.90985 c -1.29598,-3.40872 -2.35635,-7.07999 -2.35635,-8.1584 0,-2.55751 15.88376,-14.67323 17.33459,-13.22238 0.61158,0.61156 3.09849,-1.08314 5.52647,-3.76605 4.41042,-4.87345 4.42193,-4.87081 12.3968,2.85875 8.53671,8.2741 9.65497,12.80074 4.75471,19.24669 -3.15905,4.15555 -7.27477,5.44573 -25.04452,7.85097 -9.39245,1.27131 -10.45361,0.86663 -12.6117,-4.80958 z m 201.89449,3.62103 c -21.68327,-3.14231 -26.57546,-14.95057 -11.46262,-27.66718 7.13061,-6 7.31897,-6.02388 12.32408,-1.56123 2.79555,2.49255 9.13657,6.95692 14.09117,9.92087 4.9546,2.96394 9.00836,5.895 9.00836,6.51348 0,2.83134 -7.51946,15.26665 -9.07005,14.99957 -0.957,-0.1648 -7.65792,-1.1573 -14.89094,-2.20551 z m 64.7989,-3.50037 c -3.26672,-3.47727 -8.32334,-6.00557 -12.01115,-6.00557 -3.68781,0 -8.74443,-2.5283 -12.01115,-6.00557 l -5.64195,-6.00558 h 16.36897 c 12.67949,0 17.04687,0.92709 19.37662,4.11322 2.62768,3.59357 3.52861,3.68089 7.13093,0.69124 3.61936,-3.00382 4.53183,-2.86324 7.46663,1.15038 4.71154,6.44341 4.34717,7.44631 -4.74738,13.06707 -9.98468,6.17088 -9.13989,6.22418 -15.93152,-1.00519 z M 214.02484,463.88331 c -0.77899,-1.26047 -0.72561,-5.04399 0.11867,-8.4078 1.24477,-4.9595 2.98891,-6.11606 9.22329,-6.11606 7.0954,0 18.56395,5.61286 15.80944,7.73734 -10.88799,8.39755 -22.25938,11.46585 -25.15137,6.78652 z m 205.49727,-6.66338 c -8.71772,-10.57613 -9.00426,-13.24777 -2.41355,-22.50358 8.84263,-12.41833 11.84758,-9.31364 11.84758,12.24087 0,10.56981 -0.4618,19.21784 -1.02623,19.21784 -0.5644,0 -4.34792,-4.02981 -8.4078,-8.95513 z m 223.16645,4.94723 c -3.26674,-2.20434 -6.47833,-4.45472 -7.13688,-5.00087 -2.513,-2.08408 8.43005,-7.80684 14.9282,-7.80684 5.16412,0 7.3949,1.54629 9.24289,6.40682 3.91689,10.30223 -5.82668,13.96356 -17.03421,6.40089 z M 250.6809,456.58104 c -1.03339,-7.04104 2.87408,-13.66593 6.13628,-10.40373 2.77976,2.77979 1.69396,12.10873 -1.74116,14.95965 -2.68168,2.22559 -3.52866,1.34763 -4.39512,-4.55592 z m 195.09085,-10.5308 c 0,-21.10787 3.4207,-23.92331 11.80369,-9.7152 5.05754,8.5719 5.05852,8.61397 0.34941,15.22728 -10.73864,15.08103 -12.1531,14.43952 -12.1531,-5.51208 z m 172.1959,16.1572 c -0.90067,-0.90067 -1.63758,-5.207 -1.63758,-9.56962 0,-6.06375 0.84871,-7.60637 3.60334,-6.54932 3.86394,1.48273 4.76182,9.7378 1.6008,14.71765 -1.06092,1.67137 -2.66587,2.30196 -3.56656,1.40129 z m -221.85429,-7.44297 c 6.59636,-6.51872 6.73213,-6.54257 10.26115,-1.80167 3.28567,4.41395 3.1284,4.93144 -1.93495,6.36667 -3.0312,0.85923 -7.64872,1.66999 -10.26115,1.80168 -4.21245,0.21235 -3.99354,-0.50798 1.93495,-6.36668 z m 74.28125,4.91081 c -6.09045,-1.17309 -6.54473,-2.71875 -2.32584,-7.9136 2.53915,-3.12652 3.78029,-2.72917 9.37934,3.00279 6.69722,6.85623 5.90619,7.40694 -7.0535,4.91081 z m -329.66927,-4.91081 c -0.0192,-2.97276 1.04422,-5.40502 2.36545,-5.40502 3.0098,0 3.0098,2.54934 0,7.20669 -1.88303,2.91381 -2.33569,2.56904 -2.36545,-1.80167 z m 23.16979,0.4625 c 0.78964,-2.05777 3.00613,-3.13878 4.92554,-2.40223 1.9194,0.73655 4.00572,1.33917 4.63623,1.33917 0.63054,0 0.47833,1.08101 -0.33824,2.40223 -2.53882,4.10791 -10.85068,2.9011 -9.22353,-1.33917 z m 537.8167,1.50517 c -0.76016,-1.22995 -0.28344,-2.91525 1.05933,-3.74513 2.86675,-1.77176 7.24587,0.47701 7.24587,3.72091 0,2.92303 -6.50192,2.94199 -8.3052,0.0243 z m 27.52304,-3.76934 c 0,-1.98184 1.08101,-3.60335 2.40223,-3.60335 1.32123,0 2.40223,1.62151 2.40223,3.60335 0,1.98184 -1.081,3.60334 -2.40223,3.60334 -1.32122,0 -2.40223,-1.6215 -2.40223,-3.60334 z m -351.12159,-2.81765 c -6.43057,-1.70309 -7.40573,-8.25041 -2.07411,-13.92568 2.67981,-2.85253 4.87238,-6.30042 4.87238,-7.66203 0,-1.36161 1.98654,-4.27345 4.41455,-6.47077 4.12518,-3.73323 4.67628,-3.70587 8.4078,0.41741 5.02102,5.54817 5.14186,16.93981 0.2537,23.91862 -3.59565,5.13354 -7.28221,5.99801 -15.87432,3.72245 z m 103.19286,-2.58737 c -2.00527,-2.31215 -4.28035,-7.5799 -5.05571,-11.70614 -1.11012,-5.90742 -0.19867,-8.64 4.28745,-12.85452 l 5.69727,-5.35229 3.6322,7.0239 c 1.99771,3.86315 5.325,8.4288 7.39394,10.14589 5.16136,4.28354 4.72228,11.4595 -0.88479,14.46032 -6.66441,3.56666 -10.90711,3.08324 -15.07036,-1.71716 z m 99.58069,-0.6057 c -3.11418,-2.52169 -4.82373,-5.89421 -4.03272,-7.95554 1.90487,-4.96404 17.93247,-7.7879 20.57216,-3.62458 3.37495,5.32296 2.37977,7.97493 -4.52272,12.05233 -6.17268,3.64627 -6.96928,3.61497 -12.01672,-0.47221 z m -395.85416,-1.00187 c -3.54257,-2.61442 -4.02746,-4.16415 -1.95969,-6.26324 4.03622,-4.09734 11.66575,-1.80854 11.66575,3.49962 0,5.98827 -3.85089,7.08472 -9.70606,2.76362 z m 93.40374,-0.10474 c -3.56148,-2.51175 -4.76886,-5.24731 -3.85628,-8.73701 1.13025,-4.32211 2.59023,-4.87563 9.78195,-3.70858 10.92998,1.77371 14.40668,5.1394 10.97099,10.62071 -3.46923,5.53481 -10.55165,6.29973 -16.89666,1.82488 z m 400.19969,-0.27241 c -2.60433,-3.13801 -2.55186,-4.16014 0.30641,-5.96878 4.92608,-3.1171 8.44559,-2.7627 11.71764,1.17988 2.27708,2.74371 1.88424,3.95347 -1.95015,6.00558 -6.16415,3.29893 -6.34434,3.27717 -10.0739,-1.21668 z m -364.72431,-5.00418 c -2.99968,-6.58358 -0.7905,-10.30007 6.17638,-10.39044 1.55964,-0.0192 3.18115,-2.46904 3.60334,-5.4418 0.54492,-3.83686 2.6444,-5.62169 7.23641,-6.15189 5.13688,-0.59309 7.239,0.74255 10.20947,6.48684 2.05739,3.97855 3.74071,9.44941 3.74071,12.15747 0,5.15533 -3.46945,6.62506 -5.99453,2.53939 -0.90146,-1.45858 -5.11655,-0.52587 -10.85611,2.40223 -5.16037,2.63263 -9.79254,4.78659 -10.29372,4.78659 -0.50115,0 -2.22105,-2.87477 -3.82195,-6.38839 z m 232.05183,2.55912 c -3.68904,-2.00032 -8.8238,-2.9652 -11.41059,-2.14419 -3.82027,1.21253 -4.70323,0.35613 -4.70323,-4.56166 0,-10.85902 4.93148,-18.29164 12.13632,-18.29164 4.91365,0 6.92234,1.44098 8.0013,5.73991 0.87593,3.48994 3.81611,6.3361 7.50075,7.26091 5.89325,1.4791 5.95827,1.71798 2.36146,8.67347 -4.21721,8.15516 -4.74272,8.28094 -13.88601,3.3232 z m -302.46647,-9.49316 c -2.43005,-5.33336 -2.0393,-6.84045 3.05429,-11.78061 3.21246,-3.11567 9.35407,-6.39497 13.64806,-7.28738 7.20971,-1.49836 7.80724,-1.14829 7.80724,4.5739 0,3.73299 -1.34765,6.19645 -3.38981,6.19645 -1.86437,0 -6.1186,3.24301 -9.45383,7.20669 -7.37117,8.76014 -8.13892,8.83194 -11.66595,1.09095 z m 376.64735,0.76946 c -2.13498,-3.25841 -6.56916,-7.14882 -9.85368,-8.64536 -5.9338,-2.70362 -7.94084,-8.53022 -3.8164,-11.07928 4.83165,-2.98614 17.39478,1.97495 22.24294,8.78356 l 5.06344,7.11096 -4.87724,4.87725 -4.87725,4.87727 z m -267.89713,-0.15447 c -0.0894,-2.36477 -2.34657,-8.58054 -5.01586,-13.81282 -4.56848,-8.95496 -5.48779,-9.51321 -15.66599,-9.51321 -9.20239,0 -11.22024,0.8944 -13.54904,6.00557 -3.1595,6.93435 -4.20993,7.2058 -10.39178,2.68553 -4.14661,-3.03207 -4.28774,-4.41482 -1.62724,-15.94079 9.80004,-42.45607 46.42866,-82.45423 87.66887,-95.73371 8.17897,-2.63366 19.46512,-5.49789 25.08034,-6.36497 l 10.20947,-1.57652 v 57.94008 c 0,63.26056 -0.20923,64.15095 -13.63431,58.03406 -4.60889,-2.09994 -6.94213,-2.10777 -9.44372,-0.0317 -2.54235,2.10997 -4.7155,1.84462 -9.25553,-1.13011 -9.07586,-5.94674 -12.44287,-4.81061 -20.51549,6.92253 -7.50198,10.90375 -10.49326,12.80727 -13.21227,8.40781 -2.37307,-3.8397 -5.07476,-2.80997 -7.87814,3.00278 -2.13733,4.43176 -2.63601,4.63081 -2.76931,1.10541 z m 54.05904,-4.10822 c 2.01143,-7.42683 2.45198,-7.9337 5.89723,-6.78529 1.75394,0.58466 0.88368,3.09273 -2.37907,6.85638 l -5.14467,5.93449 z m 56.58178,0.39481 c -3.37026,-6.11504 -1.78985,-10.05141 2.36673,-5.89483 1.4231,1.4231 2.16854,4.59405 1.65653,7.04653 -0.83543,4.00166 -1.24813,3.88352 -4.02326,-1.1517 z m 34.44082,-8.33341 c -8.2637,-11.37768 -13.88439,-13.50752 -20.30718,-7.69499 -3.51076,3.17721 -5.46058,3.45162 -9.43017,1.32716 -3.50315,-1.87482 -6.39815,-1.93226 -9.65084,-0.19146 -12.25483,6.5586 -12.16907,6.95585 -12.16907,-56.36789 0,-45.50116 0.6813,-58.84658 3.00279,-58.81912 1.65153,0.0192 9.91784,1.66554 18.36959,3.65778 37.48518,8.83602 73.3577,37.13254 90.1055,71.0759 10.24433,20.76257 13.61757,40.20915 7.81068,45.02845 -4.17231,3.4627 -8.78599,1.79584 -8.78599,-3.17426 0,-7.66191 -22.40927,-8.67145 -27.00474,-1.21656 -2.50197,4.05879 -21.24291,17.06765 -23.86985,16.56905 -0.42534,-0.0807 -4.05717,-4.66806 -8.07072,-10.19406 z m -219.71335,-4.76895 c 0,-16.82681 19.46472,-67.28005 24.14919,-62.59558 1.59155,1.59155 0.30071,6.96882 -3.8485,16.03188 -3.43379,7.50041 -8.03111,22.28328 -10.21625,32.85083 -2.45337,11.86486 -5.14173,19.21373 -7.02871,19.21373 -1.68064,0 -3.05573,-2.4754 -3.05573,-5.50086 z m 312.28988,4.74094 c 0,-7.48352 -6.90187,-33.3209 -12.51893,-46.86505 -4.9189,-11.86075 -6.50608,-18.38895 -4.86889,-20.02614 4.5228,-4.5228 19.52838,33.68884 23.02881,58.64275 0.95626,6.81698 0.42382,9.00836 -2.18867,9.00836 -1.89877,0 -3.45232,-0.34195 -3.45232,-0.75992 z M 251.19113,406.67159 c 0,-12.25704 24.09716,-72.61917 28.99028,-72.61917 4.6775,0 4.21937,5.05162 -1.34011,14.77698 -5.58446,9.76903 -15.77352,38.12286 -19.07668,53.08601 -1.26708,5.73982 -8.57349,9.79308 -8.57349,4.75618 z m 364.0269,-1.15283 c -0.52868,-1.65154 -2.75769,-9.48881 -4.95333,-17.41617 -2.19561,-7.92736 -7.69487,-22.44665 -12.22052,-32.26507 -10.57553,-22.94365 -7.11166,-28.13676 4.67168,-7.00389 7.93327,14.22795 18.41867,45.78647 18.41867,55.43573 0,4.84628 -4.46334,5.7888 -5.9165,1.2494 z m 44.21369,-7.28207 c -7.02122,-26.62714 -8.28664,-33.40337 -6.44992,-34.53852 3.72411,-2.30162 6.22456,2.18682 9.83137,17.64772 2.95592,12.67089 2.97199,15.03106 0.10978,16.12936 -1.84402,0.70763 -3.41508,1.05026 -3.49126,0.76144 z m -450.65123,-5.9302 c 0.63428,-2.31214 2.43643,-9.87917 4.00483,-16.81561 1.90336,-8.41808 4.06325,-12.6117 6.49548,-12.6117 2.62943,0 3.21918,1.50478 2.11831,5.40501 -0.8391,2.97276 -2.67625,10.53979 -4.08259,16.81561 -1.6448,7.34011 -3.8291,11.4106 -6.12311,11.4106 -2.2342,0 -3.13544,-1.57017 -2.41292,-4.20391 z m 338.4264,-47.03609 c -5.59013,-7.00555 -15.04293,-16.3931 -21.00623,-20.8612 -9.33266,-6.99268 -10.37047,-8.59569 -7.45347,-11.51269 4.4253,-4.42529 7.79274,-2.4331 25.88377,15.31282 17.70959,17.37178 20.51953,22.01874 16.02945,26.50885 -2.78469,2.78466 -4.84974,1.33449 -13.45352,-9.44778 z m -235.10162,6.77184 c -1.67942,-4.37653 11.90173,-21.55168 26.5025,-33.51591 11.3724,-9.31885 13.97325,-10.08399 17.95773,-5.28294 2.06265,2.48533 1.24527,3.97403 -3.60829,6.57157 -3.45131,1.84707 -13.04517,10.67063 -21.31972,19.60793 -8.27456,8.93728 -15.74093,16.2496 -16.59192,16.2496 -0.85099,0 -2.17413,-1.63361 -2.9403,-3.63025 z M 297.25223,338.1015 c -2.87275,-3.05792 -5.22319,-6.92599 -5.22319,-8.59568 0,-1.66972 8.76194,-11.69245 19.47096,-22.27273 l 19.47099,-19.23687 6.95354,6.66194 c 3.82447,3.66405 6.95357,7.33977 6.95357,8.16825 0,0.82848 -4.59427,4.96988 -10.20948,9.20309 -5.61521,4.23323 -14.53349,13.02837 -19.8184,19.54476 -5.2849,6.51638 -10.23124,11.90177 -10.99185,11.96752 -0.7606,0.0658 -3.73336,-2.38236 -6.60614,-5.44028 z m 252.22347,-15.47694 -20.01086,-20.50808 6.03512,-6.03515 c 5.64697,-5.64697 6.39865,-5.79694 11.68699,-2.33186 7.05941,4.62549 27.63422,25.23878 32.52425,32.58504 3.38207,5.08091 3.23905,5.93954 -1.90074,11.41059 -3.05691,3.25392 -6.18034,5.79728 -6.94093,5.65187 -0.76062,-0.14533 -10.38785,-9.49298 -21.39383,-20.77241 z M 247.09204,287.93398 c -34.98153,-34.98151 -36.69819,-36.33877 -41.01723,-32.43011 -2.47922,2.24369 -5.14349,4.07942 -5.92059,4.07942 -2.15914,0 -31.34076,-88.98138 -29.71483,-90.6073 1.37213,-1.37213 87.11417,26.50433 89.80834,29.1985 0.728,0.72797 -0.68158,3.53933 -3.13238,6.24743 -4.41002,4.873 -4.07575,5.30468 32.38803,41.82547 l 36.84404,36.90166 -9.11853,8.03553 c -5.01518,4.41953 -10.91215,9.30578 -13.10441,10.85832 -2.19225,1.55254 -7.03855,7.2278 -10.7696,12.61171 -3.73105,5.3839 -7.45189,9.78889 -8.26852,9.78889 -0.81664,0 -17.9141,-16.42928 -37.99432,-36.50952 z m 321.58846,15.45969 -20.02396,-20.52112 36.49888,-36.55593 36.49886,-36.55596 -3.95261,-6.03243 -3.9526,-6.03243 45.73175,-15.41364 c 29.28357,-9.86988 45.73175,-14.35578 45.73175,-12.47243 0,3.94475 -28.02417,87.36948 -30.01961,89.36492 -0.86333,0.86336 -2.62335,-0.31301 -3.91114,-2.61415 -1.28779,-2.30115 -3.65249,-4.1839 -5.25488,-4.1839 -1.6024,0 -19.10147,16.21506 -38.88684,36.03345 -19.78536,19.8184 -36.52739,35.91449 -37.20453,35.76909 -0.67712,-0.14534 -10.24191,-9.49885 -21.25507,-20.78547 z m -328.05384,14.24047 c -2.14786,-3.47533 5.27363,-17.79709 8.26456,-15.9486 3.44933,2.13181 2.70106,6.48283 -2.21424,12.87526 -2.82934,3.67964 -4.99555,4.77998 -6.05032,3.07334 z m 384.45898,-5.25992 c -5.29103,-8.95705 -0.36581,-12.68481 5.93402,-4.49126 5.31704,6.91537 5.51804,8.46001 1.31082,10.07447 -1.83345,0.70357 -4.94979,-1.69804 -7.24484,-5.58321 z M 355.83935,300.66587 c -1.71312,-2.77189 21.22375,-15.12055 35.28167,-18.99482 7.41093,-2.0424 9.00836,-1.86463 9.00836,1.00245 0,1.91682 -1.89175,4.13499 -4.2039,4.92928 -4.19295,1.4404 -30.55415,11.98703 -35.79046,14.31907 -1.5179,0.67601 -3.45095,0.11074 -4.29567,-1.25598 z m 138.01135,-6.40202 c -19.61185,-8.77935 -25.54952,-14.91876 -11.76667,-12.16645 12.34899,2.46599 38.70621,15.49148 36.98444,18.27737 -2.20275,3.56409 -5.26024,2.82319 -25.21777,-6.11092 z m -86.12604,-3.70945 c 0.6911,-4.8888 2.33816,-5.85807 11.02201,-6.48638 8.94244,-0.64699 10.20947,-0.12515 10.20947,4.2039 0,2.71844 -1.48638,4.94259 -3.30306,4.94259 -1.81669,0 -6.7766,0.6947 -11.02201,1.5438 -7.10618,1.42123 -7.65447,1.08751 -6.90641,-4.20391 z m 44.65322,3.34175 c -4.6597,-0.7059 -6.60613,-2.41004 -6.60613,-5.78378 0,-4.14147 1.36942,-4.68394 10.20948,-4.04435 8.48712,0.61408 10.33898,1.65053 10.97711,6.14371 0.80145,5.64312 -0.11771,5.87534 -14.58046,3.68442 z M 336.4499,281.17036 c -1.97096,-3.18906 -2.67265,-2.52376 10.83043,-10.26848 10.1627,-5.82882 44.61553,-18.52528 50.26983,-18.52528 1.41856,0 2.57922,1.49318 2.57922,3.31818 0,1.95006 -4.66755,4.49347 -11.32058,6.16871 -8.7943,2.21442 -34.59662,13.32205 -49.11558,21.14371 -0.86985,0.4686 -2.32935,-0.35798 -3.24332,-1.83684 z m 187.60725,-3.4877 c -5.16777,-3.17515 -18.41006,-8.70523 -29.42731,-12.28909 -12.7525,-4.14834 -20.03133,-7.76658 -20.03133,-9.95741 0,-4.53825 10.1199,-2.416 32.4301,6.8009 21.30511,8.80167 33.07964,15.9719 31.20612,19.0033 -2.06224,3.33679 -3.57344,2.95757 -14.17758,-3.5577 z M 407.33607,266.78998 c 0,-8.35361 0.70612,-9.61319 5.40502,-9.64171 2.97276,-0.0192 7.83728,-0.68463 10.81003,-1.48131 4.94737,-1.32584 5.40502,-0.63291 5.40502,8.18361 0,10.4441 -2.44991,12.54833 -14.60986,12.54833 -6.57708,0 -7.01021,-0.59366 -7.01021,-9.60892 z m 41.43847,8.01797 c -1.70563,-0.68824 -3.00279,-5.39713 -3.00279,-10.90055 0,-8.87547 0.45378,-9.56731 5.40502,-8.24044 2.97276,0.79668 7.83727,1.46327 10.81003,1.48131 4.69891,0.0286 5.40502,1.2881 5.40502,9.64171 0,9.27826 -0.26867,9.60239 -7.80725,9.41927 -4.29398,-0.10426 -9.1585,-0.73489 -10.81003,-1.4013 z m 104.497,-31.60087 c -7.59706,-4.57604 -13.81283,-9.78991 -13.81283,-11.58641 0,-1.79649 0.84458,-3.26636 1.87684,-3.26636 3.29137,0 29.35215,17.1014 29.35215,19.26122 0,4.59986 -4.24426,3.52553 -17.41616,-4.40845 z m -250.26748,4.632 c -2.10591,-3.40744 27.72954,-20.17678 30.66867,-17.23766 2.90283,2.90283 3.7488,2.09199 -12.25245,11.74386 -13.37663,8.06873 -16.28806,8.93723 -18.41622,5.4938 z m 104.33201,-39.45124 v -42.1871 l -6.94479,-0.75276 -6.94483,-0.75277 17.62884,-34.83233 17.62881,-34.832335 0.12612,76.270805 c 0.10449,63.17422 -0.44115,76.27079 -3.17705,76.27079 -1.81668,0 -6.6812,0.67563 -10.81003,1.5014 l -7.50697,1.50139 z m 45.04181,39.86594 -6.60613,-1.00075 v -75.51068 c 0,-41.53088 0.43199,-75.510695 0.95998,-75.510695 0.72288,0 29.84062,56.989935 34.67309,67.863005 0.44042,0.99092 -2.53234,1.80167 -6.60613,1.80167 h -7.40687 v 42.03902 c 0,46.27399 1.29759,42.78941 -15.01394,40.31843 z m -86.60574,-28.63295 c -3.6099,-3.60988 -1.10229,-5.23998 13.83144,-8.99121 18.84124,-4.73275 20.5258,-4.78394 20.5258,-0.62367 0,2.02093 -4.82144,4.24837 -12.6117,5.82637 -6.93644,1.40509 -14.28969,3.20943 -16.34052,4.00971 -2.05086,0.80025 -4.48312,0.7007 -5.40502,-0.22125 z m 123.84031,-2.76333 c -9.79572,-2.44797 -15.01394,-4.96356 -15.01394,-7.2379 0,-2.63945 1.86401,-3.11312 7.67637,-1.95066 18.11726,3.62346 25.95485,6.63347 25.95485,9.96791 0,4.05732 0.88546,4.09439 -18.61728,-0.77935 z"
       id="path1" /></g></svg>
