<?xml version="1.0" encoding="UTF-8" standalone="no"?>
<svg
   xml:space="preserve"
   width="872"
   height="889"
   viewBox="0 0 872 889"
   version="1.1"
   id="svg1"
   sodipodi:docname="military.svg"
   inkscape:version="1.4.2 (f4327f4, 2025-05-13)"
   xmlns:inkscape="http://www.inkscape.org/namespaces/inkscape"
   xmlns:sodipodi="http://sodipodi.sourceforge.net/DTD/sodipodi-0.dtd"
   xmlns="http://www.w3.org/2000/svg"
   xmlns:svg="http://www.w3.org/2000/svg"><defs
     id="defs1" /><sodipodi:namedview
     id="namedview1"
     pagecolor="#ffffff"
     bordercolor="#000000"
     borderopacity="0.25"
     inkscape:showpageshadow="2"
     inkscape:pageopacity="0.0"
     inkscape:pagecheckerboard="0"
     inkscape:deskcolor="#d1d1d1"
     inkscape:zoom="1.3127109"
     inkscape:cx="436.12039"
     inkscape:cy="444.5"
     inkscape:window-width="3440"
     inkscape:window-height="1369"
     inkscape:window-x="1737"
     inkscape:window-y="1432"
     inkscape:window-maximized="1"
     inkscape:current-layer="svg1" /><path
     d="m351.416 733.115-82.388-82.428v-85.804l83.156 83.156 83.156 83.156-.768 42.174-.768 42.175zm97.62 38.178v-42.008l81.695-81.682 81.696-81.682v85.986l-72.696 72.668c-39.982 39.967-76.745 76.28-81.695 80.697l-9 8.03zm-97.637-146.205-82.371-82.405.014-42.908.014-42.908 83.067 83.175 83.068 83.175v42.138c0 23.176-.32 42.138-.71 42.138s-37.776-37.082-83.08-82.405zm97.636 38.542v-41.772l81.696-81.84 81.696-81.84v85.748l-76.895 76.937c-42.292 42.315-79.055 78.648-81.696 80.738-4.51 3.571-4.8 1.276-4.8-37.971m-307.397 1.586c0-.513 3.05-11.423 6.778-24.245 3.727-12.821 6.531-23.463 6.23-23.648s-8.915-6.676-19.143-14.424l-18.597-14.087 24.717-1.934 24.716-1.933 7.263-21.807c3.994-11.993 8.186-21.806 9.316-21.806s5.03 9.487 8.666 21.082 7.906 21.477 9.488 21.961 12.818 1.723 24.969 2.753c24.97 2.118 25.615.476-10.576 26.93-5.474 4.001-5.322 5.19 4.988 38.84 4.599 15.011 5.582 15.15-19.818-2.792l-17.16-12.121-11.918 7.748c-6.555 4.261-13.573 9.316-15.596 11.233-4.021 3.81-14.323 9.744-14.323 8.25m517.868-1.21c0-1.223 2.492-10.94 5.538-21.593 3.047-10.652 5.54-20.853 5.54-22.67 0-1.815-8.125-9.297-18.055-16.624l-18.053-13.323 24.19-2.77 24.19-2.769 8.098-21.536c4.455-11.844 8.857-20.777 9.783-19.852s4.801 10.617 8.612 21.536l6.928 19.852 24.285 2.77 24.285 2.769-18.054 13.323c-9.93 7.327-18.054 14.509-18.054 15.959s2.493 11.63 5.539 22.622c3.046 10.993 5.539 20.98 5.539 22.192 0 1.213-8.883-4.033-19.74-11.658-10.858-7.625-21.139-13.072-22.848-12.106-1.708.967-10.895 7.236-20.415 13.931-9.52 6.696-17.308 11.172-17.308 9.948m-308.09-146.9-82.388-82.428v-85.804l83.156 83.156 83.156 83.156-.768 42.174-.768 42.175zm97.62 38.41v-41.204l81.003-81.067 81.003-81.068.766 42.293.767 42.294-79.988 79.977c-43.993 43.988-80.79 79.978-81.77 79.978s-1.782-18.541-1.782-41.203m-350.442-64.58c3.984-11.957 12.581-41.943 12.581-43.885 0-1.27-8.1-8.304-18-15.632s-18.001-14.209-18.001-15.292 10.83-2.33 24.069-2.77l24.07-.8 6.956-21.462c3.826-11.804 7.849-21.462 8.94-21.462s4.122 6.542 6.736 14.539c9.879 30.227 9.328 29.77 35.92 29.77 12.907 0 23.42.935 23.36 2.077-.058 1.143-8.781 8.266-19.384 15.829s-19.26 13.794-19.237 13.847c2.916 6.674 13.31 44.437 12.464 45.283-.676.677-9.919-4.706-20.539-11.962l-19.308-13.193-17.485 12.352c-22.934 16.203-24.595 17.12-23.142 12.76m602.493 2.689c.023-.416 3.139-10.726 6.923-22.911s6.882-23.014 6.882-24.063c0-1.05-8.1-7.904-18-15.232s-18-14.257-18-15.4c0-1.142 10.502-2.077 23.34-2.077h23.34l5.657-15.118c3.11-8.316 6.45-18.285 7.422-22.155 2.81-11.194 5.818-8.363 12.386 11.657 3.373 10.281 7.366 20.25 8.873 22.155 1.801 2.276 10.924 3.493 26.632 3.553 22.957.09 23.67.279 18.178 4.847-7.27 6.048-23.314 18.744-29.52 23.36-4.483 3.333-4.356 4.97 2.077 26.946 3.767 12.868 6.85 23.784 6.85 24.257s-9.172-5.516-20.382-13.309l-20.38-14.169-12.16 7.887c-6.687 4.337-12.782 8.55-13.543 9.361-1.992 2.121-16.624 11.312-16.575 10.41m-351.411-83.5-81.324-81.359 1.294-35.646c1.033-28.46 2.584-38.98 7.692-52.19 20.132-52.051 63.07-86.964 124.273-101.045 14.28-3.285 27.676-5.316 29.77-4.512 2.752 1.056 3.808 7.094 3.808 21.778v20.317l-20.754 3.487c-27.947 4.696-55.019 18.568-72.68 37.241-16.982 17.956-24.191 31.53-28.165 53.03-6.338 34.285-10.032 28.189 59.288 97.846l62.31 62.613v29.9c0 16.444-.942 29.899-2.094 29.899s-38.69-36.611-83.418-81.359m99.36 50.855v-31.853l61.14-60.902 61.14-60.902-1.072-22.155c-1.379-28.479-10.393-48.926-29.977-68.002-21.079-20.532-47.218-33.084-77.59-37.262l-13.642-1.876v-44.276l11.77 1.954c63.829 10.597 111.29 40.305 134.77 84.358 13.218 24.801 16.781 41.236 16.819 77.583l.033 31.865-81.696 81.661-81.695 81.66zm-42.753-140.503c3.667-11.804 6.63-22.709 6.583-24.232s-8.367-9-18.49-16.616l-18.405-13.847 23.09-1.384c24.605-1.476 24.267-1.269 31.7-19.386 3.718-9.065 3.99-6.983 4.202 32.139l.226 41.831-16.364 11.479c-9 6.313-17.004 11.478-17.787 11.478s1.578-9.658 5.245-21.462m58.44 10.237-15.688-11.234.196-39.311.195-39.31 5.183 11.659 5.183 11.66 23.976.802 23.975.802-19.369 14.435-19.37 14.435 6.612 22.74c3.636 12.508 6.203 23.15 5.704 23.649s-7.968-4.148-16.596-10.327zm-323.085-11.622c0-.38 3.097-10.662 6.882-22.847s6.9-22.382 6.923-22.66-8.884-7.131-19.793-15.23l-19.836-14.727 24.099-1.385c27.407-1.575 26.522-.867 35.495-28.393 3.352-10.284 6.942-17.762 7.977-16.616s4.045 8.938 6.69 17.315c8.514 26.97 9.42 27.694 34.707 27.694 12.15 0 22.091.977 22.091 2.172s-3.427 4.27-7.615 6.832c-4.19 2.563-12.447 8.806-18.351 13.875l-10.735 9.216 6.956 22.723c3.826 12.498 6.164 22.71 5.196 22.694s-9.77-5.625-19.56-12.462c-9.79-6.838-18.747-12.433-19.903-12.433s-10.293 5.608-20.305 12.463c-16.539 11.323-20.919 13.787-20.918 11.77m517.889-1.384c.011-1.143 2.494-10.178 5.517-20.078s5.45-19.87 5.392-22.155-8.387-10.385-18.508-18l-18.401-13.847 19.22-.705c31.004-1.136 30.302-.67 38.605-25.6 4.058-12.187 7.733-22.159 8.166-22.159.432 0 4.28 9.658 8.55 21.462s9.11 22.378 10.756 23.497c1.645 1.12 12.65 2.054 24.454 2.077s21.41.978 21.346 2.12-8.112 7.685-17.884 14.539-17.82 14.138-17.884 16.186 2.517 12.396 5.736 22.994c3.22 10.599 5.322 19.802 4.673 20.45-.649.65-9.825-4.8-20.392-12.11l-19.212-13.292-18.387 13.349c-18.452 13.395-21.786 15.123-21.747 11.272"
     style="fill:#000;stroke-width:2.76935"
     id="path1" /></svg>
