<?xml version="1.0" encoding="UTF-8" standalone="no"?>
<!-- Created with Inkscape (http://www.inkscape.org/) -->

<svg
   version="1.1"
   id="svg1"
   width="872"
   height="889"
   viewBox="0 0 872 889"
   sodipodi:docname="military.svg"
   inkscape:version="1.4.2 (f4327f4, 2025-05-13)"
   xml:space="preserve"
   xmlns:inkscape="http://www.inkscape.org/namespaces/inkscape"
   xmlns:sodipodi="http://sodipodi.sourceforge.net/DTD/sodipodi-0.dtd"
   xmlns="http://www.w3.org/2000/svg"
   xmlns:svg="http://www.w3.org/2000/svg"><defs
     id="defs1" /><sodipodi:namedview
     id="namedview1"
     pagecolor="#ffffff"
     bordercolor="#000000"
     borderopacity="0.25"
     inkscape:showpageshadow="2"
     inkscape:pageopacity="0.0"
     inkscape:pagecheckerboard="true"
     inkscape:deskcolor="#d1d1d1"
     inkscape:zoom="0.92822679"
     inkscape:cx="-63.562053"
     inkscape:cy="502.57114"
     inkscape:window-width="3424"
     inkscape:window-height="1353"
     inkscape:window-x="579"
     inkscape:window-y="217"
     inkscape:window-maximized="0"
     inkscape:current-layer="g1" /><g
     inkscape:groupmode="layer"
     inkscape:label="Image"
     id="g1"><circle
       style="fill:none;stroke:#000000;stroke-width:18;stroke-dasharray:none;stroke-opacity:1"
       id="path2"
       cx="438.49911"
       cy="448.88046"
       r="417.83762" /><path
       style="fill:#000000;stroke-width:2.76935"
       d="m 351.41599,733.11548 -82.38802,-82.4282 v -42.90209 -42.90211 l 83.1558,83.1558 83.15577,83.15576 -0.76775,42.17453 -0.76777,42.1745 z m 97.61943,38.17776 v -42.00856 l 81.69568,-81.68172 81.6957,-81.68174 v 42.99303 42.99303 l -72.69532,72.6673 c -39.98243,39.96703 -76.74548,76.28079 -81.69568,80.69725 l -9.00038,8.02998 z m -97.63674,-146.20537 -82.37071,-82.40506 0.0139,-42.90782 0.0139,-42.90783 83.06756,83.17492 83.06757,83.17493 v 42.13794 c 0,23.17588 -0.31932,42.13797 -0.70965,42.13797 -0.3903,0 -37.77647,-37.08227 -83.08036,-82.40505 z m 97.63674,38.54181 v -41.77212 l 81.69568,-81.84016 81.6957,-81.84017 v 42.87426 42.87429 l -76.89476,76.9372 c -42.29211,42.31549 -79.05517,78.64758 -81.69568,80.738 -4.51082,3.57109 -4.80094,1.2765 -4.80094,-37.9713 z m -307.39734,1.58592 c 0,-0.51258 3.04989,-11.4225 6.77753,-24.24424 3.72765,-12.82173 6.53162,-23.46364 6.23103,-23.64868 -0.30059,-0.18499 -8.91521,-6.67568 -19.14365,-14.42361 l -18.59716,-14.08719 24.71683,-1.93358 24.7168,-1.93356 7.26216,-21.80627 c 3.99417,-11.99346 8.18659,-21.80627 9.31649,-21.80627 1.12989,0 5.02954,9.48673 8.66589,21.08159 3.63632,11.59488 7.9059,21.47752 9.48792,21.96144 1.58204,0.4839 12.81794,1.72283 24.96869,2.75314 24.97094,2.11741 25.61584,0.47522 -10.57585,26.92939 -5.47406,4.00123 -5.3214,5.18986 4.98826,38.84081 4.59885,15.01071 5.58178,15.14921 -19.81816,-2.79252 l -17.16026,-12.12145 -11.91787,7.74815 c -6.55484,4.2615 -13.57284,9.3163 -15.59554,11.23289 -4.02154,3.81056 -14.32311,9.74416 -14.32311,8.24996 z m 517.86759,-1.20876 c 0,-1.22417 2.49241,-10.94124 5.53869,-21.59353 3.04628,-10.65229 5.5387,-20.85362 5.5387,-22.66964 0,-1.81603 -8.12414,-9.29722 -18.05362,-16.62488 l -18.05364,-13.32304 24.1897,-2.76935 24.18973,-2.76935 8.09902,-21.53559 c 4.45449,-11.84457 8.85667,-20.77795 9.78265,-19.85197 0.92599,0.92599 4.80138,10.61698 8.61197,21.53559 l 6.92838,19.85197 24.28464,2.76935 24.28467,2.76935 -18.05364,13.32304 c -9.9295,7.32766 -18.05362,14.5091 -18.05362,15.95877 0,1.44966 2.49242,11.62995 5.5387,22.62281 3.04627,10.99285 5.53869,20.97921 5.53869,22.19184 0,1.21264 -8.88309,-4.03358 -19.74023,-11.65822 -10.85711,-7.62468 -21.13831,-13.07217 -22.8471,-12.10556 -1.70877,0.96661 -10.89565,7.23547 -20.41528,13.9308 -9.51962,6.69534 -17.30841,11.17177 -17.30841,9.94761 z M 351.41599,517.10655 269.02797,434.67834 v -42.90208 -42.90212 l 83.1558,83.15579 83.15577,83.15578 -0.76775,42.17452 -0.76777,42.1745 z m 97.61943,38.4091 v -41.20346 l 81.00335,-81.06745 81.00336,-81.0675 0.76624,42.29316 0.76628,42.2932 -79.98736,79.97776 c -43.99305,43.98776 -80.78937,79.97775 -81.7696,79.97775 -0.98024,0 -1.78227,-18.54155 -1.78227,-41.20346 z M 98.593593,490.93549 c 3.984587,-11.95629 12.581687,-41.94237 12.581687,-43.88411 0,-1.26994 -8.10031,-8.30435 -18.000707,-15.63201 -9.90039,-7.32768 -18.00073,-14.20918 -18.00075,-15.29223 0,-1.08304 10.83111,-2.32925 24.06912,-2.76935 l 24.069157,-0.80015 6.95649,-21.46243 c 3.82607,-11.80433 7.84927,-21.46243 8.94041,-21.46243 1.09118,0 4.12226,6.54259 6.73572,14.53907 9.87908,30.22724 9.32795,29.77046 35.91999,29.77046 12.90758,0 23.42013,0.93466 23.36123,2.07701 -0.059,1.14235 -8.78235,8.26525 -19.38542,15.82864 -10.60308,7.56338 -19.25963,13.79441 -19.23676,13.84673 2.91625,6.67434 13.31083,44.43738 12.46465,45.28356 -0.67674,0.67677 -9.91937,-4.7064 -20.53915,-11.96258 l -19.30868,-13.19305 -17.48435,12.35274 C 98.802263,494.37828 97.140963,495.2943 98.593593,490.93549 Z m 602.493827,2.68934 c 0.0222,-0.4159 3.1382,-10.72582 6.92298,-22.91094 3.78478,-12.18511 6.88159,-23.01354 6.88179,-24.06312 2.2e-4,-1.0496 -8.09992,-7.90374 -18.00033,-15.2314 -9.90038,-7.32768 -18.00071,-14.2577 -18.00075,-15.40005 0,-1.14235 10.5032,-2.07701 23.34043,-2.07701 H 725.572 l 5.65661,-15.1186 c 3.11112,-8.31521 6.45128,-18.28486 7.42254,-22.15477 2.80948,-11.19382 5.81735,-8.36294 12.38576,11.65693 3.3732,10.2812 7.36602,20.25083 8.8729,22.15477 1.8013,2.27587 10.92424,3.49324 26.63249,3.55381 22.95701,0.0886 23.6689,0.27832 18.17798,4.84635 -7.26975,6.04792 -23.31415,18.7439 -29.52047,23.35968 -4.48244,3.33368 -4.35627,4.97072 2.07701,26.94651 3.76717,12.86845 6.8494,23.78424 6.8494,24.2573 0,0.47304 -9.17147,-5.51598 -20.38107,-13.30892 l -20.38104,-14.16899 -12.15876,7.88654 c -6.6873,4.33757 -12.78186,8.55008 -13.54343,9.36108 -1.99204,2.12134 -16.62405,11.31205 -16.5745,10.41083 z m -351.41166,-83.49962 -81.32371,-81.35877 1.29384,-35.64607 c 1.03299,-28.45985 2.58372,-38.98122 7.69216,-52.18959 20.13154,-52.05178 63.06946,-86.96457 124.27252,-101.04575 14.27955,-3.28534 27.67626,-5.31583 29.77046,-4.51222 2.75187,1.05597 3.80766,7.09467 3.80766,21.7781 v 20.31699 l -20.75345,3.4872 c -27.94701,4.69592 -55.01916,18.56776 -72.67986,37.24138 -16.98207,17.95599 -24.19142,31.5293 -28.1658,53.02867 -6.33799,34.28541 -10.03181,28.18937 59.28885,97.84662 l 62.31026,62.61288 v 29.89965 c 0,16.44482 -0.94257,29.89969 -2.09462,29.89969 -1.15202,0 -38.69028,-36.61145 -83.41831,-81.35878 z m 99.35966,50.85477 V 429.1265 l 61.14064,-60.90198 61.14063,-60.902 -1.07273,-22.15477 c -1.37894,-28.47876 -10.39266,-48.92599 -29.97711,-68.00186 -21.07887,-20.53145 -47.21745,-33.0842 -77.58947,-37.26143 l -13.64196,-1.87625 v -22.13832 -22.13831 l 11.76971,1.9541 c 63.82866,10.59726 111.28912,40.30499 134.7694,84.35852 13.21895,24.80129 16.7819,41.23625 16.81939,77.58322 l 0.033,31.86506 -81.69568,81.66048 -81.6957,81.6605 z M 406.2834,320.47691 c 3.66708,-11.80434 6.62924,-22.70863 6.58257,-24.23177 -0.0465,-1.52314 -8.36719,-9.00038 -18.49009,-16.61608 l -18.40523,-13.84672 23.09074,-1.38468 c 24.60431,-1.47543 24.26617,-1.26867 31.6989,-19.38542 3.71904,-9.06495 3.99123,-6.98349 4.2025,32.13856 l 0.22598,41.83127 -16.36392,11.47863 c -9.00023,6.31325 -17.00408,11.47863 -17.78642,11.47863 -0.78234,0 1.57791,-9.65809 5.24497,-21.46242 z m 58.4405,10.23711 -15.68848,-11.23427 0.19551,-39.31078 0.19552,-39.31075 5.18275,11.65956 5.18272,11.65958 23.97572,0.80247 23.97574,0.80251 -19.36933,14.43465 -19.3693,14.43469 6.61137,22.74065 c 3.63623,12.50735 6.20292,23.14909 5.70372,23.64833 -0.4992,0.4992 -7.96746,-4.14779 -16.59613,-10.32664 z M 141.63847,319.09223 c 1.9e-4,-0.38078 3.09702,-10.66198 6.8818,-22.84709 3.78478,-12.18513 6.90012,-22.38188 6.92297,-22.65949 0.0222,-0.27757 -8.88429,-7.13169 -19.79365,-15.2314 l -19.83518,-14.72668 24.09815,-1.38468 c 27.40729,-1.57481 26.52279,-0.8673 35.49523,-28.39243 3.3526,-10.28482 6.94235,-17.76205 7.97729,-16.61608 1.03495,1.14602 4.0454,8.93779 6.6899,17.31506 8.51373,26.96983 9.42063,27.69345 34.7073,27.69345 12.15,0 22.09092,0.97753 22.09092,2.17225 0,1.19475 -3.42706,4.26901 -7.61569,6.83168 -4.18864,2.56269 -12.44649,8.80652 -18.35077,13.87519 l -10.73509,9.21577 6.95613,22.7234 c 3.82585,12.49786 6.16422,22.70996 5.19637,22.6935 -0.96786,-0.0166 -9.77001,-5.62434 -19.56033,-12.46205 -9.79033,-6.83768 -18.74656,-12.43217 -19.9027,-12.43217 -1.15618,0 -10.29332,5.60792 -20.30482,12.46206 -16.53897,11.32304 -20.91894,13.78748 -20.91783,11.76971 z m 517.88835,-1.38467 c 0.0114,-1.14235 2.49452,-10.17734 5.51754,-20.07776 3.02301,-9.9004 5.44902,-19.87005 5.39114,-22.15476 -0.0579,-2.28471 -8.38605,-10.38504 -18.50704,-18.00075 l -18.4018,-13.84672 19.22054,-0.70433 c 31.00395,-1.13614 30.30228,-0.67087 38.60436,-25.59974 4.05889,-12.1877 7.73362,-22.15947 8.16608,-22.15947 0.43249,0 4.27995,9.65808 8.54994,21.46242 4.27,11.80434 9.11021,22.378 10.756,23.49704 1.6458,1.11904 12.65046,2.05369 24.45478,2.07701 11.80434,0.0222 21.40982,0.97705 21.34548,2.1194 -0.0643,1.14236 -8.11202,7.68494 -17.88379,14.53907 -9.77178,6.85413 -17.81949,14.13789 -17.8838,16.18615 -0.0643,2.04828 2.51695,12.39568 5.73618,22.99425 3.2192,10.59855 5.32202,19.80123 4.67288,20.45037 -0.64914,0.6491 -9.82562,-4.80086 -20.39218,-12.11105 L 699.66117,293.08741 681.27359,306.436 c -18.45193,13.39526 -21.78601,15.12333 -21.74677,11.27156 z"
       id="path1" /></g></svg>
