<svg xmlns="http://www.w3.org/2000/svg" xml:space="preserve" width="872" height="1209" viewBox="0 0 872 1209"><circle cx="438.499" cy="780.88" r="417.838" style="fill:none;stroke:#000;stroke-width:18;stroke-dasharray:none;stroke-opacity:1"/><path d="M95.136 520.7c-3.252-7.838-6.121-15.923-6.377-17.967s-2.711-10.408-5.456-18.586c-9.013-26.855-11.632-49.804-11.594-101.602.037-51.585 2.274-70.936 11.744-101.602 2.947-9.54 5.501-18.461 5.678-19.824.683-5.282 15.904-40.415 22.012-50.808 2.805-4.774 7.889-14.04 11.296-20.59 3.408-6.552 10.098-16.827 14.869-22.836a1595 1595 0 0 0 17.346-22.344c11.187-14.73 46.518-48.387 61.476-58.563 6.395-4.351 12.186-8.677 12.867-9.613 3.54-4.86 53.867-31.997 73.104-39.417 2.726-1.052 7.744-3.132 11.152-4.624s20.84-6.499 38.74-11.127l32.547-8.415 59.143.523c45.643.403 62.68 1.453 74.632 4.6a2689 2689 0 0 0 30.078 7.7c8.025 1.994 20.778 6.454 28.34 9.913s15.427 6.29 17.478 6.29 4.332.974 5.069 2.165c.736 1.191 7.214 4.954 14.395 8.362 41.06 19.487 99.627 69.74 128.557 110.307 8.03 11.26 14.6 21.096 14.6 21.857s3.345 6.246 7.434 12.19c4.089 5.942 7.434 12.104 7.434 13.693 0 1.588 2.364 6.207 5.253 10.265 2.89 4.057 6.671 12.035 8.404 17.729 3.083 10.126 6.859 19.985 11.654 30.428 1.315 2.863 2.78 8.439 3.255 12.39 1.302 10.821 3.641 20.721 8.137 34.443 3.251 9.922 4.06 23.005 4.06 65.67 0 48.135-.567 55.431-5.876 75.581-3.232 12.267-6.165 24.75-6.519 27.74-.795 6.735-15.626 45.784-18.544 48.83-1.233 1.286-8.73-4.517-17.75-13.737-8.588-8.78-20.81-20.147-27.157-25.26-6.348-5.112-15.627-13.149-20.62-17.858s-10.163-8.563-11.486-8.563-3.753-1.131-5.4-2.513c-4.408-3.701-21.543-14.85-31.49-20.489-39.427-22.35-71.09-34.558-132.579-51.122-19.12-5.15-51.247-7.9-92.567-7.921-45.889-.025-76.135 3.076-104.441 10.707-10.223 2.756-22.083 5.848-26.357 6.873-19.19 4.6-67.007 25.36-98.788 42.89-12.256 6.76-43.36 27.622-49.801 33.404-2.622 2.353-10.332 8.72-17.133 14.15s-19.133 16.86-27.407 25.4c-8.273 8.541-15.595 15.53-16.27 15.53-.677 0-3.89-6.413-7.142-14.25m80.582-78.67c64.24-43.07 137.929-69.97 214.643-78.353 31.666-3.46 102.537-1.506 129.856 3.582 88.291 16.444 167.027 53.019 229.714 106.708 10.516 9.007 20.23 16.376 21.588 16.376 2.452 0 3.713-3.81 11.478-34.694 6.151-24.462 7.71-101.257 2.647-130.418-7.77-44.763-29.293-98.39-55.017-137.092C680.73 113.072 592.733 55.15 504.066 39.004c-23.937-4.358-101.781-4.42-124.956-.1-68.082 12.692-132.858 47.303-183.716 98.16-40.763 40.764-67.43 83.818-85.71 138.377-19.961 59.58-21.878 144.72-4.524 200.906l5.051 16.355 19.124-16.198c10.518-8.91 31.39-24.423 46.383-34.475" style="fill:#000;stroke-width:2.4781"/><path d="M321.264 349.58c-.72-2.757.053-7.759 1.717-11.118 5.058-10.201 27.461-9.593 27.716.753.026.895-4.787 2.4-10.687 3.343-7.617 1.218-11.118 3.21-12.075 6.874-1.715 6.558-4.975 6.63-6.67.146zm-16.303-36.326c-7.363-45.397-8.154-131.214-1.664-180.54 2.902-22.047 6.577-41.654 8.168-43.571 4.53-5.46 19.671-11.815 28.145-11.815 4.365 0 9.74 2.254 12.41 5.203 4.539 5.016 4.506 6.408-.906 38.581-9.812 58.33-11.24 76.887-8.258 107.34 2.74 27.988 9.584 80.726 11.813 91.036 1.102 5.1.274 5.367-13.185 4.25-13.726-1.138-14.751-.777-23.173 8.153l-8.812 9.343zm355.302 23.766c-8.83-1.108-13.726-8.074-8.158-11.607 4.688-2.975 9.898-2.728 9.898.47 0 1.473 2.942 3.798 6.539 5.166 6.687 2.542 9.17 8.183 3.27 7.428-1.799-.23-6.995-.886-11.549-1.457m-106.811-10.157c-54.7-19.153-126.861-24.143-183.287-12.674l-8.038 1.634-5.956-46.39c-7.447-57.991-7.468-80.197-.123-126.632 4.767-30.138 6.757-37.375 10.883-39.584 8.02-4.292 76.356-6.046 102.82-2.64 56.96 7.331 137.316 19.637 137.237 21.016-.047.83-7.11 5.94-15.694 11.357-13.178 8.314-15.608 11.021-15.608 17.385 0 7.296 12.253 21.292 21.326 24.359 2.479.837.81 4.332-5.632 11.788-16.71 19.343-19.616 23.195-19.88 26.35-.613 7.334-1.26 8.358-5.29 8.358-3.43 0-3.634.734-1.062 3.833 2.04 2.459 2.564 7.488 1.46 14.025l-1.723 10.192-18.795-.753c-10.337-.415-15.263-.23-10.947.408 23.102 3.417 29.77 6.717 35.399 17.517 4.916 9.431 5.07 10.848 1.41 12.897-5.391 3.017-5.19 8.686 1.118 31.449 2.877 10.382 5.231 19.784 5.231 20.892 0 3.121-5.037 2.15-24.848-4.787zm-56.491-64.476-.254-16.348-4.076 9.943c-3.421 8.349-5.163 9.817-10.862 9.155-6.018-.699-6.983-2.27-8.52-13.867-.952-7.193-1.835-20.374-1.961-29.292l-.23-16.215-14.083-4.439c-13.833-4.36-14.112-4.648-15.695-16.193-.885-6.464-1.629-16.591-1.65-22.505-.027-5.913-1.182-12.517-2.576-14.675-1.739-2.69-2.548 3.684-2.576 20.272-.04 23.355-2.373 29.528-7.417 19.617-1.281-2.517-3.85-15.487-5.71-28.822s-3.9-23.725-4.535-23.09-.315 14.112.711 29.948c1.85 28.552 1.929 28.818 9.389 31.907 5.58 2.312 7.526 4.892 7.538 9.992 0 3.782.782 16.725 1.72 28.762l1.702 21.886-18.968-1.905c-18.438-1.851-18.89-1.758-16.162 3.339 2.242 4.19 7.413 5.875 25.75 8.392 25.234 3.463 67.033 9.72 68.064 10.189.36.162.54-7.06.4-16.051zm-53.027-7.847c-2.002-7.472-2.145-49.044-.17-49.044.814 0 3.757 1.218 6.54 2.708 4.455 2.384 5.059 5.665 5.059 27.464 0 22.503-.449 24.757-4.926 24.757-2.898 0-5.576-2.423-6.504-5.885zm34.025-76.509c.828-2.158.748-5.898-.178-8.31-1.496-3.901-2.12-3.953-5.607-.465-2.2 2.2-3.184 5.85-2.24 8.311 2.09 5.446 6.027 5.674 8.026.464zm123.883 124.245c0-4.316.492-7.847 1.094-7.847s2.956-.714 5.231-1.588c3.067-1.176 4.138.042 4.138 4.709 0 6.186-4.252 12.573-8.37 12.573-1.151 0-2.093-3.531-2.093-7.847m102.502-8.01c.63-1.889 2.69-3.949 4.577-4.578 1.962-.654 2.943.327 2.29 2.289-.63 1.888-2.69 3.948-4.578 4.577-1.962.654-2.943-.327-2.29-2.288m-61.925-25.94c-1.766-2.855 3.095-13.386 7.55-16.362 1.584-1.057 4.962-1.94 7.51-1.961 4.31-.037 4.262.682-.708 10.422-5.13 10.056-11.018 13.297-14.352 7.901m-47.786-27.948c-4.122-1.662-1.617-6.11 3.44-6.11 2.073 0 3.769 1.766 3.769 3.924 0 4.033-1.5 4.488-7.21 2.186m31.702-19.798c-3.072-1.396-6.985-5.608-8.694-9.359-2.632-5.777-2.401-7.336 1.51-10.196 5.955-4.355 8.848-4.28 8.848.228 0 1.982 2.308 5.219 5.128 7.193 4.344 3.04 4.644 4.436 1.962 9.13-2.558 4.476-4.241 5.054-8.754 3.003zm16.162-54.138c-1.787-2.891 2.34-6.013 4.755-3.597 2.486 2.486 2.023 6.032-.79 6.032-1.353 0-3.138-1.096-3.965-2.435" style="fill:#000;stroke-width:2.61568"/></svg>