<?xml version="1.0" encoding="UTF-8" standalone="no"?>
<svg
   xml:space="preserve"
   width="872"
   height="1209"
   viewBox="0 0 872 1209"
   version="1.1"
   id="svg1"
   sodipodi:docname="occult.svg"
   inkscape:version="1.4.2 (f4327f4, 2025-05-13)"
   xmlns:inkscape="http://www.inkscape.org/namespaces/inkscape"
   xmlns:sodipodi="http://sodipodi.sourceforge.net/DTD/sodipodi-0.dtd"
   xmlns="http://www.w3.org/2000/svg"
   xmlns:svg="http://www.w3.org/2000/svg"><defs
     id="defs1" /><sodipodi:namedview
     id="namedview1"
     pagecolor="#ffffff"
     bordercolor="#000000"
     borderopacity="0.25"
     inkscape:showpageshadow="2"
     inkscape:pageopacity="0.0"
     inkscape:pagecheckerboard="0"
     inkscape:deskcolor="#d1d1d1"
     inkscape:zoom="0.32817773"
     inkscape:cx="-1273.7001"
     inkscape:cy="1007.0763"
     inkscape:window-width="3440"
     inkscape:window-height="1369"
     inkscape:window-x="1737"
     inkscape:window-y="1432"
     inkscape:window-maximized="1"
     inkscape:current-layer="svg1" /><circle
     cx="438.49899"
     cy="780.88"
     r="417.83801"
     style="fill:none;stroke:#000000;stroke-width:18;stroke-dasharray:none;stroke-opacity:1"
     id="circle1" /><path
     style="fill:#000000;stroke-width:2.4781"
     d="m 95.136139,520.6992 c -3.25171,-7.83697 -6.12154,-15.92176 -6.37738,-17.96619 -0.25584,-2.04443 -2.71084,-10.408 -5.45555,-18.58572 -9.01363,-26.85562 -11.63246,-49.80405 -11.59464,-101.60193 0.0377,-51.58518 2.27457,-70.93636 11.74464,-101.60193 2.94633,-9.54066 5.50117,-18.46181 5.67744,-19.82476 0.68304,-5.28151 15.904101,-40.4142 22.012181,-50.80769 2.80563,-4.77404 7.88899,-14.03984 11.29638,-20.59067 3.40738,-6.55083 10.09824,-16.82656 14.86857,-22.83497 4.77033,-6.0084 12.57634,-16.06344 17.34667,-22.34452 11.1866,-14.72937 46.51773,-48.386637 61.47529,-58.562811 6.39569,-4.351231 12.18611,-8.677024 12.86759,-9.612872 3.53919,-4.860258 53.86691,-31.99676 73.10382,-39.417295 2.72591,-1.051503 7.74405,-3.132214 11.15143,-4.623802 3.40738,-1.491586 20.84089,-6.49868 38.74112,-11.126873 l 32.54587,-8.414897 59.14367,0.522472 c 45.64249,0.403201 62.67927,1.453296 74.63177,4.600074 8.51846,2.242684 22.05376,5.70817 30.07846,7.701079 8.02469,1.992912 20.77737,6.453484 28.3393,9.912383 7.56194,3.458901 15.42732,6.288909 17.47866,6.288909 2.05132,0 4.33203,0.974639 5.06825,2.165865 0.73622,1.191225 7.21411,4.954298 14.39531,8.362383 41.06009,19.486491 99.62745,69.739455 128.55731,110.306975 8.0297,11.25979 14.59943,21.09516 14.59943,21.85637 0,0.76122 3.34543,6.24644 7.43429,12.1894 4.08886,5.94295 7.43433,12.10501 7.43433,13.69347 0,1.58846 2.3637,6.20766 5.2527,10.26489 2.889,4.05723 6.6709,12.03537 8.4043,17.72921 3.0828,10.12638 6.8585,19.98477 11.6538,30.42782 1.315,2.86374 2.7798,8.43945 3.2552,12.39048 1.302,10.82126 3.6408,20.72121 8.1368,34.44273 3.251,9.92194 4.0598,23.00517 4.0597,65.66953 -10e-5,48.13605 -0.5673,55.43196 -5.8761,75.58193 -3.2318,12.26657 -6.165,24.7498 -6.5183,27.74049 -0.7955,6.73408 -15.626,45.78357 -18.5446,48.82883 -1.2324,1.28595 -8.73,-4.51658 -17.74961,-13.73688 -8.58871,-8.7798 -20.80946,-20.14643 -27.1572,-25.25918 -6.34774,-5.11276 -15.62707,-13.14925 -20.62073,-17.85887 -4.99366,-4.70962 -10.1622,-8.56296 -11.48563,-8.56296 -1.32343,0 -3.7531,-1.13086 -5.39928,-2.51299 -4.40811,-3.70114 -21.54359,-14.84977 -31.49112,-20.48865 -39.42675,-22.34952 -71.08869,-34.55826 -132.57812,-51.1217 -19.11997,-5.15035 -51.24668,-7.8996 -92.56734,-7.92151 -45.88843,-0.0248 -76.13461,3.07651 -104.44128,10.70718 -10.22214,2.75562 -22.08256,5.84843 -26.35646,6.87293 -19.19096,4.60026 -67.00734,25.36009 -98.7878,42.88944 -12.25651,6.7604 -43.36016,27.62304 -49.80162,33.40422 -2.62207,2.35327 -10.33155,8.72108 -17.13222,14.15067 -6.80064,5.42958 -19.1338,16.85979 -27.40699,25.40048 -8.27323,8.54068 -15.59523,15.52851 -16.27116,15.52851 -0.67592,0 -3.889441,-6.41207 -7.141151,-14.24905 z m 80.582131,-78.66987 c 64.24039,-43.06993 137.9287,-69.96896 214.64239,-78.35264 31.66588,-3.46061 102.53761,-1.50524 129.85678,3.58279 88.29082,16.44365 167.02619,53.01829 229.71369,106.70794 10.51567,9.00632 20.23022,16.37511 21.58782,16.37511 2.4524,0 3.7126,-3.80871 11.4784,-34.69334 6.1508,-24.46171 7.7094,-101.25678 2.6469,-130.41805 C 777.87305,280.46768 756.3515,226.84059 730.62661,188.13917 680.72951,113.07228 592.73317,55.148062 504.06596,39.003992 480.12894,34.645661 402.28452,34.583085 379.11038,38.903543 311.02777,51.596492 246.25231,86.206631 195.39405,137.06489 154.63054,177.82839 127.96318,220.88214 109.68427,275.441 89.722959,335.02153 87.805559,420.16087 105.15972,476.34706 l 5.05164,16.35536 19.12392,-16.19864 c 10.51817,-8.90925 31.39051,-24.42275 46.38299,-34.47445 z"
     id="path1" /><path
     style="fill:#000000;stroke-width:2.61568"
     d="m 321.2643,349.57907 c -0.72063,-2.75562 0.0523,-7.7581 1.71692,-11.11663 5.05742,-10.2014 27.46096,-9.593 27.71572,0.75279 0.0261,0.89508 -4.78695,2.39936 -10.68661,3.34258 -7.61685,1.21812 -11.11794,3.211 -12.0758,6.87374 -1.71483,6.55828 -4.97475,6.63048 -6.67023,0.14647 z m -16.30327,-36.32522 c -7.36313,-45.39667 -8.15385,-131.21391 -1.66357,-180.53958 2.90106,-22.04728 6.5766,-41.654404 8.16772,-43.571704 4.53062,-5.45918 19.67121,-11.81475 28.14495,-11.81475 4.36478,0 9.74026,2.25419 12.4093,5.20337 4.53925,5.01556 4.50655,6.40788 -0.90528,38.581244 -9.81167,58.32988 -11.23931,76.88628 -8.2577,107.33904 2.74045,27.98854 9.58332,80.72636 11.8124,91.03658 1.10251,5.09952 0.27413,5.36659 -13.18511,4.25048 -13.72603,-1.13808 -14.75111,-0.77765 -23.17281,8.15201 l -8.81169,9.34321 z m 355.30243,23.76631 c -8.83053,-1.10774 -13.72681,-8.07435 -8.1583,-11.6076 4.68834,-2.97481 9.89746,-2.72789 9.89746,0.46951 0,1.4742 2.94264,3.79901 6.53919,5.16649 6.68725,2.54244 9.17031,8.18393 3.2696,7.42853 -1.79827,-0.23019 -6.99484,-0.88594 -11.54795,-1.45693 z M 553.452,326.86348 C 498.75216,307.70991 426.59084,302.71998 370.16465,314.18921 l -8.03719,1.63376 -5.95669,-46.39088 c -7.44631,-57.99037 -7.46802,-80.19616 -0.12293,-126.63098 4.76681,-30.13785 6.75682,-37.37543 10.88357,-39.5841 8.01888,-4.291544 76.3553,-6.046134 102.81941,-2.64001 56.96005,7.33097 137.31577,19.63668 137.23703,21.01645 -0.0471,0.8297 -7.10967,5.9402 -15.69406,11.3565 -13.17752,8.31418 -15.60801,11.02142 -15.60801,17.38483 0,7.2967 12.2534,21.29267 21.32588,24.35877 2.47888,0.8378 0.80955,4.33208 -5.63182,11.78859 -16.70947,19.3432 -19.61549,23.19479 -19.87914,26.34904 -0.61338,7.33462 -1.26155,8.35891 -5.28995,8.35891 -3.43125,0 -3.63475,0.73396 -1.06275,3.83302 2.04023,2.45848 2.56362,7.4879 1.45928,14.025 l -1.72189,10.19172 -18.79496,-0.75305 c -10.33716,-0.41432 -15.26353,-0.23018 -10.94766,0.40779 23.10219,3.4179 29.77007,6.71758 35.39928,17.51745 4.91564,9.43109 5.07075,10.848 1.40958,12.89686 -5.39091,3.01693 -5.1895,8.68615 1.11847,31.44882 2.87724,10.38267 5.23135,19.78421 5.23135,20.89221 0,3.12129 -5.037,2.15086 -24.84894,-4.78643 z m -56.49133,-64.47646 -0.25371,-16.34799 -4.07549,9.94324 c -3.42157,8.34846 -5.16387,9.8169 -10.86239,9.15487 -6.01762,-0.69891 -6.98334,-2.27066 -8.51953,-13.86675 -0.95288,-7.19311 -1.83567,-20.37482 -1.96175,-29.29272 l -0.23018,-16.21432 -14.08307,-4.43933 c -13.83302,-4.36033 -14.11159,-4.64806 -15.69407,-16.19287 -0.88593,-6.46439 -1.62904,-16.59151 -1.65101,-22.50504 -0.0261,-5.91326 -1.18098,-12.51706 -2.57566,-14.675 -1.73838,-2.68996 -2.54819,3.68393 -2.57566,20.27151 -0.0393,23.35564 -2.37268,29.52864 -7.41727,19.61758 -1.28116,-2.51759 -3.85081,-15.48743 -5.70977,-28.82189 -1.85896,-13.33472 -3.89971,-23.72499 -4.5348,-23.08964 -0.63535,0.63535 -0.31545,14.11133 0.71094,29.9469 1.85059,28.55221 1.9288,28.81797 9.38845,31.90787 5.58003,2.31121 7.52636,4.89132 7.53812,9.99163 0,3.78174 0.78236,16.72464 1.71929,28.76199 l 1.70333,21.88616 -18.96837,-1.905 c -18.43765,-1.85164 -18.8899,-1.75826 -16.16228,3.3384 2.24268,4.19083 7.41283,5.87559 25.75031,8.39239 25.23344,3.4629 67.03302,9.72013 68.06438,10.18885 0.35966,0.16217 0.53962,-7.05945 0.39968,-16.05084 z m -53.02632,-7.84703 c -2.0023,-7.47168 -2.14538,-49.04396 -0.17002,-49.04396 0.814,0 3.75664,1.21838 6.5392,2.70775 4.45502,2.38419 5.0595,5.66529 5.0595,27.46461 0,22.50216 -0.44859,24.75687 -4.92637,24.75687 -2.89764,0 -5.57558,-2.42369 -6.50336,-5.88527 z m 34.025,-76.50858 c 0.82812,-2.15793 0.74782,-5.89809 -0.17787,-8.31132 -1.49669,-3.90049 -2.11974,-3.95203 -5.60723,-0.46454 -2.20109,2.20109 -3.18433,5.84996 -2.2398,8.31158 2.08992,5.44584 6.02626,5.67366 8.02542,0.46428 z M 601.84203,302.2761 c 0,-4.31586 0.49227,-7.84703 1.09388,-7.84703 0.6016,0 2.95571,-0.71434 5.23136,-1.58772 3.06662,-1.17679 4.13747,0.0418 4.13747,4.70823 0,6.18607 -4.25204,12.57355 -8.37016,12.57355 -1.1509,0 -2.09255,-3.53115 -2.09255,-7.84703 z m 102.50187,-8.0105 c 0.62934,-1.88827 2.68919,-3.94811 4.57744,-4.57745 1.96176,-0.65392 2.94264,0.32697 2.28872,2.28873 -0.62933,1.88825 -2.68918,3.9481 -4.57744,4.57743 -1.96175,0.65392 -2.94263,-0.32696 -2.28872,-2.28871 z m -61.92538,-25.93916 c -1.76506,-2.85579 3.09539,-13.38677 7.5512,-16.36211 1.583,-1.057 4.96168,-1.93979 7.50857,-1.96176 4.31089,-0.0367 4.26224,0.68217 -0.70702,10.42269 -5.12987,10.05545 -11.01802,13.2968 -14.35275,7.90118 z M 594.6327,240.37766 c -4.12126,-1.66148 -1.61675,-6.10918 3.44014,-6.10918 2.07319,0 3.76919,1.76559 3.76919,3.92352 0,4.03337 -1.49931,4.48798 -7.20933,2.18566 z m 31.7028,-19.79755 c -3.0729,-1.3965 -6.98517,-5.608 -8.69451,-9.35915 -2.63216,-5.77724 -2.40146,-7.33619 1.50951,-10.19591 5.95537,-4.35485 8.84831,-4.28029 8.84831,0.22757 0,1.98241 2.30781,5.21932 5.1283,7.19311 4.34438,3.0402 4.64413,4.43593 1.96176,9.13054 -2.55762,4.47596 -4.24106,5.0535 -8.75337,3.00306 z m 16.16123,-54.13851 c -1.78677,-2.89085 2.33946,-6.01266 4.75478,-3.59707 2.48698,2.48672 2.02348,6.032 -0.78863,6.032 -1.35362,0 -3.13855,-1.0957 -3.96615,-2.43493 z"
     id="path9" /></svg>
