<?xml version="1.0" encoding="UTF-8" standalone="no"?>
<!-- Created with Inkscape (http://www.inkscape.org/) -->

<svg
   version="1.1"
   id="svg1"
   width="872"
   height="889"
   viewBox="0 0 872 889"
   sodipodi:docname="personality.svg"
   inkscape:version="1.4.2 (f4327f4, 2025-05-13)"
   xml:space="preserve"
   xmlns:inkscape="http://www.inkscape.org/namespaces/inkscape"
   xmlns:sodipodi="http://sodipodi.sourceforge.net/DTD/sodipodi-0.dtd"
   xmlns="http://www.w3.org/2000/svg"
   xmlns:svg="http://www.w3.org/2000/svg"><defs
     id="defs1" /><sodipodi:namedview
     id="namedview1"
     pagecolor="#ffffff"
     bordercolor="#000000"
     borderopacity="0.25"
     inkscape:showpageshadow="2"
     inkscape:pageopacity="0.0"
     inkscape:pagecheckerboard="true"
     inkscape:deskcolor="#d1d1d1"
     inkscape:zoom="0.92822679"
     inkscape:cx="-63.562053"
     inkscape:cy="244.01364"
     inkscape:window-width="3440"
     inkscape:window-height="1369"
     inkscape:window-x="-8"
     inkscape:window-y="-8"
     inkscape:window-maximized="1"
     inkscape:current-layer="g1" /><g
     inkscape:groupmode="layer"
     inkscape:label="Image"
     id="g1"><circle
       style="fill:none;stroke:#000000;stroke-width:18;stroke-dasharray:none;stroke-opacity:1"
       id="path2"
       cx="438.49911"
       cy="448.88046"
       r="417.83762" /><path
       style="fill:#000000;stroke-width:2.80342"
       d="m 313.16079,786.97853 c -3.58875,-3.58876 -1.94298,-36.34441 2.59467,-51.64138 8.28029,-27.91387 32.72335,-65.3161 66.74583,-102.13298 l 15.54385,-16.82055 -20.97584,-0.81877 -20.97588,-0.81879 V 603.6503 592.55452 h 36.44453 c 20.04449,0 36.44452,-0.47216 36.44452,-1.04925 0,-0.57709 -1.8923,-6.41264 -4.20513,-12.9679 -6.70915,-19.01573 -5.47958,-107.43621 2.93024,-210.71955 3.9245,-48.1974 7.71582,-88.21206 8.42519,-88.92145 0.70941,-0.70937 0.96772,113.41206 0.57403,253.6032 l -0.71576,254.89298 -60.45404,0.75409 c -33.24972,0.41474 -61.31902,-0.11099 -62.37621,-1.16811 z m 140.17226,10e-4 c -1.05773,-1.05775 -1.92318,-112.30803 -1.92318,-247.22286 0,-134.91483 0.49531,-244.77406 1.10068,-244.13162 0.60541,0.64247 3.83038,34.59894 7.16665,75.45886 4.68351,57.3599 5.80946,89.30494 4.94053,140.17125 -0.61896,36.23428 -2.09869,69.34974 -3.28829,73.58992 l -2.16292,7.70943 h 35.36961 35.36964 v 11.21369 11.2137 h -21.34712 -21.3471 l 17.05635,18.23327 c 25.37452,27.12547 44.33139,53.32609 56.82441,78.53808 12.61584,25.4598 19.20139,55.53309 14.86367,67.87588 l -2.72831,7.76341 -58.98572,0.7551 c -32.44214,0.41529 -59.85114,-0.11051 -60.9089,-1.16811 z M 238.18363,647.31443 c -18.77958,-9.64406 -37.21239,-27.05 -42.01056,-39.67015 -1.47305,-3.87447 -2.6783,-12.60776 -2.6783,-19.40733 v -12.36282 l 9.11113,1.732 c 21.37899,4.0641 37.19579,18.93768 46.45477,43.68453 5.51179,14.7316 10.57584,35.88406 8.52401,35.60475 -0.55707,-0.0759 -9.28755,-4.38728 -19.40105,-9.58098 z m 389.84203,8.86202 c 0,-0.36168 2.55207,-9.867 5.67123,-21.12299 9.09796,-32.83106 21.5092,-48.7734 42.92058,-55.13191 7.57652,-2.24998 15.02998,-3.3155 16.56331,-2.36786 4.44775,2.74884 -0.0168,26.00022 -7.4194,38.62974 -7.48515,12.77247 -25.36637,26.77547 -44.86273,35.13261 -7.08014,3.03491 -12.87299,5.22207 -12.87299,4.86041 z M 155.80045,622.05486 c -8.73071,-18.45519 -13.24524,-40.14638 -10.95475,-52.63497 1.90241,-10.37265 14.01426,-32.93389 17.68036,-32.93389 4.84011,0 16.87531,17.3349 20.03857,28.86259 2.46654,8.98859 2.43481,15.7262 -0.13344,28.37836 -3.32988,16.40332 -12.70189,39.64248 -17.07796,42.34706 -1.2429,0.76814 -5.54159,-5.54046 -9.55265,-14.01915 z m 563.67405,13.09716 c -1.02656,-1.661 -4.99169,-11.32295 -8.81142,-21.47104 -8.62507,-22.9147 -9.0326,-43.07799 -1.19785,-59.26244 7.73968,-15.98802 12.48455,-19.77124 18.5263,-14.77151 7.37318,6.10153 14.84588,25.20829 14.91299,38.13063 0.11134,21.40885 -18.09874,66.00053 -23.43002,57.37436 z M 225.73415,575.61061 c -18.42887,-7.14963 -40.20688,-24.07408 -46.68109,-36.27744 -2.85024,-5.37255 -5.18227,-14.51872 -5.18227,-20.32484 0,-9.2127 0.83896,-10.55658 6.59024,-10.55658 25.01398,0 46.10552,19.36839 59.31862,54.47234 7.77992,20.66938 7.40471,21.00829 -14.0455,12.68652 z m 416.30863,2.95626 c 0,-1.52564 3.39972,-11.26628 7.55494,-21.64583 12.03439,-30.06133 34.36549,-48.39252 59.02641,-48.45365 8.12011,-0.0197 8.4399,10.71237 0.79305,26.61691 -9.29828,19.33939 -23.0305,30.71286 -48.55643,40.21606 -18.6452,6.94153 -18.81797,6.97151 -18.81797,3.26651 z M 117.4845,541.392 c -8.7213,-39.30938 -1.17508,-67.21662 22.0583,-81.57565 2.06255,-1.27476 5.39117,2.12313 8.98968,9.17674 7.7903,15.2703 7.53861,37.06047 -0.61899,53.58808 -6.88626,13.95177 -22.09587,36.1775 -24.82215,36.27238 -0.9457,0.0328 -3.46879,-7.82477 -5.60684,-17.46155 z m 635.42917,3.68901 c -12.04533,-16.40902 -21.16129,-38.3177 -21.16129,-50.85762 0,-8.8503 10.43861,-36.23328 13.81242,-36.23328 4.11434,0 19.77628,18.77796 23.89174,28.64505 5.12791,12.29462 5.48434,25.83275 1.28041,48.63512 -4.7056,25.52335 -5.83342,26.14417 -17.82328,9.81073 z M 393.25368,513.97372 c -17.8222,-8.90587 -28.04088,-19.7228 -35.5025,-37.58101 -5.61717,-13.44375 -5.74618,-12.79575 2.54738,-12.79575 3.85471,0 7.00856,-1.26154 7.00856,-2.80343 0,-1.54189 -3.07939,-2.80342 -6.8431,-2.80342 -8.62853,0 -9.43537,-1.41135 -11.66833,-20.41037 l -1.82907,-15.5625 12.27283,-2.73905 12.27281,-2.73903 -10.60082,-0.30021 c -5.98924,-0.16961 -11.22252,-1.92035 -12.02994,-4.02443 -0.78603,-2.0483 -0.43097,-11.81287 0.789,-21.69905 2.10115,-17.02732 2.66141,-18.06962 10.6282,-19.77319 6.21721,-1.32947 6.80854,-1.88488 2.26789,-2.1301 -10.31728,-0.55712 -10.34716,-2.14328 -0.70626,-37.47706 2.83905,-10.40511 9.21034,-13.74463 15.39895,-8.07136 1.46479,1.34281 6.44788,3.25236 11.07352,4.24343 7.93298,1.69968 7.77385,1.40984 -2.80342,-5.10701 -6.16753,-3.7999 -12.72811,-7.91715 -14.57903,-9.14942 -2.52942,-1.68393 -1.67696,-7.11501 3.43189,-21.86446 3.73848,-10.79317 6.84912,-20.25473 6.91257,-21.02568 0.0634,-0.77094 1.04212,-0.14017 2.17493,1.40172 1.13281,1.54188 4.53344,4.69573 7.55697,7.00856 4.74861,3.63243 4.62396,2.95974 -0.91522,-4.93893 -6.29435,-8.97556 -6.3268,-9.40221 -1.76051,-23.15001 2.5586,-7.70326 5.69126,-13.36362 6.96146,-12.5786 1.27021,0.78503 1.7328,-0.78211 1.028,-3.48253 -1.26169,-4.83397 36.14834,-134.18951 39.81788,-137.681366 4.00009,-3.806472 -1.53062,101.365286 -11.11003,211.267406 -6.74558,77.39023 -10.02909,131.19691 -10.05075,164.70122 -0.0168,27.36843 -1.09222,49.76079 -2.38785,49.76079 -1.2956,0 -10.00579,-3.82284 -19.35601,-8.49516 z m 80.57483,-30.29438 c -0.006,-21.06756 -5.04704,-98.22786 -11.20494,-171.46733 -9.59886,-114.16513 -14.33369,-214.311345 -9.92392,-209.90158 2.31624,2.31625 37.30228,117.46609 39.0733,128.60225 0.36779,2.31283 2.14961,7.73003 3.95956,12.03818 6.91937,16.47002 7.06146,21.78144 0.80875,30.23867 -6.12038,8.27826 -3.9186,11.74593 2.52684,3.97965 1.91948,-2.31282 4.48122,-4.20513 5.69275,-4.20513 2.24109,0 13.93123,31.95933 13.93123,38.08618 0,1.84604 -4.93888,5.33253 -10.97528,7.74782 -13.8744,5.55147 -17.93185,11.00034 -5.1985,6.9813 21.49779,-6.78541 20.17931,-7.60093 25.722,15.9099 5.16631,21.91433 4.56191,25.01317 -5.3431,27.39564 -3.77304,0.90755 -2.74689,1.455 3.1375,1.67383 7.8454,0.29178 8.92293,1.4059 10.48197,10.83806 0.95572,5.78206 1.75155,15.87439 1.76852,22.42739 0.0308,11.85324 -0.0224,11.91605 -10.48198,12.20429 l -10.51285,0.28973 10.51285,2.79219 c 10.02082,2.66148 10.51105,3.3368 10.47458,14.42825 -0.0642,19.48638 -2.35671,24.25148 -11.66786,24.25148 -4.78529,0 -7.52128,1.17709 -6.51615,2.80342 0.95295,1.54189 4.18126,2.80343 7.17403,2.80343 6.52236,0 6.69674,1.91767 1.34003,14.73802 -7.96761,19.06921 -26.69084,35.19932 -48.46286,41.7509 l -6.3077,1.89809 z m -282.01567,16.80379 c -27.15256,-19.78955 -40.23223,-39.96764 -40.26497,-62.11701 -0.0281,-18.35259 2.06745,-20.28532 15.37837,-14.19024 14.93975,6.84099 23.35441,15.3525 29.97553,30.32065 5.35791,12.11239 11.29767,53.95522 7.65915,53.95522 -0.99804,0 -6.7347,-3.58588 -12.74808,-7.96862 z m 490.2359,-10.77283 c 1.90695,-22.74598 8.44704,-41.18523 18.5849,-52.39853 7.63314,-8.44289 27.86927,-19.17619 31.69552,-16.81142 3.66848,2.26722 2.51512,31.37259 -1.63698,41.30989 -4.59857,11.006 -29.26957,36.37491 -41.54986,42.7253 l -8.71425,4.50631 z M 92.882978,455.88754 c 4.835322,-37.36738 19.044632,-60.49153 42.111962,-68.53284 10.129,-3.531 10.92072,-2.83816 12.8043,11.2051 1.87422,13.97316 -2.6716,27.98946 -13.49447,41.60831 -8.58645,10.80462 -35.10654,31.58503 -40.517912,31.74868 -2.015389,0.0609 -2.309976,-5.16312 -0.90388,-16.02925 z m 687.619712,8.83795 c -15.85321,-10.58679 -31.11483,-25.9883 -36.04277,-36.37317 -4.8556,-10.23241 -5.92728,-43.25126 -1.40379,-43.25126 16.02846,0 39.79075,23.55779 45.83417,45.43975 5.64961,20.45595 8.23392,41.46643 5.10042,41.46643 -1.4212,0 -7.49081,-3.2768 -13.48803,-7.28175 z m -97.4003,-29.92918 c -9.9876,-39.79375 -0.4307,-75.20825 23.65697,-87.66448 l 8.35826,-4.3222 4.43423,10.61255 c 9.11244,21.8092 0.99818,47.93683 -23.72605,76.39692 l -10.84067,12.4787 z m -492.83397,-6.94303 c -22.07927,-24.47031 -29.99716,-46.35177 -24.725,-68.32863 1.80615,-7.52886 4.36933,-14.35967 5.69597,-15.17957 1.32663,-0.81991 6.8906,1.39168 12.36437,4.91462 13.52382,8.70403 23.90813,29.81995 23.90813,48.61591 0,18.94017 -3.01334,40.49051 -5.66169,40.49051 -1.15287,0 -6.36469,-4.73077 -11.58178,-10.51284 z M 88.624236,376.71402 c 17.655164,-32.43835 37.718974,-47.68147 62.760874,-47.68147 14.05177,0 14.16518,0.0709 12.3293,7.70942 -7.11426,29.60002 -28.98852,45.76779 -70.65349,52.22152 l -12.125945,1.87827 z m 689.135964,8.69353 c -29.96421,-7.36959 -50.01425,-24.71664 -53.51716,-46.30241 l -1.63454,-10.07259 h 13.07227 c 24.37502,0 37.41196,9.06933 58.05018,40.38346 15.8657,24.0728 16.06714,23.87113 -15.97075,15.99154 z M 203.91002,352.22122 c -19.12544,-28.81966 -22.5827,-53.42705 -10.6882,-76.07371 l 4.95388,-9.43199 10.09298,8.86177 c 14.34108,12.59164 20.00919,29.1579 18.04662,52.74517 -1.67487,20.12959 -6.5599,39.98123 -9.82404,39.92272 -1.08395,-0.0197 -6.74552,-7.2302 -12.58124,-16.02396 z m 461.17685,3.53543 c -10.17707,-38.05091 -6.60545,-59.05221 13.35802,-78.54606 l 11.12477,-10.86304 5.98557,13.53137 c 9.98667,22.57648 5.33114,46.45422 -14.91293,76.48703 -4.41716,6.553 -8.97049,11.91455 -10.11852,11.91455 -1.148,0 -3.59461,-5.63571 -5.43691,-12.52385 z M 95.37489,324.63168 c 0,-3.33336 16.67441,-25.40593 25.66403,-33.9725 17.42874,-16.60855 48.158,-25.44444 59.10222,-16.99427 4.15155,3.20546 4.05035,4.52201 -1.18687,15.43972 -7.87805,16.42284 -18.80478,24.75037 -41.24396,31.43304 -17.87531,5.3235 -42.33542,7.6889 -42.33542,4.09401 z m 144.42298,-15.84275 c -10.73245,-24.32866 -12.72957,-52.84806 -4.79046,-68.40996 8.58711,-16.83216 12.43603,-19.09269 19.57312,-11.49561 8.13784,8.66236 14.60672,25.07975 14.60672,37.07053 0,11.50206 -8.83673,39.41055 -16.4345,51.9041 l -5.18959,8.53357 z m 390.47422,0.97902 c -14.97541,-32.79161 -16.11259,-48.76026 -5.02071,-70.50213 8.57239,-16.80328 12.21913,-18.27324 20.60599,-8.30602 9.47497,11.26032 13.97521,28.57245 11.57977,44.54642 -1.92401,12.83016 -14.36442,46.95205 -17.9191,49.14895 -1.04969,0.64875 -5.21035,-6.05052 -9.24595,-14.88722 z m 129.51455,13.76646 c -3.85472,-1.23862 -12.23656,-3.67275 -18.62636,-5.40915 -13.66799,-3.7142 -30.39667,-19.69224 -34.89829,-33.33236 -1.70648,-5.1706 -2.40848,-10.09527 -1.56002,-10.94373 0.84845,-0.84845 7.05134,-2.16354 13.78418,-2.92242 9.4496,-1.06511 15.45416,0.2481 26.32745,5.75803 13.07593,6.62609 39.39353,31.94689 45.96311,44.22222 2.61914,4.89396 1.76907,5.30433 -10.56662,5.10079 -7.3782,-0.12166 -16.56876,-1.23473 -20.42345,-2.47338 z m -477.48309,-45.1457 c -1.00432,-3.75451 -1.84328,-16.35563 -1.86434,-28.00249 -0.0311,-17.20616 1.32086,-23.90352 7.21153,-35.72452 6.84117,-13.72842 19.1311,-25.80041 26.26628,-25.80041 5.44817,0 12.03044,19.95644 10.6428,32.26746 -1.86096,16.51049 -9.59011,30.95329 -25.99913,48.58226 -13.93869,14.97501 -14.49343,15.27109 -16.25714,8.6777 z m 307.06419,-8.22809 c -18.3845,-19.4126 -26.48558,-35.58345 -26.40889,-52.71582 0.0714,-15.98721 4.58114,-28.58351 10.23307,-28.58351 6.95112,0 23.13707,16.19524 27.77787,27.79381 5.94846,14.86659 7.92271,35.02826 5.23939,53.50552 L 603.97,285.57946 Z m -444.23206,-7.48278 c -12.52835,-1.50864 -13.09777,-4.36592 -2.80342,-14.06775 15.18259,-14.30875 29.46826,-23.11955 44.63384,-27.52829 14.17063,-4.11952 16.52005,-4.11168 29.19206,0.0973 7.57962,2.51756 13.78113,5.51043 13.78113,6.65087 0,4.166 -20.40742,25.77127 -28.09976,29.74914 -8.48097,4.38569 -39.47867,7.17298 -56.70385,5.09875 z m 549.29605,-2.12955 c -14.82839,-3.98643 -36.54043,-23.91962 -34.96496,-32.1003 0.53193,-2.76211 6.29642,-5.96398 14.85811,-8.25289 12.81519,-3.42604 15.35572,-3.22848 30.27672,2.35418 15.02661,5.62215 49.57818,30.78098 49.57818,36.10049 0,2.18552 -27.77673,6.11859 -40.36004,5.71481 -3.24305,-0.10396 -11.96765,-1.82139 -19.38801,-3.81629 z m -158.9191,-32.14168 c -10.02225,-2.59154 -23.42002,-8.04644 -29.77283,-12.12201 -10.25257,-6.57739 -12.14278,-9.55844 -16.82054,-26.52783 -6.80218,-24.67596 -6.77249,-24.90198 3.11891,-23.73404 11.83312,1.3972 27.7,10.04862 37.33289,20.35578 7.66607,8.20267 27.376,43.93764 25.29966,45.86936 -0.5147,0.47885 -9.13585,-1.24972 -19.15809,-3.84126 z m -201.8466,1.01431 c 0,-5.14294 10.263,-24.28181 19.78084,-36.88809 11.95135,-15.82945 22.94008,-23.06346 39.79194,-26.19555 12.48048,-2.31965 12.48547,-2.2942 4.70244,23.96655 -4.73292,15.9693 -7.56174,20.80119 -15.05294,25.71179 -13.76014,9.01999 -49.22228,18.67781 -49.22228,13.4053 z M 205.22497,208.99763 c -9.73817,-2.59463 -17.93819,-5.96055 -18.22226,-7.47988 -0.28408,-1.51928 8.19725,-7.77983 18.84737,-13.91231 15.57524,-8.96839 22.78871,-11.36804 36.86809,-12.26456 18.53586,-1.18027 34.97627,2.67621 40.67341,9.54088 2.79822,3.37162 2.18689,5.50371 -3.28003,11.4401 -15.92764,17.29551 -41.37888,21.60354 -74.88658,12.67577 z m 422.80069,2.15085 c -3.85472,-1.62894 -11.7567,-7.58288 -17.55996,-13.23103 l -10.55137,-10.2693 10.55137,-6.38764 c 11.90107,-7.20469 37.69244,-8.52742 52.62225,-2.69877 15.63602,6.10434 37.97774,19.65855 37.04014,22.47139 -2.8386,8.51585 -57.68064,16.20971 -72.10243,10.11535 z M 289.03787,174.58141 c -10.81525,-4.323 -39.47459,-22.35022 -39.47459,-24.83021 0,-3.64096 34.88135,-11.35699 51.0378,-11.28999 16.74405,0.0695 34.09028,6.95564 43.62129,17.31701 6.04738,6.57423 6.11418,7.11901 1.39659,11.38841 -11.07762,10.0251 -40.42793,13.87137 -56.58109,7.41478 z m 261.52929,-0.97183 c -12.90868,-5.61767 -13.86722,-9.36698 -4.84794,-18.96247 10.60032,-11.27752 22.93154,-16.24745 40.31247,-16.24745 15.44082,0 53.20767,7.65408 53.20767,10.78342 0,2.44826 -29.46421,20.40044 -40.61614,24.74695 -11.53289,4.49499 -37.38692,4.32257 -48.05606,-0.32045 z M 361.77151,149.40696 c -6.89928,-3.12954 -19.31684,-10.91517 -27.59451,-17.30136 -17.25772,-13.31422 -17.05531,-13.57636 14.75899,-19.11659 21.92197,-3.81752 44.32482,1.50186 58.07787,13.79019 8.30497,7.4205 8.54612,8.21269 4.84162,15.90412 -6.36064,13.2062 -29.0714,16.25506 -50.08397,6.72364 z m 123.30461,3.31076 c -8.41066,-2.34081 -13.89103,-15.09362 -9.48679,-22.07576 3.92438,-6.22148 24.78434,-16.51702 37.6259,-18.57045 9.2322,-1.47632 34.05914,1.48304 48.73961,5.8097 4.78974,1.41164 4.14093,2.73853 -5.60685,11.46641 -22.16704,19.84772 -50.52156,29.14521 -71.27187,23.3701 z"
       id="path1" /></g></svg>
