<?xml version="1.0" encoding="UTF-8" standalone="no"?>
<svg
   xml:space="preserve"
   width="872"
   height="889"
   viewBox="0 0 872 889"
   version="1.1"
   id="svg1"
   sodipodi:docname="personality.svg"
   inkscape:version="1.4.2 (f4327f4, 2025-05-13)"
   xmlns:inkscape="http://www.inkscape.org/namespaces/inkscape"
   xmlns:sodipodi="http://sodipodi.sourceforge.net/DTD/sodipodi-0.dtd"
   xmlns="http://www.w3.org/2000/svg"
   xmlns:svg="http://www.w3.org/2000/svg"><defs
     id="defs1" /><sodipodi:namedview
     id="namedview1"
     pagecolor="#ffffff"
     bordercolor="#000000"
     borderopacity="0.25"
     inkscape:showpageshadow="2"
     inkscape:pageopacity="0.0"
     inkscape:pagecheckerboard="0"
     inkscape:deskcolor="#d1d1d1"
     inkscape:zoom="1.3127109"
     inkscape:cx="436.12039"
     inkscape:cy="444.5"
     inkscape:window-width="3440"
     inkscape:window-height="1369"
     inkscape:window-x="1737"
     inkscape:window-y="1432"
     inkscape:window-maximized="1"
     inkscape:current-layer="svg1" /><path
     d="M313.16 786.979c-3.588-3.59-1.942-36.345 2.595-51.642 8.28-27.914 32.724-65.316 66.746-102.133l15.544-16.82-20.976-.82-20.976-.818v-22.191h36.445c20.044 0 36.444-.473 36.444-1.05s-1.892-6.412-4.205-12.968c-6.709-19.015-5.48-107.436 2.93-210.72 3.925-48.197 7.716-88.211 8.426-88.92s.967 113.411.574 253.603l-.716 254.893-60.454.754c-33.25.414-61.319-.111-62.376-1.168m140.173 0c-1.058-1.057-1.923-112.308-1.923-247.222 0-134.915.495-244.774 1.1-244.132.606.643 3.83 34.599 7.167 75.459 4.684 57.36 5.81 89.305 4.94 140.171-.618 36.234-2.098 69.35-3.288 73.59l-2.162 7.71h70.739v22.427h-42.694l17.056 18.233c25.374 27.126 44.331 53.326 56.824 78.538 12.616 25.46 19.202 55.533 14.864 67.876l-2.728 7.764-58.986.755c-32.442.415-59.851-.11-60.909-1.168m-215.15-139.665c-18.779-9.644-37.212-27.05-42.01-39.67-1.473-3.874-2.678-12.607-2.678-19.407v-12.363l9.11 1.732c21.38 4.064 37.197 18.938 46.456 43.685 5.511 14.731 10.576 35.884 8.524 35.604-.557-.075-9.288-4.387-19.401-9.58m389.843 8.862c0-.361 2.552-9.867 5.67-21.123 9.099-32.83 21.51-48.773 42.921-55.131 7.577-2.25 15.03-3.316 16.564-2.368 4.448 2.749-.017 26-7.42 38.63-7.485 12.772-25.366 26.775-44.862 35.132-7.08 3.035-12.873 5.222-12.873 4.86M155.8 622.055c-8.73-18.455-13.245-40.147-10.954-52.635 1.902-10.373 14.014-32.934 17.68-32.934 4.84 0 16.875 17.335 20.039 28.863 2.466 8.988 2.434 15.726-.134 28.378-3.33 16.403-12.702 39.642-17.078 42.347-1.243.768-5.541-5.54-9.552-14.02zm563.675 13.097c-1.027-1.661-4.992-11.323-8.812-21.471-8.625-22.915-9.033-43.078-1.198-59.262 7.74-15.988 12.485-19.772 18.527-14.772 7.373 6.102 14.845 25.208 14.913 38.13.11 21.41-18.1 66.001-23.43 57.375m-493.74-59.541c-18.43-7.15-40.208-24.074-46.682-36.278-2.85-5.372-5.182-14.519-5.182-20.325 0-9.212.839-10.556 6.59-10.556 25.014 0 46.106 19.368 59.319 54.472 7.78 20.67 7.404 21.008-14.046 12.687m416.308 2.956c0-1.526 3.4-11.266 7.555-21.646 12.034-30.061 34.365-48.392 59.026-48.454 8.12-.02 8.44 10.713.793 26.617-9.298 19.34-23.03 30.713-48.556 40.216-18.645 6.942-18.818 6.972-18.818 3.267m-524.558-37.175c-8.722-39.31-1.176-67.217 22.058-81.576 2.062-1.274 5.391 2.123 8.99 9.177 7.79 15.27 7.538 37.06-.62 53.588-6.886 13.952-22.095 36.178-24.822 36.273-.945.032-3.468-7.825-5.606-17.462m635.429 3.689c-12.046-16.409-21.162-38.318-21.162-50.858 0-8.85 10.439-36.233 13.813-36.233 4.114 0 19.776 18.778 23.892 28.645 5.127 12.295 5.484 25.833 1.28 48.635-4.706 25.524-5.833 26.144-17.823 9.811m-359.66-31.107c-17.823-8.906-28.041-19.723-35.503-37.581-5.617-13.444-5.746-12.796 2.548-12.796 3.854 0 7.008-1.262 7.008-2.803 0-1.542-3.08-2.804-6.843-2.804-8.629 0-9.435-1.411-11.668-20.41l-1.83-15.563 12.273-2.739 12.273-2.739-10.6-.3c-5.99-.17-11.223-1.92-12.03-4.024-.787-2.049-.431-11.813.788-21.7 2.102-17.027 2.662-18.07 10.629-19.773 6.217-1.33 6.808-1.885 2.268-2.13-10.318-.557-10.348-2.143-.707-37.477 2.84-10.405 9.21-13.745 15.4-8.071 1.464 1.343 6.447 3.252 11.073 4.243 7.933 1.7 7.774 1.41-2.804-5.107-6.167-3.8-12.728-7.917-14.579-9.15-2.53-1.683-1.677-7.114 3.432-21.864 3.739-10.793 6.85-20.254 6.913-21.025s1.042-.14 2.175 1.401c1.133 1.542 4.533 4.696 7.557 7.009 4.748 3.632 4.624 2.96-.916-4.939-6.294-8.976-6.326-9.402-1.76-23.15 2.559-7.703 5.691-13.364 6.961-12.579s1.733-.782 1.028-3.482c-1.261-4.834 36.149-134.19 39.818-137.682 4-3.806-1.53 101.366-11.11 211.268-6.745 77.39-10.029 131.197-10.05 164.701-.017 27.369-1.093 49.76-2.388 49.76-1.296 0-10.006-3.822-19.356-8.494m80.575-30.295c-.006-21.067-5.048-98.228-11.205-171.467-9.6-114.165-14.334-214.311-9.924-209.902 2.316 2.317 37.302 117.467 39.073 128.603.368 2.313 2.15 7.73 3.96 12.038 6.919 16.47 7.061 21.781.808 30.239-6.12 8.278-3.918 11.745 2.527 3.98 1.92-2.314 4.481-4.206 5.693-4.206 2.24 0 13.931 31.96 13.931 38.086 0 1.846-4.939 5.333-10.975 7.748-13.875 5.552-17.932 11-5.199 6.981 21.498-6.785 20.18-7.6 25.722 15.91 5.167 21.915 4.562 25.013-5.343 27.396-3.773.907-2.747 1.455 3.138 1.674 7.845.291 8.923 1.406 10.482 10.838.955 5.782 1.751 15.874 1.768 22.427.031 11.853-.022 11.916-10.482 12.204l-10.513.29 10.513 2.792c10.021 2.662 10.511 3.337 10.475 14.429-.064 19.486-2.357 24.251-11.668 24.251-4.785 0-7.521 1.177-6.516 2.804.953 1.541 4.181 2.803 7.174 2.803 6.522 0 6.697 1.918 1.34 14.738-7.968 19.07-26.691 35.2-48.463 41.75l-6.308 1.899zm-282.016 16.804c-27.153-19.79-40.232-39.968-40.265-62.117-.028-18.352 2.067-20.285 15.378-14.19 14.94 6.84 23.355 15.352 29.976 30.32 5.358 12.113 11.297 53.956 7.659 53.956-.998 0-6.735-3.586-12.748-7.969m490.236-10.773c1.907-22.746 8.447-41.185 18.585-52.398 7.633-8.443 27.869-19.176 31.695-16.812 3.669 2.268 2.515 31.373-1.637 41.31-4.598 11.006-29.27 36.375-41.55 42.726l-8.714 4.506zM92.883 455.888c4.835-37.368 19.045-60.492 42.112-68.533 10.129-3.531 10.92-2.838 12.804 11.205 1.874 13.973-2.671 27.99-13.494 41.608-8.587 10.805-35.107 31.585-40.518 31.749-2.016.06-2.31-5.163-.904-16.03m687.62 8.837c-15.854-10.586-31.115-25.988-36.043-36.373-4.856-10.232-5.927-43.25-1.404-43.25 16.029 0 39.79 23.557 45.834 45.439 5.65 20.456 8.234 41.466 5.1 41.466-1.42 0-7.49-3.277-13.487-7.282m-97.4-29.929c-9.988-39.793-.431-75.208 23.656-87.664l8.359-4.322 4.434 10.612c9.112 21.81.998 47.937-23.726 76.397l-10.84 12.479zm-492.835-6.943c-22.079-24.47-29.997-46.351-24.725-68.328 1.807-7.53 4.37-14.36 5.696-15.18 1.327-.82 6.891 1.392 12.365 4.915 13.524 8.704 23.908 29.82 23.908 48.616 0 18.94-3.013 40.49-5.662 40.49-1.153 0-6.364-4.73-11.582-10.513M88.624 376.714c17.655-32.438 37.72-47.681 62.761-47.681 14.052 0 14.165.07 12.33 7.709-7.115 29.6-28.99 45.768-70.654 52.221l-12.126 1.879zm689.136 8.694c-29.964-7.37-50.014-24.717-53.517-46.303l-1.635-10.072h13.073c24.375 0 37.412 9.069 58.05 40.383 15.866 24.073 16.067 23.871-15.97 15.992M203.91 352.22c-19.125-28.82-22.583-53.427-10.688-76.073l4.954-9.432 10.093 8.861c14.34 12.592 20.009 29.158 18.046 52.745-1.675 20.13-6.56 39.982-9.824 39.923-1.084-.02-6.745-7.23-12.581-16.024m461.177 3.536c-10.177-38.051-6.606-59.053 13.358-78.546l11.125-10.863 5.985 13.53c9.987 22.577 5.331 46.455-14.913 76.488-4.417 6.553-8.97 11.915-10.118 11.915s-3.595-5.636-5.437-12.524M95.375 324.632c0-3.334 16.674-25.406 25.664-33.973 17.429-16.608 48.158-25.444 59.102-16.994 4.152 3.205 4.05 4.522-1.187 15.44-7.878 16.422-18.805 24.75-41.244 31.433-17.875 5.323-42.335 7.689-42.335 4.094m144.423-15.843c-10.733-24.329-12.73-52.848-4.79-68.41 8.587-16.832 12.435-19.093 19.573-11.496 8.137 8.663 14.606 25.08 14.606 37.07 0 11.503-8.836 39.411-16.434 51.905l-5.19 8.534zm390.474.979c-14.975-32.792-16.112-48.76-5.02-70.502 8.572-16.803 12.219-18.273 20.605-8.306 9.475 11.26 13.976 28.572 11.58 44.546-1.924 12.83-14.364 46.952-17.919 49.15-1.05.648-5.21-6.051-9.246-14.888m129.515 13.766c-3.855-1.238-12.237-3.672-18.627-5.409-13.668-3.714-30.396-19.692-34.898-33.332-1.706-5.17-2.408-10.095-1.56-10.944.848-.848 7.051-2.163 13.784-2.922 9.45-1.065 15.454.248 26.328 5.758 13.076 6.626 39.393 31.947 45.963 44.222 2.619 4.894 1.769 5.304-10.567 5.1-7.378-.12-16.569-1.234-20.423-2.473M282.304 278.39c-1.005-3.755-1.844-16.356-1.865-28.003-.03-17.206 1.321-23.903 7.212-35.724 6.84-13.729 19.13-25.8 26.266-25.8 5.448 0 12.03 19.956 10.643 32.267-1.861 16.51-9.59 30.953-26 48.582-13.938 14.975-14.493 15.271-16.256 8.678m307.064-8.228c-18.385-19.413-26.486-35.584-26.41-52.716.072-15.987 4.582-28.584 10.234-28.584 6.951 0 23.137 16.196 27.778 27.794 5.948 14.867 7.922 35.028 5.24 53.506l-2.24 15.418Zm-444.232-7.483c-12.529-1.509-13.098-4.366-2.804-14.068 15.183-14.309 29.469-23.12 44.634-27.528 14.17-4.12 16.52-4.112 29.192.097 7.58 2.518 13.781 5.51 13.781 6.651 0 4.166-20.407 25.771-28.1 29.75-8.48 4.385-39.478 7.172-56.703 5.098m549.296-2.13c-14.829-3.986-36.54-23.92-34.965-32.1.532-2.762 6.296-5.964 14.858-8.253 12.815-3.426 15.356-3.228 30.277 2.354 15.026 5.622 49.578 30.781 49.578 36.1 0 2.186-27.777 6.12-40.36 5.716-3.243-.104-11.968-1.822-19.388-3.817m-158.92-32.141c-10.022-2.592-23.42-8.047-29.772-12.122-10.253-6.578-12.143-9.559-16.82-26.528-6.803-24.676-6.773-24.902 3.118-23.734 11.833 1.397 27.7 10.048 37.333 20.356 7.666 8.202 27.376 43.937 25.3 45.869-.515.479-9.136-1.25-19.158-3.841m-201.846 1.014c0-5.143 10.263-24.282 19.78-36.888 11.952-15.83 22.941-23.064 39.793-26.196 12.48-2.32 12.485-2.294 4.702 23.967-4.733 15.97-7.561 20.801-15.053 25.712-13.76 9.02-49.222 18.677-49.222 13.405m-128.441-20.423c-9.738-2.595-17.938-5.96-18.222-7.48s8.197-7.78 18.847-13.913c15.575-8.968 22.789-11.368 36.868-12.264 18.536-1.18 34.976 2.676 40.674 9.54 2.798 3.372 2.186 5.504-3.28 11.44-15.928 17.296-41.38 21.604-74.887 12.677m422.8 2.15c-3.854-1.628-11.756-7.582-17.56-13.23l-10.55-10.27 10.55-6.387c11.902-7.205 37.693-8.528 52.623-2.7 15.636 6.105 37.978 19.66 37.04 22.472-2.839 8.516-57.68 16.21-72.102 10.115M289.04 174.582c-10.815-4.323-39.475-22.35-39.475-24.83 0-3.64 34.882-11.357 51.038-11.29 16.744.07 34.09 6.956 43.621 17.317 6.048 6.574 6.115 7.12 1.397 11.389-11.078 10.025-40.428 13.871-56.581 7.414m261.53-.971c-12.91-5.618-13.868-9.367-4.849-18.963 10.6-11.277 22.932-16.247 40.313-16.247 15.44 0 53.207 7.654 53.207 10.783 0 2.448-29.464 20.4-40.616 24.747-11.533 4.495-37.387 4.323-48.056-.32m-188.796-24.203c-6.9-3.13-19.317-10.915-27.595-17.301-17.258-13.315-17.055-13.577 14.759-19.117 21.922-3.818 44.325 1.502 58.078 13.79 8.305 7.42 8.546 8.213 4.841 15.904-6.36 13.207-29.07 16.255-50.083 6.724m123.304 3.31c-8.41-2.34-13.89-15.093-9.487-22.075 3.925-6.222 24.785-16.517 37.626-18.57 9.232-1.477 34.06 1.483 48.74 5.81 4.79 1.41 4.14 2.738-5.607 11.466-22.167 19.847-50.522 29.145-71.272 23.37"
     style="fill:#000;stroke-width:2.80342"
     id="path1" /></svg>
