<svg xmlns="http://www.w3.org/2000/svg" xml:space="preserve" width="872" height="1209" viewBox="0 0 872 1209"><circle cx="438.499" cy="780.88" r="417.838" style="fill:none;stroke:#000;stroke-width:18;stroke-dasharray:none;stroke-opacity:1"/><path d="M95.136 520.7c-3.252-7.838-6.121-15.923-6.377-17.967s-2.711-10.408-5.456-18.586c-9.013-26.855-11.632-49.804-11.594-101.602.037-51.585 2.274-70.936 11.744-101.602 2.947-9.54 5.501-18.461 5.678-19.824.683-5.282 15.904-40.415 22.012-50.808 2.805-4.774 7.889-14.04 11.296-20.59 3.408-6.552 10.098-16.827 14.869-22.836a1595 1595 0 0 0 17.346-22.344c11.187-14.73 46.518-48.387 61.476-58.563 6.395-4.351 12.186-8.677 12.867-9.613 3.54-4.86 53.867-31.997 73.104-39.417 2.726-1.052 7.744-3.132 11.152-4.624s20.84-6.499 38.74-11.127l32.547-8.415 59.143.523c45.643.403 62.68 1.453 74.632 4.6a2689 2689 0 0 0 30.078 7.7c8.025 1.994 20.778 6.454 28.34 9.913s15.427 6.29 17.478 6.29 4.332.974 5.069 2.165c.736 1.191 7.214 4.954 14.395 8.362 41.06 19.487 99.627 69.74 128.557 110.307 8.03 11.26 14.6 21.096 14.6 21.857s3.345 6.246 7.434 12.19c4.089 5.942 7.434 12.104 7.434 13.693 0 1.588 2.364 6.207 5.253 10.265 2.89 4.057 6.671 12.035 8.404 17.729 3.083 10.126 6.859 19.985 11.654 30.428 1.315 2.863 2.78 8.439 3.255 12.39 1.302 10.821 3.641 20.721 8.137 34.443 3.251 9.922 4.06 23.005 4.06 65.67 0 48.135-.567 55.431-5.876 75.581-3.232 12.267-6.165 24.75-6.519 27.74-.795 6.735-15.626 45.784-18.544 48.83-1.233 1.286-8.73-4.517-17.75-13.737-8.588-8.78-20.81-20.147-27.157-25.26-6.348-5.112-15.627-13.149-20.62-17.858s-10.163-8.563-11.486-8.563-3.753-1.131-5.4-2.513c-4.408-3.701-21.543-14.85-31.49-20.489-39.427-22.35-71.09-34.558-132.579-51.122-19.12-5.15-51.247-7.9-92.567-7.921-45.889-.025-76.135 3.076-104.441 10.707-10.223 2.756-22.083 5.848-26.357 6.873-19.19 4.6-67.007 25.36-98.788 42.89-12.256 6.76-43.36 27.622-49.801 33.404-2.622 2.353-10.332 8.72-17.133 14.15s-19.133 16.86-27.407 25.4c-8.273 8.541-15.595 15.53-16.27 15.53-.677 0-3.89-6.413-7.142-14.25m80.582-78.67c64.24-43.07 137.929-69.97 214.643-78.353 31.666-3.46 102.537-1.506 129.856 3.582 88.291 16.444 167.027 53.019 229.714 106.708 10.516 9.007 20.23 16.376 21.588 16.376 2.452 0 3.713-3.81 11.478-34.694 6.151-24.462 7.71-101.257 2.647-130.418-7.77-44.763-29.293-98.39-55.017-137.092C680.73 113.072 592.733 55.15 504.066 39.004c-23.937-4.358-101.781-4.42-124.956-.1-68.082 12.692-132.858 47.303-183.716 98.16-40.763 40.764-67.43 83.818-85.71 138.377-19.961 59.58-21.878 144.72-4.524 200.906l5.051 16.355 19.124-16.198c10.518-8.91 31.39-24.423 46.383-34.475" style="fill:#000;stroke-width:2.4781"/><path d="M194.64 362.039c.777-1.886 2.366-6.955 3.53-11.264 1.166-4.308 2.722-9.344 3.46-11.191.737-1.847 1.123-5.12.856-7.274-.39-3.156 1.247-3.917 8.426-3.917 4.9 0 10.67-.675 12.818-1.5 2.552-.979 3.38-.644 2.385.965-.837 1.355-.499 3.096.752 3.87 1.251.773 2.275.332 2.275-.98s2.64-4.645 5.868-7.406c3.227-2.762 7.772-9.415 10.1-14.785 3.486-8.042 4.798-9.294 7.44-7.102 4.95 4.108 10.583 23.38 8.85 30.28-.987 3.934-3.763 6.834-7.935 8.288-3.53 1.23-6.417 3.554-6.417 5.163 0 1.765-10.675 6.368-26.911 11.603-20.452 6.596-26.573 7.856-25.498 5.25m455.298-13.6c0-1.285-1.26-2.173-2.798-1.973-15.705 2.04-21.824-5.185-21.824-25.768v-12.394l12.203 7.806c6.712 4.293 13.561 7.806 15.22 7.806s4.113 1.095 5.451 2.433c1.383 1.383 2.975 1.558 3.686.407.69-1.115-2.439-3.362-6.95-4.993l-8.204-2.967 15.454-5.007 15.454-5.007 3.994 4.769c2.196 2.623 3.556 6.016 3.021 7.54s-.122 2.532.918 2.239 5.972 4.076 10.959 9.71l9.068 10.242-25.064 3.747c-29.486 4.408-30.588 4.458-30.588 1.41m-74.501-17.364c-5.484-3.345-6.073-4.765-4.903-11.816 1.922-11.589-7.147-20.934-22.464-23.148-22.605-3.266-102.995-19.707-104.839-21.44-1.047-.985-.04-2.313 2.239-2.952s11.602-3.447 20.72-6.24l16.577-5.079 35.683 4.987 35.684 4.987 5.268-5.684c6.973-7.525 12.784-7.172 19.83 1.203 4.27 5.074 5.796 9.421 5.796 16.518 0 9.038.747 10.196 12.122 18.784l12.122 9.152-2.5 8.147c-4.167 13.578-19.565 19.76-31.335 12.581M189.972 319.47c-4.924-.945-13.752-2.41-19.617-3.255l-10.665-1.536 8.426-9.857c4.635-5.421 9.745-9.89 11.356-9.93s2.332-1.041 1.601-2.224c-1.48-2.396 7.828-17.923 10.772-17.966 2.707-.04 21.629 13.842 21.629 15.869 0 .939-2.014 2.347-4.477 3.128-2.462.782-4.476 2.484-4.476 3.783 0 1.403 1.45 1.158 3.575-.606 4.126-3.424 27.146-3.568 30.523-.19 3.004 3.003-2.023 17.772-6.858 20.148-2.056 1.01-6.508 1.567-9.893 1.236s-6.156.346-6.156 1.504c0 2.434-12.777 2.383-25.74-.105zm118.07-5.99c-1.54-.62-2.799-2.595-2.799-4.388s-1.998-7.177-4.44-11.964l-4.44-8.704 7.502-4.637c9.379-5.796 10.864-5.78 16.14.179 2.345 2.648 8.586 7.586 13.87 10.973l9.606 6.157-12.802 6.934c-12.435 6.735-16.832 7.794-22.638 5.45m336.3-5.129c-6.542-2.706-13.83-11.266-17.914-21.04l-3.58-8.567 6.748 1.483c10.41 2.286 31.837 1.753 34.447-.857 1.626-1.626-1.296-1.908-9.591-.926-7.968.944-11.456.645-10.501-.899.938-1.518-2.015-1.924-8.603-1.181-10.777 1.215-12.04-.315-7.52-9.111 5.535-10.774 13.754-17.2 21.969-17.178 8.34.023 31.476 9.528 31.476 12.932 0 1.082 1.26 2.04 2.798 2.13 1.539.088 8.11 2.113 14.604 4.5l11.807 4.339-15.164 11.13c-28.87 21.192-29.56 21.579-33.149 18.6-2.658-2.206-3.278-2.009-3.278 1.043 0 2.07-.938 3.184-2.084 2.476s-2.716-.264-3.49.987c-1.633 2.642-2.877 2.661-8.975.14m-243.06-6.468c-28.763-18.241-43.82-52.224-41.754-94.24.642-13.056 2.916-27.153 5.84-36.206 5.568-17.234 25.427-48.966 30.644-48.966 2.864 0 2.244 2.316-3.147 11.751-9.656 16.9-18.058 43.668-19.662 62.647-2.724 32.229 7.022 56.776 32.67 82.282 9.283 9.232 18.894 17.916 21.356 19.297 4.154 2.33 3.852 2.773-4.19 6.155-11.01 4.63-9.96 4.762-21.757-2.72m-26.242.367c-28.953-14.268-49.61-52.818-49.559-92.486.03-23.651 10.96-56.706 23.41-70.802 9.436-10.683 9.81-7.646 1.283 10.386-13.867 29.323-14.961 69.696-2.561 94.548 10.772 21.59 21.45 37.631 32.54 48.882 12.864 13.05 10.613 17.221-5.113 9.472m-37.75-13.888c-4.902-3.551-12.125-10.35-16.051-15.109-8.723-10.57-19.514-37.87-21.573-54.575-2.1-17.028 4.548-51.441 9.938-51.441.772 0 .477 7.306-.655 16.235-4.016 31.677 7.047 65.668 32.418 99.596 9.932 13.282 8.864 14.668-4.076 5.294m-105.91-2.48c-1.846-1.184-4.996-1.643-7-1.021-2.192.681-10.21-3.867-20.144-11.428-9.076-6.908-19.467-14.114-23.09-16.013l-6.59-3.454 14.1-5.3c7.754-2.915 14.894-4.809 15.866-4.208.973.601 2.287-.259 2.92-1.91 1.81-4.718 20.763-12.64 30.238-12.64 6.05 0 9.95 1.49 13.193 5.037 5.984 6.544 12.055 18.626 10.262 20.42-2.171 2.17-11.666 1.658-16.422-.887-3.551-1.9-4.034-1.653-2.841 1.456 1.275 3.322.065 3.58-10.682 2.274-9.518-1.157-11.218-.93-7.918 1.053 2.605 1.565 10.9 2.138 21.823 1.505 10.9-.63 17.621-.169 17.621 1.211 0 4.227-11.34 21.572-15.59 23.847-5.313 2.843-11.368 2.866-15.746.058m172.613-18.348c-3.84-3.927-6.98-7.822-6.98-8.657s9.82-5.26 21.823-9.832c82.969-31.61 85.671-32.857 90.13-41.596 3.837-7.522 3.897-8.65.709-13.203-3.272-4.67-3.1-5.382 2.777-11.517 6.831-7.13 9.268-7.624 21.235-4.299 5.953 1.654 8.964 4.292 11.882 10.41l3.908 8.194-10.446 10.605c-10.379 10.538-10.435 10.678-8.878 22 1.466 10.659 1.131 11.83-5.181 18.142-7.95 7.95-12.793 8.497-18.026 2.035l-3.817-4.714-43.778 14.786c-24.078 8.132-44.813 14.786-46.078 14.786s-5.44-3.213-9.28-7.14m-14.505-20.838c-1.441-3.757 6.418-4.7 11.63-1.396 2.232 1.414 1.665 2.248-2.238 3.293-7.38 1.976-7.95 1.861-9.392-1.897" style="fill:#000;stroke-width:2.23828"/></svg>