<?xml version="1.0" encoding="UTF-8" standalone="no"?>
<svg
   xml:space="preserve"
   width="872"
   height="1209"
   viewBox="0 0 872 1209"
   version="1.1"
   id="svg1"
   sodipodi:docname="primal.svg"
   inkscape:version="1.4.2 (f4327f4, 2025-05-13)"
   xmlns:inkscape="http://www.inkscape.org/namespaces/inkscape"
   xmlns:sodipodi="http://sodipodi.sourceforge.net/DTD/sodipodi-0.dtd"
   xmlns="http://www.w3.org/2000/svg"
   xmlns:svg="http://www.w3.org/2000/svg"><defs
     id="defs1" /><sodipodi:namedview
     id="namedview1"
     pagecolor="#ffffff"
     bordercolor="#000000"
     borderopacity="0.25"
     inkscape:showpageshadow="2"
     inkscape:pageopacity="0.0"
     inkscape:pagecheckerboard="0"
     inkscape:deskcolor="#d1d1d1"
     inkscape:zoom="0.32817773"
     inkscape:cx="-1273.7001"
     inkscape:cy="1007.0763"
     inkscape:window-width="3440"
     inkscape:window-height="1369"
     inkscape:window-x="1737"
     inkscape:window-y="1432"
     inkscape:window-maximized="1"
     inkscape:current-layer="svg1" /><circle
     cx="438.49899"
     cy="780.88"
     r="417.83801"
     style="fill:none;stroke:#000000;stroke-width:18;stroke-dasharray:none;stroke-opacity:1"
     id="circle1" /><path
     style="fill:#000000;stroke-width:2.4781"
     d="m 95.136139,520.6992 c -3.25171,-7.83697 -6.12154,-15.92176 -6.37738,-17.96619 -0.25584,-2.04443 -2.71084,-10.408 -5.45555,-18.58572 -9.01363,-26.85562 -11.63246,-49.80405 -11.59464,-101.60193 0.0377,-51.58518 2.27457,-70.93636 11.74464,-101.60193 2.94633,-9.54066 5.50117,-18.46181 5.67744,-19.82476 0.68304,-5.28151 15.904101,-40.4142 22.012181,-50.80769 2.80563,-4.77404 7.88899,-14.03984 11.29638,-20.59067 3.40738,-6.55083 10.09824,-16.82656 14.86857,-22.83497 4.77033,-6.0084 12.57634,-16.06344 17.34667,-22.34452 11.1866,-14.72937 46.51773,-48.386637 61.47529,-58.562811 6.39569,-4.351231 12.18611,-8.677024 12.86759,-9.612872 3.53919,-4.860258 53.86691,-31.99676 73.10382,-39.417295 2.72591,-1.051503 7.74405,-3.132214 11.15143,-4.623802 3.40738,-1.491586 20.84089,-6.49868 38.74112,-11.126873 l 32.54587,-8.414897 59.14367,0.522472 c 45.64249,0.403201 62.67927,1.453296 74.63177,4.600074 8.51846,2.242684 22.05376,5.70817 30.07846,7.701079 8.02469,1.992912 20.77737,6.453484 28.3393,9.912383 7.56194,3.458901 15.42732,6.288909 17.47866,6.288909 2.05132,0 4.33203,0.974639 5.06825,2.165865 0.73622,1.191225 7.21411,4.954298 14.39531,8.362383 41.06009,19.486491 99.62745,69.739455 128.55731,110.306975 8.0297,11.25979 14.59943,21.09516 14.59943,21.85637 0,0.76122 3.34543,6.24644 7.43429,12.1894 4.08886,5.94295 7.43433,12.10501 7.43433,13.69347 0,1.58846 2.3637,6.20766 5.2527,10.26489 2.889,4.05723 6.6709,12.03537 8.4043,17.72921 3.0828,10.12638 6.8585,19.98477 11.6538,30.42782 1.315,2.86374 2.7798,8.43945 3.2552,12.39048 1.302,10.82126 3.6408,20.72121 8.1368,34.44273 3.251,9.92194 4.0598,23.00517 4.0597,65.66953 -10e-5,48.13605 -0.5673,55.43196 -5.8761,75.58193 -3.2318,12.26657 -6.165,24.7498 -6.5183,27.74049 -0.7955,6.73408 -15.626,45.78357 -18.5446,48.82883 -1.2324,1.28595 -8.73,-4.51658 -17.74961,-13.73688 -8.58871,-8.7798 -20.80946,-20.14643 -27.1572,-25.25918 -6.34774,-5.11276 -15.62707,-13.14925 -20.62073,-17.85887 -4.99366,-4.70962 -10.1622,-8.56296 -11.48563,-8.56296 -1.32343,0 -3.7531,-1.13086 -5.39928,-2.51299 -4.40811,-3.70114 -21.54359,-14.84977 -31.49112,-20.48865 -39.42675,-22.34952 -71.08869,-34.55826 -132.57812,-51.1217 -19.11997,-5.15035 -51.24668,-7.8996 -92.56734,-7.92151 -45.88843,-0.0248 -76.13461,3.07651 -104.44128,10.70718 -10.22214,2.75562 -22.08256,5.84843 -26.35646,6.87293 -19.19096,4.60026 -67.00734,25.36009 -98.7878,42.88944 -12.25651,6.7604 -43.36016,27.62304 -49.80162,33.40422 -2.62207,2.35327 -10.33155,8.72108 -17.13222,14.15067 -6.80064,5.42958 -19.1338,16.85979 -27.40699,25.40048 -8.27323,8.54068 -15.59523,15.52851 -16.27116,15.52851 -0.67592,0 -3.889441,-6.41207 -7.141151,-14.24905 z m 80.582131,-78.66987 c 64.24039,-43.06993 137.9287,-69.96896 214.64239,-78.35264 31.66588,-3.46061 102.53761,-1.50524 129.85678,3.58279 88.29082,16.44365 167.02619,53.01829 229.71369,106.70794 10.51567,9.00632 20.23022,16.37511 21.58782,16.37511 2.4524,0 3.7126,-3.80871 11.4784,-34.69334 6.1508,-24.46171 7.7094,-101.25678 2.6469,-130.41805 C 777.87305,280.46768 756.3515,226.84059 730.62661,188.13917 680.72951,113.07228 592.73317,55.148062 504.06596,39.003992 480.12894,34.645661 402.28452,34.583085 379.11038,38.903543 311.02777,51.596492 246.25231,86.206631 195.39405,137.06489 154.63054,177.82839 127.96318,220.88214 109.68427,275.441 89.722959,335.02153 87.805559,420.16087 105.15972,476.34706 l 5.05164,16.35536 19.12392,-16.19864 c 10.51817,-8.90925 31.39051,-24.42275 46.38299,-34.47445 z"
     id="path1" /><path
     style="fill:#000000;stroke-width:2.23828"
     d="m 194.63911,362.03863 c 0.77783,-1.88613 2.36711,-6.95459 3.53178,-11.26327 1.16466,-4.30868 2.72104,-9.3448 3.45866,-11.19136 0.73761,-1.84658 1.123,-5.12007 0.85642,-7.27439 -0.39049,-3.15571 1.24716,-3.91699 8.42602,-3.91699 4.9009,0 10.66918,-0.67477 12.81839,-1.49951 2.55128,-0.97902 3.37906,-0.64424 2.38482,0.96447 -0.83754,1.35521 -0.49915,3.09666 0.75198,3.86989 1.25112,0.77324 2.27477,0.33256 2.27477,-0.97929 0,-1.31183 2.64052,-4.64476 5.8678,-7.40647 3.22729,-2.76174 7.7724,-9.4149 10.10024,-14.78483 3.48606,-8.04185 4.79786,-9.29421 7.43917,-7.10214 4.95005,4.1082 10.58349,23.3796 8.85154,30.28022 -0.98738,3.934 -3.76405,6.83405 -7.93567,8.28829 -3.52929,1.23032 -6.41688,3.55337 -6.41688,5.16233 0,1.76497 -10.6753,6.36798 -26.91162,11.60389 -20.45138,6.59517 -26.57215,7.85525 -25.49742,5.24916 z M 649.9375,348.43897 c 0,-1.28502 -1.25904,-2.17291 -2.79784,-1.97306 -15.70503,2.03937 -21.82318,-5.1848 -21.82318,-25.7683 v -12.39386 l 12.20298,7.80616 c 6.71165,4.29339 13.56077,7.80616 15.22026,7.80616 1.65951,0 4.11228,1.09499 5.45059,2.4333 1.38225,1.38225 2.97436,1.55786 3.68589,0.40656 0.68895,-1.1147 -2.43889,-3.36162 -6.95068,-4.9931 l -8.2033,-2.96636 15.45409,-5.00738 15.45409,-5.0074 3.99343,4.76935 c 2.19637,2.62313 3.55587,6.01629 3.02115,7.54033 -0.53474,1.52406 -0.12154,2.53129 0.91837,2.23828 1.03985,-0.293 5.9712,4.07648 10.95849,9.70994 l 9.06786,10.24263 -25.06334,3.74658 c -29.48631,4.40773 -30.58886,4.45856 -30.58886,1.41017 z m -74.50053,-17.36398 c -5.48406,-3.34465 -6.07333,-4.7647 -4.90336,-11.81623 1.92279,-11.58878 -7.14619,-20.93364 -22.46394,-23.14731 -22.60431,-3.26672 -102.99435,-19.7078 -104.83827,-21.44117 -1.04723,-0.9844 -0.0401,-2.31245 2.23828,-2.95121 2.27824,-0.63875 11.60209,-3.44681 20.71964,-6.24011 l 16.57733,-5.07871 35.6837,4.98681 35.68371,4.98681 5.26764,-5.68388 c 6.97346,-7.52449 12.78428,-7.1721 19.8312,1.20269 4.26938,5.07386 5.79464,9.4218 5.79464,16.51813 0,9.03774 0.74744,10.1959 12.12236,18.78405 l 12.12234,9.15245 -2.50035,8.14695 c -4.16699,13.57732 -19.56454,19.75932 -31.33492,12.58073 z M 189.97215,319.46962 c -4.9242,-0.94471 -13.75209,-2.40909 -19.61751,-3.25419 l -10.66441,-1.53654 8.42614,-9.85677 c 4.63437,-5.42123 9.74461,-9.88984 11.35609,-9.93022 1.61147,-0.0403 2.33178,-1.04122 1.60071,-2.2241 -1.48083,-2.39603 7.8279,-17.9225 10.77134,-17.96605 2.70738,-0.0401 21.62953,13.84243 21.62953,15.8688 0,0.93941 -2.01445,2.34738 -4.47655,3.12882 -2.46211,0.78145 -4.47655,2.48348 -4.47655,3.7823 0,1.40365 1.45024,1.15791 3.57543,-0.60586 4.12589,-3.42415 27.14528,-3.56773 30.52264,-0.19047 3.00406,3.00406 -2.02293,17.77237 -6.85848,20.14886 -2.05574,1.01033 -6.50757,1.56654 -9.89297,1.23606 -3.38539,-0.3305 -6.15525,0.34596 -6.15525,1.50327 0,2.43463 -12.77719,2.383 -25.74016,-0.10404 z m 118.06897,-5.989 c -1.53882,-0.62092 -2.79785,-2.59599 -2.79785,-4.38902 0,-1.79304 -1.99814,-7.17676 -4.44033,-11.96382 l -4.44033,-8.70375 7.50238,-4.63672 c 9.3786,-5.79631 10.86357,-5.77987 16.13972,0.17861 2.34516,2.64837 8.58661,7.58609 13.86994,10.97267 l 9.60602,6.15744 -12.80133,6.93354 c -12.4355,6.73532 -16.83202,7.79398 -22.63822,5.45113 z m 336.3007,-5.12958 c -6.54188,-2.70589 -13.83028,-11.26623 -17.91425,-21.04055 l -3.57915,-8.56605 6.74793,1.48208 c 10.41041,2.28651 31.83645,1.75372 34.44676,-0.85658 1.62603,-1.62604 -1.2966,-1.90812 -9.59133,-0.92573 -7.96785,0.94368 -11.45542,0.64508 -10.50107,-0.89909 0.93841,-1.51838 -2.01464,-1.92388 -8.60267,-1.18131 -10.7769,1.21471 -12.03916,-0.31468 -7.51979,-9.11131 5.53523,-10.77395 13.75367,-17.20013 21.96844,-17.1776 8.34071,0.0228 31.47665,9.52797 31.47665,12.93176 0,1.08249 1.25902,2.04081 2.79784,2.12958 1.53881,0.0888 8.11075,2.11403 14.60429,4.50056 l 11.80643,4.33918 -15.16385,11.13061 c -28.8701,21.19127 -29.55981,21.57825 -33.14894,18.59955 -2.65809,-2.20605 -3.27851,-2.00872 -3.27851,1.04263 0,2.06997 -0.93765,3.18411 -2.08361,2.47584 -1.146,-0.70827 -2.71628,-0.26409 -3.48952,0.98703 -1.63307,2.64238 -2.87765,2.66172 -8.97565,0.13945 z m -243.05986,-6.46793 c -28.76324,-18.24111 -43.81977,-52.2239 -41.75403,-94.23947 0.64195,-13.05688 2.91591,-27.15322 5.84061,-36.20619 5.56779,-17.23426 25.42616,-48.96605 30.64391,-48.96605 2.86396,0 2.24367,2.31574 -3.14754,11.75093 -9.65601,16.899 -18.05755,43.66793 -19.66181,62.64632 -2.72438,32.22939 7.02173,56.7764 32.66913,82.28194 9.28425,9.23288 18.89488,17.91672 21.35698,19.29742 4.15367,2.32928 3.85139,2.77326 -4.19031,6.15524 -11.01023,4.63041 -9.95911,4.76183 -21.75694,-2.72014 z m -26.24191,0.36652 c -28.95291,-14.26771 -49.60981,-52.81721 -49.55873,-92.48554 0.0304,-23.65113 10.95987,-56.70605 23.41045,-70.80254 9.43515,-10.68246 9.81013,-7.64562 1.28245,10.38617 -13.86757,29.32298 -14.9613,69.69608 -2.56141,94.54834 10.77213,21.58978 21.45076,37.63097 32.54044,48.88154 12.86387,13.05048 10.61231,17.2214 -5.1132,9.47203 z m -37.74936,-13.88781 c -4.90225,-3.55115 -12.12561,-10.34991 -16.0519,-15.10835 -8.72236,-10.57096 -19.51336,-37.8697 -21.57329,-54.57539 -2.09966,-17.02792 4.54891,-51.4412 9.93831,-51.4412 0.77205,0 0.47745,7.30565 -0.65465,16.23481 -4.01631,31.67744 7.0473,65.66791 32.41762,99.59587 9.93188,13.28199 8.86448,14.66838 -4.07609,5.29426 z m -105.91046,-2.47958 c -1.84658,-1.18411 -4.99639,-1.64367 -6.9996,-1.02125 -2.19259,0.68126 -10.21002,-3.86707 -20.14447,-11.42805 -9.07624,-6.90784 -19.46723,-14.11375 -23.09104,-16.01317 l -6.58876,-3.4535 14.09911,-5.30031 c 7.7545,-2.91517 14.89461,-4.80864 15.86688,-4.20775 0.97229,0.60091 2.28644,-0.25903 2.92034,-1.91097 1.81022,-4.71732 20.76189,-12.63868 30.2378,-12.63868 6.04878,0 9.9486,1.48874 13.19221,5.03612 5.98435,6.54473 12.0558,18.62637 10.26192,20.42026 -2.17084,2.17084 -11.66609,1.65787 -16.42153,-0.88716 -3.55121,-1.90054 -4.03449,-1.65283 -2.84136,1.45644 1.27486,3.3222 0.0652,3.57968 -10.68216,2.27354 -9.51739,-1.15666 -11.21745,-0.93057 -7.91727,1.0529 2.60517,1.56576 10.9002,2.13813 21.82318,1.50579 10.89902,-0.63092 17.62059,-0.16899 17.62059,1.21102 0,4.22687 -11.34005,21.57174 -15.591,23.84678 -5.31241,2.8431 -11.36674,2.86539 -15.74484,0.0579 z m 172.6127,-18.34794 c -3.83922,-3.92684 -6.98042,-7.82266 -6.98042,-8.65735 0,-0.83467 9.82043,-5.25907 21.82318,-9.83195 82.96893,-31.6101 85.67162,-32.85742 90.12959,-41.59576 3.83746,-7.52203 3.89809,-8.65059 0.70923,-13.2033 -3.27151,-4.67075 -3.09995,-5.38216 2.77772,-11.51711 6.83112,-7.13016 9.26734,-7.62334 21.23495,-4.29876 5.95292,1.65372 8.96429,4.29205 11.88163,10.40976 l 3.90773,8.19462 -10.44548,10.60494 c -10.3791,10.53757 -10.43551,10.67733 -8.87832,21.99946 1.46595,10.65879 1.13142,11.83021 -5.18095,18.14261 -7.94973,7.94973 -12.79322,8.49636 -18.02583,2.03438 l -3.81695,-4.71376 -43.77803,14.78599 c -24.0779,8.13228 -44.81294,14.78597 -46.07783,14.78597 -1.26489,0 -5.44099,-3.21289 -9.28022,-7.13974 z m -14.50467,-20.83869 c -1.44166,-3.75696 6.41745,-4.69988 11.63044,-1.39538 2.23102,1.41421 1.66451,2.24758 -2.23828,3.29257 -7.38098,1.97628 -7.94985,1.86139 -9.39216,-1.89719 z"
     id="path2" /></svg>
