<svg xmlns="http://www.w3.org/2000/svg" xml:space="preserve" width="872" height="1209" viewBox="0 0 872 1209"><circle cx="438.499" cy="780.88" r="417.838" style="fill:none;stroke:#000;stroke-width:18;stroke-dasharray:none;stroke-opacity:1"/><path d="M95.136 520.7c-3.252-7.838-6.121-15.923-6.377-17.967s-2.711-10.408-5.456-18.586c-9.013-26.855-11.632-49.804-11.594-101.602.037-51.585 2.274-70.936 11.744-101.602 2.947-9.54 5.501-18.461 5.678-19.824.683-5.282 15.904-40.415 22.012-50.808 2.805-4.774 7.889-14.04 11.296-20.59 3.408-6.552 10.098-16.827 14.869-22.836a1595 1595 0 0 0 17.346-22.344c11.187-14.73 46.518-48.387 61.476-58.563 6.395-4.351 12.186-8.677 12.867-9.613 3.54-4.86 53.867-31.997 73.104-39.417 2.726-1.052 7.744-3.132 11.152-4.624s20.84-6.499 38.74-11.127l32.547-8.415 59.143.523c45.643.403 62.68 1.453 74.632 4.6a2689 2689 0 0 0 30.078 7.7c8.025 1.994 20.778 6.454 28.34 9.913s15.427 6.29 17.478 6.29 4.332.974 5.069 2.165c.736 1.191 7.214 4.954 14.395 8.362 41.06 19.487 99.627 69.74 128.557 110.307 8.03 11.26 14.6 21.096 14.6 21.857s3.345 6.246 7.434 12.19c4.089 5.942 7.434 12.104 7.434 13.693 0 1.588 2.364 6.207 5.253 10.265 2.89 4.057 6.671 12.035 8.404 17.729 3.083 10.126 6.859 19.985 11.654 30.428 1.315 2.863 2.78 8.439 3.255 12.39 1.302 10.821 3.641 20.721 8.137 34.443 3.251 9.922 4.06 23.005 4.06 65.67 0 48.135-.567 55.431-5.876 75.581-3.232 12.267-6.165 24.75-6.519 27.74-.795 6.735-15.626 45.784-18.544 48.83-1.233 1.286-8.73-4.517-17.75-13.737-8.588-8.78-20.81-20.147-27.157-25.26-6.348-5.112-15.627-13.149-20.62-17.858s-10.163-8.563-11.486-8.563-3.753-1.131-5.4-2.513c-4.408-3.701-21.543-14.85-31.49-20.489-39.427-22.35-71.09-34.558-132.579-51.122-19.12-5.15-51.247-7.9-92.567-7.921-45.889-.025-76.135 3.076-104.441 10.707-10.223 2.756-22.083 5.848-26.357 6.873-19.19 4.6-67.007 25.36-98.788 42.89-12.256 6.76-43.36 27.622-49.801 33.404-2.622 2.353-10.332 8.72-17.133 14.15s-19.133 16.86-27.407 25.4c-8.273 8.541-15.595 15.53-16.27 15.53-.677 0-3.89-6.413-7.142-14.25m80.582-78.67c64.24-43.07 137.929-69.97 214.643-78.353 31.666-3.46 102.537-1.506 129.856 3.582 88.291 16.444 167.027 53.019 229.714 106.708 10.516 9.007 20.23 16.376 21.588 16.376 2.452 0 3.713-3.81 11.478-34.694 6.151-24.462 7.71-101.257 2.647-130.418-7.77-44.763-29.293-98.39-55.017-137.092C680.73 113.072 592.733 55.15 504.066 39.004c-23.937-4.358-101.781-4.42-124.956-.1-68.082 12.692-132.858 47.303-183.716 98.16-40.763 40.764-67.43 83.818-85.71 138.377-19.961 59.58-21.878 144.72-4.524 200.906l5.051 16.355 19.124-16.198c10.518-8.91 31.39-24.423 46.383-34.475" style="fill:#000;stroke-width:2.4781"/><path d="M359.544 344.585c-57.181-4.025-67.41-4.864-76.182-6.247l-9.302-1.467.715-11.461c.394-6.304 1.235-11.957 1.87-12.562.635-.606 4.358-.583 8.272.05 50.9 8.243 125.049 11.942 189.864 9.473 43.087-1.641 55.213-2.535 84.73-6.247 10.776-1.354 22.632-2.492 26.348-2.528l6.756-.065.825 10.81c.454 5.944.398 11.29-.124 11.878-2 2.254-14.233 3.449-85.823 8.382-34.359 2.367-114.211 2.359-147.95-.016zm11.484-25.802c-1.486-.253-13.342-1.426-26.347-2.606-35.825-3.252-61.329-6.496-66.214-8.424-3.551-1.401-8.28-9.93-18.956-34.191-3.01-6.838-6.357-13.698-7.44-15.244-1.083-1.547-1.97-3.642-1.97-4.657 0-2.323-6.229-16.35-19.916-44.843-5.89-12.262-11.083-23.326-11.54-24.587-.457-1.262-3.262-2.949-6.233-3.749-5.957-1.604-9.983-5.846-12.347-13.01-1.277-3.87-1.172-5.272.599-7.974 3.545-5.412 7.146-6.654 11.333-3.91 8.199 5.372 12.451 14.968 9.502 21.442-1.572 3.45-1.058 4.125 15.854 20.846 17.026 16.834 17.914 17.49 34.367 25.403 9.289 4.467 21.145 9.262 26.347 10.654 12.672 3.393 35.838 3.466 47.936.151 11.278-3.09 34.292-14.807 41.24-20.994 8.06-7.18 24.369-29.217 30.265-40.896 5.31-10.519 12.442-31.9 14.514-43.51 1.521-8.53 3.66-8.203 4.665.714 1.012 8.975 8.286 31.491 13.53 41.879 4.772 9.453 18.6 29.42 25.384 36.652 15.128 16.128 46.096 29.196 69.298 29.242 15.122.03 27.806-3.126 47.606-11.845 16.571-7.297 18.39-8.496 32.766-21.607 19.7-17.967 22.222-21.26 21.182-27.665-1.096-6.758.195-10.946 5.096-16.528 5.073-5.778 10.104-6.271 14.648-1.434 2.45 2.608 2.934 4.24 2.26 7.614-1.518 7.584-5.88 13.038-12.052 15.067-6.318 2.077-4.992-.028-20.643 32.774-13.158 27.576-17.665 37.424-18.811 41.101-.998 3.2-3.958 9.753-16.93 37.472-4.059 8.674-7.564 14.33-9.533 15.385-1.713.916-7.407 2.193-12.654 2.836s-14.404 1.769-20.349 2.5c-44.995 5.54-67.776 6.73-125.655 6.566-31.955-.09-59.315-.371-60.802-.624m78.152-20.098c4.679-3.066 10.744-11.83 13.104-18.932 2.849-8.578 2.265-21.83-1.324-30.032-3.62-8.277-12.373-16.876-19.606-19.263-18.315-6.044-37.19 12.15-37.215 35.876-.016 14.606 7.803 29.153 18.233 33.921 5.673 2.594 21.903 1.643 26.808-1.57m-131.348-5.51c4.809-2.487 9.241-11.242 9.19-18.151-.118-15.828-16.428-24.143-27.936-14.244-3.391 2.917-3.72 4.019-3.698 12.438.027 10.758 2.407 15.382 9.975 19.382 6.005 3.174 7.324 3.235 12.469.574m243.458.596c9.367-4.825 14.158-15.8 11.262-25.802-4.593-15.861-25.782-15.362-30.323.715-4.46 15.795 7.229 31.18 19.06 25.087m-232.064-64.552c-.902-1.46-2.944-19.952-4.865-44.046-3.545-44.455-4.29-49.443-7.717-51.69-6.736-4.413-9.002-13.884-4.618-19.299 1.888-2.33 3.305-2.847 5.975-2.177 4.707 1.182 6.816 7.81 5.735 18.022-.792 7.482-.419 8.816 7.862 28.121 13.52 31.524 25.12 57.856 26.68 60.57 2.204 3.831-.37 5.728-12.055 8.88-11.429 3.085-15.832 3.504-16.997 1.619m191.778-1.655c-13.013-3.688-13.35-4.231-8.713-14.017 9.583-20.22 27.769-62.452 30.895-71.744 1.346-4.004 1.895-7.966 1.31-9.458-.554-1.413-1.05-5.18-1.103-8.372-.073-4.44.684-6.583 3.222-9.12 1.824-1.824 4.161-3.317 5.195-3.317 2.142 0 5.525 3.563 6.808 7.17 1.14 3.21-2.131 10.873-5.715 13.383-1.562 1.094-3.404 3.758-4.091 5.919-1.424 4.473-4.67 35.83-6.91 66.757-.834 11.518-1.814 22.006-2.178 23.307-.87 3.11-6.488 2.958-18.72-.508m-90.966-119.155c-4.218-4.49-4.026-12.944.39-17.093 3.172-2.98 3.487-3.021 6.734-.894 6.008 3.937 6.243 13.002.476 18.375-3.69 3.439-4.02 3.422-7.6-.388" style="fill:#000;stroke-width:1.35113"/></svg>