<?xml version="1.0" encoding="UTF-8" standalone="no"?>
<svg
   xml:space="preserve"
   width="872"
   height="1209"
   viewBox="0 0 872 1209"
   version="1.1"
   id="svg1"
   sodipodi:docname="privileged.svg"
   inkscape:version="1.4.2 (f4327f4, 2025-05-13)"
   xmlns:inkscape="http://www.inkscape.org/namespaces/inkscape"
   xmlns:sodipodi="http://sodipodi.sourceforge.net/DTD/sodipodi-0.dtd"
   xmlns="http://www.w3.org/2000/svg"
   xmlns:svg="http://www.w3.org/2000/svg"><defs
     id="defs1" /><sodipodi:namedview
     id="namedview1"
     pagecolor="#ffffff"
     bordercolor="#000000"
     borderopacity="0.25"
     inkscape:showpageshadow="2"
     inkscape:pageopacity="0.0"
     inkscape:pagecheckerboard="0"
     inkscape:deskcolor="#d1d1d1"
     inkscape:zoom="0.32817773"
     inkscape:cx="-1273.7001"
     inkscape:cy="763.30591"
     inkscape:window-width="3440"
     inkscape:window-height="1369"
     inkscape:window-x="1737"
     inkscape:window-y="1432"
     inkscape:window-maximized="1"
     inkscape:current-layer="svg1" /><circle
     cx="438.49899"
     cy="780.88"
     r="417.83801"
     style="fill:none;stroke:#000000;stroke-width:18;stroke-dasharray:none;stroke-opacity:1"
     id="circle1" /><path
     style="fill:#000000;stroke-width:2.4781"
     d="m 95.136139,520.6992 c -3.25171,-7.83697 -6.12154,-15.92176 -6.37738,-17.96619 -0.25584,-2.04443 -2.71084,-10.408 -5.45555,-18.58572 -9.01363,-26.85562 -11.63246,-49.80405 -11.59464,-101.60193 0.0377,-51.58518 2.27457,-70.93636 11.74464,-101.60193 2.94633,-9.54066 5.50117,-18.46181 5.67744,-19.82476 0.68304,-5.28151 15.904101,-40.4142 22.012181,-50.80769 2.80563,-4.77404 7.88899,-14.03984 11.29638,-20.59067 3.40738,-6.55083 10.09824,-16.82656 14.86857,-22.83497 4.77033,-6.0084 12.57634,-16.06344 17.34667,-22.34452 11.1866,-14.72937 46.51773,-48.386637 61.47529,-58.562811 6.39569,-4.351231 12.18611,-8.677024 12.86759,-9.612872 3.53919,-4.860258 53.86691,-31.99676 73.10382,-39.417295 2.72591,-1.051503 7.74405,-3.132214 11.15143,-4.623802 3.40738,-1.491586 20.84089,-6.49868 38.74112,-11.126873 l 32.54587,-8.414897 59.14367,0.522472 c 45.64249,0.403201 62.67927,1.453296 74.63177,4.600074 8.51846,2.242684 22.05376,5.70817 30.07846,7.701079 8.02469,1.992912 20.77737,6.453484 28.3393,9.912383 7.56194,3.458901 15.42732,6.288909 17.47866,6.288909 2.05132,0 4.33203,0.974639 5.06825,2.165865 0.73622,1.191225 7.21411,4.954298 14.39531,8.362383 41.06009,19.486491 99.62745,69.739455 128.55731,110.306975 8.0297,11.25979 14.59943,21.09516 14.59943,21.85637 0,0.76122 3.34543,6.24644 7.43429,12.1894 4.08886,5.94295 7.43433,12.10501 7.43433,13.69347 0,1.58846 2.3637,6.20766 5.2527,10.26489 2.889,4.05723 6.6709,12.03537 8.4043,17.72921 3.0828,10.12638 6.8585,19.98477 11.6538,30.42782 1.315,2.86374 2.7798,8.43945 3.2552,12.39048 1.302,10.82126 3.6408,20.72121 8.1368,34.44273 3.251,9.92194 4.0598,23.00517 4.0597,65.66953 -10e-5,48.13605 -0.5673,55.43196 -5.8761,75.58193 -3.2318,12.26657 -6.165,24.7498 -6.5183,27.74049 -0.7955,6.73408 -15.626,45.78357 -18.5446,48.82883 -1.2324,1.28595 -8.73,-4.51658 -17.74961,-13.73688 -8.58871,-8.7798 -20.80946,-20.14643 -27.1572,-25.25918 -6.34774,-5.11276 -15.62707,-13.14925 -20.62073,-17.85887 -4.99366,-4.70962 -10.1622,-8.56296 -11.48563,-8.56296 -1.32343,0 -3.7531,-1.13086 -5.39928,-2.51299 -4.40811,-3.70114 -21.54359,-14.84977 -31.49112,-20.48865 -39.42675,-22.34952 -71.08869,-34.55826 -132.57812,-51.1217 -19.11997,-5.15035 -51.24668,-7.8996 -92.56734,-7.92151 -45.88843,-0.0248 -76.13461,3.07651 -104.44128,10.70718 -10.22214,2.75562 -22.08256,5.84843 -26.35646,6.87293 -19.19096,4.60026 -67.00734,25.36009 -98.7878,42.88944 -12.25651,6.7604 -43.36016,27.62304 -49.80162,33.40422 -2.62207,2.35327 -10.33155,8.72108 -17.13222,14.15067 -6.80064,5.42958 -19.1338,16.85979 -27.40699,25.40048 -8.27323,8.54068 -15.59523,15.52851 -16.27116,15.52851 -0.67592,0 -3.889441,-6.41207 -7.141151,-14.24905 z m 80.582131,-78.66987 c 64.24039,-43.06993 137.9287,-69.96896 214.64239,-78.35264 31.66588,-3.46061 102.53761,-1.50524 129.85678,3.58279 88.29082,16.44365 167.02619,53.01829 229.71369,106.70794 10.51567,9.00632 20.23022,16.37511 21.58782,16.37511 2.4524,0 3.7126,-3.80871 11.4784,-34.69334 6.1508,-24.46171 7.7094,-101.25678 2.6469,-130.41805 C 777.87305,280.46768 756.3515,226.84059 730.62661,188.13917 680.72951,113.07228 592.73317,55.148062 504.06596,39.003992 480.12894,34.645661 402.28452,34.583085 379.11038,38.903543 311.02777,51.596492 246.25231,86.206631 195.39405,137.06489 154.63054,177.82839 127.96318,220.88214 109.68427,275.441 89.722959,335.02153 87.805559,420.16087 105.15972,476.34706 l 5.05164,16.35536 19.12392,-16.19864 c 10.51817,-8.90925 31.39051,-24.42275 46.38299,-34.47445 z"
     id="path1" /><path
     style="fill:#000000;stroke-width:1.35113"
     d="m 359.54379,344.58497 c -57.18086,-4.02496 -67.40964,-4.86378 -76.18229,-6.24738 l -9.30108,-1.46693 0.71502,-11.4608 c 0.39318,-6.30344 1.23467,-11.95642 1.86984,-12.5622 0.63517,-0.60576 4.35728,-0.58282 8.27138,0.051 50.90025,8.24214 125.04908,11.94143 189.86454,9.47237 43.08676,-1.64133 55.21294,-2.53531 84.73065,-6.24653 10.77531,-1.35476 22.63152,-2.49254 26.34715,-2.52835 l 6.75567,-0.0651 0.82514,10.80909 c 0.45371,5.94499 0.39805,11.29039 -0.1243,11.87863 -1.99968,2.25407 -14.233,3.44885 -85.82292,8.38204 -34.35842,2.3676 -114.2108,2.35909 -147.94934,-0.0158 z m 11.48466,-25.80201 c -1.48626,-0.25308 -13.34246,-1.42579 -26.34715,-2.60606 -35.82577,-3.2514 -61.32912,-6.49592 -66.21442,-8.42373 -3.55106,-1.40127 -8.27949,-9.93009 -18.95576,-34.19129 -3.00925,-6.83829 -6.35736,-13.69825 -7.4403,-15.24435 -1.08293,-1.54609 -1.96901,-3.64132 -1.96901,-4.65605 0,-2.32391 -6.22981,-16.35093 -19.9164,-44.8435 -5.89001,-12.26156 -11.0831,-23.3259 -11.54033,-24.58741 -0.45722,-1.26152 -3.26204,-2.94821 -6.23306,-3.7482 -5.95661,-1.60395 -9.98286,-5.84635 -12.34708,-13.00982 -1.27736,-3.87074 -1.17224,-5.2721 0.59869,-7.97485 3.54578,-5.41159 7.14602,-6.65371 11.33333,-3.91008 8.19909,5.37219 12.45138,14.96844 9.50173,21.44222 -1.57165,3.44938 -1.05741,4.12544 15.85395,20.84577 17.02646,16.8342 17.91457,17.4907 34.36734,25.40312 9.28906,4.46728 21.14528,9.26193 26.34715,10.65476 12.67203,3.39299 35.83833,3.46577 47.93545,0.15057 11.27819,-3.09079 34.29222,-14.80691 41.23949,-20.99442 8.0602,-7.1787 24.3699,-29.21675 30.26584,-40.89568 5.30996,-10.51847 12.44235,-31.90072 14.51363,-43.51049 1.52178,-8.53015 3.6605,-8.2026 4.66561,0.71456 1.01173,8.9751 8.28569,31.49102 13.52932,41.87855 4.77222,9.45368 18.60054,29.42046 25.38433,36.65269 15.12785,16.12766 46.09628,29.19545 69.29798,29.2418 15.12218,0.0303 27.80664,-3.12576 47.60672,-11.84477 16.5706,-7.29693 18.39003,-8.49674 32.76504,-21.60681 19.70117,-17.96743 22.22226,-21.26006 21.18283,-27.66579 -1.09672,-6.75771 0.19443,-10.94576 5.09514,-16.52739 5.07392,-5.77878 10.10405,-6.27136 14.64806,-1.43439 2.45055,2.60841 2.93452,4.23921 2.2595,7.61405 -1.51691,7.58447 -5.87865,13.03759 -12.05145,15.06701 -6.31737,2.07696 -4.99177,-0.0275 -20.64292,32.77397 -13.15803,27.57637 -17.66515,37.42437 -18.81105,41.10145 -0.99727,3.20024 -3.95774,9.75298 -16.92918,37.4713 -4.05949,8.67474 -7.56461,14.33097 -9.53376,15.38483 -1.7127,0.91662 -7.40692,2.19302 -12.65378,2.83641 -5.24687,0.6434 -14.40378,1.76861 -20.34878,2.50041 -44.99511,5.53889 -67.77647,6.72927 -125.65561,6.56581 -31.95436,-0.0902 -59.31484,-0.37114 -60.80109,-0.6242 z m 78.1517,-20.09841 c 4.67844,-3.06539 10.74396,-11.82907 13.10344,-18.93196 2.84928,-8.57746 2.26546,-21.82959 -1.32316,-30.03176 -3.62104,-8.27661 -12.37356,-16.87565 -19.60633,-19.26272 -18.31478,-6.04441 -37.18919,12.15061 -37.21526,35.87567 -0.0162,14.60655 7.80266,29.15315 18.23275,33.92171 5.67355,2.59388 21.90381,1.6428 26.80856,-1.57094 z m -131.34821,-5.51021 c 4.80869,-2.4867 9.24149,-11.24163 9.19002,-18.15073 -0.11755,-15.82733 -16.42751,-24.14303 -27.93608,-14.24368 -3.39135,2.91704 -3.719,4.01906 -3.69765,12.43779 0.027,10.75826 2.40718,15.38275 9.97462,19.3824 6.00499,3.17391 7.32424,3.23467 12.46909,0.57422 z m 243.4576,0.59633 c 9.36783,-4.82469 14.15801,-15.79902 11.26199,-25.80132 -4.59224,-15.86135 -25.78142,-15.36205 -30.32205,0.71451 -4.46105,15.79484 7.22845,31.1805 19.06006,25.08681 z M 329.2258,229.21854 c -0.90162,-1.4588 -2.94426,-19.9519 -4.86517,-44.04543 -3.54416,-44.45496 -4.28891,-49.44359 -7.71647,-51.68946 -6.73595,-4.41357 -9.00234,-13.88483 -4.61805,-19.29917 1.88754,-2.33094 3.30461,-2.84726 5.97513,-2.17699 4.70709,1.18139 6.81607,7.80887 5.73517,18.02179 -0.79191,7.48154 -0.41899,8.8154 7.86144,28.12111 13.52082,31.52352 25.12004,57.85564 26.68047,60.56919 2.20344,3.83175 -0.37103,5.7284 -12.05497,8.88108 -11.42925,3.08393 -15.83246,3.50303 -16.99755,1.61788 z m 191.77869,-1.65458 c -13.01347,-3.6878 -13.35111,-4.23118 -8.71334,-14.01701 9.58266,-20.21945 27.76867,-62.45155 30.89453,-71.74434 1.34653,-4.00333 1.89537,-7.96574 1.30992,-9.45795 -0.5541,-1.41246 -1.05023,-5.17979 -1.10239,-8.37185 -0.073,-4.44025 0.68422,-6.5829 3.22151,-9.12016 1.82404,-1.82404 4.16177,-3.31643 5.19512,-3.31643 2.14223,0 5.5256,3.56291 6.8077,7.16898 1.1413,3.21012 -2.13074,10.87343 -5.71449,13.38357 -1.56246,1.0944 -3.40365,3.75791 -4.09138,5.91891 -1.42383,4.47369 -4.66952,35.83113 -6.90971,66.75688 -0.83432,11.51843 -1.81444,22.00662 -2.17803,23.30709 -0.86999,3.11104 -6.48748,2.95868 -18.71944,-0.50769 z M 430.03835,108.40908 c -4.21866,-4.49055 -4.02585,-12.94439 0.38979,-17.092692 3.17193,-2.979901 3.48701,-3.021717 6.7342,-0.894001 6.00782,3.936413 6.24265,13.001863 0.47614,18.374153 -3.6913,3.4391 -4.02111,3.42229 -7.60013,-0.38746 z"
     id="path3" /></svg>
