<?xml version="1.0" encoding="UTF-8" standalone="no"?>
<svg
   xml:space="preserve"
   width="872"
   height="1209"
   viewBox="0 0 872 1209"
   version="1.1"
   id="svg1"
   sodipodi:docname="productive.svg"
   inkscape:version="1.4.2 (f4327f4, 2025-05-13)"
   xmlns:inkscape="http://www.inkscape.org/namespaces/inkscape"
   xmlns:sodipodi="http://sodipodi.sourceforge.net/DTD/sodipodi-0.dtd"
   xmlns="http://www.w3.org/2000/svg"
   xmlns:svg="http://www.w3.org/2000/svg"><defs
     id="defs1" /><sodipodi:namedview
     id="namedview1"
     pagecolor="#ffffff"
     bordercolor="#000000"
     borderopacity="0.25"
     inkscape:showpageshadow="2"
     inkscape:pageopacity="0.0"
     inkscape:pagecheckerboard="0"
     inkscape:deskcolor="#d1d1d1"
     inkscape:zoom="0.32817773"
     inkscape:cx="-1273.7001"
     inkscape:cy="763.30591"
     inkscape:window-width="3440"
     inkscape:window-height="1369"
     inkscape:window-x="1737"
     inkscape:window-y="1432"
     inkscape:window-maximized="1"
     inkscape:current-layer="svg1" /><circle
     cx="438.49899"
     cy="780.88"
     r="417.83801"
     style="fill:none;stroke:#000000;stroke-width:18;stroke-dasharray:none;stroke-opacity:1"
     id="circle1" /><path
     style="fill:#000000;stroke-width:2.4781"
     d="m 95.136139,520.6992 c -3.25171,-7.83697 -6.12154,-15.92176 -6.37738,-17.96619 -0.25584,-2.04443 -2.71084,-10.408 -5.45555,-18.58572 -9.01363,-26.85562 -11.63246,-49.80405 -11.59464,-101.60193 0.0377,-51.58518 2.27457,-70.93636 11.74464,-101.60193 2.94633,-9.54066 5.50117,-18.46181 5.67744,-19.82476 0.68304,-5.28151 15.904101,-40.4142 22.012181,-50.80769 2.80563,-4.77404 7.88899,-14.03984 11.29638,-20.59067 3.40738,-6.55083 10.09824,-16.82656 14.86857,-22.83497 4.77033,-6.0084 12.57634,-16.06344 17.34667,-22.34452 11.1866,-14.72937 46.51773,-48.386637 61.47529,-58.562811 6.39569,-4.351231 12.18611,-8.677024 12.86759,-9.612872 3.53919,-4.860258 53.86691,-31.99676 73.10382,-39.417295 2.72591,-1.051503 7.74405,-3.132214 11.15143,-4.623802 3.40738,-1.491586 20.84089,-6.49868 38.74112,-11.126873 l 32.54587,-8.414897 59.14367,0.522472 c 45.64249,0.403201 62.67927,1.453296 74.63177,4.600074 8.51846,2.242684 22.05376,5.70817 30.07846,7.701079 8.02469,1.992912 20.77737,6.453484 28.3393,9.912383 7.56194,3.458901 15.42732,6.288909 17.47866,6.288909 2.05132,0 4.33203,0.974639 5.06825,2.165865 0.73622,1.191225 7.21411,4.954298 14.39531,8.362383 41.06009,19.486491 99.62745,69.739455 128.55731,110.306975 8.0297,11.25979 14.59943,21.09516 14.59943,21.85637 0,0.76122 3.34543,6.24644 7.43429,12.1894 4.08886,5.94295 7.43433,12.10501 7.43433,13.69347 0,1.58846 2.3637,6.20766 5.2527,10.26489 2.889,4.05723 6.6709,12.03537 8.4043,17.72921 3.0828,10.12638 6.8585,19.98477 11.6538,30.42782 1.315,2.86374 2.7798,8.43945 3.2552,12.39048 1.302,10.82126 3.6408,20.72121 8.1368,34.44273 3.251,9.92194 4.0598,23.00517 4.0597,65.66953 -10e-5,48.13605 -0.5673,55.43196 -5.8761,75.58193 -3.2318,12.26657 -6.165,24.7498 -6.5183,27.74049 -0.7955,6.73408 -15.626,45.78357 -18.5446,48.82883 -1.2324,1.28595 -8.73,-4.51658 -17.74961,-13.73688 -8.58871,-8.7798 -20.80946,-20.14643 -27.1572,-25.25918 -6.34774,-5.11276 -15.62707,-13.14925 -20.62073,-17.85887 -4.99366,-4.70962 -10.1622,-8.56296 -11.48563,-8.56296 -1.32343,0 -3.7531,-1.13086 -5.39928,-2.51299 -4.40811,-3.70114 -21.54359,-14.84977 -31.49112,-20.48865 -39.42675,-22.34952 -71.08869,-34.55826 -132.57812,-51.1217 -19.11997,-5.15035 -51.24668,-7.8996 -92.56734,-7.92151 -45.88843,-0.0248 -76.13461,3.07651 -104.44128,10.70718 -10.22214,2.75562 -22.08256,5.84843 -26.35646,6.87293 -19.19096,4.60026 -67.00734,25.36009 -98.7878,42.88944 -12.25651,6.7604 -43.36016,27.62304 -49.80162,33.40422 -2.62207,2.35327 -10.33155,8.72108 -17.13222,14.15067 -6.80064,5.42958 -19.1338,16.85979 -27.40699,25.40048 -8.27323,8.54068 -15.59523,15.52851 -16.27116,15.52851 -0.67592,0 -3.889441,-6.41207 -7.141151,-14.24905 z m 80.582131,-78.66987 c 64.24039,-43.06993 137.9287,-69.96896 214.64239,-78.35264 31.66588,-3.46061 102.53761,-1.50524 129.85678,3.58279 88.29082,16.44365 167.02619,53.01829 229.71369,106.70794 10.51567,9.00632 20.23022,16.37511 21.58782,16.37511 2.4524,0 3.7126,-3.80871 11.4784,-34.69334 6.1508,-24.46171 7.7094,-101.25678 2.6469,-130.41805 C 777.87305,280.46768 756.3515,226.84059 730.62661,188.13917 680.72951,113.07228 592.73317,55.148062 504.06596,39.003992 480.12894,34.645661 402.28452,34.583085 379.11038,38.903543 311.02777,51.596492 246.25231,86.206631 195.39405,137.06489 154.63054,177.82839 127.96318,220.88214 109.68427,275.441 89.722959,335.02153 87.805559,420.16087 105.15972,476.34706 l 5.05164,16.35536 19.12392,-16.19864 c 10.51817,-8.90925 31.39051,-24.42275 46.38299,-34.47445 z"
     id="path1" /><path
     style="fill:#000000;stroke-width:2.65476"
     d="m 284.94062,344.71529 c -12.98576,-7.42567 -19.84674,-16.54213 -21.88028,-29.07287 -5.29917,-32.65568 23.49862,-61.41844 52.72621,-52.66168 9.60971,2.87909 11.00107,2.45195 30.63463,-9.4082 11.3122,-6.83335 30.72195,-19.23482 43.13297,-27.55856 12.411,-8.32398 38.69315,-25.66097 58.40475,-38.52669 84.48547,-55.14365 78.79647,-50.74183 80.6628,-62.4132 2.29786,-14.36994 20.32268,-33.31301 34.15563,-35.89558 10.981,-2.05022 28.53869,0.34007 28.53869,3.8853 0,1.24162 -6.27188,6.1707 -13.9375,10.9535 -7.66562,4.7828 -15.43081,10.51151 -17.25595,12.73065 -8.56657,10.41544 1.11726,30.71216 15.67236,32.84844 6.70066,0.98332 11.51131,-0.91221 23.26688,-9.16746 l 14.81968,-10.40718 0.82302,6.64329 c 2.05745,16.60712 -17.9534,36.20004 -39.0419,38.22643 -7.13528,0.68545 -15.32976,-0.14072 -18.56238,-1.87003 -5.12021,-2.7402 -8.64393,-1.11974 -30.55837,14.05324 -13.62395,9.43292 -28.87293,19.35273 -33.8866,22.04414 -5.0137,2.69111 -21.00402,12.93127 -35.53406,22.75582 -28.17488,19.05056 -75.28391,50.02786 -92.78729,61.01355 -9.0599,5.68627 -11.1038,8.73785 -13.92023,20.78226 -7.18432,30.72304 -39.35738,45.97834 -65.47306,31.04483 z m 36.79287,-16.63397 c 5.73163,-4.37163 9.73952,-10.37079 11.46193,-17.15695 2.33991,-9.21839 1.89842,-11.45184 -3.78861,-19.1618 -3.54039,-4.7998 -8.47931,-9.53906 -10.97531,-10.53144 -16.36475,-6.50703 -36.32935,4.13771 -38.22565,20.38118 -1.54162,13.20554 7.37015,28.63102 17.83628,30.87329 13.16231,2.81982 14.56111,2.55968 23.69136,-4.40428 z m 70.47542,-71.04857 c 13.87113,-8.77583 33.58273,-21.62201 43.80356,-28.54697 10.22084,-6.92463 30.26739,-20.02991 44.54788,-29.12244 23.13728,-14.73154 33.84675,-24.65135 30.36872,-28.12928 -2.46362,-2.46363 -17.42718,5.17197 -41.73208,21.29537 -41.01519,27.20865 -85.55526,56.11562 -96.30545,62.50347 -12.63375,7.50711 -17.84929,12.69402 -17.84929,17.75213 0,6.00138 8.43285,2.42723 37.16666,-15.75228 z m 0,71.13859 c 0,-3.72599 -2.35716,-13.48093 -5.23811,-21.67803 -2.88122,-8.19709 -4.6177,-15.90808 -3.85896,-17.13596 1.28544,-2.07947 45.11953,-31.83961 77.86269,-52.86262 7.88865,-5.06502 17.39928,-11.25678 21.13469,-13.75942 6.37835,-4.2731 7.09344,-4.27708 11.75008,-0.0636 4.73264,4.28296 5.76484,3.62087 22.66887,-14.54219 23.67676,-25.44009 37.86697,-32.20471 49.58378,-23.6372 4.76094,3.48119 4.26787,4.6498 -9.80106,23.22912 -16.93151,22.35974 -19.73518,27.31114 -24.58081,43.41198 -4.23092,14.05832 -20.55085,33.97192 -41.02169,50.05472 -11.63311,9.13934 -15.73385,14.26808 -17.66677,22.09484 l -2.51724,10.19242 -39.15774,0.73455 -39.15773,0.73486 z M 365.6151,212.30477 c -0.0265,-10.74191 -1.67861,-27.29628 -3.67392,-36.78704 -5.17599,-24.61837 -7.66324,-49.15927 -5.63155,-55.56118 0.95997,-3.0241 4.01294,-5.49829 6.78451,-5.49829 4.10002,0 6.78823,5.60261 14.42226,30.05722 5.16059,16.53141 9.38299,31.31816 9.38299,32.85956 0,1.54109 1.74285,4.2484 3.87276,6.01617 6.50257,5.39666 7.32874,-6.32357 2.80051,-39.73057 -7.59023,-55.9985 -7.84721,-62.089832 -2.79679,-66.281502 8.89743,-7.38388 12.78161,-0.32194 20.52162,37.311362 4.02786,19.58394 7.3539,38.89226 7.3912,42.90761 0.0372,4.01536 1.26247,7.30062 2.7226,7.30062 1.67451,0 2.65476,-18.19898 2.65476,-49.28751 0,-28.8984 1.13685,-51.411882 2.74815,-54.422622 4.25051,-7.94229 15.34842,-6.67087 18.90498,2.16551 1.61612,4.01528 3.62033,27.012162 4.45379,51.104152 1.67574,48.43847 5.0878,41.46123 5.51763,-11.28276 0.20309,-24.923162 0.91295,-29.219072 5.60296,-33.908992 7.24117,-7.2411 14.72569,-3.15225 18.39152,10.04749 2.9307,10.552662 3.7705,64.386212 1.15649,74.133682 -1.43827,5.36314 -18.9713,17.90977 -87.6727,62.73889 -28.70036,18.72751 -27.49988,18.89658 -27.55377,-3.8818 z"
     id="path7"
     inkscape:transform-center-x="1302.3936"
     inkscape:transform-center-y="-2103.2444" /></svg>
