<svg xmlns="http://www.w3.org/2000/svg" xml:space="preserve" width="872" height="1209" viewBox="0 0 872 1209"><circle cx="438.499" cy="780.88" r="417.838" style="fill:none;stroke:#000;stroke-width:18;stroke-dasharray:none;stroke-opacity:1"/><path d="M95.136 520.7c-3.252-7.838-6.121-15.923-6.377-17.967s-2.711-10.408-5.456-18.586c-9.013-26.855-11.632-49.804-11.594-101.602.037-51.585 2.274-70.936 11.744-101.602 2.947-9.54 5.501-18.461 5.678-19.824.683-5.282 15.904-40.415 22.012-50.808 2.805-4.774 7.889-14.04 11.296-20.59 3.408-6.552 10.098-16.827 14.869-22.836a1595 1595 0 0 0 17.346-22.344c11.187-14.73 46.518-48.387 61.476-58.563 6.395-4.351 12.186-8.677 12.867-9.613 3.54-4.86 53.867-31.997 73.104-39.417 2.726-1.052 7.744-3.132 11.152-4.624s20.84-6.499 38.74-11.127l32.547-8.415 59.143.523c45.643.403 62.68 1.453 74.632 4.6a2689 2689 0 0 0 30.078 7.7c8.025 1.994 20.778 6.454 28.34 9.913s15.427 6.29 17.478 6.29 4.332.974 5.069 2.165c.736 1.191 7.214 4.954 14.395 8.362 41.06 19.487 99.627 69.74 128.557 110.307 8.03 11.26 14.6 21.096 14.6 21.857s3.345 6.246 7.434 12.19c4.089 5.942 7.434 12.104 7.434 13.693 0 1.588 2.364 6.207 5.253 10.265 2.89 4.057 6.671 12.035 8.404 17.729 3.083 10.126 6.859 19.985 11.654 30.428 1.315 2.863 2.78 8.439 3.255 12.39 1.302 10.821 3.641 20.721 8.137 34.443 3.251 9.922 4.06 23.005 4.06 65.67 0 48.135-.567 55.431-5.876 75.581-3.232 12.267-6.165 24.75-6.519 27.74-.795 6.735-15.626 45.784-18.544 48.83-1.233 1.286-8.73-4.517-17.75-13.737-8.588-8.78-20.81-20.147-27.157-25.26-6.348-5.112-15.627-13.149-20.62-17.858s-10.163-8.563-11.486-8.563-3.753-1.131-5.4-2.513c-4.408-3.701-21.543-14.85-31.49-20.489-39.427-22.35-71.09-34.558-132.579-51.122-19.12-5.15-51.247-7.9-92.567-7.921-45.889-.025-76.135 3.076-104.441 10.707-10.223 2.756-22.083 5.848-26.357 6.873-19.19 4.6-67.007 25.36-98.788 42.89-12.256 6.76-43.36 27.622-49.801 33.404-2.622 2.353-10.332 8.72-17.133 14.15s-19.133 16.86-27.407 25.4c-8.273 8.541-15.595 15.53-16.27 15.53-.677 0-3.89-6.413-7.142-14.25m80.582-78.67c64.24-43.07 137.929-69.97 214.643-78.353 31.666-3.46 102.537-1.506 129.856 3.582 88.291 16.444 167.027 53.019 229.714 106.708 10.516 9.007 20.23 16.376 21.588 16.376 2.452 0 3.713-3.81 11.478-34.694 6.151-24.462 7.71-101.257 2.647-130.418-7.77-44.763-29.293-98.39-55.017-137.092C680.73 113.072 592.733 55.15 504.066 39.004c-23.937-4.358-101.781-4.42-124.956-.1-68.082 12.692-132.858 47.303-183.716 98.16-40.763 40.764-67.43 83.818-85.71 138.377-19.961 59.58-21.878 144.72-4.524 200.906l5.051 16.355 19.124-16.198c10.518-8.91 31.39-24.423 46.383-34.475" style="fill:#000;stroke-width:2.4781"/><path d="M284.94 344.715c-12.985-7.425-19.846-16.542-21.88-29.073-5.299-32.655 23.499-61.418 52.727-52.661 9.61 2.879 11 2.452 30.634-9.408 11.312-6.834 30.722-19.235 43.133-27.559s38.693-25.661 58.405-38.527c84.485-55.143 78.796-50.742 80.663-62.413 2.298-14.37 20.322-33.313 34.155-35.895 10.981-2.05 28.539.34 28.539 3.885 0 1.241-6.272 6.17-13.937 10.953-7.666 4.783-15.431 10.512-17.256 12.731-8.567 10.415 1.117 30.712 15.672 32.848 6.7.984 11.511-.912 23.267-9.167l14.82-10.407.823 6.643c2.057 16.607-17.954 36.2-39.042 38.226-7.136.686-15.33-.14-18.563-1.87-5.12-2.74-8.644-1.12-30.558 14.054-13.624 9.433-28.873 19.352-33.887 22.044-5.013 2.69-21.004 12.931-35.534 22.756-28.175 19.05-75.284 50.028-92.787 61.013-9.06 5.686-11.104 8.738-13.92 20.782-7.185 30.723-39.358 45.979-65.473 31.045m36.793-16.634c5.732-4.371 9.74-10.37 11.462-17.157 2.34-9.218 1.899-11.451-3.788-19.161-3.54-4.8-8.48-9.54-10.975-10.532-16.365-6.507-36.33 4.138-38.226 20.381-1.542 13.206 7.37 28.631 17.836 30.874 13.162 2.82 14.561 2.56 23.691-4.405m70.476-71.048c13.871-8.776 33.583-21.622 43.803-28.547 10.221-6.925 30.268-20.03 44.548-29.123 23.138-14.731 33.847-24.651 30.37-28.129-2.465-2.464-17.428 5.172-41.733 21.295-41.015 27.21-85.555 56.116-96.305 62.504-12.634 7.507-17.85 12.694-17.85 17.752 0 6.001 8.433 2.427 37.167-15.752m0 71.138c0-3.726-2.357-13.48-5.238-21.678-2.881-8.197-4.618-15.908-3.86-17.136 1.286-2.08 45.12-31.84 77.864-52.862 7.888-5.065 17.399-11.257 21.134-13.76 6.379-4.273 7.094-4.277 11.75-.063 4.733 4.283 5.765 3.62 22.67-14.542 23.676-25.44 37.866-32.205 49.583-23.638 4.76 3.482 4.268 4.65-9.801 23.23-16.932 22.36-19.735 27.31-24.58 43.411-4.232 14.059-20.552 33.972-41.023 50.055-11.633 9.14-15.733 14.268-17.666 22.095l-2.518 10.192-39.157.735-39.158.735zm-26.594-115.866c-.026-10.742-1.679-27.297-3.674-36.787-5.176-24.619-7.663-49.16-5.631-55.561.96-3.025 4.013-5.499 6.784-5.499 4.1 0 6.788 5.603 14.422 30.057 5.161 16.532 9.383 31.319 9.383 32.86s1.743 4.248 3.873 6.016c6.503 5.397 7.329-6.323 2.8-39.73-7.59-55.999-7.847-62.09-2.796-66.282 8.897-7.384 12.781-.322 20.521 37.311 4.028 19.584 7.354 38.893 7.392 42.908.037 4.015 1.262 7.3 2.722 7.3 1.675 0 2.655-18.198 2.655-49.287 0-28.898 1.137-51.412 2.748-54.422 4.25-7.943 15.349-6.671 18.905 2.165 1.616 4.015 3.62 27.012 4.454 51.104 1.676 48.439 5.088 41.461 5.518-11.283.203-24.923.913-29.219 5.603-33.908 7.24-7.242 14.725-3.153 18.391 10.047 2.93 10.553 3.77 64.386 1.157 74.134-1.439 5.363-18.972 17.91-87.673 62.739-28.7 18.727-27.5 18.896-27.554-3.882" style="fill:#000;stroke-width:2.65476"/></svg>