<svg xmlns="http://www.w3.org/2000/svg" xml:space="preserve" width="872" height="889" viewBox="0 0 872 889"><path d="M95.136 520.7c-3.252-7.838-6.121-15.923-6.377-17.967s-2.711-10.408-5.456-18.586c-9.013-26.855-11.632-49.804-11.594-101.602.037-51.585 2.274-70.936 11.744-101.602 2.947-9.54 5.501-18.461 5.678-19.824.683-5.282 15.904-40.415 22.012-50.808 2.805-4.774 7.889-14.04 11.296-20.59 3.408-6.552 10.098-16.827 14.869-22.836a1595 1595 0 0 0 17.346-22.344c11.187-14.73 46.518-48.387 61.476-58.563 6.395-4.351 12.186-8.677 12.867-9.613 3.54-4.86 53.867-31.997 73.104-39.417 2.726-1.052 7.744-3.132 11.152-4.624s20.84-6.499 38.74-11.127l32.547-8.415 59.143.523c45.643.403 62.68 1.453 74.632 4.6a2689 2689 0 0 0 30.078 7.7c8.025 1.994 20.778 6.454 28.34 9.913s15.427 6.29 17.478 6.29 4.332.974 5.069 2.165c.736 1.191 7.214 4.954 14.395 8.362 41.06 19.487 99.627 69.74 128.557 110.307 8.03 11.26 14.6 21.096 14.6 21.857s3.345 6.246 7.434 12.19c4.089 5.942 7.434 12.104 7.434 13.693 0 1.588 2.364 6.207 5.253 10.265 2.89 4.057 6.671 12.035 8.404 17.729 3.083 10.126 6.859 19.985 11.654 30.428 1.315 2.863 2.78 8.439 3.255 12.39 1.302 10.821 3.641 20.721 8.137 34.443 3.251 9.922 4.06 23.005 4.06 65.67 0 48.135-.567 55.431-5.876 75.581-3.232 12.267-6.165 24.75-6.519 27.74-.795 6.735-15.626 45.784-18.544 48.83-1.233 1.286-8.73-4.517-17.75-13.737-8.588-8.78-20.81-20.147-27.157-25.26-6.348-5.112-15.627-13.149-20.62-17.858s-10.163-8.563-11.486-8.563-3.753-1.131-5.4-2.513c-4.408-3.701-21.543-14.85-31.49-20.489-39.427-22.35-71.09-34.558-132.579-51.122-19.12-5.15-51.247-7.9-92.567-7.921-45.889-.025-76.135 3.076-104.441 10.707-10.223 2.756-22.083 5.848-26.357 6.873-19.19 4.6-67.007 25.36-98.788 42.89-12.256 6.76-43.36 27.622-49.801 33.404-2.622 2.353-10.332 8.72-17.133 14.15s-19.133 16.86-27.407 25.4c-8.273 8.541-15.595 15.53-16.27 15.53-.677 0-3.89-6.413-7.142-14.25m80.582-78.67c64.24-43.07 137.929-69.97 214.643-78.353 31.666-3.46 102.537-1.506 129.856 3.582 88.291 16.444 167.027 53.019 229.714 106.708 10.516 9.007 20.23 16.376 21.588 16.376 2.452 0 3.713-3.81 11.478-34.694 6.151-24.462 7.71-101.257 2.647-130.418-7.77-44.763-29.293-98.39-55.017-137.092C680.73 113.072 592.733 55.15 504.066 39.004c-23.937-4.358-101.781-4.42-124.956-.1-68.082 12.692-132.858 47.303-183.716 98.16-40.763 40.764-67.43 83.818-85.71 138.377-19.961 59.58-21.878 144.72-4.524 200.906l5.051 16.355 19.124-16.198c10.518-8.91 31.39-24.423 46.383-34.475" style="fill:#000;stroke-width:2.4781"/><path d="M112.262 449.116c-1.075-1.076-1.956-2.944-1.956-4.152 0-3.485 48.15-36.14 50.838-34.478 5.664 3.5 1.082 9.041-19.165 23.177-23.965 16.731-26.908 18.261-29.717 15.453m632.919-13.727c-12.307-8.548-22.76-17.268-23.232-19.378-1.486-6.661 5.234-7.968 11.576-2.25 3.355 3.025 14.057 10.822 23.782 17.328 16.134 10.792 20.073 16.567 12.927 18.95-1.473.49-12.747-6.102-25.053-14.65m-590.107-1.362c-3.24-2.002-2.927-2.885 1.664-4.71 9.133-3.632 39.94-26.26 41.584-30.547 2.238-5.832 7.293-4.772 7.293 1.528 0 3.514-6.255 9.886-17.52 17.849-23.343 16.499-28.222 18.845-33.021 15.88m549.792-9.736c-24.094-16.827-28.215-20.844-26.356-25.69 1.273-3.317 3.002-2.816 8.921 2.584 10.183 9.289 34.239 25.99 40.903 28.395 4.632 1.673 4.859 2.42 1.401 4.606-5.786 3.66-5.034 3.959-24.87-9.895m-566.528-13.807c0-4.604 42.574-35.273 48.966-35.273 5.839 0 5.445 5.341-.563 7.647-8.1 3.108-39.993 26.244-39.993 29.011 0 1.423-1.892 2.587-4.205 2.587-2.312 0-4.205-1.787-4.205-3.972m595.68-2.091c-9.805-9.606-32.131-24.772-36.466-24.772-2.299 0-4.18-1.893-4.18-4.205 0-7.534 8.66-4.47 29.042 10.27 21.085 15.251 24.717 18.893 22.467 22.534-2.01 3.251-4.551 2.356-10.863-3.827m-548.025-14.88c0-4.342 40.93-34.879 46.953-35.032 8.959-.227 1.613 9.315-18.13 23.553-22.24 16.038-28.823 18.66-28.823 11.479m482.213-12.986c-15.79-11.73-22.122-18.016-20.144-19.994 3.81-3.81 6.625-2.479 30.593 14.47 18.882 13.351 25.63 22.634 16.452 22.634-2.13 0-14.235-7.7-26.901-17.11m-440.165-1.111c0-2.313 1.646-4.205 3.657-4.205 4.739 0 38.905-24.04 41.983-29.541 2.67-4.77 7.62-2.923 7.62 2.843 0 4.487-42.707 35.108-48.965 35.108-2.362 0-4.295-1.893-4.295-4.205M477.399 366.1c-10.962-22.095-18.315-34.315-28.756-47.794-7.877-10.169-8.016-10.822-3.07-14.44 2.85-2.083 11.08-4.57 18.29-5.526 7.21-.957 20.488-5.48 29.505-10.054 9.017-4.572 20.835-8.33 26.262-8.35 12.174-.044 49.553-10.138 58.11-15.692 5.963-3.871 6.307-3.704 6.307 3.068 0 19.329-17.697 37.899-36.63 38.438-5.975.17-9.602 2.104-11.474 6.121-4.827 10.359-16.39 16.684-30.882 16.892-7.433.106-13.516 1.027-13.517 2.045s3.78 9.848 8.405 19.622c4.624 9.775 8.408 19.316 8.41 21.204.003 3.402-13.895 11.986-19.403 11.986-1.576 0-6.776-7.884-11.557-17.52m150.55 3.695c-24.358-17.26-25.425-18.393-23.076-24.513 1.82-4.744 2.257-4.682 6.68.946 6.138 7.812 36.723 28.982 41.87 28.982 5.065 0 2.97 6.814-2.331 7.588-2.185.32-12.6-5.532-23.143-13.003m-413.924-11.331c0-3.679 6.811-10.35 20.323-19.904 24.154-17.08 26.77-18.294 30.78-14.284 2.225 2.226 1.21 3.784-3.693 5.663-9.4 3.601-41.804 27.824-41.804 31.25a2.814 2.814 0 0 1-2.803 2.808c-1.542 0-2.803-2.49-2.803-5.533m447.925-1c-7.876-8.013-32.605-25.554-39.537-28.043-5.11-1.836-4.116-7.472 1.318-7.472 1.602 0 12.88 7.025 25.064 15.611 14.63 10.31 22.151 17.448 22.151 21.024 0 6.966-1.197 6.817-8.996-1.12m-404.508-13.142c-2.44-3.949-2.44-3.95 24.909-23.397 20.897-14.858 27.042-16.985 26.937-9.322-.045 3.282-36.612 30.88-45.368 34.24-2.462.944-5.378.26-6.478-1.521m341.22-12.827c-21.751-14.88-28.588-23.562-18.556-23.562 5.622 0 47.39 30.285 47.39 34.361 0 6.777-6.95 4.174-28.835-10.799M299.51 330.34c-.96-1.552.543-3.66 3.339-4.683 7.456-2.728 40.123-26.242 40.123-28.882 0-1.241 1.892-2.983 4.205-3.87 2.807-1.078 4.205.117 4.205 3.591 0 3.27-8.074 11.058-21.704 20.936-21.908 15.879-26.988 18.053-30.168 12.908m264.87-6.269c-9.084-6.68-11.094-9.336-7.577-10.014 2.632-.506 8.262 1.487 12.511 4.432 4.249 2.943 10.013 6.18 12.808 7.19 5.392 1.95 3.992 7.484-1.893 7.484-1.918 0-9.05-4.091-15.85-9.092m-280.275-17.048c0-4.51 42.65-35.53 48.85-35.53 6.528 0 5.35 4.78-2.205 8.957-13.279 7.341-38.236 25.54-38.236 27.881 0 1.324-1.892 2.406-4.204 2.406-2.313 0-4.205-1.67-4.205-3.714m303.362-3.124c-3.726-3.93-5.22-7.466-3.584-8.478 3.777-2.334 16.983 6.557 16.983 11.434 0 5.933-6.286 4.547-13.4-2.956m-184.22-8.63c-4.622-2.498-10.398-6.347-12.835-8.553s-7.268-4.01-10.734-4.01c-8.81 0-22.69-14.627-22.69-23.912 0-6.174-.88-7.11-4.906-5.22-2.698 1.268-12.474 2.556-21.724 2.863s-20.14 1.416-24.197 2.464c-13.576 3.507-22.28-4.062-29.414-25.582-3.518-10.61-6.455-23.442-6.527-28.514-.157-10.968 8.408-28.692 16.107-33.333 3.02-1.82 6.326-7.76 7.346-13.2 1.978-10.544 11.758-19.543 24.795-22.815 4.064-1.02 9.308-4.783 11.653-8.361 5.005-7.64 31.98-18.526 40.429-16.317 3.238.847 11.568-1.235 18.64-4.659 9.881-4.783 16.752-6 30.238-5.356 9.598.458 22.052-.163 27.676-1.377 8.018-1.732 13.161-.832 23.827 4.17 7.482 3.507 17.572 6.063 22.423 5.678 13.785-1.094 30.451 4.57 39.227 13.334 4.409 4.403 11.8 8.9 16.426 9.994 11.195 2.647 20.126 11.382 24.172 23.642 1.821 5.517 6.298 12.38 9.949 15.253 11.74 9.234 15.385 19.642 12.066 34.453-2.45 10.935-2.186 13.89 1.622 18.098 3.934 4.347 4.042 6.067.797 12.682-2.065 4.21-6.278 8.981-9.361 10.604s-8.87 5.093-12.859 7.713c-10.748 7.061-43.465 16.485-57.232 16.485-7.95 0-17.46 2.854-28.021 8.41-10.166 5.347-20.14 8.409-27.395 8.409-6.72 0-13.533 1.922-16.578 4.678-7.383 6.681-32.327 8.006-42.92 2.28m78.355-28.253c3.78-3.78 4.356-11.088 3.704-46.954-.746-41.008-.99-42.572-7.08-45.244-5.154-2.26-6.307-5.003-6.307-14.994 0-32.854-29.559-52.665-55.227-37.015-11.892 7.251-17.656 19.14-17.656 36.416 0 12.02-.8 14.156-5.306 14.156-7.836 0-8.71 4.927-8.71 49.085 0 32.823.81 41.026 4.405 44.622 6.551 6.55 85.615 6.49 92.177-.073zm-86.23-5.728c-1.068-1.068-1.942-19.392-1.942-40.72V181.79h84.249l-.777 39.946-.778 39.945-39.405.775c-21.672.426-40.279-.101-41.347-1.168m14.176-89.516c-3.584-3.63-2.317-20.92 2.237-30.517 7.365-15.519 25.524-20.108 38.665-9.772 7.861 6.184 14.21 22.782 12.63 33.022-1.894 12.268-6.599 7.248-8.005-8.542-1.576-17.688-7.03-24.385-19.988-24.541-13.097-.157-20.34 8.578-21.978 26.507-.802 8.784-2.405 15.013-3.561 13.843m13.782-.261c-3.621-3.622-1.825-23.003 2.537-27.365 10.762-10.762 20.823-3.139 20.823 15.778v13.456h-10.745c-5.91 0-11.587-.841-12.615-1.87m-95.672 122.573c-1.878-3.038 6.546-11.543 16.945-17.109 6.057-3.241 7.51-3.23 9.555.079 1.72 2.782-.546 6.143-7.89 11.706-10.861 8.225-15.922 9.673-18.61 5.323zm254.952-137.58c-2.01-3.253 13.902-20.183 16.513-17.571 3.63 3.63 1.467 8.368-6.517 14.27-4.94 3.654-8.958 4.98-9.996 3.3M282.27 141.021c-.913-2.379-.957-5.028-.098-5.887 2.455-2.455 7.54 1.709 7.54 6.173 0 5.38-5.347 5.174-7.441-.286zm294.62-1.525c-2.295-3.712-2.016-3.974 23.287-21.84 11.183-7.896 22.22-14.357 24.528-14.357 7.582 0 4.387 7.532-6.318 14.894a8177 8177 0 0 0-22.847 15.79c-13.506 9.373-15.84 10.062-18.65 5.513M274.8 121.259c-19.226-13.866-26.883-23.567-18.6-23.567 3.376 0 43.554 26.673 45.903 30.473.86 1.392-.087 3.9-2.105 5.575-2.783 2.31-8.867-.704-25.198-12.481m290.318 6.568c2.023-6.115 15.501-12.26 19.068-8.692 2.317 2.317.762 4.325-5.938 7.668-10.896 5.435-14.688 5.73-13.13 1.024m-259.988-4.671c-4.626-2.441-8.956-4.775-9.624-5.186s.185-2.148 1.897-3.86c2.28-2.28 5.788-1.457 13.128 3.079 5.51 3.405 10.016 6.583 10.016 7.063 0 3.226-8.354 2.631-15.417-1.096m314.425 3.504c-3.251-3.252-2.027-6.541 2.435-6.541 2.367 0 7.357-2.001 11.09-4.447 10.83-7.096 14.304-1.585 3.859 6.122-9.31 6.868-14.053 8.196-17.384 4.866m-375.699-10.453c-4.407-3.627-6.825-7.328-5.374-8.225 3.616-2.235 23.201 7.251 22.165 10.735-1.546 5.2-8.729 4.126-16.79-2.51m361.47-9.694c-2.237-3.619.719-10.859 5.123-12.549 7.05-2.705 8.61 2.474 2.649 8.792-3.355 3.555-6.852 5.246-7.772 3.757m-337.364-8.74c-4.701-5.047-5.404-7.3-2.782-8.92 4.68-2.894 11.312 4.04 10.063 10.523-.9 4.677-1.567 4.53-7.28-1.603" style="fill:#000;stroke-width:2.8032"/></svg>