<?xml version="1.0" encoding="UTF-8" standalone="no"?>
<svg
   xml:space="preserve"
   width="872"
   height="1209"
   viewBox="0 0 872 1209"
   version="1.1"
   id="svg1"
   sodipodi:docname="programmed.svg"
   inkscape:version="1.4.2 (f4327f4, 2025-05-13)"
   xmlns:inkscape="http://www.inkscape.org/namespaces/inkscape"
   xmlns:sodipodi="http://sodipodi.sourceforge.net/DTD/sodipodi-0.dtd"
   xmlns="http://www.w3.org/2000/svg"
   xmlns:svg="http://www.w3.org/2000/svg"><defs
     id="defs1" /><sodipodi:namedview
     id="namedview1"
     pagecolor="#ffffff"
     bordercolor="#000000"
     borderopacity="0.25"
     inkscape:showpageshadow="2"
     inkscape:pageopacity="0.0"
     inkscape:pagecheckerboard="0"
     inkscape:deskcolor="#d1d1d1"
     inkscape:zoom="0.32817773"
     inkscape:cx="-1273.7001"
     inkscape:cy="1007.0763"
     inkscape:window-width="3440"
     inkscape:window-height="1369"
     inkscape:window-x="1737"
     inkscape:window-y="1432"
     inkscape:window-maximized="1"
     inkscape:current-layer="svg1" /><circle
     cx="438.49899"
     cy="780.88"
     r="417.83801"
     style="fill:none;stroke:#000000;stroke-width:18;stroke-dasharray:none;stroke-opacity:1"
     id="circle1" /><path
     style="fill:#000000;stroke-width:2.4781"
     d="m 95.136139,520.6992 c -3.25171,-7.83697 -6.12154,-15.92176 -6.37738,-17.96619 -0.25584,-2.04443 -2.71084,-10.408 -5.45555,-18.58572 -9.01363,-26.85562 -11.63246,-49.80405 -11.59464,-101.60193 0.0377,-51.58518 2.27457,-70.93636 11.74464,-101.60193 2.94633,-9.54066 5.50117,-18.46181 5.67744,-19.82476 0.68304,-5.28151 15.904101,-40.4142 22.012181,-50.80769 2.80563,-4.77404 7.88899,-14.03984 11.29638,-20.59067 3.40738,-6.55083 10.09824,-16.82656 14.86857,-22.83497 4.77033,-6.0084 12.57634,-16.06344 17.34667,-22.34452 11.1866,-14.72937 46.51773,-48.386637 61.47529,-58.562811 6.39569,-4.351231 12.18611,-8.677024 12.86759,-9.612872 3.53919,-4.860258 53.86691,-31.99676 73.10382,-39.417295 2.72591,-1.051503 7.74405,-3.132214 11.15143,-4.623802 3.40738,-1.491586 20.84089,-6.49868 38.74112,-11.126873 l 32.54587,-8.414897 59.14367,0.522472 c 45.64249,0.403201 62.67927,1.453296 74.63177,4.600074 8.51846,2.242684 22.05376,5.70817 30.07846,7.701079 8.02469,1.992912 20.77737,6.453484 28.3393,9.912383 7.56194,3.458901 15.42732,6.288909 17.47866,6.288909 2.05132,0 4.33203,0.974639 5.06825,2.165865 0.73622,1.191225 7.21411,4.954298 14.39531,8.362383 41.06009,19.486491 99.62745,69.739455 128.55731,110.306975 8.0297,11.25979 14.59943,21.09516 14.59943,21.85637 0,0.76122 3.34543,6.24644 7.43429,12.1894 4.08886,5.94295 7.43433,12.10501 7.43433,13.69347 0,1.58846 2.3637,6.20766 5.2527,10.26489 2.889,4.05723 6.6709,12.03537 8.4043,17.72921 3.0828,10.12638 6.8585,19.98477 11.6538,30.42782 1.315,2.86374 2.7798,8.43945 3.2552,12.39048 1.302,10.82126 3.6408,20.72121 8.1368,34.44273 3.251,9.92194 4.0598,23.00517 4.0597,65.66953 -10e-5,48.13605 -0.5673,55.43196 -5.8761,75.58193 -3.2318,12.26657 -6.165,24.7498 -6.5183,27.74049 -0.7955,6.73408 -15.626,45.78357 -18.5446,48.82883 -1.2324,1.28595 -8.73,-4.51658 -17.74961,-13.73688 -8.58871,-8.7798 -20.80946,-20.14643 -27.1572,-25.25918 -6.34774,-5.11276 -15.62707,-13.14925 -20.62073,-17.85887 -4.99366,-4.70962 -10.1622,-8.56296 -11.48563,-8.56296 -1.32343,0 -3.7531,-1.13086 -5.39928,-2.51299 -4.40811,-3.70114 -21.54359,-14.84977 -31.49112,-20.48865 -39.42675,-22.34952 -71.08869,-34.55826 -132.57812,-51.1217 -19.11997,-5.15035 -51.24668,-7.8996 -92.56734,-7.92151 -45.88843,-0.0248 -76.13461,3.07651 -104.44128,10.70718 -10.22214,2.75562 -22.08256,5.84843 -26.35646,6.87293 -19.19096,4.60026 -67.00734,25.36009 -98.7878,42.88944 -12.25651,6.7604 -43.36016,27.62304 -49.80162,33.40422 -2.62207,2.35327 -10.33155,8.72108 -17.13222,14.15067 -6.80064,5.42958 -19.1338,16.85979 -27.40699,25.40048 -8.27323,8.54068 -15.59523,15.52851 -16.27116,15.52851 -0.67592,0 -3.889441,-6.41207 -7.141151,-14.24905 z m 80.582131,-78.66987 c 64.24039,-43.06993 137.9287,-69.96896 214.64239,-78.35264 31.66588,-3.46061 102.53761,-1.50524 129.85678,3.58279 88.29082,16.44365 167.02619,53.01829 229.71369,106.70794 10.51567,9.00632 20.23022,16.37511 21.58782,16.37511 2.4524,0 3.7126,-3.80871 11.4784,-34.69334 6.1508,-24.46171 7.7094,-101.25678 2.6469,-130.41805 C 777.87305,280.46768 756.3515,226.84059 730.62661,188.13917 680.72951,113.07228 592.73317,55.148062 504.06596,39.003992 480.12894,34.645661 402.28452,34.583085 379.11038,38.903543 311.02777,51.596492 246.25231,86.206631 195.39405,137.06489 154.63054,177.82839 127.96318,220.88214 109.68427,275.441 89.722959,335.02153 87.805559,420.16087 105.15972,476.34706 l 5.05164,16.35536 19.12392,-16.19864 c 10.51817,-8.90925 31.39051,-24.42275 46.38299,-34.47445 z"
     id="path1" /><path
     style="fill:#000000;stroke-width:2.8032"
     d="m 112.26242,449.1157 c -1.07586,-1.07562 -1.95607,-2.94367 -1.95607,-4.15127 0,-3.48525 48.14944,-36.13994 50.838,-34.4782 5.66358,3.50001 1.08176,9.04117 -19.1652,23.17655 -23.96512,16.73119 -26.9082,18.26143 -29.71673,15.45292 z m 632.91829,-13.72675 c -12.30629,-8.54807 -22.76034,-17.26796 -23.23124,-19.37761 -1.48657,-6.66181 5.23329,-7.9681 11.5755,-2.25018 3.35494,3.02464 14.05665,10.82204 23.78183,17.32745 16.13414,10.79258 20.07367,16.56743 12.92755,18.94958 -1.47309,0.49119 -12.74703,-6.10109 -25.05364,-14.64924 z m -590.1067,-1.36233 c -3.23937,-2.00203 -2.92738,-2.88476 1.66371,-4.70993 9.13366,-3.63151 39.93971,-26.26035 41.58435,-30.54649 2.2378,-5.83178 7.29308,-4.77268 7.29308,1.52801 0,3.51383 -6.25505,9.88582 -17.51999,17.84833 -23.34309,16.49901 -28.22263,18.84563 -33.02115,15.88008 z m 549.79193,-9.73524 c -24.09353,-16.82755 -28.21535,-20.84486 -26.356,-25.68988 1.27299,-3.31757 3.00172,-2.81697 8.92125,2.58311 10.18258,9.289 34.23883,25.98985 40.90233,28.39587 4.632,1.67268 4.85899,2.41912 1.40154,4.60566 -5.78636,3.6593 -5.03449,3.95839 -24.86912,-9.89476 z M 138.33836,410.48423 c 0,-4.60454 42.57388,-35.27318 48.96601,-35.27318 5.83823,0 5.44465,5.34092 -0.56344,7.6465 -8.09985,3.10823 -39.99298,26.24414 -39.99298,29.01177 0,1.42262 -1.89216,2.58647 -4.2048,2.58647 -2.31264,0 -4.20479,-1.78701 -4.20479,-3.97156 z m 595.68004,-2.09145 c -9.80534,-9.60549 -32.13143,-24.77219 -36.46603,-24.77219 -2.29919,0 -4.18041,-1.89216 -4.18041,-4.20477 0,-7.53337 8.6608,-4.47057 29.04203,10.27089 21.08511,15.25053 24.71661,18.89274 22.46676,22.53295 -2.00961,3.25147 -4.55073,2.35613 -10.86235,-3.82688 z M 185.99275,393.51255 c 0,-4.34106 40.93009,-34.87852 46.95361,-35.03157 8.95846,-0.22708 1.61267,9.31471 -18.1311,23.55332 -22.23863,16.0376 -28.82251,18.65976 -28.82251,11.47825 z m 482.21324,-12.98526 c -15.78929,-11.73055 -22.12233,-18.01647 -20.14409,-19.9947 3.8098,-3.8098 6.62477,-2.47829 30.59327,14.46984 18.88204,13.35165 25.62913,22.63418 16.45166,22.63418 -2.12929,0 -14.23462,-7.69927 -26.90084,-17.10932 z m -440.16524,-1.11147 c 0,-2.31269 1.64576,-4.20477 3.65734,-4.20477 4.73881,0 38.90449,-24.04084 41.98268,-29.54128 2.66978,-4.77022 7.62079,-2.92316 7.62079,2.84299 0,4.48709 -42.70788,35.10783 -48.96603,35.10783 -2.36197,0 -4.29478,-1.89216 -4.29478,-4.20477 z m 249.35811,-13.31524 c -10.96191,-22.09455 -18.31443,-34.31478 -28.75551,-47.79338 -7.87755,-10.16917 -8.01631,-10.82236 -3.07007,-14.43933 2.84946,-2.08363 11.08022,-4.57085 18.29033,-5.52735 7.21011,-0.95642 20.48691,-5.48024 29.50396,-10.05309 9.01705,-4.57284 20.83507,-8.33026 26.26234,-8.34966 12.17404,-0.0448 49.55305,-10.13828 58.11006,-15.69285 5.96352,-3.87119 6.30716,-3.70385 6.30716,3.06838 0,19.32836 -17.69711,37.8987 -36.62969,38.43723 -5.97558,0.17094 -9.6023,2.10462 -11.47402,6.12161 -4.82738,10.35864 -16.39087,16.68352 -30.88202,16.89183 -7.4338,0.10651 -13.51676,1.02708 -13.51787,2.0449 -8e-4,1.01782 3.78123,9.84797 8.40539,19.62241 4.62416,9.77451 8.40848,19.31597 8.40961,21.20367 0.003,3.40173 -13.89408,11.98564 -19.40292,11.98564 -1.5754,0 -6.77589,-7.88395 -11.55675,-17.52001 z m 150.54976,3.69522 c -24.35757,-17.25935 -25.42417,-18.39237 -23.07563,-24.51262 1.82038,-4.7441 2.25656,-4.68247 6.67914,0.94556 6.13933,7.81249 36.72422,28.98231 41.87168,28.98231 5.06427,0 2.97003,6.81368 -2.33225,7.58821 -2.18478,0.31905 -12.59923,-5.53237 -23.14294,-13.00346 z M 214.02476,358.46469 c 0,-3.67861 6.81149,-10.3497 20.32319,-19.90385 24.15434,-17.0793 26.76972,-18.29336 30.77942,-14.28373 2.22602,2.22607 1.21014,3.78433 -3.69266,5.66277 -9.39969,3.60156 -41.80355,27.82428 -41.80355,31.24925 0,1.54508 -1.26145,2.80906 -2.8032,2.80906 -1.54177,0 -2.8032,-2.4901 -2.8032,-5.5335 z m 447.92477,-0.99961 c -7.87565,-8.01354 -32.60488,-25.55456 -39.53608,-28.04354 -5.11049,-1.83524 -4.11647,-7.47133 1.31802,-7.47133 1.60123,0 12.87988,7.02478 25.06313,15.61078 14.63048,10.31016 22.1518,17.44848 22.1518,21.02394 0,6.96593 -1.19699,6.81687 -8.99687,-1.11985 z M 257.44155,344.32253 c -2.44018,-3.94825 -2.43905,-3.94945 24.90925,-23.39604 20.89673,-14.85891 27.04218,-16.98573 26.93706,-9.32286 -0.0448,3.28221 -36.61203,30.87975 -45.36811,34.23963 -2.46205,0.94501 -5.37737,0.26068 -6.4782,-1.52073 z m 341.21953,-12.82655 c -21.75027,-14.88054 -28.58702,-23.56179 -18.55493,-23.56179 5.62156,0 47.39065,30.28493 47.39065,34.36084 0,6.77671 -6.95028,4.17395 -28.83572,-10.79905 z m -299.15106,-1.1561 c -0.95953,-1.55236 0.54298,-3.65985 3.33862,-4.6827 7.45651,-2.72811 40.12332,-26.24248 40.12332,-28.88195 0,-1.24154 1.89216,-2.9832 4.20479,-3.87064 2.80742,-1.0773 4.20481,0.11769 4.20481,3.59175 0,3.26879 -8.07406,11.05717 -21.70378,20.93596 -21.90785,15.87872 -26.98809,18.05233 -30.16776,12.90758 z m 264.86903,-6.26875 c -9.08317,-6.68003 -11.0931,-9.33635 -7.57648,-10.01365 2.63278,-0.50675 8.26272,1.48689 12.51156,4.43105 4.24877,2.94391 10.01245,6.17965 12.80834,7.19052 5.3917,1.94933 3.99152,7.48394 -1.89328,7.48394 -1.91795,0 -9.05036,-4.09124 -15.85014,-9.09186 z m -280.2743,-17.04769 c 0,-4.50976 42.64958,-35.53083 48.85026,-35.53083 6.52752,0 5.35074,4.78059 -2.20472,8.95734 -13.27932,7.34103 -38.23593,25.53914 -38.23593,27.88122 0,1.32337 -1.89217,2.40626 -4.2048,2.40626 -2.31264,0 -4.20481,-1.67133 -4.20481,-3.71399 z m 303.36175,-3.12475 c -3.72516,-3.92893 -5.22012,-7.46599 -3.58304,-8.47766 3.77618,-2.334 16.98292,6.55747 16.98292,11.43395 0,5.9335 -6.28648,4.54681 -13.39988,-2.95629 z m -184.21957,-8.62904 c -4.62164,-2.49847 -10.39763,-6.34756 -12.83501,-8.55342 -2.43739,-2.2061 -7.26786,-4.01084 -10.73402,-4.01084 -8.81018,0 -22.68994,-14.6268 -22.68994,-23.91157 0,-6.17407 -0.87993,-7.11029 -4.90559,-5.21924 -2.69809,1.26701 -12.47425,2.55509 -21.72481,2.86232 -9.25056,0.30723 -20.13875,1.41615 -24.1961,2.46399 -13.57675,3.50711 -22.27984,-4.06234 -29.41426,-25.5817 -3.51774,-10.6107 -6.45521,-23.44203 -6.52725,-28.51412 -0.15698,-10.96839 8.4082,-28.69248 16.10663,-33.33319 3.02016,-1.82063 6.32598,-7.76004 7.34634,-13.19916 1.97822,-10.54452 11.75802,-19.54384 24.79458,-22.81575 4.06465,-1.02014 9.30859,-4.78283 11.65319,-8.36108 5.00539,-7.63931 31.98059,-18.52611 40.42915,-16.31665 3.23854,0.84687 11.56768,-1.23475 18.64044,-4.65892 9.881,-4.78306 16.75164,-6.00025 30.23756,-5.35665 9.59815,0.45805 22.05249,-0.16255 27.67627,-1.37662 8.018,-1.7324 13.16102,-0.83226 23.82721,4.16949 7.48118,3.50791 17.57129,6.06332 22.4228,5.67816 13.78501,-1.09406 30.45088,4.57116 39.22661,13.33458 4.40909,4.40293 11.80113,8.9004 16.42643,9.99391 11.19459,2.64651 20.12614,11.38213 24.17202,23.64139 1.82094,5.51753 6.29766,12.38118 9.94858,15.25301 11.74061,9.23486 15.38561,19.6426 12.0666,34.45305 -2.45081,10.93556 -2.1859,13.89098 1.62199,18.09855 3.9337,4.34665 4.04157,6.067 0.79633,12.68226 -2.06486,4.20957 -6.27722,8.98089 -9.3607,10.60312 -3.08356,1.62222 -8.86991,5.09341 -12.85856,7.71357 -10.74834,7.06094 -43.46555,16.48447 -57.23211,16.48447 -7.95015,0 -17.46001,2.85394 -28.02135,8.40963 -10.1658,5.34762 -20.14071,8.40955 -27.39511,8.40955 -6.72039,0 -13.53272,1.92242 -16.57813,4.67855 -7.38223,6.6809 -32.32678,8.00563 -42.91979,2.27931 z m 78.35476,-28.25375 c 3.77985,-3.77986 4.35646,-11.08751 3.70416,-46.9536 -0.74565,-41.00804 -0.99037,-42.57245 -7.07948,-45.24395 -5.15397,-2.26102 -6.3072,-5.00311 -6.3072,-14.994 0,-32.85437 -29.55891,-52.66569 -55.22725,-37.01491 -11.89174,7.2508 -17.65596,19.14 -17.65596,36.41586 0,12.01983 -0.80059,14.15527 -5.30646,14.15527 -7.83523,0 -8.70954,4.92693 -8.70954,49.08521 0,32.82324 0.80985,41.02647 4.40495,44.6219 6.55136,6.55107 85.61533,6.48967 92.17678,-0.0726 z m -86.22979,-5.72807 c -1.0683,-1.06828 -1.94234,-19.39223 -1.94234,-40.72013 v -38.77751 h 42.12509 42.1248 l -0.77759,39.94559 -0.7779,39.94559 -39.40486,0.77454 c -21.67238,0.42579 -40.27862,-0.10092 -41.3472,-1.16808 z m 14.17606,-89.51623 c -3.58445,-3.62936 -2.31685,-20.91896 2.23751,-30.51655 7.36429,-15.51902 25.52343,-20.10847 38.66426,-9.7722 7.8613,6.18389 14.20971,22.78246 12.62982,33.02174 -1.89356,12.26844 -6.59816,7.24816 -8.00481,-8.54169 -1.5754,-17.68817 -7.02959,-24.38503 -19.98739,-24.54112 -13.0971,-0.15705 -20.3403,8.57801 -21.9782,26.50706 -0.80228,8.78409 -2.40487,15.01331 -3.56119,13.84276 z m 13.78249,-0.26076 c -3.62173,-3.62169 -1.82544,-23.00274 2.53606,-27.36456 10.76261,-10.76255 20.82386,-3.13929 20.82386,15.77812 v 13.45537 h -10.74552 c -5.91026,0 -11.58674,-0.84097 -12.6144,-1.86893 z M 327.65752,294.0844 c -1.87759,-3.03805 6.54687,-11.5438 16.94563,-17.109 6.05715,-3.24164 7.50976,-3.22958 9.55498,0.0783 1.71948,2.78216 -0.54578,6.14293 -7.89101,11.70613 -10.86044,8.22542 -15.92105,9.67327 -18.6096,5.32327 z m 254.9527,-137.58129 c -2.01017,-3.25227 13.90137,-20.18218 16.51314,-17.57048 3.6304,3.63047 1.46661,8.36811 -6.51746,14.27111 -4.94035,3.65283 -8.9579,4.97875 -9.99568,3.29937 z M 282.26894,141.02216 c -0.913,-2.37912 -0.95729,-5.02842 -0.0981,-5.88727 2.45476,-2.45481 7.54089,1.70909 7.54089,6.17342 0,5.37908 -5.34739,5.17333 -7.44222,-0.28615 z m 294.61912,-1.52497 c -2.29409,-3.71255 -2.0152,-3.97411 23.28761,-21.84025 11.18333,-7.8964 22.22094,-14.35718 24.52795,-14.35718 7.58215,0 4.38762,7.53193 -6.31721,14.89428 -5.78165,3.97659 -16.06292,11.08216 -22.84754,15.79009 -13.5055,9.37251 -15.83919,10.06211 -18.65081,5.51306 z M 274.79897,121.25955 c -19.22603,-13.86511 -26.88269,-23.56618 -18.59951,-23.56618 3.37506,0 43.5536,26.67298 45.90212,30.47272 0.86002,1.39179 -0.0869,3.90041 -2.10464,5.575 -2.78274,2.30958 -8.8668,-0.70412 -25.19797,-12.48154 z m 290.31765,6.56824 c 2.02303,-6.1149 15.50164,-12.25902 19.06848,-8.69218 2.31707,2.31708 0.7616,4.32558 -5.93805,7.6679 -10.8963,5.43568 -14.68765,5.73142 -13.13043,1.02428 z m -259.98786,-4.67096 c -4.62528,-2.44132 -8.95623,-4.775 -9.62423,-5.18627 -0.66829,-0.41095 0.18501,-2.14781 1.8972,-3.85937 2.28041,-2.28044 5.78805,-1.45768 13.12824,3.07869 5.50913,3.40476 10.0164,6.58332 10.0164,7.06349 0,3.22536 -8.35467,2.63109 -15.41761,-1.09654 z m 314.42573,3.50368 c -3.25171,-3.25146 -2.02734,-6.5407 2.43452,-6.5407 2.36675,0 7.357,-2.00091 11.08951,-4.44645 10.83043,-7.09631 14.30496,-1.5855 3.85914,6.12137 -9.31024,6.86868 -14.05299,8.19629 -17.38317,4.86578 z m -375.6992,-10.45229 c -4.40692,-3.62704 -6.82523,-7.32866 -5.37401,-8.22543 3.61528,-2.23445 23.20096,7.2516 22.16518,10.73541 -1.54597,5.19911 -8.72945,4.12549 -16.79117,-2.50998 z m 361.46928,-9.6946 c -2.23636,-3.61866 0.71929,-10.85821 5.12311,-12.54821 7.04977,-2.70511 8.61035,2.47349 2.6493,8.79135 -3.35486,3.55534 -6.85239,5.2459 -7.77241,3.75686 z M 267.96113,97.77354 c -4.70154,-5.04631 -5.40401,-7.29928 -2.78189,-8.920379 4.67965,-2.893461 11.31146,4.041649 10.0632,10.523509 -0.90066,4.67688 -1.56755,4.52997 -7.28131,-1.60313 z"
     id="path3" /></svg>
