<svg xmlns="http://www.w3.org/2000/svg" xml:space="preserve" width="872" height="889" viewBox="0 0 872 889"><circle cx="438.499" cy="448.88" r="417.838" style="fill:none;stroke:#000;stroke-width:18;stroke-dasharray:none;stroke-opacity:1"/><path d="M370.453 710.98c-30.009-30.406-54.278-55.552-53.932-55.88s11.353 1.415 24.46 3.874c13.106 2.46 31.731 5.194 41.389 6.077 9.657.883 24.05 2.26 31.983 3.059l14.423 1.453v48.669c0 26.767-.846 48.525-1.881 48.35s-26.434-25.195-56.442-55.602m75.882 7.811V669.47l16.932-1.558c31.391-2.89 59.476-6.621 76.966-10.227 9.564-1.972 17.705-3.27 18.092-2.883.386.386-24.653 26.039-55.644 57.006l-56.346 56.305zm-66.474-61.408c-110.873-13.3-206.289-62.305-271.641-139.518-19.027-22.48-42.452-57.027-44.676-65.889-4.045-16.118 47.194-82.56 92.092-119.415 67.662-55.542 151.867-87.644 246.174-93.853l26.966-1.775v30.558l-8.152 1.325c-4.484.73-19.075 2.54-32.423 4.023-78.073 8.677-153.995 39.942-213.729 88.014-23.096 18.587-42.66 40.354-61.913 68.888l-12.501 18.525 6.855 10.692c13.349 20.82 38.172 51.361 52.066 64.06 61.634 56.33 149.072 94.057 239.334 103.267 14.288 1.458 26.987 2.65 28.22 2.65s2.243 6.773 2.243 15.051v15.05l-20.695-.375c-11.382-.207-24.08-.782-28.22-1.278m66.474-13.15v-14.805l15.678-1.623c103.974-10.761 183.31-43.05 248.896-101.299 16.522-14.673 42.95-46.022 55.133-65.4 6.786-10.794 6.852-11.254 2.827-19.695-7.163-15.021-32.708-46.474-54.046-66.548-60.247-56.676-150.492-95.6-239.64-103.363-30.262-2.635-28.848-1.693-28.848-19.223V236.93l24.458 1.745c109.31 7.801 196.15 44.331 268.783 113.067 23.664 22.394 49.24 54.082 62.848 77.866l10.643 18.6-8.897 15.91c-30.216 54.031-87.62 109.331-148.38 142.94-55.47 30.685-134.235 51.948-192.523 51.972l-16.932.007zm-48.897-29.383c-34.252-8.28-72.241-32.649-93.98-60.285-12.121-15.41-25.561-41.856-31.738-62.454-5.488-18.297-6.191-61.366-1.33-81.41 6.211-25.61 24.117-58.708 42.038-77.706 24.879-26.373 61.618-47.048 91.264-51.36 6.208-.904 14.392-2.236 18.186-2.962 6.896-1.319 6.898-1.313 6.898 13.497v14.817l-16.932 3.111c-18.346 3.372-38.254 11.109-38.254 14.867 0 1.288 1.646 3.708 3.658 5.378 2.901 2.408 6.4 2.022 16.932-1.865 20.34-7.509 32.088-9.149 32.088-4.48 0 2.127-3.065 4.518-6.899 5.382-31.856 7.174-45.175 13.665-63.678 31.035-12.794 12.01-13.223 12.814-8.717 16.313 4.33 3.363 5.74 2.8 16.305-6.502 15.084-13.282 19.472-15.588 21.183-11.13.81 2.113-2.342 6.042-7.987 9.955-17.647 12.229-40.911 50.52-36.956 60.828 1.569 4.087 11.495 4.585 11.495.576 0-4.63 13.06-32.297 15.245-32.297 4.832 0 4.4 5.425-1.426 17.943-3.435 7.377-6.255 15.267-6.269 17.534-.028 4.738-5.056 7.183-14.653 7.128-15.582-.089-16.577-9.524-3.97-37.619l6.822-15.2-7.154-7.468-7.155-7.468 12.416-12.685c6.828-6.977 15.52-14.543 19.314-16.813 7.442-4.454 8.557-7.909 4.016-12.45-7.687-7.687-42.557 25.344-56.144 53.185-21.202 43.443-21.762 81.692-1.827 124.912 8.944 19.391 12.505 22.551 17.98 15.954 2.237-2.695 1.742-5.439-2.179-12.084-14.778-25.048-20.463-60.107-14.354-88.53 5.213-24.255 8.745-32.85 12.115-29.481 1.916 1.917 1.374 6.549-1.884 16.086-8.235 24.11-4.49 82.377 5.296 82.377 6.045 0 9.036-6.475 6.306-13.654-3.785-9.957-3.216-18.956 1.2-18.956 2.07 0 3.763 2.057 3.763 4.57 0 6.546 7.53 27.747 10.51 29.588 1.382.855 4.125-.057 6.094-2.026 3.1-3.1 3.068-5.028-.241-14.408-2.102-5.956-3.82-13.039-3.82-15.74 0-8.63 5.268-3.516 9.65 9.37 8.153 23.972 26.605 43.538 49.298 52.273 1.59.612 1.47 2.073-.329 3.991-4.085 4.356-21.085-4.866-35.446-19.227-9.024-9.024-12.312-10.927-15.439-8.933-2.185 1.394-3.636 4.838-3.225 7.655 1.37 9.386-4.202 8.35-10.036-1.866-6.457-11.307-6.486-11.321-12.9-6.46-4.43 3.355-4.3 3.98 2.987 14.343 8.828 12.558 16.853 21.689 24.886 28.317 5.557 4.586 5.762 4.584 9.215-.124 3.05-4.158 3.022-5.38-.203-8.956-7.072-7.84 1.45-7.771 13.734.11 6.57 4.217 19.51 9.65 28.757 12.075 10.307 2.704 16.812 5.725 16.812 7.81 0 4.793-17.516 1.712-35.062-6.167-12.88-5.783-13.94-5.898-16.912-1.832-2.607 3.565-2.462 5.12.817 8.744 2.193 2.424 3.243 5.613 2.332 7.086-1.828 2.959-18.888-7.864-34.195-21.693-9.043-8.17-17.318-9.146-17.318-2.043 0 4.192 19.548 22.071 34.504 31.558 13.252 8.405 47.026 19.916 58.438 19.916 7.367 0 7.396.059 7.396 15.051v15.05l-8.152-.208c-4.484-.115-14.918-1.845-23.186-3.843m48.897-10.71c0-15.152.087-15.34 7.07-15.34 21.11 0 60.53-18.695 80.154-38.012 10.258-10.097 12.497-13.64 10.296-16.293-4.395-5.295-6.815-4.259-21.59 9.246-7.604 6.949-16.965 14.258-20.803 16.243-6.133 3.171-7.153 3.149-8.434-.188-.816-2.127.179-4.423 2.264-5.223 4.352-1.67 4.84-6.294 1.063-10.071-1.872-1.872-6.88-.965-16.932 3.066-20.433 8.195-33.088 10.24-33.088 5.347 0-2.573 4.152-4.725 12.625-6.542 13.26-2.843 30.812-10.734 38.078-17.118 2.542-2.233 6.127-3.065 8.78-2.037 4.26 1.652 4.266 1.898.093 4.97-5.326 3.923-5.571 7.357-.808 11.31 2.883 2.393 5.655 1.108 14.217-6.591 9.808-8.82 24.845-29.274 24.845-33.797 0-1.06-2.128-3.067-4.728-4.459-3.981-2.13-5.778-.943-11.383 7.527-6.485 9.8-13.102 11.407-10.273 2.495.778-2.451-.29-5.864-2.375-7.595-3.171-2.632-6.088-1.04-17.92 9.772-15.878 14.513-27.314 21.277-32.564 19.262-5.83-2.237-4.04-5.341 4.957-8.595 18.525-6.699 35.05-26.74 46.504-56.4 1.495-3.871 3.725-6.417 4.955-5.657 2.327 1.439.304 12.76-4.391 24.567-2.36 5.937-2.023 7.228 2.532 9.666 6.43 3.44 7.935 1.515 13.893-17.773 5.063-16.39 5.207-16.63 8.171-13.63 1.41 1.43 1.29 7.11-.311 14.57-2.091 9.746-1.933 12.665.782 14.385 1.872 1.186 4.07 2.175 4.884 2.196 4.213.11 8.115-16.513 9.117-38.843.912-20.306.179-28.073-3.849-40.774-3.18-10.032-4.062-16.254-2.445-17.254 6.562-4.055 14.662 24.496 14.684 51.757.02 24.03-4.55 42.523-15.263 61.75-5.328 9.563-6.427 13.56-4.308 15.678 5.016 5.017 8.744 3.089 15.117-7.818 22.09-37.802 22.722-95.145 1.49-134.982-9.132-17.133-27.82-38.685-42.157-48.621-10.06-6.971-10.48-7.044-13.95-2.41-3.228 4.31-2.915 5.25 3.203 9.612 3.73 2.659 12.912 11.03 20.406 18.604l13.626 13.769-8.298 6.927-8.298 6.927 5.15 8.333c6.083 9.846 14.617 38.95 12.145 41.421-.947.947-6.933 1.792-13.303 1.876l-11.58.155-4.697-13.698c-2.582-7.534-5.812-14.815-7.177-16.18-3.298-3.298-3.18-11.512.166-11.512 2.299 0 11.317 17.566 15.776 30.729 1.561 4.61 5.908 5.59 10.85 2.446 2.182-1.388 1.797-5.098-1.498-14.456-6.366-18.078-15.668-31.706-30.159-44.185-6.966-5.998-12.665-11.753-12.666-12.788-.002-5.055 8.987-.714 20.153 9.731 10.375 9.705 13.036 11.097 16.198 8.473 5.81-4.822 4.734-7.361-8.132-19.187-13.677-12.57-31.482-21.999-49.542-26.234-6.898-1.618-13.953-3.316-15.678-3.775-1.724-.458-3.135-2.533-3.135-4.612 0-4.514 8.56-3.348 30.894 4.208 14.14 4.784 14.693 4.794 17.964.321 1.856-2.538 2.898-5.386 2.315-6.328-1.55-2.51-30.636-11.733-43.02-13.644l-10.662-1.644v-29.688l9.407 1.52c24.069 3.886 35.956 7.447 54.559 16.341 57.12 27.312 92.48 80.551 95.9 144.392 2.873 53.665-16.642 100.9-56.347 136.388-24.36 21.77-58.567 37.698-89.185 41.523l-14.334 1.79zm-36.165-30.06c-4.025-.872-7.846-3.168-8.49-5.103-.927-2.788.854-3.184 8.573-1.909 5.36.885 11.719 1.622 14.133 1.637 2.415.015 4.39 1.72 4.39 3.79 0 3.95-5.513 4.42-18.606 1.585m36.165-1.244c0-2.174 4.29-4.01 11.772-5.035 15.044-2.062 19.89 2.076 6.715 5.734-13.036 3.62-18.487 3.413-18.487-.699m-27.404-65.201c-11.942-3.986-13.912-10.504-2.484-8.218 9.233 1.846 13.385 4.835 11.984 8.625-.577 1.563-4.042 1.414-9.5-.407m27.404-1.362c0-3.727 12.286-8.412 17.157-6.543 5.242 2.012.795 5.837-9.083 7.812-5.347 1.07-8.074.641-8.074-1.269m-61.986-25.686c-10.38-15.684-11.234-39.908-2.069-58.64 3.713-7.588 10.585-16.721 15.271-20.296 8.306-6.335 8.426-6.682 4.758-13.775-4.356-8.424-5.501-8.701-13.321-3.224q-5.788 4.054-8.296 1.544c-3.62-3.621 11.384-14.26 27.487-19.49 7.297-2.369 13.9-3.674 14.675-2.9 2.63 2.631-1.636 6.368-9.157 8.02-8.351 1.834-8.816 3.134-4.5 12.605 2.614 5.739 4.053 6.379 11.288 5.022 12.026-2.257 10.957 4.604-1.29 8.273-11.119 3.332-25.88 17.14-31.913 29.855-6.283 13.24-4.155 37.28 4.45 50.282 6.173 9.329 6.618 13.108 1.543 13.108-1.13 0-5.147-4.673-8.926-10.384m93.53 8.18c-.839-1.357 1.219-6.512 4.572-11.454 17.826-26.267 5.27-65.905-24.792-78.268-12.986-5.341-15.823-12.307-3.949-9.7 6.417 1.41 7.885.634 11.303-5.975 3.687-7.13 3.63-7.755-.939-10.2-2.677-1.433-6.634-2.605-8.794-2.605s-3.928-1.693-3.928-3.762c0-4.914 2.216-4.757 18.092 1.283 18.01 6.85 26.802 13.751 22.73 17.837-2.434 2.442-4.046 2.208-7.723-1.119-6.436-5.824-9.226-5.283-12.761 2.475-2.806 6.159-2.333 7.371 6.056 15.52 14.229 13.82 19.812 26.6 19.92 45.595.072 12.701-1.325 19.126-6.229 28.655-6.396 12.43-10.777 16.217-13.558 11.718m-60.39-4.972c-11.246-6.946-15.67-12.95-19.163-26.011-2.806-10.49-2.607-13.127 1.791-23.738 4.79-11.556 17.55-23.346 25.267-23.346 6.198 0 3.393 6.215-4.576 10.14-7.833 3.857-18.085 18.874-15.614 22.872.716 1.159 4.152 2.107 7.634 2.107 8.466 0 6.393 6.02-2.432 7.065-3.687.436-6.7 1.565-6.695 2.508.026 4.722 11.016 18.818 17.586 22.556 4.102 2.334 7.465 5.654 7.473 7.379.023 4.268-2.42 3.936-11.272-1.532m28.846.968c0-1.948 3.234-5.452 7.186-7.787 7.058-4.17 15.39-15.475 15.39-20.883 0-1.512-2.822-2.749-6.27-2.749-3.903 0-6.272-1.421-6.272-3.763 0-2.34 2.37-3.762 6.271-3.762 4.516 0 6.271-1.351 6.271-4.825 0-5.973-11.049-19.448-17.669-21.549-5.633-1.788-6.696-8.745-1.337-8.745 5.298 0 18.606 12.017 23.247 20.992 10.484 20.275-.365 46.88-22.427 54.998-2.87 1.056-4.39.39-4.39-1.927M407.252 350.17c-2.345-3.794 1.419-6.36 12.117-8.261 7.492-1.332 9.407-.893 9.407 2.156 0 2.138-3.046 4.496-6.898 5.34-3.794.831-8.273 1.932-9.954 2.447-1.68.514-3.783-.243-4.672-1.682m55.388 1.425c-1.38-.362-5.612-1.343-9.406-2.18-10.362-2.285-9.163-9.252 1.254-7.29 4.484.846 9.512 2.245 11.174 3.11 3.445 1.792.798 7.363-3.022 6.36M371.06 186.49c31.031-31.205 56.712-56.736 57.068-56.736.357 0 .648 22.576.648 50.17v50.168h-19.818c-16.783 0-44.232 3.683-85.537 11.478-7.979 1.505-3.635-3.517 47.64-55.08m169.342 53.292c-20.208-4.728-59.374-9.69-76.491-9.69h-17.576v-101.55l56.44 56.398c31.042 31.019 56.44 56.69 56.44 57.046 0 1.187-8.66.172-18.813-2.204" style="fill:#000;stroke-width:2.50845"/></svg>