<?xml version="1.0" encoding="UTF-8" standalone="no"?>
<!-- Created with Inkscape (http://www.inkscape.org/) -->

<svg
   version="1.1"
   id="svg1"
   width="872"
   height="889"
   viewBox="0 0 872 889"
   sodipodi:docname="psychic.svg"
   inkscape:version="1.4.2 (f4327f4, 2025-05-13)"
   xml:space="preserve"
   xmlns:inkscape="http://www.inkscape.org/namespaces/inkscape"
   xmlns:sodipodi="http://sodipodi.sourceforge.net/DTD/sodipodi-0.dtd"
   xmlns="http://www.w3.org/2000/svg"
   xmlns:svg="http://www.w3.org/2000/svg"><defs
     id="defs1" /><sodipodi:namedview
     id="namedview1"
     pagecolor="#ffffff"
     bordercolor="#000000"
     borderopacity="0.25"
     inkscape:showpageshadow="2"
     inkscape:pageopacity="0.0"
     inkscape:pagecheckerboard="true"
     inkscape:deskcolor="#d1d1d1"
     inkscape:zoom="0.92822679"
     inkscape:cx="-63.562053"
     inkscape:cy="244.01364"
     inkscape:window-width="3440"
     inkscape:window-height="1369"
     inkscape:window-x="-8"
     inkscape:window-y="-8"
     inkscape:window-maximized="1"
     inkscape:current-layer="g1" /><g
     inkscape:groupmode="layer"
     inkscape:label="Image"
     id="g1"><circle
       style="fill:none;stroke:#000000;stroke-width:18;stroke-dasharray:none;stroke-opacity:1"
       id="path2"
       cx="438.49911"
       cy="448.88046"
       r="417.83762" /><path
       style="fill:#000000;stroke-width:2.50845"
       d="m 370.45273,710.98035 c -30.00841,-30.40627 -54.27765,-55.55264 -53.93167,-55.88085 0.346,-0.32818 11.35269,1.41555 24.45934,3.87495 13.10665,2.45941 31.73188,5.19387 41.38942,6.0766 9.65753,0.88272 24.04976,2.2591 31.98273,3.0586 l 14.42358,1.45364 v 48.66848 c 0,26.76764 -0.8466,48.5254 -1.88134,48.35057 -1.03473,-0.17485 -26.43366,-25.19575 -56.44206,-55.60199 z m 75.88254,7.81099 v -49.32132 l 16.93204,-1.55831 c 31.39101,-2.88904 59.47576,-6.62091 76.96531,-10.22708 9.5643,-1.97205 17.70578,-3.26942 18.09215,-2.88303 0.3864,0.38637 -24.65319,26.03943 -55.64348,57.00679 l -56.34602,56.30425 z m -66.4739,-61.40875 C 268.98753,644.08394 173.57217,595.07777 108.21963,517.86497 89.193419,495.38588 65.768163,460.83763 63.544072,451.97618 59.498696,435.85812 110.73842,369.4156 155.6358,332.56085 223.29798,277.01925 307.50297,244.91651 401.81029,238.708 l 26.96584,-1.77524 v 15.27937 15.27935 l -8.15246,1.32493 c -4.48386,0.72873 -19.07428,2.53884 -32.42316,4.02248 -78.07263,8.67728 -153.99441,39.94214 -213.72829,88.01404 -23.09584,18.5868 -42.65944,40.35404 -61.91372,68.88761 l -12.50086,18.5255 6.855,10.69148 c 13.34939,20.82048 38.17262,51.3617 52.06657,64.05998 61.6342,56.33019 149.07175,94.05757 239.33418,103.26745 14.28758,1.4578 26.98661,2.65057 28.22006,2.65057 1.23348,0 2.24268,6.77281 2.24268,15.05069 v 15.0507 l -20.6947,-0.37584 c -11.3821,-0.20669 -24.08112,-0.78204 -28.22006,-1.27848 z m 66.4739,-13.15007 V 629.4281 l 15.67782,-1.62266 c 103.97384,-10.76147 183.30941,-43.05056 248.89616,-101.29919 16.52172,-14.6732 42.94926,-46.02275 55.13243,-65.40059 6.78636,-10.79401 6.8523,-11.25333 2.82713,-19.69419 -7.16324,-15.02144 -32.70733,-46.47476 -54.04598,-66.54863 -60.24675,-56.67583 -150.49151,-95.60077 -239.64039,-103.36326 -30.26151,-2.63495 -28.84717,-1.69248 -28.84717,-19.22293 v -15.3466 l 24.45739,1.7454 c 109.31081,7.80091 196.14946,44.3305 268.78315,113.06649 23.66388,22.39402 49.24084,54.08234 62.84857,77.86558 l 10.64265,18.60095 -8.89735,15.90996 c -30.21567,54.03068 -87.6199,109.33082 -148.37889,142.94019 -55.47152,30.68459 -134.23618,51.94691 -192.52348,51.97122 l -16.93204,0.007 z m -48.89762,-29.38285 c -34.25127,-8.27956 -72.24099,-32.64862 -93.97908,-60.28426 -12.12168,-15.4103 -25.56166,-41.85676 -31.73891,-62.45424 -5.48731,-18.29687 -6.19063,-61.36605 -1.32946,-81.41074 6.21083,-25.60992 24.11651,-58.7078 42.03821,-77.70571 24.87822,-26.37224 61.61737,-47.04796 91.26323,-51.36023 6.20841,-0.9031 14.39222,-2.23563 18.18625,-2.96122 6.89566,-1.31877 6.89824,-1.31376 6.89824,13.49714 v 14.81643 l -16.93203,3.11158 c -18.34612,3.37148 -38.25386,11.10818 -38.25386,14.86652 0,1.28832 1.64578,3.70824 3.65727,5.37765 2.9015,2.40803 6.40044,2.02266 16.93204,-1.86494 20.34026,-7.5083 32.08813,-9.14854 32.08813,-4.4802 0,2.1277 -3.06463,4.51875 -6.89823,5.38214 -31.85618,7.17439 -45.17514,13.66578 -63.67807,31.03533 -12.7939,12.01023 -13.22329,12.81382 -8.71712,16.31353 4.32947,3.3625 5.74049,2.79975 16.30493,-6.50272 15.08383,-13.28205 19.47186,-15.58741 21.18272,-11.12897 0.81071,2.11269 -2.34199,6.04152 -7.9874,9.9538 -17.64639,12.22897 -40.9105,50.5213 -36.95545,60.82804 1.56858,4.08762 11.49514,4.58499 11.49514,0.57599 0,-4.62884 13.06021,-32.29641 15.24523,-32.29641 4.83187,0 4.40049,5.42505 -1.42678,17.94264 -3.43424,7.37715 -6.25512,15.26762 -6.26859,17.53438 -0.0281,4.73739 -5.05616,7.18328 -14.65326,7.12821 -15.58171,-0.0893 -16.57714,-9.52425 -3.969,-37.61893 l 6.82148,-15.20028 -7.15472,-7.46795 -7.15475,-7.46793 12.41577,-12.68515 c 6.82865,-6.97683 15.51995,-14.54272 19.31398,-16.81309 7.44264,-4.45368 8.55742,-7.90902 4.01663,-12.44981 -7.68747,-7.68746 -42.55674,25.34367 -56.14459,53.18497 -21.20199,43.44261 -21.76138,81.69197 -1.82678,124.91183 8.94402,19.39136 12.50508,22.55103 17.98036,15.95368 2.23684,-2.69521 1.7422,-5.43857 -2.17881,-12.08417 -14.77846,-25.0476 -20.46308,-60.10705 -14.35447,-88.52968 5.21278,-24.25445 8.74533,-32.85058 12.115,-29.4809 1.91656,1.91655 1.3742,6.54873 -1.88344,16.08629 -8.23504,24.11001 -4.48955,82.37696 5.29534,82.37696 6.04566,0 9.03595,-6.4748 6.30619,-13.65464 -3.78543,-9.95636 -3.21559,-18.95519 1.20029,-18.95519 2.06947,0 3.76267,2.05652 3.76267,4.57004 0,6.54587 7.53037,27.74681 10.50933,29.58791 1.38288,0.85468 4.12529,-0.057 6.09425,-2.02595 3.1009,-3.10089 3.06869,-5.02882 -0.24081,-14.40866 -2.10136,-5.95581 -3.82062,-13.03851 -3.82062,-15.73931 0,-8.6309 5.26844,-3.51632 9.65096,9.36906 8.15342,23.9726 26.60519,43.53837 49.2976,52.27384 1.59021,0.61215 1.46988,2.07306 -0.32866,3.99088 -4.08458,4.35544 -21.08459,-4.866 -35.44565,-19.22702 -9.02414,-9.02417 -12.31243,-10.92673 -15.43895,-8.93276 -2.18495,1.39346 -3.63642,4.83789 -3.22548,7.65425 1.36943,9.38582 -4.20146,8.35008 -10.03573,-1.86584 -6.45713,-11.3065 -6.48577,-11.32085 -12.90098,-6.46033 -4.42872,3.35545 -4.29855,3.98036 2.98751,14.34382 8.82846,12.5573 16.85304,21.68818 24.88595,28.31683 5.55767,4.5861 5.76234,4.58334 9.21521,-0.12442 3.04951,-4.15775 3.02175,-5.37964 -0.20318,-8.95542 -7.07132,-7.84032 1.45083,-7.77182 13.73421,0.11038 6.56975,4.2158 19.51047,9.64935 28.75712,12.07457 10.30694,2.70331 16.8121,5.72518 16.8121,7.80981 0,4.79284 -17.516,1.71214 -35.06225,-6.16675 -12.87969,-5.78344 -13.9391,-5.89825 -16.91187,-1.83272 -2.6072,3.56556 -2.46189,5.12124 0.81681,8.74417 2.19353,2.42381 3.243,5.61278 2.33215,7.08655 -1.82831,2.95827 -18.88817,-7.86449 -34.19483,-21.69312 -9.04296,-8.16977 -17.31799,-9.14608 -17.31799,-2.04326 0,4.19212 19.54825,22.07129 34.50365,31.55765 13.25194,8.40582 47.02645,19.91666 58.43847,19.91666 7.36709,0 7.39586,0.0584 7.39586,15.05069 v 15.0507 l -8.15246,-0.20896 c -4.48386,-0.11488 -14.91758,-1.84433 -23.18602,-3.84306 z m 48.89762,-10.70962 c 0,-15.15232 0.0863,-15.33972 7.07007,-15.33972 21.1095,0 60.53061,-18.69495 80.15368,-38.01184 10.25761,-10.09756 12.49687,-13.64119 10.29584,-16.29328 -4.39459,-5.29513 -6.81479,-4.25877 -21.59053,9.24542 -7.60339,6.94905 -16.96421,14.25835 -20.80184,16.24288 -6.13384,3.17192 -7.15367,3.14926 -8.43403,-0.18738 -0.81633,-2.12731 0.17859,-4.42307 2.26387,-5.22322 4.35163,-1.66987 4.83935,-6.2939 1.06228,-10.07097 -1.87183,-1.87183 -6.88033,-0.96484 -16.93203,3.06628 -20.43291,8.19433 -33.08731,10.23916 -33.08731,5.34658 0,-2.57317 4.15173,-4.72435 12.6251,-6.54155 13.25925,-2.84361 30.81164,-10.73439 38.07756,-17.11799 2.54187,-2.23319 6.12719,-3.06505 8.77957,-2.03703 4.2614,1.65163 4.26603,1.89756 0.0933,4.97054 -5.32549,3.92208 -5.57089,7.35647 -0.80807,11.30926 2.88343,2.39304 5.65527,1.10807 14.21776,-6.5911 9.80796,-8.81905 24.84416,-29.27352 24.84416,-33.79676 0,-1.061 -2.12741,-3.06763 -4.7276,-4.45922 -3.98149,-2.13083 -5.77799,-0.94295 -11.38281,7.52655 -6.48558,9.80033 -13.10228,11.40753 -10.2737,2.49548 0.77803,-2.4514 -0.28896,-5.86405 -2.37463,-7.59501 -3.17091,-2.63163 -6.08808,-1.04075 -17.91903,9.77205 -15.87929,14.51278 -27.31451,21.27666 -32.56479,19.26195 -5.83046,-2.23736 -4.04029,-5.34124 4.95697,-8.5947 18.52537,-6.69887 35.04986,-26.73961 46.50386,-56.39955 1.49522,-3.87182 3.72505,-6.41764 4.95519,-5.65736 2.32734,1.43835 0.30368,12.75997 -4.39106,24.56646 -2.36086,5.93712 -2.02267,7.22832 2.5316,9.66568 6.42979,3.44111 7.93541,1.51516 13.89347,-17.77241 5.06321,-16.39076 5.20717,-16.63087 8.17098,-13.62924 1.41042,1.42844 1.28896,7.1084 -0.31158,14.5687 -2.09096,9.74628 -1.93228,12.66532 0.78203,14.38518 1.87294,1.18673 4.07074,2.17497 4.88401,2.19609 4.21359,0.10938 8.11533,-16.51238 9.11774,-38.84255 0.91156,-20.30625 0.17835,-28.07322 -3.84882,-40.7745 -3.18069,-10.03139 -4.06256,-16.25382 -2.44523,-17.25339 6.56134,-4.05513 14.66168,24.49566 14.68425,51.75677 0.0201,24.02966 -4.55132,42.52278 -15.26368,61.74971 -5.32815,9.56317 -6.42637,13.55962 -4.30819,15.67781 5.01683,5.01683 8.7441,3.08928 15.11779,-7.81806 22.08931,-37.80161 22.72172,-95.14442 1.48865,-134.98176 -9.13154,-17.13251 -27.81816,-38.68471 -42.15652,-48.6212 -10.05873,-6.97071 -10.47928,-7.04338 -13.94967,-2.40995 -3.22797,4.30975 -2.91444,5.25076 3.20267,9.61221 3.72951,2.65911 12.91241,11.03088 20.40645,18.60391 l 13.62551,13.76918 -8.29766,6.92719 -8.29762,6.92715 5.14896,8.33297 c 6.08398,9.84609 14.61804,38.94917 12.14614,41.42105 -0.94698,0.94702 -6.93332,1.79121 -13.30295,1.87601 l -11.58117,0.15428 -4.69584,-13.69797 c -2.58272,-7.5339 -5.81255,-14.81467 -7.17737,-16.17949 -3.29829,-3.2983 -3.18006,-11.51196 0.16581,-11.51196 2.29903,0 11.31719,17.56564 15.77594,30.72851 1.56151,4.60979 5.90844,5.58972 10.85044,2.44601 2.18173,-1.38782 1.79723,-5.09744 -1.49824,-14.45526 -6.3664,-18.07803 -15.66843,-31.70623 -30.15899,-44.18523 -6.96554,-5.99861 -12.66516,-11.75315 -12.66584,-12.78788 -0.002,-5.05513 8.98647,-0.71453 20.15338,9.7308 10.37497,9.70459 13.03579,11.09638 16.19744,8.47244 5.81007,-4.82191 4.73387,-7.36104 -8.13199,-19.18623 -13.67725,-12.57091 -31.48189,-21.99927 -49.54187,-26.23461 -6.89824,-1.61776 -13.95326,-3.31628 -15.67782,-3.77451 -1.72455,-0.45825 -3.13556,-2.53356 -3.13556,-4.61187 0,-4.51413 8.55974,-3.34835 30.89439,4.2076 14.14056,4.78381 14.69331,4.7937 17.96384,0.32101 1.85587,-2.5381 2.89776,-5.38579 2.3153,-6.32827 -1.5508,-2.50923 -30.636,-11.7332 -43.02106,-13.6435 l -10.66092,-1.64439 V 292.3691 277.52532 l 9.40668,1.51909 c 24.06871,3.88682 35.9563,7.44747 54.55878,16.34185 57.12123,27.31124 92.48106,80.55102 95.8997,144.39201 2.87373,53.66478 -16.64106,100.90055 -56.34647,136.3873 -24.35942,21.77126 -58.56732,37.69796 -89.18538,41.52344 l -14.33331,1.79079 z M 410.1697,574.07997 c -4.02513,-0.87151 -7.84522,-3.16784 -8.48911,-5.10296 -0.92753,-2.78756 0.85317,-3.1841 8.57262,-1.90895 5.35886,0.8852 11.71875,1.62189 14.13313,1.63706 2.41439,0.0151 4.38979,1.72082 4.38979,3.79029 0,3.95003 -5.5129,4.41951 -18.60643,1.58456 z m 36.16557,-1.24361 c 0,-2.17465 4.29011,-4.00974 11.77145,-5.03517 15.04392,-2.06199 19.89002,2.07542 6.71555,5.73352 -13.03594,3.61959 -18.487,3.41369 -18.487,-0.69835 z m -27.40453,-65.20182 c -11.942,-3.98558 -13.91223,-10.50351 -2.48409,-8.21789 9.23337,1.8467 13.38579,4.83526 11.98457,8.62551 -0.57772,1.56272 -4.0422,1.41406 -9.50048,-0.40762 z m 27.40453,-1.36157 c 0,-3.72705 12.28551,-8.41208 17.15697,-6.54273 5.24208,2.01157 0.79501,5.83643 -9.0829,7.812 -5.34781,1.06956 -8.07407,0.641 -8.07407,-1.26927 z m -61.98628,-25.68584 c -10.37906,-15.68383 -11.23365,-39.90779 -2.06872,-58.64022 3.71252,-7.58813 10.58435,-16.72118 15.27071,-20.29563 8.30636,-6.33557 8.42603,-6.68206 4.75779,-13.77563 -4.35606,-8.42372 -5.50124,-8.70086 -13.32106,-3.22364 -3.85888,2.70286 -6.62233,3.21708 -8.29569,1.54372 -3.62077,-3.62077 11.38415,-14.25955 27.48685,-19.48879 7.29676,-2.36955 13.90041,-3.6747 14.67479,-2.90031 2.63085,2.63085 -1.63562,6.36719 -9.157,8.01915 -8.35113,1.83421 -8.81529,3.13447 -4.50001,12.60549 2.61468,5.73863 4.05324,6.37854 11.28802,5.02126 12.02606,-2.2561 10.95704,4.60446 -1.28918,8.27352 -11.11949,3.33147 -25.88018,17.13998 -31.91398,29.85529 -6.28246,13.2393 -4.15484,37.27872 4.45019,50.28182 6.17332,9.32852 6.61839,13.10764 1.54366,13.10764 -1.13014,0 -5.147,-4.67266 -8.92637,-10.38367 z m 93.53033,8.1801 c -0.83905,-1.35759 1.21843,-6.51186 4.57218,-11.45391 17.82556,-26.2674 5.26987,-65.90554 -24.79215,-78.26853 -12.98667,-5.34077 -15.82313,-12.30717 -3.94914,-9.69921 6.41709,1.40942 7.88509,0.6333 11.30275,-5.97568 3.68674,-7.12942 3.62915,-7.75533 -0.93894,-10.20009 -2.67666,-1.43252 -6.63409,-2.60457 -8.79427,-2.60457 -2.16017,0 -3.92758,-1.6932 -3.92758,-3.76268 0,-4.91387 2.2156,-4.75674 18.09217,1.28303 18.00941,6.85115 26.8021,13.75137 22.72941,17.83733 -2.43417,2.44207 -4.0462,2.20856 -7.72287,-1.1188 -6.43573,-5.82424 -9.22625,-5.28299 -12.76113,2.47524 -2.80605,6.15862 -2.33304,7.37068 6.05671,15.51963 14.2282,13.81979 19.8116,26.60022 19.91923,45.59513 0.072,12.70095 -1.3245,19.12597 -6.2282,28.65477 -6.39682,12.43024 -10.77795,16.21684 -13.55817,11.71834 z m -60.39121,-4.97199 c -11.24556,-6.94632 -15.66903,-12.95093 -19.16222,-26.01162 -2.80547,-10.48938 -2.60648,-13.12694 1.79111,-23.73786 4.78922,-11.55587 17.54933,-23.34533 25.2674,-23.34533 6.19758,0 3.39253,6.21464 -4.57648,10.13925 -7.83324,3.85775 -18.08462,18.87443 -15.61398,22.87202 0.71621,1.15885 4.15169,2.10702 7.63435,2.10702 8.46533,0 6.39308,6.02012 -2.43187,7.06485 -3.68762,0.43654 -6.70057,1.56534 -6.6954,2.50845 0.0258,4.72167 11.01603,18.8177 17.58626,22.55615 4.10141,2.33368 7.46427,5.65406 7.473,7.37862 0.0225,4.26783 -2.42058,3.93601 -11.27217,-1.53155 z m 28.84716,0.96753 c 0,-1.94816 3.23342,-5.45213 7.18535,-7.78662 7.05859,-4.1696 15.3907,-15.47541 15.3907,-20.88355 0,-1.51169 -2.82201,-2.74853 -6.27112,-2.74853 -3.90205,0 -6.27112,-1.42146 -6.27112,-3.76267 0,-2.34122 2.36907,-3.76268 6.27112,-3.76268 4.51543,0 6.27112,-1.35068 6.27112,-4.82443 0,-5.97294 -11.04889,-19.448 -17.66931,-21.54926 -5.63258,-1.78769 -6.69586,-8.7446 -1.33653,-8.7446 5.29772,0 18.60539,12.017 23.24645,20.99183 10.48449,20.27474 -0.36484,46.88054 -22.42687,54.99755 -2.87077,1.0562 -4.38979,0.38939 -4.38979,-1.92704 z M 407.25153,350.16952 c -2.34445,-3.79335 1.41915,-6.35905 12.11792,-8.26085 7.4915,-1.33172 9.40668,-0.89269 9.40668,2.15638 0,2.13788 -3.04626,4.49605 -6.89824,5.34009 -3.79403,0.83135 -8.27309,1.93236 -9.95345,2.44669 -1.68038,0.51433 -3.78319,-0.24257 -4.67291,-1.68231 z m 55.38867,1.42565 c -1.37965,-0.36228 -5.61266,-1.34333 -9.40669,-2.18012 -10.3614,-2.28525 -9.16256,-9.25254 1.25422,-7.28928 4.48386,0.84507 9.51227,2.24408 11.17425,3.10889 3.44499,1.79262 0.79829,7.36359 -3.02178,6.36051 z M 371.0609,186.49023 c 31.03054,-31.20486 56.71079,-56.73613 57.06722,-56.73613 0.3564,0 0.64801,22.57604 0.64801,50.16899 v 50.16899 H 408.9578 c -16.78314,0 -44.23179,3.68315 -85.53654,11.47756 -7.97908,1.50568 -3.6354,-3.51632 47.63964,-55.07941 z m 169.34122,53.29226 c -20.20797,-4.72861 -59.37397,-9.69041 -76.49119,-9.69041 h -17.57566 v -50.77521 -50.77518 l 56.44011,56.3983 c 31.04206,31.01906 56.44011,56.68989 56.44011,57.04632 0,1.1865 -8.65987,0.17208 -18.81337,-2.20382 z"
       id="path1" /></g></svg>
