<?xml version="1.0" encoding="UTF-8" standalone="no"?>
<svg
   xml:space="preserve"
   width="872"
   height="1209"
   viewBox="0 0 872 1209"
   version="1.1"
   id="svg1"
   sodipodi:docname="regimented.svg"
   inkscape:version="1.4.2 (f4327f4, 2025-05-13)"
   xmlns:inkscape="http://www.inkscape.org/namespaces/inkscape"
   xmlns:sodipodi="http://sodipodi.sourceforge.net/DTD/sodipodi-0.dtd"
   xmlns="http://www.w3.org/2000/svg"
   xmlns:svg="http://www.w3.org/2000/svg"><defs
     id="defs1" /><sodipodi:namedview
     id="namedview1"
     pagecolor="#ffffff"
     bordercolor="#000000"
     borderopacity="0.25"
     inkscape:showpageshadow="2"
     inkscape:pageopacity="0.0"
     inkscape:pagecheckerboard="0"
     inkscape:deskcolor="#d1d1d1"
     inkscape:zoom="0.32817773"
     inkscape:cx="-1273.7001"
     inkscape:cy="763.30591"
     inkscape:window-width="3440"
     inkscape:window-height="1369"
     inkscape:window-x="1737"
     inkscape:window-y="1432"
     inkscape:window-maximized="1"
     inkscape:current-layer="svg1" /><circle
     cx="438.49899"
     cy="780.88"
     r="417.83801"
     style="fill:none;stroke:#000000;stroke-width:18;stroke-dasharray:none;stroke-opacity:1"
     id="circle1" /><path
     style="fill:#000000;stroke-width:2.4781"
     d="m 95.136139,520.6992 c -3.25171,-7.83697 -6.12154,-15.92176 -6.37738,-17.96619 -0.25584,-2.04443 -2.71084,-10.408 -5.45555,-18.58572 -9.01363,-26.85562 -11.63246,-49.80405 -11.59464,-101.60193 0.0377,-51.58518 2.27457,-70.93636 11.74464,-101.60193 2.94633,-9.54066 5.50117,-18.46181 5.67744,-19.82476 0.68304,-5.28151 15.904101,-40.4142 22.012181,-50.80769 2.80563,-4.77404 7.88899,-14.03984 11.29638,-20.59067 3.40738,-6.55083 10.09824,-16.82656 14.86857,-22.83497 4.77033,-6.0084 12.57634,-16.06344 17.34667,-22.34452 11.1866,-14.72937 46.51773,-48.386637 61.47529,-58.562811 6.39569,-4.351231 12.18611,-8.677024 12.86759,-9.612872 3.53919,-4.860258 53.86691,-31.99676 73.10382,-39.417295 2.72591,-1.051503 7.74405,-3.132214 11.15143,-4.623802 3.40738,-1.491586 20.84089,-6.49868 38.74112,-11.126873 l 32.54587,-8.414897 59.14367,0.522472 c 45.64249,0.403201 62.67927,1.453296 74.63177,4.600074 8.51846,2.242684 22.05376,5.70817 30.07846,7.701079 8.02469,1.992912 20.77737,6.453484 28.3393,9.912383 7.56194,3.458901 15.42732,6.288909 17.47866,6.288909 2.05132,0 4.33203,0.974639 5.06825,2.165865 0.73622,1.191225 7.21411,4.954298 14.39531,8.362383 41.06009,19.486491 99.62745,69.739455 128.55731,110.306975 8.0297,11.25979 14.59943,21.09516 14.59943,21.85637 0,0.76122 3.34543,6.24644 7.43429,12.1894 4.08886,5.94295 7.43433,12.10501 7.43433,13.69347 0,1.58846 2.3637,6.20766 5.2527,10.26489 2.889,4.05723 6.6709,12.03537 8.4043,17.72921 3.0828,10.12638 6.8585,19.98477 11.6538,30.42782 1.315,2.86374 2.7798,8.43945 3.2552,12.39048 1.302,10.82126 3.6408,20.72121 8.1368,34.44273 3.251,9.92194 4.0598,23.00517 4.0597,65.66953 -10e-5,48.13605 -0.5673,55.43196 -5.8761,75.58193 -3.2318,12.26657 -6.165,24.7498 -6.5183,27.74049 -0.7955,6.73408 -15.626,45.78357 -18.5446,48.82883 -1.2324,1.28595 -8.73,-4.51658 -17.74961,-13.73688 -8.58871,-8.7798 -20.80946,-20.14643 -27.1572,-25.25918 -6.34774,-5.11276 -15.62707,-13.14925 -20.62073,-17.85887 -4.99366,-4.70962 -10.1622,-8.56296 -11.48563,-8.56296 -1.32343,0 -3.7531,-1.13086 -5.39928,-2.51299 -4.40811,-3.70114 -21.54359,-14.84977 -31.49112,-20.48865 -39.42675,-22.34952 -71.08869,-34.55826 -132.57812,-51.1217 -19.11997,-5.15035 -51.24668,-7.8996 -92.56734,-7.92151 -45.88843,-0.0248 -76.13461,3.07651 -104.44128,10.70718 -10.22214,2.75562 -22.08256,5.84843 -26.35646,6.87293 -19.19096,4.60026 -67.00734,25.36009 -98.7878,42.88944 -12.25651,6.7604 -43.36016,27.62304 -49.80162,33.40422 -2.62207,2.35327 -10.33155,8.72108 -17.13222,14.15067 -6.80064,5.42958 -19.1338,16.85979 -27.40699,25.40048 -8.27323,8.54068 -15.59523,15.52851 -16.27116,15.52851 -0.67592,0 -3.889441,-6.41207 -7.141151,-14.24905 z m 80.582131,-78.66987 c 64.24039,-43.06993 137.9287,-69.96896 214.64239,-78.35264 31.66588,-3.46061 102.53761,-1.50524 129.85678,3.58279 88.29082,16.44365 167.02619,53.01829 229.71369,106.70794 10.51567,9.00632 20.23022,16.37511 21.58782,16.37511 2.4524,0 3.7126,-3.80871 11.4784,-34.69334 6.1508,-24.46171 7.7094,-101.25678 2.6469,-130.41805 C 777.87305,280.46768 756.3515,226.84059 730.62661,188.13917 680.72951,113.07228 592.73317,55.148062 504.06596,39.003992 480.12894,34.645661 402.28452,34.583085 379.11038,38.903543 311.02777,51.596492 246.25231,86.206631 195.39405,137.06489 154.63054,177.82839 127.96318,220.88214 109.68427,275.441 89.722959,335.02153 87.805559,420.16087 105.15972,476.34706 l 5.05164,16.35536 19.12392,-16.19864 c 10.51817,-8.90925 31.39051,-24.42275 46.38299,-34.47445 z"
     id="path1" /><path
     style="fill:#000000;stroke-width:1.48261"
     d="m 732.58515,431.37318 c -3.77058,-5.29526 -3.88948,-7.55483 -0.39749,-7.55483 3.85108,0 6.22695,2.94162 6.22695,7.70957 0,5.32267 -1.96639,5.27047 -5.82946,-0.15474 z m -576.50571,-0.96715 c -1.89789,-1.32938 -3.2951,-3.86608 -3.2951,-5.98261 0,-3.13317 -0.4095,-3.45545 -2.77915,-2.18727 -2.73708,1.46486 -13.10076,0.32974 -23.16649,-2.53739 -3.94744,-1.12438 -4.50024,-1.98769 -4.9137,-7.67365 -0.632,-8.69092 2.07035,-14.8937 6.48868,-14.8937 4.87462,0 5.93925,-2.69729 1.50399,-3.81046 -3.83127,-0.96159 -5.89835,-4.5978 -4.6684,-8.2122 0.38595,-1.13417 1.41401,-4.84728 2.28455,-8.25135 1.30718,-5.11133 2.34339,-6.35627 5.94999,-7.1484 3.82386,-0.83986 4.15211,-1.30352 2.63862,-3.727 -1.35799,-2.1745 -1.17135,-4.53536 0.87072,-11.01355 2.76375,-8.76763 2.8357,-8.81635 12.29375,-8.32497 7.40456,0.38469 10.15909,-2.51735 3.62895,-3.82337 -7.33045,-1.46609 -8.05696,-3.70277 -3.72196,-11.45892 4.12878,-7.38721 6.28998,-8.15778 13.02621,-4.64454 5.39996,2.8163 7.9874,2.79472 10.87286,-0.0908 1.26793,-1.268 3.72224,-2.1594 5.45377,-1.9809 1.73169,0.17852 7.03824,-0.84846 11.79253,-2.28218 8.90232,-2.68461 14.72214,-2.55868 28.42115,0.61499 7.16574,1.66009 8.00653,1.48577 25.20434,-5.22536 31.70068,-12.37064 31.24166,-12.5124 24.57527,7.59184 -2.64112,7.96516 -6.02873,20.09465 -7.52765,26.95436 -1.49906,6.85974 -2.94579,12.66317 -3.21489,12.89653 -0.26909,0.23335 -2.67432,1.53567 -5.34495,2.89404 -2.67062,1.35838 -10.46795,6.09029 -17.32724,10.51537 -6.85943,4.42506 -15.4086,9.42608 -18.99814,11.11336 -3.58954,1.6873 -10.24349,6.38066 -14.78635,10.42973 -4.54301,4.04905 -8.95081,7.36191 -9.79515,7.36191 -0.91936,0 -1.35851,-3.12187 -1.09475,-7.78369 0.34395,-6.08142 1.6233,-9.51855 5.84992,-15.71637 2.9753,-4.36298 5.40959,-8.56485 5.40959,-9.33753 0,-1.82133 9.66543,-16.9299 13.3841,-20.92143 3.07819,-3.30415 5.21582,-2.83713 13.06282,2.85402 3.45611,2.50649 3.46515,2.49926 2.96522,-2.38197 -0.37792,-3.69153 0.22832,-5.29674 2.46394,-6.52449 1.63087,-0.89559 5.45289,-3.14939 8.49327,-5.00843 3.04039,-1.85905 6.54305,-3.38008 7.78369,-3.38008 1.24065,0 2.25564,-0.66718 2.25564,-1.48261 0,-2.54941 -5.04575,-1.63334 -13.0938,2.37719 -6.97419,3.47536 -8.06613,3.64704 -10.96285,1.7237 -2.95543,-1.96232 -3.62513,-1.76368 -8.23129,2.44126 -13.35771,12.19449 -17.03635,16.75327 -21.74838,26.9517 -6.91519,14.96703 -9.02257,14.49619 -10.21354,-2.28196 -0.95391,-13.44035 -0.17777,-21.72379 2.17187,-23.17591 0.71002,-0.43886 1.29106,-2.37764 1.29106,-4.30838 0,-2.45699 -1.40315,-4.21039 -4.67556,-5.84293 -6.64995,-3.3174 -8.84583,-2.88187 -3.10814,0.61647 5.47542,3.33846 6.2188,7.53279 2.11554,11.9371 -2.57707,2.76628 -3.06471,2.79377 -10.48249,0.59089 -4.27881,-1.27067 -9.56742,-2.09648 -11.75264,-1.83514 -3.20496,0.38336 -2.25371,1.01966 4.92285,3.29262 12.16021,3.85139 14.08968,5.78048 14.0621,14.05947 -0.0371,11.02799 -0.80091,11.48431 -14.35447,8.5718 -10.66617,-2.29204 -24.94365,-3.35041 -19.72284,-1.46199 9.87684,3.5725 15.18977,7.85714 9.74281,7.85714 -2.936,0 -7.01199,4.35181 -5.84473,6.24035 0.59868,0.96858 1.46882,0.64448 2.31124,-0.86082 0.82033,-1.46598 3.26277,-2.41432 6.21806,-2.41432 3.86931,0 5.98172,1.27964 10.30456,6.2423 6.19331,7.10986 6.32274,7.79443 3.02808,16.02833 -2.81814,7.04316 -2.35319,7.99156 2.93231,5.982 3.95278,-1.5028 8.37288,-0.75058 8.37288,1.42488 0,1.96342 -21.66372,20.73118 -23.93003,20.73118 -1.15347,0 -3.57991,-1.03861 -5.39225,-2.30798 z m -3.2951,-31.80954 c 0,-2.67209 -0.65621,-2.88223 -6.30108,-2.01759 -7.33333,1.12325 -9.06664,2.02542 -3.95363,2.05781 1.97064,0.0118 4.58374,0.66944 5.80688,1.45991 3.34758,2.16341 4.44783,1.79236 4.44783,-1.50013 z m 108.2304,-65.95854 c 1.50115,-1.80871 1.43042,-2.22392 -0.37821,-2.22392 -1.22316,0 -3.05447,1.00076 -4.06962,2.22392 -1.50113,1.8087 -1.43041,2.22391 0.37822,2.22391 1.22315,0 3.05447,-1.00077 4.06961,-2.22391 z m 460.59703,90.19199 c -1.22375,-1.22364 -1.25474,-8.98626 -0.0534,-13.46702 0.51195,-1.91044 2.04734,-3.33586 3.5931,-3.33586 2.26277,0 2.57871,0.89863 1.95497,5.55977 -1.60789,12.01325 -2.63088,14.10644 -5.4941,11.24311 z m -26.1928,-21.37033 c -5.30032,-4.15414 -9.8383,-8.42102 -10.08455,-9.48197 -0.24611,-1.06097 2.56105,-6.5798 6.23822,-12.2641 3.92061,-6.06068 7.89667,-14.70504 9.61367,-20.90123 1.61042,-5.81139 3.36613,-11.27493 3.90149,-12.14119 1.76876,-2.86188 4.64545,1.2038 8.1109,11.46319 2.53053,7.49149 3.16982,12.06482 2.63935,18.88175 -0.75139,9.65821 -0.18696,13.20137 1.89818,11.91276 0.71906,-0.44444 0.92856,-2.70217 0.46553,-5.01725 -0.46301,-2.31507 -0.0845,-5.62506 0.84198,-7.35555 1.40418,-2.62372 3.04409,-3.14635 9.87269,-3.14635 7.45678,0 27.01505,2.31516 31.25353,3.69955 1.2614,0.41202 1.02967,2.53034 -0.84242,7.70072 l -2.58256,7.13234 -9.90649,-0.46278 c -7.88896,-0.36854 -9.90648,-0.0238 -9.90648,1.69228 0,1.18528 -2.50191,3.27117 -5.55979,4.63531 -3.05788,1.36414 -8.56206,4.06153 -12.23152,5.9942 -11.72372,6.1748 -13.01848,6.04699 -23.72173,-2.34168 z M 175.84023,387.72516 c -2.08009,-2.72714 -3.78198,-5.72942 -3.78198,-6.67174 0,-2.10369 2.4546,-2.25645 3.70652,-0.23071 0.50393,0.81544 2.12961,1.48261 3.61252,1.48261 3.75589,0 6.06016,3.24977 5.04813,7.11954 -1.21128,4.63208 -4.20823,4.03872 -8.58519,-1.6997 z m 493.14932,-3.94514 c -1.89684,-1.58096 -8.40179,-5.60853 -14.45543,-8.95017 -6.05349,-3.34164 -11.00644,-7.01618 -11.00644,-8.16563 0,-1.14946 2.68678,-3.46063 5.97061,-5.13592 4.95206,-2.52634 6.72823,-4.7447 10.41118,-13.00297 2.4423,-5.47632 5.33813,-11.62489 6.43496,-13.66347 1.09699,-2.03859 1.70381,-4.51042 1.34843,-5.49295 -0.35523,-0.98254 0.47577,-4.15047 1.84689,-7.03985 1.37112,-2.88939 4.25212,-10.42515 6.40234,-16.74616 l 3.90949,-11.49278 6.67174,-1.09332 c 3.66946,-0.60134 14.59717,-1.44544 24.28394,-1.87582 18.46085,-0.82019 21.67692,-0.0228 21.67692,5.37459 0,3.27464 0.97393,3.50423 3.62379,0.85434 1.30721,-1.30732 6.17269,-1.90482 15.09088,-1.85326 l 13.16141,0.0761 0.43663,9.92806 0.43648,9.92806 -5.33829,1.00148 c -2.93616,0.55081 -8.69327,0.67913 -12.79357,0.28512 -5.5881,-0.53693 -7.65871,-0.18593 -8.26791,1.40165 -1.27342,3.31873 1.75896,5.39504 3.97664,2.72281 2.48694,-2.99653 19.67481,-3.21557 22.1097,-0.28176 2.71169,3.26751 3.89733,19.76738 1.61767,22.51418 -1.14146,1.37542 -2.06423,6.82683 -2.23369,13.19617 -0.15879,5.96893 -0.75079,11.60037 -1.31567,12.51427 -1.4743,2.38556 -34.59726,2.17244 -39.39216,-0.25345 -2.924,-1.47931 -3.96108,-3.51809 -4.94998,-9.73071 -0.68808,-4.3226 -0.91937,-8.19091 -0.51402,-8.59623 1.20357,-1.20361 5.66238,-1.76328 15.00607,-1.88361 8.13759,-0.10483 8.58919,-0.2833 5.93043,-2.34371 -2.80391,-2.17291 -2.76833,-2.32107 1.37987,-5.75944 2.34178,-1.94105 3.99993,-4.30243 3.68487,-5.24752 -0.36843,-1.10533 -1.71004,-0.6588 -3.76063,1.25165 -6.18412,5.76132 -9.85327,5.42326 -17.47359,-1.60995 l -6.95536,-6.41968 0.96385,-7.7837 c 0.79068,-6.38474 0.56072,-7.78368 -1.2792,-7.78368 -1.23368,0 -2.6555,0.66717 -3.15944,1.4826 -0.50393,0.81543 -3.54565,1.48261 -6.7592,1.48261 -3.21371,0 -5.84297,0.45776 -5.84297,1.01723 0,0.55947 1.0577,5.23491 2.35054,10.38986 2.23651,8.918 2.20997,9.67765 -0.54946,15.6621 -1.59499,3.45923 -4.69809,11.62688 -6.89561,18.15036 -4.91945,14.6027 -8.0049,21.49782 -9.62006,21.49782 -0.67754,0 -3.64854,-1.00971 -6.6022,-2.24381 -4.6585,-1.94647 -5.37015,-1.95806 -5.37015,-0.0874 0,1.18597 0.678,2.57539 1.50677,3.08757 1.54606,0.95548 0.61366,3.73071 -1.22359,3.64225 -0.56354,-0.0272 -2.57648,-1.34285 -4.47348,-2.9238 z m 69.42506,-76.25892 c 0,-0.35959 -0.66718,-1.06614 -1.4826,-1.5701 -0.81544,-0.50397 -1.48261,-0.20977 -1.48261,0.6538 0,0.86356 0.66717,1.57011 1.48261,1.57011 0.81542,0 1.4826,-0.29421 1.4826,-0.65381 z m -453.67813,42.19805 c 0,-3.2421 7.97687,-25.16067 12.69112,-34.8725 5.55237,-11.43838 24.34532,-38.32193 32.94608,-47.12993 6.2228,-6.37271 34.36627,-25.64852 45.54321,-31.1931 20.66267,-10.25021 50.60675,-17.3372 73.00867,-17.27932 14.19063,0.0366 37.27292,4.11127 51.53042,9.09644 24.54235,8.58125 51.70092,25.84533 66.8176,42.47449 19.33648,21.27106 31.56147,40.34102 36.12286,56.34889 1.55496,5.4569 3.81638,13.09073 5.02545,16.96404 1.91494,6.13494 1.92087,7.04239 0.046,7.04239 -4.52581,0 -10.5572,-4.50593 -12.30965,-9.19639 -9.5855,-25.65481 -12.08029,-30.35185 -25.81517,-48.60235 -17.34815,-23.05163 -30.2968,-33.40648 -58.42455,-46.72122 -35.61937,-16.86097 -78.55703,-18.74387 -114.50361,-5.02119 -47.47342,18.12306 -79.04868,50.07965 -94.18137,95.31849 -2.5698,7.68242 -3.65759,9.08926 -8.85991,11.45766 -6.68345,3.04266 -9.63696,3.44527 -9.63696,1.3136 z m 428.025,-7.0736 c -1.803,-3.21373 -2.3437,-9.19805 -0.9112,-10.08341 1.58757,-0.98112 11.73825,7.6696 11.73825,10.0036 0,1.50599 -9.98567,1.5796 -10.82705,0.0798 z M 163.16259,321.51838 c 0,-0.81543 1.00077,-1.4826 2.22392,-1.4826 1.22315,0 2.22391,0.66717 2.22391,1.4826 0,0.81543 -1.00076,1.48261 -2.22391,1.48261 -1.22315,0 -2.22392,-0.66718 -2.22392,-1.48261 z m 14.82609,-5.11466 c 0,-2.11104 1.81189,-8.4956 4.02661,-14.18789 2.89421,-7.43919 4.77044,-10.34962 6.67174,-10.34962 3.59221,0 3.33187,4.29732 -1.03293,17.05001 -2.69539,7.87509 -4.28948,10.49251 -6.60888,10.85202 -2.42184,0.37539 -3.05654,-0.32318 -3.05654,-3.36452 z m 19.95754,-12.77005 c -0.53582,-0.86683 0.0919,-2.75408 1.39499,-4.19392 1.30306,-1.43983 2.3692,-3.93306 2.3692,-5.54049 0,-1.60743 0.5631,-3.55643 1.25147,-4.33108 2.91585,-3.28186 7.84775,-18.4469 6.9346,-21.32376 -1.08378,-3.41462 0.74116,-3.94607 5.25481,-1.53039 3.59592,1.92446 3.64559,5.87755 0.15257,12.13426 -1.49344,2.67497 -3.95605,8.19945 -5.47246,12.27662 -4.70387,12.64785 -9.00299,17.1724 -11.88518,12.50876 z m -24.91686,-7.06572 c -1.34962,-1.49122 -2.45373,-3.25802 -2.45373,-3.92623 0,-0.66819 2.81548,-8.15314 6.25661,-16.6332 6.57864,-16.21143 10.26899,-21.67089 14.14127,-20.9196 3.11556,0.60449 4.19845,4.15991 1.26689,4.15991 -2.22169,0 -6.64031,8.24648 -12.89854,24.07294 -2.00864,5.0794 -2.40123,8.01188 -1.41856,10.59647 2.14577,5.6439 -0.76028,7.21734 -4.89394,2.64971 z M 605.69997,278.8934 c -3.88013,-6.79668 -10.92964,-15.08829 -21.97167,-25.84269 l -16.25872,-15.83507 1.94281,-4.92144 c 1.06851,-2.70679 2.50294,-5.55526 3.18776,-6.32993 0.68466,-0.77465 1.24494,-2.63268 1.24494,-4.12892 0,-2.59092 -6.31488,-23.77464 -8.95643,-30.0452 -0.68705,-1.63086 -1.69463,-5.30032 -2.23904,-8.15434 -0.54456,-2.85402 -2.91851,-9.18224 -5.27557,-14.0627 -5.45466,-11.29444 -5.38231,-13.97334 0.533,-19.74664 2.65016,-2.58652 6.18781,-6.21194 7.86124,-8.0565 10.28677,-11.33776 24.76801,-20.61422 27.66236,-17.71996 2.39752,2.39755 5.61878,2.22745 5.61878,-0.2967 0,-3.09014 15.95673,-18.69574 19.11646,-18.69574 2.38789,0 14.98354,11.85614 14.98354,14.10382 0,0.45462 -1.07075,2.46074 -2.37945,4.45803 l -2.37944,3.63144 4.49824,-1.56808 c 5.62442,-1.96065 11.20185,0.4699 9.97172,4.34549 -0.58384,1.83968 0.42981,3.01879 3.63536,4.22874 4.36243,1.64663 5.88818,5.31616 2.96226,7.12447 -2.45075,1.51461 -1.67061,5.18596 1.11195,5.2328 2.61917,0.044 13.71413,13.89777 13.71413,17.12411 0,1.52903 -7.66094,7.79558 -26.47272,21.65417 -5.09631,3.75442 -5.61404,3.84883 -9.10989,1.66133 -6.61168,-4.13725 -11.65789,-9.6351 -10.82807,-11.79748 0.44508,-1.15968 2.64319,-3.05698 4.88489,-4.2162 5.25214,-2.71598 20.07986,-16.75761 18.92016,-17.91722 -0.48703,-0.48705 -3.41459,0.83302 -6.50568,2.93349 -6.10553,4.14879 -9.41085,3.18507 -6.27856,-1.83061 1.05547,-1.68992 1.35244,-3.60331 0.66007,-4.25197 -0.69224,-0.64866 -1.50367,-0.51221 -1.803,0.30323 -0.29935,0.81543 -1.88455,3.68121 -3.52268,6.36839 -2.94106,4.82434 -3.10192,4.88027 -12.79713,4.44783 -9.50694,-0.42405 -9.90576,-0.60048 -12.55562,-5.5528 -3.43743,-6.42414 -7.23958,-8.89424 -7.23958,-4.70326 0,1.6123 -2.16831,4.6694 -4.81847,6.79356 l -4.81848,3.86211 4.44782,3.70529 c 2.4463,2.0379 6.11576,4.52369 8.15435,5.52395 2.73244,1.34068 4.3897,4.15338 6.30598,10.702 1.42967,4.88585 4.59875,14.908 7.04238,22.27146 2.44364,7.36348 4.44293,14.20741 4.44293,15.20875 0,1.00133 -2.66869,2.88841 -5.93043,4.19351 -6.54023,2.61685 -7.44387,4.33595 -3.018,5.74068 2.6644,0.84566 2.85077,1.95858 2.18952,13.07274 -0.74175,12.46559 0.13492,12.48156 3.82306,0.0697 1.17185,-3.94328 3.08931,-6.72337 5.34658,-7.7519 3.48487,-1.58776 4.69853,-5.21151 2.25208,-6.72351 -0.69727,-0.43091 -1.62909,-6.05749 -2.07091,-12.50353 -0.61617,-8.98946 -1.87535,-13.91724 -5.4041,-21.15045 -4.52908,-9.28341 -5.7718,-14.66364 -3.38702,-14.66364 0.66761,0 5.50463,2.57838 10.7489,5.72976 8.62345,5.18191 14.04505,10.63501 20.75742,20.87807 1.39275,2.12528 3.03593,3.11211 4.09362,2.45845 1.22641,-0.75801 0.40149,-2.45741 -2.69731,-5.55624 -2.45534,-2.45533 -4.46427,-5.60598 -4.46427,-7.00144 0,-1.39546 3.16906,-5.16116 7.04238,-8.36821 3.87332,-3.20706 7.26478,-6.35062 7.53654,-6.98569 0.27192,-0.6351 1.08631,-1.1547 1.80997,-1.1547 0.72367,0 4.27021,-2.08251 7.88125,-4.62779 3.61089,-2.54528 7.30941,-4.16794 8.21884,-3.60593 1.88217,1.16326 7.54144,11.76185 7.54144,14.12349 0,0.85806 -3.71171,3.93445 -8.2482,6.83642 -6.10627,3.90614 -7.85471,5.75057 -6.73267,7.10251 1.06955,1.28877 0.58844,3.33018 -1.63487,6.93678 -1.73287,2.81083 -5.34407,9.46017 -8.02507,14.7763 -3.26959,6.48351 -7.54129,11.96816 -12.97505,16.65928 -5.54776,4.78963 -8.42669,8.51837 -9.13523,11.83211 -0.56918,2.6612 -1.56341,5.50572 -2.20968,6.32115 -0.64612,0.81543 -2.84468,7.25302 -4.88564,14.30576 -3.92877,13.57614 -6.29264,19.05293 -8.22388,19.05293 -0.64849,0 -3.75011,-4.50343 -6.8922,-10.00761 z m 43.75815,-75.401 c 0,-0.32047 -1.00077,-0.58269 -2.22391,-0.58269 -1.22316,0 -2.22392,0.64625 -2.22392,1.4361 0,0.78982 1.00076,1.05204 2.22392,0.58267 1.22314,-0.46938 2.22391,-1.1156 2.22391,-1.43608 z m -30.46791,-64.45531 c -0.545,-0.88169 0.8749,-3.55039 3.15515,-5.93044 2.2801,-2.38004 3.43549,-4.32734 2.56728,-4.32734 -0.86807,0 -2.46661,1.07026 -3.55233,2.37837 -1.08556,1.30808 -3.57486,2.98708 -5.53176,3.73109 -2.93853,1.11724 -3.24024,1.73558 -1.73258,3.55206 2.08189,2.50851 6.6031,3.03769 5.09424,0.59626 z m 84.37406,147.24665 c -2.59323,-1.66978 -12.62234,-24.29921 -11.76228,-26.54033 1.84571,-4.80996 5.47186,-1.31795 11.24114,10.82555 6.6492,13.99514 6.84105,19.78417 0.52114,15.71478 z m -25.19619,-16.28599 c -1.37111,-2.24245 -5.72316,-9.11965 -9.67105,-15.28268 -3.94789,-6.16302 -7.17805,-11.89739 -7.17805,-12.74304 0,-2.01908 4.93575,-6.44493 7.18739,-6.44493 1.11314,0 1.4411,1.2893 0.88838,3.49167 -0.65843,2.62371 1.20047,6.67763 7.47827,16.30869 4.5949,7.04936 8.97971,12.81702 9.7437,12.81702 2.3231,0 1.54978,4.06896 -0.95598,5.03051 -3.89748,1.49558 -4.89349,1.07317 -7.49266,-3.17724 z m -480.16997,-3.34511 c -1.31226,-2.12343 11.05196,-26.94927 13.08447,-26.27177 4.35115,1.45037 4.39563,5.27593 0.14232,12.21433 -2.37884,3.88027 -5.35458,8.75345 -6.61302,10.82929 -2.6432,4.36037 -5.15563,5.58678 -6.61348,3.22815 z m 31.88186,-12.22285 c -10.07922,-9.62042 -25.20434,-29.13873 -25.20434,-32.52523 0,-1.38112 0.66717,-2.92349 1.48261,-3.42745 2.50709,-1.54951 1.64436,-3.70652 -1.48261,-3.70652 -1.63087,0 -2.96522,-0.66525 -2.96522,-1.47834 0,-0.81308 -2.23888,-3.98216 -4.97519,-7.04239 -9.00061,-10.06596 -9.36251,-11.80437 -3.68694,-17.70525 8.22121,-8.54737 9.72931,-8.8562 15.59036,-3.19261 2.82052,2.72556 6.53445,7.29065 8.25309,10.14467 1.71878,2.85403 3.32653,5.45101 3.57294,5.77106 0.67755,0.88018 4.96747,-2.98003 4.96747,-4.46997 0,-0.7156 -1.19557,-1.30109 -2.65698,-1.30109 -1.50633,0 -5.65007,-3.90858 -9.56845,-9.02532 -8.00224,-10.44944 -7.84167,-11.31705 3.47997,-18.80888 7.00429,-4.63482 7.44567,-4.73173 10.98672,-2.41159 3.25908,2.13541 3.68918,2.15153 3.68918,0.13818 0,-2.44916 13.01448,-14.34522 15.7112,-14.36108 2.5065,-0.0149 6.51799,4.17669 15.59911,16.29911 12.96437,17.3063 12.81078,16.63666 5.61034,24.4482 -3.38999,3.6776 -6.72645,6.68657 -7.41452,6.68657 -0.68808,0 -5.6901,-5.36548 -11.11541,-11.92328 -5.42546,-6.55782 -10.23727,-11.55049 -10.69288,-11.09485 -0.45559,0.45564 -0.0385,1.61792 0.92605,2.58285 0.96488,0.96493 1.75436,3.27224 1.75436,5.12736 0,2.95697 -0.54856,3.26323 -4.44782,2.48336 -2.83341,-0.56668 -4.44783,-0.28417 -4.44783,0.77837 0,0.91737 1.21812,1.66794 2.7068,1.66794 1.48869,0 4.12566,1.51029 5.85972,3.35619 2.57633,2.74243 3.0982,4.96339 2.85298,12.14446 -0.29444,8.62952 -0.41291,8.8568 -6.55417,12.58185 -3.4398,2.08647 -6.27529,4.22869 -6.30109,4.76049 -0.0252,0.53181 1.93125,1.65647 4.3488,2.49926 2.81695,0.98198 4.73841,2.8978 5.34984,5.33415 0.52484,2.09102 1.39113,3.80185 1.92502,3.80185 0.53388,0 3.81564,-3.64266 7.2928,-8.09478 5.11278,-6.54638 7.37791,-8.26065 11.8413,-8.96195 3.03564,-0.47695 11.52386,-2.7823 18.86278,-5.12302 7.33891,-2.34071 15.79896,-4.71154 18.80006,-5.26848 5.37386,-0.99726 5.48432,-0.92039 7.27709,5.06345 1.99589,6.66185 3.44291,7.51299 5.67676,3.33908 1.31166,-2.45078 2.41546,-2.59311 10.55602,-1.36102 5.00009,0.75679 9.51567,0.95141 10.03459,0.43248 1.33005,-1.33007 -2.81726,-3.6977 -6.52452,-3.7248 -3.2518,-0.0238 -6.92007,-3.39953 -8.48289,-7.80639 -1.00076,-2.82185 -4.73219,-3.49082 -6.20234,-1.11196 -0.50394,0.81544 -5.96409,1.48261 -12.13366,1.48261 -10.87657,0 -16.00477,1.45952 -32.71302,9.3105 -1.83354,0.86154 -3.76093,1.13917 -4.28311,0.61697 -2.25385,-2.25383 17.20953,-29.08985 21.21465,-29.2507 1.79322,-0.072 7.90556,-5.40202 7.86701,-6.86006 -0.0504,-1.89196 -5.8268,-8.88677 -5.86461,-7.10126 -0.0178,0.8562 0.78846,2.37804 1.79219,3.38187 1.4451,1.4451 0.84449,2.74167 -2.88472,6.22695 -2.59055,2.421 -5.2849,4.40182 -5.98766,4.40182 -1.11966,0 -8.73612,-9.50959 -12.96792,-16.1916 -0.81544,-1.28755 -3.65093,-5.43267 -6.30109,-9.21138 -2.65016,-3.77869 -4.81848,-7.26579 -4.81848,-7.74909 0,-1.34341 12.07317,-6.87835 15.00355,-6.87835 2.53319,0 7.31608,5.60534 9.17171,10.74891 0.51476,1.42701 2.3618,2.59457 4.10445,2.59457 1.74252,0 5.15059,1.66793 7.57331,3.70652 2.42274,2.03858 5.32123,3.70652 6.4412,3.70652 5.41953,0 17.99545,8.8868 23.0716,16.30353 6.29976,9.20489 5.70849,8.83216 23.59067,14.87159 16.10959,5.44078 26.13186,9.72299 27.34316,11.68281 1.73154,2.80163 -1.26763,6.32802 -8.49787,9.99188 -12.73605,6.4538 -31.31373,19.05823 -38.76768,26.30264 l -7.12142,6.92117 -5.09542,-3.00639 c -2.80258,-1.6535 -6.55847,-3.0085 -8.34664,-3.01109 -4.39238,-0.006 -24.06467,5.67085 -31.51804,9.09571 -3.3154,1.52343 -7.20073,2.76986 -8.63426,2.76986 -1.43353,0 -7.57509,1.66794 -13.64785,3.70652 -6.07291,2.03858 -11.19428,3.70627 -11.3811,3.70595 -0.18665,-3e-4 -4.00882,-3.50297 -8.49371,-7.78368 z m -15.56739,-44.10703 c 0.50394,-0.81543 0.2098,-1.4826 -0.65382,-1.4826 -0.86348,0 -1.57009,0.66717 -1.57009,1.4826 0,0.81543 0.29415,1.48261 0.65383,1.48261 0.35953,0 1.06614,-0.66718 1.57008,-1.48261 z m 490.00204,48.15234 c 0,-3.55563 -2.80302,-9.51728 -11.2868,-24.00559 -1.53435,-2.62027 -4.29274,-5.5685 -6.1297,-6.55161 -4.77696,-2.55653 -4.33603,-6.04718 0.69001,-5.4621 3.38375,0.39392 5.67394,3.18496 14.2839,17.40839 10.4552,17.27193 11.24232,20.8354 4.87822,22.08791 -1.77038,0.34844 -2.43563,-0.60123 -2.43563,-3.477 z m -36.16467,-33.32974 c -9.38001,-12.56107 -10.79887,-16.3052 -6.17877,-16.3052 4.52937,0 22.93106,24.79531 20.87305,28.12522 -2.09982,3.39744 -5.18201,0.91809 -14.69428,-11.82002 z M 242.3235,222.80367 c 0.49504,-1.28984 0.89994,-2.62419 0.89994,-2.96522 0,-0.34101 1.00077,-0.62004 2.22391,-0.62004 2.68086,0 2.86619,1.72989 0.44479,4.1513 -2.53348,2.53353 -4.63048,2.20094 -3.56864,-0.56604 z m 6.52882,-10.62765 c -0.99098,-3.97112 0.44196,-15.19674 1.93984,-15.19674 0.72989,0 1.32693,0.79097 1.32693,1.75772 0,0.96673 1.45059,3.30184 3.22364,5.18912 l 3.22363,3.43143 -3.48205,3.70652 c -4.11913,4.38458 -5.36007,4.60603 -6.23199,1.11195 z m 246.22609,-9.9473 c -3.77323,-1.03623 -7.73506,-2.42466 -8.80417,-3.08542 -1.0691,-0.66074 -4.32017,-1.34394 -7.22445,-1.51822 -2.90443,-0.17428 -13.45541,-0.8264 -23.44656,-1.44918 l -18.16581,-1.13229 -1.51478,-5.62571 c -0.929,-3.44961 -3.53869,-7.29388 -6.74675,-9.93829 -4.90225,-4.0408 -22.42757,-13.6351 -24.90634,-13.6351 -0.61721,0 -3.24603,-1.59438 -5.84177,-3.54306 -2.59576,-1.94869 -8.76252,-5.5637 -13.7039,-8.03337 -12.77667,-6.38567 -12.8686,-6.56392 -10.9381,-21.22835 0.89891,-6.82812 1.93526,-15.08347 2.30294,-18.3452 1.88973,-16.759366 3.60378,-19.978316 10.68293,-20.062356 3.60822,-0.0429 3.73529,-0.22636 1.3901,-2.00691 -2.25786,-1.71429 -2.41784,-3.26037 -1.27727,-12.343478 0.71713,-5.711052 2.09849,-11.868579 3.06974,-13.683381 1.59751,-2.985091 2.49671,-3.204576 9.43161,-2.302276 8.97957,1.168311 11.30415,3.534177 11.55797,11.763308 l 0.18548,6.017707 1.04286,-6.427101 c 1.30693,-8.054866 3.38228,-9.417572 12.67082,-8.319524 10.89969,1.288526 12.62959,2.023744 14.14601,6.012033 1.11699,2.937856 2.07283,3.438466 5.10951,2.676293 4.69913,-1.179384 16.97913,2.347647 18.49643,5.312475 1.59677,3.120294 -4.74064,34.41963 -7.73106,38.18168 -1.63695,2.05942 -18.90133,2.6366 -18.90133,0.63192 0,-0.67175 1.04746,-7.31925 2.32769,-14.77223 1.54251,-8.979906 1.85074,-14.403166 0.91374,-16.077496 -1.19336,-2.13249 -1.56949,-1.81797 -2.41176,2.01634 -0.54872,2.49861 -2.29434,5.71626 -3.87895,7.15037 -2.78286,2.518436 -2.88115,2.476076 -2.88115,-1.2414 0,-2.11683 -0.71151,-4.28856 -1.5812,-4.82606 -2.75855,-1.70485 -3.10681,0.3227 -0.94428,5.4982 2.4939,5.968976 1.1895,10.644126 -3.69199,13.231186 -1.88069,0.99674 -4.56673,3.12057 -5.96898,4.71963 -2.57099,2.93188 -3.82632,2.94885 -15.11386,0.20427 -3.85166,-0.93652 -4.18703,-0.74535 -3.09331,1.76342 1.3434,3.08151 1.59736,7.52609 0.62447,10.92483 -0.5109,1.78447 1.04006,2.09742 8.53849,1.72281 9.37083,-0.46818 11.11453,0.21004 31.89298,12.4053 9.02998,5.2998 20.44695,13.57724 20.44977,14.82608 0,0.81543 -1.32234,3.48413 -2.94253,5.93043 -3.92328,5.92388 -3.72729,7.18447 0.93463,6.01438 2.89924,-0.72765 4.80143,-0.13195 7.41304,2.32163 1.93229,1.81523 3.51319,4.1849 3.51319,5.2659 0,1.08101 0.54368,1.96547 1.20803,1.96547 0.66436,0 2.32147,2.33511 3.68251,5.18913 1.36103,2.85402 3.15246,5.18913 3.98109,5.18913 2.02466,0 2.1059,0.27999 -2.94119,-10.13914 -4.77623,-9.85982 -5.36586,-12.84021 -2.84839,-14.39608 2.97307,-1.83747 -24.19972,-24.41165 -36.14125,-30.02483 -3.70577,-1.74192 -7.1131,-3.77435 -7.57168,-4.51651 -1.03827,-1.67977 5.45793,-3.04625 19.87437,-4.18062 l 11.11956,-0.87494 -0.17495,-6.28472 c -0.0964,-3.4566 1.40477,-11.13094 3.33587,-17.05409 1.93095,-5.923136 3.51082,-11.934666 3.51082,-13.358946 0,-5.03751 3.68012,-6.30195 9.87698,-3.39366 5.14762,2.41582 5.73429,3.27821 6.14986,9.04055 0.39942,5.53952 0.83442,6.250956 3.33588,5.45703 2.21946,-0.70443 2.8764,-0.20645 2.8764,2.180406 0,2.55928 -0.64005,2.93276 -3.70652,2.16309 -2.91808,-0.73239 -3.70652,-0.3666 -3.70652,1.71976 0,3.04067 2.17306,10.18439 6.14007,20.18539 3.13527,7.90391 3.4656,16.09659 1.15303,28.6059 -1.48024,8.00774 -1.32012,9.24391 2.10056,16.21032 6.38426,13.00152 12.66325,27.30746 13.13427,29.92411 0.60565,3.3648 -1.2227,3.63779 -9.3729,1.39946 z m -19.94494,-76.69584 c 1.25059,-1.78552 2.01117,-3.50905 1.69018,-3.83006 -0.63085,-0.63091 -6.76114,5.11313 -6.76114,6.33518 0,1.90729 3.02823,0.41132 5.07096,-2.50512 z M 411.9585,90.602154 c -0.27473,-1.42702 -1.48216,-2.59457 -2.68293,-2.59457 -1.20076,0 -2.4082,1.16755 -2.68293,2.59457 -0.35064,1.82041 0.44997,2.59456 2.68293,2.59456 2.23296,0 3.03357,-0.77415 2.68293,-2.59456 z M 666.03902,200.32783 c 0.54708,-4.74018 5.65822,-6.79174 5.65822,-2.27116 0,2.89639 -2.62896,6.33565 -4.8428,6.33565 -0.7066,0 -1.07355,-1.82901 -0.81542,-4.06449 z m -62.24524,-28.84941 c -3.90133,-3.90127 -1.94073,-5.63391 6.37521,-5.63391 4.4849,0 8.15435,0.34339 8.15435,0.7631 0,1.09454 -9.33865,6.6378 -11.19369,6.6444 -0.85621,0.003 -2.35735,-0.79506 -3.33587,-1.77359 z M 320.68973,158.53565 c -2.74609,-4.48846 -2.30561,-6.37801 1.22537,-5.2573 4.59683,1.45898 31.02135,-10.95364 31.02135,-14.57194 0,-1.80336 0.88157,-2.5617 2.59457,-2.23182 1.83577,0.35353 2.59457,1.90766 2.59457,5.31365 0,4.65502 -0.48956,5.03901 -14.82609,11.62825 -18.62363,8.55966 -20.276,8.93376 -22.60977,5.11916 z m -25.06335,-2.39204 c -0.48288,-1.25832 -0.62877,-2.53084 -0.32409,-2.82783 1.67148,-1.62982 23.84627,-14.15821 25.05949,-14.15821 0.792,0 1.43738,1.50113 1.43427,3.33586 0,2.55731 -2.4764,4.80649 -10.59264,9.63695 -11.46709,6.82491 -14.22548,7.53556 -15.57703,4.01323 z m 243.82917,-8.8742 c -0.43114,-0.43109 -7.36086,-3.01648 -15.39926,-5.7453 -15.8863,-5.39286 -19.22736,-8.11616 -15.06463,-12.27888 2.35141,-2.35152 2.70353,-2.36302 4.42262,-0.14426 2.95365,3.81226 26.98984,11.62979 32.41901,10.54396 l 4.58881,-0.91777 -2.41131,4.66303 c -2.15438,4.16607 -6.36098,6.07348 -8.55524,3.87922 z M 307.9221,135.45104 c -1.59144,-4.14705 0.55835,-5.95503 15.52321,-13.05552 17.28572,-8.20171 23.26286,-9.81747 25.17068,-6.80437 2.5999,4.10592 1.57453,6.1516 -2.56284,5.11319 -2.71911,-0.68247 -7.59644,0.47421 -15.93804,3.7798 -12.74909,5.05215 -17.20908,7.95393 -17.20908,11.1967 0,2.71468 -3.92342,2.53379 -4.98393,-0.2298 z m 243.34302,-1.24364 c -10.76849,-4.92024 -9.13525,-9.97234 2.16357,-6.69291 9.41589,2.73288 13.44755,5.61486 11.36508,8.12406 -2.24867,2.70963 -5.13428,2.40438 -13.52865,-1.43115 z m -207.21186,-2.42385 c -1.43087,-0.9046 -1.69254,-1.86744 -0.7413,-2.72756 2.64067,-2.38786 25.75854,-9.84126 26.92031,-8.67942 2.40479,2.40485 -2.25994,5.98475 -12.16228,9.33362 -11.85701,4.00998 -11.1249,3.90167 -14.01673,2.07336 z m 73.37962,-7.44719 c -0.55909,-0.90468 0.32292,-2.777 1.96001,-4.16074 8.02551,-6.78362 9.28855,-7.70501 10.56196,-7.70501 0.77065,0 0.57613,2.76053 -0.4439,6.30109 -1.58431,5.49837 -2.40449,6.35895 -6.43852,6.75529 -2.54268,0.24982 -5.08045,-0.28598 -5.63955,-1.19063 z m 94.88397,-1.53027 c -2.44631,-0.67247 -8.32707,-1.99618 -13.0683,-2.94158 -4.97357,-0.99167 -8.97705,-2.64789 -9.46319,-3.91473 -1.54355,-4.02215 1.58579,-5.06685 10.01842,-3.34465 4.43597,0.90594 10.62082,2.16726 13.74423,2.80297 6.79019,1.38193 8.83101,3.12485 7.55448,6.45155 -1.03041,2.6852 -2.05786,2.79587 -8.78564,0.94644 z m 40.27506,-2.01596 c -3.11497,-4.75381 -29.65454,-13.39806 -33.99799,-11.07351 -4.37563,2.34178 -6.19493,-0.55128 -2.9031,-4.61653 3.06084,-3.77995 0.91625,-4.11267 24.79559,3.84678 15.82758,5.27567 17.04999,6.00406 17.04999,10.16016 0,5.04488 -2.24185,5.80799 -4.94449,1.6831 z"
     id="path4" /></svg>
