<svg xmlns="http://www.w3.org/2000/svg" xml:space="preserve" width="872" height="889" viewBox="0 0 872 889"><path d="M95.136 520.7c-3.252-7.838-6.121-15.923-6.377-17.967s-2.711-10.408-5.456-18.586c-9.013-26.855-11.632-49.804-11.594-101.602.037-51.585 2.274-70.936 11.744-101.602 2.947-9.54 5.501-18.461 5.678-19.824.683-5.282 15.904-40.415 22.012-50.808 2.805-4.774 7.889-14.04 11.296-20.59 3.408-6.552 10.098-16.827 14.869-22.836a1595 1595 0 0 0 17.346-22.344c11.187-14.73 46.518-48.387 61.476-58.563 6.395-4.351 12.186-8.677 12.867-9.613 3.54-4.86 53.867-31.997 73.104-39.417 2.726-1.052 7.744-3.132 11.152-4.624s20.84-6.499 38.74-11.127l32.547-8.415 59.143.523c45.643.403 62.68 1.453 74.632 4.6a2689 2689 0 0 0 30.078 7.7c8.025 1.994 20.778 6.454 28.34 9.913s15.427 6.29 17.478 6.29 4.332.974 5.069 2.165c.736 1.191 7.214 4.954 14.395 8.362 41.06 19.487 99.627 69.74 128.557 110.307 8.03 11.26 14.6 21.096 14.6 21.857s3.345 6.246 7.434 12.19c4.089 5.942 7.434 12.104 7.434 13.693 0 1.588 2.364 6.207 5.253 10.265 2.89 4.057 6.671 12.035 8.404 17.729 3.083 10.126 6.859 19.985 11.654 30.428 1.315 2.863 2.78 8.439 3.255 12.39 1.302 10.821 3.641 20.721 8.137 34.443 3.251 9.922 4.06 23.005 4.06 65.67 0 48.135-.567 55.431-5.876 75.581-3.232 12.267-6.165 24.75-6.519 27.74-.795 6.735-15.626 45.784-18.544 48.83-1.233 1.286-8.73-4.517-17.75-13.737-8.588-8.78-20.81-20.147-27.157-25.26-6.348-5.112-15.627-13.149-20.62-17.858s-10.163-8.563-11.486-8.563-3.753-1.131-5.4-2.513c-4.408-3.701-21.543-14.85-31.49-20.489-39.427-22.35-71.09-34.558-132.579-51.122-19.12-5.15-51.247-7.9-92.567-7.921-45.889-.025-76.135 3.076-104.441 10.707-10.223 2.756-22.083 5.848-26.357 6.873-19.19 4.6-67.007 25.36-98.788 42.89-12.256 6.76-43.36 27.622-49.801 33.404-2.622 2.353-10.332 8.72-17.133 14.15s-19.133 16.86-27.407 25.4c-8.273 8.541-15.595 15.53-16.27 15.53-.677 0-3.89-6.413-7.142-14.25m80.582-78.67c64.24-43.07 137.929-69.97 214.643-78.353 31.666-3.46 102.537-1.506 129.856 3.582 88.291 16.444 167.027 53.019 229.714 106.708 10.516 9.007 20.23 16.376 21.588 16.376 2.452 0 3.713-3.81 11.478-34.694 6.151-24.462 7.71-101.257 2.647-130.418-7.77-44.763-29.293-98.39-55.017-137.092C680.73 113.072 592.733 55.15 504.066 39.004c-23.937-4.358-101.781-4.42-124.956-.1-68.082 12.692-132.858 47.303-183.716 98.16-40.763 40.764-67.43 83.818-85.71 138.377-19.961 59.58-21.878 144.72-4.524 200.906l5.051 16.355 19.124-16.198c10.518-8.91 31.39-24.423 46.383-34.475" style="fill:#000;stroke-width:2.4781"/><path d="M732.585 431.373c-3.77-5.295-3.89-7.555-.397-7.555 3.85 0 6.227 2.942 6.227 7.71 0 5.323-1.967 5.27-5.83-.155m-576.506-.967c-1.897-1.33-3.295-3.866-3.295-5.983 0-3.133-.41-3.455-2.779-2.187-2.737 1.465-13.1.33-23.166-2.537-3.948-1.125-4.5-1.988-4.914-7.674-.632-8.69 2.07-14.894 6.489-14.894 4.874 0 5.939-2.697 1.504-3.81-3.832-.962-5.899-4.598-4.669-8.212.386-1.134 1.414-4.848 2.285-8.252 1.307-5.11 2.343-6.356 5.95-7.148 3.824-.84 4.152-1.304 2.638-3.727-1.358-2.175-1.17-4.535.871-11.014 2.764-8.767 2.836-8.816 12.294-8.325 7.404.385 10.159-2.517 3.629-3.823-7.33-1.466-8.057-3.703-3.722-11.459 4.129-7.387 6.29-8.158 13.026-4.644 5.4 2.816 7.987 2.794 10.873-.091 1.268-1.268 3.722-2.16 5.454-1.981 1.731.178 7.038-.849 11.792-2.282 8.903-2.685 14.722-2.559 28.421.615 7.166 1.66 8.007 1.486 25.205-5.226 31.7-12.37 31.241-12.512 24.575 7.592-2.641 7.965-6.029 20.095-7.528 26.955s-2.945 12.663-3.215 12.896c-.269.233-2.674 1.536-5.344 2.894s-10.468 6.09-17.328 10.516c-6.86 4.425-15.408 9.426-18.998 11.113s-10.243 6.38-14.786 10.43-8.951 7.362-9.795 7.362c-.92 0-1.359-3.122-1.095-7.784.344-6.082 1.623-9.519 5.85-15.717 2.975-4.363 5.41-8.564 5.41-9.337 0-1.821 9.665-16.93 13.384-20.921 3.078-3.305 5.215-2.838 13.062 2.854 3.456 2.506 3.465 2.499 2.966-2.382-.378-3.692.228-5.297 2.463-6.525 1.631-.896 5.453-3.15 8.494-5.008 3.04-1.86 6.543-3.38 7.783-3.38s2.256-.668 2.256-1.483c0-2.55-5.046-1.633-13.094 2.377-6.974 3.476-8.066 3.647-10.963 1.724-2.955-1.962-3.625-1.764-8.23 2.441-13.359 12.195-17.037 16.753-21.75 26.952-6.914 14.967-9.022 14.496-10.213-2.282-.954-13.44-.178-21.724 2.172-23.176.71-.439 1.291-2.378 1.291-4.308 0-2.457-1.403-4.21-4.675-5.843-6.65-3.318-8.846-2.882-3.109.616 5.476 3.339 6.22 7.533 2.116 11.937-2.577 2.766-3.065 2.794-10.482.591-4.28-1.27-9.568-2.096-11.753-1.835-3.205.383-2.254 1.02 4.923 3.293 12.16 3.851 14.09 5.78 14.062 14.059-.037 11.028-.801 11.484-14.355 8.572-10.666-2.292-24.943-3.35-19.722-1.462 9.876 3.572 15.19 7.857 9.742 7.857-2.936 0-7.012 4.352-5.844 6.24.598.969 1.468.645 2.31-.86.821-1.466 3.264-2.415 6.219-2.415 3.87 0 5.982 1.28 10.304 6.242 6.194 7.11 6.323 7.795 3.029 16.029-2.819 7.043-2.354 7.991 2.932 5.982 3.953-1.503 8.373-.75 8.373 1.425 0 1.963-21.664 20.73-23.93 20.73-1.154 0-3.58-1.038-5.393-2.307m-3.295-31.81c0-2.672-.656-2.882-6.3-2.017-7.334 1.123-9.067 2.025-3.954 2.058 1.97.012 4.583.67 5.807 1.46 3.347 2.163 4.447 1.792 4.447-1.5m108.23-65.958c1.502-1.809 1.431-2.224-.377-2.224-1.224 0-3.055 1-4.07 2.224-1.501 1.809-1.43 2.224.378 2.224 1.223 0 3.055-1 4.07-2.224m460.598 90.192c-1.224-1.224-1.255-8.986-.054-13.467.512-1.91 2.048-3.336 3.593-3.336 2.263 0 2.58.899 1.955 5.56-1.607 12.013-2.63 14.106-5.494 11.243m-26.193-21.37c-5.3-4.155-9.838-8.421-10.085-9.482-.246-1.061 2.561-6.58 6.239-12.264 3.92-6.061 7.896-14.705 9.613-20.902 1.61-5.811 3.366-11.275 3.902-12.14 1.769-2.863 4.645 1.203 8.11 11.462 2.531 7.492 3.17 12.065 2.64 18.882-.751 9.658-.187 13.201 1.898 11.913.72-.445.929-2.702.466-5.017s-.085-5.625.842-7.356c1.404-2.624 3.044-3.146 9.872-3.146 7.457 0 27.015 2.315 31.254 3.7 1.261.411 1.03 2.53-.842 7.7l-2.583 7.132-9.907-.462c-7.888-.369-9.906-.024-9.906 1.692 0 1.185-2.502 3.271-5.56 4.635s-8.562 4.062-12.231 5.994c-11.724 6.175-13.019 6.047-23.722-2.341m-519.58-13.736c-2.08-2.727-3.782-5.73-3.782-6.672 0-2.103 2.455-2.256 3.707-.23.504.815 2.13 1.482 3.612 1.482 3.756 0 6.06 3.25 5.048 7.12-1.21 4.632-4.208 4.039-8.585-1.7m493.15-3.945c-1.897-1.58-8.402-5.609-14.456-8.95-6.053-3.342-11.006-7.016-11.006-8.166s2.686-3.46 5.97-5.136c4.952-2.526 6.729-4.744 10.411-13.003 2.443-5.476 5.339-11.625 6.435-13.663 1.097-2.039 1.704-4.51 1.349-5.493s.476-4.15 1.847-7.04 4.252-10.425 6.402-16.746l3.91-11.493 6.671-1.093c3.67-.602 14.597-1.446 24.284-1.876 18.461-.82 21.677-.023 21.677 5.375 0 3.274.974 3.504 3.624.854 1.307-1.307 6.173-1.905 15.09-1.853l13.162.076.437 9.928.436 9.928-5.338 1.001c-2.936.551-8.693.68-12.793.285-5.589-.536-7.66-.185-8.268 1.402-1.274 3.319 1.759 5.395 3.976 2.723 2.487-2.997 19.675-3.216 22.11-.282 2.712 3.268 3.897 19.768 1.618 22.514-1.142 1.376-2.065 6.827-2.234 13.197-.159 5.968-.75 11.6-1.316 12.514-1.474 2.385-34.597 2.172-39.392-.254-2.924-1.479-3.961-3.518-4.95-9.73-.688-4.323-.92-8.191-.514-8.597 1.204-1.203 5.662-1.763 15.006-1.883 8.138-.105 8.59-.284 5.93-2.344-2.803-2.173-2.768-2.321 1.38-5.76 2.342-1.94 4-4.302 3.685-5.247-.368-1.105-1.71-.659-3.76 1.252-6.184 5.761-9.854 5.423-17.474-1.61l-6.955-6.42.964-7.784c.79-6.384.56-7.783-1.28-7.783-1.233 0-2.655.667-3.159 1.482-.504.816-3.546 1.483-6.76 1.483s-5.842.458-5.842 1.017c0 .56 1.057 5.235 2.35 10.39 2.237 8.918 2.21 9.678-.55 15.662-1.594 3.46-4.697 11.627-6.895 18.15-4.92 14.603-8.005 21.498-9.62 21.498-.677 0-3.648-1.01-6.602-2.243-4.658-1.947-5.37-1.959-5.37-.088 0 1.186.678 2.576 1.507 3.088 1.546.955.613 3.73-1.224 3.642-.564-.027-2.576-1.343-4.473-2.924m69.425-76.259c0-.36-.668-1.066-1.483-1.57s-1.483-.21-1.483.654c0 .863.668 1.57 1.483 1.57s1.483-.294 1.483-.654M284.736 349.72c0-3.242 7.977-25.16 12.692-34.872 5.552-11.439 24.345-38.322 32.946-47.13 6.222-6.373 34.366-25.649 45.543-31.193 20.663-10.25 50.607-17.338 73.009-17.28 14.19.037 37.272 4.112 51.53 9.097 24.542 8.581 51.7 25.845 66.818 42.474 19.336 21.271 31.561 40.341 36.122 56.35 1.555 5.456 3.817 13.09 5.026 16.963 1.915 6.135 1.92 7.043.046 7.043-4.526 0-10.557-4.506-12.31-9.197-9.585-25.655-12.08-30.352-25.815-48.602-17.348-23.052-30.297-33.407-58.424-46.721-35.62-16.861-78.558-18.744-114.504-5.022-47.474 18.123-79.049 50.08-94.181 95.319-2.57 7.682-3.658 9.09-8.86 11.458-6.684 3.042-9.637 3.445-9.637 1.313zm428.025-7.073c-1.803-3.214-2.343-9.198-.91-10.084 1.587-.981 11.738 7.67 11.738 10.004 0 1.506-9.986 1.58-10.828.08m-549.598-21.128c0-.815 1-1.482 2.224-1.482 1.223 0 2.223.667 2.223 1.482 0 .816-1 1.483-2.223 1.483-1.224 0-2.224-.667-2.224-1.483m14.826-5.114c0-2.111 1.812-8.496 4.026-14.188 2.895-7.44 4.77-10.35 6.672-10.35 3.592 0 3.332 4.298-1.033 17.05-2.695 7.875-4.29 10.493-6.609 10.852-2.422.376-3.056-.323-3.056-3.364m19.957-12.77c-.536-.867.092-2.754 1.395-4.194s2.37-3.933 2.37-5.54.563-3.557 1.25-4.332c2.917-3.282 7.849-18.447 6.935-21.324-1.083-3.414.742-3.946 5.255-1.53 3.596 1.924 3.646 5.878.153 12.134-1.494 2.675-3.956 8.2-5.473 12.277-4.703 12.648-9.003 17.172-11.885 12.509m-24.917-7.066c-1.35-1.491-2.453-3.258-2.453-3.926s2.815-8.153 6.256-16.633c6.579-16.212 10.27-21.671 14.142-20.92 3.115.604 4.198 4.16 1.266 4.16-2.221 0-6.64 8.246-12.898 24.073-2.009 5.08-2.401 8.012-1.419 10.596 2.146 5.644-.76 7.218-4.894 2.65M605.7 278.893c-3.88-6.796-10.93-15.088-21.972-25.842l-16.258-15.835 1.942-4.922c1.069-2.707 2.503-5.555 3.188-6.33.685-.774 1.245-2.632 1.245-4.129 0-2.59-6.315-23.774-8.956-30.045-.687-1.63-1.695-5.3-2.24-8.154-.544-2.854-2.918-9.182-5.275-14.063-5.455-11.294-5.382-13.973.533-19.747 2.65-2.586 6.188-6.211 7.861-8.056 10.287-11.338 24.768-20.614 27.663-17.72 2.397 2.398 5.618 2.227 5.618-.297 0-3.09 15.957-18.695 19.117-18.695 2.388 0 14.983 11.856 14.983 14.103 0 .455-1.07 2.461-2.379 4.458l-2.38 3.632 4.499-1.568c5.624-1.96 11.202.47 9.971 4.345-.583 1.84.43 3.02 3.636 4.229 4.362 1.647 5.888 5.316 2.962 7.124-2.45 1.515-1.67 5.186 1.112 5.233 2.62.044 13.714 13.898 13.714 17.124 0 1.53-7.66 7.796-26.473 21.655-5.096 3.754-5.614 3.848-9.11 1.66-6.611-4.136-11.657-9.634-10.827-11.797.445-1.16 2.643-3.057 4.884-4.216 5.253-2.716 20.08-16.757 18.92-17.917-.486-.487-3.414.833-6.505 2.933-6.106 4.15-9.411 3.186-6.279-1.83 1.056-1.69 1.353-3.603.66-4.252-.692-.649-1.503-.512-1.803.303-.299.816-1.884 3.681-3.522 6.369-2.941 4.824-3.102 4.88-12.797 4.447-9.507-.424-9.906-.6-12.556-5.552-3.437-6.425-7.24-8.895-7.24-4.704 0 1.613-2.168 4.67-4.818 6.794l-4.819 3.862 4.448 3.705c2.447 2.038 6.116 4.524 8.155 5.524 2.732 1.34 4.39 4.154 6.306 10.702 1.43 4.886 4.598 14.908 7.042 22.272s4.443 14.207 4.443 15.208c0 1.002-2.669 2.889-5.93 4.194-6.54 2.617-7.444 4.336-3.019 5.74 2.665.846 2.851 1.96 2.19 13.073-.742 12.466.135 12.482 3.823.07 1.172-3.943 3.09-6.723 5.347-7.752 3.484-1.588 4.698-5.211 2.252-6.723-.698-.431-1.63-6.058-2.071-12.504-.616-8.99-1.876-13.917-5.404-21.15-4.53-9.284-5.772-14.664-3.387-14.664.667 0 5.504 2.578 10.749 5.73 8.623 5.182 14.045 10.635 20.757 20.878 1.393 2.125 3.036 3.112 4.094 2.458 1.226-.758.401-2.457-2.698-5.556-2.455-2.455-4.464-5.606-4.464-7.001s3.17-5.162 7.042-8.369c3.874-3.207 7.265-6.35 7.537-6.985s1.086-1.155 1.81-1.155 4.27-2.082 7.881-4.628c3.611-2.545 7.31-4.168 8.219-3.606 1.882 1.164 7.541 11.762 7.541 14.124 0 .858-3.711 3.934-8.248 6.836-6.106 3.906-7.854 5.75-6.732 7.103 1.07 1.288.588 3.33-1.635 6.936-1.733 2.811-5.344 9.46-8.025 14.777-3.27 6.483-7.542 11.968-12.975 16.66-5.548 4.789-8.427 8.517-9.136 11.831-.569 2.661-1.563 5.506-2.21 6.321-.645.816-2.844 7.253-4.885 14.306-3.929 13.576-6.293 19.053-8.224 19.053-.648 0-3.75-4.503-6.892-10.008m43.758-75.4c0-.321-1-.583-2.224-.583-1.223 0-2.224.646-2.224 1.436s1.001 1.052 2.224.582c1.223-.469 2.224-1.115 2.224-1.436m-30.468-64.456c-.545-.882.875-3.55 3.155-5.93s3.436-4.328 2.568-4.328-2.467 1.07-3.553 2.379-3.575 2.987-5.531 3.73c-2.939 1.118-3.24 1.736-1.733 3.553 2.082 2.508 6.603 3.038 5.094.596m84.374 147.247c-2.593-1.67-12.622-24.3-11.762-26.54 1.846-4.81 5.472-1.319 11.241 10.825 6.65 13.995 6.841 19.784.521 15.715m-25.196-16.286c-1.371-2.243-5.723-9.12-9.671-15.283s-7.178-11.897-7.178-12.743c0-2.02 4.936-6.445 7.187-6.445 1.114 0 1.441 1.29.889 3.492-.659 2.623 1.2 6.677 7.478 16.308 4.595 7.05 8.98 12.817 9.744 12.817 2.323 0 1.55 4.07-.956 5.031-3.898 1.496-4.894 1.073-7.493-3.177m-480.17-3.345c-1.312-2.124 11.052-26.95 13.085-26.272 4.35 1.45 4.395 5.276.142 12.214-2.379 3.88-5.355 8.754-6.613 10.83-2.643 4.36-5.156 5.586-6.614 3.228m31.882-12.223c-10.08-9.62-25.204-29.139-25.204-32.525 0-1.382.667-2.924 1.482-3.428 2.507-1.55 1.645-3.706-1.482-3.706-1.631 0-2.966-.666-2.966-1.479s-2.238-3.982-4.975-7.042c-9-10.066-9.362-11.805-3.687-17.705 8.221-8.548 9.73-8.857 15.59-3.193 2.821 2.726 6.535 7.29 8.254 10.145s3.326 5.45 3.573 5.77c.677.88 4.967-2.98 4.967-4.47 0-.715-1.195-1.3-2.657-1.3-1.506 0-5.65-3.909-9.568-9.026-8.003-10.45-7.842-11.317 3.48-18.809 7.004-4.634 7.445-4.731 10.986-2.411 3.26 2.135 3.69 2.151 3.69.138 0-2.45 13.014-14.345 15.71-14.361 2.507-.015 6.519 4.177 15.6 16.3 12.964 17.305 12.81 16.636 5.61 24.447-3.39 3.678-6.726 6.687-7.414 6.687s-5.69-5.366-11.116-11.923-10.237-11.55-10.693-11.095-.038 1.618.926 2.583 1.755 3.272 1.755 5.127c0 2.957-.549 3.263-4.448 2.483-2.833-.566-4.448-.284-4.448.779 0 .917 1.218 1.668 2.707 1.668s4.126 1.51 5.86 3.356c2.576 2.742 3.098 4.963 2.853 12.144-.295 8.63-.413 8.857-6.554 12.582-3.44 2.087-6.276 4.229-6.302 4.76-.025.532 1.932 1.657 4.35 2.5 2.816.982 4.738 2.898 5.35 5.334.524 2.091 1.39 3.802 1.924 3.802s3.816-3.643 7.293-8.095c5.113-6.546 7.378-8.26 11.841-8.962 3.036-.477 11.524-2.782 18.863-5.123 7.339-2.34 15.799-4.711 18.8-5.268 5.374-.998 5.484-.92 7.277 5.063 1.996 6.662 3.443 7.513 5.677 3.34 1.312-2.452 2.415-2.594 10.556-1.362 5 .757 9.516.952 10.034.433 1.33-1.33-2.817-3.698-6.524-3.725-3.252-.024-6.92-3.4-8.483-7.807-1-2.821-4.732-3.49-6.202-1.112-.504.816-5.964 1.483-12.134 1.483-10.877 0-16.005 1.46-32.713 9.31-1.833.862-3.76 1.14-4.283.618-2.254-2.254 17.21-29.09 21.215-29.251 1.793-.072 7.905-5.402 7.867-6.86-.05-1.892-5.827-8.887-5.865-7.101-.018.856.788 2.378 1.792 3.381 1.445 1.445.845 2.742-2.885 6.227-2.59 2.421-5.284 4.402-5.987 4.402-1.12 0-8.736-9.51-12.968-16.191-.816-1.288-3.651-5.433-6.301-9.212s-4.819-7.266-4.819-7.749c0-1.343 12.073-6.878 15.004-6.878 2.533 0 7.316 5.605 9.172 10.749.514 1.427 2.361 2.594 4.104 2.594s5.15 1.668 7.573 3.707 5.322 3.706 6.442 3.706c5.42 0 17.995 8.887 23.071 16.304 6.3 9.205 5.709 8.832 23.59 14.871 16.11 5.441 26.133 9.723 27.344 11.683 1.731 2.802-1.268 6.328-8.498 9.992-12.736 6.454-31.314 19.058-38.768 26.303l-7.121 6.92-5.095-3.006c-2.803-1.653-6.559-3.008-8.347-3.01-4.392-.007-24.065 5.67-31.518 9.095-3.316 1.524-7.2 2.77-8.634 2.77s-7.575 1.668-13.648 3.706c-6.073 2.04-11.195 3.707-11.381 3.706-.187 0-4.01-3.503-8.494-7.783m-15.567-44.107c.504-.816.21-1.483-.654-1.483s-1.57.667-1.57 1.483c0 .815.294 1.482.654 1.482.359 0 1.066-.667 1.57-1.482m490.002 48.152c0-3.556-2.803-9.517-11.287-24.005-1.535-2.62-4.293-5.569-6.13-6.552-4.777-2.557-4.336-6.047.69-5.462 3.384.394 5.674 3.185 14.284 17.408 10.455 17.272 11.242 20.836 4.878 22.088-1.77.349-2.435-.601-2.435-3.477m-36.165-33.33c-9.38-12.56-10.799-16.305-6.179-16.305 4.53 0 22.931 24.795 20.873 28.125-2.1 3.398-5.182.918-14.694-11.82m-425.826-2.341c.495-1.29.9-2.625.9-2.966 0-.34 1-.62 2.223-.62 2.681 0 2.867 1.73.445 4.152-2.533 2.533-4.63 2.2-3.569-.566m6.528-10.628c-.99-3.971.442-15.197 1.94-15.197.73 0 1.327.791 1.327 1.758s1.45 3.302 3.224 5.19l3.223 3.43-3.482 3.707c-4.119 4.385-5.36 4.606-6.232 1.112m246.226-9.947c-3.773-1.037-7.735-2.425-8.804-3.086-1.069-.66-4.32-1.344-7.224-1.518s-13.456-.826-23.447-1.45l-18.166-1.131-1.514-5.626c-.93-3.45-3.54-7.294-6.747-9.938-4.902-4.041-22.428-13.635-24.906-13.635-.618 0-3.246-1.595-5.842-3.544-2.596-1.948-8.763-5.563-13.704-8.033-12.777-6.386-12.869-6.564-10.938-21.228.899-6.828 1.935-15.084 2.303-18.345 1.89-16.76 3.603-19.979 10.683-20.063 3.608-.043 3.735-.226 1.39-2.007-2.258-1.714-2.418-3.26-1.278-12.343.718-5.711 2.099-11.869 3.07-13.684 1.598-2.985 2.497-3.204 9.432-2.302 8.98 1.168 11.304 3.534 11.558 11.763l.185 6.018 1.043-6.427c1.307-8.055 3.382-9.418 12.671-8.32 10.9 1.289 12.63 2.024 14.146 6.013 1.117 2.937 2.073 3.438 5.11 2.676 4.699-1.18 16.979 2.347 18.496 5.312 1.597 3.12-4.74 34.42-7.731 38.182-1.637 2.06-18.901 2.637-18.901.632 0-.672 1.047-7.32 2.327-14.772 1.543-8.98 1.85-14.403.914-16.078-1.193-2.132-1.57-1.818-2.412 2.017-.549 2.498-2.294 5.716-3.879 7.15-2.783 2.518-2.88 2.476-2.88-1.241 0-2.117-.712-4.29-1.582-4.827-2.759-1.704-3.107.323-.944 5.499 2.494 5.969 1.19 10.644-3.692 13.23-1.881.998-4.567 3.121-5.97 4.72-2.57 2.932-3.826 2.95-15.113.205-3.852-.937-4.187-.746-3.094 1.763 1.344 3.082 1.598 7.526.625 10.925-.511 1.784 1.04 2.097 8.538 1.723 9.371-.468 11.115.21 31.893 12.405 9.03 5.3 20.447 13.577 20.45 14.826 0 .816-1.322 3.484-2.942 5.93-3.924 5.924-3.728 7.185.934 6.015 2.9-.728 4.802-.132 7.413 2.322 1.933 1.815 3.514 4.185 3.514 5.266 0 1.08.543 1.965 1.208 1.965s2.321 2.335 3.682 5.19c1.361 2.853 3.153 5.188 3.981 5.188 2.025 0 2.106.28-2.941-10.139-4.776-9.86-5.366-12.84-2.848-14.396 2.973-1.837-24.2-24.412-36.142-30.025-3.705-1.742-7.113-3.774-7.571-4.516-1.039-1.68 5.458-3.047 19.874-4.18l11.12-.876-.175-6.285c-.097-3.456 1.404-11.13 3.335-17.054s3.511-11.934 3.511-13.359c0-5.037 3.68-6.302 9.877-3.393 5.148 2.416 5.735 3.278 6.15 9.04.4 5.54.835 6.251 3.336 5.457 2.22-.704 2.876-.206 2.876 2.18 0 2.56-.64 2.933-3.706 2.164-2.918-.733-3.707-.367-3.707 1.72 0 3.04 2.173 10.184 6.14 20.185 3.136 7.904 3.466 16.097 1.153 28.606-1.48 8.008-1.32 9.244 2.101 16.21 6.384 13.002 12.663 27.308 13.134 29.924.606 3.365-1.222 3.638-9.373 1.4m-19.945-76.696c1.251-1.786 2.012-3.51 1.69-3.83-.63-.631-6.76 5.113-6.76 6.335 0 1.907 3.028.411 5.07-2.505m-63.174-34.93c-.275-1.428-1.483-2.595-2.683-2.595-1.201 0-2.409 1.167-2.683 2.594-.351 1.82.45 2.595 2.683 2.595s3.033-.774 2.683-2.595m254.08 109.725c.547-4.74 5.658-6.792 5.658-2.271 0 2.896-2.629 6.335-4.843 6.335-.706 0-1.073-1.829-.815-4.064m-62.245-28.85c-3.902-3.9-1.94-5.633 6.375-5.633 4.485 0 8.154.343 8.154.763 0 1.094-9.338 6.637-11.193 6.644-.857.003-2.358-.795-3.336-1.774m-283.103-12.94c-2.746-4.489-2.306-6.378 1.225-5.258 4.597 1.46 31.021-10.953 31.021-14.572 0-1.803.882-2.561 2.595-2.231 1.836.353 2.595 1.907 2.595 5.313 0 4.655-.49 5.04-14.827 11.628-18.623 8.56-20.276 8.934-22.61 5.12m-25.064-2.392c-.482-1.259-.628-2.531-.324-2.828 1.672-1.63 23.847-14.158 25.06-14.158.792 0 1.437 1.5 1.434 3.335 0 2.558-2.476 4.807-10.593 9.637-11.467 6.825-14.225 7.536-15.577 4.014m243.83-8.875c-.432-.43-7.361-3.016-15.4-5.745-15.886-5.393-19.227-8.116-15.064-12.279 2.351-2.351 2.703-2.363 4.422-.144 2.954 3.812 26.99 11.63 32.42 10.544l4.588-.918-2.411 4.663c-2.155 4.166-6.361 6.074-8.555 3.88m-231.534-11.818c-1.591-4.147.558-5.955 15.523-13.055 17.286-8.202 23.263-9.818 25.171-6.805 2.6 4.106 1.575 6.152-2.563 5.113-2.719-.682-7.596.475-15.938 3.78-12.749 5.052-17.209 7.954-17.209 11.197 0 2.715-3.923 2.534-4.984-.23m243.343-1.244c-10.768-4.92-9.135-9.972 2.164-6.693 9.416 2.733 13.447 5.615 11.365 8.125-2.249 2.71-5.135 2.404-13.529-1.432m-207.212-2.423c-1.43-.905-1.692-1.868-.741-2.728 2.64-2.388 25.758-9.841 26.92-8.68 2.405 2.405-2.26 5.985-12.162 9.334-11.857 4.01-11.125 3.902-14.017 2.074m73.38-7.448c-.56-.904.323-2.777 1.96-4.16 8.025-6.784 9.288-7.705 10.562-7.705.77 0 .576 2.76-.444 6.3-1.584 5.5-2.405 6.36-6.439 6.756-2.542.25-5.08-.286-5.64-1.19m94.884-1.53c-2.446-.672-8.327-1.996-13.068-2.941-4.974-.992-8.978-2.648-9.464-3.915-1.543-4.022 1.586-5.067 10.019-3.345 4.436.906 10.62 2.167 13.744 2.803 6.79 1.382 8.831 3.125 7.554 6.452-1.03 2.685-2.057 2.796-8.785.946m40.275-2.016c-3.115-4.754-29.655-13.398-33.998-11.073-4.376 2.341-6.195-.552-2.903-4.617 3.06-3.78.916-4.113 24.795 3.847 15.828 5.276 17.05 6.004 17.05 10.16 0 5.045-2.241 5.808-4.944 1.683" style="fill:#000;stroke-width:1.48261"/></svg>