<?xml version="1.0" encoding="UTF-8" standalone="no"?>
<svg
   xml:space="preserve"
   width="872"
   height="1209"
   viewBox="0 0 872 1209"
   version="1.1"
   id="svg1"
   sodipodi:docname="rustic.svg"
   inkscape:version="1.4.2 (f4327f4, 2025-05-13)"
   xmlns:inkscape="http://www.inkscape.org/namespaces/inkscape"
   xmlns:sodipodi="http://sodipodi.sourceforge.net/DTD/sodipodi-0.dtd"
   xmlns="http://www.w3.org/2000/svg"
   xmlns:svg="http://www.w3.org/2000/svg"><defs
     id="defs1" /><sodipodi:namedview
     id="namedview1"
     pagecolor="#ffffff"
     bordercolor="#000000"
     borderopacity="0.25"
     inkscape:showpageshadow="2"
     inkscape:pageopacity="0.0"
     inkscape:pagecheckerboard="0"
     inkscape:deskcolor="#d1d1d1"
     inkscape:zoom="0.32817773"
     inkscape:cx="-1273.7001"
     inkscape:cy="763.30591"
     inkscape:window-width="3440"
     inkscape:window-height="1369"
     inkscape:window-x="1737"
     inkscape:window-y="1432"
     inkscape:window-maximized="1"
     inkscape:current-layer="svg1" /><circle
     cx="438.49899"
     cy="780.88"
     r="417.83801"
     style="fill:none;stroke:#000000;stroke-width:18;stroke-dasharray:none;stroke-opacity:1"
     id="circle1" /><path
     style="fill:#000000;stroke-width:2.4781"
     d="m 95.136139,520.6992 c -3.25171,-7.83697 -6.12154,-15.92176 -6.37738,-17.96619 -0.25584,-2.04443 -2.71084,-10.408 -5.45555,-18.58572 -9.01363,-26.85562 -11.63246,-49.80405 -11.59464,-101.60193 0.0377,-51.58518 2.27457,-70.93636 11.74464,-101.60193 2.94633,-9.54066 5.50117,-18.46181 5.67744,-19.82476 0.68304,-5.28151 15.904101,-40.4142 22.012181,-50.80769 2.80563,-4.77404 7.88899,-14.03984 11.29638,-20.59067 3.40738,-6.55083 10.09824,-16.82656 14.86857,-22.83497 4.77033,-6.0084 12.57634,-16.06344 17.34667,-22.34452 11.1866,-14.72937 46.51773,-48.386637 61.47529,-58.562811 6.39569,-4.351231 12.18611,-8.677024 12.86759,-9.612872 3.53919,-4.860258 53.86691,-31.99676 73.10382,-39.417295 2.72591,-1.051503 7.74405,-3.132214 11.15143,-4.623802 3.40738,-1.491586 20.84089,-6.49868 38.74112,-11.126873 l 32.54587,-8.414897 59.14367,0.522472 c 45.64249,0.403201 62.67927,1.453296 74.63177,4.600074 8.51846,2.242684 22.05376,5.70817 30.07846,7.701079 8.02469,1.992912 20.77737,6.453484 28.3393,9.912383 7.56194,3.458901 15.42732,6.288909 17.47866,6.288909 2.05132,0 4.33203,0.974639 5.06825,2.165865 0.73622,1.191225 7.21411,4.954298 14.39531,8.362383 41.06009,19.486491 99.62745,69.739455 128.55731,110.306975 8.0297,11.25979 14.59943,21.09516 14.59943,21.85637 0,0.76122 3.34543,6.24644 7.43429,12.1894 4.08886,5.94295 7.43433,12.10501 7.43433,13.69347 0,1.58846 2.3637,6.20766 5.2527,10.26489 2.889,4.05723 6.6709,12.03537 8.4043,17.72921 3.0828,10.12638 6.8585,19.98477 11.6538,30.42782 1.315,2.86374 2.7798,8.43945 3.2552,12.39048 1.302,10.82126 3.6408,20.72121 8.1368,34.44273 3.251,9.92194 4.0598,23.00517 4.0597,65.66953 -10e-5,48.13605 -0.5673,55.43196 -5.8761,75.58193 -3.2318,12.26657 -6.165,24.7498 -6.5183,27.74049 -0.7955,6.73408 -15.626,45.78357 -18.5446,48.82883 -1.2324,1.28595 -8.73,-4.51658 -17.74961,-13.73688 -8.58871,-8.7798 -20.80946,-20.14643 -27.1572,-25.25918 -6.34774,-5.11276 -15.62707,-13.14925 -20.62073,-17.85887 -4.99366,-4.70962 -10.1622,-8.56296 -11.48563,-8.56296 -1.32343,0 -3.7531,-1.13086 -5.39928,-2.51299 -4.40811,-3.70114 -21.54359,-14.84977 -31.49112,-20.48865 -39.42675,-22.34952 -71.08869,-34.55826 -132.57812,-51.1217 -19.11997,-5.15035 -51.24668,-7.8996 -92.56734,-7.92151 -45.88843,-0.0248 -76.13461,3.07651 -104.44128,10.70718 -10.22214,2.75562 -22.08256,5.84843 -26.35646,6.87293 -19.19096,4.60026 -67.00734,25.36009 -98.7878,42.88944 -12.25651,6.7604 -43.36016,27.62304 -49.80162,33.40422 -2.62207,2.35327 -10.33155,8.72108 -17.13222,14.15067 -6.80064,5.42958 -19.1338,16.85979 -27.40699,25.40048 -8.27323,8.54068 -15.59523,15.52851 -16.27116,15.52851 -0.67592,0 -3.889441,-6.41207 -7.141151,-14.24905 z m 80.582131,-78.66987 c 64.24039,-43.06993 137.9287,-69.96896 214.64239,-78.35264 31.66588,-3.46061 102.53761,-1.50524 129.85678,3.58279 88.29082,16.44365 167.02619,53.01829 229.71369,106.70794 10.51567,9.00632 20.23022,16.37511 21.58782,16.37511 2.4524,0 3.7126,-3.80871 11.4784,-34.69334 6.1508,-24.46171 7.7094,-101.25678 2.6469,-130.41805 C 777.87305,280.46768 756.3515,226.84059 730.62661,188.13917 680.72951,113.07228 592.73317,55.148062 504.06596,39.003992 480.12894,34.645661 402.28452,34.583085 379.11038,38.903543 311.02777,51.596492 246.25231,86.206631 195.39405,137.06489 154.63054,177.82839 127.96318,220.88214 109.68427,275.441 89.722959,335.02153 87.805559,420.16087 105.15972,476.34706 l 5.05164,16.35536 19.12392,-16.19864 c 10.51817,-8.90925 31.39051,-24.42275 46.38299,-34.47445 z"
     id="path1" /><path
     style="fill:#000000;stroke-width:2.61861"
     d="m 227.69678,389.66283 c 0.0267,-1.08016 1.18226,-3.73154 2.57842,-5.89189 2.05284,-3.1763 2.54619,-2.80046 2.5786,1.96396 0.0267,3.24056 -1.13826,5.89191 -2.5786,5.89191 -1.44015,0 -2.6005,-0.88379 -2.57842,-1.96398 z m 419.21537,-1.63204 c -3.03704,-3.65959 -1.40169,-12.11574 2.34314,-12.11574 2.37235,0 5.23734,6.5636 5.23734,11.99799 0,4.71769 -3.71508,4.77538 -7.58048,0.11791 z m -409.54928,-6.9148 c -1.05402,-4.03027 1.31816,-7.12931 10.06131,-13.14468 10.79242,-7.42536 11.92802,-7.66761 20.05867,-4.27762 l 8.6183,3.5935 -9.97171,4.2438 c -5.48438,2.33408 -13.32579,6.63211 -17.4254,9.55116 -9.2023,6.5527 -9.63617,6.55398 -11.34117,0.0339 z m 389.05656,-3.60894 c -13.89144,-6.9378 -16.67557,-13.78864 -8.24018,-20.27586 8.22202,-6.32303 9.96887,-6.06543 19.85296,2.92793 7.6877,6.99516 8.17553,8.34875 5.63576,15.63498 -3.174,9.1051 -2.56827,9.04495 -17.24854,1.71295 z M 236.92029,364.98079 c 1.03638,-3.34775 4.49197,-11.26588 7.67915,-17.5959 l 5.79499,-11.5091 2.71947,10.71428 c 2.70399,10.65275 2.66,10.75377 -7.67914,17.59587 l -10.39882,6.8816 z m 367.81848,0.30525 c 0,-1.52525 1.17834,-2.04493 2.6185,-1.1548 1.44032,0.89013 2.61866,2.13806 2.61866,2.77318 0,0.63513 -1.17834,1.15476 -2.61866,1.15476 -1.44016,0 -2.6185,-1.24793 -2.6185,-2.77314 z M 266.6153,358.88045 c -4.88487,-2.65445 -7.76305,-7.28866 -9.96976,-16.05222 -2.93178,-11.6433 -2.74815,-12.6746 3.34249,-18.76513 l 6.44471,-6.44472 12.03542,8.64324 c 11.09199,7.96573 12.03541,9.52495 12.03541,19.89104 0,15.76854 -9.23632,20.68978 -23.88827,12.72779 z m 310.75307,-2.69693 c -8.57288,-3.13731 -16.0148,-6.98815 -16.53808,-8.55746 -0.89942,-2.69868 17.26048,-13.60902 22.65205,-13.60902 1.38602,0 3.94306,4.41894 5.68297,9.81985 1.73955,5.40091 4.24495,11.18792 5.56737,12.86 4.32206,5.46458 -1.50017,5.29245 -17.36431,-0.51337 z m 18.44184,-8.25829 c -3.30437,-9.69757 -3.4937,-12.71613 -0.90086,-14.36234 2.10734,-1.33787 0.79845,-2.09864 -3.65469,-2.12436 -6.36066,-0.0367 -7.03425,-1.07454 -8.09789,-12.47857 -1.63108,-17.48561 3.67857,-23.10077 18.15758,-19.20197 7.06577,1.90258 11.40849,4.96217 13.47236,9.49137 5.30289,11.63881 3.83121,15.75226 -6.77473,18.9352 l -9.8198,2.94703 12.43847,-1.33634 12.43846,-1.33633 v 10.14248 c 0,8.20216 -1.48272,11.23865 -7.74986,15.87219 -11.36254,8.40057 -14.80957,7.24342 -19.50904,-6.54836 z m 39.31712,4.70866 c -5.56702,-5.81062 -6.9899,-9.51598 -6.27481,-16.33911 l 0.9249,-8.82429 7.15446,15.45964 c 3.93469,8.50278 6.75836,15.85538 6.27444,16.33909 -0.48372,0.48372 -4.11902,-2.5022 -8.07899,-6.63533 z M 295.74092,347.6339 c 0,-5.47292 1.41397,-11.36483 3.1423,-13.09313 3.96888,-3.9687 28.28122,-4.20349 28.28122,-0.2731 0,6.45178 -9.39075,18.10244 -16.62304,20.62365 -12.91169,4.50104 -14.80048,3.57484 -14.80048,-7.25742 z m 32.53542,-5.37926 c 4.69198,-9.07353 9.52877,-10.41984 14.76558,-4.11006 2.83881,3.42067 2.78146,4.53491 -0.33412,6.50648 -2.06762,1.30839 -5.13618,2.39698 -6.81873,2.41903 -1.68238,0.021 -5.04215,0.80106 -7.46597,1.73113 -4.10584,1.57562 -4.11581,1.12877 -0.14605,-6.54658 z m 204.45013,0.86643 c -7.20113,-1.99958 -17.44231,-3.68764 -22.75838,-3.75118 -12.8953,-0.15424 -13.76908,-2.86401 -3.1553,-9.78583 8.79214,-5.73379 8.81066,-5.73451 12.49742,-0.47098 2.03075,2.89925 4.11262,4.1935 4.62645,2.87614 0.51364,-1.31739 5.27884,-3.0815 10.58902,-3.92027 8.68741,-1.37216 10.32775,-0.64313 16.36656,7.2741 3.69122,4.83948 6.71116,9.46688 6.71116,10.2831 0,2.45798 -10.98798,1.3515 -24.87693,-2.50508 z m -183.13849,-4.13395 c 3.53644,-5.72241 19.24508,-10.51435 24.77131,-7.55669 7.76981,4.15819 6.28798,6.9551 -4.64229,8.76173 -15.08083,2.49275 -22.15264,2.06937 -20.12902,-1.20504 z m 203.45808,-7.22939 c -4.89485,-6.62019 -5.21294,-8.79498 -2.72339,-18.60305 l 2.81885,-11.10649 10.49179,1.67767 c 14.38657,2.30048 14.9191,2.86645 14.9191,15.85152 0,10.21549 -0.88215,11.87763 -8.25799,15.5572 -10.77069,5.37307 -10.78103,5.37112 -17.24836,-3.37685 z m -161.45034,1.81432 c 1.30265,-2.10792 0.41889,-2.49783 -2.83311,-1.24991 -2.72839,1.04701 -7.33791,0.10259 -10.90392,-2.23398 -5.0881,-3.33374 -6.17773,-6.29181 -6.17773,-16.77006 0,-12.68368 0.0339,-12.7337 11.3376,-16.45481 16.61288,-5.46916 24.22755,-2.17271 26.40257,11.42977 0.94217,5.89127 1.37924,10.92405 0.97156,11.18389 -0.40804,0.25976 -4.14111,3.0485 -8.29611,6.19698 -7.96661,6.03709 -5.1718,7.99285 3.59682,2.51678 3.83905,-2.3975 5.88903,-2.45513 8.11587,-0.22808 5.08221,5.08217 -0.0267,8.67315 -12.32305,8.67315 -8.33031,0 -11.22897,-0.89793 -9.8905,-3.06364 z m 31.14852,0.44499 c -1.00469,-1.62579 3.90067,-2.61861 12.93858,-2.61861 8.00616,0 14.55702,1.17837 14.55702,2.61861 0,1.44026 -5.82224,2.61864 -12.93858,2.61864 -7.11617,0 -13.66703,-1.17838 -14.55702,-2.61864 z m 35.35144,0.0923 c 0,-1.38957 2.50414,-3.86662 5.56452,-5.50457 4.23729,-2.26772 7.04813,-2.18413 11.78393,0.35038 9.41817,5.04045 7.5055,7.68069 -5.5647,7.68069 -6.48105,0 -11.78375,-1.13693 -11.78375,-2.5265 z m 23.79263,-4.85915 c -7.26204,-6.13872 -8.07794,-8.10401 -6.51881,-15.70467 0.98011,-4.77836 4.38245,-10.39171 7.56072,-12.47415 5.04712,-3.30709 6.94768,-3.29776 15.01653,0.0736 8.3791,3.50105 12.37239,9.50629 12.48549,18.77655 0.0267,1.6089 -4.52707,5.94484 -10.1037,9.63542 l -10.13984,6.71011 z m -141.6307,2.85835 c -6.02011,-2.29163 -7.77212,-6.29711 -7.81594,-17.86837 -0.0392,-10.37367 0.25398,-10.71774 13.07608,-15.3284 18.19908,-6.54424 20.92604,-4.86334 20.92604,12.89856 0,14.20561 -0.25665,14.72536 -9.0812,18.41257 -9.71008,4.05716 -11.02092,4.20163 -17.10498,1.88564 z m -59.59663,-9.154 c -12.39572,-9.15533 -12.77526,-14.05752 -1.95469,-25.25588 5.05514,-5.23189 7.16764,-5.81595 13.47859,-3.72624 5.95386,1.9714 7.65921,4.27473 8.34028,11.26566 1.19205,12.23272 -1.78301,26.1809 -5.55757,26.05676 -1.7351,-0.057 -8.17304,-3.81019 -14.30661,-8.3403 z m 24.20512,-9.23167 c 1.0298,-8.2814 2.4135,-15.94089 3.0748,-17.02108 2.11161,-3.44967 7.84266,-2.12131 14.94225,3.46336 5.59783,4.40317 6.89996,7.61512 6.89996,17.02105 v 11.59377 h -13.39489 -13.39471 z m 111.42381,9.99195 c -4.30817,-8.04989 -3.39432,-25.53576 1.43125,-27.38755 11.23786,-4.31237 16.07679,-1.78744 21.72181,11.33443 8.36681,19.44916 7.77854,21.11823 -7.44139,21.11823 -10.17368,0 -13.59062,-1.1015 -15.71167,-5.06511 z m 31.84171,-2.13612 c -5.95243,-15.62326 -8.66176,-26.86312 -7.08874,-29.40833 1.01449,-1.6413 -2.32088,-2.66983 -8.65713,-2.66983 h -10.30744 l 1.19419,-12.43847 c 1.6879,-17.58198 2.08204,-18.27947 11.49593,-20.34714 6.96193,-1.5291 9.23223,-0.81921 12.8905,4.03079 3.83281,5.08124 4.00539,7.35989 1.26187,16.65219 l -3.17881,10.76541 13.37814,8.12106 c 15.35404,9.32062 16.80506,16.51523 5.36469,26.60364 -8.81137,7.77039 -13.02229,7.43325 -16.3532,-1.30932 z m 69.088,-1.15705 c -6.58417,-9.39992 -5.01632,-15.90399 5.47173,-22.70146 9.06499,-5.87504 9.96708,-5.9791 18.12195,-2.09036 8.34278,3.97843 8.50717,4.3696 5.89615,14.03868 -3.32306,12.30583 -3.88677,12.8412 -15.74212,14.94613 -8.09912,1.43798 -10.26683,0.7768 -13.74771,-4.19299 z m 50.85829,-19.82323 c -15.55495,-1.40052 -16.39773,-2.17552 -11.87548,-10.92079 2.21099,-4.27508 4.01964,-9.96294 4.01964,-12.63967 0,-2.67674 1.47293,-6.87477 3.27321,-9.32894 3.04505,-4.15081 3.86683,-4.04871 11.7784,1.46347 8.0897,5.63617 15.29064,20.95914 12.19999,25.96014 -2.55171,4.12845 -10.22659,6.29132 -19.39576,5.46579 z M 322.5745,294.87958 c -5.45035,-4.54658 -5.64966,-5.66587 -2.61867,-14.70402 2.90809,-8.67186 4.70624,-10.1421 15.83385,-12.94635 11.65517,-2.93723 12.82566,-2.77409 16.36639,2.2807 2.09717,2.99431 3.81321,8.75904 3.81321,12.81049 0,6.25605 -1.80865,8.14157 -12.00086,12.51045 -14.44677,6.19261 -14.03018,6.19166 -21.39392,0.0486 z m 139.4491,-1.5011 c -11.21756,-6.8896 -11.21953,-6.89337 -8.15826,-17.31657 1.57106,-5.34939 4.17619,-7.24787 11.63789,-8.48169 20.94848,-3.46392 21.39729,-3.19826 21.39729,12.66301 0,11.46814 -1.0061,14.84867 -5.06511,17.02107 -6.86557,3.67435 -7.80098,3.49088 -19.81181,-3.88582 z m 34.4155,2.33283 c -6.43136,-3.48463 -7.25883,-5.1709 -5.89189,-12.0063 0.87486,-4.37372 1.59066,-9.94471 1.59066,-12.37998 0,-5.03705 19.45579,-16.99994 24.49989,-15.06435 1.822,0.69916 4.7894,6.40198 6.59431,12.67294 1.80509,6.27095 3.83655,13.34252 4.51513,15.7146 0.81127,2.83726 -1.81542,6.19704 -7.67737,9.81986 -10.4998,6.48923 -13.64299,6.6546 -23.63073,1.24323 z m -130.8828,-3.16464 c -2.14848,-2.39551 -4.71764,-8.7259 -5.70879,-14.06758 -1.58459,-8.54008 -0.90032,-10.50523 5.67031,-16.28367 14.40973,-12.67244 24.18482,-8.15867 26.27916,12.13503 l 1.49198,14.45332 -11.91306,4.05915 c -10.93633,3.7264 -12.23311,3.70212 -15.8196,-0.29625 z m 230.65019,1.86461 c -2.50842,-1.40379 -4.5609,-4.52324 -4.5609,-6.93208 0,-3.6787 0.91991,-3.45993 5.74636,1.36668 6.42815,6.42814 5.78128,9.4643 -1.18546,5.5654 z m -190.48334,-1.49075 c -7.15643,-2.55768 -10.47451,-9.51064 -10.47451,-21.9497 0,-10.31075 1.08465,-13.00208 6.73039,-16.70133 5.99625,-3.92882 7.373,-3.98867 12.62334,-0.54854 5.32818,3.49101 5.78038,5.4547 4.71585,20.47513 -1.32831,18.74536 -3.8435,22.20951 -13.59507,18.72444 z m 134.47303,-2.01852 c -6.97102,-2.99538 -8.68759,-5.61794 -11.12922,-17.00289 -1.58798,-7.40367 -2.88708,-13.89477 -2.88708,-14.42465 0,-0.5299 6.04202,-2.25923 13.42659,-3.84295 21.49277,-4.60935 25.81127,3.18695 14.68988,26.52073 l -5.85803,12.29143 z m -248.17035,-1.05882 c -4.5666,-1.84541 -4.12775,-2.8481 4.81524,-11.00634 18.47621,-16.85476 23.95346,-16.59769 18.91559,0.88778 -2.7656,9.59857 -4.23408,11.15656 -10.95005,11.61707 -4.26595,0.29252 -10.0173,-0.38183 -12.78078,-1.49851 z M 319.3086,263.7325 c 0,-1.21018 4.41895,-5.34852 9.8198,-9.19621 9.07567,-6.46559 10.06789,-6.65784 13.09317,-2.53637 4.98996,6.79826 4.1974,7.84131 -8.36076,11.00351 -13.9422,3.51065 -14.55221,3.54122 -14.55221,0.72907 z m 32.06452,-3.6915 c -7.24494,-9.05562 -5.99073,-13.65348 4.98586,-18.27853 5.91378,-2.4919 11.7809,-3.89533 13.03725,-3.11872 4.75254,2.93715 2.11071,13.95289 -4.61504,19.24323 -8.0229,6.31086 -9.84776,6.60403 -13.40807,2.15402 z m 97.81341,-3.24977 c -3.83103,-5.84715 -3.87413,-7.47944 -0.4173,-15.7531 3.63138,-8.69171 13.95378,-15.86874 17.4701,-12.14703 0.87859,0.9297 4.94009,7.95867 9.02563,15.61991 8.59728,16.12104 7.0907,18.69628 -10.97623,18.76319 -8.67441,0.0322 -11.67796,-1.25719 -15.1022,-6.48297 z m 28.54892,-15.11931 c -8.44412,-17.38458 -12.36634,-22.57789 -20.23339,-26.79034 l -9.75907,-5.22541 -5.95278,5.99586 -5.95279,5.99586 6.09402,4.63049 c 5.30253,4.02908 5.79268,5.7996 3.77368,13.632 -1.87223,7.26404 -4.21965,9.63132 -12.16133,12.26465 -8.54493,2.83337 -10.68431,2.6609 -16.24189,-1.30932 -5.08933,-3.63578 -6.2805,-6.5851 -5.81458,-14.39708 0.78241,-13.12264 -4.79689,-18.90469 -14.63343,-15.16487 -8.31677,3.16201 -6.82264,7.9684 2.47726,7.9684 5.51786,0 6.392,1.21198 6.392,8.86401 0,12.27869 -10.07752,19.2067 -21.22295,14.59014 -8.95064,-3.70747 -13.21927,-15.01007 -6.98614,-18.49831 2.17501,-1.2172 5.4142,-5.73697 7.19827,-10.04397 1.78408,-4.30696 5.38445,-8.51027 8.00099,-9.34071 7.7739,-2.46732 30.873,-26.00489 32.71211,-33.33319 1.95826,-7.80134 -5.34742,-25.55948 -10.51476,-25.55948 -1.82005,0 -4.77587,1.76756 -6.56885,3.92793 -4.34771,5.23851 -21.67355,5.03491 -32.20825,-0.37847 -23.63483,-12.14502 -59.3635,-41.16461 -55.47102,-45.05468 2.9804,-2.97853 64.96453,-1.44347 76.66955,1.89874 12.87643,3.67673 21.45858,14.89518 21.47443,28.07145 0,4.7037 2.15542,10.04665 5.12335,12.73242 4.94775,4.47766 5.16575,4.38467 6.72808,-2.86742 0.88803,-4.12234 3.4237,-12.57025 5.63451,-18.77312 3.28123,-9.20596 3.46806,-13.46771 1.0184,-23.19713 -2.57307,-10.21865 -2.33191,-13.2061 1.69057,-20.939235 3.84083,-7.38386 8.95475,-10.94468 28.19235,-19.63018 26.24157,-11.847626 63.5217,-22.284624 67.0382,-18.768092 3.56173,3.561824 -17.65764,36.093242 -37.03737,56.781827 l -17.48293,18.66388 -16.69142,1.32757 -16.69143,1.32755 -5.74707,16.15691 c -8.44145,23.73066 -5.85002,30.33206 23.08057,58.798 17.47561,17.19516 25.73397,23.47448 32.55608,24.75429 8.81814,1.65432 16.86846,9.28167 16.86846,15.98261 0,2.6625 -20.14861,16.64097 -23.79779,16.51009 -0.59345,-0.021 -5.79268,-9.74294 -11.55364,-21.60367 z m -47.13537,-28.11153 c 0,-8.42188 -0.68873,-9.23161 -8.49167,-9.98434 -6.98883,-0.67416 -9.03667,0.37646 -11.5695,5.93589 -2.63042,5.77316 -2.34777,7.31711 1.94508,10.62208 2.76258,2.12687 7.96894,3.58004 11.5695,3.2293 5.61474,-0.54694 6.54659,-1.94251 6.54659,-9.80293 z m -34.3765,-68.72997 c 11.08132,0.55991 12.33,0.12823 9.49903,-3.28273 -1.79262,-2.16009 -4.87276,-3.92742 -6.84455,-3.92742 -1.97181,0 -5.05675,-2.35677 -6.85578,-5.23726 -3.95803,-6.33817 -7.74221,-6.9533 -5.41171,-0.87972 1.84463,4.80667 -1.70446,3.45862 -10.79705,-4.10116 -2.76793,-2.30138 -4.17157,-2.71132 -3.11879,-0.91103 2.71858,4.64957 -1.04886,4.05311 -6.69958,-1.0605 -2.95031,-2.6703 -4.78852,-3.15372 -4.78852,-1.25943 0,2.01299 -2.48617,2.49779 -7.2013,1.40426 -6.96033,-1.61428 -7.02605,-1.53117 -1.96396,2.48546 2.88048,2.28557 7.42535,4.19305 10.09995,4.23884 2.86748,0.0492 4.33257,1.46502 3.57064,3.45071 -0.93933,2.44792 1.129,3.08472 7.57568,2.33212 5.37127,-0.62706 8.86782,0.11024 8.86782,1.86985 0,1.5978 -1.69787,2.90511 -3.77332,2.90511 -2.07527,0 -4.57978,1.30462 -5.56506,2.89918 -1.25368,2.02828 0.0766,2.22777 4.42804,0.6641 3.42067,-1.22928 11.96115,-1.94495 18.97846,-1.59038 z m 73.65585,-36.04306 c 9.68354,-3.33295 11.72943,-4.8335 7.85602,-5.76195 -5.61262,-1.3453 -5.6673,-1.30466 8.51054,-6.29873 3.08549,-1.086865 3.50777,-2.015375 1.29304,-2.842275 -6.02189,-2.24805 -0.4604,-6.01391 9.33588,-6.32179 5.31607,-0.16706 7.60311,-0.84266 5.08275,-1.50133 -6.5945,-1.72332 -5.68456,-4.27071 3.45452,-9.66928 4.42056,-2.61121 7.57692,-5.208023 7.01429,-5.770708 -1.81792,-1.817665 -29.34326,13.169178 -32.87561,17.899738 -5.10554,6.83766 -8.71091,5.57462 -6.72077,-2.35452 2.57361,-10.25373 -3.21033,-5.48689 -6.8971,5.68436 -1.66082,5.031875 -5.25479,10.345185 -7.9871,11.807385 -2.73195,1.46218 -6.30989,5.16697 -7.95058,8.23283 -2.64183,4.93595 -2.42365,5.33544 1.90393,3.48858 2.68778,-1.14713 10.77907,-4.11367 17.98019,-6.59231 z m 48.9857,143.54588 c -4.14397,-4.14377 -4.06631,-12.62709 0.11221,-12.44025 6.05768,0.27076 26.38101,9.49497 23.98035,10.88397 -6.11273,3.53636 -21.14315,4.5072 -24.09399,1.55628 z m -69.93471,-25.67971 c -0.88999,-1.44025 0.28835,-2.61863 2.61867,-2.61863 2.33032,0 3.50866,1.17838 2.61867,2.61863 -0.89016,1.44025 -2.0685,2.61863 -2.61867,2.61863 -0.55016,0 -1.7285,-1.17838 -2.61867,-2.61863 z"
     id="path8" /></svg>
