<?xml version="1.0" encoding="UTF-8" standalone="no"?>
<svg
   xml:space="preserve"
   width="872"
   height="889"
   viewBox="0 0 872 889"
   version="1.1"
   id="svg2"
   sodipodi:docname="rustic_no_circle.svg"
   inkscape:version="1.4.2 (f4327f4, 2025-05-13)"
   xmlns:inkscape="http://www.inkscape.org/namespaces/inkscape"
   xmlns:sodipodi="http://sodipodi.sourceforge.net/DTD/sodipodi-0.dtd"
   xmlns="http://www.w3.org/2000/svg"
   xmlns:svg="http://www.w3.org/2000/svg"><defs
     id="defs2" /><sodipodi:namedview
     id="namedview2"
     pagecolor="#ffffff"
     bordercolor="#000000"
     borderopacity="0.25"
     inkscape:showpageshadow="2"
     inkscape:pageopacity="0.0"
     inkscape:pagecheckerboard="0"
     inkscape:deskcolor="#d1d1d1"
     inkscape:zoom="0.96526055"
     inkscape:cx="436.15167"
     inkscape:cy="604.5"
     inkscape:window-width="3440"
     inkscape:window-height="1369"
     inkscape:window-x="1737"
     inkscape:window-y="1432"
     inkscape:window-maximized="1"
     inkscape:current-layer="svg2" /><path
     d="m 95.136,520.7 c -3.252,-7.838 -6.121,-15.923 -6.377,-17.967 -0.256,-2.044 -2.711,-10.408 -5.456,-18.586 -9.013,-26.855 -11.632,-49.804 -11.594,-101.602 0.037,-51.585 2.274,-70.936 11.744,-101.602 2.947,-9.54 5.501,-18.461 5.678,-19.824 0.683,-5.282 15.904,-40.415 22.012,-50.808 2.805,-4.774 7.889,-14.04 11.296,-20.59 3.408,-6.552 10.098,-16.827 14.869,-22.836 a 1595,1595 0 0 0 17.346,-22.344 c 11.187,-14.73 46.518,-48.387 61.476,-58.563 6.395,-4.351 12.186,-8.677 12.867,-9.613 3.54,-4.86 53.867,-31.997 73.104,-39.417 2.726,-1.052 7.744,-3.132 11.152,-4.624 3.408,-1.492 20.84,-6.499 38.74,-11.127 l 32.547,-8.415 59.143,0.523 c 45.643,0.403 62.68,1.453 74.632,4.6 a 2689,2689 0 0 0 30.078,7.7 c 8.025,1.994 20.778,6.454 28.34,9.913 7.562,3.459 15.427,6.29 17.478,6.29 2.051,0 4.332,0.974 5.069,2.165 0.736,1.191 7.214,4.954 14.395,8.362 41.06,19.487 99.627,69.74 128.557,110.307 8.03,11.26 14.6,21.096 14.6,21.857 0,0.761 3.345,6.246 7.434,12.19 4.089,5.942 7.434,12.104 7.434,13.693 0,1.588 2.364,6.207 5.253,10.265 2.89,4.057 6.671,12.035 8.404,17.729 3.083,10.126 6.859,19.985 11.654,30.428 1.315,2.863 2.78,8.439 3.255,12.39 1.302,10.821 3.641,20.721 8.137,34.443 3.251,9.922 4.06,23.005 4.06,65.67 0,48.135 -0.567,55.431 -5.876,75.581 -3.232,12.267 -6.165,24.75 -6.519,27.74 -0.795,6.735 -15.626,45.784 -18.544,48.83 -1.233,1.286 -8.73,-4.517 -17.75,-13.737 -8.588,-8.78 -20.81,-20.147 -27.157,-25.26 -6.348,-5.112 -15.627,-13.149 -20.62,-17.858 -4.993,-4.709 -10.163,-8.563 -11.486,-8.563 -1.323,0 -3.753,-1.131 -5.4,-2.513 -4.408,-3.701 -21.543,-14.85 -31.49,-20.489 -39.427,-22.35 -71.09,-34.558 -132.579,-51.122 -19.12,-5.15 -51.247,-7.9 -92.567,-7.921 -45.889,-0.025 -76.135,3.076 -104.441,10.707 -10.223,2.756 -22.083,5.848 -26.357,6.873 -19.19,4.6 -67.007,25.36 -98.788,42.89 -12.256,6.76 -43.36,27.622 -49.801,33.404 -2.622,2.353 -10.332,8.72 -17.133,14.15 -6.801,5.43 -19.133,16.86 -27.407,25.4 -8.273,8.541 -15.595,15.53 -16.27,15.53 -0.677,0 -3.89,-6.413 -7.142,-14.25 m 80.582,-78.67 c 64.24,-43.07 137.929,-69.97 214.643,-78.353 31.666,-3.46 102.537,-1.506 129.856,3.582 88.291,16.444 167.027,53.019 229.714,106.708 10.516,9.007 20.23,16.376 21.588,16.376 2.452,0 3.713,-3.81 11.478,-34.694 6.151,-24.462 7.71,-101.257 2.647,-130.418 -7.77,-44.763 -29.293,-98.39 -55.017,-137.092 C 680.73,113.072 592.733,55.15 504.066,39.004 c -23.937,-4.358 -101.781,-4.42 -124.956,-0.1 -68.082,12.692 -132.858,47.303 -183.716,98.16 -40.763,40.764 -67.43,83.818 -85.71,138.377 -19.961,59.58 -21.878,144.72 -4.524,200.906 l 5.051,16.355 19.124,-16.198 c 10.518,-8.91 31.39,-24.423 46.383,-34.475"
     style="fill:#000000;stroke-width:2.4781"
     id="path1" /><path
     d="m 227.697,389.663 c 0.026,-1.08 1.182,-3.732 2.578,-5.892 2.053,-3.176 2.546,-2.8 2.579,1.964 0.026,3.24 -1.138,5.892 -2.579,5.892 -1.44,0 -2.6,-0.884 -2.578,-1.964 m 419.215,-1.632 c -3.037,-3.66 -1.402,-12.116 2.343,-12.116 2.373,0 5.238,6.564 5.238,11.998 0,4.718 -3.715,4.775 -7.58,0.118 z m -409.55,-6.915 c -1.053,-4.03 1.319,-7.13 10.062,-13.145 10.793,-7.425 11.928,-7.667 20.059,-4.277 l 8.618,3.593 -9.972,4.244 c -5.484,2.334 -13.325,6.632 -17.425,9.551 -9.202,6.553 -9.636,6.554 -11.341,0.034 m 389.057,-3.609 c -13.891,-6.938 -16.675,-13.789 -8.24,-20.276 8.222,-6.323 9.97,-6.065 19.853,2.928 7.688,6.995 8.176,8.349 5.636,15.635 -3.174,9.105 -2.568,9.045 -17.249,1.713 m -389.5,-12.526 c 1.037,-3.348 4.492,-11.266 7.68,-17.596 l 5.794,-11.51 2.72,10.715 c 2.704,10.653 2.66,10.754 -7.68,17.596 l -10.398,6.882 z m 367.819,0.305 c 0,-1.525 1.178,-2.045 2.618,-1.155 1.44,0.89 2.619,2.138 2.619,2.773 0,0.635 -1.178,1.155 -2.619,1.155 -1.44,0 -2.618,-1.248 -2.618,-2.773 M 266.615,358.88 c -4.885,-2.654 -7.763,-7.288 -9.97,-16.052 -2.931,-11.643 -2.748,-12.674 3.343,-18.765 l 6.445,-6.445 12.035,8.644 c 11.092,7.965 12.036,9.525 12.036,19.89 0,15.77 -9.237,20.69 -23.889,12.728 m 310.753,-2.696 c -8.573,-3.138 -16.014,-6.989 -16.538,-8.558 -0.9,-2.699 17.26,-13.609 22.652,-13.609 1.386,0 3.943,4.419 5.683,9.82 1.74,5.4 4.245,11.188 5.568,12.86 4.322,5.464 -1.5,5.292 -17.365,-0.513 m 18.442,-8.259 c -3.304,-9.697 -3.493,-12.716 -0.9,-14.362 2.107,-1.338 0.798,-2.099 -3.655,-2.124 -6.361,-0.037 -7.035,-1.075 -8.098,-12.479 -1.631,-17.486 3.678,-23.1 18.157,-19.202 7.066,1.903 11.409,4.962 13.473,9.491 5.303,11.64 3.83,15.753 -6.775,18.936 l -9.82,2.947 12.439,-1.337 12.438,-1.336 V 338.6 c 0,8.203 -1.483,11.239 -7.75,15.873 -11.362,8.4 -14.81,7.243 -19.509,-6.549 m 39.317,4.709 c -5.567,-5.81 -6.99,-9.516 -6.274,-16.34 l 0.924,-8.824 7.155,15.46 c 3.935,8.503 6.758,15.856 6.274,16.34 -0.483,0.483 -4.119,-2.503 -8.079,-6.636 m -339.386,-5 c 0,-5.473 1.414,-11.365 3.142,-13.093 3.97,-3.969 28.281,-4.204 28.281,-0.273 0,6.451 -9.39,18.102 -16.623,20.623 -12.911,4.501 -14.8,3.575 -14.8,-7.257 m 32.535,-5.38 c 4.692,-9.073 9.53,-10.42 14.766,-4.11 2.839,3.421 2.781,4.535 -0.334,6.507 -2.068,1.308 -5.136,2.397 -6.819,2.42 -1.682,0.02 -5.042,0.8 -7.466,1.73 -4.106,1.576 -4.116,1.129 -0.146,-6.546 z m 204.45,0.867 c -7.2,-2 -17.442,-3.688 -22.758,-3.751 -12.895,-0.154 -13.769,-2.864 -3.155,-9.786 8.792,-5.734 8.81,-5.734 12.497,-0.47 2.031,2.898 4.113,4.193 4.627,2.875 0.514,-1.318 5.279,-3.081 10.589,-3.92 8.687,-1.372 10.327,-0.643 16.366,7.274 3.691,4.84 6.711,9.467 6.711,10.283 0,2.458 -10.988,1.352 -24.877,-2.505 m -183.138,-4.134 c 3.536,-5.722 19.245,-10.514 24.771,-7.557 7.77,4.159 6.288,6.956 -4.642,8.762 -15.08,2.493 -22.153,2.07 -20.129,-1.205 m 203.458,-7.23 c -4.895,-6.62 -5.213,-8.794 -2.723,-18.602 l 2.819,-11.107 10.491,1.678 c 14.387,2.3 14.92,2.866 14.92,15.851 0,10.216 -0.883,11.878 -8.259,15.558 -10.77,5.373 -10.78,5.37 -17.248,-3.377 m -161.45,1.815 c 1.302,-2.108 0.419,-2.498 -2.833,-1.25 -2.729,1.047 -7.338,0.103 -10.904,-2.234 -5.088,-3.334 -6.178,-6.292 -6.178,-16.77 0,-12.684 0.034,-12.734 11.338,-16.455 16.612,-5.469 24.227,-2.172 26.402,11.43 0.942,5.891 1.38,10.924 0.972,11.184 -0.408,0.26 -4.141,3.048 -8.296,6.197 -7.967,6.037 -5.172,7.993 3.596,2.517 3.84,-2.398 5.89,-2.455 8.116,-0.228 5.082,5.082 -0.026,8.673 -12.323,8.673 -8.33,0 -11.229,-0.898 -9.89,-3.064 m 31.148,0.445 c -1.004,-1.626 3.9,-2.619 12.939,-2.619 8.006,0 14.557,1.179 14.557,2.619 0,1.44 -5.822,2.619 -12.939,2.619 -7.116,0 -13.667,-1.179 -14.557,-2.619 m 35.352,0.092 c 0,-1.39 2.504,-3.866 5.564,-5.504 4.237,-2.268 7.048,-2.184 11.784,0.35 9.418,5.04 7.506,7.68 -5.565,7.68 -6.48,0 -11.783,-1.136 -11.783,-2.526 m 23.792,-4.859 c -7.262,-6.139 -8.078,-8.104 -6.518,-15.704 0.98,-4.779 4.382,-10.392 7.56,-12.475 5.047,-3.307 6.948,-3.297 15.017,0.074 8.379,3.501 12.372,9.506 12.485,18.777 0.027,1.608 -4.527,5.944 -10.103,9.635 l -10.14,6.71 z m -141.63,2.859 c -6.02,-2.292 -7.773,-6.298 -7.816,-17.869 -0.04,-10.374 0.254,-10.718 13.076,-15.328 18.199,-6.544 20.926,-4.864 20.926,12.898 0,14.206 -0.257,14.726 -9.081,18.413 -9.71,4.057 -11.021,4.202 -17.105,1.886 m -59.597,-9.154 c -12.396,-9.156 -12.775,-14.058 -1.955,-25.256 5.055,-5.232 7.168,-5.816 13.479,-3.727 5.954,1.972 7.66,4.275 8.34,11.266 1.192,12.233 -1.783,26.181 -5.557,26.057 -1.736,-0.057 -8.173,-3.81 -14.307,-8.34 m 24.205,-9.232 c 1.03,-8.282 2.414,-15.941 3.075,-17.021 2.112,-3.45 7.843,-2.122 14.942,3.463 5.598,4.403 6.9,7.615 6.9,17.021 v 11.594 h -26.789 z m 111.424,9.992 c -4.308,-8.05 -3.394,-25.536 1.431,-27.388 11.238,-4.312 16.077,-1.787 21.722,11.335 8.367,19.449 7.779,21.118 -7.441,21.118 -10.174,0 -13.591,-1.102 -15.712,-5.065 m 31.842,-2.136 c -5.953,-15.624 -8.662,-26.863 -7.09,-29.409 1.015,-1.64 -2.32,-2.67 -8.656,-2.67 h -10.308 l 1.195,-12.438 c 1.687,-17.582 2.082,-18.28 11.495,-20.347 6.962,-1.53 9.233,-0.82 12.89,4.03 3.834,5.082 4.006,7.36 1.263,16.653 l -3.179,10.765 13.378,8.121 c 15.354,9.321 16.805,16.516 5.365,26.604 -8.812,7.77 -13.022,7.433 -16.353,-1.31 m 69.088,-1.157 c -6.585,-9.4 -5.017,-15.904 5.471,-22.702 9.065,-5.875 9.967,-5.979 18.122,-2.09 8.343,3.978 8.507,4.37 5.896,14.039 -3.323,12.305 -3.886,12.84 -15.742,14.946 -8.099,1.438 -10.266,0.776 -13.747,-4.193 m 50.858,-19.824 c -15.555,-1.4 -16.398,-2.175 -11.876,-10.92 2.211,-4.275 4.02,-9.963 4.02,-12.64 0,-2.677 1.473,-6.875 3.273,-9.329 3.045,-4.15 3.867,-4.049 11.779,1.463 8.09,5.637 15.29,20.96 12.2,25.96 -2.552,4.13 -10.227,6.292 -19.396,5.466 m -245.503,-5.718 c -5.45,-4.547 -5.65,-5.666 -2.62,-14.704 2.909,-8.672 4.707,-10.143 15.835,-12.947 11.655,-2.937 12.825,-2.774 16.366,2.28 2.097,2.995 3.813,8.76 3.813,12.811 0,6.256 -1.808,8.142 -12,12.51 -14.447,6.193 -14.03,6.193 -21.394,0.05 m 139.449,-1.502 c -11.218,-6.89 -11.22,-6.893 -8.159,-17.316 1.571,-5.35 4.177,-7.248 11.638,-8.482 20.949,-3.464 21.398,-3.198 21.398,12.663 0,11.468 -1.007,14.849 -5.066,17.021 -6.865,3.675 -7.8,3.491 -19.811,-3.886 m 34.415,2.333 c -6.431,-3.484 -7.259,-5.17 -5.892,-12.006 0.875,-4.374 1.59,-9.945 1.59,-12.38 0,-5.037 19.457,-17 24.5,-15.064 1.823,0.699 4.79,6.402 6.595,12.673 1.805,6.27 3.837,13.342 4.515,15.714 0.811,2.837 -1.815,6.197 -7.677,9.82 -10.5,6.49 -13.643,6.655 -23.63,1.243 m -130.883,-3.164 c -2.148,-2.396 -4.717,-8.726 -5.708,-14.068 -1.585,-8.54 -0.9,-10.505 5.67,-16.284 14.41,-12.672 24.185,-8.158 26.279,12.135 l 1.492,14.454 -11.913,4.059 c -10.936,3.726 -12.233,3.702 -15.82,-0.296 m 230.65,1.864 c -2.508,-1.404 -4.56,-4.523 -4.56,-6.932 0,-3.678 0.92,-3.46 5.746,1.367 6.428,6.428 5.781,9.464 -1.186,5.565 m -190.483,-1.49 c -7.156,-2.558 -10.474,-9.511 -10.474,-21.95 0,-10.31 1.084,-13.002 6.73,-16.702 5.996,-3.928 7.373,-3.988 12.623,-0.548 5.329,3.491 5.78,5.455 4.716,20.475 -1.328,18.745 -3.843,22.21 -13.595,18.725 m 134.473,-2.019 c -6.97,-2.995 -8.687,-5.618 -11.129,-17.003 -1.588,-7.404 -2.887,-13.895 -2.887,-14.425 0,-0.53 6.042,-2.259 13.426,-3.842 21.493,-4.61 25.812,3.186 14.69,26.52 l -5.858,12.292 z m -248.17,-1.059 c -4.567,-1.845 -4.128,-2.848 4.815,-11.006 18.476,-16.855 23.954,-16.598 18.916,0.888 -2.766,9.598 -4.234,11.156 -10.95,11.617 -4.266,0.292 -10.018,-0.382 -12.781,-1.499 m 27.283,-26.11 c 0,-1.21 4.419,-5.349 9.82,-9.197 9.075,-6.465 10.067,-6.658 13.093,-2.536 4.99,6.798 4.197,7.841 -8.361,11.003 -13.942,3.511 -14.552,3.542 -14.552,0.73 m 32.064,-3.692 c -7.245,-9.056 -5.99,-13.653 4.986,-18.279 5.914,-2.491 11.78,-3.895 13.037,-3.118 4.753,2.937 2.11,13.953 -4.615,19.243 -8.023,6.31 -9.848,6.604 -13.408,2.154 m 97.814,-3.25 c -3.831,-5.847 -3.875,-7.48 -0.418,-15.753 3.632,-8.692 13.954,-15.869 17.47,-12.147 0.879,0.93 4.94,7.959 9.026,15.62 8.597,16.121 7.09,18.696 -10.976,18.763 -8.675,0.032 -11.678,-1.257 -15.102,-6.483 m 28.548,-15.12 c -8.444,-17.384 -12.366,-22.577 -20.233,-26.79 l -9.759,-5.225 -5.953,5.996 -5.953,5.996 6.094,4.63 c 5.303,4.03 5.793,5.8 3.774,13.632 -1.872,7.264 -4.22,9.632 -12.161,12.265 -8.545,2.833 -10.685,2.66 -16.242,-1.31 -5.09,-3.635 -6.28,-6.584 -5.815,-14.396 0.783,-13.123 -4.797,-18.905 -14.633,-15.165 -8.317,3.162 -6.823,7.968 2.477,7.968 5.518,0 6.392,1.212 6.392,8.864 0,12.279 -10.077,19.207 -21.223,14.59 -8.95,-3.707 -13.22,-15.01 -6.986,-18.498 2.175,-1.217 5.414,-5.737 7.198,-10.044 1.784,-4.307 5.385,-8.51 8.001,-9.34 7.774,-2.468 30.873,-26.006 32.712,-33.334 1.959,-7.801 -5.347,-25.56 -10.514,-25.56 -1.82,0 -4.776,1.768 -6.57,3.929 -4.347,5.238 -21.673,5.034 -32.207,-0.379 -23.635,-12.145 -59.364,-41.165 -55.471,-45.055 2.98,-2.978 64.964,-1.443 76.67,1.9 12.876,3.676 21.458,14.894 21.474,28.07 0,4.704 2.155,10.047 5.123,12.733 4.948,4.478 5.166,4.385 6.728,-2.867 0.888,-4.123 3.424,-12.57 5.634,-18.774 3.282,-9.205 3.469,-13.467 1.019,-23.197 -2.573,-10.218 -2.332,-13.206 1.69,-20.939 3.841,-7.384 8.955,-10.945 28.193,-19.63 26.241,-11.848 63.521,-22.285 67.038,-18.768 3.562,3.562 -17.658,36.093 -37.037,56.782 l -17.483,18.664 -16.692,1.327 -16.691,1.328 -5.747,16.157 c -8.442,23.73 -5.85,30.332 23.08,58.798 17.476,17.195 25.734,23.474 32.556,24.754 8.819,1.654 16.869,9.282 16.869,15.982 0,2.663 -20.149,16.641 -23.798,16.51 -0.593,-0.02 -5.793,-9.742 -11.554,-21.603 m -47.135,-28.11 c 0,-8.422 -0.689,-9.232 -8.492,-9.985 -6.988,-0.674 -9.036,0.377 -11.57,5.936 -2.63,5.773 -2.347,7.317 1.946,10.622 2.763,2.127 7.969,3.58 11.57,3.23 5.614,-0.548 6.546,-1.943 6.546,-9.804 m -34.376,-68.73 c 11.08,0.56 12.33,0.128 9.499,-3.283 -1.793,-2.16 -4.873,-3.928 -6.845,-3.928 -1.972,0 -5.057,-2.356 -6.856,-5.237 -3.958,-6.338 -7.742,-6.953 -5.411,-0.88 1.844,4.807 -1.705,3.459 -10.797,-4.1 -2.768,-2.302 -4.172,-2.712 -3.12,-0.912 2.72,4.65 -1.048,4.053 -6.699,-1.06 -2.95,-2.67 -4.788,-3.154 -4.788,-1.26 0,2.013 -2.487,2.498 -7.202,1.404 -6.96,-1.614 -7.026,-1.53 -1.964,2.486 2.88,2.285 7.426,4.193 10.1,4.239 2.868,0.049 4.333,1.465 3.571,3.45 -0.94,2.448 1.129,3.085 7.576,2.333 5.37,-0.627 8.867,0.11 8.867,1.87 0,1.597 -1.697,2.905 -3.773,2.905 -2.076,0 -4.58,1.304 -5.565,2.899 -1.254,2.028 0.077,2.227 4.428,0.664 3.42,-1.23 11.961,-1.945 18.979,-1.59 m 73.655,-36.044 c 9.684,-3.333 11.73,-4.833 7.856,-5.762 -5.612,-1.345 -5.667,-1.304 8.511,-6.298 3.085,-1.087 3.508,-2.016 1.293,-2.843 -6.022,-2.248 -0.46,-6.014 9.336,-6.321 5.316,-0.167 7.603,-0.843 5.083,-1.502 -6.595,-1.723 -5.685,-4.27 3.454,-9.669 4.42,-2.611 7.577,-5.208 7.014,-5.77 -1.817,-1.818 -29.343,13.168 -32.875,17.899 -5.106,6.838 -8.711,5.575 -6.72,-2.354 2.573,-10.254 -3.211,-5.487 -6.898,5.684 -1.66,5.032 -5.255,10.345 -7.987,11.807 -2.732,1.462 -6.31,5.167 -7.95,8.233 -2.643,4.936 -2.424,5.336 1.903,3.489 2.688,-1.147 10.78,-4.114 17.98,-6.593 m 48.986,143.546 c -4.144,-4.144 -4.066,-12.627 0.112,-12.44 6.058,0.27 26.381,9.495 23.98,10.884 -6.112,3.536 -21.142,4.507 -24.093,1.556 z m -69.935,-25.68 c -0.89,-1.44 0.289,-2.618 2.62,-2.618 2.331,0 3.508,1.178 2.618,2.619 -0.89,1.44 -2.069,2.618 -2.619,2.618 -0.55,0 -1.728,-1.178 -2.619,-2.618"
     style="fill:#000000;stroke-width:2.61861"
     id="path2" /></svg>
