<svg xmlns="http://www.w3.org/2000/svg" xml:space="preserve" width="872" height="889" viewBox="0 0 872 889"><circle cx="438.499" cy="448.88" r="417.838" style="fill:none;stroke:#000;stroke-width:18;stroke-dasharray:none;stroke-opacity:1"/><path d="M276.207 768.935c-7.307-6.364-16.363-14.199-20.123-17.41-87.695-74.875-110.451-94.638-111.191-96.563-1.243-3.233 35.466-39.413 56.455-55.641 9.597-7.42 23.687-18.285 31.312-24.145l41.63-31.992c15.27-11.736 28.766-21.338 29.989-21.338s17.827 15.639 36.9 34.753l34.675 34.753.081 51.694.082 51.694-21.106 42.884-21.106 42.883h-44.312ZM524.261 739.7l-20.438-40.808V589.361l33.83-33.758c18.608-18.566 34.73-33.757 35.829-33.757s13.749 8.976 28.112 19.948a14668 14668 0 0 0 54.692 41.522c15.718 11.865 39.976 32.6 53.907 46.078L735.52 653.9l-73.676 63.304-73.676 63.304h-43.471Zm-133.01-70.36c-3.73-4.122-4.506-11.386-4.506-42.202 0-33.593.53-37.755 5.445-42.669 2.995-2.995 7.896-5.445 10.891-5.445 3.717 0 5.446-1.816 5.446-5.718 0-5.93 16.246-24.233 21.51-24.233 4.58 0 3.562 10.845-1.19 12.668-2.302.883-5.968 5.053-8.146 9.266-3.855 7.453-3.76 7.682 3.504 8.519l7.465.859.745 46.967.745 46.968h-18.7c-14.66 0-19.676-1.076-23.208-4.98m55.394-42.668v-47.648h6.807c3.744 0 6.807-1.132 6.807-2.514 0-1.383-3.063-6.154-6.807-10.604-6.116-7.269-9.148-16.833-5.335-16.833 4.96 0 17.945 13.256 20.466 20.892 1.87 5.668 4.77 9.059 7.749 9.059 2.618 0 7.424 2.835 10.68 6.301 5.438 5.789 5.92 9.124 5.92 40.937 0 45.544-1.44 48.058-27.54 48.058h-18.747Zm-101.754-77.25c-33.216-33.29-34.876-35.472-33.101-43.55 1.363-6.207 15.602-22.26 52.706-59.42 27.96-28.002 54.82-54.478 59.687-58.833l8.848-7.92v161.34l-6.495 2.47c-8.582 3.263-23.426 19.287-23.442 25.304-.008 2.62-1.685 4.765-3.73 4.765s-6.832 2.45-10.64 5.446c-3.807 2.995-7.36 5.445-7.893 5.445-.535 0-16.708-15.77-35.94-35.046m-7.78-43.402c.593-1.778-.862-3.233-3.233-3.233a4.324 4.324 0 0 0-4.31 4.31c0 4.809 5.86 3.972 7.543-1.077m41.466-42.94c0-4.808-5.862-3.97-7.545 1.078-.592 1.778.862 3.233 3.234 3.233a4.324 4.324 0 0 0 4.31-4.311m42.202-44.698q-1.975-3.198-4.699-.475c-1.497 1.498-1.833 4.162-.746 5.92q1.976 3.198 4.698.475c1.498-1.498 1.834-4.162.747-5.92m68.069 160.642c-2.71-2.995-6.428-5.446-8.26-5.446-1.833 0-4.865-3.7-6.738-8.223-3.778-9.121-17.314-21.727-23.33-21.727-3.264 0-3.875-12.664-3.875-80.321 0-44.177.93-80.321 2.066-80.321s28.091 26.047 59.9 57.881c49.558 49.598 57.835 59.05 57.835 66.042 0 6.733-5.836 14.233-33.354 42.864-18.344 19.087-34.695 34.702-36.335 34.7s-5.199-2.454-7.91-5.45m60.012-70.973c2.506-4.055-.4-6.259-5.612-4.259-2.406.924-3.612 2.913-2.68 4.421 2.207 3.571 6.031 3.496 8.292-.162m-42.314-44.905c0-2.158-1.838-3.923-4.085-3.923-4.1 0-5.597 5.747-2.342 9.002 2.54 2.54 6.427-.53 6.427-5.079m-42.394-39.01c.821-1.328-.189-3.81-2.244-5.515-2.851-2.367-4.09-2.18-5.228.786-2.327 6.066 4.123 10.147 7.472 4.729m-155.19 44.616c-6.991-9.166-7.943-9.53-24.945-9.53H266.34l-35.298-26.546-35.299-26.547 27.146-.773 27.146-.772 1.552-8.757c.854-4.816 2.35-15.07 3.324-22.785 1.896-15.009 3.316-17.596 24.284-44.231l13.614-17.293 1.53 28.246c1.214 22.396 3.36 33.323 10.363 52.751 6.752 18.735 8.445 27.05 7.191 35.31l-1.64 10.804 6.253-5.635c11.461-10.327 13.044-10.287 24.197.603 5.855 5.717 10.645 11.477 10.645 12.801 0 3.302-29.06 31.884-32.416 31.884-1.486 0-5.973-4.288-9.971-9.53m231.766-6.657-16.019-16.187 8.186-7.637c17.504-16.331 16.57-16.064 25.828-7.371l8.418 7.902-1.755-9.798c-1.332-7.438.544-16.29 7.79-36.757 8.401-23.725 9.55-30.144 9.576-53.506.017-14.6.95-26.492 2.073-26.425s9.393 9.93 18.378 21.918c15.172 20.243 16.634 23.485 20.508 45.484l4.172 23.688 27.962.778 27.961.777-17.158 12.835c-9.437 7.06-18.996 14.3-21.242 16.09-28.71 22.878-33.606 25.337-50.444 25.337-15.347 0-17.231.696-25.793 9.53-5.08 5.24-9.954 9.529-10.83 9.529s-8.801-7.284-17.611-16.187M347.546 427.72l-10.401-12.443 5.74-6.11c3.158-3.362 5.741-6.81 5.741-7.665 0-.854-7.792-.927-17.316-.163l-17.316 1.39-2.947-20.082c-1.621-11.045-5.002-35.549-7.514-54.453l-4.567-34.372 10.087-18.037c9.22-16.487 9.658-18.187 5.09-19.77-2.748-.953-10.36-4.018-16.914-6.81-6.555-2.794-12.375-5.08-12.933-5.08-.559 0-1.016 6.47-1.016 14.379v14.378l-20.578 10.182-20.578 10.183-12.095-8.686c-6.652-4.777-12.094-9.185-12.094-9.796 0-3.937 44.987-88.534 47.617-89.543 1.794-.689 11.724 1.206 22.067 4.21 64.83 18.832 84.31 25.126 87.11 28.147 1.783 1.926 6.346 35.325 10.508 76.918l7.355 73.514 10.816 9.53 10.816 9.529-26.913 26.547c-14.801 14.6-27.464 26.547-28.138 26.547s-5.906-5.6-11.627-12.444m144.788-13.47c-17.59-17.154-25.937-27.178-24.894-29.897.863-2.25 2.358-4.13 3.32-4.18.963-.05 4.541-2.418 7.951-5.261 5.775-4.817 6.734-10.335 13.994-80.565 5.545-53.638 8.863-76.085 11.498-77.788 2.037-1.317 12.28-4.919 22.763-8.005s32.46-9.822 48.84-14.97c16.38-5.147 31.848-9.359 34.375-9.359 3.227 0 11.23 13.418 26.9 45.105 24.33 49.193 24.163 47.73 6.71 58.516l-9.17 5.667-19.094-10.4-19.094-10.398-.02-14.295c-.007-7.862-1.09-14.294-2.4-14.294-4.148 0-33.013 13.461-33.013 15.395 0 1.018 4.096 9.304 9.102 18.413l9.1 16.563-7.526 53.093c-4.14 29.202-7.622 53.568-7.74 54.147-.117.58-8.177.414-17.91-.367s-17.698-.526-17.698.567 2.45 4.204 5.445 6.915c2.995 2.71 5.446 6.046 5.446 7.412 0 2.733-16.877 23.804-19.06 23.797-.748-.002-13.27-11.618-27.825-25.811m-300.266-14.756c-2.995-1.213-11.878-3.088-19.74-4.167l-14.294-1.961-.301-11.316c-.443-16.607.472-24.62 3.126-27.385 2.21-2.302 86.356 7.685 89.265 10.594.698.698.174 7.723-1.166 15.61l-2.435 14.343-17.697 3.29c-20.562 3.821-29.197 4.055-36.758.992m455.426-.891c-16.563-3.046-16.743-3.253-19.77-22.765l-1.741-11.232 21.283-2.999c11.706-1.65 31.968-4.493 45.027-6.319s24.387-2.677 25.174-1.89c2.59 2.59 4.896 26.347 3.21 33.068-1.425 5.675-4.212 7.065-20.084 10.023-26.69 4.973-35.618 5.329-53.1 2.114m-430.92-44.044c-11.98-1.81-30.666-6.077-41.523-9.48l-19.74-6.187v-9.893c0-5.44 2.724-16.465 6.054-24.497 5.762-13.903 6.449-14.528 14.294-13.015 11.287 2.177 88.42 25.103 90.096 26.779.742.743-1.891 10.095-5.853 20.783-8.206 22.14-5.616 21.212-43.329 15.51m405.55-5.607-8.03-19.392c-2.246-5.424-4.084-10.155-4.084-10.512 0-1.35 92.368-28.635 96.937-28.635 5.322 0 14.696 23.56 14.696 36.938v11.741l-22.463 6.69c-19.634 5.848-56.86 12.7-69 12.7-2.261 0-5.887-4.29-8.057-9.53m-379.685-43.586c-22.967-6.287-77.024-24.479-83.381-28.061-2.455-1.383-1.163-7.517 4.982-23.65 4.563-11.98 9.211-22.79 10.33-24.022 1.68-1.854 44.29 11.254 51.929 15.975 1.256.777-1.264 7.429-5.6 14.783l-7.883 13.37 10.928 10.93c6.01 6.01 13.125 11.624 15.81 12.477 2.935.931 12.541-2.792 24.1-9.343 21.669-12.278 24.256-13.318 25.187-10.127 1.085 3.713-17.232 34.517-20.365 34.25-1.591-.136-13.308-3.098-26.037-6.582m362.864 3.425c-6.783-8.707-18.081-31.893-16.373-33.602 1.05-1.05 6.557 1.165 12.237 4.924s15.512 9.48 21.851 12.713c10.433 5.323 12.233 5.51 18.998 1.976 4.11-2.147 10.994-7.606 15.296-12.132l7.822-8.23-7.141-12.777c-3.928-7.028-7.142-13.695-7.142-14.816 0-2.822 48.685-19.58 51.618-17.767 2.754 1.702 19.792 45.286 18.29 46.787-2.544 2.544-69.612 25.702-88.959 30.717-25.583 6.631-23.205 6.433-26.497 2.207m-395.537-76.905c-6.739-2.03-17.292-5.01-23.451-6.621l-11.2-2.93 2.488-13.687c2.723-14.98 11.805-32.59 16.808-32.59 7.431 0 54.708 13.232 55.473 15.526.461 1.384-3.513 11.934-8.831 23.445-10.54 22.812-10.893 23.002-31.287 16.857m426.762-18.08c-5.38-12.496-9.39-23.11-8.912-23.59 1.226-1.225 53.865-14.159 57.626-14.159 1.701 0 3.879 2.144 4.84 4.765s3.43 7.828 5.488 11.572 4.562 11.87 5.563 18.057l1.82 11.25-19.9 6.045c-37.65 11.435-35.293 12.141-46.525-13.94" style="fill:#000;stroke-width:2.72275"/></svg>