<?xml version="1.0" encoding="UTF-8" standalone="no"?>
<!-- Created with Inkscape (http://www.inkscape.org/) -->

<svg
   version="1.1"
   id="svg1"
   width="872"
   height="889"
   viewBox="0 0 872 889"
   sodipodi:docname="scoundrel.svg"
   inkscape:version="1.4.2 (f4327f4, 2025-05-13)"
   xml:space="preserve"
   xmlns:inkscape="http://www.inkscape.org/namespaces/inkscape"
   xmlns:sodipodi="http://sodipodi.sourceforge.net/DTD/sodipodi-0.dtd"
   xmlns="http://www.w3.org/2000/svg"
   xmlns:svg="http://www.w3.org/2000/svg"><defs
     id="defs1" /><sodipodi:namedview
     id="namedview1"
     pagecolor="#ffffff"
     bordercolor="#000000"
     borderopacity="0.25"
     inkscape:showpageshadow="2"
     inkscape:pageopacity="0.0"
     inkscape:pagecheckerboard="true"
     inkscape:deskcolor="#d1d1d1"
     inkscape:zoom="0.92822679"
     inkscape:cx="-63.562053"
     inkscape:cy="244.01364"
     inkscape:window-width="3424"
     inkscape:window-height="1315"
     inkscape:window-x="2776"
     inkscape:window-y="54"
     inkscape:window-maximized="0"
     inkscape:current-layer="g1" /><g
     inkscape:groupmode="layer"
     inkscape:label="Image"
     id="g1"><circle
       style="fill:none;stroke:#000000;stroke-width:18;stroke-dasharray:none;stroke-opacity:1"
       id="path2"
       cx="438.49911"
       cy="448.88046"
       r="417.83762" /><path
       style="fill:#000000;stroke-width:2.72275"
       d="m 276.20698,768.93514 c -7.30709,-6.36442 -16.36253,-14.19882 -20.12324,-17.40977 -87.69519,-74.87575 -110.451,-94.63791 -111.19096,-96.5631 -1.24286,-3.23357 35.46581,-39.41296 56.45551,-55.64153 9.59643,-7.41963 23.68663,-18.2848 31.31158,-24.1447 7.62491,-5.85997 26.35825,-20.25648 41.62962,-31.99227 15.2714,-11.73583 28.76666,-21.33784 29.98949,-21.33784 1.22285,0 17.82743,15.6388 36.89909,34.75286 l 34.67573,34.75289 0.0814,51.69429 0.0814,51.69434 -21.10578,42.88324 -21.10575,42.88326 H 311.64869 289.49257 Z M 524.2605,739.69965 503.82286,698.89247 v -54.76592 -54.76594 l 33.83092,-33.75734 c 18.60698,-18.56655 34.72971,-33.75734 35.82826,-33.75734 1.09855,0 13.74879,8.97654 28.11156,19.94785 14.36282,10.9713 38.97447,29.65614 54.69259,41.52187 15.71811,11.86573 39.97616,32.60116 53.90673,46.07875 l 25.32832,24.50471 -73.67621,63.30386 -73.6762,63.30384 H 566.43347 544.69814 Z M 391.2509,669.34052 c -3.73043,-4.12211 -4.50613,-11.38672 -4.50613,-42.20257 0,-33.59305 0.53111,-37.75447 5.44551,-42.66885 2.99501,-2.99504 7.89597,-5.4455 10.89098,-5.4455 3.71677,0 5.44549,-1.81518 5.44549,-5.71777 0,-5.92987 16.24608,-24.23245 21.50969,-24.23245 4.5807,0 3.56217,10.84427 -1.18981,12.66777 -2.30165,0.8832 -5.96722,5.05269 -8.14575,9.26548 -3.8544,7.4536 -3.76016,7.68272 3.50415,8.51896 l 7.46507,0.85938 0.74496,46.96737 0.745,46.96737 h -18.70153 c -14.65987,0 -19.67536,-1.07608 -23.20763,-4.97919 z m 55.3943,-42.66887 V 579.0236 h 6.80687 c 3.74377,0 6.80686,-1.13121 6.80686,-2.51383 0,-1.38264 -3.06309,-6.15415 -6.80686,-10.60335 -6.11649,-7.26906 -9.14781,-16.83304 -5.33526,-16.83304 4.96047,0 17.94555,13.25518 20.46574,20.8914 1.87075,5.66846 4.77105,9.05882 7.74941,9.05882 2.61783,0 7.42375,2.83574 10.67983,6.30165 5.43778,5.78827 5.92008,9.12342 5.92008,40.93699 0,45.54397 -1.44039,48.05747 -27.54059,48.05747 H 446.6452 Z m -101.7546,-77.2491 c -33.21604,-33.28996 -34.87513,-35.47281 -33.1009,-43.55083 1.36324,-6.20673 15.60265,-22.25981 52.70588,-59.41897 27.96092,-28.00305 54.82005,-54.47843 59.68697,-58.83417 l 8.84892,-7.91954 v 80.67044 80.67044 l -6.49512,2.46946 c -8.582,3.26286 -23.42659,19.28616 -23.44248,25.30392 -0.008,2.62064 -1.68521,4.76481 -3.72954,4.76481 -2.04432,0 -6.83221,2.45047 -10.63975,5.44549 -3.80755,2.99501 -7.35986,5.4455 -7.89403,5.4455 -0.53416,0 -16.70713,-15.77095 -35.93995,-35.04655 z m -7.77922,-43.40259 c 0.59277,-1.7783 -0.86219,-3.23325 -3.23325,-3.23325 -2.37106,0 -4.31101,1.93995 -4.31101,4.311 0,4.80819 5.86142,3.97083 7.54426,-1.07775 z m 41.46518,-42.93995 c 0,-4.80819 -5.86143,-3.97083 -7.54429,1.07774 -0.59276,1.77828 0.8622,3.23326 3.23327,3.23326 2.37105,0 4.31102,-1.93997 4.31102,-4.311 z m 42.20255,-44.69843 c -1.31732,-2.13147 -2.88358,-2.28964 -4.69875,-0.47447 -1.49751,1.49751 -1.83353,4.16148 -0.74674,5.91995 1.31732,2.13149 2.88358,2.28964 4.69875,0.47447 1.49751,-1.4975 1.83352,-4.16146 0.74674,-5.91995 z m 68.06866,160.64202 c -2.71047,-2.99502 -6.42742,-5.44549 -8.25992,-5.44549 -1.83248,0 -4.8646,-3.70051 -6.73804,-8.22339 -3.77802,-9.12094 -17.3137,-21.72682 -23.32941,-21.72682 -3.26419,0 -3.8752,-12.66412 -3.8752,-80.32102 0,-44.17655 0.9296,-80.321 2.0658,-80.321 1.1362,0 28.09139,26.04671 59.90041,57.88158 49.5578,49.59803 57.83462,59.04939 57.83462,66.04182 0,6.73244 -5.83588,14.23232 -33.35365,42.86378 -18.34449,19.08693 -34.69529,34.70182 -36.33507,34.69976 -1.6398,-0.002 -5.19908,-2.45421 -7.90954,-5.44922 z m 60.01237,-70.97254 c 2.50585,-4.05458 -0.39952,-6.25903 -5.61259,-4.25857 -2.40576,0.92317 -3.61153,2.91238 -2.6795,4.42049 2.207,3.57099 6.03118,3.4963 8.29209,-0.16201 z m -42.31452,-44.90487 c 0,-2.15788 -1.83786,-3.92342 -4.08413,-3.92342 -4.10109,0 -5.59709,5.74768 -2.34298,9.00181 2.54099,2.54097 6.42711,-0.52963 6.42711,-5.07839 z m -42.39325,-39.0106 c 0.82067,-1.32783 -0.18922,-3.80959 -2.24408,-5.51501 -2.85151,-2.36653 -4.08937,-2.18027 -5.22792,0.78668 -2.32743,6.06525 4.123,10.14713 7.472,4.72833 z m -155.19045,44.6168 c -6.99122,-9.166 -7.94306,-9.52962 -24.94479,-9.52962 h -17.67621 l -35.29824,-26.54677 -35.29827,-26.54678 27.14581,-0.77278 27.14578,-0.77279 1.55213,-8.75682 c 0.85368,-4.81626 2.34946,-15.06949 3.32395,-22.78496 1.89567,-15.00883 3.31628,-17.59635 24.28423,-44.23115 l 13.61373,-17.29298 1.53051,28.2465 c 1.21348,22.39551 3.35993,33.32247 10.36234,52.75125 6.75216,18.73442 8.44555,27.0489 7.19126,35.30909 l -1.64061,10.8044 6.25336,-5.63453 c 11.46142,-10.32721 13.04459,-10.28778 24.19699,0.60221 5.85485,5.71715 10.64519,11.47777 10.64519,12.80141 0,3.30183 -29.05918,31.88392 -32.41616,31.88392 -1.48633,0 -5.97328,-4.28833 -9.971,-9.5296 z m 231.76573,-6.65762 -16.0183,-16.18718 8.18564,-7.63684 c 17.50431,-16.33071 16.56984,-16.06401 25.82848,-7.37121 l 8.41705,7.90263 -1.75467,-9.7981 c -1.33209,-7.43835 0.54427,-16.29078 7.79094,-36.75707 8.40035,-23.72457 9.5492,-30.1439 9.57566,-53.50575 0.0163,-14.60072 0.94898,-26.49193 2.07212,-26.4249 1.12313,0.067 9.39347,9.93008 18.37853,21.91786 15.17207,20.24242 16.63383,23.48434 20.50816,45.4841 l 4.17168,23.68817 27.96157,0.77748 27.9616,0.77751 -17.15814,12.83491 c -9.43702,7.05918 -18.99604,14.29943 -21.24231,16.08938 -28.70988,22.87793 -33.60573,25.33701 -50.44409,25.33701 -15.34704,0 -17.23098,0.69606 -25.7928,9.52962 -5.08003,5.24127 -9.95341,9.5296 -10.82963,9.5296 -0.87627,0 -8.80142,-7.28424 -17.61149,-16.18722 z m -193.1813,-34.37458 -10.40135,-12.44335 5.74067,-6.11067 c 3.15739,-3.36088 5.74067,-6.80953 5.74067,-7.66371 0,-0.85418 -7.7922,-0.92756 -17.31598,-0.16309 l -17.31599,1.38993 -2.94738,-20.08202 c -1.62107,-11.0451 -5.00244,-35.54916 -7.51414,-54.4534 l -4.56679,-34.37139 10.08732,-18.0378 c 9.21968,-16.4863 9.65749,-18.18677 5.09023,-19.76985 -2.7484,-0.95264 -10.36008,-4.01739 -16.91488,-6.81055 -6.55476,-2.79316 -12.37463,-5.07847 -12.93304,-5.07847 -0.55839,0 -1.01526,6.47012 -1.01526,14.37807 v 14.37803 l -20.57846,10.18249 -20.57843,10.18247 -12.09453,-8.68561 c -6.65196,-4.77709 -12.09449,-9.1854 -12.09449,-9.79627 0,-3.93693 44.98705,-88.53385 47.61738,-89.5432 1.79416,-0.68847 11.7243,1.20623 22.06699,4.21049 64.83033,18.83123 84.31054,25.12568 87.10928,28.14678 1.78382,1.92556 6.34688,35.32527 10.50843,76.91756 l 7.35555,73.51414 10.81593,9.52961 10.81588,9.52962 -26.91249,26.54677 c -14.80189,14.60073 -27.46405,26.54678 -28.13814,26.54678 -0.67407,0 -5.90621,-5.59952 -11.62698,-12.44336 z M 492.33432,414.2496 c -17.59084,-17.15375 -25.93739,-27.17745 -24.8941,-29.89628 0.86325,-2.24961 2.35738,-4.13095 3.32031,-4.18077 0.9629,-0.0499 4.5407,-2.41723 7.95065,-5.26092 5.77518,-4.81619 6.73377,-10.335 13.9939,-80.5647 5.5449,-53.63774 8.86287,-76.0851 11.49797,-77.78798 2.03716,-1.31648 12.28059,-4.91851 22.76316,-8.00453 10.48257,-3.08601 32.46055,-9.82249 48.83994,-14.96995 16.37939,-5.1475 31.84787,-9.35906 34.37442,-9.35906 3.22724,0 11.22964,13.41736 26.9012,45.10423 24.32981,49.19341 24.16203,47.73025 6.71007,58.51614 l -9.16989,5.66731 -19.09464,-10.3992 -19.09464,-10.39923 -0.0191,-14.29441 c -0.008,-7.86194 -1.09015,-14.29443 -2.40132,-14.29443 -4.14727,0 -33.01175,13.46124 -33.01175,15.39536 0,1.01766 4.09544,9.30344 9.10102,18.41287 l 9.101,16.56258 -7.52621,53.09355 c -4.13943,29.20145 -7.62225,53.56761 -7.73965,54.14702 -0.11736,0.57939 -8.17744,0.41418 -17.91127,-0.36718 -9.73382,-0.78131 -17.69785,-0.52636 -17.69785,0.56663 0,1.09296 2.45048,4.20485 5.4455,6.91532 2.99502,2.71046 5.44549,6.04586 5.44549,7.41197 0,2.73273 -16.87676,23.8044 -19.05922,23.79657 -0.74875,-0.002 -13.27001,-11.6176 -27.82502,-25.81091 z M 192.06844,399.49436 c -2.99502,-1.21307 -11.87798,-3.08823 -19.73992,-4.16703 l -14.2944,-1.96147 -0.30138,-11.31616 c -0.44229,-16.60664 0.47269,-24.6205 3.12668,-27.38487 2.20953,-2.30146 86.35601,7.68493 89.26491,10.59385 0.69808,0.69808 0.17344,7.72304 -1.16586,15.61106 l -2.43512,14.34178 -17.69784,3.28968 c -20.56171,3.82205 -29.19658,4.05537 -36.75707,0.99316 z m 455.42508,-0.8916 c -16.5623,-3.04586 -16.74227,-3.25308 -19.76871,-22.76461 l -1.74219,-11.23185 21.28321,-2.99904 c 11.70572,-1.6495 31.96797,-4.49313 45.02713,-6.3192 13.05917,-1.82606 24.38734,-2.67676 25.1737,-1.8904 2.59055,2.59059 4.89625,26.34737 3.20943,33.06826 -1.42423,5.6746 -4.2113,7.06551 -20.08355,10.02301 -26.69045,4.97326 -35.61771,5.32866 -53.09902,2.11383 z M 216.57314,354.5594 c -11.98008,-1.81125 -30.66492,-6.07749 -41.52187,-9.48052 l -19.7399,-6.18732 v -9.89248 c 0,-5.44087 2.72397,-16.46458 6.05329,-24.49715 5.76247,-13.90299 6.44922,-14.5283 14.29441,-13.01522 11.2868,2.17684 88.41958,25.10312 90.09572,26.77927 0.74269,0.74269 -1.89097,10.09494 -5.85256,20.78275 -8.20641,22.13972 -5.61611,21.21246 -43.32909,15.51067 z m 405.55024,-5.60785 c -2.16984,-5.24128 -5.78303,-13.96755 -8.02929,-19.39172 -2.24626,-5.42418 -4.08413,-10.15451 -4.08413,-10.51187 0,-1.34958 92.36822,-28.63544 96.93676,-28.63544 5.3221,0 14.69583,23.56114 14.69583,36.93843 v 11.74145 l -22.46264,6.69026 c -19.6336,5.84764 -56.85901,12.6985 -68.99949,12.6985 -2.26151,0 -5.88718,-4.28832 -8.05704,-9.52961 z M 242.43924,305.36619 c -22.96729,-6.28679 -77.02376,-24.47904 -83.38152,-28.06136 -2.45458,-1.38305 -1.16225,-7.51728 4.98225,-23.6494 4.56306,-11.98008 9.21123,-22.79038 10.32929,-24.02291 1.68161,-1.85384 44.29022,11.25449 51.92962,15.97589 1.2563,0.77643 -1.26351,7.42861 -5.59956,14.78261 l -7.88378,13.37089 10.92821,10.9282 c 6.01052,6.0105 13.12475,11.62534 15.80941,12.47742 2.93563,0.93176 12.54216,-2.79192 24.10142,-9.34215 21.66832,-12.27862 24.25501,-13.31876 25.18674,-10.12785 1.08427,3.71336 -17.23217,34.51745 -20.3656,34.25029 -1.59122,-0.13559 -13.30764,-3.09739 -26.03648,-6.58163 z m 362.86334,3.42486 c -6.78296,-8.70685 -18.08089,-31.89355 -16.37273,-33.60169 1.05062,-1.05062 6.55712,1.16499 12.23671,4.92354 5.67957,3.7586 15.51277,9.4796 21.85151,12.71341 10.43266,5.32234 12.23333,5.50961 18.99834,1.97598 4.11038,-2.14699 10.99339,-7.60665 15.29563,-12.13258 l 7.82223,-8.22897 -7.14154,-12.77765 c -3.92786,-7.02771 -7.14157,-13.69496 -7.14157,-14.81613 0,-2.82213 48.68474,-19.57964 51.61761,-17.76703 2.75404,1.70207 19.79174,45.28575 18.29009,46.7874 -2.54354,2.54353 -69.61169,25.70127 -88.95876,30.71628 -25.58292,6.63141 -23.20536,6.43333 -26.49752,2.20744 z M 209.76629,231.88648 c -6.7388,-2.03049 -17.29197,-5.01031 -23.4515,-6.62185 l -11.19912,-2.93004 2.48756,-13.68626 c 2.72273,-14.98031 11.80489,-32.59115 16.80767,-32.59115 7.43124,0 54.70822,13.23272 55.47286,15.52673 0.46135,1.38404 -3.51249,11.93433 -8.83077,23.44507 -10.5397,22.81177 -10.89336,23.00233 -31.2867,16.8575 z m 426.76178,-18.08121 c -5.38061,-12.49484 -9.39094,-23.10988 -8.91182,-23.58901 1.22532,-1.22532 53.86444,-14.15908 57.62602,-14.15908 1.70071,0 3.87823,2.14415 4.8389,4.7648 0.96066,2.62065 3.43079,7.82789 5.48919,11.57167 2.05836,3.74377 4.5616,11.86948 5.56276,18.05714 l 1.82026,11.25028 -19.90033,6.04452 c -37.64929,11.43566 -35.29341,12.14152 -46.52498,-13.94032 z"
       id="path1" /></g></svg>
