<?xml version="1.0" encoding="UTF-8" standalone="no"?>
<svg
   xml:space="preserve"
   width="872"
   height="889"
   viewBox="0 0 872 889"
   version="1.1"
   id="svg1"
   sodipodi:docname="shaper.svg"
   inkscape:version="1.4.2 (f4327f4, 2025-05-13)"
   xmlns:inkscape="http://www.inkscape.org/namespaces/inkscape"
   xmlns:sodipodi="http://sodipodi.sourceforge.net/DTD/sodipodi-0.dtd"
   xmlns="http://www.w3.org/2000/svg"
   xmlns:svg="http://www.w3.org/2000/svg"><defs
     id="defs1" /><sodipodi:namedview
     id="namedview1"
     pagecolor="#ffffff"
     bordercolor="#000000"
     borderopacity="0.25"
     inkscape:showpageshadow="2"
     inkscape:pageopacity="0.0"
     inkscape:pagecheckerboard="0"
     inkscape:deskcolor="#d1d1d1"
     inkscape:zoom="1.3127109"
     inkscape:cx="436.12039"
     inkscape:cy="444.5"
     inkscape:window-width="3440"
     inkscape:window-height="1369"
     inkscape:window-x="1737"
     inkscape:window-y="1432"
     inkscape:window-maximized="1"
     inkscape:current-layer="svg1" /><path
     d="M389.115 768.865c-24.245-14.107-58.586-33.35-76.313-42.764-17.727-9.413-40.696-22.694-51.043-29.511-10.346-6.818-29.775-18.7-43.173-26.403-13.399-7.704-39.5-22.774-58.003-33.49l-33.642-19.481-1.16-85.777c-.638-47.177-.765-129.803-.283-183.615l.878-97.838 15.363-9.16c8.45-5.038 36.245-21.175 61.766-35.86 25.521-14.686 53.189-31.233 61.483-36.771 8.295-5.538 24.516-14.948 36.048-20.911s35.024-18.935 52.203-28.825 42.198-24.228 55.597-31.86c13.399-7.633 25.28-14.42 26.403-15.08 1.122-.662 1.603.111 1.067 1.718-.91 2.73-15.661 11.751-65.172 39.859-18.412 10.452-26.051 16.252-16.66 12.649 15.53-5.96 82.204-14.91 82.204-11.036 0 1.109-8.092 2.708-17.981 3.555-36.466 3.121-83.48 15.998-112.971 30.942-42.488 21.53-87.968 58.444-109.893 89.194-1.668 2.338-4.053 4.252-5.302 4.252-3.993 0 1.654-7.87 18.9-26.336 9.115-9.76 15.964-17.747 15.219-17.747-1.795 0-78.517 44.003-81.352 46.658-1.3 1.217 6.085 2.065 17.98 2.065 19.394 0 20.185.205 20.16 5.22-.014 2.872-4.701 13.051-10.415 22.622s-10.4 18.714-10.414 20.319 5.275 12.242 11.754 23.638c7.142 12.562 11.482 22.832 11.02 26.084-.597 4.216-3.402.773-13.114-16.098-6.796-11.804-13.2-21.462-14.232-21.462s-4.586 7.308-7.897 16.24c-28.867 77.88-26.035 160.366 8.23 239.696 3.753 8.692 6.446 16.938 5.984 18.326-1.206 3.618-14.9-27.81-23.97-55.01l-7.735-23.2-.113 55.682-.113 55.683 16.82 9.46c9.25 5.203 30.741 17.471 47.757 27.262 17.015 9.79 31.602 17.801 32.414 17.801s-5.248-6.786-13.468-15.08c-8.221-8.295-13.956-15.081-12.745-15.081 1.21 0 10.055 7.698 19.654 17.108 49.705 48.727 109.714 78.977 176.96 89.206 7.338 1.116 13.341 1.297 13.341.403 0-1.48-22.513-40.669-61.87-107.7-9.03-15.378-14.323-26.783-13.462-29.002 1.998-5.147 2.415-4.503 46.78 72.327 38.38 66.47 38.543 66.704 46.295 66.704 4.278 0 7.779 1.044 7.779 2.32s-2.61 2.32-5.8 2.32c-7.168 0-7.165.251.137 11.818 3.528 5.589 5.647 11.924 5.22 15.61-.637 5.506-1.835 4.317-10.669-10.591-6.66-11.24-11.647-17.115-15.08-17.763-12.049-2.275-52.01-10.576-57.333-11.91-7.042-1.763 7.361 7.4 51.179 32.557 28.208 16.196 37 22.48 30.606 21.877-.957-.09-21.577-11.706-45.823-25.813M150.943 305.893c2.487-4.582 1.545-7.421-7.892-23.782-5.894-10.218-11.147-18.578-11.673-18.578s-.898 22.186-.826 49.303l.131 49.302 8.718-25.521c4.795-14.037 9.989-27.863 11.542-30.724m25.306-50.668c-.639-.639-10.053-.858-20.92-.487l-19.759.674 10.502 18.167 10.501 18.167 10.419-17.68c5.73-9.724 9.896-18.202 9.257-18.841m276.67 537.641c0-1.086 12.267-9.091 27.261-17.789 51.526-29.889 58.735-34.22 58.071-34.884-.366-.366-11.102 1.86-23.858 4.946-12.756 3.087-26.51 5.614-30.567 5.616-9.101.005-12.403 3.216-22.105 21.484-6.962 13.111-7.709 13.82-8.386 7.96-.447-3.868 1.674-10.557 5.318-16.776l6.062-10.343h-5.898c-8.594 0-7.23-4.218 1.64-5.073 7.064-.682 8.765-2.848 26.996-34.37 10.7-18.502 24.64-42.516 30.977-53.362s15.744-27.2 20.906-36.34c6.222-11.017 10.46-16.205 12.577-15.393 3.652 1.402 1.489 5.536-41.393 79.124-15.1 25.911-29.06 50.216-31.022 54.01-3.485 6.74-3.445 6.874 1.747 5.785 2.924-.614 14.19-2.8 25.037-4.861C565.44 731.363 622.376 701.07 666 657.62c10.066-10.025 19.718-18.227 21.45-18.227s-3.609 6.917-11.866 15.372L660.57 670.14l16.24-8.866c8.933-4.876 22.506-12.618 30.163-17.204 7.656-4.586 22.012-12.92 31.901-18.521l17.981-10.183-.131-54.69-.132-54.689-6.353 20.881c-7.05 23.167-20.806 54.523-23.92 54.523-1.104 0-.316-3.915 1.751-8.7 17.716-41.004 24.067-61.925 28.705-94.545 3.43-24.127 2.862-71.256-1.16-96.286-3.672-22.847-11.994-52.506-19.146-68.232l-4.124-9.07-12.686 22.547c-10.516 18.689-12.812 21.529-13.422 16.598-.482-3.9 3.415-13.14 11.31-26.818l12.044-20.87-11.89-20.6c-6.538-11.33-11.888-22.292-11.888-24.36 0-3.197 3.222-3.763 21.46-3.77l21.462-.01-7.608-4.638c-4.185-2.552-21.412-12.623-38.282-22.38-16.871-9.759-33.284-19.398-36.475-21.42-3.19-2.023.986 3.984 9.28 13.35 23.941 27.031 26.445 30.465 22.21 30.465-2.006 0-3.648-.957-3.648-2.127 0-3.795-34.853-39.3-52.564-53.547-46.184-37.153-104.035-61.086-163.788-67.758-13.718-1.531-24.941-3.629-24.941-4.66 0-3.273 50.314 2.984 71.593 8.903 6.836 1.902 12.858 3.03 13.382 2.506s-5.07-4.232-12.43-8.24c-33.427-18.205-71.136-41.377-72.115-44.315-.748-2.242 1.326-1.764 6.787 1.567 23.28 14.197 105.85 60.935 123.87 70.115 11.484 5.85 30.25 16.75 41.702 24.222s31.289 19.559 44.082 26.86c21.814 12.449 90.098 51.535 90.92 52.043.83.513 1.878 232.275 1.35 298.46l-.564 70.854-13.341 7.735c-45.841 26.576-75.714 43.79-89.905 51.809-8.933 5.046-22.195 13.281-29.473 18.299s-28.017 16.963-46.088 26.545-41.351 22.436-51.732 28.564C488.908 775.31 455.02 794.842 454 794.842c-.595 0-1.081-.89-1.081-1.976m303.92-481.19-.017-49.303-10.662 18.56c-9.842 17.135-10.447 19.097-7.875 25.522 5.363 13.395 16.251 47.595 16.251 51.043 0 1.914.522 3.48 1.16 3.48s1.152-22.186 1.143-49.302m-5.198-56.451c-.64-.639-10.053-.858-20.92-.487l-19.76.675 10.502 18.166 10.502 18.167 10.419-17.68c5.73-9.724 9.896-18.202 9.257-18.841M202.377 625.197c.066-16.469.929-17.282 21.602-20.356 10.432-1.551 39.327-8.111 64.21-14.577 71.974-18.702 110.571-17.936 143.268 2.846 9.8 6.228 5.943 9.22-5.412 4.197-25.601-11.324-59.179-7.767-115.421 12.23-56.517 20.094-59.598 20.905-84.498 22.235l-23.781 1.27zm429.191 2.582c-8.294-2.378-29.697-9.713-47.562-16.299-56.19-20.715-86.997-25.046-115.22-16.199-17.365 5.444-15.867 5.217-15.867 2.397 0-1.25 5.326-5.315 11.837-9.033 22.857-13.055 73.275-15.434 109.97-5.19 43.942 12.267 71.413 18.799 89.696 21.325l20.093 2.777.976 10.698c.536 5.884.568 11.481.07 12.438-1.774 3.415-38.91 1.411-53.993-2.914m-444.884-7.019c-8.86-3.56-6.22-16.16 3.016-14.394 4.698.898 5.684 2.449 5.684 8.937 0 8.365-.572 8.724-8.7 5.457m507.078-5.81c-.768-6.574-.103-7.835 4.6-8.734 5.473-1.046 6.608.186 7.92 8.602.485 3.11-1.14 4.93-5.466 6.12-5.665 1.559-6.229 1.08-7.054-5.989m-504.178-16.003c-1.276-.515-6.235-1.59-11.02-2.39-7.421-1.242-8.7-2.334-8.7-7.422 0-5.127.733-5.735 5.22-4.323 2.87.904 14.29 2.195 25.375 2.868 19.732 1.199 20.28 1.09 26.101-5.191 3.27-3.53 5.946-5.332 5.946-4.006 0 5.61 9.3 4.578 47.352-5.256 22.128-5.719 41.48-10.398 43.005-10.398 1.53 0 2.44 2.273 2.03 5.071-.666 4.558-5.677 6.32-49.464 17.394-43.013 10.879-78.666 16.549-85.845 13.653m465.186-3.438c-10.847-2.423-35.382-8.518-54.523-13.545-30.402-7.984-34.896-9.772-35.544-14.137-.407-2.749-.104-4.998.674-4.998s20.411 4.77 43.629 10.601l42.213 10.601 4.096-5.057c3.08-3.805 4.095-4.165 4.095-1.452 0 9.671 24.056 14.016 47.504 8.58 9.24-2.142 12.695-.51 12.784 6.038.096 7.127-39.018 9.156-64.928 3.37m-225.053-13c-15.13-8.76-35.75-13.181-61.685-13.227-14.149-.024-27.898.645-30.555 1.489-3.647 1.157-5.213.329-6.39-3.38-.857-2.7-1.052-5.418-.434-6.037 2.804-2.803 34.376-5.62 47.693-4.254 25.152 2.578 58.332 17.072 58.332 25.48 0 4.122.288 4.125-6.96-.072m23.202-.105c0-8.393 30.796-22.09 57.082-25.39 10.41-1.307 46.606 2.005 49.093 4.492.51.51-.266 3.154-1.723 5.876-1.874 3.501-3.988 4.526-7.223 3.5-8.368-2.657-49.483-1.924-62.427 1.112-7.019 1.646-17.72 5.435-23.782 8.419-8.836 4.35-11.02 4.745-11.02 1.99m-268.969-3.538c-5.65-1.108-11.041-2.82-11.98-3.806-.937-.984.684-13.275 3.604-27.311 20.114-96.704 38.371-240.035 38.371-301.236V228.1l10.765 1.476c5.92.811 20.376 1.475 32.123 1.475h21.36l2.224 17.981c2.4 19.404 2.758 19.204 9.34-5.22 3.831-14.216 5.103-16.327 10.204-16.929 4.693-.554 6.592.915 9.751 7.54 2.158 4.526 4.806 8.229 5.885 8.229s4.388-5.182 7.355-11.516l5.394-11.516 21.808-5.04c27.618-6.382 55.904-5.424 74.343 2.517l12.18 5.245V569.83l-12.194-6.882c-31.944-18.028-63.579-18.107-132.442-.33-48.43 12.502-54.886 13.55-54.907 8.913-.03-6.563-5.13-20.71-6.791-18.84-.986 1.11-3.15 7.065-4.81 13.232-4.16 15.458-13.674 18.42-41.583 12.944m486.816.99c-2.199-.588-5.439-6.657-7.908-14.812-2.3-7.598-4.97-13.815-5.932-13.815-.961 0-2.413 3.936-3.226 8.748-2.877 17.03-.659 16.89-53.947 3.377-71.523-18.137-100.767-18.533-132.334-1.79l-14.5 7.69V221.51l11.02-5.09c15.26-7.048 61.845-7.169 82.945-.214 12.748 4.201 14.358 5.508 19.118 15.517 2.86 6.01 6.059 10.929 7.111 10.929s3.656-3.654 5.785-8.12c7.628-15.996 16.249-9.078 22.512 18.065 3.223 13.964 6.854 14.072 6.922.205.018-3.987.664-10.393 1.432-14.234l1.397-6.983 30.505-1.045c16.777-.575 30.656-.956 30.842-.847s1.52 20.035 2.964 44.28c4.374 73.381 17.399 172.451 32.89 250.169 5.042 25.299 9.403 47.204 9.69 48.679.947 4.872-35.243 10.256-47.286 7.035m-481.205-244.07.024-83.842 5.8.03c11.62.059 11.646.215 8.035 48.754-3.018 40.569-7.998 85.003-12.315 109.877-.861 4.964-1.556-28.705-1.543-74.818zm508.492 75.687c-.746-2.973-2.42-14.245-3.72-25.05l-5.713-47.486c-1.842-15.313-4.096-40.217-5.01-55.342-1.784-29.578-1.156-31.551 10.067-31.627l5.266-.036-1.37 41.183c-.753 22.65-.422 59.453.737 81.784 1.158 22.331 1.879 40.912 1.602 41.29s-1.113-1.744-1.86-4.716m104.502-183.654c-.95-2.416-1.18-4.939-.512-5.607 2.116-2.116 3.978 1.352 3.092 5.757-.813 4.038-.937 4.031-2.58-.15m-12.662-20.157c-7.878-11.906-7.88-15.176-.002-6.192 4.42 5.04 9.541 15.62 8.207 16.955-.358.358-4.05-4.485-8.203-10.763z"
     style="fill:#000;stroke-width:2.32013"
     id="path1" /></svg>
