<?xml version="1.0" encoding="UTF-8" standalone="no"?>
<!-- Created with Inkscape (http://www.inkscape.org/) -->

<svg
   version="1.1"
   id="svg1"
   width="872"
   height="889"
   viewBox="0 0 872 889"
   sodipodi:docname="shaper.svg"
   inkscape:version="1.4.2 (f4327f4, 2025-05-13)"
   xml:space="preserve"
   xmlns:inkscape="http://www.inkscape.org/namespaces/inkscape"
   xmlns:sodipodi="http://sodipodi.sourceforge.net/DTD/sodipodi-0.dtd"
   xmlns="http://www.w3.org/2000/svg"
   xmlns:svg="http://www.w3.org/2000/svg"><defs
     id="defs1" /><sodipodi:namedview
     id="namedview1"
     pagecolor="#ffffff"
     bordercolor="#000000"
     borderopacity="0.25"
     inkscape:showpageshadow="2"
     inkscape:pageopacity="0.0"
     inkscape:pagecheckerboard="true"
     inkscape:deskcolor="#d1d1d1"
     inkscape:zoom="0.92822679"
     inkscape:cx="-63.562053"
     inkscape:cy="244.01364"
     inkscape:window-width="3440"
     inkscape:window-height="1369"
     inkscape:window-x="-8"
     inkscape:window-y="-8"
     inkscape:window-maximized="1"
     inkscape:current-layer="g1" /><g
     inkscape:groupmode="layer"
     inkscape:label="Image"
     id="g1"><circle
       style="fill:none;stroke:#000000;stroke-width:18;stroke-dasharray:none;stroke-opacity:1"
       id="path2"
       cx="438.49911"
       cy="448.88046"
       r="417.83762" /><path
       style="fill:#000000;stroke-width:2.32013"
       d="m 389.11511,768.86496 c -24.24533,-14.10673 -58.58617,-33.35049 -76.31295,-42.76392 -17.72681,-9.4134 -40.69607,-22.69355 -51.04282,-29.51142 -10.34674,-6.81786 -29.77487,-18.69906 -43.1736,-26.40269 -13.39874,-7.7036 -39.50019,-22.77367 -58.00319,-33.48899 l -33.64186,-19.48242 -1.16006,-85.77627 c -0.63802,-47.17697 -0.76511,-129.80362 -0.28239,-183.6148 l 0.87769,-97.83853 15.36321,-9.15965 c 8.44977,-5.03781 36.24436,-21.17526 61.76576,-35.86099 25.52142,-14.68571 53.18893,-31.23246 61.48339,-36.77057 8.29445,-5.53807 24.51605,-14.94806 36.04798,-20.91109 11.53194,-5.96303 35.02323,-18.9343 52.20287,-28.82506 17.17965,-9.89076 42.19832,-24.227983 55.59705,-31.860488 13.39874,-7.632518 25.27984,-14.418266 26.40243,-15.079453 1.12259,-0.661197 1.60309,0.111846 1.06775,1.717888 -0.90988,2.729632 -15.66174,11.75186 -65.17225,39.859323 -18.41193,10.45256 -26.05143,16.25266 -16.66041,12.649 15.53025,-5.95953 82.20402,-14.91077 82.20402,-11.03624 0,1.10894 -8.09145,2.70884 -17.98099,3.55529 -36.46605,3.12115 -83.48047,15.99811 -112.97084,30.942 -42.48759,21.53009 -87.96766,58.44371 -109.89295,89.19396 -1.66746,2.33858 -4.05332,4.25198 -5.30195,4.25198 -3.99307,0 1.65423,-7.86911 18.89997,-26.33569 9.11544,-9.7607 15.96397,-17.74675 15.21897,-17.74675 -1.79536,0 -78.51706,44.00225 -81.35235,46.65808 -1.29897,1.21674 6.08515,2.0646 17.98099,2.0646 19.39372,0 20.18409,0.20465 20.15894,5.22029 -0.0139,2.87116 -4.70088,13.05073 -10.41439,22.62125 -5.71353,9.57053 -10.40001,18.71424 -10.41442,20.31939 -0.0139,1.60515 5.27517,12.24238 11.75457,23.63835 7.14213,12.56156 11.48144,22.83168 11.02059,26.08317 -0.59754,4.21623 -3.40239,0.77349 -13.11514,-16.09795 -6.79529,-11.80364 -13.19967,-21.46118 -14.23199,-21.46118 -1.03232,0 -4.58564,7.30765 -7.89626,16.23921 -28.86741,77.88006 -26.03562,160.36658 8.22888,239.6966 3.75403,8.69141 6.44698,16.93818 5.98432,18.32615 -1.20598,3.61795 -14.90037,-27.81102 -23.96916,-55.0099 l -7.73589,-23.20127 -0.11278,55.68306 -0.11276,55.68307 16.81984,9.46003 c 9.25094,5.20302 30.74147,17.4707 47.75677,27.26149 17.01531,9.79081 31.60194,17.80146 32.41476,17.80146 0.81284,0 -5.2482,-6.78636 -13.46892,-15.08082 -8.22072,-8.29445 -13.956,-15.08083 -12.74503,-15.08083 1.211,0 10.05533,7.69886 19.65408,17.10857 49.70545,48.72653 109.71488,78.97719 176.96106,89.20576 7.3374,1.11604 13.34073,1.29722 13.34073,0.40261 0,-1.47867 -22.51355,-40.6686 -61.87066,-107.69988 -9.02907,-15.37795 -14.3226,-26.78252 -13.4614,-29.0016 1.99771,-5.14742 2.4146,-4.50281 46.77877,72.32687 38.38168,66.46923 38.54438,66.70367 46.29587,66.70367 4.27835,0 7.77883,1.04405 7.77883,2.32012 0,1.27607 -2.61015,2.32013 -5.80033,2.32013 -7.16724,0 -7.16432,0.25161 0.13759,11.8185 3.52774,5.58832 5.64659,11.92406 5.22028,15.60958 -0.63694,5.5065 -1.83554,4.31667 -10.66901,-10.59094 -6.66064,-11.24072 -11.64767,-17.11468 -15.08083,-17.76296 -12.04831,-2.27515 -52.00988,-10.57612 -57.33226,-11.90929 -7.04199,-1.76395 7.36117,7.39835 51.17856,32.5562 28.20848,16.19595 37.00093,22.48073 30.60595,21.87689 -0.95706,-0.0903 -21.5772,-11.70616 -45.82252,-25.8129 z M 150.94309,305.89261 c 2.48667,-4.58178 1.54446,-7.4209 -7.89221,-23.7813 -5.89378,-10.2181 -11.14663,-18.57834 -11.67298,-18.57834 -0.52635,0 -0.89801,22.1862 -0.82592,49.30271 l 0.13109,49.3027 8.71813,-25.5214 c 4.79498,-14.03677 9.98882,-27.86274 11.54189,-30.72437 z m 25.30607,-50.66767 c -0.63891,-0.63893 -10.05307,-0.85809 -20.92034,-0.48705 l -19.75869,0.67461 10.50152,18.16664 10.50153,18.16662 10.41884,-17.67957 c 5.73033,-9.72378 9.89606,-18.20234 9.25714,-18.84125 z m 276.66947,537.64149 c 0,-1.08666 12.26767,-9.09189 27.26148,-17.78941 51.52602,-29.88889 58.73502,-34.21939 58.07085,-34.88355 -0.36618,-0.36618 -11.1023,1.85942 -23.85801,4.94577 -12.75574,3.08635 -26.51085,5.61355 -30.56692,5.61603 -9.10105,0.005 -12.40351,3.21526 -22.10473,21.48401 -6.96222,13.11079 -7.70882,13.81943 -8.38615,7.95969 -0.44704,-3.86759 1.67346,-10.5566 5.31811,-16.77573 l 6.06161,-10.34336 h -5.89814 c -8.59326,0 -7.22931,-4.21788 1.64059,-5.07328 7.06358,-0.68121 8.76491,-2.84724 26.99545,-34.36889 10.70118,-18.50301 24.64108,-42.51633 30.97748,-53.36293 6.33643,-10.8466 15.74399,-27.19929 20.90571,-36.3393 6.22193,-11.01743 10.46064,-16.20541 12.5767,-15.39339 3.65208,1.40143 1.48936,5.53555 -41.39314,79.1236 -15.09967,25.9116 -29.05934,50.21652 -31.02152,54.01096 -3.48546,6.74014 -3.44522,6.87327 1.74746,5.78402 2.92326,-0.61321 14.18949,-2.8006 25.03609,-4.86085 59.1591,-11.23701 116.09471,-41.52959 159.71893,-84.97843 10.06574,-10.02527 19.71788,-18.22776 21.44926,-18.22776 1.73135,0 -3.60831,6.91776 -11.8659,15.37281 l -15.0138,15.3728 16.24089,-8.86612 c 8.9325,-4.87637 22.50524,-12.61829 30.16166,-17.20422 7.65642,-4.58596 22.01221,-12.92045 31.90176,-18.5211 l 17.98099,-10.18299 -0.13156,-54.68926 -0.13155,-54.68926 -6.35369,20.88115 c -7.04913,23.16667 -20.80524,54.523 -23.9194,54.523 -1.1043,0 -0.31629,-3.91522 1.75113,-8.70049 17.71527,-41.00396 24.06696,-61.92484 28.70446,-94.54519 3.43003,-24.12715 2.86233,-71.25595 -1.15986,-96.2853 -3.67151,-22.84722 -11.99373,-52.50652 -19.14569,-68.23274 l -4.12462,-9.06947 -12.68595,22.54674 c -10.51522,18.68872 -12.81178,21.52884 -13.42124,16.5979 -0.48197,-3.89917 3.41462,-13.13947 11.30897,-26.81802 l 12.04423,-20.86912 -11.88902,-20.6001 c -6.53898,-11.33006 -11.88902,-22.29265 -11.88902,-24.36133 0,-3.19654 3.22216,-3.76255 21.46117,-3.76993 l 21.46119,-0.009 -7.60821,-4.63869 c -4.18451,-2.5513 -21.41147,-12.62255 -38.28211,-22.38054 -16.87064,-9.75809 -33.28404,-19.39694 -36.47421,-21.41976 -3.19018,-2.02284 0.98605,3.98467 9.2805,13.35003 23.94057,27.03153 26.44424,30.46597 22.20939,30.46597 -2.00659,0 -3.64837,-0.95743 -3.64837,-2.1276 0,-3.79434 -34.85312,-39.29926 -52.56354,-53.54658 C 595.46415,149.82395 537.61323,125.89148 477.86,119.21931 c -13.71776,-1.53177 -24.94137,-3.62889 -24.94137,-4.66031 0,-3.27321 50.3143,2.98356 71.59331,8.90289 6.8365,1.90176 12.85847,3.02932 13.3821,2.50567 0.52363,-0.52363 -5.0699,-4.23166 -12.43003,-8.24005 -33.42686,-18.204458 -71.13572,-41.376483 -72.11508,-44.314528 -0.74745,-2.242403 1.32587,-1.763785 6.78714,1.566728 23.28051,14.197404 105.85056,60.93515 123.86975,70.11494 11.48464,5.85078 30.25064,16.75089 41.70224,24.22247 11.45158,7.47161 31.28868,19.5585 44.08242,26.85978 21.814,12.44906 90.0974,51.53512 90.91967,52.04329 0.82921,0.51245 1.87767,232.2748 1.35016,298.45906 l -0.56472,70.85504 -13.34074,7.7344 c -45.84113,26.57675 -75.71341,43.79114 -89.90495,51.8091 -8.93248,5.0467 -22.19508,13.28124 -29.47244,18.29901 -7.27735,5.01774 -28.01728,16.96294 -46.0887,26.54489 -18.07143,9.58194 -41.35084,22.43605 -51.73202,28.56468 -42.04829,24.82375 -75.93566,44.35539 -76.95643,44.35539 -0.59494,0 -1.08168,-0.88907 -1.08168,-1.97575 z m 303.91944,-481.19083 -0.0163,-49.3027 -10.66153,18.56102 c -9.84202,17.13435 -10.44732,19.09601 -7.87494,25.5214 5.36248,13.39468 16.25085,47.59433 16.25085,51.04292 0,1.91404 0.52202,3.48007 1.16006,3.48007 0.63803,0 1.15228,-22.1862 1.14279,-49.30271 z m -5.19727,-56.45066 c -0.63892,-0.63893 -10.05307,-0.85809 -20.92033,-0.48705 l -19.7587,0.67461 10.50152,18.16664 10.50153,18.16662 10.41883,-17.67957 c 5.73035,-9.72378 9.89606,-18.20234 9.25715,-18.84125 z M 202.37652,625.19696 c 0.0666,-16.46881 0.92909,-17.28164 21.60203,-20.35586 10.43269,-1.55141 39.32765,-8.11109 64.21101,-14.577 71.97341,-18.70227 110.5706,-17.93569 143.26788,2.84549 9.80017,6.22862 5.94271,9.22062 -5.41211,4.19785 -25.60173,-11.32484 -59.17917,-7.76721 -115.4213,12.22933 -56.51661,20.09411 -59.59852,20.90509 -84.49789,22.23475 l -23.7813,1.26998 z m 429.19192,2.58229 c -8.29446,-2.37841 -29.69763,-9.71298 -47.56262,-16.29902 -56.18993,-20.71482 -86.99652,-25.04598 -115.21965,-16.19896 -17.36524,5.44345 -15.86754,5.21721 -15.86754,2.397 0,-1.25028 5.32671,-5.31541 11.83713,-9.03368 22.85728,-13.05434 73.27555,-15.43372 109.96956,-5.18979 43.94302,12.26762 71.41361,18.79873 89.69697,21.32534 l 20.09314,2.7767 0.97542,10.69811 c 0.53648,5.88397 0.56845,11.48115 0.071,12.43819 -1.7749,3.41505 -38.9113,1.41091 -53.99346,-2.91389 z m -444.88447,-7.01894 c -8.85925,-3.561 -6.21911,-16.15958 3.01641,-14.39409 4.69792,0.89804 5.68408,2.44848 5.68408,8.93655 0,8.36501 -0.57294,8.7244 -8.70049,5.45754 z m 507.07788,-5.81097 c -0.7674,-6.5734 -0.10327,-7.8343 4.5997,-8.73333 5.47376,-1.04637 6.60823,0.18561 7.92077,8.60225 0.4851,3.11056 -1.13982,4.9297 -5.46665,6.11994 -5.66501,1.5584 -6.22857,1.07992 -7.05382,-5.98886 z m -504.1777,-16.00217 c -1.27608,-0.5147 -6.23536,-1.59068 -11.02062,-2.39103 -7.4208,-1.24117 -8.70047,-2.33264 -8.70047,-7.42098 0,-5.12685 0.7341,-5.73472 5.22029,-4.32267 2.87116,0.90371 14.29019,2.19412 25.37563,2.86756 19.7318,1.19869 20.2803,1.08961 26.10142,-5.19152 3.27036,-3.52875 5.9461,-5.33112 5.9461,-4.00523 0,5.61039 9.29905,4.57818 47.35104,-5.25596 22.12841,-5.71886 41.4807,-10.39792 43.00513,-10.39792 1.52953,0 2.4394,2.27258 2.03027,5.07098 -0.66629,4.55733 -5.6765,6.31913 -49.46408,17.39366 -43.01243,10.87846 -78.66555,16.54889 -85.84471,13.65311 z m 465.18556,-3.43809 c -10.84658,-2.42258 -35.38194,-8.51777 -54.523,-13.54492 -30.40185,-7.98463 -34.89564,-9.77205 -35.54329,-14.13748 -0.40777,-2.74851 -0.10467,-4.99726 0.67361,-4.99726 0.77825,0 20.41112,4.77041 43.62857,10.6009 l 42.21356,10.60091 4.09539,-5.05763 c 3.08086,-3.80467 4.09542,-4.16437 4.09542,-1.45195 0,9.67171 24.05572,14.01678 47.50401,8.58044 9.23936,-2.14211 12.69532,-0.50969 12.7838,6.03835 0.0963,7.12635 -39.01768,9.15567 -64.92807,3.36864 z M 429.71734,582.50833 c -15.13057,-8.75945 -35.75075,-13.18059 -61.68579,-13.22594 -14.14809,-0.0248 -27.89765,0.64495 -30.55457,1.48822 -3.64648,1.15735 -5.21296,0.32904 -6.38977,-3.37882 -0.85747,-2.70163 -1.05266,-5.41844 -0.43378,-6.03735 2.80331,-2.80329 34.37579,-5.6197 47.69304,-4.25441 25.15125,2.57846 58.33126,17.07177 58.33126,25.47956 0,4.12231 0.28848,4.12526 -6.96039,-0.0712 z m 23.20129,-0.10466 c 0,-8.39227 30.79661,-22.09052 57.08246,-25.39011 10.41041,-1.30678 46.60634,2.00543 49.09334,4.49245 0.50932,0.50929 -0.26623,3.1537 -1.72339,5.87646 -1.87367,3.50096 -3.9885,4.52547 -7.22274,3.49894 -8.36859,-2.65608 -49.48336,-1.92334 -62.42777,1.11259 -7.01839,1.64606 -17.71996,5.43463 -23.78131,8.41903 -8.8362,4.35065 -11.02059,4.74521 -11.02059,1.99064 z M 183.9502,578.86648 c -5.65082,-1.10856 -11.04153,-2.82126 -11.9794,-3.80601 -0.93785,-0.98478 0.68356,-13.27512 3.60314,-27.31189 20.11396,-96.70399 38.37154,-240.035 38.37154,-301.23566 v -18.4126 l 10.7644,1.47544 c 5.92042,0.81145 20.376,1.47541 32.12354,1.47541 h 21.35916 l 2.22452,17.981 c 2.40058,19.40382 2.75783,19.20415 9.33989,-5.22029 3.83107,-14.21617 5.1032,-16.32663 10.20409,-16.92861 4.6925,-0.5538 6.5915,0.91468 9.7511,7.54041 2.15804,4.52546 4.80619,8.22814 5.88478,8.22814 1.07859,0 4.3883,-5.18228 7.35494,-11.51614 l 5.39387,-11.51614 21.80848,-5.03949 c 27.61729,-6.38178 55.90373,-5.42432 74.3428,2.51646 l 12.18068,5.24558 v 173.74369 173.7437 l -12.19494,-6.88241 c -31.94368,-18.02788 -63.57859,-18.10676 -132.44209,-0.33018 -48.43053,12.50199 -54.88619,13.54992 -54.90689,8.91301 -0.0292,-6.56311 -5.12929,-20.71076 -6.79125,-18.83918 -0.98573,1.11004 -3.15015,7.06418 -4.80984,13.23143 -4.15994,15.45789 -13.67354,18.4194 -41.58252,12.94432 z m 486.81578,0.98923 c -2.19861,-0.58816 -5.4388,-6.65721 -7.90777,-14.81169 -2.3006,-7.59838 -4.96989,-13.81523 -5.93177,-13.81523 -0.96188,0 -2.41393,3.93656 -3.22681,8.74795 -2.87712,17.02952 -0.65862,16.89065 -53.94656,3.37743 -71.52284,-18.13734 -100.76736,-18.53308 -132.33365,-1.79074 l -14.50079,7.69102 V 395.3821 221.50974 l 11.02059,-5.08983 c 15.26072,-7.04811 61.84474,-7.16854 82.94456,-0.21438 12.74806,4.20153 14.35865,5.50871 19.11854,15.51718 2.85874,6.01104 6.05856,10.92918 7.11067,10.92918 1.05213,0 3.65553,-3.65421 5.78533,-8.12046 7.62775,-15.99554 16.24825,-9.07776 22.51211,18.06554 3.22261,13.9645 6.85327,14.07226 6.92121,0.20533 0.0185,-3.98772 0.66403,-10.39294 1.43222,-14.23381 l 1.39668,-6.98343 30.50507,-1.04495 c 16.77777,-0.57468 30.6568,-0.95584 30.84227,-0.84698 0.18539,0.10884 1.51952,20.035 2.96458,44.28033 4.37357,73.38055 17.39807,172.45097 32.88896,250.16859 5.04256,25.29855 9.40311,47.20407 9.69006,48.6789 0.94801,4.87221 -35.24278,10.25631 -47.2855,7.03468 z m -481.20462,-244.0688 0.0232,-83.8431 5.80031,0.0296 c 11.62036,0.0596 11.64609,0.21578 8.03534,48.75492 -3.01778,40.56824 -7.99798,85.00256 -12.31498,109.87677 -0.86144,4.9636 -1.55601,-28.70468 -1.54346,-74.81838 z m 508.49154,75.68573 c -0.7461,-2.97264 -2.42007,-14.24488 -3.71997,-25.04942 -1.2999,-10.80453 -3.87072,-32.17327 -5.71295,-47.48611 -1.8422,-15.31285 -4.09637,-40.21679 -5.00923,-55.34213 -1.78507,-29.5776 -1.15683,-31.55141 10.06663,-31.62714 l 5.2658,-0.0355 -1.36969,41.18227 c -0.75333,22.65025 -0.42209,59.45328 0.73611,81.78451 1.15818,22.33121 1.87944,40.91187 1.60282,41.2903 -0.27666,0.37844 -1.11344,-1.74409 -1.85952,-4.71675 z M 802.5547,227.81893 c -0.94939,-2.41576 -1.17955,-4.93889 -0.5115,-5.60695 2.11609,-2.11609 3.97801,1.35161 3.09132,5.75744 -0.8126,4.03778 -0.93671,4.03055 -2.57982,-0.15058 z m -12.66126,-20.1565 c -7.87883,-11.90655 -7.88052,-15.17617 -0.002,-6.19289 4.4198,5.04035 9.54079,15.62082 8.20636,16.95524 -0.35794,0.35796 -4.04938,-4.4851 -8.20316,-10.76235 z"
       id="path1" /></g></svg>
