<?xml version="1.0" encoding="UTF-8" standalone="no"?>
<svg
   xml:space="preserve"
   width="872"
   height="1209"
   viewBox="0 0 872 1209"
   version="1.1"
   id="svg1"
   sodipodi:docname="spiritual.svg"
   inkscape:version="1.4.2 (f4327f4, 2025-05-13)"
   xmlns:inkscape="http://www.inkscape.org/namespaces/inkscape"
   xmlns:sodipodi="http://sodipodi.sourceforge.net/DTD/sodipodi-0.dtd"
   xmlns="http://www.w3.org/2000/svg"
   xmlns:svg="http://www.w3.org/2000/svg"><defs
     id="defs1" /><sodipodi:namedview
     id="namedview1"
     pagecolor="#ffffff"
     bordercolor="#000000"
     borderopacity="0.25"
     inkscape:showpageshadow="2"
     inkscape:pageopacity="0.0"
     inkscape:pagecheckerboard="0"
     inkscape:deskcolor="#d1d1d1"
     inkscape:zoom="0.32817773"
     inkscape:cx="-1273.7001"
     inkscape:cy="1007.0763"
     inkscape:window-width="3440"
     inkscape:window-height="1369"
     inkscape:window-x="1737"
     inkscape:window-y="1432"
     inkscape:window-maximized="1"
     inkscape:current-layer="svg1" /><circle
     cx="438.49899"
     cy="780.88"
     r="417.83801"
     style="fill:none;stroke:#000000;stroke-width:18;stroke-dasharray:none;stroke-opacity:1"
     id="circle1" /><path
     style="fill:#000000;stroke-width:2.4781"
     d="m 95.136139,520.6992 c -3.25171,-7.83697 -6.12154,-15.92176 -6.37738,-17.96619 -0.25584,-2.04443 -2.71084,-10.408 -5.45555,-18.58572 -9.01363,-26.85562 -11.63246,-49.80405 -11.59464,-101.60193 0.0377,-51.58518 2.27457,-70.93636 11.74464,-101.60193 2.94633,-9.54066 5.50117,-18.46181 5.67744,-19.82476 0.68304,-5.28151 15.904101,-40.4142 22.012181,-50.80769 2.80563,-4.77404 7.88899,-14.03984 11.29638,-20.59067 3.40738,-6.55083 10.09824,-16.82656 14.86857,-22.83497 4.77033,-6.0084 12.57634,-16.06344 17.34667,-22.34452 11.1866,-14.72937 46.51773,-48.386637 61.47529,-58.562811 6.39569,-4.351231 12.18611,-8.677024 12.86759,-9.612872 3.53919,-4.860258 53.86691,-31.99676 73.10382,-39.417295 2.72591,-1.051503 7.74405,-3.132214 11.15143,-4.623802 3.40738,-1.491586 20.84089,-6.49868 38.74112,-11.126873 l 32.54587,-8.414897 59.14367,0.522472 c 45.64249,0.403201 62.67927,1.453296 74.63177,4.600074 8.51846,2.242684 22.05376,5.70817 30.07846,7.701079 8.02469,1.992912 20.77737,6.453484 28.3393,9.912383 7.56194,3.458901 15.42732,6.288909 17.47866,6.288909 2.05132,0 4.33203,0.974639 5.06825,2.165865 0.73622,1.191225 7.21411,4.954298 14.39531,8.362383 41.06009,19.486491 99.62745,69.739455 128.55731,110.306975 8.0297,11.25979 14.59943,21.09516 14.59943,21.85637 0,0.76122 3.34543,6.24644 7.43429,12.1894 4.08886,5.94295 7.43433,12.10501 7.43433,13.69347 0,1.58846 2.3637,6.20766 5.2527,10.26489 2.889,4.05723 6.6709,12.03537 8.4043,17.72921 3.0828,10.12638 6.8585,19.98477 11.6538,30.42782 1.315,2.86374 2.7798,8.43945 3.2552,12.39048 1.302,10.82126 3.6408,20.72121 8.1368,34.44273 3.251,9.92194 4.0598,23.00517 4.0597,65.66953 -10e-5,48.13605 -0.5673,55.43196 -5.8761,75.58193 -3.2318,12.26657 -6.165,24.7498 -6.5183,27.74049 -0.7955,6.73408 -15.626,45.78357 -18.5446,48.82883 -1.2324,1.28595 -8.73,-4.51658 -17.74961,-13.73688 -8.58871,-8.7798 -20.80946,-20.14643 -27.1572,-25.25918 -6.34774,-5.11276 -15.62707,-13.14925 -20.62073,-17.85887 -4.99366,-4.70962 -10.1622,-8.56296 -11.48563,-8.56296 -1.32343,0 -3.7531,-1.13086 -5.39928,-2.51299 -4.40811,-3.70114 -21.54359,-14.84977 -31.49112,-20.48865 -39.42675,-22.34952 -71.08869,-34.55826 -132.57812,-51.1217 -19.11997,-5.15035 -51.24668,-7.8996 -92.56734,-7.92151 -45.88843,-0.0248 -76.13461,3.07651 -104.44128,10.70718 -10.22214,2.75562 -22.08256,5.84843 -26.35646,6.87293 -19.19096,4.60026 -67.00734,25.36009 -98.7878,42.88944 -12.25651,6.7604 -43.36016,27.62304 -49.80162,33.40422 -2.62207,2.35327 -10.33155,8.72108 -17.13222,14.15067 -6.80064,5.42958 -19.1338,16.85979 -27.40699,25.40048 -8.27323,8.54068 -15.59523,15.52851 -16.27116,15.52851 -0.67592,0 -3.889441,-6.41207 -7.141151,-14.24905 z m 80.582131,-78.66987 c 64.24039,-43.06993 137.9287,-69.96896 214.64239,-78.35264 31.66588,-3.46061 102.53761,-1.50524 129.85678,3.58279 88.29082,16.44365 167.02619,53.01829 229.71369,106.70794 10.51567,9.00632 20.23022,16.37511 21.58782,16.37511 2.4524,0 3.7126,-3.80871 11.4784,-34.69334 6.1508,-24.46171 7.7094,-101.25678 2.6469,-130.41805 C 777.87305,280.46768 756.3515,226.84059 730.62661,188.13917 680.72951,113.07228 592.73317,55.148062 504.06596,39.003992 480.12894,34.645661 402.28452,34.583085 379.11038,38.903543 311.02777,51.596492 246.25231,86.206631 195.39405,137.06489 154.63054,177.82839 127.96318,220.88214 109.68427,275.441 89.722959,335.02153 87.805559,420.16087 105.15972,476.34706 l 5.05164,16.35536 19.12392,-16.19864 c 10.51817,-8.90925 31.39051,-24.42275 46.38299,-34.47445 z"
     id="path1" /><path
     style="fill:#000000;stroke-width:2.35431"
     d="m 198.29822,379.37883 c -29.40385,-12.83838 -39.41401,-21.64418 -41.39515,-36.41485 -1.64554,-12.26831 3.6099,-21.06609 18.3473,-30.71402 35.87099,-23.48321 121.92072,-40.97396 218.1485,-44.34165 40.2021,-1.40697 40.61176,-1.37119 40.61176,3.54832 0,4.59095 -1.48,5.03007 -19.42302,5.76277 l -19.42301,0.79318 19.61919,0.4792 c 14.48484,0.3538 19.36402,1.24937 18.64404,3.42209 -0.69231,2.0892 -11.50553,3.40567 -37.27649,4.53828 -73.19037,3.21663 -126.9996,17.10234 -124.12461,32.03087 1.14047,5.92207 20.42316,14.4989 42.76704,19.02253 11.24419,2.27644 19.7134,4.86957 18.82048,5.76249 -4.69354,4.69353 -38.24008,-1.60404 -55.52926,-10.42433 -17.59535,-8.97647 -17.34009,-23.56145 0.57233,-32.69969 9.19092,-4.68885 37.89183,-12.70307 52.94105,-14.78283 l 7.06291,-0.9761 -7.53197,-0.35274 c -20.71231,-0.97002 -77.88914,14.31598 -96.44522,25.78427 -22.81786,14.1022 -12.22219,31.67771 26.9577,44.71594 12.31487,4.09811 14.51838,5.53746 11.26485,7.35821 -4.87159,2.72628 -23.58615,-2.80148 -38.25113,-11.29836 -28.20106,-16.33963 -25.44677,-36.90755 7.05335,-52.67141 17.87247,-8.66886 15.27612,-8.94139 -11.43626,-1.20043 -42.69584,12.37276 -67.00699,28.01704 -67.00699,43.11912 0,13.10767 12.14889,23.00954 42.37748,34.53956 21.04868,8.02855 20.78811,7.85982 16.41195,10.6274 -4.65362,2.94305 -3.50225,3.2158 -23.75682,-5.62782 z M 353.40314,282.062 c -2.25093,-0.58925 -6.48868,-0.61064 -9.41722,-0.0476 -2.92853,0.56312 -1.08688,1.04526 4.09258,1.0714 5.17947,0.0262 7.57557,-0.43464 5.32464,-1.0239 z m 29.43374,-2.39397 c -2.89567,-0.55881 -8.19285,-0.5733 -11.77153,-0.032 -3.57869,0.54114 -1.20952,0.99836 5.26481,1.01605 6.47434,0.0165 9.40237,-0.4251 6.50672,-0.98392 z m 284.31807,105.32091 c -4.29002,-2.69115 -4.14298,-2.79375 11.70334,-8.16663 36.46055,-12.36233 52.47439,-27.23349 46.8133,-43.47289 -4.55236,-13.05886 -26.04097,-24.83644 -66.93914,-36.68823 -26.39331,-7.6485 -29.03849,-7.46473 -11.65727,0.80983 19.24167,9.16024 27.0745,17.42381 27.0745,28.56332 0,10.75104 -6.66633,18.57004 -22.6732,26.59366 -17.49565,8.76985 -27.62065,11.50141 -33.95135,9.15953 -4.96653,-1.83722 -3.92505,-2.61132 9.63656,-7.16256 19.49572,-6.54269 32.35099,-13.93946 38.39768,-22.09355 4.7952,-6.46642 4.79536,-6.48225 0.1271,-12.94867 -10.27543,-14.23357 -59.41963,-31.60288 -97.64379,-34.51077 l -17.49401,-1.33087 16.59878,3.19704 c 26.83501,5.16859 42.6376,10.49946 50.34233,16.98257 18.97488,15.96632 -0.65324,34.50171 -42.40013,40.03964 -21.7843,2.8898 -21.0559,-1.6845 1.01111,-6.3496 34.77892,-7.35245 49.96488,-19.47918 36.38237,-29.05311 -12.87217,-9.07318 -54.05098,-17.78677 -101.56652,-21.49185 -18.78113,-1.46448 -20.68572,-2.04966 -19.64342,-6.03541 0.98302,-3.75914 -0.20977,-4.4137 -8.04261,-4.4137 -6.6054,0 -9.1968,-0.99507 -9.1968,-3.53147 0,-4.60656 -4.44411,-4.50059 -9.67208,0.23072 -4.62967,4.1898 -9.16236,2.66205 -9.16236,-3.0882 0,-3.35307 4.49138,-3.60067 41.7889,-2.30376 86.0467,2.99206 162.78233,16.89465 204.71592,37.08948 27.00622,13.00593 36.99134,27.34158 30.26198,43.44714 -4.61988,11.05699 -12.03559,17.14013 -33.09628,27.14909 -22.90779,10.88674 -27.26012,12.17391 -31.71493,9.37935 z M 546.45611,282.062 c -2.25093,-0.58925 -6.48867,-0.61064 -9.41722,-0.0476 -2.92854,0.56312 -1.08688,1.04526 4.09258,1.0714 5.17947,0.0262 7.57557,-0.43464 5.32464,-1.0239 z m -25.9248,-2.42298 c -3.56088,-0.53944 -9.38779,-0.53944 -12.94867,0 -3.56089,0.53942 -0.64743,0.98078 6.47434,0.98078 7.12176,0 10.03522,-0.44136 6.47433,-0.98078 z m -171.27565,52.47002 c -23.15649,-5.31249 -31.83391,-10.88566 -30.19548,-19.39331 1.97648,-10.26307 29.10442,-19.93144 57.57658,-20.52021 19.9883,-0.41335 18.8663,4.62018 -1.47671,6.62473 -21.25015,2.09391 -42.55783,7.60824 -47.09313,12.18745 -3.14079,3.17118 -3.04485,3.92651 0.86711,6.82784 6.22824,4.6192 34.45264,10.63927 57.50949,12.26642 11.81795,0.83399 18.37909,2.16146 16.51771,3.34191 -4.60019,2.91729 -38.88545,2.06516 -53.70557,-1.33483 z m 136.54966,1.01095 c -2.54121,-1.64224 -0.23073,-2.29484 8.24007,-2.3272 16.15467,-0.0616 49.94584,-5.76249 60.6377,-10.22983 18.08167,-7.555 9.09379,-13.93203 -28.18369,-19.99664 -23.20944,-3.77591 -28.37102,-6.02206 -20.64835,-8.98553 5.60358,-2.15029 44.93174,5.27545 54.7072,10.32953 11.33705,5.86144 12.98964,14.39202 4.13713,21.35542 -12.1378,9.5476 -68.4753,16.58479 -78.89006,9.85425 z M 426.9477,291.91966 c -2.44864,-2.95041 -2.1087,-3.53146 2.06605,-3.53146 2.87213,0 4.99688,1.50163 4.99688,3.53146 0,1.9423 -0.92972,3.53146 -2.06605,3.53146 -1.13631,0 -3.3849,-1.58916 -4.99688,-3.53146 z m -20.01158,-1.17715 c -0.80027,-1.29487 0.19658,-2.35431 2.21535,-2.35431 2.01872,0 3.67041,1.05944 3.67041,2.35431 0,1.29487 -0.99691,2.35431 -2.21535,2.35431 -1.21844,0 -2.87013,-1.05944 -3.67041,-2.35431 z m 83.13638,-1.60824 c 1.6995,-0.68009 3.73011,-0.59647 4.51242,0.18575 0.78232,0.78231 -0.60821,1.33875 -3.09002,1.23652 -2.74264,-0.11306 -3.3005,-0.67083 -1.4224,-1.42238 z m -18.39301,-6.549 c 0,-2.34595 2.20317,-3.61428 6.27816,-3.61428 6.90197,0 6.81008,0.419 -0.98097,4.47254 -4.38986,2.28398 -5.29719,2.13699 -5.29719,-0.85826 z m -16.48013,-1.25998 c 0,-1.29487 1.05944,-2.3543 2.35431,-2.3543 1.29487,0 2.3543,1.05943 2.3543,2.3543 0,1.29487 -1.05943,2.35431 -2.3543,2.35431 -1.29487,0 -2.35431,-1.05944 -2.35431,-2.35431 z m -34.13741,-86.43722 c -56.77064,-7.85105 -104.76656,-44.37161 -104.76656,-79.71786 0,-8.52737 0.86738,-10.2028 6.47434,-12.50604 25.45827,-10.4578 104.99041,-16.44861 163.8539,-12.3424 41.20546,2.87439 70.30563,7.41331 81.04597,12.64115 17.73966,8.63474 -1.92244,49.42079 -33.51909,69.5303 -12.21078,7.7715 -41.79787,18.4926 -56.61793,20.51595 -6.45637,0.88144 -13.59287,2.11472 -15.85888,2.74056 -3.75031,1.03578 -4.11532,-1.25311 -4.06767,-25.50666 0.0424,-21.62248 0.81904,-27.62068 4.12003,-31.82319 5.41598,-6.89513 33.05505,-16.31085 53.50806,-18.22846 20.51945,-1.92382 48.26325,-8.0921 48.26325,-10.73036 0,-7.57368 -87.66542,-15.53807 -144.78973,-13.15413 -51.70561,2.15781 -90.64072,7.9007 -90.64072,13.36936 0,3.9934 39.73386,11.41683 61.6053,11.50966 15.75867,0.0669 31.10532,7.35626 38.26491,18.17511 5.68821,8.59545 5.88221,10.0297 4.47688,33.09705 -0.80793,13.26172 -2.1035,23.9535 -2.87907,23.75947 -0.77555,-0.19399 -4.58839,-0.79229 -8.47299,-1.32951 z"
     id="path3" /></svg>
