<?xml version="1.0" encoding="UTF-8" standalone="no"?>
<svg
   xml:space="preserve"
   width="872"
   height="889"
   viewBox="0 0 872 889"
   version="1.1"
   id="svg2"
   sodipodi:docname="spiritual_no_circle.svg"
   inkscape:version="1.4.2 (f4327f4, 2025-05-13)"
   xmlns:inkscape="http://www.inkscape.org/namespaces/inkscape"
   xmlns:sodipodi="http://sodipodi.sourceforge.net/DTD/sodipodi-0.dtd"
   xmlns="http://www.w3.org/2000/svg"
   xmlns:svg="http://www.w3.org/2000/svg"><defs
     id="defs2" /><sodipodi:namedview
     id="namedview2"
     pagecolor="#ffffff"
     bordercolor="#000000"
     borderopacity="0.25"
     inkscape:showpageshadow="2"
     inkscape:pageopacity="0.0"
     inkscape:pagecheckerboard="0"
     inkscape:deskcolor="#d1d1d1"
     inkscape:zoom="0.96526055"
     inkscape:cx="436.15167"
     inkscape:cy="604.5"
     inkscape:window-width="3440"
     inkscape:window-height="1369"
     inkscape:window-x="1737"
     inkscape:window-y="1432"
     inkscape:window-maximized="1"
     inkscape:current-layer="svg2" /><path
     d="m 95.136,520.7 c -3.252,-7.838 -6.121,-15.923 -6.377,-17.967 -0.256,-2.044 -2.711,-10.408 -5.456,-18.586 -9.013,-26.855 -11.632,-49.804 -11.594,-101.602 0.037,-51.585 2.274,-70.936 11.744,-101.602 2.947,-9.54 5.501,-18.461 5.678,-19.824 0.683,-5.282 15.904,-40.415 22.012,-50.808 2.805,-4.774 7.889,-14.04 11.296,-20.59 3.408,-6.552 10.098,-16.827 14.869,-22.836 a 1595,1595 0 0 0 17.346,-22.344 c 11.187,-14.73 46.518,-48.387 61.476,-58.563 6.395,-4.351 12.186,-8.677 12.867,-9.613 3.54,-4.86 53.867,-31.997 73.104,-39.417 2.726,-1.052 7.744,-3.132 11.152,-4.624 3.408,-1.492 20.84,-6.499 38.74,-11.127 l 32.547,-8.415 59.143,0.523 c 45.643,0.403 62.68,1.453 74.632,4.6 a 2689,2689 0 0 0 30.078,7.7 c 8.025,1.994 20.778,6.454 28.34,9.913 7.562,3.459 15.427,6.29 17.478,6.29 2.051,0 4.332,0.974 5.069,2.165 0.736,1.191 7.214,4.954 14.395,8.362 41.06,19.487 99.627,69.74 128.557,110.307 8.03,11.26 14.6,21.096 14.6,21.857 0,0.761 3.345,6.246 7.434,12.19 4.089,5.942 7.434,12.104 7.434,13.693 0,1.588 2.364,6.207 5.253,10.265 2.89,4.057 6.671,12.035 8.404,17.729 3.083,10.126 6.859,19.985 11.654,30.428 1.315,2.863 2.78,8.439 3.255,12.39 1.302,10.821 3.641,20.721 8.137,34.443 3.251,9.922 4.06,23.005 4.06,65.67 0,48.135 -0.567,55.431 -5.876,75.581 -3.232,12.267 -6.165,24.75 -6.519,27.74 -0.795,6.735 -15.626,45.784 -18.544,48.83 -1.233,1.286 -8.73,-4.517 -17.75,-13.737 -8.588,-8.78 -20.81,-20.147 -27.157,-25.26 -6.348,-5.112 -15.627,-13.149 -20.62,-17.858 -4.993,-4.709 -10.163,-8.563 -11.486,-8.563 -1.323,0 -3.753,-1.131 -5.4,-2.513 -4.408,-3.701 -21.543,-14.85 -31.49,-20.489 -39.427,-22.35 -71.09,-34.558 -132.579,-51.122 -19.12,-5.15 -51.247,-7.9 -92.567,-7.921 -45.889,-0.025 -76.135,3.076 -104.441,10.707 -10.223,2.756 -22.083,5.848 -26.357,6.873 -19.19,4.6 -67.007,25.36 -98.788,42.89 -12.256,6.76 -43.36,27.622 -49.801,33.404 -2.622,2.353 -10.332,8.72 -17.133,14.15 -6.801,5.43 -19.133,16.86 -27.407,25.4 -8.273,8.541 -15.595,15.53 -16.27,15.53 -0.677,0 -3.89,-6.413 -7.142,-14.25 m 80.582,-78.67 c 64.24,-43.07 137.929,-69.97 214.643,-78.353 31.666,-3.46 102.537,-1.506 129.856,3.582 88.291,16.444 167.027,53.019 229.714,106.708 10.516,9.007 20.23,16.376 21.588,16.376 2.452,0 3.713,-3.81 11.478,-34.694 6.151,-24.462 7.71,-101.257 2.647,-130.418 -7.77,-44.763 -29.293,-98.39 -55.017,-137.092 C 680.73,113.072 592.733,55.15 504.066,39.004 c -23.937,-4.358 -101.781,-4.42 -124.956,-0.1 -68.082,12.692 -132.858,47.303 -183.716,98.16 -40.763,40.764 -67.43,83.818 -85.71,138.377 -19.961,59.58 -21.878,144.72 -4.524,200.906 l 5.051,16.355 19.124,-16.198 c 10.518,-8.91 31.39,-24.423 46.383,-34.475"
     style="fill:#000000;stroke-width:2.4781"
     id="path1" /><path
     d="m 198.298,379.379 c -29.404,-12.839 -39.414,-21.644 -41.395,-36.415 -1.645,-12.268 3.61,-21.066 18.347,-30.714 35.871,-23.483 121.921,-40.974 218.149,-44.342 40.202,-1.407 40.612,-1.37 40.612,3.549 0,4.59 -1.48,5.03 -19.423,5.762 l -19.423,0.794 19.619,0.479 c 14.485,0.354 19.364,1.25 18.644,3.422 -0.692,2.09 -11.506,3.406 -37.277,4.538 -73.19,3.217 -127,17.102 -124.124,32.031 1.14,5.922 20.423,14.499 42.767,19.023 11.244,2.276 19.713,4.87 18.82,5.762 -4.693,4.694 -38.24,-1.604 -55.529,-10.424 -17.595,-8.977 -17.34,-23.562 0.572,-32.7 9.191,-4.689 37.892,-12.703 52.941,-14.783 l 7.063,-0.976 -7.532,-0.353 c -20.712,-0.97 -77.889,14.316 -96.445,25.785 -22.818,14.102 -12.222,31.677 26.958,44.716 12.315,4.098 14.518,5.537 11.265,7.358 -4.872,2.726 -23.587,-2.802 -38.251,-11.299 -28.202,-16.34 -25.447,-36.907 7.053,-52.671 17.872,-8.669 15.276,-8.941 -11.436,-1.2 -42.696,12.372 -67.007,28.017 -67.007,43.119 0,13.107 12.148,23.01 42.377,34.54 21.049,8.028 20.788,7.86 16.412,10.627 -4.654,2.943 -3.502,3.215 -23.757,-5.628 m 155.105,-97.317 c -2.25,-0.59 -6.489,-0.61 -9.417,-0.048 -2.929,0.564 -1.087,1.046 4.093,1.072 5.18,0.026 7.575,-0.435 5.324,-1.024 m 29.434,-2.394 c -2.896,-0.559 -8.193,-0.573 -11.772,-0.032 -3.578,0.541 -1.21,0.998 5.265,1.016 6.475,0.017 9.403,-0.425 6.507,-0.984 m 284.318,105.32 c -4.29,-2.69 -4.143,-2.793 11.703,-8.166 36.46,-12.362 52.475,-27.233 46.814,-43.473 -4.553,-13.058 -26.041,-24.836 -66.94,-36.688 -26.393,-7.648 -29.038,-7.465 -11.657,0.81 19.242,9.16 27.075,17.424 27.075,28.563 0,10.751 -6.667,18.57 -22.674,26.594 -17.495,8.77 -27.62,11.501 -33.95,9.16 -4.967,-1.838 -3.926,-2.612 9.636,-7.163 19.495,-6.543 32.35,-13.94 38.397,-22.094 4.796,-6.466 4.796,-6.482 0.127,-12.948 -10.275,-14.234 -59.42,-31.603 -97.643,-34.511 l -17.494,-1.33 16.598,3.196 c 26.835,5.169 42.638,10.5 50.343,16.983 18.975,15.966 -0.653,34.501 -42.4,40.04 -21.785,2.89 -21.056,-1.685 1.01,-6.35 34.78,-7.353 49.966,-19.48 36.383,-29.053 -12.872,-9.074 -54.05,-17.787 -101.566,-21.492 -18.782,-1.465 -20.686,-2.05 -19.644,-6.036 0.983,-3.759 -0.21,-4.413 -8.042,-4.413 -6.606,0 -9.197,-0.995 -9.197,-3.532 0,-4.606 -4.444,-4.5 -9.672,0.23 -4.63,4.19 -9.163,2.663 -9.163,-3.087 0,-3.353 4.492,-3.6 41.79,-2.304 86.046,2.992 162.782,16.895 204.715,37.09 27.006,13.005 36.992,27.341 30.262,43.447 -4.62,11.057 -12.035,17.14 -33.096,27.149 -22.908,10.886 -27.26,12.174 -31.715,9.379 z M 546.456,282.063 c -2.25,-0.59 -6.489,-0.61 -9.417,-0.048 -2.929,0.564 -1.087,1.046 4.092,1.072 5.18,0.026 7.576,-0.435 5.325,-1.024 m -25.925,-2.423 c -3.56,-0.54 -9.387,-0.54 -12.948,0 -3.561,0.54 -0.648,0.98 6.474,0.98 7.122,0 10.035,-0.44 6.474,-0.98 m -171.275,52.47 c -23.157,-5.312 -31.834,-10.886 -30.196,-19.393 1.977,-10.263 29.105,-19.932 57.577,-20.52 19.988,-0.414 18.866,4.62 -1.477,6.624 -21.25,2.094 -42.558,7.608 -47.093,12.188 -3.14,3.17 -3.045,3.926 0.867,6.828 6.228,4.619 34.453,10.639 57.51,12.266 11.817,0.834 18.379,2.161 16.517,3.342 -4.6,2.917 -38.885,2.065 -53.705,-1.335 m 136.55,1.011 c -2.542,-1.642 -0.231,-2.295 8.24,-2.327 16.154,-0.062 49.945,-5.763 60.637,-10.23 18.082,-7.555 9.094,-13.932 -28.184,-19.997 -23.209,-3.776 -28.37,-6.022 -20.648,-8.985 5.604,-2.15 44.932,5.275 54.707,10.33 11.337,5.86 12.99,14.391 4.137,21.355 -12.137,9.547 -68.475,16.585 -78.89,9.854 m -58.858,-41.2 c -2.449,-2.95 -2.109,-3.532 2.066,-3.532 2.872,0 4.997,1.502 4.997,3.532 0,1.942 -0.93,3.531 -2.066,3.531 -1.137,0 -3.385,-1.589 -4.997,-3.531 m -20.012,-1.177 c -0.8,-1.295 0.197,-2.355 2.215,-2.355 2.02,0 3.67,1.06 3.67,2.355 0,1.295 -0.996,2.354 -2.214,2.354 -1.219,0 -2.87,-1.06 -3.67,-2.354 m 83.137,-1.609 c 1.699,-0.68 3.73,-0.596 4.512,0.186 0.782,0.782 -0.608,1.339 -3.09,1.237 -2.743,-0.114 -3.3,-0.671 -1.422,-1.423 m -18.394,-6.549 c 0,-2.346 2.204,-3.614 6.279,-3.614 6.902,0 6.81,0.419 -0.981,4.473 -4.39,2.284 -5.298,2.137 -5.298,-0.859 m -16.48,-1.26 a 2.36,2.36 0 0 1 2.355,-2.354 2.36,2.36 0 0 1 2.354,2.354 2.36,2.36 0 0 1 -2.354,2.355 2.36,2.36 0 0 1 -2.355,-2.355 m -34.137,-86.437 c -56.77,-7.851 -104.767,-44.372 -104.767,-79.718 0,-8.527 0.868,-10.203 6.475,-12.506 25.458,-10.458 104.99,-16.448 163.854,-12.342 41.205,2.874 70.305,7.413 81.046,12.64 17.74,8.636 -1.923,49.422 -33.52,69.531 -12.21,7.772 -41.797,18.493 -56.617,20.516 -6.457,0.882 -13.593,2.115 -15.86,2.74 -3.75,1.037 -4.115,-1.252 -4.067,-25.506 0.042,-21.622 0.82,-27.62 4.12,-31.823 5.416,-6.895 33.055,-16.311 53.508,-18.229 20.52,-1.923 48.263,-8.092 48.263,-10.73 0,-7.574 -87.665,-15.538 -144.79,-13.154 -51.705,2.158 -90.64,7.9 -90.64,13.37 0,3.993 39.734,11.416 61.605,11.509 15.759,0.067 31.106,7.356 38.265,18.175 5.688,8.596 5.882,10.03 4.477,33.097 -0.808,13.262 -2.103,23.954 -2.88,23.76 -0.775,-0.194 -4.587,-0.793 -8.472,-1.33"
     style="fill:#000000;stroke-width:2.35431"
     id="path2" /></svg>
