<svg xmlns="http://www.w3.org/2000/svg" xml:space="preserve" width="872" height="889" viewBox="0 0 872 889"><circle cx="438.499" cy="448.88" r="417.838" style="fill:none;stroke:#000;stroke-width:18;stroke-dasharray:none;stroke-opacity:1"/><path d="M378.798 798.167c-71.75-12.38-136.958-46.285-191.347-99.494l-28.354-27.738 12.088-14.437c19.11-22.824 61.089-57.615 83.02-68.803 6.951-3.547 14.42-8.23 16.6-10.409 2.178-2.178 5.066-3.96 6.417-3.96 1.352 0 10.704-3.817 20.782-8.482 24.482-11.331 77.86-24.74 108.724-27.31l25.006-2.084v266.79l-16.453-.308c-9.05-.17-25.467-1.864-36.483-3.764m67.243-129.282V535.531l23.607 2.083c62.353 5.499 127.7 30.197 178.841 67.594 19.786 14.469 66.526 59.407 66.526 63.962 0 6.762-51.204 54.23-77.259 71.622-55.24 36.874-126.22 61.142-179.554 61.39l-12.16.057zm-311.623-35.47-8.803-14.307h12.98c21.001 0 33.333-16.322 22.826-30.213-6.996-9.25-5.574-12.66 3.804-9.12 6.889 2.6 9.562 2.111 16.85-3.079 8.505-6.055 13.977-18.148 10.65-23.532-.929-1.501-.432-2.73 1.104-2.73 1.535 0 3.248 1.369 3.806 3.042s4.85 3.465 9.538 3.982c6.904.762 10.563-1.266 19.254-10.671 5.902-6.387 10.73-14.067 10.73-17.067 0-5.244.29-5.226 7.54.477 18.856 14.832 49.59-1.855 49.683-26.976l.032-8.584 8.716 9.3c11.466 12.232 24.974 12.775 35.583 1.43 4.048-4.328 8.153-10.97 9.124-14.759 1.487-5.805 2.261-6.216 4.918-2.613 4.821 6.538 14.696 10.934 24.563 10.934 10.7 0 22.942-11.765 22.942-22.048 0-3.874 1.256-6.128 2.862-5.136 1.574.973 2.861 4.207 2.861 7.188 0 15.115 12.963 27.048 21.598 19.882 3.477-2.886 4.155-2.029 4.155 5.258 0 8.665-.095 8.716-19.315 10.504-34.877 3.245-58.976 7.85-86.186 16.467-63.016 19.96-105.742 45.728-156.623 94.462-12.758 12.219-23.915 22.216-24.792 22.216s-5.558-6.438-10.4-14.307m583.131 3.577c-44.251-48.207-99.299-83.418-164.205-105.034-27.091-9.023-48.515-13.2-89.419-17.433-16.503-1.708-17.884-2.386-17.884-8.778 0-5.82 1.063-6.66 6.65-5.258 8.15 2.045 12.582-2.785 17.756-19.354 2.58-8.26 3.888-10.082 4.017-5.593.105 3.662 3.955 10.422 8.555 15.023 10.993 10.992 25.966 11.492 36.248 1.21 8.6-8.6 9.755-8.795 9.755-1.65 0 3.027 3.334 9.465 7.408 14.307 10.402 12.362 26.208 12.457 36.505.22 3.973-4.722 7.95-8.585 8.839-8.585.888 0 1.615 4.636 1.615 10.301 0 13.643 15.268 29.76 28.194 29.76 10.373 0 23.266-5.372 23.424-9.76.061-1.714 1.885.746 4.052 5.467 10.862 23.661 30.804 33.99 40.074 20.755 4.3-6.14 4.406-6.032 4.406 4.498 0 17.628 20.485 31.806 30.903 21.388 2.67-2.67 3.434-2.072 3.434 2.693 0 3.369-1.288 6.922-2.861 7.894-4.998 3.089-3.098 17.498 3.038 23.052 3.244 2.936 11.566 6.033 18.491 6.881l12.592 1.543-8.482 13.592c-4.665 7.475-9.556 13.591-10.868 13.591s-6.82-4.828-12.237-10.73m-25.244-140.005c-.1-1.855-2.16-5.35-4.576-7.767-3.952-3.951-3.863-4.925.878-9.666 5.121-5.122 5.413-5.084 10.25 1.328 2.739 3.63 3.59 6.601 1.892 6.601s-4.252 2.897-5.675 6.438-2.67 4.92-2.77 3.066m-515.61-6.538c-4.327-4.77-4.27-5.481.793-9.816 5.082-4.35 5.886-4.275 11.643 1.088 5.23 4.874 5.44 5.762 1.353 5.762-2.658 0-4.832 1.931-4.832 4.292 0 5.561-3.129 5.098-8.957-1.326m-47.073-31.306c-5.387-4.48-5.369-4.686.948-10.902 3.54-3.485 6.438-4.915 6.438-3.177s1.965 4.596 4.366 6.352c3.857 2.82 3.746 3.724-.948 7.743-4.858 4.16-5.785 4.158-10.804-.017zm605.05-.17c-4.327-4.77-4.27-5.48.793-9.815 5.066-4.338 5.858-4.301 11.029.516 5.518 5.14 5.517 5.235-.111 10.053-6.652 5.696-5.81 5.75-11.711-.754m-328.69-15.89c-16.134-3.962-38.724-15.222-52.393-26.117-4.234-3.374-7.7-6.593-7.703-7.153-.002-.56 18.99-.375 42.206.412l42.211 1.43.852 17.884c.973 20.412 1.545 20.104-25.174 13.543m40.634-13.388.856-18.04 40.78-1.43c22.43-.787 40.779-.572 40.776.478-.002 1.05-7.715 7.058-17.138 13.35-17.123 11.435-34.786 18.421-55.26 21.858l-10.87 1.824zm-190.502 8.786c-4.262-4.979-4.234-5.78.373-10.388 4.75-4.748 5.237-4.748 10 .015 4.77 4.769 4.751 5.263-.373 10.387-5.266 5.267-5.478 5.266-10-.014m352.313.12c-6.126-6.71-6.267-8.346-.716-8.346 2.361 0 4.333-2.254 4.383-5.008.087-4.769.273-4.769 3.893 0 2.09 2.754 5.329 5.008 7.196 5.008 2.147 0 1.505 2.595-1.746 7.063-6.077 8.349-6.519 8.393-13.01 1.282m-243.221-38.856c1.967-.793 5.186-.793 7.154 0 1.967.794.357 1.444-3.577 1.444s-5.544-.65-3.577-1.444m138.833-.087c2.784-.726 6.647-.678 8.585.106 1.937.784-.341 1.377-5.062 1.319-4.722-.059-6.307-.7-3.523-1.425m-203.93-4.174C192.919 384.31 105.76 357.006 87.285 328.81c-13.978-21.334 4.832-45.299 48.292-61.526 9.443-3.526 19.744-7.575 22.892-8.998 10.882-4.918 71.672-17.565 108.018-22.471 45.847-6.189 49.05-1.934 8.67 11.519-77.08 25.679-101.412 63.304-64.347 99.499 18.014 17.59 69.593 37.675 119.188 46.41 27.408 4.828 27.957 5.061 11.601 4.922-9.442-.08-28.113-1.287-41.49-2.681m247.513-2.286c51.32-9.17 97.846-27.972 119.698-48.374 8.812-8.227 16.225-23.298 16.208-32.952-.012-6.884-9.342-23.51-17.579-31.324-10.414-9.88-44.156-27.1-65.47-33.412-20.773-6.152-28.535-10.011-28.535-14.188 0-3.409 59.258 4.933 100.15 14.099 67.946 15.23 108.316 34.294 118.624 56.017 4.695 9.894 4.736 11.424.547 20.21-9.981 20.93-55.687 43.3-113.449 55.526-50.45 10.678-53.78 11.22-96.142 15.669-54.966 5.772-70.273 5.201-34.052-1.27m-183.131-3.204c-33.396-3.85-38.078-5.295-43.964-13.562-10.571-14.845-15.415-38.89-14.163-70.304 1.025-25.735 2.228-31.188 10.808-48.978 18.7-38.775 61.592-71.172 99.394-75.074l15.168-1.565v212.545l-23.607-.376c-12.983-.207-32.62-1.415-43.636-2.686m81.55-103.209v-106.27l14.167 1.677c7.792.923 23.565 6.04 35.052 11.37 56.958 26.432 87.821 91.304 72.172 151.696-6.708 25.888-13.943 38.425-23.322 40.412-13.735 2.91-61.551 7.285-80.185 7.337l-17.884.05zm-204.962-109.7c-.92-2.397-3.466-4.358-5.658-4.358s-3.986-1.288-3.986-2.861 1.793-2.862 3.986-2.862c2.192 0 4.738-1.96 5.658-4.357 1.416-3.692 2.555-3.473 7.46 1.43l5.787 5.789-5.788 5.787c-4.904 4.904-6.043 5.123-7.46 1.431m389.153 0c-.92-2.397-3.466-4.358-5.658-4.358s-3.986-1.288-3.986-2.861 1.793-2.862 3.986-2.862c2.192 0 4.738-1.96 5.658-4.357 1.416-3.692 2.555-3.473 7.46 1.43l5.787 5.789-5.788 5.787c-4.904 4.904-6.043 5.123-7.46 1.431m-308.895-35.56c-5.387-4.48-5.369-4.685.948-10.902 3.54-3.485 6.438-4.914 6.438-3.177 0 1.738 1.965 4.596 4.366 6.352 3.857 2.82 3.746 3.724-.948 7.743-4.858 4.16-5.785 4.159-10.804-.017zm221.62-.17c-4.327-4.769-4.27-5.48.793-9.815 5.066-4.338 5.858-4.3 11.029.516 5.518 5.14 5.517 5.235-.111 10.054-6.652 5.695-5.81 5.75-11.711-.755" style="fill:#000;stroke-width:2.86142"/></svg>