<?xml version="1.0" encoding="UTF-8" standalone="no"?>
<!-- Created with Inkscape (http://www.inkscape.org/) -->

<svg
   version="1.1"
   id="svg1"
   width="872"
   height="889"
   viewBox="0 0 872 889"
   sodipodi:docname="starfarer.svg"
   inkscape:version="1.4.2 (f4327f4, 2025-05-13)"
   xml:space="preserve"
   xmlns:inkscape="http://www.inkscape.org/namespaces/inkscape"
   xmlns:sodipodi="http://sodipodi.sourceforge.net/DTD/sodipodi-0.dtd"
   xmlns="http://www.w3.org/2000/svg"
   xmlns:svg="http://www.w3.org/2000/svg"><defs
     id="defs1" /><sodipodi:namedview
     id="namedview1"
     pagecolor="#ffffff"
     bordercolor="#000000"
     borderopacity="0.25"
     inkscape:showpageshadow="2"
     inkscape:pageopacity="0.0"
     inkscape:pagecheckerboard="true"
     inkscape:deskcolor="#d1d1d1"
     inkscape:zoom="0.92822679"
     inkscape:cx="281.18128"
     inkscape:cy="244.01364"
     inkscape:window-width="1779"
     inkscape:window-height="1353"
     inkscape:window-x="-161"
     inkscape:window-y="62"
     inkscape:window-maximized="0"
     inkscape:current-layer="g1" /><g
     inkscape:groupmode="layer"
     inkscape:label="Image"
     id="g1"><circle
       style="fill:none;stroke:#000000;stroke-width:18;stroke-dasharray:none;stroke-opacity:1"
       id="path2"
       cx="438.49911"
       cy="448.88046"
       r="417.83762" /><path
       style="fill:#000000;stroke-width:2.86142"
       d="M 378.79778,798.16672 C 307.04742,785.7873 241.8398,751.88168 187.45094,698.67329 l -28.35357,-27.7382 12.08766,-14.4374 c 19.10919,-22.82383 61.08892,-57.61489 83.01936,-68.80294 6.95161,-3.54644 14.42155,-8.23034 16.59984,-10.40865 2.17827,-2.17828 5.06635,-3.9605 6.41793,-3.9605 1.35156,0 10.70353,-3.81681 20.78216,-8.48175 24.48142,-11.33133 77.86009,-24.73968 108.72354,-27.31061 l 25.00618,-2.083 v 133.39443 133.39445 l -16.45316,-0.30829 c -9.04924,-0.1694 -25.46663,-1.86338 -36.4831,-3.76411 z m 67.24335,-129.2814 V 535.53148 l 23.60671,2.08202 c 62.35356,5.49931 127.70008,30.19768 178.84138,67.59493 19.78586,14.46846 66.52532,59.40636 66.52532,63.96111 0,6.76238 -51.20338,54.23065 -77.25831,71.62254 -55.2409,36.8738 -126.21968,61.14178 -179.55406,61.39035 l -12.16104,0.0567 z M 134.41835,633.41539 125.61509,619.1083 h 12.98001 c 21.00139,0 33.33261,-16.3222 22.82583,-30.21336 -6.99631,-9.24996 -5.57385,-12.66028 3.80419,-9.12045 6.88867,2.60016 9.56142,2.11189 16.85035,-3.07828 8.50429,-6.05562 13.97635,-18.14799 10.64876,-23.53215 -0.92793,-1.50141 -0.43079,-2.72983 1.1047,-2.72983 1.53552,0 3.24805,1.36865 3.80566,3.04144 0.55761,1.67281 4.84972,3.46484 9.53804,3.98232 6.90454,0.76208 10.5632,-1.26561 19.25457,-10.67109 5.90169,-6.3866 10.73033,-14.06648 10.73033,-17.0664 0,-5.24446 0.29022,-5.22614 7.53945,0.47612 18.85575,14.83193 49.58939,-1.85506 49.68333,-26.97579 l 0.032,-8.58426 8.71606,9.29961 c 11.46545,12.23305 24.97315,12.77618 35.58309,1.43071 4.04732,-4.3279 8.15293,-10.96932 9.12361,-14.75869 1.48689,-5.80473 2.26141,-6.21633 4.91806,-2.61344 4.82124,6.53835 14.69557,10.93393 24.56242,10.93393 10.69991,0 22.94283,-11.76507 22.94283,-22.04735 0,-3.87442 1.25576,-6.12847 2.86143,-5.13613 1.57377,0.97265 2.86141,4.20714 2.86141,7.18777 0,15.11544 12.96285,27.04825 21.59797,19.88174 3.4773,-2.88591 4.15481,-2.02843 4.15481,5.25869 0,8.66414 -0.0947,8.71568 -19.31458,10.50364 -34.87717,3.24453 -58.97623,7.84901 -86.1862,16.46718 -63.01629,19.959 -105.74192,45.72728 -156.62365,94.4614 -12.75778,12.21927 -23.91416,22.21686 -24.79198,22.21686 -0.87783,0 -5.55751,-6.4382 -10.39929,-14.3071 z m 583.1308,3.57677 c -44.25138,-48.2069 -99.29891,-83.41835 -164.20481,-105.03443 -27.09176,-9.02256 -48.51519,-13.19921 -89.41933,-17.43285 -16.5029,-1.70806 -17.88388,-2.38593 -17.88388,-8.77811 0,-5.82039 1.06256,-6.66045 6.65051,-5.25795 8.15021,2.04557 12.58172,-2.78479 17.75525,-19.35332 2.57954,-8.26112 3.88795,-10.08298 4.01701,-5.59342 0.1053,3.66208 3.95528,10.42219 8.55558,15.02245 10.99275,10.99276 25.96574,11.49281 36.24797,1.21061 8.59931,-8.59931 9.75484,-8.79479 9.75484,-1.65026 0,3.02681 3.33355,9.465 7.4079,14.30709 10.40186,12.36189 26.20791,12.45693 36.50501,0.21948 3.97273,-4.72135 7.95011,-8.58426 8.83861,-8.58426 0.8885,0 1.61544,4.6355 1.61544,10.3011 0,13.64308 15.26799,29.75877 28.19342,29.75877 10.37347,0 23.26648,-5.37147 23.42412,-9.7589 0.0616,-1.71463 1.88525,0.74543 4.05254,5.46677 10.86155,23.66139 30.80359,33.98967 40.07363,20.75481 4.3002,-6.13939 4.40597,-6.03143 4.40597,4.4979 0,17.62813 20.48547,31.80627 30.90331,21.38842 2.67066,-2.67068 3.43371,-2.07233 3.43371,2.69253 0,3.36944 -1.28764,6.92206 -2.86141,7.89472 -4.99717,3.08842 -3.09794,17.49818 3.03817,23.0513 3.24475,2.93648 11.56594,6.03323 18.49151,6.88169 l 12.59196,1.54262 -8.48181,13.59173 c -4.66501,7.47546 -9.55588,13.59174 -10.8686,13.59174 -1.31272,0 -6.81921,-4.82863 -12.23662,-10.73031 z M 692.30456,496.98702 c -0.0999,-1.85482 -2.15884,-5.34985 -4.57569,-7.76672 -3.9515,-3.95148 -3.86305,-4.92562 0.87765,-9.66631 5.12168,-5.12171 5.4139,-5.08382 10.25075,1.32851 2.73832,3.63028 3.58952,6.60052 1.89155,6.60052 -1.69796,0 -4.25174,2.89718 -5.67505,6.43818 -1.42331,3.541 -2.66946,4.92062 -2.76921,3.06582 z m -515.60957,-6.53847 c -4.32673,-4.76903 -4.26922,-5.48058 0.79335,-9.81529 5.08128,-4.35072 5.8854,-4.27555 11.64265,1.08811 5.2309,4.87335 5.43944,5.76165 1.35269,5.76165 -2.65743,0 -4.83169,1.93146 -4.83169,4.29212 0,5.56085 -3.12881,5.09745 -8.957,-1.32659 z m -47.07338,-31.30562 c -5.38651,-4.48007 -5.36863,-4.68581 0.94807,-10.90219 3.541,-3.48479 6.43819,-4.91438 6.43819,-3.17686 0,1.73749 1.96485,4.59581 4.36635,6.35181 3.85657,2.82 3.74589,3.72402 -0.94806,7.7431 -4.85853,4.15999 -5.7854,4.15862 -10.80455,-0.0172 z m 605.05009,-0.16998 c -4.32671,-4.76907 -4.2692,-5.4806 0.79336,-9.81533 5.06636,-4.33794 5.85822,-4.30088 11.02858,0.51604 5.51801,5.14082 5.51698,5.23516 -0.11071,10.05376 -6.65173,5.69537 -5.81041,5.74959 -11.71119,-0.75447 z M 405.98127,443.08223 c -16.13331,-3.96126 -38.72336,-15.22158 -52.39257,-26.11579 -4.23346,-3.37409 -7.69966,-6.59318 -7.70265,-7.15355 -0.002,-0.56042 18.9897,-0.37509 42.20594,0.41181 l 42.21133,1.4307 0.85191,17.88388 c 0.97228,20.41136 1.54496,20.10326 -25.17396,13.54295 z m 40.63463,-13.38692 0.85594,-18.03991 40.78081,-1.4307 c 22.42943,-0.7869 40.77828,-0.57155 40.77522,0.4786 -0.002,1.05011 -7.71501,7.05746 -17.13767,13.34966 -17.12362,11.43471 -34.78659,18.42121 -55.25933,21.85755 l -10.87093,1.82471 z m -190.50147,8.78591 c -4.2629,-4.97876 -4.23414,-5.78084 0.37277,-10.38777 4.74892,-4.7489 5.23663,-4.74818 9.99989,0.0143 4.76904,4.76904 4.75127,5.2637 -0.37276,10.38774 -5.26606,5.26605 -5.4783,5.26574 -9.9999,-0.0143 z m 352.31224,0.11932 c -6.1259,-6.70935 -6.26619,-8.34582 -0.71536,-8.34582 2.36068,0 4.33308,-2.25337 4.38313,-5.00748 0.0867,-4.76905 0.27212,-4.76905 3.89224,0 2.09066,2.75411 5.3289,5.00748 7.19613,5.00748 2.14734,0 1.50567,2.59571 -1.74618,7.06361 -6.07635,8.34868 -6.51816,8.39223 -13.00996,1.28216 z M 365.20604,399.74545 c 1.96723,-0.79377 5.18632,-0.79377 7.15355,0 1.96722,0.79381 0.35768,1.44325 -3.57678,1.44325 -3.93444,0 -5.54398,-0.64944 -3.57677,-1.44325 z m 138.83328,-0.0878 c 2.78409,-0.72548 6.64699,-0.67777 8.58426,0.10613 1.93727,0.7838 -0.34058,1.3774 -5.06194,1.31908 -4.72134,-0.0584 -6.30639,-0.69961 -3.52232,-1.42513 z M 300.10875,395.4837 C 192.91828,384.31144 105.75997,357.00628 87.284909,328.80977 73.30667,307.47632 92.117045,283.51124 135.57716,267.28365 c 9.44268,-3.52581 19.74379,-7.57455 22.89135,-8.99718 10.8822,-4.91858 71.67283,-17.56505 108.01858,-22.47146 45.84705,-6.18899 49.0495,-1.9338 8.66906,11.51898 -77.0783,25.67865 -101.4112,63.30442 -64.3465,99.49851 18.01449,17.59135 69.59337,37.67579 119.18856,46.41111 27.40749,4.82735 27.95678,5.06036 11.60113,4.92117 -9.4427,-0.0804 -28.11344,-1.28686 -41.49059,-2.68112 z m 247.51276,-2.28544 c 51.32133,-9.16993 97.84646,-27.97226 119.69863,-48.37416 8.81223,-8.22738 16.22506,-23.29819 16.20808,-32.95232 -0.0118,-6.88403 -9.34222,-23.50909 -17.5791,-31.32367 -10.41413,-9.88022 -44.15586,-27.09985 -65.47104,-33.41228 -20.77185,-6.15151 -28.5345,-10.0111 -28.5345,-14.1874 0,-3.4094 59.25824,4.93271 100.14967,14.09861 67.94653,15.23043 108.31641,34.29394 118.62475,56.01714 4.695,9.89394 4.73636,11.42382 0.54683,20.2094 -9.98129,20.931 -55.68674,43.30106 -113.44875,55.52629 -50.45097,10.67785 -53.78102,11.22057 -96.14253,15.66917 -54.96604,5.77226 -70.27288,5.20103 -34.05204,-1.27078 z m -183.13082,-3.20378 c -33.39599,-3.85106 -38.07774,-5.29526 -43.96416,-13.56199 -10.57071,-14.84521 -15.41444,-38.88955 -14.16285,-70.30484 1.0253,-25.73492 2.22852,-31.18747 10.80818,-48.97788 18.69983,-38.77518 61.59184,-71.17208 99.39403,-75.07362 l 15.16815,-1.56549 v 106.27283 106.27283 l -23.60671,-0.37609 c -12.98368,-0.2069 -32.62017,-1.41544 -43.63664,-2.6858 z m 81.55044,-103.20922 v -106.2711 l 14.16692,1.67787 c 7.79178,0.9228 23.56536,6.03931 35.05238,11.36998 56.95718,26.43155 87.82106,91.30368 72.17178,151.69624 -6.70831,25.88823 -13.94313,38.4243 -23.32234,40.41157 -13.73445,2.91003 -61.55093,7.28525 -80.18486,7.33692 l -17.88388,0.0496 z M 241.07863,177.08409 c -0.91958,-2.39638 -3.46563,-4.35702 -5.65795,-4.35702 -2.19228,0 -3.98598,-1.28764 -3.98598,-2.86143 0,-1.57378 1.7937,-2.86143 3.98598,-2.86143 2.19232,0 4.73837,-1.96066 5.65795,-4.35701 1.41665,-3.69174 2.55567,-3.47331 7.45969,1.43072 l 5.78773,5.78772 -5.78773,5.78774 c -4.90402,4.90398 -6.04304,5.12245 -7.45969,1.43071 z m 389.15301,0 c -0.9196,-2.39638 -3.46565,-4.35702 -5.65796,-4.35702 -2.19228,0 -3.98598,-1.28764 -3.98598,-2.86143 0,-1.57378 1.7937,-2.86143 3.98598,-2.86143 2.19231,0 4.73836,-1.96066 5.65796,-4.35701 1.41665,-3.69174 2.55566,-3.47331 7.45968,1.43072 l 5.78773,5.78772 -5.78773,5.78774 c -4.90402,4.90398 -6.04303,5.12245 -7.45968,1.43071 z M 321.33667,141.52538 c -5.38649,-4.48006 -5.36861,-4.68579 0.94808,-10.90217 3.54101,-3.48478 6.4382,-4.91438 6.4382,-3.17687 0,1.73749 1.96485,4.59582 4.36636,6.35181 3.85656,2.82002 3.74585,3.72403 -0.94807,7.74312 -4.85853,4.15999 -5.7854,4.15861 -10.80457,-0.0172 z m 221.61995,-0.16996 c -4.32671,-4.76906 -4.2692,-5.48058 0.79336,-9.81532 5.06635,-4.33795 5.85823,-4.30089 11.02858,0.51602 5.51801,5.14083 5.51698,5.23518 -0.11072,10.05377 -6.65173,5.69537 -5.8104,5.7496 -11.71118,-0.75447 z"
       id="path1" /></g></svg>
