<?xml version="1.0" encoding="UTF-8" standalone="no"?>
<!-- Created with Inkscape (http://www.inkscape.org/) -->

<svg
   version="1.1"
   id="svg1"
   width="872"
   height="889"
   viewBox="0 0 872 889"
   sodipodi:docname="technocrat.svg"
   inkscape:version="1.4.2 (f4327f4, 2025-05-13)"
   xml:space="preserve"
   xmlns:inkscape="http://www.inkscape.org/namespaces/inkscape"
   xmlns:sodipodi="http://sodipodi.sourceforge.net/DTD/sodipodi-0.dtd"
   xmlns="http://www.w3.org/2000/svg"
   xmlns:svg="http://www.w3.org/2000/svg"><defs
     id="defs1" /><sodipodi:namedview
     id="namedview1"
     pagecolor="#ffffff"
     bordercolor="#000000"
     borderopacity="0.25"
     inkscape:showpageshadow="2"
     inkscape:pageopacity="0.0"
     inkscape:pagecheckerboard="true"
     inkscape:deskcolor="#d1d1d1"
     inkscape:zoom="0.92822679"
     inkscape:cx="-63.562053"
     inkscape:cy="244.01364"
     inkscape:window-width="3440"
     inkscape:window-height="1369"
     inkscape:window-x="-8"
     inkscape:window-y="-8"
     inkscape:window-maximized="1"
     inkscape:current-layer="g1" /><g
     inkscape:groupmode="layer"
     inkscape:label="Image"
     id="g1"><circle
       style="fill:none;stroke:#000000;stroke-width:18;stroke-dasharray:none;stroke-opacity:1"
       id="path2"
       cx="438.49911"
       cy="448.88046"
       r="417.83762" /><path
       style="fill:#000000;stroke-width:2.9526"
       d="m 392.89909,828.35937 c -12.79709,-6.6041 -16.76774,-10.11929 -15.68172,-13.88282 0.79983,-2.77176 2.35461,-14.00807 3.45508,-24.96959 1.1849,-11.80265 3.36563,-19.89197 5.34762,-19.83669 1.8407,0.0513 12.64745,5.03385 24.01495,11.07223 l 20.66818,10.97891 0.86234,22.88263 0.86235,22.88263 -11.19645,-0.14202 c -6.41283,-0.0812 -18.51762,-3.92023 -28.33235,-8.98528 z m 54.0434,-14.31018 v -23.43745 l 23.33281,-11.67845 23.33281,-11.67843 1.69925,12.23326 c 0.93459,6.72832 2.47117,18.87664 3.41468,26.99628 l 1.71543,14.76298 -17.95147,8.11965 c -9.8733,4.4658 -21.90969,8.11964 -26.7475,8.11964 h -8.79601 z m -39.86007,-52.29396 c -21.76951,-6.57345 -22.39893,-7.69485 -18.81123,-33.51466 1.69233,-12.17947 3.55156,-22.62195 4.13157,-23.20553 0.58,-0.58358 9.4349,2.13511 19.67752,6.04152 l 18.62292,7.10259 0.85755,24.22258 c 0.97669,27.58756 1.47801,27.19121 -24.47833,19.3535 z m 39.86007,-18.9177 v -23.7868 l 12.54853,-5.42331 c 21.43825,-9.26533 25.19525,-9.8191 26.89283,-3.96397 0.84361,2.90972 2.41622,14.09077 3.49465,24.84675 l 1.96086,19.55632 -18.59287,6.27891 c -10.22606,3.45339 -20.32786,6.2789 -22.44842,6.2789 -2.85333,0 -3.85558,-6.18339 -3.85558,-23.7868 z m -245.45917,-10.8221 c -10.7098,-1.13574 -10.75767,-1.20495 -28.78133,-41.60514 l -18.05369,-40.4675 -5.92417,-59.02498 c -3.25831,-32.46373 -6.7347,-64.33964 -7.7253,-70.83536 -3.37443,-22.12741 1.80529,-8.42836 21.30414,56.344 10.71445,35.59186 20.6642,66.15815 22.11056,67.92507 1.44637,1.76693 10.4224,5.572 19.94674,8.45574 18.59482,5.63007 29.99521,3.3031 29.99521,-6.12236 0,-4.29558 -25.2655,-42.11662 -54.98767,-82.31348 -7.20454,-9.74358 -15.01139,-20.40936 -17.34852,-23.70178 -2.33713,-3.29241 -7.72759,-21.89377 -11.97883,-41.33636 -6.25668,-28.61444 -7.36603,-39.53643 -5.82197,-57.32034 1.04912,-12.08361 2.70597,-23.26215 3.6819,-24.84123 0.97594,-1.57907 6.58142,17.63034 12.45665,42.68759 11.36836,48.48471 8.7383,43.02688 44.0965,91.50838 6.575,9.01528 11.65294,11.83271 33.65906,18.67527 14.25375,4.43202 26.90993,7.62638 28.12485,7.09853 7.35901,-3.19719 30.21009,-22.45372 31.66424,-26.68338 3.76316,-10.94596 -3.56117,-16.37789 -30.66323,-22.7407 -14.42786,-3.38724 -28.27947,-6.15865 -30.78138,-6.15865 -2.50189,0 -16.56308,-12.80098 -31.24702,-28.44662 l -26.69809,-28.44664 -13.10386,-40.77485 -13.10384,-40.77484 4.57136,-20.83273 c 2.51428,-11.45802 5.54303,-20.83275 6.73053,-20.83275 1.18754,0 2.99341,7.63984 4.013,16.97743 1.41494,12.95792 6.90843,26.95874 23.20311,59.13604 19.5906,38.68584 22.79212,43.27914 38.86586,55.76152 17.12917,13.302 18.07663,13.63345 42.83241,14.98421 36.10619,1.97007 52.56542,-4.72202 84.04775,-34.17274 13.16741,-12.3177 28.00543,-26.11778 32.97337,-30.66689 l 9.03262,-8.27104 12.46799,19.55673 12.46799,19.55671 -12.31561,24.02729 c -6.77355,13.215 -16.59947,31.9993 -21.83537,41.74287 -5.23588,9.74358 -17.90329,33.65962 -28.14974,53.14676 -10.24648,19.48713 -23.49919,41.41018 -29.45042,48.71785 -5.95125,7.30768 -28.4757,35.54189 -50.05437,62.7427 l -39.23397,49.45601 -15.12988,-0.49634 c -8.32145,-0.27311 -19.95734,-1.00828 -25.85758,-1.634 z m 25.12159,-23.84588 c 0.80065,-1.29548 0.21465,-4.28498 -1.30204,-6.64334 -2.41106,-3.74883 -3.10451,-3.74883 -5.51557,0 -2.92806,4.55269 -1.56549,8.99877 2.75779,8.99877 1.43224,0 3.25916,-1.05995 4.05982,-2.35543 z m 63.28399,-89.39653 c -0.5819,-1.74572 -2.32024,-3.17404 -3.86297,-3.17404 -1.54273,0 -3.28107,1.42832 -3.86297,3.17404 -0.58194,1.74572 1.15641,3.17404 3.86297,3.17404 2.70655,0 4.4449,-1.42832 3.86297,-3.17404 z m 60.7251,-93.66451 c 0.80065,-1.29548 0.21465,-4.28498 -1.30204,-6.64334 -2.41106,-3.74883 -3.1045,-3.74883 -5.51557,0 -2.92806,4.55269 -1.56549,8.99878 2.75779,8.99878 1.43224,0 3.25917,-1.05995 4.05982,-2.35544 z m 44.65804,-71.45949 c -1.42853,-2.31141 -3.12702,-2.48293 -5.09543,-0.51455 -1.62393,1.62392 -1.98831,4.51281 -0.80977,6.41974 1.42852,2.31141 3.127,2.48293 5.09541,0.51453 1.62393,-1.62394 1.98831,-4.51279 0.80979,-6.41972 z m 215.93998,250.23262 c -75.4325,-91.58157 -73.22829,-88.24921 -130.01262,-196.5544 -22.83798,-43.55911 -27.64068,-54.8324 -24.66519,-57.89607 2.03223,-2.09247 7.68097,-10.60718 12.55275,-18.92157 4.87179,-8.31442 9.68379,-14.81359 10.69335,-14.4426 1.00953,0.37099 15.6249,13.72577 32.47857,29.67726 39.83105,37.69894 48.4036,41.82739 86.89044,41.84559 l 29.67408,0.0148 18.57691,-14.76299 c 16.65888,-13.2387 20.55342,-18.5737 37.71946,-51.67046 13.89354,-26.78726 20.43566,-43.30349 23.85858,-60.23312 5.16006,-25.52155 6.38471,-24.8191 12.35391,7.08638 3.56116,19.03457 3.48595,19.49939 -9.17606,56.70879 -12.57936,36.96655 -13.1348,37.92715 -37.86372,65.48167 -13.80339,15.38061 -27.09008,28.62298 -29.52597,29.42747 -2.43589,0.80453 -17.46481,4.34995 -33.39763,7.87872 -25.93228,5.74345 -29.28034,7.2356 -31.94176,14.23568 -2.59371,6.82198 -1.8839,8.7637 5.56279,15.21757 22.44381,19.45156 25.46045,21.0444 36.15581,19.09093 5.68376,-1.0381 11.66276,-2.89106 13.2867,-4.11769 1.62392,-1.22663 9.26182,-3.93717 16.97312,-6.02347 13.01056,-3.52004 15.54074,-5.90788 35.12481,-33.14881 l 21.10428,-29.35555 9.23578,-42.42617 c 5.07969,-23.33438 10.03077,-43.22116 11.00244,-44.19283 0.97167,-0.97163 3.23203,8.08596 5.02308,20.12801 2.98832,20.09213 2.56002,25.06058 -5.20239,60.35003 l -8.4588,38.45539 -24.79031,33.51086 C 680.80978,587.67607 663.25579,612.54979 655.4356,624.52 l -14.21852,21.76404 6.14692,6.14692 6.14689,6.14689 20.31558,-6.54306 20.31562,-6.54308 20.16384,-66.3244 c 11.09011,-36.47843 20.60137,-65.88691 21.13608,-65.35217 0.53475,0.53471 -1.85432,30.06585 -5.309,65.62473 -6.72434,69.21259 -7.72911,73.07628 -33.40362,128.44758 l -10.41366,22.45875 -15.60755,1.87451 c -33.95744,4.07837 -32.04573,4.98895 -59.49616,-28.33829 z m 46.84118,1.23026 c 0,-5.34024 -5.77912,-4.36533 -6.92532,1.16828 -0.63773,3.07871 0.46911,4.42849 2.9526,3.60064 2.18498,-0.72833 3.97272,-2.87436 3.97272,-4.76892 z m -64.04677,-86.33888 c -0.58191,-1.74572 -2.32024,-3.17404 -3.86297,-3.17404 -1.54273,0 -3.28107,1.42832 -3.86298,3.17404 -0.58193,1.74572 1.15642,3.17404 3.86298,3.17404 2.70655,0 4.4449,-1.42832 3.86297,-3.17404 z M 534.04411,518.60616 c -1.42853,-2.31141 -3.12702,-2.48294 -5.09541,-0.51455 -1.62394,1.62393 -1.98831,4.51281 -0.80978,6.41974 1.42852,2.31141 3.12699,2.48292 5.09541,0.51453 1.62392,-1.62394 1.9883,-4.51279 0.80978,-6.41972 z m -44.79129,-60.28389 c 1.8284,-4.76469 -5.76926,-8.85783 -8.43515,-4.54431 -2.00908,3.25075 0.73156,8.72884 4.36695,8.72884 1.35435,0 3.18502,-1.88304 4.0682,-4.18453 z m -70.50764,243.70159 c -1.54273,-1.42775 -7.95474,-4.24333 -14.24892,-6.25684 l -11.44396,-3.66094 1.9958,-19.48011 c 1.0977,-10.71405 2.49002,-19.97435 3.09406,-20.57839 0.60405,-0.60404 8.1774,0.0237 16.82966,1.39812 l 15.73138,2.49636 0.85755,24.33885 c 0.77438,21.97778 0.3304,24.33888 -4.57652,24.33888 -2.98874,0 -6.69632,-1.16817 -8.23905,-2.59593 z m 28.19731,-20.8506 c 0,-12.89558 0.9965,-24.0599 2.21444,-24.80958 1.21795,-0.74969 8.42388,-2.29236 16.01318,-3.42819 l 13.79873,-2.06514 1.86362,14.32618 c 1.02496,7.87939 2.40403,17.01021 3.06456,20.29066 0.98796,4.90661 -1.81066,7.13226 -15.7788,12.54855 -9.33889,3.62123 -17.92389,6.58405 -19.07777,6.58405 -1.15387,0 -2.09796,-10.55093 -2.09796,-23.44653 z M 327.39084,659.59268 c 1.08574,-5.27777 7.15474,-16.90362 13.48666,-25.83523 6.33194,-8.9316 19.13851,-29.1938 28.45907,-45.02711 9.32052,-15.8333 17.68892,-28.78781 18.5964,-28.78781 0.90747,0 0.71335,10.89879 -0.43141,24.21952 -1.88718,21.96016 -2.84996,24.77944 -10.32054,30.2214 -17.38433,12.6636 -37.38416,33.08991 -42.8073,43.72021 -6.95253,13.62803 -9.59605,14.19175 -6.98288,1.48902 z m 216.98001,0.72044 c -2.06514,-4.98568 -14.6879,-19.31146 -28.05059,-31.83512 l -24.29581,-22.77023 -2.12472,-22.88262 c -1.1686,-12.58545 -1.44686,-22.88262 -0.61839,-22.88262 0.82847,0 8.28133,11.83911 16.5619,26.30913 8.28055,14.47007 20.98083,33.93975 28.22281,43.26598 7.24199,9.32626 14.01303,21.46512 15.04673,26.97528 2.47389,13.18698 -0.0266,15.20207 -4.74193,3.8202 z M 401.66934,634.74164 c -1.08263,-1.0826 -1.96841,-11.57817 -1.96841,-23.32345 v -21.35508 l 14.02484,-1.27398 c 7.71366,-0.70066 15.02133,-0.75605 16.23928,-0.12313 1.21795,0.63302 2.21444,11.70186 2.21444,24.59744 V 636.71 h -14.27086 c -7.84901,0 -15.1567,-0.88578 -16.23929,-1.96842 z m 45.27315,-20.99849 c 0,-12.80975 0.57064,-23.86109 1.26808,-24.55855 0.69746,-0.69743 7.39418,-0.78084 14.88168,-0.18542 l 13.61356,1.08274 -0.85684,22.57589 -0.85681,22.57589 -14.02484,0.89992 -14.02483,0.89992 z m -47.19636,-47.15728 c 0.0584,-10.51846 1.60654,-12.52469 18.57163,-24.06973 l 14.18798,-9.65514 -0.90129,15.32782 -0.90125,15.32782 -14.76299,5.59204 c -8.11964,3.0756 -15.09516,5.5931 -15.50113,5.5944 -0.40599,9.1e-4 -0.7178,-3.65141 -0.69295,-8.11721 z m 59.74489,2.68836 c -12.35485,-4.64789 -12.54853,-4.9386 -12.54853,-18.83663 0,-7.76373 0.7793,-14.11586 1.73175,-14.11586 0.95248,0 7.59582,4.21123 14.76299,9.35831 10.92482,7.84561 13.03123,10.94785 13.03123,19.19189 0,10.99958 0.33104,10.91374 -16.97744,4.40229 z m -59.79009,-43.70641 c 0,-13.70088 2.31044,-17.51587 30.05502,-49.62669 1.33295,-1.54273 2.38156,8.42228 2.33022,22.14447 l -0.0933,24.94945 -13.37582,8.11964 c -7.35675,4.46581 -14.62242,8.11965 -16.14598,8.11965 -1.52357,0 -2.77013,-6.16792 -2.77013,-13.70652 z m 59.79009,5.91001 -12.54853,-7.5661 v -23.32096 c 0,-12.82653 0.46833,-23.32097 1.04073,-23.32097 0.57241,0 7.21577,7.85981 14.76299,17.46623 11.79255,15.01 13.72225,19.36974 13.72225,31.00227 0,7.44483 -0.99651,13.48419 -2.21445,13.42082 -1.21794,-0.0635 -7.86129,-3.51996 -14.76299,-7.68129 z M 418.65726,431.27934 c -10.0764,-18.01828 -10.71808,-20.61297 -8.90753,-36.01802 1.07312,-9.13053 2.47781,-17.12767 3.12152,-17.77136 0.64373,-0.64373 5.25143,-0.274 10.23932,0.82143 l 9.06892,1.99189 v 35.19655 c 0,19.35812 -0.59931,35.19659 -1.33179,35.19659 -0.73248,0 -6.21817,-8.73768 -12.19044,-19.41708 z m 28.28523,-17.43414 c 0,-33.86139 0.009,-33.90069 7.51899,-35.78575 4.13544,-1.03795 8.17497,-1.23118 8.97672,-0.42942 0.80178,0.80175 2.61964,8.60118 4.03975,17.33203 2.42679,14.92013 1.96729,16.98349 -7.64495,34.32802 -5.62479,10.14956 -10.82624,18.45374 -11.55872,18.45374 -0.73248,0 -1.33179,-15.25438 -1.33179,-33.89862 z m -158.367,22.34898 c -20.8591,-1.71957 -21.29011,-1.92944 -42.81266,-20.84681 -11.95781,-10.51037 -30.53839,-26.82751 -41.2902,-36.26033 -17.13216,-15.03042 -20.6909,-20.04086 -28.78783,-40.53094 -9.90809,-25.07344 -11.86507,-46.62262 -5.30665,-58.43412 3.48944,-6.28438 4.15472,-5.35765 10.59831,14.76298 8.20859,25.63186 18.22087,46.21836 25.74834,52.94185 14.68321,13.11484 64.46185,43.60389 81.16395,49.71229 10.34295,3.78265 20.36578,8.06918 22.27295,9.5256 6.26455,4.78389 48.19968,-12.29969 64.22356,-26.16352 7.99942,-6.92109 15.63927,-11.90712 16.97744,-11.08009 1.33818,0.82705 2.43304,6.63434 2.43304,12.90512 0,11.00117 -1.04565,12.18699 -29.78712,33.7806 -32.81364,24.65313 -28.58461,23.54936 -75.43313,19.68737 z m 245.46862,-3.83865 c -4.87179,-3.64388 -10.3103,-7.98338 -12.08554,-9.64333 -1.77529,-1.65992 -10.68005,-8.33273 -19.78834,-14.82844 -16.06727,-11.45859 -16.56481,-12.22815 -16.70229,-25.83523 -0.0779,-7.71366 0.85481,-14.00234 2.07276,-13.97482 1.21794,0.0266 8.28965,5.75047 15.71488,12.71766 16.91522,15.87175 55.0559,30.80067 65.03955,25.45759 3.40236,-1.82089 13.3086,-5.76119 22.01386,-8.75626 13.56369,-4.6666 69.22154,-38.75365 80.25744,-49.15282 6.63273,-6.25008 20.37008,-34.62683 25.84782,-53.39297 2.96262,-10.14956 6.23795,-18.45374 7.27855,-18.45374 2.7615,0 8.98345,18.44694 8.98345,26.63439 0,3.86279 -4.18537,18.11249 -9.3008,31.66607 -10.00234,26.5015 -5.18119,21.02864 -70.01642,79.48099 -8.71002,7.85252 -18.67503,15.77874 -22.14448,17.61378 -3.46945,1.83506 -20.25913,4.18156 -37.31038,5.21441 -29.07614,1.76127 -31.55261,1.46632 -39.86006,-4.74728 z M 400.64296,362.54485 c -26.30632,-9.09033 -50.40755,-32.29055 -63.49074,-61.11716 -5.17284,-11.39751 -6.64257,-20.10602 -6.69968,-39.6975 -0.065,-22.27714 0.98023,-27.25351 9.30153,-44.28896 5.15607,-10.55554 12.49077,-22.58195 16.29931,-26.72532 16.92562,-18.41364 50.09516,-35.27923 69.38365,-35.27923 6.50381,0 7.00788,1.0224 6.17409,12.52306 -0.71597,9.87549 -2.15637,12.71394 -6.81311,13.42584 -6.5659,1.00377 -28.04967,9.7723 -28.04967,11.44841 0,4.85214 14.09968,21.32014 17.25172,20.14947 2.18079,-0.80994 7.1633,-2.27531 11.07224,-3.2564 l 7.10719,-1.7838 v 53.46683 c 0,55.43175 -0.3065,56.67095 -12.41463,50.19085 -5.28787,-2.82998 -7.17083,-1.93483 -13.83073,6.57496 -4.24024,5.41799 -7.7095,11.16319 -7.7095,12.76709 0,1.60388 7.30768,5.11133 16.23928,7.79434 16.00533,4.80786 16.25237,5.05395 17.14721,17.08224 0.86597,11.64026 0.52492,12.19966 -7.38149,12.10772 -4.5592,-0.0528 -15.17319,-2.4751 -23.58667,-5.38244 z m 2.01057,-58.73115 c 0,-1.3853 -1.46314,-3.98184 -3.25138,-5.77008 -2.36677,-2.36677 -6.18253,-1.24434 -14.02484,4.12555 -11.76002,8.05244 -12.24232,11.62659 -2.57794,19.10374 6.12463,4.73854 6.6073,4.554 13.1065,-5.01038 3.71121,-5.46155 6.74766,-11.06353 6.74766,-12.44883 z m -20.29418,-10.43974 c 7.07982,-5.15092 7.48681,-6.51785 4.67166,-15.69053 -2.93926,-9.57693 -3.73822,-10.04806 -17.04051,-10.04806 h -13.95665 l 2.29339,9.59595 c 1.26138,5.27777 3.77632,13.32974 5.58873,17.89324 3.45186,8.69144 4.18679,8.62168 18.44338,-1.7506 z m 4.24681,-46.82319 c 3.65936,-10.61787 3.58084,-10.81741 -6.36305,-16.17256 -5.53748,-2.98212 -10.06815,-6.52698 -10.06815,-7.87747 0,-1.35049 -1.29415,-1.65562 -2.8759,-0.67804 -3.85452,2.38225 -12.23326,31.05347 -10.08887,34.52319 0.93299,1.5096 7.09512,2.34215 13.69361,1.85006 10.857,-0.80963 12.34942,-1.91644 15.70236,-11.64518 z m 12.77839,-22.61318 c 2.08371,-3.89347 1.24467,-7.84 -3.13866,-14.76299 -7.0925,-11.20183 -9.99171,-11.67043 -17.35817,-2.80561 -5.47368,6.58703 -5.44017,6.71149 3.95562,14.68356 11.2693,9.56169 12.82296,9.83268 16.54121,2.88504 z m 47.55794,131.55415 c 0,-13.08664 0.1677,-13.31352 11.14918,-15.06952 6.13205,-0.98056 13.60306,-3.57716 16.60228,-5.77023 5.25072,-3.83941 5.19306,-4.38747 -1.55324,-14.76798 -6.99022,-10.75578 -8.31662,-11.09536 -22.50748,-5.76229 -2.86809,1.07785 -3.69074,-10.57399 -3.69074,-52.27461 v -53.66163 l 6.64334,2.11775 c 12.0156,3.83029 14.92552,2.82185 20.8919,-7.24007 5.78322,-9.7531 5.78869,-10.01493 0.27725,-13.28667 -3.09226,-1.83566 -10.28289,-4.77885 -15.97922,-6.54045 -9.50028,-2.93799 -10.43375,-4.25446 -11.28512,-15.91539 l -0.92818,-12.71247 12.18492,1.63433 c 30.6624,4.11269 63.48252,29.32885 78.81714,60.55628 7.31846,14.90333 8.28998,20.16887 8.28998,44.9314 0,23.99094 -1.10283,30.40046 -7.62154,44.29589 -14.32297,30.53117 -46.95914,55.71442 -78.74194,60.76019 l -12.54853,1.99217 z m 50.69981,-36.64353 c 7.46762,-6.75811 6.91522,-8.45809 -5.17676,-15.93135 -9.06164,-5.6004 -11.16785,-5.94497 -14.70683,-2.40596 -3.539,3.53901 -3.29911,5.49776 1.67511,13.67719 6.53677,10.74894 10.39056,11.73522 18.20848,4.66012 z M 514.93174,290.518 c 9.0009,-19.82937 8.02861,-22.88263 -7.28675,-22.88263 -14.37791,0 -14.92077,0.41263 -17.47984,13.28669 -1.51442,7.61871 -0.42715,9.74813 7.77244,15.22245 5.24322,3.50055 9.93027,6.49005 10.41565,6.64334 0.48537,0.15325 3.44571,-5.36814 6.5785,-12.26985 z m 5.8092,-35.43115 c -0.0237,-5.4629 -5.51338,-23.74096 -8.55158,-28.47613 -2.18256,-3.40165 -4.51762,-2.95776 -13.43606,2.55415 -9.74703,6.02398 -10.60197,7.56948 -8.81093,15.92758 1.09092,5.09092 2.57,10.25274 3.28684,11.47069 2.30075,3.90912 27.52975,2.5553 27.51173,-1.47629 z m -29.5095,-31.74043 c 3.74481,-3.24786 7.93414,-5.90519 9.30958,-5.90519 4.1078,0 2.8408,-6.54084 -2.3857,-12.31606 -6.89544,-7.61938 -10.44547,-6.72797 -17.67372,4.4379 -4.54077,7.01434 -5.53889,11.16185 -3.54402,14.72645 3.58796,6.41135 5.99742,6.25238 14.29386,-0.9431 z M 302.26521,348.02487 c -33.89664,-15.9352 -41.8163,-19.53038 -60.52824,-27.47726 -17.89652,-7.60058 -23.43984,-11.97562 -41.33637,-32.62461 -21.3414,-24.62372 -22.89558,-27.58647 -26.16096,-49.87164 -1.62785,-11.10962 -0.73793,-15.12049 5.55556,-25.03903 l 7.4939,-11.81039 -1.92291,20.07073 -1.92294,20.07072 20.28907,20.77391 c 20.54724,21.03826 29.86045,26.59603 82.29361,49.10964 11.36749,4.88097 27.23762,9.8121 35.26691,10.95813 12.08853,1.72534 16.51001,4.1954 25.71414,14.36517 6.11348,6.75487 11.16989,13.27807 11.2365,14.49602 0.24122,4.41064 -45.41053,1.94662 -55.97827,-3.02139 z m 215.53961,4.27099 c 0,-0.53064 5.64684,-7.06778 12.54854,-14.52693 10.87917,-11.75792 14.87962,-13.98639 30.0712,-16.7513 9.63746,-1.75405 22.92415,-5.69813 29.52597,-8.7646 40.29912,-18.7185 52.1266,-23.94947 54.1509,-23.94947 5.04345,0 51.02975,-49.30342 49.74153,-53.32952 -0.74724,-2.33535 -2.16875,-11.55381 -3.15888,-20.48541 l -1.80022,-16.23929 7.81452,12.8502 c 7.03108,11.56185 7.61156,14.64442 5.78993,30.74558 -1.91142,16.89488 -3.26017,19.34004 -24.1247,43.73579 -15.02381,17.56654 -26.29391,27.81174 -35.19792,31.99713 -7.2038,3.38617 -13.7511,6.15669 -14.54954,6.15669 -1.74421,0 -51.07648,22.50697 -58.36265,26.62694 -4.56032,2.57862 -52.44868,4.34463 -52.44868,1.93419 z M 280.12073,279.54258 C 242.18898,259.9472 241.46733,259.38337 218.84165,231.6659 l -22.89533,-28.04779 2.99332,-15.97107 c 2.94914,-15.73531 10.28799,-29.24752 17.12246,-31.52565 2.22726,-0.74243 1.53345,3.44713 -1.91592,11.56898 l -5.40768,12.73293 12.88142,21.21748 12.88145,21.21748 42.18505,22.82701 42.18506,22.82701 2.89455,15.80082 c 1.98904,10.85774 1.93164,15.68473 -0.18336,15.42962 -1.69293,-0.20403 -20.35075,-9.29424 -41.46182,-20.20014 z m 275.15885,5.27813 c 0.998,-8.63998 2.60731,-16.10837 3.57624,-16.59643 0.96892,-0.4881 20.349,-11.11745 43.06688,-23.62079 41.22251,-22.68785 41.3306,-22.77512 53.97344,-43.56722 l 12.66821,-20.83386 -4.69037,-11.22568 c -6.02083,-14.40983 -4.09715,-16.13122 5.40595,-4.83744 5.06797,6.02294 8.18851,14.20173 9.53722,24.99642 l 2.00461,16.04441 -23.19465,27.76286 c -23.02368,27.55813 -23.4777,27.90266 -61.57846,46.72876 -21.11106,10.43125 -39.32874,19.39161 -40.48371,19.91196 -1.15499,0.5203 -1.2834,-6.12304 -0.28522,-14.76299 z M 297.83632,229.07842 c -4.87179,-3.32174 -16.16548,-9.82315 -25.09708,-14.4476 -18.20046,-9.4235 -24.09957,-15.2831 -38.38914,-38.13187 -9.70262,-15.51427 -9.82145,-16.09859 -5.69025,-27.98014 3.86694,-11.12143 5.3135,-12.32075 17.31973,-14.35919 7.2052,-1.22332 13.55786,-1.76672 14.11703,-1.20758 0.55913,0.55916 -1.29648,5.04701 -4.12363,9.97302 -4.99757,8.70776 -4.94117,9.34348 2.03144,22.90049 3.94443,7.66924 9.99673,15.79509 13.4495,18.05746 8.33465,5.46107 42.52224,18.78328 48.34857,18.84044 10.50212,0.10304 11.92081,4.0137 6.71147,18.50029 -4.166,11.5851 -6.25815,13.92979 -12.41509,13.91361 -4.0726,-0.0118 -11.39077,-2.73724 -16.26255,-6.05893 z m 256.56775,0.91135 c -0.87955,-2.84189 -3.40884,-9.34923 -5.62065,-14.46079 l -4.02147,-9.29375 13.25296,-3.33711 c 7.28914,-1.83545 22.15031,-7.32226 33.02484,-12.19293 17.51563,-7.8452 20.68828,-10.58077 27.80224,-23.97216 7.73687,-14.56389 7.85046,-15.42095 3.10781,-23.44963 -2.70741,-4.58325 -4.32805,-8.82492 -3.60145,-9.4259 0.72661,-0.60094 6.87598,-0.51103 13.66533,0.19989 11.14213,1.16664 12.79157,2.41048 16.93776,12.77286 l 4.59352,11.48035 -13.29516,21.89894 c -12.62711,20.79853 -14.74887,22.72921 -42.22598,38.42316 -30.22485,17.26329 -40.92922,20.05036 -43.61975,11.35715 z M 329.78918,173.26638 c -8.95688,-2.13242 -26.39859,-14.16357 -42.28695,-29.16923 l -7.3815,-6.97138 13.28669,1.67423 c 7.30768,0.92084 24.07775,3.17573 37.26686,5.01085 l 23.98014,3.33662 3.70011,11.21143 c 2.03507,6.16626 2.79143,12.68166 1.68082,14.47868 -2.24902,3.63898 -15.94679,3.83318 -30.24617,0.4288 z m 188.28261,0.11338 c -3.51175,-2.22312 -3.55314,-4.17624 -0.26484,-12.5033 2.14335,-5.42776 4.70608,-10.82428 5.695,-11.99226 1.61087,-1.90266 60.00133,-11.16307 70.38741,-11.16307 2.30686,0 -1.57825,4.76221 -8.6336,10.58273 -7.05532,5.82048 -15.82064,13.12219 -19.47843,16.22603 -10.62715,9.01761 -39.0975,14.29919 -47.70554,8.84989 z m -151.8017,-13.21328 c -1.17411,-3.05966 1.44996,-5.41052 8.71607,-7.80856 6.89818,-2.2766 13.80543,-8.17675 20.52961,-17.53631 9.91898,-13.80651 10.33651,-14.03416 19.70796,-10.74606 13.72339,4.81507 16.95576,7.38572 16.95576,13.48457 0,4.13509 -3.11891,5.86341 -13.34974,7.39761 -10.61634,1.59202 -30.81848,9.27033 -49.02916,18.63467 -1.01788,0.52341 -2.60661,-1.01825 -3.5305,-3.42592 z m 123.48505,-4.89086 c -9.74356,-4.4878 -23.36242,-9.02621 -30.26412,-10.08536 -10.64083,-1.633 -12.54853,-2.97651 -12.54853,-8.83752 0,-5.09789 2.44013,-7.76237 9.29837,-10.15318 13.82735,-4.82023 15.37341,-4.28669 24.82825,8.56796 4.77733,6.49516 13.66854,14.05853 19.75828,16.8075 10.72575,4.84172 13.44633,8.10945 8.85779,10.63929 -1.21795,0.67152 -10.18646,-2.45093 -19.93004,-6.93869 z"
       id="path1" /></g></svg>
