<svg xmlns="http://www.w3.org/2000/svg" xml:space="preserve" width="872" height="889" viewBox="0 0 872 889"><circle cx="438.499" cy="448.88" r="417.838" style="fill:none;stroke:#000;stroke-width:18;stroke-dasharray:none;stroke-opacity:1"/><path d="M392.9 828.36c-12.798-6.605-16.769-10.12-15.683-13.883.8-2.772 2.355-14.009 3.455-24.97 1.185-11.803 3.366-19.892 5.348-19.837 1.84.052 12.648 5.034 24.015 11.073l20.668 10.978.863 22.883.862 22.883-11.197-.142c-6.412-.082-18.517-3.92-28.332-8.986m54.042-14.31v-23.438l23.333-11.679 23.333-11.678 1.7 12.233c.934 6.728 2.47 18.877 3.414 26.996l1.715 14.763-17.951 8.12c-9.873 4.466-21.91 8.12-26.747 8.12h-8.797zm-39.86-52.295c-21.77-6.573-22.399-7.695-18.81-33.514 1.692-12.18 3.55-22.622 4.13-23.206s9.436 2.135 19.678 6.042l18.623 7.102.858 24.223c.976 27.587 1.478 27.19-24.479 19.353m39.86-18.917V719.05l12.549-5.424c21.438-9.265 25.195-9.819 26.893-3.964.843 2.91 2.416 14.091 3.495 24.847l1.96 19.557-18.593 6.278c-10.226 3.454-20.327 6.28-22.448 6.28-2.853 0-3.856-6.184-3.856-23.787m-245.459-10.823c-10.71-1.135-10.757-1.205-28.781-41.605l-18.054-40.467-5.924-59.025c-3.258-32.464-6.735-64.34-7.725-70.836-3.375-22.127 1.805-8.428 21.304 56.344 10.714 35.592 20.664 66.159 22.11 67.926 1.447 1.766 10.423 5.572 19.947 8.455 18.595 5.63 29.995 3.303 29.995-6.122 0-4.296-25.265-42.117-54.987-82.314-7.205-9.743-15.012-20.409-17.349-23.701s-7.727-21.894-11.979-41.337c-6.256-28.614-7.366-39.536-5.822-57.32 1.05-12.084 2.706-23.262 3.682-24.841s6.582 17.63 12.457 42.687c11.368 48.485 8.738 43.027 44.097 91.509 6.575 9.015 11.652 11.832 33.659 18.675 14.253 4.432 26.91 7.626 28.124 7.098 7.36-3.197 30.21-22.453 31.665-26.683 3.763-10.946-3.561-16.378-30.664-22.74-14.427-3.388-28.279-6.16-30.78-6.16-2.503 0-16.564-12.8-31.248-28.446l-26.698-28.447-13.104-40.774-13.104-40.775 4.572-20.833c2.514-11.458 5.543-20.833 6.73-20.833s2.994 7.64 4.013 16.978c1.415 12.958 6.909 26.958 23.203 59.136 19.59 38.686 22.792 43.279 38.866 55.761 17.13 13.302 18.077 13.634 42.833 14.985 36.106 1.97 52.565-4.722 84.047-34.173 13.168-12.318 28.006-26.118 32.974-30.667l9.032-8.271 12.468 19.557 12.468 19.556-12.315 24.028c-6.774 13.215-16.6 31.999-21.836 41.742-5.236 9.744-17.903 33.66-28.15 53.147s-23.499 41.41-29.45 48.718-28.476 35.542-50.054 62.743l-39.234 49.456-15.13-.497c-8.322-.273-19.957-1.008-25.858-1.634m25.122-23.845c.8-1.296.215-4.285-1.302-6.644-2.411-3.749-3.105-3.749-5.516 0-2.928 4.553-1.565 8.999 2.758 8.999 1.432 0 3.26-1.06 4.06-2.355m63.284-89.397c-.582-1.746-2.32-3.174-3.863-3.174s-3.281 1.428-3.863 3.174 1.156 3.174 3.863 3.174 4.445-1.428 3.863-3.174m60.725-93.664c.8-1.296.215-4.285-1.302-6.644-2.411-3.749-3.105-3.749-5.516 0-2.928 4.553-1.565 8.999 2.758 8.999 1.432 0 3.26-1.06 4.06-2.355m44.658-71.46q-2.142-3.467-5.095-.515c-1.624 1.624-1.989 4.513-.81 6.42q2.142 3.468 5.095.515c1.624-1.624 1.989-4.513.81-6.42m215.94 250.233c-75.432-91.582-73.228-88.25-130.013-196.555-22.838-43.559-27.64-54.832-24.665-57.896 2.032-2.092 7.681-10.607 12.553-18.921s9.684-14.814 10.693-14.443 15.625 13.726 32.479 29.677c39.83 37.7 48.403 41.828 86.89 41.846l29.674.015 18.577-14.763c16.66-13.239 20.554-18.574 37.72-51.67 13.893-26.788 20.435-43.304 23.858-60.234 5.16-25.521 6.385-24.819 12.354 7.086 3.561 19.035 3.486 19.5-9.176 56.71-12.58 36.966-13.135 37.926-37.864 65.48-13.803 15.382-27.09 28.624-29.525 29.428-2.436.805-17.465 4.35-33.398 7.88-25.932 5.743-29.28 7.235-31.942 14.235-2.594 6.822-1.884 8.763 5.563 15.217 22.444 19.452 25.46 21.045 36.156 19.091 5.683-1.038 11.662-2.89 13.286-4.117s9.262-3.938 16.974-6.024c13.01-3.52 15.54-5.908 35.124-33.149l21.105-29.355 9.235-42.426c5.08-23.335 10.031-43.222 11.003-44.193.972-.972 3.232 8.086 5.023 20.128 2.988 20.092 2.56 25.06-5.202 60.35l-8.46 38.455-24.79 33.511c-13.634 18.431-31.188 43.305-39.008 55.275l-14.219 21.764 6.147 6.147 6.147 6.147 20.315-6.543 20.316-6.543 20.164-66.325c11.09-36.478 20.601-65.887 21.136-65.352s-1.854 30.066-5.309 65.625c-6.724 69.212-7.73 73.076-33.404 128.447l-10.413 22.46-15.608 1.874c-33.957 4.078-32.046 4.989-59.496-28.339m46.841 1.23c0-5.34-5.779-4.365-6.925 1.168-.638 3.079.469 4.429 2.952 3.6 2.185-.728 3.973-2.874 3.973-4.768m-64.047-86.339c-.581-1.746-2.32-3.174-3.863-3.174-1.542 0-3.28 1.428-3.863 3.174-.581 1.746 1.157 3.174 3.863 3.174s4.445-1.428 3.863-3.174m-59.962-100.167q-2.142-3.467-5.095-.514c-1.624 1.624-1.989 4.512-.81 6.42q2.142 3.465 5.095.514c1.624-1.624 1.989-4.513.81-6.42m-44.791-60.284c1.828-4.764-5.77-8.858-8.435-4.544-2.01 3.25.731 8.729 4.367 8.729 1.354 0 3.185-1.883 4.068-4.185m-70.508 243.702c-1.543-1.428-7.955-4.243-14.249-6.257l-11.444-3.66 1.996-19.481c1.098-10.714 2.49-19.974 3.094-20.578s8.178.023 16.83 1.398l15.731 2.496.858 24.339c.774 21.978.33 24.339-4.577 24.339-2.989 0-6.696-1.168-8.239-2.596m28.197-20.85c0-12.896.997-24.06 2.215-24.81s8.424-2.293 16.013-3.429l13.799-2.065 1.863 14.327c1.025 7.879 2.404 17.01 3.065 20.29.988 4.907-1.81 7.132-15.779 12.549-9.339 3.621-17.924 6.584-19.078 6.584s-2.098-10.551-2.098-23.447M327.39 659.591c1.086-5.278 7.155-16.904 13.487-25.836s19.138-29.193 28.459-45.027 17.688-28.787 18.596-28.787c.907 0 .713 10.898-.431 24.219-1.888 21.96-2.85 24.78-10.321 30.221-17.384 12.664-37.384 33.09-42.807 43.72-6.953 13.629-9.596 14.192-6.983 1.49m216.98.72c-2.065-4.986-14.688-19.311-28.05-31.835l-24.297-22.77-2.124-22.883c-1.169-12.585-1.447-22.882-.619-22.882s8.282 11.839 16.562 26.309 20.981 33.94 28.223 43.266 14.013 21.465 15.047 26.975c2.474 13.187-.027 15.202-4.742 3.82M401.668 634.74c-1.082-1.083-1.968-11.579-1.968-23.324v-21.355l14.025-1.274c7.713-.7 15.021-.756 16.239-.123s2.214 11.702 2.214 24.597v23.447h-14.27c-7.85 0-15.157-.886-16.24-1.968m45.273-20.999c0-12.81.571-23.86 1.269-24.558.697-.698 7.394-.781 14.881-.186l13.614 1.083-.857 22.576-.857 22.576-14.025.9-14.025.9zm-47.196-47.157c.059-10.519 1.607-12.525 18.572-24.07l14.188-9.655-.902 15.328-.9 15.328-14.764 5.592c-8.12 3.075-15.095 5.593-15.5 5.594-.407.001-.719-3.651-.694-8.117m59.745 2.688c-12.355-4.648-12.549-4.938-12.549-18.836 0-7.764.78-14.116 1.732-14.116.953 0 7.596 4.211 14.763 9.358 10.925 7.846 13.031 10.948 13.031 19.192 0 11 .331 10.914-16.977 4.402m-59.79-43.706c0-13.701 2.31-17.516 30.055-49.627 1.333-1.543 2.382 8.422 2.33 22.145l-.093 24.949-13.376 8.12c-7.357 4.465-14.622 8.12-16.146 8.12s-2.77-6.169-2.77-13.707m59.79 5.91-12.549-7.566v-23.32c0-12.827.469-23.321 1.041-23.321.573 0 7.216 7.86 14.763 17.466 11.793 15.01 13.722 19.37 13.722 31.002 0 7.445-.996 13.484-2.214 13.421s-7.861-3.52-14.763-7.681m-40.834-100.199c-10.076-18.018-10.718-20.613-8.907-36.018 1.073-9.13 2.478-17.127 3.121-17.771.644-.644 5.252-.274 10.24.821l9.068 1.992V415.5c0 19.358-.599 35.196-1.331 35.196-.733 0-6.218-8.737-12.19-19.417m28.285-17.434c0-33.861.01-33.9 7.52-35.786 4.135-1.038 8.174-1.23 8.976-.429.802.802 2.62 8.601 4.04 17.332 2.427 14.92 1.967 16.984-7.645 34.328-5.625 10.15-10.826 18.454-11.559 18.454s-1.332-15.255-1.332-33.899m-158.367 22.35c-20.859-1.72-21.29-1.93-42.812-20.848a72525 72525 0 0 0-41.29-36.26c-17.133-15.03-20.691-20.04-28.788-40.53-9.908-25.074-11.865-46.624-5.307-58.435 3.49-6.284 4.155-5.358 10.598 14.763 8.21 25.632 18.221 46.218 25.749 52.942 14.683 13.115 64.462 43.604 81.164 49.712 10.343 3.783 20.366 8.07 22.273 9.526 6.264 4.784 48.2-12.3 64.223-26.164 8-6.92 15.64-11.907 16.978-11.08s2.433 6.634 2.433 12.905c0 11.001-1.046 12.187-29.787 33.78-32.814 24.654-28.585 23.55-75.434 19.688m245.47-3.84c-4.873-3.643-10.311-7.983-12.086-9.643s-10.68-8.333-19.789-14.828c-16.067-11.459-16.565-12.228-16.702-25.835-.078-7.714.855-14.003 2.073-13.975 1.218.026 8.29 5.75 15.715 12.717 16.915 15.872 55.055 30.801 65.04 25.458 3.401-1.82 13.308-5.761 22.013-8.756 13.564-4.667 69.222-38.754 80.257-49.153 6.633-6.25 20.37-34.627 25.848-53.393 2.963-10.15 6.238-18.454 7.279-18.454 2.761 0 8.983 18.447 8.983 26.635 0 3.862-4.185 18.112-9.3 31.666-10.003 26.501-5.182 21.028-70.017 79.48-8.71 7.853-18.675 15.78-22.144 17.614-3.47 1.835-20.26 4.182-37.31 5.215-29.077 1.761-31.553 1.466-39.86-4.747m-133.402-69.81c-26.306-9.09-50.408-32.29-63.49-61.117-5.174-11.398-6.643-20.106-6.7-39.698-.065-22.277.98-27.253 9.301-44.289 5.156-10.555 12.49-22.582 16.3-26.725 16.925-18.414 50.095-35.28 69.383-35.28 6.504 0 7.008 1.023 6.174 12.524-.716 9.875-2.156 12.714-6.813 13.426-6.566 1.003-28.05 9.772-28.05 11.448 0 4.852 14.1 21.32 17.252 20.15 2.18-.81 7.163-2.276 11.072-3.257l7.107-1.784v53.467c0 55.432-.306 56.671-12.414 50.19-5.288-2.829-7.171-1.934-13.83 6.576-4.241 5.418-7.71 11.163-7.71 12.767s7.307 5.111 16.239 7.794c16.005 4.808 16.252 5.054 17.147 17.083.866 11.64.525 12.2-7.381 12.107-4.56-.053-15.174-2.475-23.587-5.382m2.01-58.731c0-1.386-1.463-3.982-3.25-5.77-2.368-2.367-6.183-1.245-14.026 4.125-11.76 8.053-12.242 11.627-2.578 19.104 6.125 4.738 6.608 4.554 13.107-5.01 3.711-5.462 6.748-11.064 6.748-12.45m-20.294-10.44c7.08-5.151 7.487-6.518 4.672-15.69-2.94-9.578-3.738-10.049-17.04-10.049h-13.957l2.293 9.596c1.262 5.278 3.777 13.33 5.589 17.894 3.452 8.691 4.187 8.621 18.443-1.751m4.247-46.823c3.66-10.618 3.581-10.818-6.363-16.173-5.537-2.982-10.068-6.527-10.068-7.877s-1.294-1.656-2.876-.678c-3.854 2.382-12.233 31.053-10.089 34.523.933 1.51 7.095 2.342 13.694 1.85 10.857-.81 12.35-1.916 15.702-11.645m12.779-22.613c2.083-3.894 1.244-7.84-3.14-14.763-7.092-11.202-9.99-11.67-17.357-2.806-5.474 6.587-5.44 6.711 3.955 14.684 11.27 9.561 12.823 9.832 16.542 2.885m47.557 131.554c0-13.087.168-13.314 11.15-15.07 6.132-.98 13.603-3.577 16.602-5.77 5.25-3.84 5.193-4.387-1.553-14.768-6.99-10.756-8.317-11.095-22.508-5.762-2.868 1.078-3.69-10.574-3.69-52.275v-53.662l6.643 2.118c12.015 3.83 14.925 2.822 20.892-7.24 5.783-9.753 5.788-10.015.277-13.287-3.092-1.835-10.283-4.778-15.98-6.54-9.5-2.938-10.433-4.254-11.284-15.915l-.929-12.713 12.185 1.635c30.663 4.112 63.483 29.328 78.818 60.556 7.318 14.903 8.29 20.169 8.29 44.931 0 23.991-1.103 30.4-7.622 44.296-14.323 30.531-46.96 55.714-78.742 60.76l-12.549 1.992zm50.7-36.644c7.468-6.758 6.916-8.458-5.176-15.931-9.062-5.6-11.168-5.945-14.707-2.406s-3.3 5.498 1.675 13.677c6.537 10.749 10.39 11.735 18.208 4.66m17.29-28.33c9-19.83 8.028-22.883-7.287-22.883-14.378 0-14.92.413-17.48 13.287-1.514 7.619-.427 9.748 7.773 15.223 5.243 3.5 9.93 6.49 10.415 6.643.486.153 3.446-5.368 6.579-12.27m5.809-35.431c-.024-5.463-5.513-23.741-8.552-28.476-2.182-3.402-4.517-2.958-13.436 2.554-9.747 6.024-10.602 7.57-8.81 15.927 1.09 5.091 2.57 10.253 3.286 11.471 2.301 3.91 27.53 2.555 27.512-1.476m-29.51-31.74c3.745-3.248 7.935-5.906 9.31-5.906 4.108 0 2.84-6.54-2.386-12.316-6.895-7.62-10.445-6.728-17.673 4.438-4.541 7.014-5.54 11.162-3.544 14.727 3.588 6.41 5.997 6.252 14.293-.944M302.265 348.024c-33.896-15.935-41.816-19.53-60.528-27.477-17.897-7.601-23.44-11.976-41.336-32.625-21.342-24.624-22.896-27.586-26.161-49.872-1.628-11.11-.738-15.12 5.555-25.039l7.494-11.81-1.923 20.07-1.923 20.071 20.29 20.774c20.547 21.039 29.86 26.596 82.293 49.11 11.367 4.88 27.238 9.812 35.267 10.958 12.088 1.725 16.51 4.195 25.714 14.365 6.113 6.755 11.17 13.278 11.236 14.496.242 4.41-45.41 1.947-55.978-3.021m215.54 4.27c0-.53 5.647-7.067 12.548-14.526 10.88-11.758 14.88-13.986 30.072-16.751 9.637-1.754 22.924-5.698 29.526-8.765 40.299-18.718 52.126-23.95 54.15-23.95 5.044 0 51.03-49.303 49.742-53.329-.747-2.335-2.169-11.554-3.159-20.485l-1.8-16.24 7.814 12.85c7.031 11.562 7.612 14.645 5.79 30.746-1.911 16.895-3.26 19.34-24.124 43.736-15.024 17.566-26.294 27.812-35.198 31.997-7.204 3.386-13.751 6.157-14.55 6.157-1.744 0-51.076 22.507-58.362 26.627-4.56 2.578-52.45 4.344-52.45 1.934M280.12 279.544c-37.932-19.596-38.654-20.16-61.28-47.877l-22.895-28.048 2.994-15.971c2.949-15.735 10.288-29.247 17.122-31.526 2.227-.742 1.534 3.448-1.916 11.57l-5.407 12.732 12.88 21.218 12.882 21.217 42.185 22.827 42.185 22.827 2.895 15.801c1.99 10.858 1.932 15.685-.183 15.43-1.693-.204-20.351-9.295-41.462-20.2m275.159 5.278c.998-8.64 2.607-16.109 3.576-16.597s20.349-11.117 43.067-23.62c41.222-22.688 41.33-22.776 53.973-43.568l12.668-20.834-4.69-11.225c-6.02-14.41-4.097-16.131 5.406-4.838 5.068 6.023 8.188 14.202 9.537 24.997l2.005 16.044-23.195 27.763c-23.024 27.558-23.478 27.903-61.578 46.729-21.111 10.431-39.33 19.391-40.484 19.912-1.155.52-1.283-6.123-.285-14.763m-257.444-55.743c-4.871-3.321-16.165-9.823-25.097-14.447-18.2-9.424-24.1-15.283-38.389-38.132-9.703-15.514-9.821-16.099-5.69-27.98 3.867-11.122 5.313-12.32 17.32-14.36 7.205-1.223 13.557-1.766 14.117-1.207.559.56-1.297 5.047-4.124 9.973-4.998 8.708-4.941 9.344 2.031 22.9 3.945 7.67 9.997 15.796 13.45 18.058 8.335 5.461 42.522 18.783 48.348 18.84 10.503.103 11.921 4.014 6.712 18.5-4.166 11.586-6.258 13.93-12.415 13.914-4.073-.011-11.39-2.737-16.263-6.059m256.568.912c-.88-2.842-3.409-9.35-5.62-14.461l-4.022-9.294 13.253-3.337c7.29-1.835 22.15-7.322 33.025-12.193 17.515-7.845 20.688-10.58 27.802-23.972 7.737-14.564 7.85-15.42 3.108-23.45-2.708-4.583-4.328-8.825-3.602-9.425s6.876-.512 13.666.2c11.142 1.166 12.791 2.41 16.937 12.772l4.594 11.48-13.295 21.9c-12.627 20.798-14.75 22.729-42.226 38.423-30.225 17.263-40.93 20.05-43.62 11.357M329.79 173.266c-8.957-2.132-26.398-14.163-42.287-29.169l-7.381-6.971 13.286 1.674c7.308.92 24.078 3.176 37.267 5.01l23.98 3.337 3.7 11.212c2.036 6.166 2.792 12.682 1.681 14.479-2.249 3.639-15.946 3.833-30.246.428m188.283.114c-3.512-2.223-3.553-4.176-.265-12.504 2.143-5.427 4.706-10.824 5.695-11.992 1.61-1.902 60.001-11.163 70.387-11.163 2.307 0-1.578 4.762-8.633 10.583-7.056 5.82-15.82 13.122-19.479 16.226-10.627 9.018-39.097 14.3-47.705 8.85M366.27 160.166c-1.174-3.06 1.45-5.41 8.716-7.808 6.898-2.277 13.806-8.177 20.53-17.536 9.919-13.807 10.336-14.035 19.708-10.746 13.723 4.815 16.955 7.385 16.955 13.484 0 4.135-3.118 5.864-13.35 7.398-10.616 1.592-30.818 9.27-49.028 18.634-1.018.524-2.607-1.018-3.53-3.426m123.485-4.89c-9.743-4.488-23.362-9.027-30.264-10.086-10.64-1.633-12.549-2.976-12.549-8.837 0-5.098 2.44-7.763 9.299-10.153 13.827-4.82 15.373-4.287 24.828 8.568 4.777 6.495 13.669 14.058 19.758 16.807 10.726 4.842 13.447 8.11 8.858 10.64-1.218.67-10.186-2.452-19.93-6.94" style="fill:#000;stroke-width:2.9526"/></svg>